<?xml version="1.0" encoding="UTF-8"?>
<svg width="64px" height="43px" viewBox="0 0 64 43" version="1.1" xmlns="http://www.w3.org/2000/svg" xmlns:xlink="http://www.w3.org/1999/xlink">
    <!-- Generator: Sketch 52.2 (67145) - http://www.bohemiancoding.com/sketch -->
    <title>Icon/Large/Visuals-Templates/7_Spot_unselected</title>
    <desc>Created with Sketch.</desc>
    <g id="Icon/Large/Visuals-Templates/7_Spot_unselected" stroke="none" stroke-width="1" fill="none" fill-rule="evenodd">
        <path d="M32.5,43 C20.6258779,43 11,33.3741221 11,21.5 C11,9.62587788 20.6258779,0 32.5,0 C44.3741221,0 54,9.62587788 54,21.5 C54,33.3741221 44.3741221,43 32.5,43 Z M32.5,42 C43.8218374,42 53,32.8218374 53,21.5 C53,10.1781626 43.8218374,1 32.5,1 C21.1781626,1 12,10.1781626 12,21.5 C12,32.8218374 21.1781626,42 32.5,42 Z" id="Combined-Shape" fill="#7E97B2" fill-rule="nonzero"></path>
        <path d="M32.5,40 C22.2827321,40 14,31.7172679 14,21.5 C14,11.2827321 22.2827321,3 32.5,3 C42.7172679,3 51,11.2827321 51,21.5 C51,31.7172679 42.7172679,40 32.5,40 Z M32.5,39 C42.1649831,39 50,31.1649831 50,21.5 C50,11.8350169 42.1649831,4 32.5,4 C22.8350169,4 15,11.8350169 15,21.5 C15,31.1649831 22.8350169,39 32.5,39 Z" id="Combined-Shape" fill="#7E97B2" fill-rule="nonzero"></path>
        <circle id="Oval-7" fill="#EAF3F9" fill-rule="nonzero" cx="32.5" cy="21.5" r="17.5"></circle>
        <g id="Group-5" transform="translate(26.000000, 17.000000)" fill-rule="nonzero">
            <rect id="Rectangle-path" fill="#CFDEE9" x="0.75" y="0.75" width="11.125" height="8.375"></rect>
            <rect id="Rectangle-path" fill="#EAF3F9" x="0.875" y="0.75" width="1" height="8.375"></rect>
            <rect id="Rectangle-path" fill="#B7CCDB" x="11" y="0.75" width="2" height="8.375"></rect>
            <path d="M12.2775972,9.75 L0.722041622,9.75 C0.323094663,9.75 0,9.43844443 0,9.05357143 L0,0.696428571 C0,0.311555567 0.323094663,0 0.722041622,0 L12.2775972,0 C12.6769054,0 13,0.311555567 13,0.696428571 L13,9.05357143 C13,9.43844443 12.6769054,9.75 12.2775972,9.75 Z M1.05444445,8.60714286 L11.9455555,8.60714286 L11.9455555,1.14285714 L1.05444445,1.14285714 L1.05444445,8.60714286 Z" id="Shape" fill="#7E97B2"></path>
        </g>
        <path d="M45.8523486,22.3314091 C45.9474574,22.2426688 46,22.1254941 46,21.9998828 C46,21.874584 45.9474574,21.7567844 45.8523486,21.6686691 L43.5747263,19.5913963 C43.4430373,19.4695346 43.2302065,19.4695346 43.0985174,19.5913963 C42.9671609,19.7135704 42.9671609,19.9113613 43.0985174,20.0332229 L45.25742,21.9998828 L43.0985174,23.9665427 C42.9671609,24.0884044 42.9671609,24.2861953 43.0985174,24.4083694 C43.2302065,24.5305435 43.4430373,24.5305435 43.5747263,24.4083694 L45.8523486,22.3314091 L45.8523486,22.3314091 Z" id="Arrow-Right-#1-Icon" fill="#7E97B2"></path>
        <path d="M21.8523486,22.3314091 C21.9474574,22.2426688 22,22.1254941 22,21.9998828 C22,21.874584 21.9474574,21.7567844 21.8523486,21.6686691 L19.5747263,19.5913963 C19.4430373,19.4695346 19.2302065,19.4695346 19.0985174,19.5913963 C18.9671609,19.7135704 18.9671609,19.9113613 19.0985174,20.0332229 L21.25742,21.9998828 L19.0985174,23.9665427 C18.9671609,24.0884044 18.9671609,24.2861953 19.0985174,24.4083694 C19.2302065,24.5305435 19.4430373,24.5305435 19.5747263,24.4083694 L21.8523486,22.3314091 L21.8523486,22.3314091 Z" id="Arrow-Right-#1-Icon-Copy" fill="#7E97B2" transform="translate(20.500000, 22.000000) scale(-1, 1) translate(-20.500000, -22.000000) "></path>
        <g id="Group-2" transform="translate(29.000000, 31.000000)" fill-rule="nonzero">
            <rect id="Rectangle-Copy-4" fill="#7E97B2" x="0" y="1" width="2" height="2" rx="0.5"></rect>
            <rect id="Rectangle-Copy-6" fill="#B7CCDB" x="5" y="1" width="2" height="2" rx="0.5"></rect>
            <rect id="Rectangle-Copy-5" fill="#CFDEE9" x="3" y="0" width="1" height="4" rx="0.5"></rect>
        </g>
        <path d="M49.9989842,21.6933124 C49.8983026,31.2692409 42.3261646,39 33,39 C32.9177366,39 32.8356097,38.9993985 32.7536232,38.9981996 C32.6692253,38.9993985 32.5846829,39 32.5,39 C22.8350169,39 15,31.1649831 15,21.5 C15,11.8350169 22.8350169,4 32.5,4 C32.5846829,4 32.6692253,4.00060149 32.7536232,4.00180043 C32.8356097,4.00060149 32.9177366,4 33,4 C42.3261646,4 49.8983026,11.7307591 49.9989842,21.3066876 C49.8962296,11.8152295 42.2373797,4.13652515 32.7536232,4.00180043 C23.4783683,4.13743859 16,11.9196998 16,21.5 C16,31.0803002 23.4783683,38.8625614 32.7536232,38.9981996 C42.2373797,38.8634749 49.8962296,31.1847705 49.9989544,21.6933052 Z" id="Combined-Shape" fill="#FFFFFF" fill-rule="nonzero"></path>
        <path d="M35,9.5 C35,10.1997583 34.7168042,10.8167875 34.2677336,11.2660665 C33.8167875,11.7168042 33.1997583,12 32.5002084,12 C31.1167375,12 30,10.8834709 30,9.5 C30,8.11652913 31.1167375,7 32.5002084,7 C33.8836793,7 35,8.11673752 35,9.5 Z" id="Shape" fill="#B7CCDB" fill-rule="nonzero"></path>
    </g>
</svg>