<?xml version="1.0" encoding="UTF-8"?>
<svg width="64px" height="43px" viewBox="0 0 64 43" version="1.1" xmlns="http://www.w3.org/2000/svg" xmlns:xlink="http://www.w3.org/1999/xlink">
    <!-- Generator: Sketch 52.2 (67145) - http://www.bohemiancoding.com/sketch -->
    <title>Icon/Large/Visuals-Templates/4_Spot_unselected</title>
    <desc>Created with Sketch.</desc>
    <g id="Icon/Large/Visuals-Templates/4_Spot_unselected" stroke="none" stroke-width="1" fill="none" fill-rule="evenodd">
        <path d="M32.5,43 C20.6258779,43 11,33.3741221 11,21.5 C11,9.62587788 20.6258779,0 32.5,0 C44.3741221,0 54,9.62587788 54,21.5 C54,33.3741221 44.3741221,43 32.5,43 Z M32.5,42 C43.8218374,42 53,32.8218374 53,21.5 C53,10.1781626 43.8218374,1 32.5,1 C21.1781626,1 12,10.1781626 12,21.5 C12,32.8218374 21.1781626,42 32.5,42 Z" id="Combined-Shape" fill="#7E97B2" fill-rule="nonzero"></path>
        <path d="M32.5,40 C22.2827321,40 14,31.7172679 14,21.5 C14,11.2827321 22.2827321,3 32.5,3 C42.7172679,3 51,11.2827321 51,21.5 C51,31.7172679 42.7172679,40 32.5,40 Z M32.5,39 C42.1649831,39 50,31.1649831 50,21.5 C50,11.8350169 42.1649831,4 32.5,4 C22.8350169,4 15,11.8350169 15,21.5 C15,31.1649831 22.8350169,39 32.5,39 Z" id="Combined-Shape" fill="#7E97B2" fill-rule="nonzero"></path>
        <circle id="Oval-7" fill="#EAF3F9" fill-rule="nonzero" cx="32.5" cy="21.5" r="17.5"></circle>
        <g id="Group-2" transform="translate(23.000000, 20.000000)" fill-rule="nonzero">
            <path d="M3.22826087,0.720588235 C3.87789067,0.720588235 4.40217391,1.27228498 4.40217391,1.95588235 C4.40217391,2.63947972 3.87789067,3.19117647 3.22826087,3.19117647 C2.57863107,3.19117647 2.05434783,2.63947972 2.05434783,1.95588235 C2.05434783,1.27228498 2.57863107,0.720588235 3.22826087,0.720588235 Z" id="Shape" fill="#FFFFFF"></path>
            <polygon id="Shape" fill="#EAF3F9" points="9.31521739 11.3329172 8.51032869 13.0735294 4.22826087 13.0735294 7.23409238 7.30882353"></polygon>
            <polygon id="Shape" fill="#EAF3F9" points="12.9836957 4.83823529 17.1413043 13.1764706 8.82608696 13.1764706 9.60760098 11.6029113"></polygon>
            <path d="M2.31086953,3.8878249 C2.31086953,4.62971352 2.92107697,5.22845417 3.67717386,5.22845417 C4.43327075,5.22845417 5.04347818,4.62971352 5.04347818,3.8878249 C5.04347818,3.14593628 4.43327075,2.54719562 3.67717386,2.54719562 C2.92107697,2.54719562 2.31086953,3.14604802 2.31086953,3.8878249 Z M0.489130435,0.823529412 L18.7065214,0.823529412 L18.7065214,13.1764706 L17.7956576,13.1764706 L12.7858694,5.99452804 L9.14239116,11.2612859 L7.5236412,8.38850889 L3.9940217,13.1764706 L0.489130435,13.1764706 L0.489130435,0.823529412 Z" id="Shape" fill="#CFDEE9"></path>
            <rect id="Rectangle-path" fill="#B7CCDB" x="17.5" y="1" width="1" height="12"></rect>
            <rect id="Rectangle-path" fill="#EAF3F9" x="0.5" y="1" width="1" height="12"></rect>
            <path d="M8.75443567,13.1757764 C8.67886616,13.1757764 8.60256499,13.1520744 8.53399847,13.1017533 C8.33812396,12.9602709 8.27812825,12.6612615 8.40021012,12.4334796 L12.5804689,5.47790348 C12.65677,5.336421 12.7906629,5.25 12.934799,5.25 C13.0788305,5.25 13.2127233,5.336421 13.289129,5.47790348 L17.4689697,12.4315348 C17.5913652,12.6593167 17.5318921,12.9592985 17.3362266,13.1017533 C17.1407701,13.2451806 16.882705,13.1757764 16.7603095,12.9478729 L12.934799,6.65315615 L9.10960193,12.9460497 C9.03026962,13.0940958 8.89397274,13.1757764 8.75443567,13.1757764 Z" id="Shape" fill="#7E97B2"></path>
            <path d="M4.49022994,13.4852941 C4.39938491,13.4852941 4.30762342,13.4531684 4.22766147,13.3854848 C4.02053939,13.2107157 3.97036269,12.8696892 4.11585221,12.6210585 L7.33162864,7.95439178 C7.41754764,7.80749233 7.55616363,7.76561907 7.70738108,7.72058824 C7.85676558,7.72058824 7.99675628,7.80859059 8.08221705,7.95658838 L9.91844826,10.5599268 C10.0634795,10.8086948 10.0119281,11.1498585 9.80434783,11.3235294 C9.59676751,11.4973376 9.31140187,11.4361065 9.16694339,11.1862402 L7.70520446,9.22829847 L4.8656387,13.2516279 C4.77651205,13.4037443 4.63423019,13.4852941 4.49022994,13.4852941 Z" id="Shape" fill="#7E97B2"></path>
            <path d="M18.5476218,13.5882353 L0.452378259,13.5882353 C0.20237677,13.5882353 0,13.3978888 0,13.1627486 L0,1.24901606 C0,1.0138759 0.20237677,0.823529412 0.452378259,0.823529412 L18.5476218,0.823529412 C18.7976232,0.823529412 19,1.0138759 19,1.24901606 L19,13.1627486 C19,13.3978888 18.7976232,13.5882353 18.5476218,13.5882353 Z M0.904756518,12.737262 L18.0952435,12.737262 L18.0952435,1.67450271 L0.904756518,1.67450271 L0.904756518,12.737262 Z" id="Shape" fill="#7E97B2"></path>
            <path d="M3.5,5.44117647 C2.67273068,5.44117647 2,4.76882088 2,3.94117647 C2,3.11353206 2.67273068,2.44117647 3.5,2.44117647 C4.32726932,2.44117647 5,3.11353206 5,3.94117647 C5,4.76882088 4.32736309,5.44117647 3.5,5.44117647 Z M3.5,3.19117647 C3.08655288,3.19117647 2.75,3.52810445 2.75,3.94117647 C2.75,4.35424849 3.08655288,4.69117647 3.5,4.69117647 C3.91344711,4.69117647 4.25,4.35424849 4.25,3.94117647 C4.25,3.52810445 3.91354089,3.19117647 3.5,3.19117647 Z" id="Shape" fill="#7E97B2"></path>
        </g>
        <path d="M49.9989842,21.6933124 C49.8983026,31.2692409 42.3261646,39 33,39 C32.9177366,39 32.8356097,38.9993985 32.7536232,38.9981996 C32.6692253,38.9993985 32.5846829,39 32.5,39 C22.8350169,39 15,31.1649831 15,21.5 C15,11.8350169 22.8350169,4 32.5,4 C32.5846829,4 32.6692253,4.00060149 32.7536232,4.00180043 C32.8356097,4.00060149 32.9177366,4 33,4 C42.3261646,4 49.8983026,11.7307591 49.9989842,21.3066876 C49.8962296,11.8152295 42.2373797,4.13652515 32.7536232,4.00180043 C23.4783683,4.13743859 16,11.9196998 16,21.5 C16,31.0803002 23.4783683,38.8625614 32.7536232,38.9981996 C42.2373797,38.8634749 49.8962296,31.1847705 49.9989544,21.6933052 Z" id="Combined-Shape" fill="#FFFFFF" fill-rule="nonzero"></path>
        <g id="Group" transform="translate(28.000000, 16.000000)" fill="#B7CCDB" fill-rule="nonzero">
            <path d="M4.86342519,0.99975 L0.374109642,0.99975 C0.167268768,0.99975 0,0.77625 0,0.499875 C0,0.223625 0.167268768,0 0.374109642,0 L4.86342519,0 L8.62579681,0 C8.8326376,0 9,0.223625 9,0.499875 C9,0.77625 8.8326376,0.99975 8.62579681,0.99975 L4.86342519,0.99975 Z" id="Combined-Shape"></path>
        </g>
        <path d="M35,9.5 C35,10.1997583 34.7168042,10.8167875 34.2677336,11.2660665 C33.8167875,11.7168042 33.1997583,12 32.5002084,12 C31.1167375,12 30,10.8834709 30,9.5 C30,8.11652913 31.1167375,7 32.5002084,7 C33.8836793,7 35,8.11673752 35,9.5 Z" id="Shape" fill="#B7CCDB" fill-rule="nonzero"></path>
    </g>
</svg>