<?xml version="1.0" encoding="UTF-8"?>
<svg width="64px" height="43px" viewBox="0 0 64 43" version="1.1" xmlns="http://www.w3.org/2000/svg" xmlns:xlink="http://www.w3.org/1999/xlink">
    <!-- Generator: Sketch 52.2 (67145) - http://www.bohemiancoding.com/sketch -->
    <title>Icon/Large/Visuals-Templates/6_Spot_unselected</title>
    <desc>Created with Sketch.</desc>
    <g id="Icon/Large/Visuals-Templates/6_Spot_unselected" stroke="none" stroke-width="1" fill="none" fill-rule="evenodd">
        <path d="M32.5,43 C20.6258779,43 11,33.3741221 11,21.5 C11,9.62587788 20.6258779,0 32.5,0 C44.3741221,0 54,9.62587788 54,21.5 C54,33.3741221 44.3741221,43 32.5,43 Z M32.5,42 C43.8218374,42 53,32.8218374 53,21.5 C53,10.1781626 43.8218374,1 32.5,1 C21.1781626,1 12,10.1781626 12,21.5 C12,32.8218374 21.1781626,42 32.5,42 Z" id="Combined-Shape" fill="#7E97B2" fill-rule="nonzero"></path>
        <path d="M32.5,40 C22.2827321,40 14,31.7172679 14,21.5 C14,11.2827321 22.2827321,3 32.5,3 C42.7172679,3 51,11.2827321 51,21.5 C51,31.7172679 42.7172679,40 32.5,40 Z M32.5,39 C42.1649831,39 50,31.1649831 50,21.5 C50,11.8350169 42.1649831,4 32.5,4 C22.8350169,4 15,11.8350169 15,21.5 C15,31.1649831 22.8350169,39 32.5,39 Z" id="Combined-Shape" fill="#7E97B2" fill-rule="nonzero"></path>
        <circle id="Oval-7" fill="#EAF3F9" fill-rule="nonzero" cx="32.5" cy="21.5" r="17.5"></circle>
        <g id="Group-3" transform="translate(23.000000, 20.000000)" fill-rule="nonzero">
            <path d="M11.8634252,3.99975 L7.37410964,3.99975 C7.16726877,3.99975 7,3.77625 7,3.499875 C7,3.223625 7.16726877,3 7.37410964,3 L11.8634252,3 L15.6257968,3 C15.8326376,3 16,3.223625 16,3.499875 C16,3.77625 15.8326376,3.99975 15.6257968,3.99975 L11.8634252,3.99975 Z" id="Combined-Shape" fill="#B7CCDB"></path>
            <g id="Group">
                <rect id="Rectangle-Copy-7" fill="#7E97B2" x="7" y="1" width="12" height="1" rx="0.5"></rect>
                <g id="Group-2">
                    <circle id="Oval" fill="#EAF3F9" cx="2.5" cy="2.5" r="1.5"></circle>
                    <circle id="Oval" fill="#CFDEE9" cx="2.8" cy="2.5" r="1.5"></circle>
                    <path d="M2.5,5 C1.11928813,5 0,3.88071187 0,2.5 C0,1.11928813 1.11928813,0 2.5,0 C3.88071187,0 5,1.11928813 5,2.5 C5,3.88071187 3.88071187,5 2.5,5 Z M2.5,4 C3.32842712,4 4,3.32842712 4,2.5 C4,1.67157288 3.32842712,1 2.5,1 C1.67157288,1 1,1.67157288 1,2.5 C1,3.32842712 1.67157288,4 2.5,4 Z" id="Combined-Shape" fill="#7E97B2"></path>
                </g>
            </g>
        </g>
        <g id="Group-3-Copy" transform="translate(23.000000, 28.000000)" fill-rule="nonzero">
            <path d="M11.8634252,3.99975 L7.37410964,3.99975 C7.16726877,3.99975 7,3.77625 7,3.499875 C7,3.223625 7.16726877,3 7.37410964,3 L11.8634252,3 L15.6257968,3 C15.8326376,3 16,3.223625 16,3.499875 C16,3.77625 15.8326376,3.99975 15.6257968,3.99975 L11.8634252,3.99975 Z" id="Combined-Shape" fill="#B7CCDB"></path>
            <g id="Group">
                <rect id="Rectangle-Copy-7" fill="#7E97B2" x="7" y="1" width="12" height="1" rx="0.5"></rect>
                <g id="Group-2">
                    <circle id="Oval" fill="#EAF3F9" cx="2.5" cy="2.5" r="1.5"></circle>
                    <circle id="Oval" fill="#CFDEE9" cx="2.8" cy="2.5" r="1.5"></circle>
                    <path d="M2.5,5 C1.11928813,5 0,3.88071187 0,2.5 C0,1.11928813 1.11928813,0 2.5,0 C3.88071187,0 5,1.11928813 5,2.5 C5,3.88071187 3.88071187,5 2.5,5 Z M2.5,4 C3.32842712,4 4,3.32842712 4,2.5 C4,1.67157288 3.32842712,1 2.5,1 C1.67157288,1 1,1.67157288 1,2.5 C1,3.32842712 1.67157288,4 2.5,4 Z" id="Combined-Shape" fill="#7E97B2"></path>
                </g>
            </g>
        </g>
        <path d="M32.8634252,15.99975 L28.3741096,15.99975 C28.1672688,15.99975 28,15.77625 28,15.499875 C28,15.223625 28.1672688,15 28.3741096,15 L32.8634252,15 L36.6257968,15 C36.8326376,15 37,15.223625 37,15.499875 C37,15.77625 36.8326376,15.99975 36.6257968,15.99975 L32.8634252,15.99975 Z" id="Combined-Shape" fill="#B7CCDB" fill-rule="nonzero"></path>
        <path d="M49.9989842,21.6933124 C49.8983026,31.2692409 42.3261646,39 33,39 C32.9177366,39 32.8356097,38.9993985 32.7536232,38.9981996 C32.6692253,38.9993985 32.5846829,39 32.5,39 C22.8350169,39 15,31.1649831 15,21.5 C15,11.8350169 22.8350169,4 32.5,4 C32.5846829,4 32.6692253,4.00060149 32.7536232,4.00180043 C32.8356097,4.00060149 32.9177366,4 33,4 C42.3261646,4 49.8983026,11.7307591 49.9989842,21.3066876 C49.8962296,11.8152295 42.2373797,4.13652515 32.7536232,4.00180043 C23.4783683,4.13743859 16,11.9196998 16,21.5 C16,31.0803002 23.4783683,38.8625614 32.7536232,38.9981996 C42.2373797,38.8634749 49.8962296,31.1847705 49.9989544,21.6933052 Z" id="Combined-Shape" fill="#FFFFFF" fill-rule="nonzero"></path>
        <path d="M35,9.5 C35,10.1997583 34.7168042,10.8167875 34.2677336,11.2660665 C33.8167875,11.7168042 33.1997583,12 32.5002084,12 C31.1167375,12 30,10.8834709 30,9.5 C30,8.11652913 31.1167375,7 32.5002084,7 C33.8836793,7 35,8.11673752 35,9.5 Z" id="Shape" fill="#B7CCDB" fill-rule="nonzero"></path>
    </g>
</svg>