<?xml version="1.0" encoding="UTF-8"?>
<svg width="64px" height="43px" viewBox="0 0 64 43" version="1.1" xmlns="http://www.w3.org/2000/svg" xmlns:xlink="http://www.w3.org/1999/xlink">
    <!-- Generator: Sketch 52.2 (67145) - http://www.bohemiancoding.com/sketch -->
    <title>Icon/Large/Visuals-Templates/9</title>
    <desc>Created with Sketch.</desc>
    <g id="Icon/Large/Visuals-Templates/9" stroke="none" stroke-width="1" fill="none" fill-rule="evenodd">
        <g id="Group-4">
            <g id="Group" fill-rule="nonzero">
                <path d="M4,0 L60,0 C62.209139,-4.05812251e-16 64,1.790861 64,4 L64,39 C64,41.209139 62.209139,43 60,43 L4,43 C1.790861,43 2.705415e-16,41.209139 0,39 L0,4 C-2.705415e-16,1.790861 1.790861,4.05812251e-16 4,0 Z M4,1 C2.34314575,1 1,2.34314575 1,4 L1,39 C1,40.6568542 2.34314575,42 4,42 L60,42 C61.6568542,42 63,40.6568542 63,39 L63,4 C63,2.34314575 61.6568542,1 60,1 L4,1 Z" id="Combined-Shape" fill="#116FFF"></path>
                <path d="M47.1005952,40 C37.7763255,40 23.7427937,40 5,40 C3.8954305,40 3,39.1045695 3,38 L3,5 C3,3.8954305 3.8954305,3 5,3 L59,3 C60.1045695,3 61,3.8954305 61,5 L61,18.1 M60.5,18 L61,18 L61,19.5 C61,19.7761424 60.7761424,20 60.5,20 L60.5,20 C60.2238576,20 60,19.7761424 60,19.5 L60,18.5 C60,18.2238576 60.2238576,18 60.5,18 Z M46.6,39 L47.6,39 C47.8761424,39 48.1,39.2238576 48.1,39.5 L48.1,39.5 C48.1,39.7761424 47.8761424,40 47.6,40 L46.6,40 C46.3238576,40 46.1,39.7761424 46.1,39.5 L46.1,39.5 C46.1,39.2238576 46.3238576,39 46.6,39 Z M61,23 L61,36 M61,38 C61,39.1045695 60.1045695,40 59,40 L55.9867619,40 M54,39 L50,39 M48,39 L5,39 C4.44771525,39 4,38.5522847 4,38 L4,5 C4,4.44771525 4.44771525,4 5,4 L59,4 C59.5522847,4 60,4.44771525 60,5 C60,12.7587368 60,17.7486192 60,19.9696473 M60,23.0887266 C60,29.6543478 60,33.3143867 60,36.0688431 M60,38 C60,38.5522847 59.5522847,39 59,39 L56,39 M56.2,39 L58.2,39 C58.4761424,39 58.7,39.2238576 58.7,39.5 L58.7,39.5 C58.7,39.7761424 58.4761424,40 58.2,40 L56.2,40 C55.9238576,40 55.7,39.7761424 55.7,39.5 L55.7,39.5 C55.7,39.2238576 55.9238576,39 56.2,39 Z M59.7313175,37.3881329 L60.6710101,37.7301531 C60.930499,37.8245993 61.0642926,38.1115205 60.9698463,38.3710095 L60.9698463,38.3710095 C60.8754001,38.6304984 60.5884789,38.7642919 60.3289899,38.6698457 L59.3892973,38.3278255 C59.1298084,38.2333793 58.9960148,37.9464581 59.0904611,37.6869692 L59.0904611,37.6869692 C59.1849073,37.4274802 59.4718285,37.2936867 59.7313175,37.3881329 Z" id="Combined-Shape" fill="#116FFF"></path>
                <rect id="Rectangle-Copy" fill="#D7E9FF" x="4" y="4" width="56" height="35" rx="1"></rect>
                <g id="Group-2" transform="translate(6.000000, 9.000000)">
                    <g id="Group-3" transform="translate(3.000000, 0.000000)">
                        <rect id="Rectangle" fill="#116FFF" x="0" y="8" width="16" height="1" rx="0.5"></rect>
                        <rect id="Rectangle-Copy-18" fill="#116FFF" x="0" y="12" width="7" height="1" rx="0.5"></rect>
                        <rect id="Rectangle-Copy-21" fill="#94C1FF" x="0" y="16" width="15" height="1" rx="0.5"></rect>
                        <rect id="Rectangle-Copy-5" fill="#116FFF" x="0" y="0" width="6" height="1" rx="0.5"></rect>
                        <rect id="Rectangle-Copy-6" fill="#116FFF" x="9" y="0" width="14" height="1" rx="0.5"></rect>
                        <rect id="Rectangle-Copy-10" fill="#94C1FF" x="0" y="20" width="16" height="1" rx="0.5"></rect>
                        <rect id="Rectangle-Copy-14" fill="#94C1FF" x="0" y="24" width="9" height="1" rx="0.5"></rect>
                        <rect id="Rectangle-Copy-16" fill="#94C1FF" x="25" y="24" width="4" height="1" rx="0.5"></rect>
                        <rect id="Rectangle-Copy-15" fill="#94C1FF" x="11" y="24" width="12" height="1" rx="0.5"></rect>
                        <rect id="Rectangle-Copy-11" fill="#94C1FF" x="18" y="20" width="10" height="1" rx="0.5"></rect>
                        <rect id="Rectangle-Copy-7" fill="#116FFF" x="0" y="4" width="12" height="1" rx="0.5"></rect>
                        <rect id="Rectangle-Copy-4" fill="#116FFF" x="18" y="8" width="2" height="1" rx="0.5"></rect>
                        <rect id="Rectangle-Copy-19" fill="#116FFF" x="9" y="12" width="11" height="1" rx="0.5"></rect>
                        <rect id="Rectangle-Copy-22" fill="#94C1FF" x="17" y="16" width="6" height="1" rx="0.5"></rect>
                        <rect id="Rectangle-Copy-17" fill="#5C9EFF" x="28" y="8" width="5" height="1" rx="0.5"></rect>
                        <rect id="Rectangle-Copy-8" fill="#116FFF" x="14" y="4" width="6" height="1" rx="0.5"></rect>
                    </g>
                    <rect id="Rectangle" fill="#116FFF" x="0" y="0" width="1" height="1" rx="0.5"></rect>
                    <rect id="Rectangle-Copy-12" fill="#116FFF" x="0" y="4" width="1" height="1" rx="0.5"></rect>
                    <rect id="Rectangle-Copy-13" fill="#116FFF" x="0" y="8" width="1" height="1" rx="0.5"></rect>
                    <rect id="Rectangle-Copy-23" fill="#116FFF" x="0" y="12" width="1" height="1" rx="0.5"></rect>
                    <rect id="Rectangle-Copy-24" fill="#116FFF" x="0" y="16" width="1" height="1" rx="0.5"></rect>
                    <rect id="Rectangle-Copy-25" fill="#116FFF" x="0" y="20" width="1" height="1" rx="0.5"></rect>
                    <rect id="Rectangle-Copy-26" fill="#116FFF" x="0" y="24" width="1" height="1" rx="0.5"></rect>
                </g>
                <path d="M6,4 C5.44771525,4 5,4.44771525 5,5 L5,38 C5,38.5522847 5.44771525,39 6,39 L5,39 C4.44771525,39 4,38.5522847 4,38 L4,5 C4,4.44771525 4.44771525,4 5,4 L6,4 Z" id="Combined-Shape" fill="#FFFFFF"></path>
            </g>
            <g id="Group-2" transform="translate(31.500000, 10.000000)">
                <path d="M23.877115,18.996125 C23.877115,17.066875 22.3101754,15.497 20.3848109,15.497 C18.4495906,15.497 16.8925068,17.067 16.8925068,18.996125 C16.8925068,20.92625 18.4495906,22.49525 20.3848109,22.49525 C22.3101754,22.49525 23.877115,20.92625 23.877115,18.996125 Z" id="Path" fill="#94C1FF" fill-rule="nonzero"></path>
                <path d="M29.3650214,18.996125 C29.3650214,19.9265 29.2246706,20.816 28.9655517,21.6555 L31.3703548,23.045875 L29.3747524,26.51475 L26.9602183,25.11475 C25.7529513,26.41425 24.1665497,27.354375 22.3804133,27.764375 L22.3804133,30.49325 L18.3890838,30.49325 L18.3890838,27.764375 C16.5923431,27.354375 15.0166706,26.414125 13.8094035,25.11475 L11.3848889,26.51475 L9.38928655,23.045875 L11.8039454,21.6555 C11.5447018,20.815875 11.4043509,19.9265 11.4043509,18.996125 C11.4043509,18.0765 11.5447018,17.187 11.8039454,16.347375 L9.38928655,14.947375 L11.3848889,11.48825 L13.8094035,12.88825 C15.0166706,11.578125 16.5923431,10.638875 18.3890838,10.228875 L18.3890838,7.499 L22.3802885,7.499 L22.3802885,10.228875 C24.166425,10.638875 25.7528265,11.578125 26.9600936,12.88825 L29.3746277,11.48825 L31.37023,14.947375 L28.9655517,16.3375 C29.2246706,17.17725 29.3650214,18.076375 29.3650214,18.996125 Z" id="Path" fill="#94C1FF" fill-rule="nonzero"></path>
                <path d="M10.5802105,23.34075 L12.9947446,21.9505 C12.7356257,21.110875 12.4022768,19.926625 12.4022768,18.996125 C12.4022768,18.0765 12.7356257,16.807125 12.9947446,15.9675 L10.5802105,14.5675 L12.1334269,11.920625 L11.3850136,11.488125 L9.38941131,14.94725 L11.8040702,16.34725 C11.5448265,17.187 11.4044756,18.076375 11.4044756,18.996 C11.4044756,19.926375 11.5448265,20.815875 11.8040702,21.655375 L9.38941131,23.04575 L11.3850136,26.514625 L12.134425,26.082125 L10.5802105,23.34075 Z" id="Path" fill="#D7E9FF"></path>
                <path d="M30.2068772,14.561625 L27.7923431,15.951875 C28.0515867,16.7915 28.3633528,18.076375 28.3633528,19.00675 C28.3633528,19.926375 28.2230019,21.251375 27.963883,22.091 L30.1981442,23.230375 L28.6323275,26.082125 L29.380616,26.514625 L31.3762183,23.055625 L28.9616842,21.6555 C29.2208031,20.815875 29.361154,19.9265 29.361154,19.006875 C29.361154,18.0765 29.2208031,17.187 28.9616842,16.347375 L31.3762183,14.957 L29.380616,11.488125 L28.6313294,11.920625 L30.2068772,14.561625 Z" id="Path" fill="#5C9EFF"></path>
                <path d="M20.3846862,15.497 C22.3101754,15.497 23.8769903,17.067 23.8769903,18.996125 C23.8769903,20.92625 22.3100507,22.49525 20.3846862,22.49525 C18.4494659,22.49525 16.8923821,20.92625 16.8923821,18.996125 C16.8923821,17.066875 18.4495906,15.497 20.3846862,15.497 Z" id="Path" fill="#5C9EFF"></path>
                <path d="M6.41546979,4.9995 C7.51270175,4.9995 8.41107212,5.899625 8.41107212,6.999 C8.41107212,8.109125 7.51270175,8.9985 6.41546979,8.9985 C5.30863158,8.9985 4.41986745,8.109125 4.41986745,6.999 C4.41986745,5.899625 5.30863158,4.9995 6.41546979,4.9995 Z" id="Path" fill="#5C9EFF"></path>
                <path d="M8.41107212,6.999 C8.41107212,5.899625 7.51270175,4.9995 6.41546979,4.9995 C5.30863158,4.9995 4.41986745,5.899625 4.41986745,6.999 C4.41986745,8.109125 5.30863158,8.9985 6.41546979,8.9985 C7.51270175,8.9985 8.41107212,8.109125 8.41107212,6.999 Z" id="Path" fill="#94C1FF" fill-rule="nonzero"></path>
                <path d="M10.8657778,6.63975 L12.1022378,6.9795 L11.3246316,9.868375 L10.1066355,9.538375 C9.95755166,9.76875 9.7880078,9.978625 9.5882729,10.178875 C9.38941131,10.379 9.17907212,10.548875 8.95014425,10.69825 L9.27950097,11.917625 L6.38540351,12.69775 L6.05704483,11.4685 C5.51722417,11.41775 4.9891306,11.288 4.49010526,11.04875 L3.59173489,11.947875 L1.47624172,9.82825 L2.37373879,8.929 C2.13495517,8.429125 1.9957271,7.899 1.95480702,7.359125 L0.727953216,7.029125 L1.49670175,4.1305 L2.72355556,4.4595 C2.87263938,4.230125 3.04318129,4.020125 3.24291618,3.82 C3.43192203,3.619875 3.65211696,3.45 3.87044055,3.300625 L3.54195712,2.08025 L6.43493177,1.30125 L6.76441326,2.540125 C7.30423392,2.580125 7.83245224,2.72075 8.33135283,2.950125 L9.23945419,2.051 L11.3538246,4.169625 L10.4467212,5.06975 C10.6853801,5.56975 10.825731,6.099875 10.8657778,6.63975 Z" id="Path" fill="#94C1FF" fill-rule="nonzero"></path>
                <path d="M10.8657778,6.63975 C10.8258558,6.099875 10.6855049,5.569625 10.4467212,5.06975 L11.3538246,4.169625 L9.23945419,2.051 L8.73768421,2.548 L10.3561481,4.16975 L9.44904483,5.069875 C9.68782846,5.56975 9.80871735,6.64475 9.84863938,7.184625 L10.9915322,7.499 L10.3951969,9.616625 L11.3247563,9.8685 L12.1023626,6.979625 L10.8657778,6.63975 Z" id="Path" fill="#5C9EFF"></path>
                <path d="M2.56948148,9.9495 L3.4668538,9.050375 C3.22819493,8.5505 2.83945419,7.208125 2.79853411,6.668125 L1.8874386,6.419125 L2.42813255,4.380625 L1.496577,4.130625 L0.72782846,7.02925 L1.95468226,7.35925 C1.99560234,7.899125 2.13483041,8.42925 2.37361404,8.929125 L1.47611696,9.828375 L3.59161014,11.948 L4.09051072,11.448125 L2.56948148,9.9495 Z" id="Path" fill="#D7E9FF"></path>
                <path d="M20.3846862,22.997125 C18.1834854,22.997125 16.3934815,21.203625 16.3934815,18.998125 C16.3934815,16.792625 18.1836101,14.999125 20.3846862,14.999125 C22.5860117,14.999125 24.3758908,16.792625 24.3758908,18.998125 C24.3758908,21.203625 22.5860117,22.997125 20.3846862,22.997125 Z M20.3846862,15.99875 C18.7341598,15.99875 17.3912827,17.344125 17.3912827,18.998 C17.3912827,20.651875 18.7341598,21.99725 20.3846862,21.99725 C22.0353372,21.99725 23.3780897,20.651875 23.3780897,18.998 C23.3780897,17.344125 22.035462,15.99875 20.3846862,15.99875 Z" id="Shape" fill="#116FFF" fill-rule="nonzero"></path>
                <g id="Group" transform="translate(13.286550, 11.875000)" fill="#116FFF">
                    <path d="M13.5839688,7.622 C13.3082573,7.622 13.0850682,7.3985 13.0850682,7.122125 C13.0850682,3.815375 10.3996881,1.124625 7.09826121,1.124625 C6.82254971,1.124625 6.59936062,0.901 6.59936062,0.62475 C6.59936062,0.3485 6.82254971,0.124875 7.09826121,0.124875 C10.949115,0.124875 14.0828694,3.26375 14.0828694,7.12225 C14.0828694,7.3985 13.8598051,7.622 13.5839688,7.622 Z" id="Path"></path>
                    <path d="M7.09813645,14.121375 C3.24728265,14.121375 0.113528265,10.9815 0.113528265,7.123125 C0.113528265,6.84675 0.336717349,6.62325 0.612553606,6.62325 C0.888265107,6.62325 1.11132943,6.84675 1.11132943,7.123125 C1.11132943,10.430875 3.79683431,13.121625 7.09813645,13.121625 C7.37397271,13.121625 7.59703704,13.34525 7.59703704,13.6215 C7.59703704,13.89775 7.37397271,14.121375 7.09813645,14.121375 Z" id="Path"></path>
                </g>
                <path d="M20.4150019,19.497875 C20.1392904,19.497875 19.9112359,19.274375 19.9112359,18.998 C19.9112359,18.721625 20.1295595,18.498125 20.4042729,18.498125 L20.4150019,18.498125 C20.6898402,18.498125 20.9139025,18.721625 20.9139025,18.998 C20.9139025,19.274375 20.6898402,19.497875 20.4150019,19.497875 Z" id="Path" fill="#116FFF"></path>
                <path d="M6.44566082,7.500875 C6.16994932,7.500875 5.94201949,7.27725 5.94201949,7.001 C5.94201949,6.72475 6.16021832,6.501125 6.43493177,6.501125 L6.44566082,6.501125 C6.72049903,6.501125 6.94468616,6.72475 6.94468616,7.001 C6.94468616,7.27725 6.72049903,7.500875 6.44566082,7.500875 Z" id="Path" fill="#116FFF"></path>
                <path d="M22.3804133,30.995125 L18.3890838,30.995125 C18.1133723,30.995125 17.8901832,30.7715 17.8901832,30.49525 L17.8901832,28.156 C16.3155088,27.72625 14.8871735,26.898375 13.7216998,25.7395 L11.6393918,26.943375 C11.3996101,27.081125 11.0947057,27 10.9582222,26.76075 L8.96261988,23.29675 C8.82438986,23.057625 8.90623002,22.752 9.14488889,22.614375 L11.2164678,21.415375 C11.0098713,20.6275 10.9056998,19.816125 10.9056998,18.998 C10.9056998,18.180875 11.0098713,17.370375 11.2154698,16.582625 L9.14389084,15.383625 C8.90523197,15.246 8.82339181,14.940375 8.96162183,14.70125 L10.9582222,11.23525 C11.0234698,11.12 11.1326316,11.037 11.2603821,11.001875 C11.3898791,10.968625 11.5243665,10.98525 11.6393918,11.052625 L13.7208265,12.2565 C14.8872982,11.097625 16.3156335,10.269625 17.890308,9.84 L17.890308,7.50075 C17.890308,7.2245 18.1134971,7.000875 18.3892086,7.000875 L22.3804133,7.000875 C22.6562495,7.000875 22.8793138,7.2245 22.8793138,7.50075 L22.8793138,9.84 C24.4539883,10.269625 25.8824483,11.0975 27.0489201,12.2565 L29.1303548,11.052625 C29.2442573,10.98525 29.3807407,10.968625 29.5093645,11.001875 C29.6369903,11.037 29.746152,11.12 29.8113996,11.23525 L31.8070019,14.69925 C31.9453567,14.938375 31.8635166,15.244 31.6248577,15.381625 L29.5532788,16.580625 C29.7598752,17.3685 29.8640468,18.179875 29.8640468,18.998 C29.8640468,19.816125 29.7598752,20.6275 29.5532788,21.414375 L31.6258558,22.614375 C31.7408811,22.680625 31.8235945,22.789 31.8586511,22.918 C31.8927096,23.045875 31.8742456,23.181625 31.808,23.29675 L29.8113996,26.76075 C29.6750409,27 29.3700117,27.083 29.1303548,26.943375 L27.0480468,25.7395 C25.8825731,26.898375 24.4541131,27.726375 22.8794386,28.156 L22.8794386,30.49525 C22.8793138,30.7715 22.6562495,30.995125 22.3804133,30.995125 Z M18.8879844,29.995375 L21.8813879,29.995375 L21.8813879,27.765375 C21.8813879,27.532125 22.0421988,27.33 22.2691306,27.27825 C23.9305107,26.8995 25.4263392,26.0325 26.5946823,24.772 C26.7526238,24.60025 27.0078752,24.56025 27.2094815,24.67925 L29.1973489,25.828375 L30.6951735,23.2295 L28.7171618,22.08525 C28.5154308,21.969 28.4208655,21.727875 28.4901053,21.50525 C28.7396179,20.693875 28.8662456,19.850375 28.8662456,18.998 C28.8662456,18.145625 28.7396179,17.30225 28.4901053,16.489875 C28.4208655,16.267375 28.5154308,16.026125 28.7171618,15.909875 L30.6943002,14.766625 L29.1974737,12.16775 L27.2106043,13.316875 C27.0099961,13.434875 26.7527485,13.395875 26.5958051,13.224125 C25.4264639,11.963625 23.9307602,11.096625 22.2692554,10.717875 C22.0423236,10.666125 21.8815127,10.464 21.8815127,10.23075 L21.8815127,8.00075 L18.8881092,8.00075 L18.8881092,10.23075 C18.8881092,10.464 18.727423,10.666125 18.5003665,10.717875 C16.8391111,11.096625 15.3431579,11.963625 14.1739415,13.224125 C14.016,13.395875 13.7607485,13.435 13.5590175,13.316875 L11.5721481,12.16775 L10.0744483,14.768625 L12.0515867,15.911875 C12.2533177,16.028125 12.3477583,16.268375 12.2786433,16.490875 C12.0301287,17.30425 11.903501,18.14675 11.903501,18.998125 C11.903501,19.850375 12.0301287,20.693875 12.2796413,21.50625 C12.3487563,21.72875 12.2543158,21.97 12.0525848,22.08625 L10.0754464,23.2295 L11.5721481,25.828375 L13.5600156,24.67925 C13.7607485,24.56025 14.0169981,24.60025 14.1749396,24.772 C15.3431579,26.0325 16.8389864,26.8995 18.5003665,27.27825 C18.727423,27.33 18.8881092,27.532125 18.8881092,27.765375 L18.8881092,29.995375 L18.8879844,29.995375 Z" id="Shape" fill="#116FFF" fill-rule="nonzero"></path>
                <path d="M6.3911423,13.200625 C6.3045614,13.200625 6.21872904,13.178125 6.14175439,13.13325 C6.02672904,13.067875 5.94401559,12.9585 5.90895906,12.8305 L5.66718129,11.9235 C5.30276803,11.86875 4.94908382,11.775 4.608,11.641375 L3.9474152,12.303375 C3.75254581,12.498625 3.43666277,12.498625 3.24191813,12.303375 L1.12442885,10.18275 C1.03098635,10.089 0.978339181,9.962 0.978339181,9.82925 C0.978339181,9.6965 1.03098635,9.5695 1.12442885,9.47575 L1.78613645,8.812875 C1.65264717,8.472125 1.55907992,8.11675 1.5034386,7.751625 L0.598705653,7.509375 C0.332725146,7.437125 0.174908382,7.16375 0.246019493,6.89625 L1.02025731,3.9995 C1.09224172,3.735 1.36321248,3.57975 1.63106433,3.646125 L2.52169981,3.885375 C2.64159064,3.731125 2.76247953,3.5935 2.88723587,3.4675 C3.01573489,3.339625 3.15421442,3.217625 3.30616764,3.0985 L3.06838207,2.208125 C3.03332554,2.08025 3.05178947,1.9435 3.11803509,1.82825 C3.18328265,1.714 3.29244444,1.630125 3.42007018,1.594875 L6.31129825,0.81775 C6.44179337,0.785625 6.57528265,0.80125 6.69030799,0.8685 C6.80533333,0.933875 6.88817154,1.04325 6.92322807,1.172125 L7.16575439,2.079125 C7.53016764,2.13475 7.88497466,2.2285 8.22493567,2.36125 L8.88564522,1.699375 C9.07265497,1.511875 9.40388304,1.511875 9.59101754,1.699375 L11.7075088,3.819875 C11.801076,3.913625 11.8537232,4.0405 11.8537232,4.173375 C11.8537232,4.306125 11.801076,4.433 11.7075088,4.52675 L11.0467992,5.18975 C11.1792904,5.5305 11.2728577,5.885875 11.3283743,6.25 L12.2327329,6.492125 C12.4987135,6.564375 12.6565302,6.83775 12.5854191,7.10525 L11.810807,10.001 C11.7757505,10.128875 11.6929123,10.23825 11.5778869,10.303625 C11.4628616,10.371 11.3273762,10.3875 11.1988772,10.354375 L10.3122339,10.115125 C10.191345,10.271375 10.0704561,10.409 9.94395322,10.535875 C9.81819883,10.661875 9.6817154,10.781875 9.52576998,10.903875 L9.76455361,11.79325 C9.83566472,12.060875 9.67784795,12.33425 9.41174269,12.406375 L6.52063938,13.183625 C6.47784795,13.194875 6.43393372,13.200625 6.3911423,13.200625 Z M4.49384795,10.549 C4.56595712,10.549 4.63906433,10.564625 4.70830409,10.596875 C5.14482651,10.804875 5.61253801,10.92975 6.0997115,10.967875 C6.31030019,10.9835 6.48745419,11.131875 6.54309552,11.336 L6.74382846,12.088625 L8.67118908,11.57025 L8.47332554,10.833125 C8.41868226,10.629125 8.49865107,10.41225 8.67118908,10.29225 C8.90410916,10.131125 9.08438207,9.98375 9.23833138,9.8295 C9.39415205,9.67325 9.54036647,9.492625 9.70117739,9.26025 C9.82106823,9.0855 10.0353996,9.009375 10.2409981,9.061125 L10.9756881,9.25925 L11.4921793,7.329125 L10.7418947,7.128 C10.5381676,7.072375 10.3910799,6.895625 10.3744873,6.68475 C10.3355634,6.196625 10.210807,5.727 10.0032125,5.2905 C9.91363743,5.099125 9.9525614,4.871625 10.1016452,4.722375 L10.6493255,4.173625 L9.23833138,2.759875 L8.69065107,3.3085 C8.54156725,3.457875 8.31363743,3.498875 8.12350877,3.406125 C7.68985575,3.199125 7.22127096,3.074125 6.73110331,3.035125 C6.52051462,3.0185 6.34336062,2.871125 6.28871735,2.666125 L6.08798441,1.913375 L4.16062378,2.43175 L4.35848733,3.170875 C4.41387914,3.376875 4.33316179,3.594625 4.15775439,3.71375 C3.93755945,3.864125 3.75242105,4.015375 3.59260819,4.174625 C3.43666277,4.33175 3.2905731,4.511375 3.13362963,4.739875 C3.01386355,4.913625 2.79840936,4.99175 2.59380897,4.94 L1.85525146,4.741875 L1.33876023,6.673 L2.08991813,6.874125 C2.29364522,6.92975 2.44073294,7.1065 2.45720078,7.317375 C2.49612476,7.8065 2.62088109,8.276125 2.82860039,8.712625 C2.91830019,8.903875 2.87925146,9.1315 2.73016764,9.28075 L2.18248733,9.8295 L3.59435478,11.24325 L4.14103704,10.6955 C4.23672515,10.59975 4.36435088,10.549 4.49384795,10.549 Z" id="Shape" fill="#116FFF" fill-rule="nonzero"></path>
                <path d="M6.41546979,9.500375 C5.03965692,9.500375 3.92109162,8.3795 3.92109162,7.001 C3.92109162,5.6225 5.03965692,4.501625 6.41546979,4.501625 C7.79140741,4.501625 8.91009747,5.6225 8.91009747,7.001 C8.91009747,8.3795 7.79140741,9.500375 6.41546979,9.500375 Z M6.41546979,5.501375 C5.59020663,5.501375 4.91889279,6.174125 4.91889279,7.001 C4.91889279,7.828 5.59020663,8.500625 6.41546979,8.500625 C7.2408577,8.500625 7.9122963,7.828 7.9122963,7.001 C7.9122963,6.174125 7.2408577,5.501375 6.41546979,5.501375 Z" id="Shape" fill="#116FFF" fill-rule="nonzero"></path>
            </g>
        </g>
    </g>
</svg>