<?xml version="1.0" encoding="UTF-8"?>
<svg width="14px" height="14px" viewBox="0 0 14 14" version="1.1" xmlns="http://www.w3.org/2000/svg" xmlns:xlink="http://www.w3.org/1999/xlink">
    <!-- Generator: Sketch 52.1 (67048) - http://www.bohemiancoding.com/sketch -->
    <title>Shape</title>
    <desc>Created with Sketch.</desc>
    <defs>
        <linearGradient x1="50%" y1="0%" x2="50%" y2="100%" id="linearGradient-1">
            <stop stop-color="#6E849A" stop-opacity="0.85" offset="0%"></stop>
            <stop stop-color="#6E849A" offset="100%"></stop>
        </linearGradient>
        <path d="M14.8317051,1.16829494 L14.8317051,1.16829494 C14.6172715,0.95386143 14.2731099,0.942988624 14.0455687,1.14345921 L8.33053161,6.17857672 C8.14160889,6.34502324 7.85839111,6.34502324 7.66946839,6.17857672 L1.95443133,1.14345921 C1.72689011,0.942988624 1.38272845,0.95386143 1.16829494,1.16829494 L1.16829494,1.16829494 C0.95386143,1.38272845 0.942988624,1.72689011 1.14345921,1.95443133 L6.17857672,7.66946839 C6.34502324,7.85839111 6.34502324,8.14160889 6.17857672,8.33053161 L1.14345921,14.0455687 C0.942988624,14.2731099 0.95386143,14.6172715 1.16829494,14.8317051 L1.16829494,14.8317051 C1.38272845,15.0461386 1.72689011,15.0570114 1.95443133,14.8565408 L7.66946839,9.82142328 C7.85839111,9.65497676 8.14160889,9.65497676 8.33053161,9.82142328 L14.0455687,14.8565408 C14.2731099,15.0570114 14.6172715,15.0461386 14.8317051,14.8317051 L14.8317051,14.8317051 C15.0461386,14.6172715 15.0570114,14.2731099 14.8565408,14.0455687 L9.82142328,8.33053161 C9.65497676,8.14160889 9.65497676,7.85839111 9.82142328,7.66946839 L14.8565408,1.95443133 C15.0570114,1.72689011 15.0461386,1.38272845 14.8317051,1.16829494 Z" id="path-2"></path>
    </defs>
    <g id="Symbols" stroke="none" stroke-width="1" fill="none" fill-rule="evenodd">
        <g id="Icon/System/Close_regular" transform="translate(-1.000000, -1.000000)">
            <g id="close">
                <g id="Shape">
                    <use fill="#FFFFFF" xlink:href="#path-2"></use>
                    <use fill="url(#linearGradient-1)" xlink:href="#path-2"></use>
                </g>
            </g>
        </g>
    </g>
</svg>