<?xml version="1.0" encoding="UTF-8"?>
<svg width="89px" height="62px" viewBox="0 0 89 62" version="1.1" xmlns="http://www.w3.org/2000/svg" xmlns:xlink="http://www.w3.org/1999/xlink">
    <!-- Generator: Sketch 59.1 (86144) - https://sketch.com -->
    <title>Icon/Large/Project-type/Flow-builder_active</title>
    <desc>Created with Sketch.</desc>
    <g id="Index-Pages" stroke="none" stroke-width="1" fill="none" fill-rule="evenodd">
        <g id="Active-Session" transform="translate(-675.000000, -416.000000)">
            <g id="Icon/Large/Project-type/Flow-builder_active" transform="translate(675.000000, 416.000000)">
                <g id="Group-6">
                    <g id="Group">
                        <rect id="Rectangle-Copy" fill="#D7E9FF" fill-rule="nonzero" x="5.5625" y="5.58139535" width="77.875" height="48.8372093" rx="1"></rect>
                        <path d="M29.203125,36.8341714 C32.2934335,37.2229194 35.0746835,35.5259699 37.546875,31.7433232 C40.328125,27.4877927 40.0914219,22.505332 41.71875,18.8664675 C42.7617187,16.5342876 44.2964447,15.1545332 46.3229279,14.7272042" id="Line" stroke="#94C1FF" stroke-linecap="square"></path>
                        <path d="M29.203125,41.1627907 C31.3999853,41.3507568 33.528827,41.8581095 35.5896501,42.6848488 C38.208232,43.735344 38.6583004,44.1098734 41.1972656,45.565167 C44.5102611,47.4641222 46.5542401,48.5585239 47.3292026,48.8483721" id="Line-2" stroke="#94C1FF" stroke-linecap="square"></path>
                        <g id="Group-3" transform="translate(0.000000, 27.906977)" fill-rule="nonzero">
                            <g id="Group-2" transform="translate(0.000000, 1.395349)">
                                <rect id="Rectangle-Copy-5" fill="#94C1FF" x="0" y="0" width="27.8125" height="19.5348837" rx="2"></rect>
                                <path d="M27.9583333,0 C26.8537638,2.02906125e-16 25.9583333,0.8954305 25.9583333,2 L25.9583333,2 L25.9583333,16.1395349 C25.9583333,17.2441044 26.8537638,18.1395349 27.9583333,18.1395349 L27.9583333,18.1395349 L27.03125,18.1395349 C25.9266805,18.1395349 25.03125,17.2441044 25.03125,16.1395349 L25.03125,2 C25.03125,0.8954305 25.9266805,2.02906125e-16 27.03125,0 Z" id="Combined-Shape-Copy" fill="#5C9EFF" transform="translate(26.421875, 9.069767) scale(-1, 1) translate(-26.421875, -9.069767) "></path>
                                <path d="M2.92708333,0 C1.82251383,2.02906125e-16 0.927083333,0.8954305 0.927083333,2 L0.927083333,2 L0.927083333,16.1395349 C0.927083333,17.2441044 1.82251383,18.1395349 2.92708333,18.1395349 L2.92708333,18.1395349 L2,18.1395349 C0.8954305,18.1395349 1.3527075e-16,17.2441044 0,16.1395349 L0,2 C-1.3527075e-16,0.8954305 0.8954305,2.02906125e-16 2,0 Z" id="Combined-Shape" fill="#FFFFFF"></path>
                            </g>
                            <path d="M26.203125,0 C27.8599792,-3.04359188e-16 29.203125,1.34314575 29.203125,3 L29.203125,17.9302326 C29.203125,19.5870868 27.8599792,20.9302326 26.203125,20.9302326 L4.390625,20.9302326 C2.73377075,20.9302326 1.390625,19.5870868 1.390625,17.9302326 L1.390625,3 C1.390625,1.34314575 2.73377075,3.04359188e-16 4.390625,0 L26.203125,0 Z M25.8125,1.39534884 L4.78125,1.39534884 C3.6766805,1.39534884 2.78125,2.29077934 2.78125,3.39534884 L2.78125,3.39534884 L2.78125,17.5348837 C2.78125,18.6394532 3.6766805,19.5348837 4.78125,19.5348837 L4.78125,19.5348837 L25.8125,19.5348837 C26.9170695,19.5348837 27.8125,18.6394532 27.8125,17.5348837 L27.8125,17.5348837 L27.8125,3.39534884 C27.8125,2.29077934 26.9170695,1.39534884 25.8125,1.39534884 L25.8125,1.39534884 Z" id="Combined-Shape" fill="#116FFF"></path>
                        </g>
                        <g id="Group-3-Copy" transform="translate(45.890625, 8.372093)" fill-rule="nonzero">
                            <g id="Group-2" transform="translate(1.390625, 1.395349)">
                                <rect id="Rectangle-Copy-5" fill="#94C1FF" x="0" y="0" width="27.8125" height="19.5348837" rx="2"></rect>
                                <path d="M27.9583333,0 C26.8537638,2.02906125e-16 25.9583333,0.8954305 25.9583333,2 L25.9583333,2 L25.9583333,16.1395349 C25.9583333,17.2441044 26.8537638,18.1395349 27.9583333,18.1395349 L27.9583333,18.1395349 L27.03125,18.1395349 C25.9266805,18.1395349 25.03125,17.2441044 25.03125,16.1395349 L25.03125,2 C25.03125,0.8954305 25.9266805,2.02906125e-16 27.03125,0 Z" id="Combined-Shape-Copy" fill="#5C9EFF" transform="translate(26.421875, 9.069767) scale(-1, 1) translate(-26.421875, -9.069767) "></path>
                                <path d="M2.92708333,0 C1.82251383,2.02906125e-16 0.927083333,0.8954305 0.927083333,2 L0.927083333,2 L0.927083333,16.1395349 C0.927083333,17.2441044 1.82251383,18.1395349 2.92708333,18.1395349 L2.92708333,18.1395349 L2,18.1395349 C0.8954305,18.1395349 1.3527075e-16,17.2441044 0,16.1395349 L0,2 C-1.3527075e-16,0.8954305 0.8954305,2.02906125e-16 2,0 Z" id="Combined-Shape" fill="#FFFFFF"></path>
                            </g>
                            <path d="M27.59375,0 C29.2506042,1.167223e-15 30.59375,1.34314575 30.59375,3 L30.59375,17.9302326 C30.59375,19.5870868 29.2506042,20.9302326 27.59375,20.9302326 L3,20.9302326 C1.34314575,20.9302326 2.02906125e-16,19.5870868 0,17.9302326 L0,3 C-2.02906125e-16,1.34314575 1.34314575,3.04359188e-16 3,0 L27.59375,0 Z M27.203125,1.39534884 L3.390625,1.39534884 C2.2860555,1.39534884 1.390625,2.29077934 1.390625,3.39534884 L1.390625,3.39534884 L1.390625,17.5348837 C1.390625,18.6394532 2.2860555,19.5348837 3.390625,19.5348837 L3.390625,19.5348837 L27.203125,19.5348837 C28.3076945,19.5348837 29.203125,18.6394532 29.203125,17.5348837 L29.203125,17.5348837 L29.203125,3.39534884 C29.203125,2.29077934 28.3076945,1.39534884 27.203125,1.39534884 L27.203125,1.39534884 Z" id="Combined-Shape" fill="#116FFF"></path>
                        </g>
                        <g id="Group-3-Copy-2" transform="translate(45.890625, 41.860465)" fill-rule="nonzero">
                            <g id="Group-2" transform="translate(1.390625, 1.395349)">
                                <rect id="Rectangle-Copy-5" fill="#94C1FF" x="0" y="0" width="27.8125" height="16.744186" rx="2"></rect>
                                <path d="M27.03125,0 C25.9266805,1.09108455e-15 25.03125,0.8954305 25.03125,2 L25.03125,2 L25.03125,14.744186 C25.03125,15.8487555 25.9266805,16.744186 27.03125,16.744186 L27.03125,16.744186 L26.1041667,16.744186 C24.9995972,16.744186 24.1041667,15.8487555 24.1041667,14.744186 L24.1041667,2 C24.1041667,0.8954305 24.9995972,1.09108455e-15 26.1041667,0 Z" id="Combined-Shape-Copy" fill="#5C9EFF" transform="translate(25.958333, 8.372093) scale(-1, 1) translate(-25.958333, -8.372093) "></path>
                                <path d="M2.92708333,0 C1.82251383,2.02906125e-16 0.927083333,0.8954305 0.927083333,2 L0.927083333,2 L0.927083333,16.1395349 C0.927083333,17.2441044 1.82251383,18.1395349 2.92708333,18.1395349 L2.92708333,18.1395349 L2,18.1395349 C0.8954305,18.1395349 1.3527075e-16,17.2441044 0,16.1395349 L0,2 C-1.3527075e-16,0.8954305 0.8954305,2.02906125e-16 2,0 Z" id="Combined-Shape" fill="#FFFFFF"></path>
                            </g>
                            <path d="M27.59375,0 C29.2506042,-3.04359188e-16 30.59375,1.34314575 30.59375,3 L30.59375,13.744186 C30.59375,15.4010403 29.2506042,16.744186 27.59375,16.744186 L3,16.744186 C1.34314575,16.744186 2.02906125e-16,15.4010403 0,13.744186 L0,3 C-2.02906125e-16,1.34314575 1.34314575,3.04359188e-16 3,0 L27.59375,0 Z M27.203125,1.39534884 L3.390625,1.39534884 C2.2860555,1.39534884 1.390625,2.29077934 1.390625,3.39534884 L1.390625,3.39534884 L1.390625,13.3488372 C1.390625,14.4534067 2.2860555,15.3488372 3.390625,15.3488372 L3.390625,15.3488372 L27.203125,15.3488372 C28.3076945,15.3488372 29.203125,14.4534067 29.203125,13.3488372 L29.203125,13.3488372 L29.203125,3.39534884 C29.203125,2.29077934 28.3076945,1.39534884 27.203125,1.39534884 L27.203125,1.39534884 Z" id="Combined-Shape" fill="#116FFF"></path>
                        </g>
                        <rect id="Rectangle" fill="#FFFFFF" x="44.5" y="55.8139535" width="33.375" height="2.79069767"></rect>
                        <rect id="Rectangle-Copy-4" stroke="#116FFF" fill="#D7E9FF" x="3.28125" y="32.5930233" width="14.296875" height="3.18604651" rx="1.59302326"></rect>
                        <rect id="Rectangle-Copy-15" stroke="#116FFF" fill="#D7E9FF" x="3.28125" y="38.1744186" width="8.734375" height="3.18604651" rx="1.59302326"></rect>
                        <path d="M7.953125,5.58139535 C7.40084025,5.58139535 6.953125,6.0291106 6.953125,6.58139535 L6.953125,6.58139535 L6.953125,53.4186047 C6.953125,53.9708894 7.40084025,54.4186047 7.953125,54.4186047 L7.953125,54.4186047 L6.5625,54.4186047 C6.01021525,54.4186047 5.5625,53.9708894 5.5625,53.4186047 L5.5625,6.58139535 C5.5625,6.0291106 6.01021525,5.58139535 6.5625,5.58139535 Z" id="Combined-Shape" fill="#FFFFFF" fill-rule="nonzero"></path>
                        <path d="M85,0 C87.209139,-4.05812251e-16 89,1.790861 89,4 L89,56 C89,58.209139 87.209139,60 85,60 L4,60 C1.790861,60 2.705415e-16,58.209139 0,56 L0,4 C-2.705415e-16,1.790861 1.790861,4.05812251e-16 4,0 L85,0 Z M84.609375,1.39534884 L4.390625,1.39534884 C2.73377075,1.39534884 1.390625,2.73849459 1.390625,4.39534884 L1.390625,4.39534884 L1.390625,55.6046512 C1.390625,57.2615054 2.73377075,58.6046512 4.390625,58.6046512 L4.390625,58.6046512 L84.609375,58.6046512 C86.2662292,58.6046512 87.609375,57.2615054 87.609375,55.6046512 L87.609375,55.6046512 L87.609375,4.39534884 C87.609375,2.73849459 86.2662292,1.39534884 84.609375,1.39534884 L84.609375,1.39534884 Z" id="Combined-Shape" fill="#116FFF" fill-rule="nonzero"></path>
                        <path d="M82.828125,4.18604651 C83.9326945,4.18604651 84.828125,5.08147701 84.828125,6.18604651 L84.828125,53.8139535 C84.828125,54.918523 83.9326945,55.8139535 82.828125,55.8139535 L6.171875,55.8139535 C5.0673055,55.8139535 4.171875,54.918523 4.171875,53.8139535 L4.171875,6.18604651 C4.171875,5.08147701 5.0673055,4.18604651 6.171875,4.18604651 L82.828125,4.18604651 Z M82.4375,5.58139535 L6.5625,5.58139535 C6.01021525,5.58139535 5.5625,6.0291106 5.5625,6.58139535 L5.5625,6.58139535 L5.5625,53.4186047 C5.5625,53.9708894 6.01021525,54.4186047 6.5625,54.4186047 L6.5625,54.4186047 L82.4375,54.4186047 C82.9897847,54.4186047 83.4375,53.9708894 83.4375,53.4186047 L83.4375,53.4186047 L83.4375,6.58139535 C83.4375,6.0291106 82.9897847,5.58139535 82.4375,5.58139535 L82.4375,5.58139535 Z" id="Combined-Shape" fill="#116FFF" fill-rule="nonzero"></path>
                    </g>
                    <rect id="Rectangle" fill="#FFFFFF" x="1.390625" y="26.5116279" width="2.78125" height="26.5116279"></rect>
                    <path d="M48.1876188,15.4369597 L45.767297,16.6512315 C45.3347295,16.8682499 44.8087318,16.6923217 44.5924481,16.2582849 C44.5316516,16.1362788 44.5,16.0017452 44.5,15.8653383 L44.5,13.4367948 C44.5,12.9515269 44.8920556,12.5581395 45.3756807,12.5581395 C45.5116258,12.5581395 45.6457039,12.5898986 45.767297,12.6509016 L48.1876188,13.8651734 C48.6201862,14.0821918 48.7955188,14.6099763 48.5792351,15.0440131 C48.494501,15.214057 48.357087,15.3519378 48.1876188,15.4369597 Z" id="Triangle-2-Copy" fill="#94C1FF"></path>
                    <path d="M48.1876188,48.9253318 L45.767297,50.1396036 C45.3347295,50.356622 44.8087318,50.1806938 44.5924481,49.746657 C44.5316516,49.6246509 44.5,49.4901173 44.5,49.3537104 L44.5,46.9251669 C44.5,46.439899 44.8920556,46.0465116 45.3756807,46.0465116 C45.5116258,46.0465116 45.6457039,46.0782707 45.767297,46.1392737 L48.1876188,47.3535455 C48.6201862,47.5705639 48.7955188,48.0983484 48.5792351,48.5323852 C48.494501,48.7024291 48.357087,48.8403099 48.1876188,48.9253318 Z" id="Triangle-2-Copy-2" fill="#94C1FF"></path>
                    <g id="Group-5" transform="translate(51.453125, 12.558140)" fill="#D7E9FF" stroke="#116FFF">
                        <rect id="Rectangle" x="0.5" y="0.5" width="14.296875" height="3.18604651" rx="1.59302326"></rect>
                        <rect id="Rectangle-Copy-14" x="0.5" y="6.08139535" width="7.34375" height="3.18604651" rx="1.59302326"></rect>
                        <rect id="Rectangle-Copy-8" x="0.5" y="33.9883721" width="11.515625" height="3.18604651" rx="1.59302326"></rect>
                    </g>
                </g>
            </g>
        </g>
    </g>
</svg>
