<svg xmlns="http://www.w3.org/2000/svg" class="sl-big-icon" width="64" height="64" viewBox="0 0 64 64"><title>no-templates</title><g fill="none" fill-rule="evenodd"><path d="M0 0h64v64H0z"/><g fill-rule="nonzero"><path fill="#94C1FF" d="M4.50675 13.5045h42.9895v10.997375H4.50675z"/><path fill="#D7E9FF" d="M63.49225 6.50525c0 3.313625-2.685875 5.9985-5.9995 5.9985-3.312625 0-5.9975-2.684875-5.9975-5.9985 0-3.312625 2.684875-5.9975 5.9975-5.9975 3.313625 0 5.9995 2.684875 5.9995 5.9975z"/><path fill="#FFF" d="M52.495 6.50525c0-3.14375 2.41925-5.718375 5.497625-5.972125-.165-.013625-.331-.025375-.499875-.025375-3.312625 0-5.9975 2.684875-5.9975 5.9975 0 3.313625 2.684875 5.9985 5.9975 5.9985.168875 0 .334875-.01175.499875-.025375C54.91425 12.223625 52.495 9.65 52.495 6.50525z"/><path fill="#94C1FF" d="M62.4925 6.50625c0 3.14375-2.41925 5.718375-5.497625 5.972125.165.013625.330875.025375.499875.025375 3.312625 0 5.9975-2.684875 5.9975-5.9975 0-3.313625-2.684875-5.9985-5.9975-5.9985-.169 0-.334875.01175-.499875.025375C60.07325.787875 62.4925 3.3615 62.4925 6.50625z"/><g transform="translate(4.5 27.5)"><path fill="#D7E9FF" d="M.00675.001125h19.995125V13.99775H.00675z"/><circle cx="3.505875" cy="3.50025" r="1.499625" fill="#FFF"/><path fill="#94C1FF" d="M19.002125 13.997625H9.0045l4.99875-7.998z"/><path fill="#D7E9FF" d="M14.00325 5.999625l-4.99875 7.998h.99975l4.498875-7.198375z"/><path fill="#656D78" d="M9.949625 12.484375l-.945125 1.51325H4.00575l3.51275-4.99875z"/><path fill="#5C9EFF" d="M9.949625 12.484375l-.945125 1.51325H4.00575l3.51275-4.99875z"/><path fill="#94C1FF" d="M7.5185 8.998875l-3.51275 4.99875h.99975l3.011-4.285z"/><path fill="#FFF" d="M.00675.001125h.99975V13.99775H.00675z"/><path fill="#94C1FF" d="M19.002125.001125h.99975V13.99775h-.99975z"/></g><g transform="translate(27.5 45.375)"><path fill="#D7E9FF" d="M.001125.12175H19.99625v13.996625H.001125z"/><circle cx="3.50025" cy="3.620875" r="1.499625" fill="#FFF"/><path fill="#94C1FF" d="M18.9965 14.11825H8.998875l4.99875-7.998z"/><path fill="#D7E9FF" d="M13.997625 6.12025l-4.99875 7.998h.99975l4.498875-7.1985z"/><path fill="#656D78" d="M9.944 12.605l-.945125 1.51325h-4.99875L7.513 9.1195z"/><path fill="#5C9EFF" d="M9.944 12.605l-.945125 1.51325h-4.99875L7.513 9.1195z"/><path fill="#94C1FF" d="M7.513 9.1195l-3.512875 4.99875h.99975l3.011-4.285z"/><path fill="#FFF" d="M.001125.12175h.99975v13.996625h-.99975z"/><path fill="#94C1FF" d="M18.9965.12175h.99975v13.996625h-.99975z"/></g><path fill="#D7E9FF" d="M4.50675 13.5045h.99975v10.997375h-.99975z"/><path fill="#5C9EFF" d="M46.4965 13.5045h.99975v10.997375h-.99975z"/><g fill="#116FFF"><path d="M23.502625 41.9975c-.1665 0-.3295-.083-.42425-.235375l-4.575125-7.3195-4.575125 7.3195c-.146375.234375-.4545.305625-.68875.159125-.233875-.1465-.305125-.455-.158625-.68825l4.99875-7.998c.1825-.293.664875-.293.847375 0l4.99875 7.998c.1465.23325.07525.54175-.158625.68825-.082375.051875-.174125.07625-.264375.07625z"/><path d="M8.50525 41.9975c-.099125 0-.19975-.02925-.287-.090875-.2255-.159125-.28025-.470625-.1215-.696l3.512875-4.99875c.09375-.13375.2465-.212875.409-.212875.17275-.0185.31675.079125.41.213875l2.431 3.485375c.15775.2265.1025.538125-.124.696125-.2275.15725-.5385.1025-.696125-.123875l-2.0225-2.89975-3.10225 4.414c-.097625.138625-.252375.21275-.4095.21275zM47.49625 25.00175H4.50675c-.27625 0-.499875-.223625-.499875-.499875V13.5045c0-.27625.223625-.499875.499875-.499875h42.9895c.27625 0 .499875.223625.499875.499875v10.997375c0 .27625-.223625.499875-.499875.499875zM5.006625 24.002h41.98975v-9.9975H5.006625v9.9975z"/><path d="M24.501875 41.9975H4.50675c-.27625 0-.499875-.223625-.499875-.499875v-13.9965c0-.27625.223625-.499875.499875-.499875h19.995125c.27625 0 .499875.223625.499875.499875V41.49775c0 .276125-.223625.49975-.499875.49975zm-19.49525-.99975H24.002V28.001H5.006625v12.99675z"/><path d="M8.005875 32.99975c-1.10275 0-1.9995-.89725-1.9995-1.9995 0-1.10225.89675-1.9995 1.9995-1.9995s1.9995.89725 1.9995 1.9995c0 1.10225-.89675 1.9995-1.9995 1.9995zm0-2.99925c-.551125 0-.99975.448125-.99975.99975S7.45475 32 8.005875 32c.551125 0 .99975-.448125.99975-.99975s-.448625-.99975-.99975-.99975zM46.4965 59.993125c-.166 0-.329-.083-.42375-.235375l-4.575125-7.3195-4.575125 7.3195c-.1465.236375-.455875.306625-.68825.159125-.234375-.1465-.305625-.455-.159125-.68825l4.99875-7.998c.181625-.293.66575-.293.847375 0l4.99875 7.998c.1465.23325.07525.54175-.159125.68825-.081875.051875-.173625.07625-.264375.07625z"/><path d="M31.499625 59.993125c-.099125 0-.19975-.02925-.287-.090875-.2255-.159125-.28025-.470625-.1215-.696L34.604 54.2075c.093625-.13375.246-.212875.409-.212875h.001c.163125 0 .31525.080125.409.213875l2.431 3.485375c.15825.2265.1025.538125-.124.696125-.2245.15625-.536875.1045-.696-.123875l-2.023-2.89975-3.10175 4.414c-.09775.138625-.252375.21275-.409625.21275z"/><path d="M47.49625 59.993125H27.501125c-.27625 0-.499875-.223625-.499875-.499875v-13.9965c0-.27625.223625-.499875.499875-.499875H47.49625c.27625 0 .499875.223625.499875.499875v13.996625c0 .276125-.223625.49975-.499875.49975zm-19.49525-.99975h18.995375v-12.99675H28.001v12.99675z"/><path d="M31.00025 50.995375c-1.10275 0-1.9995-.89725-1.9995-1.9995 0-1.10225.89675-1.9995 1.9995-1.9995s1.9995.89725 1.9995 1.9995c0 1.10225-.89675 1.9995-1.9995 1.9995zm0-2.99925c-.551125 0-.99975.448125-.99975.99975s.448625.99975.99975.99975c.551125 0 .99975-.448125.99975-.99975s-.448625-.99975-.99975-.99975zM47.49625 29.00075H27.501125c-.27625 0-.499875-.223625-.499875-.499875s.223625-.499875.499875-.499875H47.49625c.27625 0 .499875.223625.499875.499875s-.223625.499875-.499875.499875zM47.49625 32H27.501125c-.27625 0-.499875-.223625-.499875-.499875s.223625-.499875.499875-.499875H47.49625c.27625 0 .499875.223625.499875.499875S47.7725 32 47.49625 32zM47.49625 34.99925H27.501125c-.27625 0-.499875-.223625-.499875-.499875s.223625-.499875.499875-.499875H47.49625c.27625 0 .499875.223625.499875.499875s-.223625.499875-.499875.499875zM47.49625 37.9985H27.501125c-.27625 0-.499875-.223625-.499875-.499875s.223625-.499875.499875-.499875H47.49625c.27625 0 .499875.223625.499875.499875s-.223625.499875-.499875.499875zM38.498375 40.99775H27.501c-.27625 0-.499875-.223625-.499875-.499875S27.22475 39.998 27.501 39.998h10.997375c.27625 0 .499875.223625.499875.499875s-.223625.499875-.499875.499875zM24.501875 46.996375H4.50675c-.27625 0-.499875-.223625-.499875-.499875s.223625-.499875.499875-.499875h19.995125c.27625 0 .499875.223625.499875.499875s-.223625.499875-.499875.499875zM24.501875 49.995625H4.50675c-.27625 0-.499875-.223625-.499875-.499875s.223625-.499875.499875-.499875h19.995125c.27625 0 .499875.223625.499875.499875s-.223625.499875-.499875.499875zM24.501875 52.994875H4.50675c-.27625 0-.499875-.223625-.499875-.499875s.223625-.499875.499875-.499875h19.995125c.27625 0 .499875.223625.499875.499875s-.223625.499875-.499875.499875zM24.501875 55.994125H4.50675c-.27625 0-.499875-.223625-.499875-.499875s.223625-.499875.499875-.499875h19.995125c.27625 0 .499875.223625.499875.499875s-.223625.499875-.499875.499875zM15.504 58.993375H4.50675c-.27625 0-.499875-.223625-.499875-.499875s.223625-.499875.499875-.499875h10.997375c.27625 0 .499875.223625.499875.499875s-.223625.499875-.5.499875zM42.497375 18.003375H9.5055c-.27625 0-.499875-.223625-.499875-.499875s.223625-.499875.499875-.499875h32.992c.27625 0 .499875.223625.499875.499875s-.22375.499875-.5.499875zM37.498625 21.002625H15.504c-.27625 0-.499875-.223625-.499875-.499875s.223625-.499875.499875-.499875h21.994625c.27625 0 .499875.223625.499875.499875s-.223625.499875-.499875.499875zM45.49675 11.005125H6.50625c-.27625 0-.499875-.223625-.499875-.499875s.223625-.499875.499875-.499875h38.9905c.27625 0 .499875.223625.499875.499875s-.223625.499875-.499875.499875z"/><path d="M45.49675 11.005125c-.127875 0-.25575-.048875-.353375-.1465l-.99975-.99975c-.19525-.19525-.19525-.511625 0-.70675.19525-.19525.511625-.19525.70675 0l.99975.99975c.19525.19525.19525.5115 0 .70675-.097625.097625-.2255.1465-.353375.1465z"/><path d="M44.497 12.004875c-.127875 0-.25575-.048875-.353375-.1465-.19525-.19525-.19525-.511625 0-.70675l.99975-.99975c.19525-.19525.511625-.19525.70675 0 .19525.19525.19525.5115 0 .70675l-.99975.99975c-.09775.097625-.2255.1465-.353375.1465zM6.50625 11.005125c-.127875 0-.25575-.048875-.353375-.1465-.19525-.19525-.19525-.511625 0-.70675l.99975-.99975c.19525-.19525.5115-.19525.70675 0 .19525.19525.19525.5115 0 .70675l-.99975.99975c-.097625.097625-.2255.1465-.353375.1465z"/><path d="M7.506 12.004875c-.127875 0-.25575-.048875-.353375-.1465l-.99975-.99975c-.19525-.19525-.19525-.511625 0-.70675.19525-.19525.5115-.19525.70675 0l.99975.99975c.19525.19525.19525.5115 0 .70675-.097625.097625-.2255.1465-.353375.1465zM50.4955 38.99825c-.27625 0-.499875-.223625-.499875-.499875v-7.998c0-.27625.223625-.499875.499875-.499875s.499875.223625.499875.499875v7.998c0 .27625-.223625.499875-.499875.499875z"/><path d="M50.4955 38.99825c-.127875 0-.25575-.048875-.353375-.1465-.19525-.19525-.19525-.511625 0-.70675l.99975-.99975c.19525-.19525.511625-.19525.70675 0 .19525.19525.19525.511625 0 .70675l-.99975.99975c-.097625.09775-.2255.1465-.353375.1465z"/><path d="M50.4955 38.99825c-.127875 0-.25575-.048875-.353375-.1465l-.99975-.99975c-.19525-.19525-.19525-.511625 0-.70675.19525-.19525.511625-.19525.70675 0l.99975.99975c.19525.19525.19525.511625 0 .70675-.097625.09775-.2255.1465-.353375.1465zM51.49525 32c-.127875 0-.25575-.048875-.353375-.1465l-.99975-.99975c-.19525-.19525-.19525-.511625 0-.70675.19525-.19525.511625-.19525.70675 0l.99975.99975c.19525.19525.19525.511625 0 .70675-.097625.097625-.2255.1465-.353375.1465z"/><path d="M49.49575 32c-.127875 0-.25575-.048875-.353375-.1465-.19525-.19525-.19525-.511625 0-.70675l.99975-.99975c.19525-.19525.511625-.19525.70675 0 .19525.19525.19525.511625 0 .70675l-.99975.99975c-.097625.097625-.2255.1465-.353375.1465zM51.49525 29.00075h-1.9995c-.27625 0-.499875-.223625-.499875-.499875s.223625-.499875.499875-.499875h1.9995c.27625 0 .499875.223625.499875.499875s-.223625.499875-.499875.499875zM51.49525 40.99775h-1.9995c-.27625 0-.499875-.223625-.499875-.499875s.223625-.499875.499875-.499875h1.9995c.27625 0 .499875.223625.499875.499875s-.223625.499875-.499875.499875z"/><g><path d="M1.5075 39.998c-.27625 0-.499875-.223625-.499875-.499875v-9.9975c0-.27625.223625-.499875.499875-.499875s.499875.223625.499875.499875v9.9975c0 .27625-.223625.499875-.499875.499875z"/><path d="M1.5075 39.998c-.127875 0-.25575-.048875-.353375-.1465-.19525-.19525-.19525-.511625 0-.70675l.99975-.99975c.19525-.19525.5115-.19525.70675 0 .19525.19525.19525.511625 0 .70675l-.99975.99975c-.097625.09775-.2255.1465-.353375.1465z"/><path d="M1.5075 39.998c-.127875 0-.25575-.048875-.353375-.1465l-.99975-.99975c-.19525-.19525-.19525-.511625 0-.70675.19525-.19525.5115-.19525.70675 0l.99975.99975c.19525.19525.19525.511625 0 .70675-.097625.09775-.2255.1465-.353375.1465zM2.50725 31.00025c-.127875 0-.25575-.048875-.353375-.1465l-.99975-.99975c-.19525-.19525-.19525-.511625 0-.70675.19525-.19525.5115-.19525.70675 0l.99975.99975c.19525.19525.19525.511625 0 .70675-.097625.097625-.2255.1465-.353375.1465z"/><path d="M.50775 31.00025c-.127875 0-.25575-.048875-.353375-.1465-.19525-.19525-.19525-.511625 0-.70675l.99975-.99975c.19525-.19525.5115-.19525.70675 0 .19525.19525.19525.511625 0 .70675l-.99975.99975c-.097625.097625-.2255.1465-.353375.1465zM2.50725 28.001H.50775c-.27625 0-.499875-.223625-.499875-.499875S.2315 27.00125.50775 27.00125h1.9995c.27625 0 .499875.223625.499875.499875S2.7835 28.001 2.50725 28.001zM2.50725 41.9975H.50775c-.27625 0-.499875-.223625-.499875-.499875S.2315 40.99775.50775 40.99775h1.9995c.27625 0 .499875.223625.499875.499875s-.223625.499875-.499875.499875z"/></g><g><path d="M45.49675 62.992375H29.500625c-.27625 0-.499875-.223625-.499875-.499875s.223625-.499875.499875-.499875H45.49675c.27625 0 .499875.223625.499875.499875s-.223625.499875-.499875.499875z"/><path d="M30.500375 63.99225c-.127875 0-.25575-.048875-.353375-.1465l-.99975-.99975c-.19525-.19525-.19525-.511625 0-.70675.19525-.19525.511625-.19525.70675 0l.99975.99975c.19525.19525.19525.511625 0 .70675-.097625.097625-.2255.1465-.353375.1465z"/><path d="M29.500625 62.992375c-.127875 0-.25575-.048875-.353375-.1465-.19525-.19525-.19525-.511625 0-.70675l.99975-.99975c.19525-.19525.511625-.19525.70675 0 .19525.19525.19525.511625 0 .70675l-.99975.99975c-.097625.09775-.2255.1465-.353375.1465zM44.497 63.99225c-.127875 0-.25575-.048875-.353375-.1465-.19525-.19525-.19525-.511625 0-.70675l.99975-.99975c.19525-.19525.511625-.19525.70675 0 .19525.19525.19525.511625 0 .70675l-.99975.99975c-.09775.097625-.2255.1465-.353375.1465z"/><path d="M45.49675 62.992375c-.127875 0-.25575-.048875-.353375-.1465l-.99975-.99975c-.19525-.19525-.19525-.511625 0-.70675.19525-.19525.511625-.19525.70675 0l.99975.99975c.19525.19525.19525.511625 0 .70675-.097625.09775-.2255.1465-.353375.1465zM47.49625 63.99225c-.27625 0-.499875-.223625-.499875-.499875v-1.9995c0-.27625.223625-.499875.499875-.499875s.499875.223625.499875.499875v1.9995c0 .276125-.223625.499875-.499875.499875zM27.501125 63.99225c-.27625 0-.499875-.223625-.499875-.499875v-1.9995c0-.27625.223625-.499875.499875-.499875s.499875.223625.499875.499875v1.9995c0 .276125-.223625.499875-.499875.499875z"/></g><g><path d="M22.502375 62.992375H6.50625c-.27625 0-.499875-.223625-.499875-.499875s.223625-.499875.499875-.499875h15.996125c.27625 0 .499875.223625.499875.499875s-.223625.499875-.499875.499875z"/><path d="M7.506 63.99225c-.127875 0-.25575-.048875-.353375-.1465l-.99975-.99975c-.19525-.19525-.19525-.511625 0-.70675.19525-.19525.5115-.19525.70675 0l.99975.99975c.19525.19525.19525.511625 0 .70675-.097625.097625-.2255.1465-.353375.1465z"/><path d="M6.50625 62.992375c-.127875 0-.25575-.048875-.353375-.1465-.19525-.19525-.19525-.511625 0-.70675l.99975-.99975c.19525-.19525.5115-.19525.70675 0 .19525.19525.19525.511625 0 .70675l-.99975.99975c-.097625.09775-.2255.1465-.353375.1465zM21.502625 63.99225c-.127875 0-.25575-.048875-.353375-.1465-.19525-.19525-.19525-.511625 0-.70675l.99975-.99975c.19525-.19525.5115-.19525.70675 0 .19525.19525.19525.511625 0 .70675l-.99975.99975c-.097625.097625-.2255.1465-.353375.1465z"/><path d="M22.502375 62.992375c-.127875 0-.25575-.048875-.353375-.1465l-.99975-.99975c-.19525-.19525-.19525-.511625 0-.70675.19525-.19525.5115-.19525.70675 0l.99975.99975c.19525.19525.19525.511625 0 .70675-.097625.09775-.2255.1465-.353375.1465zM24.501875 63.99225c-.27625 0-.499875-.223625-.499875-.499875v-1.9995c0-.27625.223625-.499875.499875-.499875s.499875.223625.499875.499875v1.9995c0 .276125-.223625.499875-.499875.499875zM4.50675 63.99225c-.27625 0-.499875-.223625-.499875-.499875v-1.9995c0-.27625.223625-.499875.499875-.499875s.499875.223625.499875.499875v1.9995c0 .276125-.223625.499875-.499875.499875z"/></g><path d="M4.50675 12.004875c-.27625 0-.499875-.223625-.499875-.499875V9.5055c0-.27625.223625-.499875.499875-.499875s.499875.223625.499875.499875v1.9995c0 .27625-.223625.499875-.499875.499875zM47.49625 12.004875c-.27625 0-.499875-.223625-.499875-.499875V9.5055c0-.27625.223625-.499875.499875-.499875s.499875.223625.499875.499875v1.9995c0 .27625-.223625.499875-.499875.499875zM57.49375 13.004625c-3.583125 0-6.498375-2.91525-6.498375-6.498375 0-3.583125 2.91525-6.4985 6.498375-6.4985 3.583125 0 6.498375 2.91525 6.498375 6.498375 0 3.583125-2.91525 6.4985-6.498375 6.4985zm0-11.997c-3.0315 0-5.498625 2.467125-5.498625 5.498625s2.467125 5.498625 5.498625 5.498625 5.498625-2.467125 5.498625-5.498625-2.467125-5.498625-5.498625-5.498625z"/><path d="M56.494 9.005625c-.127875 0-.25575-.048875-.353375-.1465l-1.9995-1.9995c-.19525-.19525-.19525-.511625 0-.70675.19525-.19525.511625-.19525.70675 0l1.9995 1.9995c.19525.19525.19525.5115 0 .70675-.097625.097625-.225375.1465-.353375.1465z"/><path d="M56.494 9.005625c-.127875 0-.25575-.048875-.353375-.1465-.19525-.19525-.19525-.511625 0-.70675l3.999-3.999c.19525-.19525.511625-.19525.70675 0 .19525.19525.19525.5115 0 .70675l-3.999 3.999c-.097625.097625-.225375.1465-.353375.1465z"/></g></g></g></svg>
