<?xml version="1.0" encoding="UTF-8"?>
<svg width="64px" height="64px" viewBox="0 0 64 64" version="1.1" xmlns="http://www.w3.org/2000/svg" xmlns:xlink="http://www.w3.org/1999/xlink">
    <!-- Generator: Sketch 52.1 (67048) - http://www.bohemiancoding.com/sketch -->
    <title>24. footprint, magnifier, search, law, police, court, jurisprudence</title>
    <desc>Created with Sketch.</desc>
    <g id="Symbols" stroke="none" stroke-width="1" fill="none" fill-rule="evenodd">
        <g id="Icon/Large/No-reports">
            <g id="24.-footprint,-magnifier,-search,-law,-police,-court,-jurisprudence">
                <g id="Group" transform="translate(0.500000, 0.500000)">
                    <path d="M44.028,22.0465 C44.027,34.193625 34.179125,44.0415 22.033,44.0415 C9.886875,44.0415 0.038,34.192625 0.038875,22.0465 C0.039875,9.899375 9.88675,0.052375 22.032,0.053375 C34.179125,0.053375 44.027,9.900375 44.028,22.0465 Z" id="Shape" fill="#FFFFFF" fill-rule="nonzero"></path>
                    <path d="M42.026625,22.0465 C42.028625,33.088375 33.074875,42.041125 22.033,42.042125 C10.992,42.040125 2.039375,33.088375 2.038375,22.0465 C2.03925,11.0055 10.992,2.050875 22.033,2.052875 C33.074875,2.052875 42.028625,11.0055 42.026625,22.0465 Z" id="Shape" fill="#5C9EFF" fill-rule="nonzero"></path>
                    <g id="Group-2" transform="translate(15.200000, 12.500000)">
                        <path d="M1.6969697,-1.77635684e-15 L8.27897154,-5.04646829e-17 C8.95406806,-2.42230478e-16 9.60151438,0.272969995 10.0788797,0.758859703 L12.8302112,3.55932211 C13.3075765,4.04521182 13.5757576,4.70421969 13.5757576,5.3913715 L13.5757576,13.8181818 C13.5757576,16.680021 11.2964799,19 8.48484848,19 L5.09090909,19 C2.27927764,19 -7.10542736e-15,16.680021 -7.10542736e-15,13.8181818 L-7.10542736e-15,1.72727273 C-7.48223032e-15,0.773326341 0.759759212,-1.77635684e-15 1.6969697,-1.77635684e-15 Z" id="Path" stroke="#116FFF" stroke-width="1.2" fill="#D7E9FF"></path>
                        <path d="M3.18181818,6.90909091 C2.83036425,6.90909091 2.54545455,7.19908829 2.54545455,7.55681818 C2.54545455,7.91454808 2.83036425,8.20454545 3.18181818,8.20454545 L10.3939394,8.20454545 C10.7453933,8.20454545 11.030303,7.91454808 11.030303,7.55681818 C11.030303,7.19908829 10.7453933,6.90909091 10.3939394,6.90909091 L3.18181818,6.90909091 Z" id="Path" fill="#116FFF"></path>
                        <path d="M3.18181818,9.5 C2.83036425,9.5 2.54545455,9.78999738 2.54545455,10.1477273 C2.54545455,10.5054572 2.83036425,10.7954545 3.18181818,10.7954545 L10.3939394,10.7954545 C10.7453933,10.7954545 11.030303,10.5054572 11.030303,10.1477273 C11.030303,9.78999738 10.7453933,9.5 10.3939394,9.5 L3.18181818,9.5 Z" id="Path" fill="#5C9EFF"></path>
                        <path d="M3.18181818,12.0909091 C2.83036425,12.0909091 2.54545455,12.3809065 2.54545455,12.7386364 C2.54545455,13.0963663 2.83036425,13.3863636 3.18181818,13.3863636 L7,13.3863636 C7.35145393,13.3863636 7.63636364,13.0963663 7.63636364,12.7386364 C7.63636364,12.3809065 7.35145393,12.0909091 7,12.0909091 L3.18181818,12.0909091 Z" id="Path" fill="#5C9EFF"></path>
                    </g>
                    <path d="M5.0375,22.0455 C5.0385,11.512125 13.1955,2.89725 23.5325,2.128875 C23.0355,2.091875 22.539625,2.05275 22.032875,2.05275 C10.992,2.050875 2.03925,11.0055 2.038375,22.0465 C2.039375,33.088375 10.992,42.040125 22.033,42.042125 C22.53975,42.042125 23.035625,42.003125 23.5335,41.965 C13.1945,41.196625 5.0385,32.58175 5.0375,22.0455 Z" id="Shape" fill="#94C1FF" fill-rule="nonzero"></path>
                    <polygon id="Shape" fill="#D7E9FF" fill-rule="nonzero" points="39.3555 35.828875 35.822125 39.362125 41.434875 44.975875 44.967125 41.441625"></polygon>
                    <path d="M36.4245,39.964625 C37.726875,38.918 38.910125,37.73275 39.95675,36.430375 L39.355375,35.828875 L35.822,39.36225 L36.4245,39.964625 Z" id="Shape" fill="#94C1FF" fill-rule="nonzero"></path>
                    <path d="M61.786875,56.84575 L45.677,40.734875 L40.728,45.68275 L56.852625,61.80725 C56.895625,61.856125 56.926875,61.90975 56.97375,61.956625 C58.349375,63.33225 60.57825,63.33225 61.952875,61.957625 C63.3275,60.583 63.3275,58.354125 61.952875,56.9805 C61.901125,56.92875 61.839625,56.892625 61.786875,56.84575 Z" id="Shape" fill="#94C1FF" fill-rule="nonzero"></path>
                    <path d="M57.6805,61.24975 C57.633625,61.203 57.602375,61.14925 57.5595,61.1005 L41.434875,44.975875 L40.728,45.68275 L56.852625,61.80725 C56.895625,61.856125 56.926875,61.90975 56.97375,61.956625 C58.349375,63.33225 60.57825,63.33225 61.952875,61.957625 C62.074,61.8365 62.1715,61.701875 62.270125,61.568125 C60.892625,62.601125 58.936,62.504375 57.6805,61.24975 Z" id="Shape" fill="#D7E9FF" fill-rule="nonzero"></path>
                    <path d="M61.240125,57.692125 C61.193375,57.64525 61.138625,57.613 61.089875,57.570125 L44.96525,41.444625 L45.672125,40.737875 L61.796625,56.863375 C61.8455,56.906375 61.900125,56.937625 61.947,56.9855 C63.321625,58.360125 63.321625,60.589 61.947,61.963625 C61.825875,62.08475 61.691125,62.18225 61.5575,62.280875 C62.59125,60.90225 62.493625,58.94575 61.240125,57.692125 Z" id="Shape" fill="#5C9EFF" fill-rule="nonzero"></path>
                    <path d="M36.4245,39.964625 L40.728,44.269125 L41.432,43.56525 L37.186,39.31825 C36.936125,39.537875 36.68425,39.756625 36.4245,39.964625 Z" id="Shape" fill="#FFFFFF" fill-rule="nonzero"></path>
                    <path d="M39.95775,36.43225 L44.262375,40.734875 L43.557375,41.43875 L39.3115,37.192875 C39.531125,36.942875 39.74975,36.690875 39.95775,36.43225 Z" id="Shape" fill="#94C1FF" fill-rule="nonzero"></path>
                    <polygon id="Rectangle-path" fill="#94C1FF" fill-rule="nonzero" transform="translate(42.847973, 42.854310) rotate(-45.000000) translate(-42.847973, -42.854310) " points="40.348934 42.3545027 45.347011 42.3545027 45.347011 43.3541181 40.348934 43.3541181"></polygon>
                </g>
                <g id="_x32_4._footprint_x2C__magnifier_x2C__search_x2C__law_x2C__police_x2C__court_x2C__jurisprudence" fill="#116FFF" fill-rule="nonzero">
                    <path d="M22.50075,45.0015 C16.492625,45.0015 10.843625,42.661125 6.594875,38.412375 C-2.17525,29.64225 -2.17525,15.37075 6.594875,6.600625 C10.84375,2.351625 16.492625,0.0115 22.50075,0.0115 C28.508875,0.0115 34.157625,2.35175 38.406625,6.600625 C42.656375,10.8495 44.996625,16.498375 44.996625,22.5065 C44.997625,28.514625 42.657375,34.1635 38.408625,38.412375 C34.15875,42.661125 28.509875,45.0015 22.50075,45.0015 Z M22.50075,1.01125 C16.759,1.01125 11.361125,3.248 7.301625,7.307375 C-1.078875,15.688 -1.078875,29.325 7.301625,37.705625 C11.361125,41.765 16.759,44.00175 22.50075,44.00175 C28.242375,44.00175 33.64125,41.764875 37.701625,37.705625 C41.761125,33.645125 43.99775,28.248125 43.99675,22.5065 C43.99675,16.764875 41.76,11.366875 37.699625,7.307375 C33.64025,3.247875 28.242375,1.01125 22.50075,1.01125 Z" id="Shape"></path>
                    <path d="M22.496875,43 C17.02275,43 11.875625,40.868625 8.004625,36.998625 C0.013625,29.008625 0.013625,16.00625 8.004625,8.01625 C11.875625,4.145125 17.02275,2.013 22.497875,2.013 C27.971875,2.013 33.117875,4.14425 36.989,8.014375 C44.978,16.005375 44.978,29.00675 36.991,36.99875 C33.118875,40.868625 27.971875,43 22.496875,43 Z M22.497875,3.01275 C17.29025,3.01275 12.394125,5.0405 8.7115,8.723125 C1.111,16.323625 1.111,28.691375 8.7115,36.291875 C12.393125,39.9725 17.28925,42.000375 22.496875,42.000375 C27.704375,42.000375 32.6015,39.9725 36.284,36.291875 C43.881625,28.690375 43.880625,16.32175 36.282,8.72125 C32.600625,5.040375 27.704375,3.01275 22.497875,3.01275 Z" id="Shape"></path>
                    <path d="M41.903625,45.9415 C41.77575,45.9415 41.647875,45.89275 41.55025,45.795125 L36.994875,41.23975 C36.799625,41.0445 36.799625,40.728125 36.994875,40.532875 C37.190125,40.337625 37.5065,40.337625 37.701625,40.532875 L42.257,45.08825 C42.45225,45.2835 42.45225,45.599875 42.257,45.795125 C42.159375,45.892875 42.031625,45.9415 41.903625,45.9415 Z" id="Shape"></path>
                    <path d="M45.437875,42.40925 C45.310125,42.40925 45.182125,42.360375 45.0845,42.262875 L40.529125,37.7055 C40.333875,37.51025 40.333875,37.19375 40.529125,36.998625 C40.724375,36.8035 41.04075,36.803375 41.235875,36.998625 L45.79125,41.556 C45.9865,41.75125 45.9865,42.067625 45.79125,42.262875 C45.69375,42.3605 45.56575,42.40925 45.437875,42.40925 Z" id="Shape"></path>
                    <path d="M41.19675,46.650375 C41.069,46.650375 40.941,46.6015 40.843375,46.503875 C40.648125,46.308625 40.648125,45.99225 40.843375,45.797125 L45.79125,40.849125 C45.9865,40.653875 46.302875,40.653875 46.498125,40.849125 C46.693375,41.044375 46.693375,41.360875 46.498125,41.556 L41.55025,46.503875 C41.452625,46.6015 41.32475,46.650375 41.19675,46.650375 Z" id="Shape"></path>
                    <path d="M62.390375,57.949125 C62.2625,57.949125 62.1345,57.90025 62.037,57.802625 L45.79125,41.556 C45.596,41.36075 45.596,41.044375 45.79125,40.849125 C45.9865,40.653875 46.302875,40.653875 46.498125,40.849125 L62.74375,57.095875 C62.939,57.291125 62.939,57.6075 62.74375,57.802625 C62.646125,57.90025 62.51825,57.949125 62.390375,57.949125 Z" id="Shape"></path>
                    <path d="M57.508875,62.961375 C57.381,62.961375 57.253,62.9125 57.1555,62.814875 L40.843375,46.503875 C40.648125,46.308625 40.648125,45.99225 40.843375,45.797125 C41.038625,45.601875 41.355,45.601875 41.55025,45.797125 L57.86225,62.108125 C58.0575,62.303375 58.0575,62.61975 57.86225,62.814875 C57.764625,62.912625 57.63675,62.961375 57.508875,62.961375 Z" id="Shape"></path>
                    <path d="M59.98475,63.9885 C58.91575,63.9885 57.911125,63.5715 57.1555,62.814875 C56.96025,62.619625 56.96025,62.30325 57.1555,62.108125 C57.35075,61.912875 57.667,61.912875 57.86225,62.108125 C58.4295,62.67625 59.183125,62.98875 59.984625,62.98875 C59.985625,62.98875 59.985625,62.98875 59.986625,62.98875 C60.78725,62.98775 61.538,62.67625 62.10225,62.110125 C62.6705,61.542875 62.982875,60.790125 62.982875,59.9895 C62.982875,59.188 62.6705,58.434375 62.10325,57.867125 C61.908,57.671875 61.908,57.3555 62.10325,57.160375 C62.2985,56.965125 62.615,56.965125 62.810125,57.160375 C63.56675,57.917 63.982625,58.921625 63.982625,59.989625 C63.982625,61.05775 63.56675,62.061375 62.810125,62.817 C62.0575,63.571625 61.05475,63.987625 59.986625,63.988625 C59.98575,63.9885 59.98575,63.9885 59.98475,63.9885 Z" id="Shape"></path>
                </g>
            </g>
        </g>
    </g>
</svg>