<?xml version="1.0" encoding="UTF-8"?>
<svg width="16px" height="16px" viewBox="0 0 16 16" version="1.1" xmlns="http://www.w3.org/2000/svg" xmlns:xlink="http://www.w3.org/1999/xlink">
    <!-- Generator: Sketch 57.1 (83088) - https://sketch.com -->
    <title>Icon/System/Fail-mark</title>
    <desc>Created with Sketch.</desc>
    <defs>
        <linearGradient x1="50%" y1="0%" x2="50%" y2="100%" id="linearGradient-1">
            <stop stop-color="#E91E63" stop-opacity="0.85" offset="0%"></stop>
            <stop stop-color="#E91E63" offset="100%"></stop>
        </linearGradient>
        <path d="M8,0 C3.58146241,0 0,3.58210185 0,7.99958807 C0,12.4178982 3.58146241,16 8,16 C12.4185376,16 16,12.4178982 16,7.99958807 C16,3.58210185 12.4185376,0 8,0 L8,0 Z M1.6,7.99958233 C1.6,4.46523527 4.46588358,1.6 8,1.6 C11.5349517,1.6 14.4,4.46523527 14.4,7.99958233 C14.4,11.5347647 11.5349517,14.4 8,14.4 C4.46588358,14.4 1.6,11.5347647 1.6,7.99958233 Z M9.41209702,8.36930144 L11.1033396,10.4833546 C11.2437453,10.6588618 11.2297321,10.9118752 11.0708036,11.0708036 C10.9118752,11.2297321 10.6588618,11.2437453 10.4833546,11.1033396 L8.36930144,9.41209702 C8.15339486,9.23937175 7.84660514,9.23937175 7.63069856,9.41209702 L5.51664536,11.1033396 C5.34113823,11.2437453 5.08812484,11.2297321 4.92919637,11.0708036 C4.7702679,10.9118752 4.75625472,10.6588618 4.89666042,10.4833546 L6.58790298,8.36930144 C6.76062825,8.15339486 6.76062825,7.84660514 6.58790298,7.63069856 L4.89666042,5.51664536 C4.75625472,5.34113823 4.7702679,5.08812484 4.92919637,4.92919637 C5.08812484,4.7702679 5.34113823,4.75625472 5.51664536,4.89666042 L7.63069856,6.58790298 C7.84660514,6.76062825 8.15339486,6.76062825 8.36930144,6.58790298 L10.4833546,4.89666042 C10.6588618,4.75625472 10.9118752,4.7702679 11.0708036,4.92919637 C11.2297321,5.08812484 11.2437453,5.34113823 11.1033396,5.51664536 L9.41209702,7.63069856 C9.23937175,7.84660514 9.23937175,8.15339486 9.41209702,8.36930144 Z" id="path-2"></path>
    </defs>
    <g id="Icon/System/Fail-mark" stroke="none" stroke-width="1" fill="none" fill-rule="evenodd">
        <g id="Group-6">
            <rect id="Rectangle-2" x="0" y="0" width="16" height="16"></rect>
            <g id="deleteocircle">
                <use fill="#FFFFFF" xlink:href="#path-2"></use>
                <use fill="url(#linearGradient-1)" xlink:href="#path-2"></use>
            </g>
        </g>
    </g>
</svg>