<svg xmlns="http://www.w3.org/2000/svg" width="80" height="80" viewBox="0 0 80 80">
    <g fill="none" fill-rule="evenodd">
        <path d="M0 0H80V80H0z"/>
        <g fill-rule="nonzero">
            <path fill="#94C1FF" d="M0.624 3.13H3.119V59.38H0.624z" transform="translate(0 13.75)"/>
            <path fill="#FFF" d="M3.118 3.13H65.481V59.369H3.118z" transform="translate(0 13.75)"/>
            <path fill="#D7E9FF" d="M65.48 3.13H.625V1.88c0-.686.561-1.25 1.247-1.25h62.363c.685 0 1.247.564 1.247 1.25v1.25z" transform="translate(0 13.75)"/>
            <path fill="#FFF" d="M3.118 3.131H5.6129999999999995V59.367H3.118zM3.118.63H1.871C1.185.63.624 1.195.624 1.88v1.25H1.87V1.88c0-.686.561-1.25 1.247-1.25z" transform="translate(0 13.75)"/>
            <path fill="#94C1FF" d="M62.986.63h1.248c.685 0 1.247.564 1.247 1.25v1.25h-1.247V1.88c0-.686-.562-1.25-1.248-1.25z" transform="translate(0 13.75)"/>
            <path fill="#116FFF" d="M65.48 31.88c-.344 0-.623-.479-.623-1.07V2.951c0-.592.28-1.071.624-1.071.345 0 .623.479.623 1.071v27.857c0 .592-.278 1.072-.623 1.072zM3.155 2.505c-.344 0-.63-.279-.63-.624 0-.346.273-.625.618-.625h.012c.345 0 .624.28.624.625s-.279.624-.624.624zM5.65 2.505c-.344 0-.63-.279-.63-.624 0-.346.273-.625.618-.625h.012c.344 0 .623.28.623.625s-.279.624-.623.624zM8.144 2.505c-.344 0-.63-.279-.63-.624 0-.346.274-.625.618-.625h.012c.345 0 .624.28.624.625s-.279.624-.624.624z" transform="translate(0 13.75)"/>
            <path fill="#116FFF" d="M65.48 3.755H.625C.279 3.755 0 3.475 0 3.13V1.88C0 .848.84.007 1.87.007h62.364c1.031 0 1.87.841 1.87 1.875v1.25c0 .345-.278.624-.623.624zM1.248 2.505h63.61v-.624c0-.34-.285-.625-.623-.625H1.87c-.344 0-.624.28-.624.625v.624z" transform="translate(0 13.75)"/>
            <path fill="#116FFF" d="M.624 59.993c-.345 0-.624-.338-.624-.756V3.262c0-.418.279-.757.624-.757.344 0 .623.339.623.757v55.975c0 .418-.279.756-.623.756z" transform="translate(0 13.75)"/>
            <path fill="#116FFF" d="M46.88 59.994H.482c-.267 0-.483-.28-.483-.625s.216-.625.483-.625H46.88c.267 0 .483.28.483.625s-.216.625-.483.625z" transform="translate(0 13.75)"/>
            <path fill="#116FFF" d="M3.118 59.993c-.345 0-.623-.338-.623-.756V3.262c0-.418.278-.757.623-.757s.624.339.624.757v55.975c0 .418-.28.756-.624.756zM1.87 8.754H.625c-.345 0-.624-.28-.624-.625s.279-.625.624-.625H1.87c.345 0 .624.28.624.625 0 .346-.28.625-.624.625zM1.87 12.503H.625c-.345 0-.624-.28-.624-.625s.279-.625.624-.625H1.87c.345 0 .624.28.624.625 0 .346-.28.625-.624.625zM1.87 16.252H.625c-.345 0-.624-.28-.624-.625s.279-.625.624-.625H1.87c.345 0 .624.28.624.625 0 .346-.28.625-.624.625zM1.87 20.001H.625c-.345 0-.624-.28-.624-.625s.279-.624.624-.624H1.87c.345 0 .624.28.624.624 0 .346-.28.625-.624.625zM1.87 23.75H.625c-.345 0-.624-.28-.624-.625s.279-.624.624-.624H1.87c.345 0 .624.28.624.624 0 .346-.28.625-.624.625zM1.87 27.5H.625c-.345 0-.624-.28-.624-.625 0-.346.279-.625.624-.625H1.87c.345 0 .624.28.624.625s-.28.624-.624.624zM1.87 31.248H.625c-.345 0-.624-.28-.624-.624 0-.346.279-.625.624-.625H1.87c.345 0 .624.28.624.625s-.28.624-.624.624zM1.87 34.998H.625c-.345 0-.624-.28-.624-.625 0-.346.279-.625.624-.625H1.87c.345 0 .624.28.624.625s-.28.625-.624.625zM1.87 38.747H.625c-.345 0-.624-.28-.624-.625s.279-.625.624-.625H1.87c.345 0 .624.28.624.625s-.28.625-.624.625zM1.87 42.496H.625c-.345 0-.624-.28-.624-.625s.279-.625.624-.625H1.87c.345 0 .624.28.624.625s-.28.625-.624.625zM1.87 46.25H.625c-.345 0-.624-.28-.624-.625S.279 45 .624 45H1.87c.345 0 .624.28.624.625s-.28.625-.624.625zM1.87 50H.625C.279 50 0 49.72 0 49.375s.279-.625.624-.625H1.87c.345 0 .624.28.624.625S2.215 50 1.87 50zM1.87 53.75H.625c-.345 0-.624-.28-.624-.625s.279-.625.624-.625H1.87c.345 0 .624.28.624.625s-.28.625-.624.625zM11.849 8.754h-4.99c-.344 0-.623-.28-.623-.625s.28-.625.624-.625h4.989c.345 0 .624.28.624.625 0 .346-.28.625-.624.625zM38.041 12.503H16.838c-.345 0-.624-.28-.624-.625s.28-.625.624-.625h21.203c.345 0 .624.28.624.625 0 .346-.279.625-.624.625zM14.36 12.5H8.124c-.345 0-.624-.28-.624-.625s.279-.625.624-.625h6.236c.345 0 .624.28.624.625s-.28.625-.624.625zM48.11 12.5h-6.236c-.345 0-.624-.28-.624-.625s.279-.625.624-.625h6.236c.345 0 .624.28.624.625s-.28.625-.624.625zM36.64 16.252H31.96c-.431 0-.78-.28-.78-.625s.349-.625.78-.625h4.678c.431 0 .78.28.78.625 0 .346-.349.625-.78.625zM29.31 16.252H9.355c-.344 0-.623-.28-.623-.625s.279-.625.623-.625h19.957c.344 0 .623.28.623.625 0 .346-.279.625-.623.625zM12.947 23.75H9.205c-.344 0-.623-.28-.623-.625s.279-.625.623-.625h3.742c.345 0 .624.28.624.625s-.28.625-.624.625zM12.947 46.25H9.205c-.344 0-.623-.28-.623-.625S8.86 45 9.205 45h3.742c.345 0 .624.28.624.625s-.28.625-.624.625zM33.97 23.75H15.454c-.344 0-.623-.28-.623-.625s.279-.625.623-.625H33.97c.345 0 .624.28.624.625s-.279.625-.624.625zM33.97 46.25H15.454c-.344 0-.623-.28-.623-.625s.279-.625.623-.625H33.97c.345 0 .624.28.624.625s-.279.625-.624.625zM13.096 49.997H9.354c-.344 0-.623-.28-.623-.625s.279-.625.623-.625h3.742c.345 0 .624.28.624.625s-.28.625-.624.625zM39.125 49.997H15.809c-.465 0-.842-.28-.842-.625s.377-.625.842-.625h23.316c.465 0 .842.28.842.625s-.377.625-.842.625zM26.816 20.001H10.602c-.345 0-.624-.28-.624-.625s.279-.624.624-.624h16.214c.345 0 .624.28.624.624 0 .346-.28.625-.624.625zM37.928 27.5H25.455c-.344 0-.623-.28-.623-.625s.279-.625.623-.625h12.473c.345 0 .624.28.624.625s-.28.625-.624.625zM37.928 38.75H25.455c-.344 0-.623-.28-.623-.625s.279-.625.623-.625h12.473c.345 0 .624.28.624.625s-.28.625-.624.625zM28.063 31.248H8.107c-.345 0-.623-.28-.623-.624 0-.346.278-.625.623-.625h19.956c.345 0 .624.28.624.625s-.279.624-.624.624zM21.827 53.746H8.107c-.345 0-.623-.28-.623-.625s.278-.625.623-.625h13.72c.345 0 .624.28.624.625s-.28.625-.624.625zM42.914 35H24.205c-.344 0-.623-.28-.623-.625s.279-.625.623-.625h18.71c.344 0 .623.28.623.625s-.279.625-.624.625zM42.914 42.5H24.205c-.344 0-.623-.28-.623-.625s.279-.625.623-.625h18.71c.344 0 .623.28.623.625s-.279.625-.624.625zM21.678 35H9.205c-.344 0-.623-.28-.623-.625s.279-.625.623-.625h12.473c.345 0 .624.28.624.625s-.28.625-.624.625zM21.678 42.5H9.205c-.344 0-.623-.28-.623-.625s.279-.625.623-.625h12.473c.345 0 .624.28.624.625s-.28.625-.624.625zM40.536 31.248h-9.978c-.345 0-.624-.28-.624-.624 0-.346.28-.625.624-.625h9.978c.345 0 .624.28.624.625s-.28.624-.624.624zM22.925 27.5H9.205c-.344 0-.623-.28-.623-.625s.279-.625.623-.625h13.72c.345 0 .624.28.624.625s-.279.625-.624.625zM22.925 38.75H9.205c-.344 0-.623-.28-.623-.625s.279-.625.623-.625h13.72c.345 0 .624.28.624.625s-.279.625-.624.625z" transform="translate(0 13.75)"/>
            <g>
                <path fill="#94C1FF" d="M19.846 14.995c0-2.411-1.958-4.374-4.365-4.374-2.419 0-4.365 1.963-4.365 4.374 0 2.413 1.946 4.374 4.365 4.374 2.407 0 4.365-1.961 4.365-4.374zm6.86 0c0 1.163-.175 2.275-.5 3.324l3.007 1.738-2.495 4.336-3.018-1.75c-1.509 1.625-3.492 2.8-5.724 3.312v3.412h-4.99v-3.412c-2.246-.512-4.215-1.687-5.724-3.312l-3.03 1.75-2.495-4.336 3.018-1.738c-.324-1.05-.5-2.16-.5-3.324 0-1.15.176-2.261.5-3.31l-3.018-1.75L4.23 5.61l3.03 1.75c1.51-1.637 3.48-2.811 5.725-3.324V.624h4.99v3.412c2.232.513 4.215 1.687 5.724 3.324l3.018-1.75 2.495 4.324-3.006 1.738c.324 1.05.5 2.173.5 3.323z" transform="translate(0 13.75) translate(50 35)"/>
                <path fill="#D7E9FF" d="M3.225 20.426l3.018-1.738c-.323-1.05-.74-2.53-.74-3.693 0-1.15.417-2.736.74-3.786L3.225 9.46l1.942-3.308-.936-.54-2.494 4.323 3.018 1.75c-.324 1.05-.5 2.161-.5 3.311 0 1.163.176 2.275.5 3.324l-3.018 1.738 2.494 4.336.937-.54-1.943-3.427z" transform="translate(0 13.75) translate(50 35)"/>
                <path fill="#5C9EFF" d="M27.759 9.452L24.74 11.19c.324 1.05.714 2.655.714 3.818 0 1.15-.175 2.806-.5 3.856l2.794 1.424-1.958 3.565.936.54 2.494-4.323-3.018-1.75c.324-1.05.5-2.162.5-3.311 0-1.163-.176-2.275-.5-3.325l3.018-1.738-2.494-4.336-.937.54 1.97 3.302zM15.48 10.621c2.408 0 4.366 1.963 4.366 4.374 0 2.413-1.958 4.374-4.365 4.374-2.42 0-4.366-1.961-4.366-4.374 0-2.411 1.947-4.374 4.366-4.374z" transform="translate(0 13.75) translate(50 35)"/>
                <path fill="#116FFF" d="M15.48 19.996c-2.75 0-4.988-2.241-4.988-4.998s2.238-5 4.989-5c2.752 0 4.989 2.243 4.989 5s-2.237 4.998-4.99 4.998zm0-8.748c-2.062 0-3.74 1.682-3.74 3.75 0 2.067 1.678 3.749 3.74 3.749 2.064 0 3.743-1.682 3.743-3.75 0-2.067-1.679-3.749-3.742-3.749z" transform="translate(0 13.75) translate(50 35)"/>
                <path fill="#116FFF" d="M23.588 15.621c-.344 0-.623-.28-.623-.625 0-4.133-3.357-7.496-7.484-7.496-.345 0-.624-.28-.624-.625 0-.346.28-.625.624-.625 4.814 0 8.73 3.923 8.73 8.747 0 .345-.278.624-.623.624zM15.48 23.745c-4.813 0-8.73-3.924-8.73-8.747 0-.346.28-.625.624-.625.345 0 .623.28.623.625 0 4.134 3.357 7.498 7.484 7.498.345 0 .623.28.623.625s-.278.624-.623.624zM15.519 15.622c-.345 0-.63-.279-.63-.624 0-.346.273-.625.616-.625h.014c.343 0 .623.279.623.625 0 .345-.28.624-.623.624z" transform="translate(0 13.75) translate(50 35)"/>
                <path fill="#116FFF" d="M17.976 29.994h-4.99c-.344 0-.623-.28-.623-.625v-2.924c-1.969-.537-3.754-1.572-5.21-3.02l-2.604 1.504c-.3.172-.68.071-.851-.228l-2.495-4.33c-.173-.299-.07-.681.228-.853l2.59-1.499c-.259-.985-.389-1.999-.389-3.021 0-1.022.13-2.035.387-3.02L1.43 10.48c-.297-.173-.4-.555-.227-.853l2.496-4.333c.081-.144.218-.248.377-.292.162-.041.33-.02.474.064L7.151 6.57c1.458-1.449 3.244-2.484 5.212-3.021V.626c0-.345.279-.625.624-.625h4.989c.344 0 .623.28.623.625V3.55c1.968.537 3.754 1.572 5.212 3.02l2.602-1.504c.142-.084.313-.105.474-.064.16.044.296.148.377.292l2.495 4.33c.173.299.07.681-.228.853l-2.59 1.499c.259.985.39 1.999.39 3.021 0 1.023-.131 2.037-.39 3.021l2.591 1.5c.144.083.247.218.291.38.043.16.02.329-.063.473l-2.496 4.33c-.17.299-.551.403-.851.228l-2.603-1.505c-1.457 1.449-3.242 2.484-5.21 3.021v2.924c0 .345-.28.625-.624.625zm-4.366-1.25h3.742v-2.787c0-.292.2-.544.484-.61 2.077-.473 3.947-1.556 5.407-3.132.198-.215.517-.265.769-.116l2.485 1.436 1.872-3.248-2.473-1.43c-.252-.146-.37-.447-.283-.725.312-1.015.47-2.069.47-3.135 0-1.065-.158-2.12-.47-3.135-.087-.278.031-.58.283-.725l2.472-1.429-1.871-3.248-2.484 1.436c-.25.148-.572.099-.768-.116-1.462-1.575-3.332-2.66-5.408-3.133-.284-.064-.485-.317-.485-.609V1.251H13.61v2.787c0 .292-.2.545-.485.61C11.05 5.12 9.18 6.204 7.717 7.78c-.197.215-.516.264-.768.116L4.465 6.46 2.593 9.71l2.471 1.43c.253.145.37.445.284.724-.31 1.016-.469 2.07-.469 3.134 0 1.065.159 2.12.47 3.135.087.278-.031.58-.283.725l-2.472 1.429 1.871 3.248L6.95 22.1c.25-.149.571-.099.769.116 1.46 1.576 3.33 2.66 5.406 3.133.284.065.485.317.485.609v2.787z" transform="translate(0 13.75) translate(50 35)"/>
            </g>
            <g>
                <path fill="#5C9EFF" d="M8.02 6.25c1.37 0 2.494 1.125 2.494 2.499 0 1.387-1.123 2.5-2.495 2.5-1.383 0-2.494-1.113-2.494-2.5 0-1.374 1.11-2.5 2.494-2.5z" transform="translate(0 13.75) translate(45 18.75)"/>
                <path fill="#94C1FF" d="M10.514 8.749c0-1.374-1.123-2.5-2.495-2.5-1.383 0-2.494 1.126-2.494 2.5 0 1.387 1.11 2.5 2.494 2.5 1.372 0 2.495-1.113 2.495-2.5zm3.068-.45l1.546.425-.972 3.611-1.523-.412c-.186.288-.398.55-.648.8-.248.25-.511.463-.797.65l.411 1.524-3.617.975-.41-1.536c-.675-.064-1.336-.226-1.96-.525L4.49 14.935l-2.645-2.65 1.122-1.124c-.298-.625-.472-1.287-.523-1.962L.91 8.786l.96-3.623 1.534.411c.187-.286.4-.549.65-.799.236-.25.511-.463.784-.65L4.428 2.6l3.616-.973.412 1.548c.674.05 1.335.226 1.958.513l1.135-1.124 2.643 2.648-1.134 1.125c.299.625.474 1.288.524 1.963z" transform="translate(0 13.75) translate(45 18.75)"/>
                <path fill="#5C9EFF" d="M13.582 8.3c-.05-.675-.225-1.338-.524-1.963l1.134-1.125-2.643-2.648-.627.621 2.023 2.027-1.134 1.125c.299.625.45 1.969.5 2.644l1.428.393-.745 2.647 1.162.315.972-3.611-1.546-.425z" transform="translate(0 13.75) translate(45 18.75)"/>
                <path fill="#D7E9FF" d="M3.212 12.437l1.122-1.124c-.299-.625-.785-2.303-.836-2.978L2.36 8.024l.676-2.548-1.164-.313L.91 8.787l1.533.412c.052.675.226 1.338.524 1.962l-1.122 1.124 2.645 2.65.623-.625-1.901-1.873z" transform="translate(0 13.75) translate(45 18.75)"/>
                <path fill="#116FFF" d="M8.057 9.376c-.345 0-.63-.28-.63-.625s.273-.625.617-.625h.013c.344 0 .624.28.624.625 0 .346-.28.625-.624.625z" transform="translate(0 13.75) translate(45 18.75)"/>
                <path fill="#116FFF" d="M7.989 16.5c-.108 0-.216-.027-.312-.083-.144-.082-.247-.219-.29-.379l-.303-1.134c-.456-.068-.898-.185-1.324-.352l-.826.827c-.243.244-.638.244-.882 0l-2.646-2.65c-.117-.118-.183-.276-.183-.442 0-.166.066-.325.183-.442l.827-.829c-.167-.426-.284-.87-.354-1.326L.75 9.387c-.333-.09-.53-.432-.441-.767L1.275 5c.09-.331.429-.525.764-.442l1.113.299c.15-.193.301-.365.457-.523.16-.16.334-.312.524-.46L3.835 2.76c-.043-.16-.02-.33.063-.475.081-.143.218-.247.377-.291l3.614-.972c.163-.04.33-.02.474.064.144.081.247.218.291.38l.303 1.133c.456.07.9.187 1.324.353l.826-.828c.234-.234.648-.234.882 0l2.645 2.65c.117.118.183.277.183.443 0 .166-.066.324-.183.441l-.826.83c.166.425.283.87.352 1.324l1.13.303c.333.09.53.432.442.767l-.968 3.62c-.044.16-.148.296-.292.378-.143.084-.313.104-.473.063l-1.109-.3c-.15.196-.302.368-.46.527-.157.157-.328.307-.523.46l.299 1.112c.089.334-.109.676-.441.766l-3.614.972c-.054.014-.109.02-.162.02zm-2.372-3.314c.09 0 .182.02.268.06.546.26 1.13.416 1.74.464.263.02.484.205.554.46l.25.94 2.41-.647-.247-.922c-.069-.255.031-.526.247-.676.291-.201.516-.385.709-.578.195-.195.377-.421.578-.712.15-.218.418-.313.675-.249l.919.248.645-2.413-.938-.251c-.254-.07-.438-.29-.459-.554-.049-.61-.204-1.197-.464-1.743-.112-.24-.063-.523.123-.71l.685-.686-1.764-1.767-.685.686c-.186.186-.471.238-.709.122-.542-.26-1.127-.415-1.74-.464-.263-.02-.485-.205-.553-.461l-.251-.941-2.41.648.248.924c.07.257-.032.53-.25.678-.276.188-.507.377-.707.576-.195.197-.378.421-.574.707-.15.217-.419.315-.675.25l-.923-.248-.646 2.414.94.252c.254.07.438.29.459.554.048.611.204 1.198.464 1.744.112.239.063.523-.123.71l-.685.686 1.765 1.767.683-.685c.12-.12.28-.183.441-.183z" transform="translate(0 13.75) translate(45 18.75)"/>
                <path fill="#116FFF" d="M8.02 11.875c-1.72 0-3.119-1.4-3.119-3.124 0-1.723 1.399-3.124 3.118-3.124 1.72 0 3.119 1.401 3.119 3.124s-1.399 3.124-3.119 3.124zm0-4.998c-1.032 0-1.871.84-1.871 1.874 0 1.034.839 1.875 1.87 1.875 1.032 0 1.871-.841 1.871-1.875 0-1.033-.839-1.874-1.87-1.874z" transform="translate(0 13.75) translate(45 18.75)"/>
            </g>
        </g>
    </g>
</svg>
