<svg width="80" height="80" viewBox="0 0 80 80" xmlns="http://www.w3.org/2000/svg">
    <g fill-rule="nonzero" fill="none">
        <path d="M74.378 42.5c0 18.975-15.387 34.374-34.375 34.374S5.628 61.474 5.628 42.5c0-18.975 15.387-34.375 34.375-34.375s34.375 15.4 34.375 34.375z" fill="#D7E9FF"/>
        <path d="M66.878 42.5c0 14.83-12.027 26.874-26.875 26.874-14.85 0-26.876-12.045-26.876-26.874 0-14.83 12.027-26.875 26.876-26.875 14.848 0 26.875 12.045 26.875 26.875z" fill="#FFF"/>
        <path fill="#94C1FF" d="m50.628 73.125-2.5 2.5h-16.25l-2.5-2.5v-8.75h21.25z"/>
        <path fill="#D7E9FF" d="M31.878 64.375h-2.5v8.75l2.5 2.5h2.5l-2.5-2.5z"/>
        <path fill="#5C9EFF" d="M48.128 64.375h2.5v8.75l-2.5 2.5h-2.5l2.5-2.5z"/>
        <path d="M60.628 42.5c0-11.392-9.235-20.626-20.625-20.626S19.378 31.108 19.378 42.5c0 7.497 4.014 14.043 10 17.653v4.222h21.25v-4.222c5.985-3.61 10-10.156 10-17.653z" fill="#D7E9FF"/>
        <g fill="#FFF">
            <path d="M40.003 21.874c.422 0 .836.035 1.25.063-10.805.65-19.375 9.593-19.375 20.563 0 11.126 7.5 17.653 7.5 17.653-5.986-3.61-10-10.155-10-17.653 0-11.392 9.234-20.626 20.625-20.626z"/>
            <path d="M40.004 21.874c-.422 0-.836.035-1.251.063 10.805.65 19.376 9.593 19.376 20.563 0 11.126-7.5 17.653-7.5 17.653 5.985-3.61 10-10.155 10-17.653 0-11.392-9.235-20.626-20.625-20.626z"/>
        </g>
        <path d="M34.378 75.625s1.25 2.5 5.625 2.5c4.374 0 5.625-2.5 5.625-2.5h-11.25z" fill="#94C1FF"/>
        <path d="M36.878 75.625h-2.5s1.25 2.5 5.625 2.5c.451 0 .863-.032 1.25-.08-3.362-.416-4.375-2.42-4.375-2.42z" fill="#D7E9FF"/>
        <path d="M43.128 75.625h2.5s-1.25 2.5-5.626 2.5c-.451 0-.863-.032-1.25-.08 3.362-.416 4.376-2.42 4.376-2.42z" fill="#5C9EFF"/>
        <g fill="#94C1FF">
            <path d="M29.377 63.125h21.25v1.25h-21.25zM50.003 36.875c1.388 0 2.5 1.113 2.5 2.5s-1.112 2.5-2.5 2.5c1.037 0 1.875.837 1.875 1.875 0 .775-.463 1.426-1.126 1.725a4.36 4.36 0 0 1-.774 5.125 4.376 4.376 0 0 1-3.775 1.225h-.013c-.1.6-.388 1.175-.85 1.637a3.121 3.121 0 0 1-4.424 0c-.589-.6-.901-1.375-.913-2.162V31.875c0-1.387 1.112-2.5 2.5-2.5a2.491 2.491 0 0 1 2.3 3.475 3.11 3.11 0 0 1 2.075-.775 3.11 3.11 0 0 1 3.125 3.125c0 .637-.188 1.237-.525 1.725.174-.025.35-.05.525-.05z"/>
            <path d="M40.003 45.625V51.3a3.099 3.099 0 0 1-.914 2.162 3.12 3.12 0 0 1-4.423 0 3.016 3.016 0 0 1-.851-1.637h-.012a4.35 4.35 0 0 1-3.763-1.224 4.38 4.38 0 0 1-.787-5.126 1.887 1.887 0 0 1-1.126-1.725c0-1.038.838-1.875 1.876-1.875a2.491 2.491 0 0 1-2.5-2.5c0-1.387 1.111-2.5 2.5-2.5.187 0 .362.025.524.05a3.029 3.029 0 0 1-.524-1.725c0-1.737 1.4-3.125 3.125-3.125.799 0 1.524.288 2.075.775a2.491 2.491 0 0 1 2.3-3.475 2.49 2.49 0 0 1 2.5 2.5v13.75z"/>
        </g>
        <g fill="#D7E9FF">
            <path d="M36.453 32.85a2.484 2.484 0 0 1 1.675-3.387 2.507 2.507 0 0 0-.625-.088 2.491 2.491 0 0 0-2.5 2.5c0 .094.018.182.028.272a3.077 3.077 0 0 1 1.422.703zM35.916 53.462a3.014 3.014 0 0 1-.851-1.637h-.012a4.35 4.35 0 0 1-3.763-1.224 4.38 4.38 0 0 1-.787-5.126 1.887 1.887 0 0 1-1.125-1.725c0-1.038.837-1.875 1.875-1.875a2.491 2.491 0 0 1-2.5-2.5c0-1.387 1.112-2.5 2.5-2.5.188 0 .362.025.525.05a3.03 3.03 0 0 1-.525-1.725 3.117 3.117 0 0 1 2.496-3.062 3.118 3.118 0 0 0-3.746 3.062c0 .638.187 1.238.524 1.725a3.391 3.391 0 0 0-.524-.05 2.491 2.491 0 0 0-2.5 2.5c0 1.387 1.111 2.5 2.5 2.5a1.872 1.872 0 0 0-1.876 1.875c0 .775.463 1.426 1.126 1.725a4.38 4.38 0 0 0 .787 5.126 4.35 4.35 0 0 0 3.763 1.224h.012c.1.6.388 1.176.85 1.637a3.115 3.115 0 0 0 2.838.853 3.108 3.108 0 0 1-1.587-.853zM43.552 32.85a2.484 2.484 0 0 0-1.675-3.387c.2-.052.408-.088.626-.088 1.387 0 2.5 1.113 2.5 2.5 0 .094-.019.182-.029.272a3.077 3.077 0 0 0-1.422.703zM44.09 53.462c.462-.461.75-1.038.85-1.637h.013a4.35 4.35 0 0 0 3.762-1.224 4.38 4.38 0 0 0 .787-5.126 1.887 1.887 0 0 0 1.126-1.725 1.872 1.872 0 0 0-1.875-1.875c1.388 0 2.5-1.113 2.5-2.5s-1.112-2.5-2.5-2.5c-.188 0-.363.025-.525.05a3.029 3.029 0 0 0 .525-1.725 3.117 3.117 0 0 0-2.497-3.062 3.118 3.118 0 0 1 3.746 3.062c0 .638-.187 1.238-.524 1.725.162-.025.337-.05.525-.05 1.388 0 2.5 1.113 2.5 2.5s-1.112 2.5-2.5 2.5c1.037 0 1.875.837 1.875 1.875 0 .775-.463 1.426-1.126 1.725a4.38 4.38 0 0 1-.787 5.126 4.35 4.35 0 0 1-3.762 1.224h-.013c-.1.6-.388 1.176-.85 1.637a3.116 3.116 0 0 1-2.837.853 3.109 3.109 0 0 0 1.587-.853z"/>
        </g>
        <g fill="#116FFF">
            <path d="M36.878 55.006c-1.001 0-1.944-.392-2.654-1.102a3.629 3.629 0 0 1-1.026-1.975 3.673 3.673 0 0 1 1.026-3.333.625.625 0 1 1 .884.884 2.436 2.436 0 0 0-.68 2.22c.085.51.318.96.68 1.32.95.95 2.59.95 3.54 0 .46-.46.72-1.074.73-1.73.006-.345.29-.592.634-.615.346.006.62.29.616.635a3.728 3.728 0 0 1-1.097 2.594 3.73 3.73 0 0 1-2.653 1.102zM33.128 38.95a3.726 3.726 0 0 1-3.123-1.681 3.628 3.628 0 0 1-.627-2.069 3.754 3.754 0 0 1 3.75-3.75c.926 0 1.81.331 2.489.932a.624.624 0 1 1-.828.936 2.499 2.499 0 0 0-1.661-.618 2.503 2.503 0 0 0-2.5 2.5c0 .505.142.978.413 1.37a2.486 2.486 0 0 0 2.086 1.13.625.625 0 1 1 0 1.25zM29.253 46.1a.64.64 0 0 1-.257-.055 2.503 2.503 0 0 1 1.007-4.795.625.625 0 1 1 0 1.25c-.69 0-1.25.561-1.25 1.25 0 .5.29.945.758 1.155a.626.626 0 0 1-.258 1.195z"/>
            <path d="M30.003 42.5a3.128 3.128 0 0 1-3.126-3.125 3.128 3.128 0 0 1 3.126-3.125c.222 0 .428.028.62.057a.625.625 0 0 1-.19 1.236 2.752 2.752 0 0 0-.43-.043 1.877 1.877 0 0 0-1.876 1.875c0 1.034.841 1.875 1.876 1.875a.625.625 0 1 1 0 1.25zM37.503 35a3.104 3.104 0 0 1-2.878-1.91 3.147 3.147 0 0 1-.247-1.215 3.128 3.128 0 0 1 3.125-3.125 3.128 3.128 0 0 1 3.125 3.125.625.625 0 1 1-1.25 0A1.877 1.877 0 0 0 37.502 30a1.877 1.877 0 0 0-1.876 1.875c0 .247.052.493.152.733.29.695.965 1.142 1.723 1.142a.625.625 0 1 1 0 1.25zM33.124 52.504a4.992 4.992 0 0 1-3.526-1.462 4.994 4.994 0 0 1-.9-5.855c.232-.45.536-.866.902-1.23 1.943-1.945 5.117-1.939 7.07.013a.625.625 0 1 1-.884.883c-1.466-1.464-3.845-1.47-5.304-.012a3.68 3.68 0 0 0-.674.92 3.75 3.75 0 0 0 .674 4.398 3.728 3.728 0 0 0 3.222 1.05.625.625 0 1 1 .198 1.233 4.94 4.94 0 0 1-.778.062zM43.128 55.006c-1.001 0-1.944-.392-2.654-1.102a3.77 3.77 0 0 1-1.097-2.594.626.626 0 0 1 .616-.635c.354.016.63.27.635.615.01.646.27 1.262.734 1.735.94.94 2.586.945 3.536-.005.36-.36.594-.81.676-1.299a2.45 2.45 0 0 0-.676-2.241.624.624 0 1 1 .883-.884 3.684 3.684 0 0 1 1.022 3.355 3.613 3.613 0 0 1-1.022 1.953 3.73 3.73 0 0 1-2.653 1.102zM46.878 38.95a.625.625 0 1 1 0-1.25c.84 0 1.617-.418 2.077-1.119a2.4 2.4 0 0 0 .423-1.381c0-1.402-1.099-2.5-2.5-2.5-.622 0-1.211.22-1.662.618a.624.624 0 1 1-.828-.936 3.747 3.747 0 0 1 2.49-.932 3.754 3.754 0 0 1 3.75 3.75c0 .759-.22 1.478-.636 2.08a3.717 3.717 0 0 1-3.114 1.67zM50.752 46.1a.626.626 0 0 1-.257-1.195 1.26 1.26 0 0 0 .758-1.155c0-.689-.56-1.25-1.25-1.25a.625.625 0 1 1 0-1.25 2.502 2.502 0 0 1 1.007 4.795.643.643 0 0 1-.258.055z"/>
            <path d="M50.003 42.5a.625.625 0 1 1 0-1.25 1.877 1.877 0 0 0 1.875-1.875 1.877 1.877 0 0 0-1.875-1.875c-.146 0-.29.023-.436.044a.625.625 0 1 1-.178-1.238c.204-.03.41-.056.614-.056a3.128 3.128 0 0 1 3.125 3.125 3.128 3.128 0 0 1-3.125 3.125zM42.503 35a.625.625 0 1 1 0-1.25c.758 0 1.434-.447 1.722-1.14a1.89 1.89 0 0 0 .153-.735A1.877 1.877 0 0 0 42.503 30a1.877 1.877 0 0 0-1.875 1.875.625.625 0 1 1-1.25 0 3.128 3.128 0 0 1 3.125-3.125 3.128 3.128 0 0 1 3.125 3.125c0 .414-.085.823-.25 1.216A3.102 3.102 0 0 1 42.504 35zM46.9 52.505c-.264 0-.53-.02-.795-.063a.625.625 0 1 1 .195-1.234 3.757 3.757 0 0 0 3.239-1.053 3.724 3.724 0 0 0 .66-4.388 3.365 3.365 0 0 0-.663-.926c-1.458-1.457-3.838-1.45-5.304.013a.625.625 0 1 1-.883-.884c1.954-1.953 5.127-1.958 7.071-.012.377.378.679.797.895 1.245a4.966 4.966 0 0 1-.895 5.84 4.991 4.991 0 0 1-3.52 1.462zM48.128 76.25h-16.25a.624.624 0 0 1-.442-.183l-2.5-2.5a.624.624 0 0 1-.183-.442v-8.75a.625.625 0 1 1 1.25 0v8.491L32.136 75H47.87l2.134-2.134v-8.49a.625.625 0 1 1 1.25 0v8.75a.625.625 0 0 1-.184.44l-2.5 2.5a.625.625 0 0 1-.441.184z"/>
            <path d="M28.128 68.75a.626.626 0 0 1-.03-1.25l1.25-.061 22.5-1.19c.345-.02.638.251.654.594a.625.625 0 0 1-.594.657l-1.25.06-22.5 1.19h-.03zM28.128 72.5a.625.625 0 0 1-.03-1.25l1.25-.061 22.5-1.19a.625.625 0 0 1 .061 1.25l-1.25.062-22.5 1.189h-.031zM50.628 65h-21.25a.625.625 0 0 1-.625-.625v-3.874c-6.27-3.921-10-10.623-10-18 0-11.718 9.532-21.25 21.25-21.25 11.717 0 21.25 9.532 21.25 21.25 0 7.377-3.73 14.079-10 18v3.874c0 .345-.28.625-.625.625zm-20.625-1.25h20v-3.6a.63.63 0 0 1 .301-.536c6.073-3.663 9.699-10.06 9.699-17.114 0-11.028-8.973-20-20-20-11.028 0-20 8.972-20 20 0 7.053 3.625 13.45 9.698 17.114a.63.63 0 0 1 .302.536v3.6zM40.003 78.75c-4.707 0-6.126-2.73-6.184-2.845a.625.625 0 0 1 1.115-.564c.05.094 1.184 2.16 5.069 2.16 3.89 0 5.022-2.072 5.068-2.161a.628.628 0 0 1 .84-.269c.305.156.43.527.276.834-.059.115-1.477 2.845-6.184 2.845zM13.127 43.125H.627a.624.624 0 1 1 0-1.25h12.5a.625.625 0 1 1 0 1.25zM79.378 43.125h-12.5a.625.625 0 1 1 0-1.25h12.5a.625.625 0 1 1 0 1.25zM5.902 62.812a.625.625 0 0 1-.313-1.167l10.826-6.25a.625.625 0 0 1 .625 1.084L6.215 62.73a.63.63 0 0 1-.313.083zM63.278 29.688a.624.624 0 0 1-.313-1.166l10.825-6.25a.624.624 0 1 1 .625 1.082l-10.825 6.25a.624.624 0 0 1-.312.084zM53.44 19.85a.626.626 0 0 1-.54-.938l6.25-10.824a.625.625 0 1 1 1.08.625l-6.25 10.824a.622.622 0 0 1-.54.313zM40.003 16.25a.625.625 0 0 1-.626-.625v-12.5a.625.625 0 1 1 1.25 0v12.5c0 .345-.279.625-.624.625zM26.565 19.85a.622.622 0 0 1-.54-.313l-6.25-10.824a.624.624 0 1 1 1.08-.625l6.25 10.824a.624.624 0 0 1-.54.938zM74.103 62.812a.63.63 0 0 1-.312-.083l-10.826-6.25a.625.625 0 0 1 .625-1.084l10.826 6.25a.625.625 0 0 1-.313 1.167zM16.727 29.688a.626.626 0 0 1-.312-.084L5.59 23.354a.624.624 0 1 1 .625-1.083l10.825 6.25a.624.624 0 0 1-.313 1.167z"/>
            <path d="M40.003 51.925a.625.625 0 0 1-.626-.625V31.875a.625.625 0 1 1 1.25 0V51.3c0 .345-.279.625-.624.625z"/>
            <path d="M41.878 47.5c-1.618 0-2.402-1.53-2.435-1.595a.625.625 0 0 1 1.117-.563c.01.02.484.908 1.318.908a.625.625 0 1 1 0 1.25z"/>
            <path d="M38.128 47.5a.625.625 0 1 1 0-1.25c.838 0 1.313-.898 1.318-.908a.624.624 0 0 1 1.115.563c-.032.064-.816 1.595-2.433 1.595zM43.128 40c-2.967 0-3.75-2.044-3.75-3.125a.625.625 0 0 1 1.25-.004c.003.198.108 1.88 2.5 1.88a.625.625 0 1 1 0 1.249z"/>
            <path d="M36.878 40a.625.625 0 1 1 0-1.25c2.472 0 2.5-1.799 2.5-1.875a.625.625 0 1 1 1.25 0c0 1.08-.784 3.125-3.75 3.125z"/>
        </g>
    </g>
</svg>
