<svg xmlns="http://www.w3.org/2000/svg" viewBox="0 0 80 80">
<g fill="none" fill-rule="evenodd">
<path d="M0 0h80v80H0z"/>
<g fill-rule="nonzero">
<path fill="#94C1FF" d="M71.935 31.025l.01-.008c6.342-6.343 6.343-16.627 0-22.97-6.344-6.345-16.629-6.345-22.971 0h-.001l-8.836 8.835c-6.344 6.344-6.344 16.628 0 22.971 6.343 6.344 16.628 6.344 22.971 0l.007-.009 8.82-8.819zm-12.36 5.293v.002c-4.392 4.391-11.513 4.391-15.904 0-4.391-4.392-4.391-11.512 0-15.903l.002-.002 8.833-8.834c4.392-4.391 11.512-4.391 15.904 0 4.39 4.392 4.39 11.512 0 15.903l-8.834 8.834z"/>
<path fill="#D7E9FF" d="M74.584 28.376l.01-.008c6.342-6.343 6.342-16.628 0-22.97-6.344-6.344-16.63-6.344-22.973-.001l-8.837 8.836c-6.343 6.344-6.343 16.628 0 22.972 6.344 6.343 16.627 6.343 22.97 0l.01-.01 8.819-8.819zm-12.36 5.293v.002c-4.393 4.392-11.513 4.391-15.904 0-4.391-4.392-4.391-11.512 0-15.903l.001-.002 8.834-8.834c4.392-4.39 11.511-4.39 15.904 0 4.39 4.392 4.39 11.512 0 15.903l-8.834 8.834z"/>
<path fill="#5C9EFF" d="M37.195 65.764l.01-.007c6.342-6.343 6.342-16.628 0-22.97-6.344-6.344-16.628-6.344-22.972-.002l-8.836 8.838c-6.343 6.342-6.343 16.627 0 22.97 6.344 6.344 16.628 6.344 22.971 0l.008-.01 8.82-8.819zm-12.358 5.294s-.002 0-.002.002c-4.392 4.391-11.512 4.391-15.904 0-4.391-4.393-4.391-11.512 0-15.904h.002l8.835-8.836c4.39-4.39 11.511-4.391 15.903 0 4.391 4.391 4.39 11.512 0 15.903l-8.834 8.835z"/>
<path fill="#94C1FF" d="M39.844 63.117l.01-.009c6.342-6.343 6.343-16.628 0-22.971-6.343-6.344-16.629-6.343-22.971 0l-8.837 8.837c-6.343 6.342-6.343 16.627 0 22.97 6.344 6.344 16.628 6.344 22.97 0l.01-.008 8.818-8.82zm-12.36 5.293c-4.392 4.392-11.512 4.392-15.904 0-4.391-4.39-4.391-11.51 0-15.902l.002-.002 8.835-8.835c4.39-4.39 11.511-4.391 15.902 0 4.392 4.392 4.391 11.512 0 15.904l-8.834 8.835z"/>
<path fill="#D7E9FF" d="M9.813 50.74l8.836-8.836c6.045-6.045 15.661-6.316 22.044-.84-.27-.313-.541-.629-.84-.927-6.343-6.343-16.628-6.343-22.97 0l-8.837 8.837c-6.343 6.342-6.343 16.627 0 22.97.298.298.614.57.929.839-5.478-6.382-5.207-15.998.838-22.042z"/>
<path fill="#5C9EFF" d="M38.087 61.34l-8.836 8.836c-6.045 6.045-15.661 6.316-22.044.84.27.315.54.63.84.928 6.343 6.344 16.628 6.343 22.97 0l8.837-8.837c6.343-6.342 6.343-16.627 0-22.97-.299-.298-.614-.57-.929-.839 5.477 6.382 5.206 15.998-.838 22.042z"/>
<path fill="#FFF" d="M44.552 16l8.837-8.836C59.433 1.12 69.05.85 75.432 6.326c-.27-.315-.54-.63-.839-.928-6.343-6.344-16.628-6.344-22.971 0l-8.837 8.836c-6.342 6.343-6.342 16.627 0 22.971.298.298.614.569.929.839-5.477-6.382-5.206-15.999.838-22.043z"/>
<path fill="#94C1FF" d="M72.827 26.6l-8.837 8.837c-6.044 6.045-15.661 6.316-22.044.839.27.315.54.63.84.928 6.343 6.344 16.628 6.343 22.971 0l8.836-8.837c6.344-6.342 6.343-16.627 0-22.97a15.608 15.608 0 00-.93-.839c5.479 6.382 5.208 15.998-.836 22.043z"/>
<path fill="#2287FF" d="M36.884 37.807l-6.326 6.325a11.196 11.196 0 013.113 2.188c.93.931 1.652 1.99 2.188 3.113l6.325-6.325a16.219 16.219 0 00-2.33-2.971 16.203 16.203 0 00-2.97-2.33z"/>
<path fill="#94C1FF" d="M43.108 42.184l6.325-6.325a11.196 11.196 0 01-3.113-2.188 11.241 11.241 0 01-2.189-3.113l-6.324 6.325a16.136 16.136 0 002.33 2.97c.914.914 1.916 1.68 2.97 2.33z"/>
<path fill="#FFF" d="M49.857 33.67a2.502 2.502 0 00-3.539-3.536c-.01.01-.017.023-.027.033L30.17 46.288l-.034.027a2.503 2.503 0 003.536 3.54L49.857 33.67z"/>
<path fill="#FFF" d="M44.556 44.273a6.247 6.247 0 11-8.835-8.834 6.247 6.247 0 018.835 8.834z"/>
<g fill="#116FFF">
<path d="M54.291 42.593c-1.7 0-3.414-.258-5.092-.786a.624.624 0 11.375-1.192 15.57 15.57 0 0015.74-3.853l8.837-8.835a15.515 15.515 0 004.576-11.043c0-4.171-1.626-8.094-4.576-11.045-6.09-6.088-15.997-6.088-22.087 0l-8.836 8.838a15.579 15.579 0 00-3.85 15.745.625.625 0 01-1.192.376 16.823 16.823 0 014.158-17.004l8.837-8.838c6.576-6.575 17.278-6.575 23.853 0a16.757 16.757 0 014.942 11.928c0 4.506-1.756 8.741-4.942 11.926l-8.836 8.836a16.814 16.814 0 01-11.907 4.947z"/>
<path d="M51.647 45.242c-1.212 0-2.435-.131-3.651-.398a.624.624 0 11.267-1.22c5.237 1.145 10.617-.427 14.402-4.212l2.65-2.65a.624.624 0 11.883.883l-2.65 2.65a16.795 16.795 0 01-11.901 4.947zM35.759 32.493a.626.626 0 01-.61-.49 16.807 16.807 0 014.546-15.56l2.65-2.65a.626.626 0 01.883.884l-2.65 2.65a15.558 15.558 0 00-4.208 14.407.625.625 0 01-.611.759zm18.535 5.104c-1.27 0-2.555-.205-3.81-.625a.625.625 0 01.399-1.185 10.577 10.577 0 0010.9-2.56l8.834-8.833a10.551 10.551 0 003.112-7.511c0-2.836-1.104-5.503-3.112-7.509a10.551 10.551 0 00-7.51-3.111 10.55 10.55 0 00-7.51 3.111l-8.833 8.835a10.564 10.564 0 00-2.559 10.902.625.625 0 01-1.184.398 11.806 11.806 0 012.86-12.184l8.833-8.834a11.785 11.785 0 018.392-3.478h.002c3.17 0 6.15 1.236 8.393 3.478a11.786 11.786 0 013.477 8.392 11.784 11.784 0 01-3.477 8.394l-8.834 8.834a11.813 11.813 0 01-8.373 3.486z"/>
<path d="M68.41 28.108a.624.624 0 01-.442-1.066c4.142-4.14 4.142-10.878 0-15.019s-10.88-4.14-15.02-.002a.624.624 0 11-.883-.883c4.627-4.627 12.158-4.627 16.787.002 4.628 4.628 4.628 12.157 0 16.785a.623.623 0 01-.442.183zM19.534 77.325c-4.505 0-8.74-1.755-11.926-4.942a16.753 16.753 0 01-4.942-11.926c0-4.504 1.754-8.74 4.94-11.925l8.836-8.837a16.797 16.797 0 0115.56-4.545.625.625 0 01-.269 1.221 15.566 15.566 0 00-14.408 4.208L8.49 49.415a15.514 15.514 0 00-4.574 11.042c0 4.172 1.626 8.093 4.577 11.043a15.512 15.512 0 0011.043 4.575c4.17 0 8.092-1.624 11.041-4.573l8.837-8.836a15.56 15.56 0 004.21-14.404.625.625 0 011.22-.269 16.8 16.8 0 01-4.547 15.556l-8.836 8.836a16.759 16.759 0 01-11.926 4.94z"/>
<path d="M16.884 79.976c-4.505 0-8.74-1.753-11.927-4.94-6.576-6.577-6.577-17.278-.002-23.853l2.65-2.651a.625.625 0 01.884.883l-2.65 2.651C-.25 58.155-.249 68.063 5.84 74.153c2.95 2.95 6.873 4.574 11.044 4.574s8.093-1.626 11.041-4.575l2.65-2.65a.625.625 0 01.884.883l-2.65 2.65a16.752 16.752 0 01-11.925 4.941z"/>
<path d="M19.532 72.323c-3.04 0-6.079-1.157-8.393-3.471a11.8 11.8 0 01-3.476-8.395 11.787 11.787 0 013.478-8.39l8.835-8.838c3.21-3.211 7.879-4.305 12.187-2.86a.626.626 0 01-.398 1.186 10.57 10.57 0 00-10.906 2.557l-8.835 8.838a10.545 10.545 0 00-3.111 7.507c0 2.837 1.104 5.505 3.11 7.511 4.141 4.143 10.879 4.14 15.02 0l8.836-8.836a10.57 10.57 0 002.558-10.902.623.623 0 01.393-.79.62.62 0 01.792.392c1.445 4.307.35 8.976-2.86 12.184l-8.835 8.835a11.846 11.846 0 01-8.395 3.472z"/>
<path d="M17.769 46.943a.623.623 0 01-.442-1.066 11.798 11.798 0 0112.186-2.854.623.623 0 11-.399 1.183 10.565 10.565 0 00-10.903 2.554.623.623 0 01-.442.183zm15.903 15.903a.624.624 0 01-.442-1.066 10.557 10.557 0 002.557-10.898.624.624 0 111.184-.398 11.797 11.797 0 01-2.857 12.18.626.626 0 01-.442.182zM47.206 36.946a.625.625 0 01-.442-1.067l2.65-2.65c.73-.73.73-1.92 0-2.652-.707-.707-1.942-.708-2.65 0a.527.527 0 01-.055.05l-2.599 2.598a.624.624 0 11-.883-.883l2.65-2.65c.02-.02.04-.038.062-.055 1.185-1.127 3.198-1.105 4.359.057a3.13 3.13 0 010 4.418l-2.65 2.65a.62.62 0 01-.442.184zM31.904 51.208h-.002a3.102 3.102 0 01-2.207-.915 3.127 3.127 0 01-.001-4.417l2.933-2.933a.624.624 0 11.883.883l-2.932 2.933a1.877 1.877 0 001.325 3.2c.5 0 .97-.196 1.325-.55a.463.463 0 01.058-.05l2.877-2.878a.625.625 0 01.884.884l-2.932 2.932a.686.686 0 01-.065.056 3.103 3.103 0 01-2.146.855z"/>
<path d="M40.14 46.728a6.832 6.832 0 01-4.86-2.013 6.827 6.827 0 01-2.012-4.86c0-1.834.714-3.56 2.012-4.858a6.826 6.826 0 014.86-2.013c1.835 0 3.56.715 4.858 2.013a6.879 6.879 0 010 9.717 6.82 6.82 0 01-4.858 2.014zm0-12.495a5.586 5.586 0 00-3.976 1.647 5.588 5.588 0 00-1.647 3.976c0 1.502.585 2.914 1.647 3.975a5.582 5.582 0 003.976 1.647 5.58 5.58 0 003.974-1.647 5.628 5.628 0 000-7.95 5.578 5.578 0 00-3.974-1.648z"/>
<path d="M40.14 42.98a.625.625 0 01-.625-.625v-4.999a.624.624 0 011.249 0v4.999c0 .345-.28.624-.624.624z"/>
<path d="M42.638 40.48H37.64a.625.625 0 010-1.25h4.998a.625.625 0 010 1.25z"/>
</g>
</g>
</g>
</svg>