<?xml version="1.0" encoding="UTF-8"?>
<svg width="42px" height="42px" viewBox="0 0 42 42" version="1.1" xmlns="http://www.w3.org/2000/svg" xmlns:xlink="http://www.w3.org/1999/xlink">
    <title>vf-logo-dashboard</title>
    <defs>
        <linearGradient x1="50%" y1="0%" x2="50%" y2="100%" id="linearGradient-1">
            <stop stop-color="#132144" stop-opacity="0.85" offset="0%"></stop>
            <stop stop-color="#132144" offset="100%"></stop>
        </linearGradient>
    </defs>
    <g id="vf-logo-dashboard" stroke="none" stroke-width="1" fill="none" fill-rule="evenodd">
        <path d="M26.861906,4.28766667 C28.370934,5.16065806 30.5935978,8.25769894 29.7206064,14.9298474 C28.2905634,25.5720282 22.5731626,34.3074849 20.6664386,34.3074849 C19.5578781,34.3074849 19.6340916,32.6446441 21.0641346,26.4450196 C22.969473,18.3442137 25.5912186,6.8290416 15.2663633,6.8290416 C4.30685706,6.8290416 2.95579895,18.5825543 10.0242578,20.0125973 C8.99191085,14.5321513 12.2483073,9.37041654 15.3453482,9.37041654 C18.6807296,9.37041654 17.2520722,15.8028388 15.8996284,22.7133278 C14.3116155,30.733763 12.4852621,39.8669158 18.8386994,39.8669158 C27.6545268,39.8669158 34.2463046,23.5863192 35.4380072,14.9243046 C36.9511922,3.96895553 30.2790438,1.03127021 26.861906,4.28766667 Z" id="Path" fill="url(#linearGradient-1)"></path>
    </g>
</svg>