<?xml version="1.0" encoding="UTF-8"?>
<svg width="14px" height="16px" viewBox="0 0 14 16" version="1.1" xmlns="http://www.w3.org/2000/svg" xmlns:xlink="http://www.w3.org/1999/xlink">
    <!-- Generator: Sketch 52.1 (67048) - http://www.bohemiancoding.com/sketch -->
    <title>text-doc</title>
    <desc>Created with Sketch.</desc>
    <defs>
        <linearGradient x1="50%" y1="0%" x2="50%" y2="100%" id="linearGradient-1">
            <stop stop-color="#6E849A" stop-opacity="0.85" offset="0%"></stop>
            <stop stop-color="#6E849A" offset="100%"></stop>
        </linearGradient>
        <path d="M2.15371398,0 C1.51625694,0 1,0.454675087 1,1.01609289 L1,14.9830923 C1,15.5445101 1.51625694,16 2.15371398,16 L13.8453608,16 C14.4828179,16 15,15.5445101 15,14.9830923 L15,5.60928906 C15,5.39091465 14.9010045,5.18150336 14.7252181,5.02668568 L9.33505155,0.279486657 C9.13150938,0.100224078 8.85672746,0 8.56899286,0 L2.15371398,0 Z M3.10650624,14.4 C2.90953654,14.4 2.75,14.2592715 2.75,14.085523 L2.75,1.914477 C2.75,1.74072846 2.90953654,1.6 3.10650624,1.6 L8.13324421,1.6 C8.62611408,1.6 9.02540107,1.95221424 9.0245098,2.38697869 L9.02272727,4.99635158 C9.02272727,5.2141269 9.22326203,5.39102021 9.4701426,5.39023402 L12.5334225,5.37844113 C12.9291444,5.37686874 13.25,5.65832566 13.25,6.00739512 L13.25,14.085523 C13.25,14.2592715 13.0904635,14.4 12.8934938,14.4 L3.10650624,14.4 Z M10.7984693,8.8 C11.185707,8.8 11.5,8.42975207 11.5,7.99237127 C11.5,7.55499046 11.185707,7.2 10.7984693,7.2 L5.20063212,7.2 C4.81339436,7.2 4.50000193,7.5712651 4.50000193,8.00762873 C4.49910138,8.44500954 4.81339436,8.8 5.20063212,8.8 L10.7984693,8.8 Z M7.99999774,4.79237127 C8.00105354,4.35499046 7.6325774,4 7.178581,4 L5.321419,4 C4.8674226,4 4.50000226,4.37024793 4.50000226,4.80762873 C4.49894646,5.24500954 4.8674226,5.6 5.321419,5.6 L7.178581,5.6 C7.63152159,5.6 7.99999774,5.22975207 7.99999774,4.79237127 Z M10.5683414,12 C11.0826074,12 11.498804,11.6287349 11.5,11.1923713 C11.5,10.7539733 11.0826074,10.4 10.5683414,10.4 L5.43046523,10.4 C4.91619923,10.4 4.50000256,10.7702479 4.50000256,11.2076287 C4.4988066,11.6450095 4.91619923,12 5.43046523,12 L10.5683414,12 Z" id="path-2"></path>
    </defs>
    <g id="Symbols" stroke="none" stroke-width="1" fill="none" fill-rule="evenodd">
        <g id="Icon/FB/Text" transform="translate(-1.000000, 0.000000)">
            <g id="Group-20">
                <g id="text-doc">
                    <use fill="#FFFFFF" xlink:href="#path-2"></use>
                    <use fill="url(#linearGradient-1)" xlink:href="#path-2"></use>
                </g>
            </g>
        </g>
    </g>
</svg>