<?xml version="1.0" encoding="UTF-8"?><svg version="1.1" width="64px" height="64px" viewBox="0 0 64.0 64.0" xmlns="http://www.w3.org/2000/svg" xmlns:xlink="http://www.w3.org/1999/xlink"><defs><clipPath id="i0"><path d="M31.0000608,0 C33.2003135,0 35.0000203,1.79970387 35.0000203,3.99995312 L35.0000203,56.999957 C35.0000203,59.2002063 33.2001885,61.0000352 30.9999358,61.0000352 L4.00008447,61.0000352 C1.79983174,61.0000352 0,59.2002063 0,56.999957 L0,3.99995312 C0,1.79970387 1.79983174,0 4.00008447,0 L31.0000608,0 Z"></path></clipPath><clipPath id="i1"><path d="M6.0000642,0 C3.79981146,0 1.99997973,1.79970387 1.99997973,3.99995312 L1.99997973,56.999957 C1.99997973,59.2000813 3.79981146,60.9999101 6.0000642,60.9999101 L4.00008447,60.9999101 C1.79983174,60.9999101 0,59.2000813 0,56.999832 L0,3.99995312 C0,1.79970387 1.79983174,0 4.00008447,0 Z"></path></clipPath><clipPath id="i2"><path d="M1.99997973,0 C4.20023246,0 5.99993918,1.79970387 5.99993918,3.99995312 L5.99993918,56.999832 C5.99993918,59.2000813 4.20023246,60.9999101 1.99997973,60.9999101 L0,60.9999101 C2.20012772,60.9999101 3.99995945,59.2000813 3.99995945,56.999957 L3.99995945,3.99995312 C3.99995945,1.79970387 2.20025273,0 0,0 L1.99997973,0 Z"></path></clipPath><clipPath id="i3"><path d="M31.0000608,0 C33.2003135,0 35.0000203,1.79970387 35.0000203,3.99995312 L35.0000203,56.999957 C35.0000203,59.2002063 33.2001885,60.9999101 30.9999358,60.9999101 L4.00008447,60.9999101 C1.79983174,60.9999101 0,59.2002063 0,56.999957 L0,3.99995312 C0,1.79970387 1.79983174,0 4.00008447,0 L31.0000608,0 Z"></path></clipPath><clipPath id="i4"><path d="M6.0000642,0 C3.79981146,0 1.99997973,1.79970387 1.99997973,3.99995312 L1.99997973,56.999957 C1.99997973,59.2000813 3.79981146,60.9997851 6.0000642,60.9997851 L4.00008447,60.9997851 C1.79983174,60.9997851 0,59.2000813 0,56.999832 L0,3.99995312 C0,1.79970387 1.79983174,0 4.00008447,0 Z"></path></clipPath><clipPath id="i5"><path d="M1.99997973,0 C4.20023246,0 5.99993918,1.79970387 5.99993918,3.99995312 L5.99993918,56.999832 C5.99993918,59.2000813 4.20023246,60.9997851 1.99997973,60.9997851 L0,60.9997851 C2.20012772,60.9997851 3.99995945,59.2000813 3.99995945,56.999957 L3.99995945,3.99995312 C3.99995945,1.79970387 2.20025273,0 0,0 L1.99997973,0 Z"></path></clipPath><clipPath id="i6"><path d="M35.0002703,0 L35.0002703,48.0004375 L0,48.0004375 L0,0 L35.0002703,0 Z"></path></clipPath><clipPath id="i7"><path d="M19.0733159,0 L6.21196354,47.9999375 L0,47.9999375 L12.8613523,0 L19.0733159,0 Z"></path></clipPath><clipPath id="i8"><path d="M14.9327152,0 L2.07136293,47.9999375 L0,47.9999375 L12.8613523,0 L14.9327152,0 Z"></path></clipPath><clipPath id="i9"><path d="M2.49978714,0 C3.88038145,0 4.99957428,1.11919105 4.99957428,2.49978318 C4.99957428,3.88037531 3.88038145,4.99956636 2.49978714,4.99956636 C1.11919282,4.99956636 0,3.88037531 0,2.49978318 C0,1.11919105 1.11919282,0 2.49978714,0 Z"></path></clipPath><clipPath id="i10"><path d="M2.49953711,0 C2.6709318,0 2.83795098,0.0175019826 2.99946953,0.0507557497 C1.85883852,0.282281977 0.999989864,1.29102125 0.999989864,2.50003321 C0.999989864,3.70892015 1.85883852,4.71678432 2.99946953,4.94918565 C2.83795098,4.9823144 2.6709318,4.9999414 2.49953711,4.9999414 C1.11912855,4.9999414 0,3.88093964 0,2.50003321 C0,1.11912678 1.11912855,0 2.49953711,0 Z"></path></clipPath><clipPath id="i11"><path d="M0.500057439,0 C1.880466,0 2.99959455,1.11912678 2.99959455,2.50003321 C2.99959455,3.88093964 1.880466,4.9999414 0.500057439,4.9999414 C0.328537737,4.9999414 0.161518553,4.98243942 0,4.94918565 C1.14063102,4.71678432 1.99960468,3.70904517 1.99960468,2.50003321 C1.99960468,1.29102125 1.14063102,0.282156963 0,0.0507557497 C0.161643567,0.0176269968 0.328662752,0 0.500057439,0 Z"></path></clipPath><clipPath id="i12"><path d="M0.50380787,0 C0.781214734,0 1.00386531,0.223650335 1.00386531,0.500056647 C1.00386531,0.776462959 0.78108972,1.00011329 0.50380787,1.00011329 C0.228401235,1.00011329 0,0.776462959 0,0.500056647 C0,0.223650335 0.218650115,0 0.49405675,0 Z"></path></clipPath><clipPath id="i13"><path d="M31.5,0 C33.9815283,0 36.0000101,2.01847866 36.0000101,4.5 L36.0000101,57.4998887 C36.0000101,59.9814198 33.9814033,62.0000234 31.4998682,62.0000234 L4.50001689,62.0000234 C2.01848185,62.0000234 0,59.9815448 0,57.5000137 L0,4.5 C0,2.01847866 2.01848185,0 4.50001689,0 L31.5,0 Z M31.4999899,0.99998828 L4.50001689,0.99998828 C2.57029524,0.99998828 0.999989864,2.57041618 0.999989864,4.50000977 L0.999989864,57.4998887 C0.999989864,59.4296073 2.57029524,60.9999101 4.50001689,60.9999101 L31.4999899,60.9999101 C33.4297149,60.9999101 35.0000203,59.4294822 35.0000203,57.4998887 L35.0000203,4.50000977 C35.0000203,2.57029117 33.4295899,0.99998828 31.4999899,0.99998828 Z"></path></clipPath><clipPath id="i14"><path d="M35.5000777,0 C35.7764845,0 36.0001352,0.223650335 36.0001352,0.499931633 C36.0001352,2.98133773 33.9814033,4.9999414 31.4998682,4.9999414 L4.50001689,4.9999414 C2.01848185,4.9999414 0,2.98146274 0,0.499931633 C0,0.223650335 0.22365069,0 0.500057439,0 C0.776464188,0 1.00011488,0.223650335 1.00011488,0.499931633 C1.00011488,2.42977525 2.57042025,3.99995312 4.50014191,3.99995312 L31.5001183,3.99995312 C33.4298399,3.99995312 35.0001453,2.42965023 35.0001453,0.499931633 C35.0001453,0.223650335 35.223796,0 35.5000777,0 Z"></path></clipPath><clipPath id="i15"><path d="M0.499932425,0 C0.776339174,0 0.999989864,0.223525321 0.999989864,0.499931633 L0.999989864,2.49990819 C0.999989864,2.7763145 0.776339174,2.99996484 0.499932425,2.99996484 C0.22365069,2.99996484 0,2.7763145 0,2.49990819 L0,0.499931633 C0,0.223525321 0.22365069,0 0.499932425,0 Z"></path></clipPath><clipPath id="i16"><path d="M0.500057439,0 C0.776464188,0 1.00011488,0.223525321 1.00011488,0.499931633 L1.00011488,2.49990819 C1.00011488,2.7763145 0.776464188,2.99996484 0.500057439,2.99996484 C0.223775704,2.99996484 0,2.7763145 0,2.49990819 L0,0.499931633 C0,0.223525321 0.22365069,0 0.500057439,0 Z"></path></clipPath><clipPath id="i17"><path d="M33.500098,0 C33.7763797,0 34.0000304,0.223650335 34.0000304,0.500056647 C34.0000304,0.776462959 33.7763797,1.00011329 33.500098,1.00011329 L0.500057439,1.00011329 C0.223775704,1.00011329 0,0.776462959 0,0.500056647 C0,0.223650335 0.22365069,0 0.500057439,0 L33.500098,0 Z"></path></clipPath><clipPath id="i18"><path d="M33.500098,0 C33.7763797,0 34.0000304,0.223525321 34.0000304,0.499931633 C34.0000304,0.776337945 33.7763797,0.999863266 33.500098,0.999863266 L0.500057439,0.999863266 C0.223775704,0.999863266 0,0.776337945 0,0.499931633 C0,0.223525321 0.22365069,0 0.500057439,0 L33.500098,0 Z"></path></clipPath><clipPath id="i19"><path d="M2.99996959,0 C4.65378456,0 5.99943912,1.34565244 5.99943912,2.99996484 C5.99943912,4.65415223 4.65378456,5.99992968 2.99996959,5.99992968 C1.34565457,5.99992968 0,4.65415223 0,2.99996484 C0,1.34565244 1.34565457,0 2.99996959,0 Z M2.99996959,0.999863266 C1.89696789,0.999863266 0.999989864,1.89633982 0.999989864,2.99983983 C0.999989864,4.10333983 1.89696789,4.99981639 2.99996959,4.99981639 C4.10297129,4.99981639 4.99944926,4.10333983 4.99944926,2.99983983 C4.99944926,1.89633982 4.10297129,0.999863266 2.99996959,0.999863266 Z"></path></clipPath><clipPath id="i20"><path d="M7.49998648,0 C7.77639323,0 7.99991891,0.223650335 7.99991891,0.500056647 C7.99991891,0.776462959 7.77639323,1.00011329 7.49998648,1.00011329 L0.499932425,1.00011329 C0.22365069,1.00011329 0,0.776462959 0,0.500056647 C0,0.223650335 0.22365069,0 0.499932425,0 L7.49998648,0 Z"></path></clipPath><clipPath id="i21"><path d="M0.500057439,0 C0.776464188,0 1.00011488,0.223650335 1.00011488,0.499931633 L1.00011488,2.50003321 C1.00011488,2.77618949 0.776464188,2.99996484 0.500057439,2.99996484 C0.22365069,2.99996484 0,2.7763145 0,2.49990819 L0,0.499931633 C0,0.223650335 0.22365069,0 0.500057439,0 Z"></path></clipPath><clipPath id="i22"><path d="M0.500057439,0 C0.776339174,0 1.00011488,0.223650335 1.00011488,0.500056647 L1.00011488,2.50003321 C0.999989864,2.77643952 0.776339174,3.00008985 0.500057439,3.00008985 C0.22365069,3.00008985 0,2.77643952 0,2.50003321 L0,0.500056647 C0,0.22377535 0.22365069,0 0.500057439,0 Z"></path></clipPath><clipPath id="i23"><path d="M0.500057439,0 C0.776464188,0 1.00011488,0.223650335 1.00011488,0.500056647 L1.00011488,6.49998633 C1.00011488,6.77651765 0.776464188,7.00004297 0.500057439,7.00004297 C0.22365069,7.00004297 0,6.77639264 0,6.49998633 L0,0.500056647 C0,0.223650335 0.22365069,0 0.500057439,0 Z"></path></clipPath></defs><g transform="translate(14.0 0.0)"><g transform="translate(0.9999898637005629 2.5000332068867195)"><g clip-path="url(#i0)"><polygon points="0,0 35.0000203,0 35.0000203,61.0000352 0,61.0000352 0,0" stroke="none" fill="#656C77"></polygon></g></g><g transform="translate(0.9999898637005629 2.5000332068867195)"><g clip-path="url(#i0)"><polygon points="0,0 35.0000203,0 35.0000203,61.0000352 0,61.0000352 0,0" stroke="none" fill="#5C9EFF"></polygon></g></g><g transform="translate(0.9999898637005646 2.500033206886716)"><g clip-path="url(#i1)"><polygon points="0,0 6.0000642,0 6.0000642,60.9999101 0,60.9999101 0,0" stroke="none" fill="#93C1FF"></polygon></g></g><g transform="translate(30.107458289127802 2.500033206886716)"><g clip-path="url(#i2)"><polygon points="0,0 5.99993918,0 5.99993918,60.9999101 0,60.9999101 0,0" stroke="none" fill="#2187FF"></polygon></g></g><g transform="translate(0.9999898637005629 0.5000566470420473)"><g clip-path="url(#i3)"><polygon points="0,0 35.0000203,0 35.0000203,60.9999101 0,60.9999101 0,0" stroke="none" fill="#93C1FF"></polygon></g></g><g transform="translate(0.9999898637005646 0.5000566470420473)"><g clip-path="url(#i4)"><polygon points="0,0 6.0000642,0 6.0000642,60.9997851 0,60.9997851 0,0" stroke="none" fill="#D7E9FF"></polygon></g></g><g transform="translate(30.107458289127802 0.5000566470420473)"><g clip-path="url(#i5)"><polygon points="0,0 5.99993918,0 5.99993918,60.9997851 0,60.9997851 0,0" stroke="none" fill="#5C9EFF"></polygon></g></g><g transform="translate(1.0004899211395895 4.499384695922586)"><g clip-path="url(#i6)"><polygon points="0,0 35.0002703,0 35.0002703,48.0004375 0,48.0004375 0,0" stroke="none" fill="#D7E9FF"></polygon></g></g><g transform="translate(6.892541710872196 4.500009766731388)"><g clip-path="url(#i7)"><polygon points="0,0 19.0733159,0 19.0733159,47.9999375 0,47.9999375 0,0" stroke="none" fill="#FFFFFF"></polygon></g><g transform="translate(8.282201333937005 0.0)"><g clip-path="url(#i8)"><polygon points="0,0 14.9327152,0 14.9327152,47.9999375 0,47.9999375 0,0" stroke="none" fill="#FFFFFF"></polygon></g></g></g><g transform="translate(16.00021286228824 54.50054889030398)"><g clip-path="url(#i9)"><polygon points="0,0 4.99957428,0 4.99957428,4.99956636 0,4.99956636 0,0" stroke="none" fill="#D7E9FF"></polygon></g></g><g transform="translate(16.00046289100775 54.50004883365694)"><g clip-path="url(#i10)"><polygon points="0,0 2.99946953,0 2.99946953,4.9999414 0,4.9999414 0,0" stroke="none" fill="#FFFFFF" opacity="50%"></polygon></g></g><g transform="translate(18.00044261840887 54.50004883365694)"><g clip-path="url(#i11)"><polygon points="0,0 2.99959455,0 2.99959455,4.9999414 0,4.9999414 0,0" stroke="none" fill="#93C1FF"></polygon></g></g><g transform="translate(31.525496171857583 1.9999765598446697)"><g clip-path="url(#i12)"><polygon points="0,0 1.00386531,0 1.00386531,1.00011329 0,1.00011329 0,0" stroke="none" fill="#116EFF"></polygon></g></g><g transform="translate(29.52551644445646 1.9999765598446697)"><g clip-path="url(#i12)"><polygon points="0,0 1.00386531,0 1.00386531,1.00011329 0,1.00011329 0,0" stroke="none" fill="#116EFF"></polygon></g></g><g transform="translate(0.500057439030158 0.0)"><g clip-path="url(#i13)"><polygon points="0,0 36.0000101,0 36.0000101,62.0000234 0,62.0000234 0,0" stroke="none" fill="#116EFF"></polygon></g></g><g transform="translate(0.500057439030158 59.000058600388314)"><g clip-path="url(#i14)"><polygon points="0,0 36.0001352,0 36.0001352,4.9999414 0,4.9999414 0,0" stroke="none" fill="#116EFF"></polygon></g></g><g transform="translate(35.49995269726928 57.000082040543646)"><g clip-path="url(#i15)"><polygon points="0,0 0.999989864,0 0.999989864,2.99996484 0,2.99996484 0,0" stroke="none" fill="#116EFF"></polygon></g></g><g transform="translate(0.4999324246704008 57.000082040543646)"><g clip-path="url(#i16)"><polygon points="0,0 1.00011488,0 1.00011488,2.99996484 0,2.99996484 0,0" stroke="none" fill="#116EFF"></polygon></g></g><g transform="translate(1.4999222883709606 3.99995311968934)"><g clip-path="url(#i17)"><polygon points="0,0 34.0000304,0 34.0000304,1.00011329 0,1.00011329 0,0" stroke="none" fill="#116EFF"></polygon></g></g><g transform="translate(1.4999222883709606 52.00001562677021)"><g clip-path="url(#i18)"><polygon points="0,0 34.0000304,0 34.0000304,0.999863266 0,0.999863266 0,0" stroke="none" fill="#116EFF"></polygon></g></g><g transform="translate(15.500530466337352 54.00011720077666)"><g clip-path="url(#i19)"><polygon points="0,0 5.99943912,0 5.99943912,5.99992968 0,5.99992968 0,0" stroke="none" fill="#116EFF"></polygon></g></g><g transform="translate(14.50004054519776 1.9999765598446697)"><g clip-path="url(#i20)"><polygon points="0,0 7.99991891,0 7.99991891,1.00011329 0,1.00011329 0,0" stroke="none" fill="#116EFF"></polygon></g></g><g transform="translate(35.99988512193968 9.000144547624537)"><g clip-path="url(#i21)"><polygon points="0,0 1.00011488,0 1.00011488,2.99996484 0,2.99996484 0,0" stroke="none" fill="#116EFF"></polygon></g></g><g transform="translate(0.0 10.00000781338511)"><g clip-path="url(#i22)"><polygon points="0,0 1.00011488,0 1.00011488,3.00008985 0,3.00008985 0,0" stroke="none" fill="#116EFF"></polygon></g></g><g transform="translate(35.99988512193968 13.999960933074448)"><g clip-path="url(#i23)"><polygon points="0,0 1.00011488,0 1.00011488,7.00004297 0,7.00004297 0,0" stroke="none" fill="#116EFF"></polygon></g></g></g></svg>