<svg viewBox="0 0 64 64" xmlns="http://www.w3.org/2000/svg"><g fill-rule="nonzero" fill="none"><path d="M0 0h64v64H0z"/><g transform="translate(0 3)"><path fill="#5C9EFF" d="M42.495 44.493h20.99v3.998h-20.99z"/><path fill="#94C1FF" d="M42.495 30.499h20.99v13.994h-20.99z"/><path fill="#D7E9FF" d="M24.503.513h17.992v18.991H24.503zM.514 30.499h20.99v13.994H.515z"/><path fill="#5C9EFF" d="M.514 44.493h20.99v3.998H.515z"/><path d="M12.01 44.493a.999.999 0 11-1.999 0 .999.999 0 011.998 0z" fill="#94C1FF"/><path d="M14.508 36.998a3.498 3.498 0 11-6.996 0 3.498 3.498 0 016.996 0z" fill="#5C9EFF"/><path d="M8.51 36.998a3.488 3.488 0 013-3.448c-.166-.023-.33-.05-.5-.05a3.498 3.498 0 100 6.996c.17 0 .334-.027.5-.05a3.488 3.488 0 01-3-3.448z" fill="#94C1FF"/><path d="M13.508 36.998a3.488 3.488 0 01-2.998 3.448c.165.023.329.05.5.05a3.498 3.498 0 100-6.996c-.171 0-.335.027-.5.05a3.488 3.488 0 012.998 3.448z" fill="#2287FF"/><path fill="#FFF" d="M10.51 35.499l1.999 1.499-2 1.5zM.514 30.499h1v13.994h-1z"/><path fill="#94C1FF" d="M20.505 30.499h1v13.994h-1zM.514 44.461h1v4.03h-1z"/><path fill="#2287FF" d="M20.505 44.461h1v4.03h-1z"/><circle fill="#94C1FF" cx="31.5" cy="13.507" r="1.999"/><circle fill="#FFF" cx="46.993" cy="34.997" r="1.53"/><path fill="#94C1FF" d="M33.5 9.196V6.51h3.998z"/><path fill="#5C9EFF" d="M22.504.513h2v18.991h-2z"/><path fill="#94C1FF" d="M22.504.513h1v18.991h-1zM41.496.513h1v18.991h-1z"/><path fill="#FFF" d="M61.487 44.493H51.49l4.998-7.997z"/><path fill="#FFF" d="M56.489 36.496l-4.998 7.997h1l4.498-7.197z"/><path fill="#D7E9FF" d="M52.99 42.093l-1.499 2.4h-4.998l3.999-5.998z"/><path fill="#FFF" d="M50.492 38.495l-3.999 5.998h1L51 39.229z"/><path fill="#94C1FF" d="M52.464 41.336l-1.972 3.157h1l1.498-2.4z"/><path fill="#D7E9FF" d="M42.495 30.499h1v13.994h-1z"/><path fill="#5C9EFF" d="M62.485 30.499h1v13.994h-1z"/><path fill="#2287FF" d="M62.485 44.493h1v3.998h-1z"/><path fill="#94C1FF" d="M42.495 44.493h1v3.998h-1z"/><g fill="#116FFF"><path d="M32.5 56.987a24.979 24.979 0 01-16.318-6.066.5.5 0 01.654-.755 23.98 23.98 0 0031.33-.002.5.5 0 01.654.758 24.985 24.985 0 01-16.32 6.065zM56.74 29a.5.5 0 01-.494-.429c-.069-.477-.15-.949-.245-1.417A23.984 23.984 0 0044.25 11.08a.498.498 0 11.49-.87 24.987 24.987 0 0112.24 16.744c.1.487.182.978.255 1.475a.5.5 0 01-.496.57zM8.26 29a.5.5 0 01-.496-.57C8.855 20.811 13.526 14 20.26 10.207a.499.499 0 11.49.87C14.286 14.72 9.801 21.258 8.754 28.571A.5.5 0 018.26 29zM63.486 44.992h-20.99a.5.5 0 01-.5-.5V30.5a.5.5 0 01.5-.5h20.99a.5.5 0 01.5.5v13.994a.5.5 0 01-.5.5zm-20.491-1h19.99V31h-19.99v12.994zM63.486 46.992h-20.99a.5.5 0 110-1h20.99a.5.5 0 110 1zM63.486 48.99h-20.99a.5.5 0 110-.999h20.99a.5.5 0 110 1z"/><path d="M51.491 44.992a.5.5 0 01-.424-.765l4.998-7.996a.5.5 0 01.847.53l-4.997 7.997a.5.5 0 01-.424.234z"/><path d="M61.487 44.992a.5.5 0 01-.424-.234l-4.998-7.996a.5.5 0 01.847-.531l4.998 7.996a.5.5 0 01-.423.765zM46.493 44.992a.498.498 0 01-.416-.777l3.999-5.997a.5.5 0 01.831.554L46.91 44.77a.5.5 0 01-.416.222z"/><path d="M52.89 42.593a.5.5 0 01-.415-.222l-2.4-3.598a.5.5 0 01.832-.555l2.4 3.598a.5.5 0 01-.416.777zM46.993 36.996c-1.102 0-1.999-.896-1.999-1.999 0-1.103.897-1.999 2-1.999 1.101 0 1.998.896 1.998 2a2 2 0 01-1.999 1.998zm0-2.999a1 1 0 00-1 1 1 1 0 001 1 1 1 0 001-1 1 1 0 00-1-1z"/><g><path d="M42.495 20.004h-19.99a.5.5 0 01-.5-.5V.513a.5.5 0 01.5-.5h19.99a.5.5 0 01.5.5v18.991a.5.5 0 01-.5.5zm-19.49-1h18.99V1.013h-18.99v17.991z"/><path d="M33.5 14.007a.5.5 0 01-.5-.5V6.51a.5.5 0 11.999 0v6.997a.5.5 0 01-.5.5z"/><path d="M31.5 16.006a2.502 2.502 0 01-2.499-2.5 2.502 2.502 0 012.5-2.498 2.501 2.501 0 012.498 2.499 2.501 2.501 0 01-2.499 2.499zm0-3.998c-.826 0-1.5.672-1.5 1.499 0 .827.673 1.5 1.5 1.5a1.5 1.5 0 001.5-1.5 1.5 1.5 0 00-1.5-1.5zM37.498 7.01h-3.999a.5.5 0 110-1h3.999a.5.5 0 110 1z"/><path d="M34.499 9.009a.5.5 0 01-.277-.916l2.998-1.999a.5.5 0 01.555.832l-2.999 1.999a.498.498 0 01-.277.084zM24.503 19.004a.5.5 0 01-.5-.5V1.512a.5.5 0 111 0v16.993a.5.5 0 01-.5.5zM23.004 6.01h-.5a.5.5 0 110-1h.5a.5.5 0 110 1zM23.004 3.012h-.5a.5.5 0 110-1h.5a.5.5 0 110 1zM23.004 9.009h-.5a.5.5 0 110-1h.5a.5.5 0 110 1zM23.004 12.008h-.5a.5.5 0 110-1h.5a.5.5 0 110 1zM23.004 15.006h-.5a.5.5 0 110-1h.5a.5.5 0 110 1zM23.004 18.005h-.5a.5.5 0 110-1h.5a.5.5 0 110 1z"/></g><g><path d="M2.544 46.992a.504.504 0 01-.505-.5c0-.276.219-.5.494-.5h.01a.5.5 0 010 1zM4.543 46.992a.504.504 0 01-.505-.5c0-.276.219-.5.494-.5h.01a.5.5 0 010 1zM19.536 46.992a.504.504 0 01-.505-.5c0-.276.219-.5.494-.5h.011a.5.5 0 010 1zM17.537 46.992a.504.504 0 01-.505-.5c0-.276.219-.5.494-.5h.01a.5.5 0 010 1z"/><path d="M21.505 48.99H.515a.5.5 0 01-.5-.5V30.5a.5.5 0 01.5-.5h20.99a.5.5 0 01.5.5v17.992a.5.5 0 01-.5.5zm-20.49-.999h19.99V31H1.015V47.99z"/><path d="M10.01 44.992H1.514a.5.5 0 110-1h8.496a.5.5 0 110 1zM20.505 44.992H12.01a.5.5 0 110-1h8.496a.5.5 0 110 1z"/><path d="M11.01 45.992c-.827 0-1.5-.672-1.5-1.5a1.5 1.5 0 012.999 0 1.5 1.5 0 01-1.5 1.5zm0-2a.5.5 0 000 1 .5.5 0 000-1zM11.01 40.994a4.003 4.003 0 01-3.998-3.998 4.003 4.003 0 013.998-3.998 4.003 4.003 0 013.998 3.998 4.003 4.003 0 01-3.998 3.998zm0-6.997a3.002 3.002 0 00-2.999 2.999 3.002 3.002 0 002.999 2.999 3.002 3.002 0 002.998-2.999 3.002 3.002 0 00-2.998-2.999z"/><path d="M10.51 38.99a.501.501 0 01-.5-.5V35.49a.5.5 0 01.8-.4l1.999 1.5a.5.5 0 010 .8l-2 1.499a.497.497 0 01-.3.1zm.5-2.5v1l.666-.5-.666-.5z"/></g></g></g></g></svg>