<?xml version="1.0" encoding="UTF-8"?>
<svg width="200px" height="200px" viewBox="0 0 60 70" version="1.1" xmlns="http://www.w3.org/2000/svg" xmlns:xlink="http://www.w3.org/1999/xlink">
    <!-- Generator: Sketch 63.1 (92452) - https://sketch.com -->
    <title>Icon/Large/Receipt</title>
    <desc>Created with Sketch.</desc>
    <defs>
        <linearGradient x1="39.8030199%" y1="56.6085133%" x2="43.0274536%" y2="43.3914867%" id="linearGradient-1">
            <stop stop-color="#116FFF" offset="0%"></stop>
            <stop stop-color="#4187F3" offset="6.27935332%"></stop>
            <stop stop-color="#5C9CFF" offset="100%"></stop>
        </linearGradient>
    </defs>
    <g id="Icon/Large/Receipt" stroke="none" stroke-width="1" fill="none" fill-rule="evenodd">
        <g id="Group-11">
            <rect id="Rectangle-3" x="0" y="0" width="64" height="64"></rect>
            <g id="16-check,-list,-cashbox,-purchase,-shop,-shopping,-commerce-copy" transform="translate(5.000000, 0.000000)">
                <path d="M54.49575,16.5025 L54.49575,27.00075 C54.49575,28.3805 53.37575,29.500375 51.996125,29.500375 C50.6165,29.500375 49.4965,28.3805 49.4965,27.00075 L49.4965,16.5025 L54.49575,16.5025 Z" id="Shape" fill="#FFFFFF" fill-rule="nonzero"></path>
                <path d="M49.4965,27.00075 C49.4965,28.3805 50.6165,29.500375 51.996125,29.500375 L44.497375,29.500375 L44.497375,3.024125 C44.497375,1.63475 45.61725,0.5245 46.996875,0.5245 C48.376625,0.5245 49.4965,1.634625 49.4965,3.024125 L49.4965,16.5025 L49.4965,27.00075 Z" id="Shape" fill="#D7E9FF" fill-rule="nonzero"></path>
                <path d="M46.996875,2.52425 C48.376625,2.52425 49.4965,3.634375 49.4965,5.023875 L49.4965,3.024125 C49.4965,1.63475 48.376625,0.5245 46.996875,0.5245 C45.61725,0.5245 44.497375,1.634625 44.497375,3.024125 L44.497375,5.023875 C44.497375,3.6345 45.61725,2.52425 46.996875,2.52425 Z" id="Shape" fill="#94C1FF" fill-rule="nonzero"></path>
                <path d="M51.996125,27.50075 C50.6165,27.50075 49.4965,26.390625 49.4965,25.001125 L49.4965,27.000875 C49.4965,28.390375 50.6165,29.5005 51.996125,29.5005 C53.37575,29.5005 54.49575,28.390375 54.49575,27.000875 L54.49575,25.001125 C54.49575,26.390625 53.37575,27.50075 51.996125,27.50075 Z" id="Shape" fill="#D7E9FF" fill-rule="nonzero"></path>
                <polygon id="Shape" fill="#94C1FF" fill-rule="nonzero" points="36.4985 28.500625 39.498 28.500625 39.498 30.50025 5.5035 30.50025 5.5035 28.500625 8.503 28.500625 12.5025 28.500625 16.501875 28.500625 20.501125 28.500625 24.5005 28.500625 28.499875 28.500625 32.49925 28.500625"></polygon>
                <polygon id="Rectangle-path" fill="#D7E9FF" fill-rule="nonzero" points="5.5035 28.500625 6.503375 28.500625 6.503375 30.50025 5.5035 30.50025"></polygon>
                <polygon id="Rectangle-path" fill="#5C9EFF" fill-rule="nonzero" points="38.49825 28.500625 39.498 28.500625 39.498 30.50025 38.49825 30.50025"></polygon>
                <g id="Group" fill="#116FFF" fill-rule="nonzero">
                    <path d="M44.497375,63.994875 C44.444625,63.994875 44.391875,63.987125 44.339125,63.9695 L41.497875,63.022375 L38.656625,63.9695 C38.554125,64.00275 38.44275,64.00275 38.34025,63.9695 L35.499,63.022375 L32.65775,63.9695 C32.55525,64.00275 32.443875,64.00275 32.341375,63.9695 L29.500125,63.022375 L26.65875,63.9695 C26.55625,64.00275 26.445,64.00275 26.3425,63.9695 L23.501125,63.022375 L20.659875,63.9695 C20.557375,64.00275 20.446,64.00275 20.343625,63.9695 L17.50225,63.022375 L14.661,63.9695 C14.5585,64.00275 14.447125,64.00275 14.34475,63.9695 L11.48325,63.0155 L7.625,63.98025 C7.545875,63.99975 7.462,63.99975 7.382875,63.98025 L3.524625,63.0155 L0.66325,63.9695 C0.510875,64.017375 0.343,63.993875 0.212625,63.900125 C0.08225,63.806375 0.005125,63.656 0.005125,63.494875 L0.005125,3.004625 C0.005125,1.350625 1.35075,0.005125 3.004625,0.005125 L46.9975,0.005125 C47.273875,0.005125 47.4975,0.22875 47.4975,0.505125 C47.4975,0.7815 47.273875,1.005125 46.9975,1.005125 L3.003875,1.005125 C1.901125,1.005125 1.00425,1.9025 1.00425,3.00475 L1.00425,62.80175 L3.345625,62.020625 C3.436,61.991375 3.532625,61.987375 3.624875,62.009875 L7.503125,62.9795 L11.38125,62.009875 C11.473,61.987375 11.57075,61.991375 11.6605,62.020625 L14.50175,62.96775 L17.343125,62.020625 C17.4455,61.987375 17.556875,61.987375 17.659375,62.020625 L20.500625,62.96775 L23.342,62.020625 C23.444375,61.987375 23.55575,61.987375 23.65825,62.020625 L26.4995,62.96775 L29.340875,62.020625 C29.443375,61.987375 29.55475,61.987375 29.65725,62.020625 L32.4985,62.96775 L35.33975,62.020625 C35.44225,61.987375 35.553625,61.987375 35.656125,62.020625 L38.497375,62.96775 L41.338625,62.020625 C41.441125,61.987375 41.5525,61.987375 41.655,62.020625 L44.6545,63.0205 C44.916125,63.108375 45.05775,63.3915 44.97075,63.65325 C44.9015,63.862 44.70625,63.994875 44.497375,63.994875 Z" id="Shape"></path>
                    <path d="M44.497375,63.994875 C44.221,63.994875 43.997375,63.77125 43.997375,63.494875 L43.997375,3.024125 C43.997375,2.747875 44.221,2.52425 44.497375,2.52425 C44.77375,2.52425 44.99725,2.747875 44.99725,3.024125 L44.99725,63.494875 C44.99725,63.77125 44.773625,63.994875 44.497375,63.994875 Z" id="Shape"></path>
                    <path d="M49.4965,3.524125 C49.22025,3.524125 48.996625,3.3005 48.996625,3.024125 C48.996625,1.921875 48.10025,1.0245 46.996875,1.0245 C45.893625,1.0245 44.99725,1.921875 44.99725,3.024125 C44.99725,3.3005 44.77375,3.524125 44.497375,3.524125 C44.221,3.524125 43.997375,3.3005 43.997375,3.024125 C43.997375,1.370125 45.343,0.024625 46.996875,0.024625 C48.650875,0.024625 49.996375,1.370125 49.996375,3.024125 C49.996375,3.3005 49.772875,3.524125 49.4965,3.524125 Z" id="Shape"></path>
                    <path d="M51.996125,30.000375 C50.342125,30.000375 48.996625,28.654875 48.996625,27.00075 C48.996625,26.7245 49.22025,26.50075 49.4965,26.50075 C49.772875,26.50075 49.996375,26.724375 49.996375,27.00075 C49.996375,28.103125 50.892875,29.0005 51.996125,29.0005 C53.099375,29.0005 53.99575,28.103125 53.99575,27.00075 C53.99575,26.7245 54.219375,26.50075 54.49575,26.50075 C54.772,26.50075 54.995625,26.724375 54.995625,27.00075 C54.995625,28.654875 53.650125,30.000375 51.996125,30.000375 Z" id="Shape"></path>
                    <path d="M54.49575,27.50075 C54.219375,27.50075 53.99575,27.277125 53.99575,27.00075 L53.99575,16.5025 C53.99575,16.22625 54.219375,16.0025 54.49575,16.0025 C54.772,16.0025 54.995625,16.226125 54.995625,16.5025 L54.995625,27.00075 C54.995625,27.277125 54.772,27.50075 54.49575,27.50075 Z" id="Shape"></path>
                    <path d="M49.4965,27.50075 C49.22025,27.50075 48.996625,27.277125 48.996625,27.00075 L48.996625,3.024125 C48.996625,2.747875 49.22025,2.52425 49.4965,2.52425 C49.772875,2.52425 49.996375,2.747875 49.996375,3.024125 L49.996375,27.00075 C49.996375,27.277125 49.772875,27.50075 49.4965,27.50075 Z" id="Shape"></path>
                    <path d="M39.498,31.000125 L5.5035,31.000125 C5.22725,31.000125 5.003625,30.776625 5.003625,30.50025 L5.003625,28.500625 C5.003625,28.22425 5.22725,28.000625 5.5035,28.000625 L39.498,28.000625 C39.774375,28.000625 39.998,28.22425 39.998,28.500625 L39.998,30.50025 C39.998,30.776625 39.774375,31.000125 39.498,31.000125 Z M6.0035,30.000375 L38.998125,30.000375 L38.998125,29.0005 L6.0035,29.0005 L6.0035,30.000375 Z" id="Shape"></path>
                    <path d="M21.501,35.999375 L5.5035,35.999375 C5.22725,35.999375 5.003625,35.77575 5.003625,35.4995 C5.003625,35.223125 5.22725,34.9995 5.5035,34.9995 L21.500875,34.9995 C21.77725,34.9995 22.0007501,35.223125 22.0007501,35.4995 C22.0007501,35.77575 21.777375,35.999375 21.501,35.999375 Z" id="Shape"></path>
                    <path d="M39.498,35.999375 L36.4985,35.999375 C36.22225,35.999375 35.998625,35.77575 35.998625,35.4995 C35.998625,35.223125 36.22225,34.9995 36.4985,34.9995 L39.498,34.9995 C39.774375,34.9995 39.998,35.223125 39.998,35.4995 C39.998,35.77575 39.774375,35.999375 39.498,35.999375 Z" id="Shape"></path>
                    <path d="M24.5005,39.99875 L5.5035,39.99875 C5.22725,39.99875 5.003625,39.775125 5.003625,39.49875 C5.003625,39.222375 5.22725,38.998875 5.5035,38.998875 L24.5005,38.998875 C24.776875,38.998875 25.000375,39.222375 25.000375,39.49875 C25.000375,39.775125 24.776875,39.99875 24.5005,39.99875 Z" id="Shape"></path>
                    <path d="M39.498,39.99875 L36.4985,39.99875 C36.22225,39.99875 35.998625,39.775125 35.998625,39.49875 C35.998625,39.222375 36.22225,38.998875 36.4985,38.998875 L39.498,38.998875 C39.774375,38.998875 39.998,39.222375 39.998,39.49875 C39.998,39.775125 39.774375,39.99875 39.498,39.99875 Z" id="Shape"></path>
                    <path d="M20.501125,43.998 L5.5035,43.998 C5.22725,43.998 5.003625,43.774375 5.003625,43.498125 C5.003625,43.22175 5.22725,42.99825 5.5035,42.99825 L20.501,42.99825 C20.777375,42.99825 21.0010001,43.22175 21.0010001,43.498125 C21.0010001,43.774375 20.7775,43.998 20.501125,43.998 Z" id="Shape"></path>
                    <path d="M39.498,43.998 L36.4985,43.998 C36.22225,43.998 35.998625,43.774375 35.998625,43.498125 C35.998625,43.22175 36.22225,42.99825 36.4985,42.99825 L39.498,42.99825 C39.774375,42.99825 39.998,43.22175 39.998,43.498125 C39.998,43.774375 39.774375,43.998 39.498,43.998 Z" id="Shape"></path>
                    <path d="M39.498,49.997125 L5.5035,49.997125 C5.22725,49.997125 5.003625,49.7735 5.003625,49.49725 C5.003625,49.220875 5.22725,48.997375 5.5035,48.997375 L39.498,48.997375 C39.774375,48.997375 39.998,49.220875 39.998,49.49725 C39.998,49.7735 39.774375,49.997125 39.498,49.997125 Z" id="Shape"></path>
                    <path d="M13.502375,55.996125 L5.503625,55.996125 C5.227375,55.996125 5.00375,55.772625 5.00375,55.49625 C5.00375,55.22 5.227375,54.996375 5.503625,54.996375 L13.502375,54.996375 C13.778625,54.996375 14.00225,55.22 14.00225,55.49625 C14.00225,55.772625 13.778625,55.996125 13.502375,55.996125 Z" id="Shape"></path>
                    <path d="M34.498875,55.996125 L31.499375,55.996125 C31.223,55.996125 30.9995,55.772625 30.9995,55.49625 C30.9995,55.22 31.223,54.996375 31.499375,54.996375 L34.498875,54.996375 C34.77525,54.996375 34.99875,55.22 34.99875,55.49625 C34.99875,55.772625 34.77525,55.996125 34.498875,55.996125 Z" id="Shape"></path>
                    <path d="M39.498,56.996 L37.498375,56.996 C37.222125,56.996 36.9985,56.772375 36.9985,56.496125 C36.9985,56.21975 37.222125,55.996125 37.498375,55.996125 L38.564625,55.996125 L37.0825,53.77375 C36.981,53.6205 36.971125,53.42325 37.057125,53.26025 C37.145,53.098125 37.313875,52.996625 37.498375,52.996625 L39.498,52.996625 C39.774375,52.996625 39.998,53.22025 39.998,53.496625 C39.998,53.772875 39.774375,53.9965 39.498,53.9965 L38.431875,53.9965 L39.914,56.21875 C40.0155,56.372125 40.025375,56.569375 39.939375,56.732375 C39.8515,56.894375 39.682625,56.996 39.498,56.996 Z" id="Shape"></path>
                    <path d="M38.49825,53.9965 C38.221875,53.9965 37.99825,53.772875 37.99825,53.496625 L37.99825,52.996625 C37.99825,52.720375 38.221875,52.49675 38.49825,52.49675 C38.774625,52.49675 38.998125,52.720375 38.998125,52.996625 L38.998125,53.496625 C38.998125,53.772875 38.774625,53.9965 38.49825,53.9965 Z" id="Shape"></path>
                    <path d="M38.49825,57.495875 C38.221875,57.495875 37.99825,57.272375 37.99825,56.996 L37.99825,56.496125 C37.99825,56.21975 38.221875,55.996125 38.49825,55.996125 C38.774625,55.996125 38.998125,56.21975 38.998125,56.496125 L38.998125,56.996 C38.998125,57.272375 38.774625,57.495875 38.49825,57.495875 Z" id="Shape"></path>
                    <path d="M8.503,30.000375 C8.22675,30.000375 8.003125,29.77675 8.003125,29.500375 L8.003125,28.500625 C8.003125,28.22425 8.22675,28.000625 8.503,28.000625 C8.779375,28.000625 9.003,28.22425 9.003,28.500625 L9.003,29.500375 C9.003,29.77675 8.779375,30.000375 8.503,30.000375 Z" id="Shape"></path>
                    <path d="M12.5025,30.000375 C12.226125,30.000375 12.002625,29.77675 12.002625,29.500375 L12.002625,28.500625 C12.002625,28.22425 12.226125,28.000625 12.5025,28.000625 C12.778875,28.000625 13.002375,28.22425 13.002375,28.500625 L13.002375,29.500375 C13.002375,29.77675 12.77875,30.000375 12.5025,30.000375 Z" id="Shape"></path>
                    <path d="M16.501875,30.000375 C16.2255,30.000375 16.001875,29.77675 16.001875,29.500375 L16.001875,28.500625 C16.001875,28.22425 16.2255,28.000625 16.501875,28.000625 C16.778125,28.000625 17.00175,28.22425 17.00175,28.500625 L17.00175,29.500375 C17.00175,29.77675 16.778125,30.000375 16.501875,30.000375 Z" id="Shape"></path>
                    <path d="M20.501125,30.000375 C20.224875,30.000375 20.00125,29.77675 20.00125,29.500375 L20.00125,28.500625 C20.00125,28.22425 20.224875,28.000625 20.501125,28.000625 C20.7775,28.000625 21.001125,28.22425 21.001125,28.500625 L21.001125,29.500375 C21.001125,29.77675 20.7775,30.000375 20.501125,30.000375 Z" id="Shape"></path>
                    <path d="M24.5005,30.000375 C24.224125,30.000375 24.000625,29.77675 24.000625,29.500375 L24.000625,28.500625 C24.000625,28.22425 24.224125,28.000625 24.5005,28.000625 C24.776875,28.000625 25.000375,28.22425 25.000375,28.500625 L25.000375,29.500375 C25.000375,29.77675 24.776875,30.000375 24.5005,30.000375 Z" id="Shape"></path>
                    <path d="M28.499875,30.000375 C28.2235,30.000375 28,29.77675 28,29.500375 L28,28.500625 C28,28.22425 28.2235,28.000625 28.499875,28.000625 C28.776125,28.000625 28.99975,28.22425 28.99975,28.500625 L28.99975,29.500375 C28.99975,29.77675 28.776125,30.000375 28.499875,30.000375 Z" id="Shape"></path>
                    <path d="M32.49925,30.000375 C32.222875,30.000375 31.99925,29.77675 31.99925,29.500375 L31.99925,28.500625 C31.99925,28.22425 32.222875,28.000625 32.49925,28.000625 C32.7755,28.000625 32.999125,28.22425 32.999125,28.500625 L32.999125,29.500375 C32.999125,29.77675 32.7755,30.000375 32.49925,30.000375 Z" id="Shape"></path>
                    <path d="M36.4985,30.000375 C36.22225,30.000375 35.998625,29.77675 35.998625,29.500375 L35.998625,28.500625 C35.998625,28.22425 36.22225,28.000625 36.4985,28.000625 C36.774875,28.000625 36.9985,28.22425 36.9985,28.500625 L36.9985,29.500375 C36.9985,29.77675 36.774875,30.000375 36.4985,30.000375 Z" id="Shape"></path>
                    <path d="M51.996125,30.000375 L44.497375,30.000375 C44.221,30.000375 43.997375,29.77675 43.997375,29.500375 C43.997375,29.224125 44.221,29.0005 44.497375,29.0005 L51.996125,29.0005 C52.2725,29.0005 52.496,29.224125 52.496,29.500375 C52.496,29.77675 52.2725,30.000375 51.996125,30.000375 Z" id="Shape"></path>
                    <path d="M54.49575,17.0025 L49.4965,17.0025 C49.22025,17.0025 48.996625,16.778875 48.996625,16.5025 C48.996625,16.226125 49.22025,16.0025 49.4965,16.0025 L54.49575,16.0025 C54.772,16.0025 54.995625,16.226125 54.995625,16.5025 C54.995625,16.778875 54.772,17.0025 54.49575,17.0025 Z" id="Shape"></path>
                </g>
                <g id="Group" transform="translate(5.000000, 9.000000)">
                    <path d="M26.526587,4.94117647 C26.6241816,4.94117647 26.707833,4.96258802 26.7775435,5.00541176 C26.847254,5.04823551 26.8821087,5.07678424 26.8821087,5.09105882 L26.7461739,5.29982353 C26.6694924,5.41758882 26.5544718,5.6013713 26.4011087,5.85117647 C25.9828457,6.55776824 25.604672,7.40174019 25.2665761,8.38311765 C24.9284802,9.3644951 24.6566133,10.2834075 24.4509674,11.1398824 C24.2453214,11.9963572 24.1111307,12.6315666 24.0483913,13.0455294 C24.0414203,13.0812159 24.0379348,13.1311761 24.0379348,13.1954118 C24.0379348,13.2596474 24.0414203,13.311392 24.0483913,13.3506471 C24.0553624,13.3899022 24.0588478,13.4166666 24.0588478,13.4309412 C24.0518768,13.4309412 24.0379349,13.4327255 24.0170217,13.4362941 C23.9961086,13.4398628 23.9682248,13.4416471 23.9333696,13.4416471 C23.710296,13.4416471 23.4872258,13.3738438 23.2641522,13.2382353 C23.236268,13.2168234 23.2223261,13.1525888 23.2223261,13.0455294 C23.2223261,12.7814497 23.2937783,12.3228856 23.4366848,11.6698235 C23.5795913,11.0167614 23.7294666,10.3940422 23.8863152,9.80164706 C24.0431638,9.20925194 24.1459853,8.82384403 24.1947826,8.64541176 C24.1459853,8.71678467 24.0396784,8.86131264 23.8758587,9.079 C23.712039,9.29668736 23.5743629,9.44835251 23.4628261,9.534 C23.4140287,9.56968645 23.3478048,9.60358807 23.2641522,9.63570588 C23.1804996,9.66782369 23.0968482,9.68388235 23.0131957,9.68388235 C22.8458905,9.68388235 22.7238989,9.61607911 22.6472174,9.48047059 C22.5635648,9.33772478 22.5217391,9.12360927 22.5217391,8.83811765 C22.5217391,8.05301568 22.85983,6.93961505 23.5360217,5.49788235 C23.6336164,5.29090093 23.80789,5.18741176 24.0588478,5.18741176 C24.1843267,5.18741176 24.3115465,5.20882332 24.4405109,5.25164706 C24.5694753,5.2944708 24.6339565,5.31945094 24.6339565,5.32658824 C24.6269855,5.33372553 24.6025872,5.36941144 24.5607609,5.43364706 C24.5189346,5.49788267 24.4561961,5.60850902 24.3725435,5.76552941 C24.1773541,6.17235498 23.999595,6.62021324 23.8392609,7.10911765 C23.6789267,7.59802205 23.5586779,8.02090018 23.4785109,8.37776471 C23.3983438,8.73462924 23.3756882,8.90592164 23.4105435,8.89164706 C23.4732829,8.87023519 23.584818,8.74176588 23.7451522,8.50623529 C23.9054863,8.2707047 24.1634113,7.87102243 24.5189348,7.30717647 C24.979024,6.57917283 25.3327995,6.03496259 25.5802717,5.67452941 C25.827744,5.31409624 26.0211877,5.10176503 26.1606087,5.03752941 C26.3070007,4.9732938 26.4289923,4.94117647 26.526587,4.94117647 Z M10.6395109,0.0107058824 C10.8312147,0.0178431729 10.9514635,0.0214117647 11.0002609,0.0214117647 C11.0002609,0.0428236365 10.9688916,0.119548359 10.9061522,0.251588235 C10.8434127,0.383628111 10.7440768,0.513881711 10.6081413,0.642352941 C10.4722058,0.770824172 10.3031604,0.852901782 10.101,0.888588235 C9.48057661,0.988510304 8.49418792,1.07415651 7.14180435,1.14552941 C6.74445453,1.17407857 6.39242182,1.20262731 6.08569565,1.23117647 C5.77896948,1.25972563 5.57681208,1.27756859 5.47921739,1.28470588 C5.47921739,1.25615672 5.23000612,1.81820992 4.73157609,2.97088235 C4.23314606,4.12355478 3.72252435,5.39218916 3.19969565,6.77682353 C2.67686695,8.1614579 2.26209574,9.44615094 1.95536957,10.6309412 C1.83686173,11.0805905 1.7776087,11.5088215 1.7776087,11.9156471 C1.7776087,12.0512556 1.7828369,12.1636662 1.79329348,12.2528824 C1.80375005,12.3420985 1.81246373,12.3974117 1.81943478,12.4188235 C1.81943478,12.4402354 1.73752618,12.4313139 1.57370652,12.3920588 C1.40988686,12.3528037 1.26349702,12.2439617 1.13453261,12.0655294 C1.0055682,11.8870971 0.941086957,11.6016098 0.941086957,11.2090588 C0.941086957,11.1019995 0.944572429,11.0199219 0.951543478,10.9628235 C1.00731187,10.2348199 1.30357703,9.16245806 1.84034783,7.74570588 C2.37711863,6.3289537 2.96442072,4.90865418 3.60227174,3.48476471 C4.19159403,2.16920702 4.50866938,1.47662362 4.55350534,1.4069981 L4.54073944,1.39830697 C4.47973648,1.39632581 4.26625214,1.41912532 3.90028261,1.46670588 C3.4611065,1.52380421 2.96268395,1.63443055 2.405,1.79858824 C1.84731605,1.96274592 1.31752425,2.20184157 0.815608696,2.51588235 C0.439172031,2.74427565 0.250956522,3.08329187 0.250956522,3.53294118 C0.250956522,3.68996157 0.271869356,3.84341102 0.313695652,3.99329412 C0.355521948,4.14317722 0.399090353,4.26629364 0.444402174,4.36264706 C0.489713995,4.45900048 0.51934051,4.52145084 0.533282609,4.55 C0.533282609,4.56427458 0.484485995,4.50003993 0.386891304,4.35729412 C0.289296613,4.21454831 0.200417067,4.0450402 0.12025,3.84876471 C0.0400829325,3.65248921 -1.42108547e-14,3.4437266 -1.42108547e-14,3.22247059 C-1.42108547e-14,2.77282128 0.181244564,2.36243323 0.54373913,1.99129412 C1.30358351,1.21332944 2.59669377,0.686962158 4.4231087,0.412176471 C6.24952362,0.137390783 8.06894021,-2.39808173e-14 9.88141304,-2.39808173e-14 C10.1951103,-2.39808173e-14 10.447807,0.00356859176 10.6395109,0.0107058824 Z M17.7646232,1.64705882 C17.8482758,1.64705882 17.9179853,1.65062742 17.9737537,1.65776471 C18.0295221,1.664902 18.0643768,1.66847059 18.0783189,1.66847059 C18.0713478,1.67560788 18.050435,1.68988225 18.0155798,1.71129412 C17.9807245,1.73270599 17.9423843,1.76482332 17.900558,1.80764706 C17.8587317,1.8504708 17.823877,1.90399968 17.7959928,1.96823529 C17.6077745,2.39647273 17.3916752,2.96387882 17.1476885,3.67047059 C16.9037017,4.37706236 16.6893452,5.02119317 16.5046124,5.60288235 C16.3437723,6.10933767 16.2344568,6.46023817 16.1766636,6.6555913 L16.16,6.71 L16.1654566,6.69896211 C16.1977642,6.62531778 16.300359,6.4419589 16.4732428,6.14888235 C16.6858598,5.78844918 16.9298429,5.45835444 17.2051993,5.15858824 C17.4805558,4.85882203 17.7506799,4.70894118 18.0155798,4.70894118 C18.1201455,4.70894118 18.2247097,4.7410585 18.3292754,4.80529412 C18.4338412,4.87666702 18.4861232,5.00870492 18.4861232,5.20141176 C18.4861232,5.38698132 18.4373266,5.59931253 18.3397319,5.83841176 C18.2421372,6.077511 18.1062038,6.30768517 17.9319276,6.52894118 C17.8134197,6.67882428 17.6862,6.81621506 17.5502645,6.94111765 C17.4143291,7.06602023 17.3010512,7.16237221 17.2104276,7.23017647 C17.1198039,7.29798073 17.0605509,7.33901954 17.0326667,7.35329412 C17.0326667,7.46035348 17.0535796,7.65484173 17.0954058,7.93676471 C17.1372321,8.21868768 17.2348254,8.56484109 17.3881885,8.97523529 C17.5415515,9.3856295 17.7715927,9.76568453 18.0783189,10.1154118 C18.231682,10.2867067 18.3728436,10.415176 18.501808,10.5008235 C18.6307724,10.586471 18.7353366,10.6399999 18.8155037,10.6614118 C18.8904765,10.6814363 18.9303912,10.688976 18.9352488,10.6840311 C18.9204202,10.6984385 18.8911275,10.7266463 18.8468732,10.7684706 C18.8015614,10.8112943 18.7353374,10.8541174 18.6481993,10.8969412 C18.5610612,10.9397649 18.4652107,10.9611765 18.360645,10.9611765 C18.1515135,10.9611765 17.9528416,10.8683931 17.7646232,10.6828235 C17.3603024,10.2974098 17.0483526,9.8816689 16.8287645,9.43558824 C16.6091765,8.98950757 16.4610439,8.58447241 16.3843624,8.22047059 C16.3076808,7.85646877 16.2693406,7.56027565 16.2693406,7.33188235 C16.2693406,7.28905861 16.2710834,7.25872558 16.2745689,7.24088235 C16.2780544,7.22303913 16.2797972,7.21054906 16.2797972,7.20341176 C16.2937393,7.14631344 16.4157308,7.02498132 16.6457754,6.83941176 C17.0012989,6.55392014 17.2592239,6.3112559 17.419558,6.11141176 C17.6286895,5.84733201 17.783793,5.62072644 17.8848732,5.43158824 C17.9859535,5.24245003 18.0120945,5.11576503 17.9632972,5.05152941 C17.942384,5.02298025 17.9110148,5.00870588 17.8691885,5.00870588 C17.7646227,5.00870588 17.6234611,5.08364631 17.4456993,5.23352941 C17.2679376,5.38341251 17.0814648,5.60109661 16.8862754,5.88658824 C16.5098387,6.4432969 16.1996317,7.00178151 15.955645,7.56205882 C15.7116583,8.12233613 15.5304137,8.60052743 15.4119058,8.99664706 C15.293398,9.39276669 15.234145,9.61223508 15.234145,9.65505882 C15.234145,9.6693334 15.1731492,9.6693334 15.0511558,9.65505882 C14.9291625,9.64078424 14.8123992,9.59439255 14.7008624,9.51588235 L14.6385413,9.46235288 L14.6385413,9.46235288 L14.7272065,9.36311765 C14.4518501,9.68072708 14.2618918,9.85380378 14.1573261,9.88235294 C14.0806445,9.90376481 13.9359974,9.88592185 13.7233804,9.82882353 C13.5107634,9.7717252 13.3765727,9.70749055 13.3208043,9.63611765 C13.2789781,9.55760745 13.2580652,9.45768688 13.2580652,9.33635294 C13.2580652,9.0651359 13.3417166,8.69578665 13.5090217,8.22829412 C13.6763269,7.76080158 13.8488578,7.33257057 14.0266196,6.94358824 C14.2043813,6.5546059 14.3211446,6.30302018 14.376913,6.18882353 C14.3350867,6.23164727 14.2357508,6.33513643 14.0789022,6.49929412 C13.9220536,6.6634518 13.7338381,6.8793516 13.51425,7.147 C13.2946619,7.4146484 13.0837909,7.69121426 12.8816304,7.97670588 C12.6934121,8.24792292 12.5173957,8.52448879 12.3535761,8.80641176 C12.1897564,9.08833474 12.0590512,9.3256461 11.9614565,9.51835294 C11.8638618,9.71105979 11.8011233,9.83239191 11.7732391,9.88235294 C11.7662681,9.88235294 11.7505835,9.88413724 11.7261848,9.88770588 C11.7017861,9.89127453 11.6721596,9.89305882 11.6373043,9.89305882 C11.5048544,9.89305882 11.3776347,9.87164727 11.2556413,9.82882353 C11.1376418,9.78740175 11.0473624,9.70925423 10.9848006,9.59437874 C10.7922895,9.90740713 10.5723817,10.1043449 10.3267198,10.1862353 C10.2709514,10.2005099 10.2221548,10.2076471 10.1803285,10.2076471 C10.0687917,10.2076471 9.94157192,10.1808826 9.79866541,10.1273529 C9.6557589,10.0738233 9.56339388,10.0256473 9.52156759,9.98282353 C9.43791499,9.86148959 9.39608933,9.65451127 9.39608933,9.36188235 C9.39608933,9.2476857 9.40131753,9.13705936 9.41177411,9.03 C9.42223068,8.92294064 9.43094436,8.8551374 9.43791541,8.82658824 C9.39608912,8.89082385 9.29675315,9.03178323 9.13990454,9.24947059 C8.98305593,9.46715795 8.81923873,9.67770487 8.64844802,9.88111765 C8.47765731,10.0845304 8.35740851,10.1933725 8.28769802,10.2076471 C8.14827703,10.2290589 7.97400341,10.1987259 7.76487193,10.1166471 C7.55574045,10.0345682 7.43026345,9.93286335 7.38843715,9.81152941 C7.36055295,9.76156838 7.34661106,9.64023626 7.34661106,9.44752941 C7.34661106,8.96933094 7.47034533,8.41798351 7.71781759,7.79347059 C7.96528984,7.16895766 8.39226021,6.59263009 8.9987415,6.06447059 C9.11724934,5.96454852 9.25318276,5.91458824 9.40654585,5.91458824 C9.54596683,5.91458824 9.69061394,5.94670556 9.8404915,6.01094118 C9.99036906,6.07517679 10.1141033,6.14119574 10.211698,6.209 C10.3092927,6.27680426 10.3720312,6.32141166 10.3999154,6.34282353 C10.4068865,6.32141166 10.4312848,6.26966708 10.4731111,6.18758824 C10.5149374,6.10550939 10.5707049,6.02343178 10.6404154,5.94135294 C10.7101259,5.8592741 10.7868063,5.80752952 10.8704589,5.78611765 C10.9262273,5.77184307 10.968053,5.76470588 10.9959372,5.76470588 C11.0795897,5.76470588 11.1649838,5.78254884 11.2521219,5.81823529 C11.3392601,5.85392175 11.412455,5.88960766 11.4717089,5.92529412 C11.5309628,5.96098057 11.5675603,5.98596071 11.5815024,6.00023529 C11.5536182,6.03592175 11.4978506,6.11978365 11.414198,6.25182353 C11.3305454,6.38386341 11.2399231,6.53909715 11.1423285,6.71752941 C10.9471391,7.04584478 10.7815791,7.41519403 10.6456437,7.82558824 C10.5097082,8.23598244 10.405144,8.60890028 10.331948,8.94435294 C10.258752,9.2798056 10.232611,9.46180378 10.2535241,9.49035294 C10.2674662,9.5189021 10.3458893,9.46002034 10.4887958,9.31370588 C10.6317024,9.16739143 10.765893,9.0050205 10.8913719,8.82658824 C10.9921929,8.68281017 11.0925481,8.52951214 11.1924384,8.36669285 C11.2146231,8.29213719 11.2395005,8.21363609 11.2660978,8.13194118 C11.4717438,7.50029096 11.7035277,6.91325761 11.9614565,6.37082353 C12.2193853,5.82838944 12.4319992,5.52505914 12.5993043,5.46082353 C12.7456964,5.39658791 12.8816298,5.36447059 13.0071087,5.36447059 C13.1186455,5.36447059 13.2057823,5.38588214 13.2685217,5.42870588 C13.3312612,5.47152963 13.3626304,5.50007836 13.3626304,5.51435294 C13.3208041,5.58572585 13.2336673,5.76058684 13.1012174,6.03894118 C12.9687675,6.31729551 12.832834,6.6241944 12.693413,6.95964706 C12.5679342,7.24513868 12.4581418,7.51813595 12.3640326,7.77864706 C12.2864813,7.99332311 12.2337831,8.14377841 12.2059373,8.23001574 L12.193,8.27 L12.1990174,8.25957919 C12.2263796,8.21016139 12.3284384,8.05877319 12.5051957,7.80541176 C12.7143271,7.50564556 12.9373974,7.22372681 13.174413,6.95964706 C13.8645469,6.18881968 14.3141729,5.77843162 14.5233043,5.72847059 C14.5999859,5.71419601 14.6975791,5.73203897 14.816087,5.782 C14.9345948,5.83196103 15.0409017,5.89262709 15.1350109,5.964 C15.22912,6.03537291 15.2726884,6.09247037 15.2657174,6.13529412 C15.2657174,6.14243141 15.1925225,6.32799818 15.0461304,6.692 C14.558157,7.84824108 14.2584064,8.65831141 14.1468696,9.12223529 C14.238221,9.09729399 14.3614935,9.00834768 14.51669,8.8553941 C14.5848756,8.56730735 14.7383217,8.05782513 14.9779602,7.32652941 C15.3369692,6.23095531 15.7255994,5.09435883 16.1438624,3.91670588 C16.5621253,2.73905294 16.8061084,2.09670642 16.8758189,1.98964706 C17.0222109,1.76125376 17.3184761,1.64705882 17.7646232,1.64705882 Z M33.4496087,9.85023529 C33.5890297,9.85023529 33.6988221,9.89841128 33.7789891,9.99476471 C33.8591562,10.0911181 33.8992391,10.2070974 33.8992391,10.3427059 C33.8992391,10.4783144 33.8608989,10.5960779 33.7842174,10.696 C33.6657096,10.8316085 33.5297761,10.8994118 33.376413,10.8994118 C33.3136736,10.8994118 33.2544206,10.8851374 33.1986522,10.8565882 C33.038318,10.778078 32.9581522,10.6353344 32.9581522,10.4283529 C32.9581522,10.35698 32.9686086,10.2820396 32.9895217,10.2035294 C33.024377,10.1036073 33.08363,10.0197454 33.1672826,9.95194118 C33.2509352,9.88413692 33.345043,9.85023529 33.4496087,9.85023529 Z M6.14579832,2.47058824 C6.22945091,2.47058824 6.3061313,2.47772542 6.3758418,2.492 C6.44555229,2.50627458 6.49086343,2.51698036 6.51177658,2.52411765 C6.49783448,2.55266681 6.46472249,2.61333287 6.41243962,2.70611765 C6.36015675,2.79890242 6.30264646,2.90952877 6.23990702,3.038 C6.04471763,3.4162764 5.8216474,3.96227094 5.57068962,4.676 C5.31973185,5.38972906 5.10014709,6.05348713 4.91192875,6.66729412 C4.72420026,7.27950368 4.60582165,7.67515156 4.55678941,7.85424953 C4.56239524,7.83351897 4.69826421,7.65547823 4.96421136,7.32035294 C5.23608229,6.97776299 5.50969187,6.6726484 5.78504832,6.405 C6.06040477,6.1373516 6.27476132,6.01780378 6.42812441,6.04635294 C6.58148749,6.08203939 6.71742092,6.14805834 6.83592875,6.24441176 C6.95443659,6.34076519 7.04505888,6.44425435 7.10779832,6.55488235 C7.17053776,6.66551036 7.19842154,6.75294086 7.19145049,6.81717647 C7.19145049,6.83858834 7.16182398,6.91531307 7.10257006,7.04735294 C7.04331614,7.17939282 6.99277679,7.29180346 6.95095049,7.38458824 C6.74879006,7.81282567 6.57277371,8.20001788 6.42289615,8.54617647 C6.27301858,8.89233506 6.14928431,9.22956699 6.05168962,9.55788235 C6.20505271,9.49364674 6.40721011,9.33306011 6.65816788,9.07611765 C6.90215461,8.79776331 7.11476843,8.542609 7.29601571,8.31064706 C7.47726299,8.07868511 7.59228358,7.93058856 7.64108093,7.86635294 C7.63410988,7.90203939 7.60971157,7.984117 7.56788528,8.11258824 C7.52605898,8.24105947 7.45286406,8.41948905 7.34829832,8.64788235 C7.24373258,8.87627565 7.10082821,9.12964567 6.91958093,9.408 C6.78015994,9.61498143 6.60937179,9.82017545 6.40721136,10.0235882 C6.20505093,10.227001 6.07608845,10.3322745 6.02032006,10.3394118 C5.97849376,10.3536863 5.90007063,10.339412 5.78504832,10.2965882 C5.67002601,10.2537645 5.56546183,10.1788241 5.47135267,10.0717647 C5.3772435,9.96470535 5.33018962,9.81839308 5.33018962,9.63282353 C5.33018962,9.56858791 5.3336751,9.51862763 5.34064615,9.48294118 C5.38944349,9.06184103 5.49923587,8.6443158 5.67002658,8.23035294 C5.84081729,7.81639009 6.03774648,7.39886485 6.26082006,6.97776471 C6.38629895,6.74223412 6.44555198,6.61376481 6.43858093,6.59235294 C6.42463883,6.5495292 6.36190033,6.56380356 6.25036354,6.63517647 C6.13882675,6.70654938 5.99417964,6.83680298 5.81641788,7.02594118 C5.63865613,7.21507938 5.44869788,7.45952791 5.24653745,7.75929412 C5.03740597,8.05906032 4.84396225,8.40164513 4.66620049,8.78705882 C4.48843874,9.17247252 4.34553437,9.50970444 4.2374831,9.79876471 C4.12943184,10.087825 4.06146513,10.2716075 4.03358093,10.3501176 C3.99175463,10.3429804 3.90287509,10.3251374 3.76693962,10.2965882 C3.63100416,10.2680391 3.50378442,10.2198631 3.38527658,10.1520588 C3.26676874,10.0842546 3.21100118,9.99682406 3.21797223,9.88976471 C3.28071168,9.41870353 3.44801435,8.69784799 3.71988528,7.72717647 C3.9917562,6.75650495 4.28627862,5.80369095 4.60346136,4.86870588 C4.92064411,3.93372082 5.16636991,3.29494289 5.34064615,2.95235294 C5.49400923,2.63117486 5.76239061,2.47058824 6.14579832,2.47058824 Z M28.0186522,4.94117647 C28.1998995,4.94117647 28.3968286,4.98578387 28.6094457,5.075 C28.8220627,5.16421613 28.9562533,5.25164663 29.0120217,5.33729412 C29.0747612,5.4229416 29.1061304,5.57639105 29.1061304,5.79764706 C29.1061304,5.94753016 29.0921885,6.11168538 29.0643043,6.29011765 C29.0364202,6.46854991 29.0085364,6.62021506 28.9806522,6.74511765 C28.952768,6.87002023 28.9353406,6.95031355 28.9283696,6.986 C28.9632248,6.96458813 29.0399052,6.91641214 29.158413,6.84147059 C29.2769209,6.76652904 29.3710286,6.70051009 29.4407391,6.64341176 C29.5313628,6.57917615 29.595844,6.52029439 29.6341848,6.46676471 C29.6725256,6.41323503 29.6951811,6.3793334 29.7021522,6.36505882 C29.7160943,6.3793334 29.7352644,6.41145073 29.759663,6.46141176 C29.7840617,6.5113728 29.7962609,6.56490168 29.7962609,6.622 L29.795,6.633 L29.8858956,6.45747377 C29.9969961,6.24803998 30.1061353,6.06570666 30.2133152,5.91047059 C30.3562217,5.70348916 30.4694996,5.57858845 30.5531522,5.53576471 C30.6298337,5.50007825 30.7169705,5.48223529 30.8145652,5.48223529 C30.9051889,5.48223529 30.9870975,5.50364684 31.0602935,5.54647059 C31.1334895,5.58929433 31.1892571,5.63211743 31.2275978,5.67494118 C31.2659386,5.71776492 31.2885942,5.74631365 31.2955652,5.76058824 C31.26071,5.81768656 31.1805441,5.95507734 31.0550652,6.17276471 C30.9295863,6.39045207 30.7884247,6.65809645 30.6315761,6.97570588 C30.4747275,7.29331531 30.3405368,7.59842991 30.229,7.89105882 C30.1314053,8.14800128 30.0512394,8.41029278 29.9885,8.67794118 C29.9257606,8.94558957 29.8943913,9.14721501 29.8943913,9.28282353 C29.8943913,9.3827456 29.9118187,9.4255687 29.9466739,9.41129412 C30.107008,9.36133308 30.272568,9.19717786 30.4433587,8.91882353 C30.6141494,8.6404692 30.828506,8.23721833 31.0864348,7.70905882 C31.3304215,7.21658577 31.5395499,6.8133349 31.7138261,6.49929412 C31.8881023,6.18525333 32.0728324,5.92117754 32.2680217,5.70705882 C32.3586454,5.60713676 32.4597241,5.55717647 32.5712609,5.55717647 C32.6688556,5.55717647 32.7629633,5.5857252 32.853587,5.64282353 C32.9442106,5.69992185 33.0191483,5.75701932 33.0784022,5.81411765 C33.1376561,5.87121597 33.1742536,5.91047048 33.1881957,5.93188235 C33.1603115,5.98184339 33.097573,6.09782262 32.9999783,6.27982353 C32.9023836,6.46182444 32.7891057,6.69021431 32.6601413,6.965 C32.5311769,7.23978569 32.4109281,7.51635155 32.2993913,7.79470588 C32.1948256,8.06592292 32.1146597,8.3371359 32.0588913,8.60835294 C32.0031229,8.87956998 31.9752391,9.09368549 31.9752391,9.25070588 C31.9752391,9.35776524 31.989181,9.41129412 32.0170652,9.41129412 C32.1913415,9.40415683 32.3847852,9.27925612 32.5974022,9.03658824 C32.8100192,8.79392036 33.0052056,8.52449168 33.1829674,8.22829412 C33.3607291,7.93209656 33.4496087,7.77686282 33.4496087,7.76258824 C33.4496087,7.80541198 33.3938411,7.99811593 33.2823043,8.34070588 C33.1707676,8.68329583 33.022635,9.01160627 32.8379022,9.32564706 C32.6531694,9.63968784 32.4457838,9.82525462 32.2157391,9.88235294 C32.1320865,9.89662752 32.0728335,9.90376471 32.0379783,9.90376471 C31.8288468,9.90376471 31.6127475,9.79313836 31.3896739,9.57188235 C31.2432819,9.42199925 31.170087,9.11510036 31.170087,8.65117647 C31.1282607,8.71541209 31.0411239,8.8403128 30.9086739,9.02588235 C30.776224,9.21145191 30.6333196,9.39523438 30.4799565,9.57723529 C30.3265934,9.7592362 30.2150583,9.86094107 30.1453478,9.88235294 C30.0895794,9.89662752 30.0372973,9.90376471 29.9885,9.90376471 C29.8630211,9.90376471 29.7323159,9.87700027 29.5963804,9.82347059 C29.460445,9.76994091 29.3401962,9.686079 29.2356304,9.57188235 C29.179862,9.50050945 29.1519783,9.33992282 29.1519783,9.09011765 C29.1519783,8.60478189 29.2356296,8.10517904 29.4029348,7.59129412 C29.4812674,7.34496368 29.5764395,7.09978568 29.6884532,6.85575539 C29.6683551,6.88303928 29.6403638,6.9143353 29.6080435,6.94852941 C29.5034777,7.05915742 29.3814862,7.16799946 29.2420652,7.27505882 C29.1026442,7.38211818 28.9945946,7.45705861 28.917913,7.49988235 C28.8412315,7.5427061 28.7924349,7.56768624 28.7715217,7.57482353 C28.7715217,7.63192185 28.6930986,7.8299787 28.53625,8.169 C28.3794014,8.5080213 28.1545884,8.82384167 27.8618043,9.11647059 C27.5690203,9.4090995 27.2169876,9.55541176 26.8056957,9.55541176 C26.4919984,9.55541176 26.2358162,9.45013831 26.0371413,9.23958824 C25.8384664,9.02903816 25.7391304,8.71678638 25.7391304,8.30282353 C25.7391304,8.0244692 25.7914125,7.69259016 25.8959783,7.30717647 C25.9308335,7.16443066 25.9761446,7.0609415 26.031913,6.99670588 C26.0876814,6.93247027 26.1417063,6.89321576 26.1939891,6.87894118 C26.246272,6.8646666 26.272413,6.861098 26.272413,6.86823529 C26.272413,6.81827426 26.3351515,6.63984467 26.4606304,6.33294118 C26.5861093,6.02603768 26.7690966,5.72984456 27.0095978,5.44435294 C27.250099,5.15886132 27.5446214,4.9947061 27.8931739,4.95188235 C27.9210581,4.94474506 27.9628838,4.94117647 28.0186522,4.94117647 Z M9.80389367,6.42847059 C9.66447269,6.42847059 9.52853926,6.49984242 9.39608933,6.64258824 C9.00571056,7.07796296 8.7233873,7.51511545 8.54911106,7.95405882 C8.37483483,8.39300219 8.2772416,8.72131264 8.25632846,8.939 C8.23541531,9.15668736 8.22495889,9.37615576 8.22495889,9.59741176 C8.25981414,9.5688626 8.33126632,9.49392218 8.43931759,9.37258824 C8.54736885,9.2512543 8.65716123,9.10851062 8.76869802,8.94435294 C8.9638874,8.66599861 9.1660448,8.35374683 9.37517628,8.00758824 C9.58430776,7.66142964 9.76032412,7.35809934 9.90323063,7.09758824 C10.0461371,6.83707713 10.1350167,6.67113761 10.1698719,6.59976471 C10.1629009,6.59262742 10.1437308,6.57478446 10.1123611,6.54623529 C10.0809913,6.51768613 10.0374229,6.49092169 9.98165454,6.46594118 C9.92588615,6.44096066 9.86663312,6.42847059 9.80389367,6.42847059 Z M36.3042391,3.10552941 C36.4157759,3.10552941 36.5203401,3.13229385 36.6179348,3.18582353 C36.7155295,3.23935321 36.7956953,3.29288209 36.8584348,3.34641176 C36.8995519,3.38149314 36.9301895,3.40967695 36.950348,3.43096354 L36.9711522,3.45652941 C36.9327131,3.48139018 36.8118727,3.61311391 36.60225,3.85494118 C36.3547777,4.1404328 36.0741972,4.51513494 35.7605,4.97905882 C35.4468028,5.44298271 35.1470522,5.98540866 34.8612391,6.60635294 C34.6172524,7.12737515 34.4168377,7.60556645 34.2599891,8.04094118 C34.1031405,8.4763159 33.9916054,8.81711642 33.9253804,9.06335294 C33.8591555,9.30958947 33.8190725,9.46482321 33.8051304,9.52905882 C33.7911883,9.52905882 33.7650473,9.52192164 33.7267065,9.50764706 C33.6883658,9.49337248 33.6447973,9.46660804 33.596,9.42735294 C33.5472027,9.38809784 33.5088625,9.33278467 33.4809783,9.26141176 C33.4670362,9.21145073 33.4931772,9.008041 33.5594022,8.65117647 C33.6256271,8.29431194 33.7284486,7.86251234 33.8678696,7.35576471 C34.0072906,6.84901707 34.1780787,6.34584564 34.3802391,5.84623529 C34.5684575,5.38231141 34.7775858,4.9505118 35.0076304,4.55082353 C35.2376751,4.15113526 35.4555171,3.82460911 35.661163,3.57123529 C35.866809,3.31786148 36.0219125,3.17333351 36.1264783,3.13764706 C36.1892177,3.11623519 36.2484707,3.10552941 36.3042391,3.10552941 Z M26.9102609,7.72470588 C26.8963188,7.76039234 26.8666923,7.84782283 26.8213804,7.987 C26.7760686,8.12617717 26.7325002,8.2831952 26.6906739,8.45805882 C26.6488476,8.63292244 26.6279348,8.78815618 26.6279348,8.92376471 C26.6279348,9.12360884 26.6837023,9.23423519 26.7952391,9.25564706 C26.9834575,9.28419622 27.164702,9.19855002 27.3389783,8.99870588 C27.5132545,8.79886175 27.6631298,8.57225617 27.7886087,8.31888235 C27.9140876,8.06550854 27.9768261,7.92454916 27.9768261,7.896 C27.962884,7.90313729 27.9280293,7.91741166 27.8722609,7.93882353 C27.8164925,7.9602354 27.7450403,7.97807836 27.6579022,7.99235294 C27.5707641,8.00662752 27.48537,8.01019611 27.4017174,8.00305882 C27.1856149,7.98164695 27.0496814,7.94060815 26.993913,7.87994118 C26.9381446,7.81927421 26.9102609,7.76752963 26.9102609,7.72470588 Z M28.436913,5.40152941 C28.3741736,5.40152941 28.2521821,5.4943128 28.0709348,5.67988235 C27.8896875,5.86545191 27.7241276,6.10454756 27.57425,6.39717647 C27.4243724,6.68980538 27.3424638,7.00384146 27.3285217,7.33929412 C27.3215507,7.4320789 27.3529199,7.49988214 27.4226304,7.54270588 C27.4923409,7.58552963 27.5829632,7.60694118 27.6945,7.60694118 C27.7781526,7.60694118 27.8618039,7.5962354 27.9454565,7.57482353 C28.0291091,7.55341166 28.0918476,7.52843152 28.1336739,7.49988235 C28.2312686,7.42137216 28.3149199,7.18049221 28.3846304,6.77723529 C28.4543409,6.37397838 28.4891957,6.0189035 28.4891957,5.712 C28.4891957,5.50501857 28.4717683,5.40152941 28.436913,5.40152941 Z" id="Combined-Shape" fill="url(#linearGradient-1)" fill-rule="nonzero"></path>
                    <path d="M24.5165217,8.64541176 C24.4677244,8.82384403 24.364903,9.20925194 24.2080543,9.80164706 C24.0512057,10.3940422 23.9013304,11.0167614 23.7584239,11.6698235 C23.6155174,12.3228856 23.5440652,12.7814497 23.5440652,13.0455294 C23.5440652,13.1525888 23.5580071,13.2168234 23.5858913,13.2382353 C23.7433746,13.3339709 23.9008562,13.3959127 24.0583385,13.4240615 L24.0588478,13.4309412 C24.0518768,13.4309412 24.0379349,13.4327255 24.0170217,13.4362941 C23.9961086,13.4398628 23.9682248,13.4416471 23.9333696,13.4416471 C23.710296,13.4416471 23.4872258,13.3738438 23.2641522,13.2382353 C23.236268,13.2168234 23.2223261,13.1525888 23.2223261,13.0455294 C23.2223261,12.7814497 23.2937783,12.3228856 23.4366848,11.6698235 C23.5795913,11.0167614 23.7294666,10.3940422 23.8863152,9.80164706 C23.9360771,9.61370339 23.9804009,9.44659389 24.0192868,9.30031817 L24.1024432,9.20168979 L24.1975978,9.079 C24.3614175,8.86131264 24.4677244,8.71678467 24.5165217,8.64541176 Z M4.86247857,1.39830697 L4.87524447,1.4069981 C4.83040851,1.47662362 4.51333316,2.16920702 3.92401087,3.48476471 C3.28615985,4.90865418 2.69885776,6.3289537 2.16208696,7.74570588 C1.62531616,9.16245806 1.329051,10.2348199 1.27328261,10.9628235 C1.26631156,11.0199219 1.26282609,11.1019995 1.26282609,11.2090588 C1.26282609,11.6016098 1.32730733,11.8870971 1.45627174,12.0655294 C1.55944327,12.2082752 1.67376707,12.3064833 1.7992454,12.3601553 L1.80804358,12.3636294 C1.81225179,12.3900255 1.81604884,12.4084235 1.81943478,12.4188235 C1.81943478,12.4402354 1.73752618,12.4313139 1.57370652,12.3920588 C1.40988686,12.3528037 1.26349702,12.2439617 1.13453261,12.0655294 C1.0055682,11.8870971 0.941086957,11.6016098 0.941086957,11.2090588 C0.941086957,11.1019995 0.944572429,11.0199219 0.951543478,10.9628235 C1.00731187,10.2348199 1.30357703,9.16245806 1.84034783,7.74570588 C2.37711863,6.3289537 2.96442072,4.90865418 3.60227174,3.48476471 C4.1558447,2.24901107 4.46919886,1.56294274 4.54234046,1.4265461 C4.71575556,1.40646658 4.82225848,1.39700076 4.86247857,1.39830697 Z M18.1909276,5.00870588 C18.2327539,5.00870588 18.2641231,5.02298025 18.2850363,5.05152941 C18.3338336,5.11576503 18.3076926,5.24245003 18.2066124,5.43158824 C18.1055322,5.62072644 17.9504286,5.84733201 17.7412972,6.11141176 C17.580963,6.3112559 17.3230381,6.55392014 16.9675145,6.83941176 C16.7374699,7.02498132 16.6154784,7.14631344 16.6015363,7.20341176 C16.6015363,7.21054906 16.5997935,7.22303913 16.596308,7.24088235 L16.5934034,7.26288888 C16.5918543,7.28033546 16.5910798,7.30333319 16.5910798,7.33188235 C16.5910798,7.56027565 16.62942,7.85646877 16.7061015,8.22047059 C16.782783,8.58447241 16.9309156,8.98950757 17.1505037,9.43558824 C17.3700917,9.8816689 17.6820415,10.2974098 18.0863624,10.6828235 C18.2256808,10.8201814 18.3707267,10.9067026 18.5215025,10.9423883 C18.4711047,10.9549247 18.4171472,10.9611765 18.360645,10.9611765 C18.1515135,10.9611765 17.9528416,10.8683931 17.7646232,10.6828235 C17.3603024,10.2974098 17.0483526,9.8816689 16.8287645,9.43558824 C16.6091765,8.98950757 16.4610439,8.58447241 16.3843624,8.22047059 C16.330496,7.96477054 16.2955496,7.74253158 16.2795228,7.55375061 C16.3810039,7.32457352 16.4933017,7.093415 16.6169026,6.86256127 L16.6457754,6.83941176 C17.0012989,6.55392014 17.2592239,6.3112559 17.419558,6.11141176 C17.6286895,5.84733201 17.783793,5.62072644 17.8848732,5.43158824 C17.972294,5.26800925 18.0036609,5.15114471 17.9789744,5.08099215 C18.0611596,5.03260384 18.1318787,5.00870588 18.1909276,5.00870588 Z M33.4496087,9.85023529 C33.5108694,9.85023529 33.5664099,9.85953649 33.6162303,9.878139 L33.5537216,9.90744471 L33.4890217,9.95194118 C33.4053691,10.0197454 33.3461161,10.1036073 33.3112609,10.2035294 C33.2903477,10.2820396 33.2798913,10.35698 33.2798913,10.4283529 C33.2798913,10.6353344 33.3600572,10.778078 33.5203913,10.8565882 C33.5291968,10.861096 33.5380893,10.8652479 33.5470685,10.8690439 C33.4935576,10.8890678 33.4363149,10.8994118 33.376413,10.8994118 C33.3136736,10.8994118 33.2544206,10.8851374 33.1986522,10.8565882 C33.038318,10.778078 32.9581522,10.6353344 32.9581522,10.4283529 C32.9581522,10.35698 32.9686086,10.2820396 32.9895217,10.2035294 C33.024377,10.1036073 33.08363,10.0197454 33.1672826,9.95194118 C33.2509352,9.88413692 33.345043,9.85023529 33.4496087,9.85023529 Z M6.14579832,2.47058824 C6.20283418,2.47058824 6.25662883,2.47390614 6.307183,2.48054202 C6.00729564,2.52157535 5.7930773,2.67865336 5.66238528,2.95235294 C5.48810904,3.29494289 5.24238324,3.93372082 4.92520049,4.86870588 C4.60801775,5.80369095 4.31349533,6.75650495 4.04162441,7.72717647 C3.76975348,8.69784799 3.60245081,9.41870353 3.53971136,9.88976471 C3.53274031,9.99682406 3.58850787,10.0842546 3.70701571,10.1520588 C3.82552355,10.2198631 3.95274329,10.2680391 4.08867875,10.2965882 L4.05538802,10.2896465 C4.04648312,10.3141 4.0392141,10.334257 4.03358093,10.3501176 C3.99175463,10.3429804 3.90287509,10.3251374 3.76693962,10.2965882 C3.63100416,10.2680391 3.50378442,10.2198631 3.38527658,10.1520588 C3.26676874,10.0842546 3.21100118,9.99682406 3.21797223,9.88976471 C3.28071168,9.41870353 3.44801435,8.69784799 3.71988528,7.72717647 C3.9917562,6.75650495 4.28627862,5.80369095 4.60346136,4.86870588 C4.92064411,3.93372082 5.16636991,3.29494289 5.34064615,2.95235294 C5.49400923,2.63117486 5.76239061,2.47058824 6.14579832,2.47058824 Z M6.76032006,6.59235294 C6.76729111,6.61376481 6.70803808,6.74223412 6.58255919,6.97776471 C6.35948561,7.39886485 6.16255642,7.81639009 5.99176571,8.23035294 C5.820975,8.6443158 5.71118262,9.06184103 5.66238528,9.48294118 C5.65541423,9.51862763 5.65192875,9.56858791 5.65192875,9.63282353 C5.65192875,9.81839308 5.69898263,9.96470535 5.7930918,10.0717647 C5.88720096,10.1788241 5.99176514,10.2537645 6.10678745,10.2965882 C6.06696449,10.3230828 6.03937137,10.3369736 6.02032006,10.3394118 C5.97849376,10.3536863 5.90007063,10.339412 5.78504832,10.2965882 C5.67002601,10.2537645 5.56546183,10.1788241 5.47135267,10.0717647 C5.3772435,9.96470535 5.33018962,9.81839308 5.33018962,9.63282353 C5.33018962,9.56858791 5.3336751,9.51862763 5.34064615,9.48294118 C5.38944349,9.06184103 5.49923587,8.6443158 5.67002658,8.23035294 C5.84081729,7.81639009 6.03774648,7.39886485 6.26082006,6.97776471 C6.29246641,6.91836281 6.31990032,6.86577078 6.34312183,6.81998855 C6.42999942,6.73905476 6.50673692,6.67700431 6.57210267,6.63517647 C6.68363946,6.56380356 6.74637796,6.5495292 6.76032006,6.59235294 Z M9.40654585,5.91458824 C9.46518084,5.91458824 9.52474019,5.92026887 9.5852242,5.93163021 C9.48871628,5.95218209 9.40061485,5.99690424 9.32048098,6.06447059 C8.71399969,6.59263009 8.28702932,7.16895766 8.03955707,7.79347059 C7.79208481,8.41798351 7.66835054,8.96933094 7.66835054,9.44752941 C7.66835054,9.64023626 7.68229243,9.76156838 7.71017663,9.81152941 C7.75200293,9.93286335 7.87747993,10.0345682 8.08661141,10.1166471 C8.17307924,10.1505835 8.25358809,10.175674 8.32813835,10.1919185 C8.31289347,10.2000478 8.29956364,10.2052173 8.28769802,10.2076471 C8.14827703,10.2290589 7.97400341,10.1987259 7.76487193,10.1166471 C7.55574045,10.0345682 7.43026345,9.93286335 7.38843715,9.81152941 C7.36055295,9.76156838 7.34661106,9.64023626 7.34661106,9.44752941 C7.34661106,8.96933094 7.47034533,8.41798351 7.71781759,7.79347059 C7.96528984,7.16895766 8.39226021,6.59263009 8.9987415,6.06447059 C9.11724934,5.96454852 9.25318276,5.91458824 9.40654585,5.91458824 Z M9.75965489,8.82658824 C9.75268384,8.8551374 9.74397016,8.92294064 9.73351359,9.03 C9.72305701,9.13705936 9.7178288,9.2476857 9.7178288,9.36188235 C9.7178288,9.65451127 9.75965447,9.86148959 9.84330707,9.98282353 C9.88513336,10.0256473 9.97749838,10.0738233 10.1204049,10.1273529 C10.1931709,10.1546095 10.2618699,10.1749267 10.3265022,10.1883045 C10.2709514,10.2005099 10.2221548,10.2076471 10.1803285,10.2076471 C10.0687917,10.2076471 9.94157192,10.1808826 9.79866541,10.1273529 C9.6557589,10.0738233 9.56339388,10.0256473 9.52156759,9.98282353 C9.43791499,9.86148959 9.39608933,9.65451127 9.39608933,9.36188235 L9.39661106,9.33570588 L9.46164402,9.24947059 C9.5923512,9.06806445 9.68311903,8.93994164 9.73394926,8.86509971 L9.75965489,8.82658824 Z M30.8145652,5.48223529 C30.8661396,5.48223529 30.9148914,5.48917009 30.960821,5.50303981 L30.955058,5.50602606 L30.8748913,5.53576471 C30.7912387,5.57858845 30.6779609,5.70348916 30.5350543,5.91047059 C30.3921478,6.11745202 30.245758,6.37260633 30.0958804,6.67594118 C29.9460029,6.97927603 29.8222686,7.28439062 29.7246739,7.59129412 C29.5573687,8.10517904 29.4737174,8.60478189 29.4737174,9.09011765 C29.4737174,9.33992282 29.5016012,9.50050945 29.5573696,9.57188235 C29.6619353,9.686079 29.7821841,9.76994091 29.9181196,9.82347059 L30.0279878,9.86124116 L30.0279878,9.86124116 L30.128,9.885 L30.0643098,9.89841179 C30.0381685,9.90198041 30.0128987,9.90376471 29.9885,9.90376471 C29.8630211,9.90376471 29.7323159,9.87700027 29.5963804,9.82347059 C29.460445,9.76994091 29.3401962,9.686079 29.2356304,9.57188235 C29.179862,9.50050945 29.1519783,9.33992282 29.1519783,9.09011765 C29.1519783,8.60478189 29.2356296,8.10517904 29.4029348,7.59129412 C29.5005295,7.28439062 29.6242637,6.97927603 29.7741413,6.67594118 C29.9240189,6.37260633 30.0704087,6.11745202 30.2133152,5.91047059 C30.3562217,5.70348916 30.4694996,5.57858845 30.5531522,5.53576471 C30.6298337,5.50007825 30.7169705,5.48223529 30.8145652,5.48223529 Z M31.4918261,8.65117647 C31.4918261,9.11510036 31.565021,9.42199925 31.711413,9.57188235 C31.8822257,9.74130323 32.0489491,9.84585838 32.2115861,9.88554929 C32.1320865,9.89662752 32.0728335,9.90376471 32.0379783,9.90376471 C31.8288468,9.90376471 31.6127475,9.79313836 31.3896739,9.57188235 C31.293504,9.473419 31.2289232,9.30719349 31.1959309,9.07320322 L31.230413,9.02588235 C31.362863,8.8403128 31.4499998,8.71541209 31.4918261,8.65117647 Z M12.9886087,5.35294118 C13.048034,5.35294118 13.1005331,5.3590191 13.1461064,5.37117504 C13.0681383,5.38581363 12.9870849,5.41219805 12.9025435,5.44929412 C12.7352383,5.51352973 12.5226245,5.81686003 12.2646957,6.35929412 C12.0827381,6.74195781 11.913792,7.14681716 11.757855,7.57387837 C11.7289372,7.68987259 11.6906556,7.83055908 11.6442415,7.99688235 L11.5501183,8.30766658 L11.4697051,8.43819979 C11.3304808,8.90225309 11.2608696,9.23704679 11.2608696,9.44258824 C11.2608696,9.48541198 11.2678405,9.52823508 11.2817826,9.57105882 C11.3445221,9.69239276 11.4368871,9.77447037 11.5588804,9.81729412 C11.6235593,9.83999857 11.6897073,9.85668417 11.757325,9.867351 L11.7547391,9.87082353 C11.7477681,9.87082353 11.7320835,9.87260783 11.7076848,9.87617647 C11.6832861,9.87974512 11.6536596,9.88152941 11.6188043,9.88152941 C11.4863544,9.88152941 11.3591347,9.86011786 11.2371413,9.81729412 C11.1151479,9.77447037 11.0227829,9.69239276 10.9600435,9.57105882 C10.9461014,9.52823508 10.9391304,9.48541198 10.9391304,9.44258824 C10.9391304,9.36073117 10.950171,9.25837422 10.9722524,9.13551691 C10.9202716,9.19758145 10.8660614,9.25685568 10.8105353,9.31370588 C10.6676288,9.46002034 10.5892057,9.5189021 10.5752636,9.49035294 C10.5602177,9.4698134 10.5695272,9.36984861 10.6031921,9.19045652 L10.558,9.238 L10.6287972,9.16203909 C10.7201948,9.05735955 10.8077193,8.94554308 10.8913719,8.82658824 C10.9776729,8.70351672 11.0636326,8.57346988 11.1492516,8.43644688 C11.1781675,8.3375658 11.2112791,8.23196636 11.2475978,8.12041176 C11.4532438,7.48876155 11.6850277,6.9017282 11.9429565,6.35929412 C12.2008853,5.81686003 12.4134992,5.51352973 12.5808043,5.44929412 C12.7271964,5.3850585 12.8631298,5.35294118 12.9886087,5.35294118 Z M14.6801522,6.17729412 C14.6243838,6.29149077 14.5076205,6.54307649 14.3298587,6.93205882 C14.1520969,7.32104116 13.9795661,7.74927217 13.8122609,8.21676471 C13.6449557,8.68425724 13.5613043,9.05360649 13.5613043,9.32482353 C13.5613043,9.44615747 13.5822172,9.54607804 13.6240435,9.62458824 C13.6798119,9.69596114 13.8140026,9.76019579 14.0266196,9.81729412 C14.069143,9.82871378 14.1089476,9.83856323 14.1460334,9.84684247 L14.182041,9.85334286 C14.1663018,9.861428 14.1518968,9.86725488 14.1388261,9.87082353 C14.0621445,9.8922354 13.9174974,9.87439244 13.7048804,9.81729412 C13.4922634,9.76019579 13.3580727,9.69596114 13.3023043,9.62458824 C13.2604781,9.54607804 13.2395652,9.44615747 13.2395652,9.32482353 C13.2395652,9.05360649 13.3232166,8.68425724 13.4905217,8.21676471 C13.6578269,7.74927217 13.8303578,7.32104116 14.0081196,6.93205882 L14.0327659,6.87786368 C14.1627377,6.72554002 14.2791956,6.59550764 14.3821413,6.48776471 C14.5389899,6.32360702 14.6383259,6.22011786 14.6801522,6.17729412 Z M24.0588478,5.18741176 C24.1164825,5.18741176 24.1744844,5.19192902 24.232854,5.20096358 C24.0596749,5.23555281 23.9348172,5.33445923 23.8577609,5.49788235 C23.1815691,6.93961505 22.8434783,8.05301568 22.8434783,8.83811765 C22.8434783,9.12360927 22.8853039,9.33772478 22.9689565,9.48047059 C23.0077081,9.54900132 23.0580312,9.60021555 23.1199263,9.63411353 L23.183,9.661 C23.1247319,9.67674517 23.068964,9.68388235 23.0131957,9.68388235 C22.8458905,9.68388235 22.7238989,9.61607911 22.6472174,9.48047059 C22.5635648,9.33772478 22.5217391,9.12360927 22.5217391,8.83811765 C22.5217391,8.05301568 22.85983,6.93961505 23.5360217,5.49788235 C23.6336164,5.29090093 23.80789,5.18741176 24.0588478,5.18741176 Z M17.7646232,1.64705882 C17.8255037,1.64705882 17.8789991,1.64894897 17.9251101,1.65272929 C17.5680156,1.67761197 17.3255257,1.78999846 17.197558,1.98964706 C17.1278475,2.09670642 16.8838645,2.73905294 16.4656015,3.91670588 C16.0473385,5.09435883 15.6587084,6.23095531 15.2996993,7.32652941 C14.9406903,8.42210352 14.7751303,9.01984264 14.8030145,9.11976471 C14.8378698,9.30533426 14.9110647,9.43737216 15.0226015,9.51588235 C15.0921553,9.56484096 15.1637416,9.6013096 15.2373612,9.62528861 C15.2354139,9.63874205 15.234145,9.64879193 15.234145,9.65505882 C15.234145,9.6693334 15.1731492,9.6693334 15.0511558,9.65505882 C14.9291625,9.64078424 14.8123992,9.59439255 14.7008624,9.51588235 C14.5893256,9.43737216 14.5161307,9.30533426 14.4812754,9.11976471 C14.4533912,9.01984264 14.6189512,8.42210352 14.9779602,7.32652941 C15.3369692,6.23095531 15.7255994,5.09435883 16.1438624,3.91670588 C16.5621253,2.73905294 16.8061084,2.09670642 16.8758189,1.98964706 C17.0222109,1.76125376 17.3184761,1.64705882 17.7646232,1.64705882 Z M10.1256332,6.42847059 C10.1883726,6.42847059 10.2476256,6.44096066 10.303394,6.46594118 C10.3591624,6.49092169 10.4027308,6.51768613 10.4341005,6.54623529 C10.4654703,6.57478446 10.4846404,6.59262742 10.4916114,6.59976471 C10.4567562,6.67113761 10.3678766,6.83707713 10.2249701,7.09758824 C10.0820636,7.35809934 9.90604724,7.66142964 9.69691576,8.00758824 C9.48778428,8.35374683 9.28562688,8.66599861 9.0904375,8.94435294 C8.97890071,9.10851062 8.86910833,9.2512543 8.76105707,9.37258824 C8.6530058,9.49392218 8.58155362,9.5688626 8.54669837,9.59741176 L8.55454072,9.26686764 L8.55454072,9.26686764 L8.55635373,9.23364398 C8.62641894,9.14601219 8.69720008,9.04958223 8.76869802,8.94435294 C8.9638874,8.66599861 9.1660448,8.35374683 9.37517628,8.00758824 C9.58430776,7.66142964 9.76032412,7.35809934 9.90323063,7.09758824 C10.0461371,6.83707713 10.1350167,6.67113761 10.1698719,6.59976471 C10.1629009,6.59262742 10.1437308,6.57478446 10.1123611,6.54623529 C10.0809913,6.51768613 10.0374229,6.49092169 9.98165454,6.46594118 L9.96700299,6.4598671 C10.0193685,6.43893605 10.0722451,6.42847059 10.1256332,6.42847059 Z M7.64108093,7.86635294 C7.63410988,7.90203939 7.60971157,7.984117 7.56788528,8.11258824 C7.52656984,8.23949035 7.45464735,8.41513792 7.3521157,8.6395361 C7.23795327,8.77794017 7.11364306,8.92354375 6.97990702,9.07611765 C6.72894924,9.33306011 6.52679184,9.49364674 6.37342875,9.55788235 C6.40291356,9.45869342 6.4347842,9.35869064 6.4690408,9.25787374 C6.52835557,9.2057558 6.59154193,9.14433246 6.65816788,9.07611765 C6.90215461,8.79776331 7.11476843,8.542609 7.29601571,8.31064706 C7.47726299,8.07868511 7.59228358,7.93058856 7.64108093,7.86635294 Z M28.0186522,4.94117647 C28.0749013,4.94117647 28.1326609,4.94547278 28.191931,4.95406545 C27.8537056,5.00182967 27.566661,5.16500693 27.331337,5.44435294 C27.0908358,5.72984456 26.9078485,6.02603768 26.7823696,6.33294118 C26.6568907,6.63984467 26.5941522,6.81827426 26.5941522,6.86823529 C26.5941522,6.861098 26.5680111,6.8646666 26.5157283,6.87894118 C26.4634454,6.89321576 26.4094206,6.93247027 26.3536522,6.99670588 C26.2978838,7.0609415 26.2525726,7.16443066 26.2177174,7.30717647 C26.1131517,7.69259016 26.0608696,8.0244692 26.0608696,8.30282353 C26.0608696,8.71678638 26.1602055,9.02903816 26.3588804,9.23958824 C26.5248243,9.41545091 26.7308881,9.51786753 26.9770763,9.54683994 C26.9215021,9.55245149 26.8641984,9.55541176 26.8056957,9.55541176 C26.4919984,9.55541176 26.2358162,9.45013831 26.0371413,9.23958824 C25.8384664,9.02903816 25.7391304,8.71678638 25.7391304,8.30282353 C25.7391304,8.0244692 25.7914125,7.69259016 25.8959783,7.30717647 C25.9308335,7.16443066 25.9761446,7.0609415 26.031913,6.99670588 C26.0876814,6.93247027 26.1417063,6.89321576 26.1939891,6.87894118 C26.246272,6.8646666 26.272413,6.861098 26.272413,6.86823529 C26.272413,6.81827426 26.3351515,6.63984467 26.4606304,6.33294118 C26.5861093,6.02603768 26.7690966,5.72984456 27.0095978,5.44435294 C27.250099,5.15886132 27.5446214,4.9947061 27.8931739,4.95188235 C27.9210581,4.94474506 27.9628838,4.94117647 28.0186522,4.94117647 Z M36.3042391,3.10552941 C36.3635824,3.10552941 36.4209519,3.11310585 36.4763481,3.12825885 L36.4482174,3.13764706 C36.3436517,3.17333351 36.1885481,3.31786148 35.9829022,3.57123529 C35.7772562,3.82460911 35.5594142,4.15113526 35.3293696,4.55082353 C35.0993249,4.9505118 34.8901966,5.38231141 34.7019783,5.84623529 C34.4998178,6.34584564 34.3290297,6.84901707 34.1896087,7.35576471 C34.0501877,7.86251234 33.9473663,8.29431194 33.8811413,8.65117647 C33.8149163,9.008041 33.7887753,9.21145073 33.8027174,9.26141176 C33.8158296,9.29497402 33.8312539,9.32498509 33.8489904,9.35144514 C33.8271105,9.43598046 33.8124842,9.49517769 33.8051304,9.52905882 C33.7911883,9.52905882 33.7650473,9.52192164 33.7267065,9.50764706 C33.6883658,9.49337248 33.6447973,9.46660804 33.596,9.42735294 C33.5472027,9.38809784 33.5088625,9.33278467 33.4809783,9.26141176 C33.4670362,9.21145073 33.4931772,9.008041 33.5594022,8.65117647 C33.6256271,8.29431194 33.7284486,7.86251234 33.8678696,7.35576471 C34.0072906,6.84901707 34.1780787,6.34584564 34.3802391,5.84623529 C34.5684575,5.38231141 34.7775858,4.9505118 35.0076304,4.55082353 C35.2376751,4.15113526 35.4555171,3.82460911 35.661163,3.57123529 C35.866809,3.31786148 36.0219125,3.17333351 36.1264783,3.13764706 C36.1892177,3.11623519 36.2484707,3.10552941 36.3042391,3.10552941 Z M32.5712609,5.55717647 C32.6304406,5.55717647 32.6883382,5.56767385 32.7449543,5.5886688 C32.68977,5.61440499 32.6382678,5.6535749 32.5897609,5.70705882 C32.3945715,5.92117754 32.2098415,6.18525333 32.0355652,6.49929412 C31.861289,6.8133349 31.6521606,7.21658577 31.4081739,7.70905882 C31.1502451,8.23721833 30.9358885,8.6404692 30.7650978,8.91882353 C30.5943071,9.19717786 30.4287472,9.36133308 30.268413,9.41129412 C30.2335578,9.4255687 30.2161304,9.3827456 30.2161304,9.28282353 C30.2161304,9.26392976 30.2167394,9.24375449 30.2179572,9.2222977 C30.2921711,9.14424134 30.3672454,9.04287274 30.4433587,8.91882353 C30.6141494,8.6404692 30.828506,8.23721833 31.0864348,7.70905882 C31.3304215,7.21658577 31.5395499,6.8133349 31.7138261,6.49929412 C31.8881023,6.18525333 32.0728324,5.92117754 32.2680217,5.70705882 C32.3586454,5.60713676 32.4597241,5.55717647 32.5712609,5.55717647 Z M33.4496087,7.76258824 C33.4496087,7.80541198 33.3938411,7.99811593 33.2823043,8.34070588 C33.2289996,8.50443361 33.1673364,8.6648999 33.0973143,8.82210584 L33.0753359,8.84956955 L32.9191413,9.03658824 C32.7065243,9.27925612 32.5130806,9.40415683 32.3388043,9.41129412 C32.3220738,9.41129412 32.3103625,9.39202372 32.3036704,9.35348258 L32.2983548,9.30868637 C32.3934242,9.2463242 32.4931064,9.15562498 32.5974022,9.03658824 C32.8100192,8.79392036 33.0052056,8.52449168 33.1829674,8.22829412 C33.3607291,7.93209656 33.4496087,7.77686282 33.4496087,7.76258824 Z M28.2985652,7.896 C28.2985652,7.92454916 28.2358267,8.06550854 28.1103478,8.31888235 C27.9848689,8.57225617 27.8349936,8.79886175 27.6607174,8.99870588 C27.4864412,9.19855002 27.3051966,9.28419622 27.1169783,9.25564706 C27.0895367,9.25037906 27.0654709,9.23971076 27.0447809,9.22364212 C27.1453622,9.18383893 27.2432221,9.10851035 27.3389783,8.99870588 C27.5132545,8.79886175 27.6631298,8.57225617 27.7886087,8.31888235 C27.8597134,8.17530386 27.9106715,8.06782289 27.9414832,7.99643867 L27.9796413,7.99235294 C28.0667794,7.97807836 28.1382316,7.9602354 28.194,7.93882353 C28.2497684,7.91741166 28.2846231,7.90313729 28.2985652,7.896 Z M26.526587,4.94117647 C26.584679,4.94117647 26.6378309,4.94876276 26.686043,4.96393548 C26.6241814,4.98077068 26.5563852,5.00504243 26.4823478,5.03752941 C26.3429268,5.10176503 26.1494831,5.31409624 25.9020109,5.67452941 C25.6545386,6.03496259 25.3007632,6.57917283 24.8406739,7.30717647 C24.4851504,7.87102243 24.2272254,8.2707047 24.0668913,8.50623529 C23.9065572,8.74176588 23.7950221,8.87023519 23.7322826,8.89164706 C23.7017843,8.90413732 23.7153176,8.77455285 23.7728832,8.50289022 L23.7847391,8.44717647 L23.8098521,8.41021669 C23.9714925,8.16821908 24.2078517,7.80054168 24.5189348,7.30717647 C24.979024,6.57917283 25.3327995,6.03496259 25.5802717,5.67452941 C25.827744,5.31409624 26.0211877,5.10176503 26.1606087,5.03752941 C26.3070007,4.9732938 26.4289923,4.94117647 26.526587,4.94117647 Z M14.7417177,5.74874617 L14.7221915,5.76042004 C14.4840391,5.89151184 14.0691955,6.28740846 13.4776522,6.94811765 C13.2406365,7.2121974 13.0175663,7.49411615 12.8084348,7.79388235 C12.6064265,8.08343827 12.5019835,8.23980466 12.4951031,8.26298576 L12.4961304,8.25994118 L12.5091764,8.21848633 C12.5314531,8.14949646 12.5696352,8.0394071 12.6237233,7.88821681 L12.6672717,7.76711765 C12.7186353,7.62493393 12.7746707,7.47903078 12.8353784,7.32940688 C12.9392614,7.19667406 13.0460902,7.07048084 13.155913,6.94811765 C13.8460469,6.17729026 14.2956729,5.76690221 14.5048043,5.71694118 C14.5690815,5.70497572 14.6480521,5.71557728 14.7417177,5.74874617 Z M6.42812441,6.04635294 C6.46792578,6.05561443 6.50655322,6.06691888 6.54400679,6.08026635 C6.42106204,6.13280501 6.27535502,6.24115114 6.10678745,6.405 C5.831431,6.6726484 5.55782142,6.97776299 5.28595049,7.32035294 C5.02000334,7.65547823 4.88413437,7.83351897 4.87833975,7.85448017 L4.8793913,7.85058824 L4.89744101,7.78652983 C4.9342903,7.65660168 4.99381411,7.45586708 5.07601312,7.18432383 L4.96421136,7.32035294 C5.23608229,6.97776299 5.50969187,6.6726484 5.78504832,6.405 C6.06040477,6.1373516 6.27476132,6.01780378 6.42812441,6.04635294 Z M28.7586522,5.40152941 C28.7935074,5.40152941 28.8109348,5.50501857 28.8109348,5.712 C28.8109348,6.0189035 28.7760801,6.37397838 28.7063696,6.77723529 C28.6366591,7.18049221 28.5530077,7.42137216 28.455413,7.49988235 C28.4135867,7.52843152 28.3508482,7.55341166 28.2671957,7.57482353 C28.1835431,7.5962354 28.0998917,7.60694118 28.0162391,7.60694118 C27.9610836,7.60694118 27.9110424,7.60170529 27.8661152,7.59123343 L27.9454565,7.57482353 C28.0291091,7.55341166 28.0918476,7.52843152 28.1336739,7.49988235 C28.2312686,7.42137216 28.3149199,7.18049221 28.3846304,6.77723529 C28.4543409,6.37397838 28.4891957,6.0189035 28.4891957,5.712 C28.4891957,5.66451075 28.4882783,5.62246949 28.4864434,5.58587617 C28.6168548,5.46327791 28.70747,5.40152941 28.7586522,5.40152941 Z M29.7021522,6.36505882 C29.7160943,6.3793334 29.7352644,6.41145073 29.759663,6.46141176 C29.7834808,6.51018325 29.795673,6.5623547 29.7962401,6.61792762 L29.7624783,6.64341176 C29.6927678,6.70051009 29.59866,6.76652904 29.4801522,6.84147059 C29.3616443,6.91641214 29.2849639,6.96458813 29.2501087,6.986 C29.2570797,6.95031355 29.2745071,6.87002023 29.3023913,6.74511765 C29.3573256,6.70843482 29.4026703,6.67459312 29.4407391,6.64341176 C29.5313628,6.57917615 29.595844,6.52029439 29.6341848,6.46676471 C29.6725256,6.41323503 29.6951811,6.3793334 29.7021522,6.36505882 Z M18.0155798,4.70894118 C18.066539,4.70894118 18.1174979,4.71656911 18.1684568,4.73182508 C17.958096,4.77892933 17.7441451,4.92212669 17.5269385,5.15858824 C17.5168063,5.16961859 17.5067166,5.18069002 17.4966694,5.1918025 L17.4456993,5.23352941 C17.2679376,5.38341251 17.0814648,5.60109661 16.8862754,5.88658824 C16.7822216,6.04047248 16.6832281,6.19449242 16.5892949,6.34864841 C16.6387495,6.19541475 16.6987216,6.00551591 16.7703893,5.77932473 L16.8194928,5.62585126 C16.9403807,5.46267048 17.0689493,5.30691653 17.2051993,5.15858824 C17.4805558,4.85882203 17.7506799,4.70894118 18.0155798,4.70894118 Z M10.9959372,5.76470588 C11.0552311,5.76470588 11.1154001,5.77367045 11.1764449,5.79159977 C11.0984782,5.81447513 11.0272754,5.86467847 10.9621549,5.94135294 C10.8924444,6.02343178 10.8366768,6.10550939 10.7948505,6.18758824 C10.7530242,6.26966708 10.7286259,6.32141166 10.7216549,6.34282353 C10.6937707,6.32141166 10.6310322,6.27680426 10.5334375,6.209 C10.5171717,6.19769929 10.5001798,6.18644817 10.4824618,6.17524664 L10.4731111,6.18758824 C10.5149374,6.10550939 10.5707049,6.02343178 10.6404154,5.94135294 C10.7101259,5.8592741 10.7868063,5.80752952 10.8704589,5.78611765 C10.9262273,5.77184307 10.968053,5.76470588 10.9959372,5.76470588 Z M10.1532704,0.00101051702 L9.42595282,0.0084116926 C7.87070321,0.0420584871 6.31034634,0.176645881 4.74484783,0.412176471 C2.9184329,0.686962158 1.62532264,1.21332944 0.865478261,1.99129412 C0.548295516,2.31604084 0.369882303,2.67083753 0.33023498,3.05569245 L0.321,3.221 L0.327778172,3.08053351 C0.276563644,3.21628454 0.250956522,3.36708692 0.250956522,3.53294118 C0.250956522,3.68996157 0.271869356,3.84341102 0.313695652,3.99329412 C0.355521948,4.14317722 0.399090353,4.26629364 0.444402174,4.36264706 C0.489713995,4.45900048 0.51934051,4.52145084 0.533282609,4.55 C0.533282609,4.56427458 0.484485995,4.50003993 0.386891304,4.35729412 C0.289296613,4.21454831 0.200417067,4.0450402 0.12025,3.84876471 C0.0400829325,3.65248921 -9.76996262e-15,3.4437266 -9.76996262e-15,3.22247059 C-9.76996262e-15,2.77282128 0.181244564,2.36243323 0.54373913,1.99129412 C1.30358351,1.21332944 2.59669377,0.686962158 4.4231087,0.412176471 C6.24952362,0.137390783 8.06894021,-1.74971149e-13 9.88141304,-1.74971149e-13 C9.9777899,-1.74971149e-13 10.0684089,0.000336837973 10.1532704,0.00101051702 Z" id="Combined-Shape" fill-opacity="0.31" fill="#000000"></path>
                </g>
            </g>
        </g>
    </g>
</svg>
