<?xml version="1.0" encoding="UTF-8"?><svg version="1.1" width="64px" height="64px" viewBox="0 0 64.0 64.0"
  xmlns="http://www.w3.org/2000/svg" xmlns:xlink="http://www.w3.org/1999/xlink">
  <defs>
    <clipPath id="i0">
      <path
        d="M51.9999141,0 C52.5496002,0 52.9997754,0.450177253 52.9997754,1 L52.9997754,38.0000357 L0,38.0000357 L0,1 C0,0.450177253 0.450175117,0 0.999986327,0 Z">
      </path>
    </clipPath>
    <clipPath id="i1">
      <path
        d="M1.99997265,0 C1.45028646,0 0.999986327,0.450177253 0.999986327,1 L0.999986327,38.0000357 L0,38.0000357 L0,1 C0,0.450177253 0.450175117,0 0.999986327,0 Z">
      </path>
    </clipPath>
    <clipPath id="i2">
      <path
        d="M0.999986327,0 C1.54967252,0 1.99997265,0.450177253 1.99997265,1 L1.99997265,38.0000357 L0.999986327,38.0000357 L0.999986327,1 C0.999986327,0.450177253 0.549811209,0 0,0 L0.999986327,0 Z">
      </path>
    </clipPath>
    <clipPath id="i3">
      <path
        d="M0.504806199,0 C0.781211971,0 1.00473686,0.223650959 1.00473686,0.500058042 C1.00473686,0.776465125 0.781336985,1.00011608 0.504931213,1.00011608 C0.229025497,1.00011608 0,0.776465125 0,0.500058042 C0,0.223650959 0.218774356,0 0.495055114,0 Z">
      </path>
    </clipPath>
    <clipPath id="i4">
      <path
        d="M25.9998945,0 L25.9998945,1 L37,1 L37,0 L63.0000137,0 L63.0000137,1.99998214 C63.0000137,3.11036102 62.1102896,3.99996428 60.999916,3.99996428 L2.00009767,3.99996428 C0.890224107,3.99996428 0,3.11036102 0,1.99998214 L0,0 L25.9998945,0 Z">
      </path>
    </clipPath>
    <clipPath id="i5">
      <path
        d="M1.99997265,0 L1.99997265,1.99998214 C1.99997265,3.11036102 2.89007175,3.99996428 4.00007032,3.99996428 L2.00009767,3.99996428 C0.890224107,3.99996428 0,3.11036102 0,1.99998214 L0,0 L1.99997265,0 Z">
      </path>
    </clipPath>
    <clipPath id="i6">
      <path
        d="M4.00007032,0 L4.00007032,1.99998214 C4.00007032,3.11036102 3.10934616,3.99996428 1.99997265,3.99996428 L0,3.99996428 C1.1093735,3.99996428 1.99997265,3.11036102 1.99997265,1.99998214 L1.99997265,0 L4.00007032,0 Z">
      </path>
    </clipPath>
    <clipPath id="i7">
      <path d="M48.999205,0 L48.999205,30.9998482 L0,30.9998482 L0,0 L48.999205,0 Z"></path>
    </clipPath>
    <clipPath id="i8">
      <path d="M14.5186163,0 L6.21194156,30.9999732 L0,30.9999732 L8.30667477,0 L14.5186163,0 Z"></path>
    </clipPath>
    <clipPath id="i9">
      <path d="M10.3779054,0 L2.07123059,30.9999732 L0,30.9999732 L8.30654975,0 L10.3779054,0 Z"></path>
    </clipPath>
    <clipPath id="i10">
      <path d="M10.9999746,0 L10.9999746,1 L0,1 L0,0 L10.9999746,0 Z"></path>
    </clipPath>
    <clipPath id="i11">
      <path
        d="M52.4998447,0 C53.3269368,0 53.9998869,0.672828096 53.9998869,1.50004911 L53.9998869,35.5001205 C53.9998869,35.7764026 53.7764868,36.0000536 53.5000811,36.0000536 C53.2236753,36.0000536 53.0000254,35.7764026 53.0000254,35.5001205 L53.0000254,1.50004911 C53.0000254,1.22464215 52.7755004,1 52.5000947,1 L1.50016701,1 C1.22426129,1 1.00011134,1.22464215 1.00011134,1.50004911 L1.00011134,35.5001205 C1.00011134,35.7764026 0.776461442,36.0000536 0.50005567,36.0000536 C0.223649899,36.0000536 0,35.7764026 0,35.5001205 L0,1.50004911 C0,0.672828096 0.672949918,0 1.500042,0 L52.4998447,0 Z">
      </path>
    </clipPath>
    <clipPath id="i12">
      <path
        d="M59.499749,0 C59.7761548,0 59.9998047,0.223525945 59.9998047,0.499933028 C59.9998047,0.776340111 59.7762798,0.999866056 59.499874,0.999866056 L0.50005567,0.999866056 C0.223649899,0.999866056 0,0.776340111 0,0.499933028 C0,0.223525945 0.223649899,0 0.50005567,0 L59.499749,0 Z">
      </path>
    </clipPath>
    <clipPath id="i13">
      <path
        d="M26.4999502,0 C26.776356,0 27,0.223650959 27,0.500058042 L27,1 L36.9998691,1 L36.9998691,0.500058042 C36.9998691,0.223650959 37.223519,0 37.4999248,0 L63.4999443,0 C63.7762251,0 63.999875,0.223650959 63.999875,0.500058042 L63.999875,2.50004018 C63.999875,2.77644727 63.7763501,2.99997321 63.5000693,2.99997321 C63.2236636,2.99997321 63.0000137,2.77644727 63.0000137,2.50004018 L63.0000137,1 L38.0001055,1 L38.0001055,1.50004911 C38.0001055,1.7764562 37.7764556,1.99998214 37.5000498,1.99998214 L26.5000752,1.99998214 C26.2237944,1.99998214 26.0000195,1.7764562 26.0000195,1.50004911 L26.0000195,1 L1.00011134,1 L1.00011134,2.50004018 C1.00011134,2.77644727 0.776461442,2.99997321 0.50005567,2.99997321 C0.223649899,2.99997321 0,2.77644727 0,2.50004018 L0,0.500058042 C0,0.223650959 0.223649899,0 0.50005567,0 L26.4999502,0 Z">
      </path>
    </clipPath>
    <clipPath id="i14">
      <path
        d="M49.4998857,0 C49.7762915,0 49.9999415,0.223650959 49.9999415,0.500058042 L49.9999415,31.5000313 C49.9999415,31.7764383 49.7762915,32.0000893 49.5000107,32.0000893 L0.50005567,32.0000893 C0.223649899,32.0000893 0,31.7764383 0,31.5000313 L0,0.500058042 C0,0.223775974 0.223649899,0 0.50005567,0 L49.4998857,0 Z M48.9999551,1.00011608 L1.00011134,1.00011608 L1.00011134,31.0000982 L48.9999551,31.0000982 L48.9999551,1.00011608 Z">
      </path>
    </clipPath>
    <clipPath id="i15">
      <path
        d="M0.50005567,0 C0.776461442,0 1.00011134,0.223650959 1.00011134,0.500058042 C1.00011134,1.32715404 1.67293624,2.00010716 2.50015334,2.00010716 C2.7764341,2.00010716 3.00008399,2.2236331 3.00008399,2.50004018 C3.00008399,2.77644727 2.7764341,2.99997321 2.50002832,2.99997321 C1.12162487,2.99997321 0,1.87896809 0,0.500058042 C0,0.223650959 0.223649899,0 0.50005567,0 Z">
      </path>
    </clipPath>
    <clipPath id="i16">
      <path
        d="M2.50002832,0 C2.77630908,0 2.99995898,0.223650959 2.99995898,0.500058042 C2.99995898,1.87909311 1.87883417,2.99997321 0.499930656,2.99997321 C0.223649899,2.99997321 0,2.77644727 0,2.50004018 C0,2.2236331 0.223649899,2.00010716 0.499930656,2.00010716 C1.34077427,2.00010716 1.99997265,1.34090564 1.99997265,0.500058042 C1.99997265,0.223650959 2.22362255,0 2.50002832,0 Z">
      </path>
    </clipPath>
    <clipPath id="i17">
      <path
        d="M2.50002832,0 C2.77630908,0 2.99995898,0.223650959 2.99995898,0.499933028 C2.99995898,0.776340111 2.7764341,1 2.50002832,1 L0.50005567,1 C0.223649899,1 0,0.776340111 0,0.499933028 C0,0.223650959 0.223649899,0 0.50005567,0 L2.50002832,0 Z">
      </path>
    </clipPath>
    <clipPath id="i18">
      <path
        d="M2.50002832,0 C2.7764341,0 3.00008399,0.223650959 3.00008399,0.499933028 C3.00008399,0.776340111 2.7764341,1 2.50002832,1 L0.50005567,1 C0.223649899,1 0,0.776340111 0,0.499933028 C0,0.223650959 0.223649899,0 0.50005567,0 L2.50002832,0 Z">
      </path>
    </clipPath>
    <clipPath id="i19">
      <path
        d="M2.50002832,0 C2.7764341,0 3.00008399,0.223650959 3.00008399,0.499933028 C3.00008399,0.776340111 2.7764341,1 2.50002832,1 L0.50005567,1 C0.223774912,1 0,0.776340111 0,0.499933028 C0,0.223650959 0.223649899,0 0.50005567,0 L2.50002832,0 Z">
      </path>
    </clipPath>
    <clipPath id="i20">
      <path
        d="M2.50002832,0 C2.77630908,0 3.00008399,0.223650959 3.00008399,0.499933028 C3.00008399,0.776340111 2.7764341,1 2.50002832,1 L0.50005567,1 C0.223774912,1 0,0.776340111 0,0.499933028 C0,0.223650959 0.223649899,0 0.50005567,0 L2.50002832,0 Z">
      </path>
    </clipPath>
    <clipPath id="i21">
      <path
        d="M2.50002832,0 C2.77630908,0 2.99995898,0.223650959 2.99995898,0.499933028 C2.99995898,0.776340111 2.77630908,1 2.50002832,1 L0.50005567,1 C0.223649899,1 0,0.776340111 0,0.499933028 C0,0.223650959 0.223649899,0 0.50005567,0 L2.50002832,0 Z">
      </path>
    </clipPath>
    <clipPath id="i22">
      <path
        d="M2.50002832,0 C2.7764341,0 3.00008399,0.223650959 3.00008399,0.499933028 C2.99995898,0.776340111 2.7764341,1 2.50002832,1 L0.50005567,1 C0.223649899,1 0,0.776340111 0,0.499933028 C0,0.223650959 0.223649899,0 0.50005567,0 L2.50002832,0 Z">
      </path>
    </clipPath>
    <clipPath id="i23">
      <path
        d="M2.50002832,0 C2.7764341,0 3.00008399,0.223650959 3.00008399,0.499933028 C3.00008399,0.776340111 2.7764341,1 2.50002832,1 L0.50005567,1 C0.223649899,1 0,0.776340111 0,0.499933028 C0,0.223650959 0.223649899,0 0.50005567,0 L2.50002832,0 Z">
      </path>
    </clipPath>
    <clipPath id="i24">
      <path
        d="M2.49990331,0 C2.77630908,0 2.99995898,0.223650959 2.99995898,0.499933028 C2.99995898,0.776340111 2.77630908,1 2.49990331,1 L0.499930656,1 C0.223524885,1 0,0.776340111 0,0.499933028 C0,0.223650959 0.223524885,0 0.499930656,0 L2.49990331,0 Z">
      </path>
    </clipPath>
    <clipPath id="i25">
      <path
        d="M2.49990331,0 C2.77630908,0 2.99995898,0.223650959 2.99995898,0.499933028 C2.99995898,0.776340111 2.77630908,1 2.49990331,1 L0.499930656,1 C0.223649899,1 0,0.776340111 0,0.499933028 C0,0.223650959 0.223649899,0 0.499930656,0 L2.49990331,0 Z">
      </path>
    </clipPath>
    <clipPath id="i26">
      <path
        d="M2.50002832,0 C2.77630908,0 2.99995898,0.223650959 2.99995898,0.499933028 C2.99995898,0.776340111 2.77630908,1 2.50002832,1 L0.50005567,1 C0.223649899,1 0,0.776340111 0,0.499933028 C0,0.223650959 0.223649899,0 0.50005567,0 L2.50002832,0 Z">
      </path>
    </clipPath>
    <clipPath id="i27">
      <path
        d="M2.49990331,0 C2.77630908,0 2.99983397,0.223650959 2.99983397,0.499933028 C2.99983397,0.776340111 2.77630908,1 2.49990331,1 L0.499930656,1 C0.223524885,1 0,0.776340111 0,0.499933028 C0,0.223650959 0.223524885,0 0.499930656,0 L2.49990331,0 Z">
      </path>
    </clipPath>
    <clipPath id="i28">
      <path
        d="M0.593691492,0 C0.921578196,0 1.18738298,0.270711546 1.18738298,0.604651161 L1.18738298,25.3953487 C1.18747273,25.5557402 1.12495213,25.7095888 1.01359392,25.8230027 C0.902235701,25.9364167 0.751175765,26 0.593691492,26 C0.436207219,26 0.285147283,25.9364167 0.173789068,25.8230027 C0.062430852,25.7095888 -8.97461782e-05,25.5557402 0,25.3953487 L0,0.604651161 C0,0.270711546 0.265804788,0 0.593691492,0 Z">
      </path>
    </clipPath>
    <clipPath id="i29">
      <path
        d="M1.01718181,0.178439225 L2.2045646,1.37074689 C2.37430567,1.54124347 2.42507459,1.79761487 2.33320445,2.02034864 C2.24133431,2.24308241 2.02491115,2.38833001 1.78482478,2.38838187 C1.62733875,2.38856068 1.47627757,2.32569716 1.36508496,2.21370842 L0.177702174,1.02140075 C0.0254713033,0.871282693 -0.0348198008,0.650676837 0.0197802196,0.443562468 C0.0743802399,0.236448099 0.23547144,0.074688745 0.441730314,0.0198622615 C0.647989188,-0.034964222 0.867683822,0.02557695 1.01718181,0.178439225 Z">
      </path>
    </clipPath>
    <clipPath id="i30">
      <path
        d="M2.19692003,0.174590246 C2.42726212,0.405887727 2.428951,0.780368661 2.20070457,1.01375153 L1.01332178,2.2060592 C0.902129174,2.31804794 0.751067994,2.38091146 0.593581962,2.38073265 C0.353495597,2.3806808 0.137072433,2.23543319 0.0452022942,2.01269942 C-0.0466678443,1.78996565 0.00410107598,1.53359425 0.173842145,1.36309768 L1.36122494,0.170790006 C1.59364381,-0.058403116 1.96657793,-0.0567072351 2.19692003,0.174590246 Z">
      </path>
    </clipPath>
    <clipPath id="i31">
      <path
        d="M1.00956418,0.170790006 L2.19694697,1.36309768 C2.36668804,1.53359425 2.41745696,1.78996565 2.32558683,2.01269942 C2.23371669,2.23543319 2.01729352,2.3806808 1.77720716,2.38073265 C1.61972113,2.38091146 1.46865995,2.31804794 1.35746734,2.2060592 L0.17008455,1.01375153 C-0.0581618794,0.780368661 -0.0564730033,0.405887727 0.173869093,0.174590246 C0.40421119,-0.0567072351 0.777145314,-0.058403116 1.00956418,0.170790006 Z">
      </path>
    </clipPath>
    <clipPath id="i32">
      <path
        d="M2.19692003,0.174590246 C2.42726212,0.405887727 2.428951,0.780368661 2.20070457,1.01375153 L1.01332178,2.2060592 C0.902129174,2.31804794 0.751067994,2.38091146 0.593581962,2.38073265 C0.353495597,2.3806808 0.137072433,2.23543319 0.0452022942,2.01269942 C-0.0466678443,1.78996565 0.00410107598,1.53359425 0.173842145,1.36309768 L1.36122494,0.170790006 C1.59364381,-0.058403116 1.96657793,-0.0567072351 2.19692003,0.174590246 Z">
      </path>
    </clipPath>
    <clipPath id="i33">
      <path
        d="M35.3915695,0 C35.7603662,0 36.059335,0.266907163 36.059335,0.596153835 C36.059335,0.925400507 35.7603662,1.19230767 35.3915695,1.19230767 L0.667765463,1.19230767 C0.298968781,1.19230767 0,0.925400507 0,0.596153835 C0,0.266907163 0.298968781,0 0.667765463,0 L35.3915695,0 Z">
      </path>
    </clipPath>
    <clipPath id="i34">
      <path d="M6.52093142,0 L6.21713679,1.19230767 L0,1.19230767 L0.307533013,0 L6.52093142,0 Z"></path>
    </clipPath>
    <clipPath id="i35">
      <path d="M2.37192019,0 L2.06812556,1.19230767 L0,1.19230767 L0.307533013,0 L2.37192019,0 Z"></path>
    </clipPath>
    <clipPath id="i36">
      <path
        d="M2.19692003,0.174590246 C2.42726212,0.405887727 2.428951,0.780368661 2.20070457,1.01375153 L1.01332178,2.2060592 C0.902129174,2.31804794 0.751067994,2.38091146 0.593581962,2.38073265 C0.353495597,2.3806808 0.137072433,2.23543319 0.0452022942,2.01269942 C-0.0466678443,1.78996565 0.00410107598,1.53359425 0.173842145,1.36309768 L1.36122494,0.170790006 C1.59364381,-0.058403116 1.96657793,-0.0567072351 2.19692003,0.174590246 Z">
      </path>
    </clipPath>
    <clipPath id="i37">
      <path
        d="M1.00956418,0.170790006 L2.19694697,1.36309768 C2.36668804,1.53359425 2.41745696,1.78996565 2.32558683,2.01269942 C2.23371669,2.23543319 2.01729352,2.3806808 1.77720716,2.38073265 C1.61972113,2.38091146 1.46865995,2.31804794 1.35746734,2.2060592 L0.17008455,1.01375153 C-0.0581618794,0.780368661 -0.0564730033,0.405887727 0.173869093,0.174590246 C0.40421119,-0.0567072351 0.777145314,-0.058403116 1.00956418,0.170790006 Z">
      </path>
    </clipPath>
    <clipPath id="i38">
      <path
        d="M2.19692003,0.174590246 C2.42726212,0.405887727 2.428951,0.780368661 2.20070457,1.01375153 L1.01332178,2.2060592 C0.902129174,2.31804794 0.751067994,2.38091146 0.593581962,2.38073265 C0.353495597,2.3806808 0.137072433,2.23543319 0.0452022942,2.01269942 C-0.0466678443,1.78996565 0.00410107598,1.53359425 0.173842145,1.36309768 L1.36122494,0.170790006 C1.59364381,-0.058403116 1.96657793,-0.0567072351 2.19692003,0.174590246 Z">
      </path>
    </clipPath>
    <clipPath id="i39">
      <path
        d="M1.00956418,0.170790006 L2.19694697,1.36309768 C2.36668804,1.53359425 2.41745696,1.78996565 2.32558683,2.01269942 C2.23371669,2.23543319 2.01729352,2.3806808 1.77720716,2.38073265 C1.61972113,2.38091146 1.46865995,2.31804794 1.35746734,2.2060592 L0.17008455,1.01375153 C-0.0581618794,0.780368661 -0.0564730033,0.405887727 0.173869093,0.174590246 C0.40421119,-0.0567072351 0.777145314,-0.058403116 1.00956418,0.170790006 Z">
      </path>
    </clipPath>
  </defs>
  <g transform="translate(0.0 22.0)">
    <g transform="translate(5.500112317191675 0.500058042451279)">
      <g clip-path="url(#i0)">
        <polygon points="0,0 52.9997754,0 52.9997754,38.0000357 0,38.0000357 0,0" stroke="none" fill="#656C77">
        </polygon>
      </g>
    </g>
    <g transform="translate(5.500112317191675 0.500058042451279)">
      <g clip-path="url(#i0)">
        <polygon points="0,0 52.9997754,0 52.9997754,38.0000357 0,38.0000357 0,0" stroke="none" fill="#93C1FF">
        </polygon>
      </g>
    </g>
    <g transform="translate(5.500112317191679 0.500058042451279)">
      <g clip-path="url(#i1)">
        <polygon points="0,0 1.99997265,0 1.99997265,38.0000357 0,38.0000357 0,0" stroke="none" fill="#D7E9FF">
        </polygon>
      </g>
    </g>
    <g transform="translate(56.50004004352036 0.500058042451279)">
      <g clip-path="url(#i2)">
        <polygon points="0,0 1.99997265,0 1.99997265,38.0000357 0,38.0000357 0,0" stroke="none" fill="#5C9EFF">
        </polygon>
      </g>
    </g>
    <g transform="translate(31.524884606294112 0.999991070392005)">
      <g clip-path="url(#i3)">
        <polygon points="0,0 1.00473686,0 1.00473686,1.00011608 0,1.00011608 0,0" stroke="none" fill="#116EFF">
        </polygon>
      </g>
    </g>
    <g transform="translate(0.5000556702602772 37.50010269049073)">
      <g clip-path="url(#i4)">
        <polygon points="0,0 63.0000137,0 63.0000137,3.99996428 0,3.99996428 0,0" stroke="none" fill="#93C1FF">
        </polygon>
      </g>
    </g>
    <g transform="translate(0.5001806841778489 37.50010269049073)">
      <g clip-path="url(#i5)">
        <polygon points="0,0 4.00007032,0 4.00007032,3.99996428 0,3.99996428 0,0" stroke="none" fill="#D7E9FF">
        </polygon>
      </g>
    </g>
    <g transform="translate(59.49999902332866 37.50010269049073)">
      <g clip-path="url(#i6)">
        <polygon points="0,0 4.00007032,0 4.00007032,3.99996428 0,3.99996428 0,0" stroke="none" fill="#5C9EFF">
        </polygon>
      </g>
    </g>
    <g transform="translate(7.4998349425620745 2.500415226767405)">
      <g clip-path="url(#i7)">
        <polygon points="0,0 48.999205,0 48.999205,30.9998482 0,30.9998482 0,0" stroke="none" fill="#D7E9FF"></polygon>
      </g>
    </g>
    <g transform="translate(23.2852172995822 2.500040183235516)">
      <g clip-path="url(#i8)">
        <polygon points="0,0 14.5186163,0 14.5186163,30.9999732 0,30.9999732 0,0" stroke="none" fill="#FFFFFF">
        </polygon>
      </g>
      <g transform="translate(8.282297052601507 0.0)">
        <g clip-path="url(#i9)">
          <polygon points="0,0 10.3779054,0 10.3779054,30.9999732 0,30.9999732 0,0" stroke="none" fill="#FFFFFF">
          </polygon>
        </g>
      </g>
    </g>
    <g transform="translate(26.499450134096826 37.500727763043955)">
      <g clip-path="url(#i10)">
        <polygon points="0,0 10.9999746,0 10.9999746,1 0,1 0,0" stroke="none" fill="#5C9EFF"></polygon>
      </g>
    </g>
    <g transform="translate(4.99993163301383 0.0)">
      <g clip-path="url(#i11)">
        <polygon points="0,0 53.9998869,0 53.9998869,36.0000536 0,36.0000536 0,0" stroke="none" fill="#116EFF">
        </polygon>
      </g>
    </g>
    <g transform="translate(2.0000976671231 41.00013394411848)">
      <g clip-path="url(#i12)">
        <polygon points="0,0 59.9998047,0 59.9998047,0.999866056 0,0.999866056 0,0" stroke="none" fill="#116EFF">
        </polygon>
      </g>
    </g>
    <g transform="translate(0.0 37.00004464803946)">
      <g clip-path="url(#i13)">
        <polygon points="0,0 63.999875,0 63.999875,2.99997321 0,2.99997321 0,0" stroke="none" fill="#116EFF"></polygon>
      </g>
    </g>
    <g transform="translate(7.00002930013693 1.9999821407842333)">
      <g clip-path="url(#i14)">
        <polygon points="0,0 49.9999415,0 49.9999415,32.0000893 0,32.0000893 0,0" stroke="none" fill="#116EFF">
        </polygon>
      </g>
    </g>
    <g transform="translate(0.00012501391756813973 39.00002678882369)">
      <g clip-path="url(#i15)">
        <polygon points="0,0 3.00008399,0 3.00008399,2.99997321 0,2.99997321 0,0" stroke="none" fill="#116EFF">
        </polygon>
      </g>
    </g>
    <g transform="translate(61.0000410201917 39.00002678882369)">
      <g clip-path="url(#i16)">
        <polygon points="0,0 2.99995898,0 2.99995898,2.99997321 0,2.99997321 0,0" stroke="none" fill="#116EFF">
        </polygon>
      </g>
    </g>
    <g transform="translate(2.0000976671231 36.50011162009873)">
      <g clip-path="url(#i17)">
        <polygon points="0,0 2.99995898,0 2.99995898,1 0,1 0,0" stroke="none" fill="#116EFF"></polygon>
      </g>
    </g>
    <g transform="translate(6.000042973534164 36.50011162009873)">
      <g clip-path="url(#i18)">
        <polygon points="0,0 3.00008399,0 3.00008399,1 0,1 0,0" stroke="none" fill="#116EFF"></polygon>
      </g>
    </g>
    <g transform="translate(10.0001132938628 36.50011162009873)">
      <g clip-path="url(#i19)">
        <polygon points="0,0 3.00008399,0 3.00008399,1 0,1 0,0" stroke="none" fill="#116EFF"></polygon>
      </g>
    </g>
    <g transform="translate(14.00005860027386 36.50011162009873)">
      <g clip-path="url(#i20)">
        <polygon points="0,0 3.00008399,0 3.00008399,1 0,1 0,0" stroke="none" fill="#116EFF"></polygon>
      </g>
    </g>
    <g transform="translate(18.00012892060249 36.50011162009873)">
      <g clip-path="url(#i21)">
        <polygon points="0,0 2.99995898,0 2.99995898,1 0,1 0,0" stroke="none" fill="#116EFF"></polygon>
      </g>
    </g>
    <g transform="translate(22.00007422701356 36.50011162009873)">
      <g clip-path="url(#i22)">
        <polygon points="0,0 3.00008399,0 3.00008399,1 0,1 0,0" stroke="none" fill="#116EFF"></polygon>
      </g>
    </g>
    <g transform="translate(38.999966793178146 36.50011162009873)">
      <g clip-path="url(#i23)">
        <polygon points="0,0 3.00008399,0 3.00008399,1 0,1 0,0" stroke="none" fill="#116EFF"></polygon>
      </g>
    </g>
    <g transform="translate(43.00003711350678 36.50011162009873)">
      <g clip-path="url(#i24)">
        <polygon points="0,0 2.99995898,0 2.99995898,1 0,1 0,0" stroke="none" fill="#116EFF"></polygon>
      </g>
    </g>
    <g transform="translate(46.99998241991784 36.50011162009873)">
      <g clip-path="url(#i25)">
        <polygon points="0,0 2.99995898,0 2.99995898,1 0,1 0,0" stroke="none" fill="#116EFF"></polygon>
      </g>
    </g>
    <g transform="translate(50.99992772632892 36.50011162009873)">
      <g clip-path="url(#i26)">
        <polygon points="0,0 2.99995898,0 2.99995898,1 0,1 0,0" stroke="none" fill="#116EFF"></polygon>
      </g>
    </g>
    <g transform="translate(55.00012306057512 36.50011162009873)">
      <g clip-path="url(#i27)">
        <polygon points="0,0 2.99983397,0 2.99983397,1 0,1 0,0" stroke="none" fill="#116EFF"></polygon>
      </g>
    </g>
    <g transform="translate(59.00006836698617 36.50011162009873)">
      <g clip-path="url(#i25)">
        <polygon points="0,0 2.99995898,0 2.99995898,1 0,1 0,0" stroke="none" fill="#116EFF"></polygon>
      </g>
    </g>
    <g transform="translate(10.999999999999961 5.000000193983633)">
      <g transform="translate(1.191133288840319 0.0)">
        <g clip-path="url(#i28)">
          <polygon points="-9.64872487e-08,0 1.18738308,0 1.18738308,26 -9.64872487e-08,26 -9.64872487e-08,0"
            stroke="none" fill="#116EFF"></polygon>
        </g>
      </g>
      <g transform="translate(0.0 24.0)">
        <g clip-path="url(#i29)">
          <polygon
            points="-2.77555756e-17,1.09287579e-15 2.37840674,1.09287579e-15 2.37840674,2.38838225 -2.77555756e-17,2.38838225 -2.77555756e-17,1.09287579e-15"
            stroke="none" fill="#116EFF"></polygon>
        </g>
      </g>
      <g transform="translate(1.191242819056697 24.0)">
        <g clip-path="url(#i30)">
          <polygon
            points="1.11022302e-16,-2.49800181e-16 2.37078912,-2.49800181e-16 2.37078912,2.38073303 1.11022302e-16,2.38073303 1.11022302e-16,-2.49800181e-16"
            stroke="none" fill="#116EFF"></polygon>
        </g>
      </g>
      <g transform="translate(1.1950004144835018 0.0038830681314721005)">
        <g clip-path="url(#i31)">
          <polygon
            points="-2.77555756e-17,-1.94289029e-16 2.37078912,-1.94289029e-16 2.37078912,2.38073303 -2.77555756e-17,2.38073303 -2.77555756e-17,-1.94289029e-16"
            stroke="none" fill="#116EFF"></polygon>
        </g>
      </g>
      <g transform="translate(0.0038600281609433296 0.0038830681314721005)">
        <g clip-path="url(#i32)">
          <polygon
            points="6.9388939e-18,-5.55111512e-17 2.37078912,-5.55111512e-17 2.37078912,2.38073303 6.9388939e-18,2.38073303 6.9388939e-18,-5.55111512e-17"
            stroke="none" fill="#116EFF"></polygon>
        </g>
      </g>
      <g transform="translate(6.0 23.0)">
        <g transform="translate(0.0 1.188424602022224)">
          <g clip-path="url(#i33)">
            <polygon points="0,0 36.059335,0 36.059335,1.19230767 0,1.19230767 0,0" stroke="none" fill="#116EFF">
            </polygon>
          </g>
        </g>
        <g transform="translate(7.128391085636622 1.188424602022224)">
          <g clip-path="url(#i34)">
            <polygon points="0,0 6.52093142,0 6.52093142,1.19230767 0,1.19230767 0,0" stroke="none" fill="#6581AB">
            </polygon>
            <polygon points="0.307533013,0 6.52093142,0 6.21713679,1.19230767 0,1.19230767 0.307533013,0 0.307533013,0"
              stroke="#94C1FF" stroke-width="2" fill="none" stroke-miterlimit="5"></polygon>
          </g>
        </g>
        <g transform="translate(15.41057135982805 1.188424602022224)">
          <g clip-path="url(#i35)">
            <polygon points="0,0 2.37192019,0 2.37192019,1.19230767 0,1.19230767 0,0" stroke="none" fill="#6581AB">
            </polygon>
            <polygon points="0.307533013,0 2.37192019,0 2.06812556,1.19230767 0,1.19230767 0.307533013,0 0.307533013,0"
              stroke="#94C1FF" stroke-width="2" fill="none" stroke-miterlimit="5"></polygon>
          </g>
        </g>
        <g transform="translate(0.00010943352094727743 0.0)">
          <g clip-path="url(#i36)">
            <polygon
              points="2.77555756e-16,3.88578059e-16 2.37078912,3.88578059e-16 2.37078912,2.38073303 2.77555756e-16,2.38073303 2.77555756e-16,3.88578059e-16"
              stroke="none" fill="#116EFF"></polygon>
          </g>
        </g>
        <g transform="translate(0.00386702894775226 1.192307670153468)">
          <g clip-path="url(#i37)">
            <polygon
              points="-3.33066907e-16,-1.41553436e-15 2.37078912,-1.41553436e-15 2.37078912,2.38073303 -3.33066907e-16,2.38073303 -3.33066907e-16,-1.41553436e-15"
              stroke="none" fill="#116EFF"></polygon>
          </g>
        </g>
        <g transform="translate(33.68467920591547 1.192307670153468)">
          <g clip-path="url(#i38)">
            <polygon
              points="1.99146255e-15,4.16333634e-16 2.37078912,4.16333634e-16 2.37078912,2.38073303 1.99146255e-15,2.38073303 1.99146255e-15,4.16333634e-16"
              stroke="none" fill="#116EFF"></polygon>
          </g>
        </g>
        <g transform="translate(33.68843680134228 0.0)">
          <g clip-path="url(#i39)">
            <polygon
              points="-4.99600361e-16,-1.0269563e-15 2.37078912,-1.0269563e-15 2.37078912,2.38073303 -4.99600361e-16,2.38073303 -4.99600361e-16,-1.0269563e-15"
              stroke="none" fill="#116EFF"></polygon>
          </g>
        </g>
      </g>
    </g>
  </g>
</svg>