<?xml version="1.0" encoding="UTF-8"?>
<svg width="64px" height="64px" viewBox="0 0 64 64" version="1.1" xmlns="http://www.w3.org/2000/svg" xmlns:xlink="http://www.w3.org/1999/xlink">
    <!-- Generator: Sketch 52.1 (67048) - http://www.bohemiancoding.com/sketch -->
    <title>Group 2</title>
    <desc>Created with Sketch.</desc>
    <g id="Symbols" stroke="none" stroke-width="1" fill="none" fill-rule="evenodd">
        <g id="Icon/Large/Published">
            <g id="Group-2">
                <rect id="Rectangle" x="0" y="0" width="64" height="64"></rect>
                <g id="Group-3" fill-rule="nonzero">
                    <path d="M61.467,48.489 L57.469625,48.489 C58.573375,48.489 59.468375,47.593125 59.468375,46.490375 C59.468375,45.385625 58.573375,44.49175 57.469625,44.49175 L53.47225,44.49175 C54.576,44.49175 55.471,43.595875 55.471,42.493125 C55.471,41.3885 54.576,40.4945 53.47225,40.4945 L47.476375,40.4945 C48.580125,40.4945 49.475125,39.59875 49.475125,38.496 C49.475125,37.39125 48.580125,36.497375 47.476375,36.497375 L58.46875,36.497375 C59.5725,36.497375 60.4675,35.6015 60.4675,34.49875 C60.4675,33.394 59.5725,32.499625 58.46875,32.499625 L53.472125,32.499625 C54.575875,32.499625 55.470875,31.60475 55.470875,30.501 C55.470875,29.39725 54.575875,28.502375 53.472125,28.502375 L51.473625,28.502375 C52.577375,28.502375 53.472125,27.6075 53.472125,26.50375 C53.472125,25.4 52.577375,24.505125 51.473625,24.505125 L61.46675,24.505125 C62.5705,24.505125 63.4655,23.61025 63.4655,22.5065 C63.4655,21.40275 62.5705,20.507875 61.46675,20.507875 L57.469375,20.507875 C58.573125,20.507875 59.468125,19.613 59.468125,18.50925 C59.468125,17.4055 58.573125,16.510625 57.469375,16.510625 L53.472,16.510625 C54.57575,16.510625 55.47075,15.61575 55.47075,14.512 C55.47075,13.40825 54.57575,12.513375 53.472,12.513375 L50.47425,12.513375 C51.578,12.513375 52.47275,11.6185 52.47275,10.51475 C52.47275,9.411 51.578,8.516125 50.47425,8.516125 L20.494875,8.516125 C19.391125,8.516125 18.49625,9.411 18.49625,10.51475 C18.49625,11.6185 19.391125,12.513375 20.494875,12.513375 L13.499625,12.513375 C12.395875,12.513375 11.501,13.40825 11.501,14.512 C11.501,15.61575 12.395875,16.510625 13.499625,16.510625 L11.501,16.510625 C10.39725,16.510625 9.502375,17.4055 9.502375,18.50925 C9.502375,19.613 10.39725,20.507875 11.501,20.507875 L17.497,20.507875 C16.39325,20.507875 15.498375,21.40275 15.498375,22.5065 C15.498375,23.61025 16.39325,24.505125 17.497,24.505125 L6.5045,24.505125 C5.40075,24.505125 4.505875,25.400125 4.505875,26.50375 C4.505875,27.607375 5.40075,28.502375 6.5045,28.502375 L11.501125,28.502375 C10.397375,28.502375 9.5025,29.39725 9.5025,30.501 C9.5025,31.60475 10.397375,32.499625 11.501125,32.499625 L6.5045,32.499625 C5.40075,32.499625 4.505875,33.394 4.505875,34.49875 C4.505875,35.6015 5.40075,36.497375 6.5045,36.497375 L4.50575,36.497375 C3.402,36.497375 2.507125,37.39125 2.507125,38.496 C2.507125,39.59875 3.402,40.4945 4.50575,40.4945 L9.5025,40.4945 C8.39875,40.4945 7.503875,41.3885 7.503875,42.493125 C7.503875,43.595875 8.39875,44.49175 9.5025,44.49175 L7.50375,44.49175 C6.4,44.49175 5.505125,45.385625 5.505125,46.490375 C5.505125,47.593125 6.4,48.489 7.50375,48.489 L17.497,48.489 C16.39325,48.489 15.498375,49.382875 15.498375,50.487625 C15.498375,51.59025 16.39325,52.48625 17.497,52.48625 L13.499625,52.48625 C12.395875,52.48625 11.501,53.38 11.501,54.48475 C11.501,55.5875 12.395875,56.483375 13.499625,56.483375 L47.4765,56.483375 C48.58025,56.483375 49.47525,55.5875 49.47525,54.48475 C49.47525,53.38 48.58025,52.48625 47.4765,52.48625 L61.467,52.48625 C62.57075,52.48625 63.46575,51.59025 63.46575,50.487625 C63.465875,49.382875 62.57075,48.489 61.467,48.489 Z" id="Shape" fill="#5C9EFF"></path>
                    <path d="M54.504125,49.988 C54.22775,49.988 53.9995,49.7655 53.9995,49.48825 C53.9995,49.213125 54.218,48.988625 54.493375,48.988625 L54.504125,48.988625 C54.77925,48.988625 55.003625,49.213125 55.003625,49.48825 C55.003625,49.7655 54.77925,49.988 54.504125,49.988 Z" id="Shape" fill="#3A3847"></path>
                    <path d="M15.528625,1.020875 C15.252375,1.020875 15.024,0.797375 15.024,0.52125 C15.024,0.245125 15.242625,0.0215 15.517875,0.0215 L15.528625,0.0215 C15.80375,0.0215 16.02825,0.245 16.02825,0.52125 C16.02825,0.7975 15.80375,1.020875 15.528625,1.020875 Z" id="Shape" fill="#116FFF"></path>
                    <path d="M37.513625,3.0195 C37.2375,3.0195 37.009,2.796 37.009,2.51975 C37.009,2.243625 37.22775,2.020125 37.502875,2.020125 L37.513625,2.020125 C37.78875,2.020125 38.013375,2.243625 38.013375,2.51975 C38.013375,2.796 37.788875,3.0195 37.513625,3.0195 Z" id="Shape" fill="#116FFF"></path>
                    <path d="M0.538875,15.01125 C0.26275,15.01125 0.03425,14.78775 0.03425,14.5115 C0.03425,14.235375 0.252875,14.011875 0.528125,14.011875 L0.538875,14.011875 C0.814125,14.011875 1.0385,14.235375 1.0385,14.5115 C1.0385,14.787875 0.814,15.01125 0.538875,15.01125 Z" id="Shape" fill="#116FFF"></path>
                    <path d="M8.532375,41.993375 C8.256125,41.993375 8.027875,41.768875 8.027875,41.49375 C8.027875,41.2165 8.2465,40.994125 8.521625,40.994125 L8.532375,40.994125 C8.8075,40.994125 9.032,41.2165 9.032,41.49375 C9.032,41.768875 8.8075,41.993375 8.532375,41.993375 Z" id="Shape" fill="#116FFF"></path>
                    <path d="M33.465625,62.979125 C33.1895,62.979125 32.96125,62.754625 32.96125,62.4795 C32.96125,62.20225 33.17975,61.97975 33.454875,61.97975 L33.465625,61.97975 C33.74075,61.97975 33.965375,62.20225 33.965375,62.4795 C33.965375,62.754625 33.74075,62.979125 33.465625,62.979125 Z" id="Shape" fill="#116FFF"></path>
                    <path d="M57.5,63.9785 C57.223875,63.9785 56.995625,63.756 56.995625,63.47875 C56.995625,63.203625 57.214125,62.979125 57.48925,62.979125 L57.5,62.979125 C57.775125,62.979125 57.99975,63.203625 57.99975,63.47875 C57.99975,63.756 57.775125,63.9785 57.5,63.9785 Z" id="Shape" fill="#116FFF"></path>
                    <path d="M46.5095,36.996875 C46.233375,36.996875 46.004875,36.772375 46.004875,36.49725 C46.004875,36.22 46.223625,35.997625 46.49875,35.997625 L46.5095,35.997625 C46.784625,35.997625 47.009,36.22 47.009,36.49725 C47.009,36.772375 46.784625,36.996875 46.5095,36.996875 Z" id="Shape" fill="#116FFF"></path>
                    <path d="M58.50025,32.999 C58.224125,32.999 57.995875,32.775625 57.995875,32.499375 C57.995875,32.223125 58.214375,31.99975 58.4895,31.99975 L58.50025,31.99975 C58.775625,31.99975 59,32.223125 59,32.499375 C59,32.775625 58.775625,32.999 58.50025,32.999 Z" id="Shape" fill="#116FFF"></path>
                    <path d="M52.504375,46.988 C52.22825,46.988 51.99975,46.765625 51.99975,46.488375 C51.99975,46.213125 52.2185,45.98875 52.493625,45.98875 L52.504375,45.98875 C52.7795,45.98875 53.004125,46.213125 53.004125,46.488375 C53.004125,46.765625 52.7795,46.988 52.504375,46.988 Z" id="Shape" fill="#3A3847"></path>
                    <path d="M22.613625,15.391875 C22.783375,15.561625 22.923,15.74225 23.043125,15.941375 C22.65375,16.591375 22.0135,17.411 21.2045,18.220125 C20.3955,19.029125 19.57575,19.66925 18.925875,20.058625 C18.72675,19.938625 18.54625,19.799 18.376375,19.62925 C17.20725,18.46 17.20725,16.561 18.376375,15.391875 C19.5455,14.22275 21.4445,14.22275 22.613625,15.391875 Z" id="Shape" fill="#94C1FF"></path>
                    <path d="M19.3755,16.39125 C20.369,15.39775 21.8845,15.25725 23.036125,15.951125 C23.038125,15.94825 23.041,15.94425 23.043,15.941375 C22.923,15.74225 22.783375,15.56175 22.6135,15.391875 C21.444375,14.22275 19.545375,14.22275 18.37625,15.391875 C17.207125,16.561 17.207125,18.46 18.37625,19.62925 C18.546,19.799 18.726625,19.938625 18.92575,20.058625 C18.928625,20.056625 18.932625,20.05375 18.9355,20.05175 C18.241625,18.90025 18.382125,17.384625 19.3755,16.39125 Z" id="Shape" fill="#D7E9FF"></path>
                    <path d="M23.043,15.941375 C23.76225,17.10075 23.613,18.63 22.6135,19.62925 C21.61425,20.6285 20.085,20.777875 18.925625,20.058625 C19.5755,19.66925 20.395375,19.029 21.20425,18.220125 C22.013375,17.411 22.653625,16.59125 23.043,15.941375 Z" id="Shape" fill="#94C1FF"></path>
                    <path d="M16.767,48.229375 C17.357375,48.809125 17.34675,49.75775 16.767,50.349125 C16.1775,50.92875 10.282125,55.874625 9.702375,55.294875 C9.113,54.705375 14.058875,48.809 14.64925,48.229375 C15.229,47.639875 16.1775,47.639875 16.767,48.229375 Z" id="Shape" fill="#D7E9FF"></path>
                    <path d="M16.767,50.349125 C17.34675,49.75775 17.357375,48.809125 16.767,48.229375 C16.1775,47.639875 15.229,47.639875 14.649375,48.229375 C14.058875,48.809125 9.113,54.7055 9.7025,55.294875 C10.282125,55.874625 16.1775,50.92875 16.767,50.349125 Z M6.874375,58.123 C5.115875,56.3645 10.771125,47.860375 12.530625,46.111625 C14.2795,44.353125 17.127125,44.353125 18.885625,46.111625 C20.645125,47.870125 20.645125,50.708125 18.885625,52.46675 C17.127125,54.225375 8.632875,59.871875 6.874375,58.123 Z" id="Shape" fill="#94C1FF"></path>
                    <path d="M18.885625,46.11175 C17.8785,45.104625 16.515125,44.69275 15.2045,44.841125 C16.183375,44.9505 17.134875,45.36025 17.886375,46.11175 C19.645875,47.87025 19.645875,50.70825 17.886375,52.466875 C16.457625,53.895625 10.585625,57.889 7.489125,58.40025 C10.067375,58.905875 17.27925,54.07325 18.885625,52.466875 C20.64525,50.70825 20.64525,47.87025 18.885625,46.11175 Z" id="Shape" fill="#5C9EFF"></path>
                    <path d="M7.873625,58.123 C6.115,56.3645 11.770375,47.860375 13.529875,46.111625 C14.277375,45.360125 15.227,44.950375 16.203875,44.841 C14.89325,44.692625 13.531875,45.1045 12.530625,46.111625 C10.771,47.860375 5.11575,56.364375 6.874375,58.123 C7.20425,58.450875 7.77225,58.51925 8.4885,58.400125 C8.2435,58.3515 8.026,58.273375 7.873625,58.123 Z" id="Shape" fill="#D7E9FF"></path>
                    <path d="M56.4705,44.49175 C57.019875,44.49175 57.46975,44.942625 57.46975,45.491 C57.46975,46.0415 57.01975,46.490375 56.4705,46.490375 C55.92125,46.490375 55.47125,46.0415 55.47125,45.491 C55.47125,44.942625 55.921125,44.49175 56.4705,44.49175 Z" id="Shape" fill="#94C1FF"></path>
                    <path d="M57.46975,45.491 C57.46975,44.942625 57.01975,44.49175 56.4705,44.49175 C55.92125,44.49175 55.47125,44.942625 55.47125,45.491 C55.47125,46.0415 55.92125,46.490375 56.4705,46.490375 C57.01975,46.490375 57.46975,46.0415 57.46975,45.491 Z M54.971375,42.493 C57.459875,42.493 59.4685,44.501375 59.4685,46.99 C59.4685,49.46875 57.46,51.487 54.971375,51.487 C52.492625,51.487 50.4745,49.478625 50.4745,46.99 C50.4745,44.501375 52.482875,42.493 54.971375,42.493 Z" id="Shape" fill="#94C1FF"></path>
                    <path d="M51.473875,47.98925 C51.473875,45.50075 53.482125,43.492375 55.97075,43.492375 C56.9595,43.492375 57.864,43.81825 58.60475,44.357 C57.787875,43.23075 56.4715,42.493 54.9715,42.493 C52.483,42.493 50.474625,44.501375 50.474625,46.99 C50.474625,48.489 51.214375,49.8025 52.337625,50.620375 C51.79975,49.880625 51.473875,48.976875 51.473875,47.98925 Z" id="Shape" fill="#D7E9FF"></path>
                    <path d="M58.536375,46.037625 C58.537375,48.526125 56.529,50.5345 54.0405,50.5345 C53.051,50.5345 52.14625,50.208625 51.4065,49.671875 C52.222375,50.796125 53.53975,51.533875 55.03975,51.533875 C57.52825,51.533875 59.536625,49.5255 59.536625,47.036875 C59.536625,45.537875 58.797125,44.224375 57.673875,43.4085 C58.211375,44.14825 58.537375,45.051875 58.536375,46.037625 Z" id="Shape" fill="#5C9EFF"></path>
                    <path d="M44.988,11.434625 C48.515875,7.897 54.8815,7.19725 56.291,8.6065 C57.71,10.0255 57.71,15.672 53.462625,19.919125 L52.762875,19.209625 L45.687625,12.144125 L44.448375,11.974375 C44.67875,11.745 44.858125,11.5645 44.988,11.434625 Z" id="Shape" fill="#94C1FF"></path>
                    <path d="M56.291,8.6065 C56.149375,8.465 55.94625,8.350875 55.713125,8.25325 C56.652125,10.296875 56.2285,15.151 52.46825,18.915 L52.762875,19.209625 L53.462625,19.919125 C57.71,15.672 57.71,10.0255 56.291,8.6065 Z" id="Shape" fill="#5C9EFF"></path>
                    <path d="M45.982375,12.438875 C45.984375,12.436875 45.98625,12.435 45.98725,12.434 C49.160875,9.251625 54.621,8.371375 56.712375,9.252625 C56.5925,8.99 56.451875,8.767625 56.291,8.6065 C54.881625,7.197375 48.515875,7.897 44.988,11.434625 C44.858125,11.5645 44.678625,11.745 44.4485,11.97425 L45.68775,12.144 L45.982375,12.438875 Z" id="Shape" fill="#D7E9FF"></path>
                    <path d="M44.988,19.919125 C46.15725,21.088375 46.15725,22.987375 44.988,24.1565 C43.81875,25.325625 41.920875,25.325625 40.740875,24.1565 C39.571625,22.987375 39.571625,21.088375 40.740875,19.919125 C41.920875,18.74025 43.818875,18.74025 44.988,19.919125 Z" id="Shape" fill="#94C1FF"></path>
                    <path d="M41.74025,20.9185 C42.744375,19.91425 44.266875,19.77375 45.4195,20.47925 C45.298375,20.281125 45.16,20.090875 44.988125,19.919125 C43.818875,18.74025 41.921,18.74025 40.741,19.919125 C39.57175,21.088375 39.57175,22.987375 40.741,24.1565 C40.913625,24.32825 41.106,24.466875 41.305,24.587875 C40.60525,23.43425 40.744875,21.913875 41.74025,20.9185 Z" id="Shape" fill="#D7E9FF"></path>
                    <path d="M37.923625,26.984625 C39.092625,28.15375 39.092625,30.051875 37.923625,31.221 C36.74375,32.39025 34.85525,32.39025 33.6765,31.221 C32.506375,30.051875 32.506375,28.15375 33.6765,26.984625 C34.85525,25.8145 36.743625,25.8145 37.923625,26.984625 Z" id="Shape" fill="#94C1FF"></path>
                    <path d="M34.629875,28.02875 C35.634,27.0245 37.1565,26.884 38.309125,27.589625 C38.188,27.3915 38.049375,27.20125 37.87775,27.0295 C36.7085,25.850625 34.810375,25.850625 33.630625,27.0295 C32.461375,28.198625 32.461375,30.09775 33.630625,31.266875 C33.80325,31.438625 33.995625,31.577125 34.194625,31.69825 C33.494875,30.544625 33.6345,29.02425 34.629875,28.02875 Z" id="Shape" fill="#D7E9FF"></path>
                    <path d="M25.591125,30.202125 L25.91125,30.52125 C23.4735,32.95025 21.304,35.119125 19.765,36.667 L19.75525,36.65725 C18.756,34.968875 13.92925,34.088625 13.92925,34.088625 C20.994625,27.023625 25.591125,30.202125 25.591125,30.202125 Z" id="Shape" fill="#D7E9FF"></path>
                    <path d="M34.775375,39.3955 C34.775375,39.3955 37.963625,43.992 30.898,51.047875 C30.898,51.047875 29.97875,46.0415 28.220125,45.161125 C29.758125,43.623125 31.93725,41.445 34.386,39.00525 L34.775375,39.3955 Z" id="Shape" fill="#D7E9FF"></path>
                    <path d="M25.91125,47.47025 L24.502125,46.061125 L23.782875,46.771625 C23.782875,46.771625 23.083125,47.470375 20.255,44.642125 C17.426875,41.82375 18.13625,41.11525 18.13625,41.11525 L18.84575,40.414625 L17.42675,38.995625 C17.42675,38.995625 18.31675,38.107625 19.765,36.667125 C21.304,35.11925 23.473375,32.950375 25.91125,30.521375 C32.786375,23.636375 42.289875,14.133125 44.988125,11.43475 L45.687875,12.14425 L52.763125,19.20975 L53.462875,19.91925 C51.32375,22.057375 41.671125,31.711 34.38625,39.005375 C31.9375,41.445125 29.7585,43.62325 28.220375,45.16125 C26.78075,46.6015 25.91125,47.47025 25.91125,47.47025 Z M44.988,24.156375 C46.15725,22.98725 46.15725,21.08825 44.988,19.919 C43.81875,18.740125 41.920875,18.740125 40.740875,19.919 C39.571625,21.08825 39.571625,22.98725 40.740875,24.156375 C41.920875,25.3255 43.818875,25.3255 44.988,24.156375 Z M37.923625,31.221 C39.092625,30.051875 39.092625,28.15375 37.923625,26.984625 C36.74375,25.8145 34.85525,25.8145 33.6765,26.984625 C32.506375,28.15375 32.506375,30.051875 33.6765,31.221 C34.85525,32.390125 36.743625,32.390125 37.923625,31.221 Z" id="Shape" fill="#FFFFFF"></path>
                    <g id="Group" transform="translate(2.000000, 4.000000)" fill="#116FFF">
                        <path d="M28.898,47.5475 C28.84825,47.5475 28.7985,47.53975 28.749625,47.524 C28.572,47.46925 28.44025,47.321 28.406125,47.1375 C28.0695,45.30475 27.12275,42.197375 26.013125,41.617875 C25.8385,41.53775 25.7155,41.364125 25.7155,41.161125 C25.7155,40.807875 26.124375,40.558125 26.4435,40.71425 C27.92975,41.457875 28.816875,44.45 29.190625,46.025 C35.01175,39.775375 32.477375,35.848375 32.363375,35.678625 C32.209125,35.45025 32.26675,35.139875 32.494,34.98575 C32.7205,34.829625 33.030875,34.88625 33.185875,35.110625 C33.3255,35.313625 36.528375,40.1345 29.251125,47.401125 C29.15575,47.49675 29.02875,47.5475 28.898,47.5475 Z" id="Shape"></path>
                        <path d="M17.75525,33.156875 C17.5845,33.156875 17.418625,33.069125 17.324875,32.912875 C16.68175,31.82375 13.619375,30.904625 11.839375,30.580625 C11.656875,30.547375 11.507625,30.414625 11.452,30.239 C11.397375,30.061375 11.44425,29.86825 11.576,29.7355 C18.85325,22.45775 23.673125,25.651875 23.87525,25.791375 C24.102625,25.9485 24.15925,26.259875 24.002125,26.48625 C23.846875,26.713625 23.534625,26.768375 23.30925,26.615125 C23.1355,26.498 19.2085,23.97925 12.953,29.796125 C14.485125,30.15725 17.35525,31.000375 18.18575,32.403625 C18.32625,32.64175 18.24725,32.948125 18.010125,33.08875 C17.929875,33.135375 17.842125,33.156875 17.75525,33.156875 Z" id="Shape"></path>
                        <path d="M7.845,51.841375 C7.595125,51.841375 7.437125,51.736 7.34925,51.648125 C7.2595,51.55825 7.153125,51.39825 7.154,51.142625 C7.160875,49.723625 12.04525,44.124 12.299,43.874125 C13.03575,43.12275 14.36,43.116875 15.12025,43.876125 C15.898,44.63925 15.901,45.908 15.123125,46.6985 C15.064625,46.757 9.28925,51.841375 7.845,51.841375 Z M13.70425,44.288 C13.43975,44.288 13.191,44.391375 13.0055,44.58075 C12.291125,45.2815 9.182875,49.105 8.355375,50.63925 C9.89725,49.80775 13.710125,46.686875 14.416625,45.992 C14.600125,45.8045 14.7055,45.550875 14.706375,45.2835 C14.707375,45.018 14.604,44.770125 14.416625,44.586625 C14.2235,44.39325 13.970625,44.288 13.70425,44.288 Z" id="Shape"></path>
                        <path d="M5.886375,54.954625 C5.299875,54.954625 4.840125,54.7945 4.522,54.476375 C4.201,54.15625 4.039,53.693625 4.04,53.100375 C4.044875,49.969625 8.650125,43.274875 10.178375,41.7565 C11.116125,40.81375 12.36925,40.292625 13.704375,40.292625 C15.039375,40.292625 16.294375,40.81375 17.239,41.7585 C18.184625,42.70325 18.704875,43.95625 18.704875,45.28925 C18.704875,46.620375 18.18475,47.875375 17.239,48.820125 C15.70975,50.35025 8.9975,54.954625 5.886375,54.954625 Z M13.70425,41.292 C12.637625,41.292 11.63625,41.707625 10.884875,42.463 C9.284375,44.05375 5.043125,50.463375 5.03925,53.10225 C5.03825,53.418375 5.10175,53.642875 5.227625,53.76975 C5.351625,53.89275 5.573125,53.955125 5.886375,53.955125 C8.508625,53.955125 14.932,49.713875 16.532375,48.1135 C17.28875,47.358125 17.705375,46.355 17.705375,45.289125 C17.705375,44.2235 17.28875,43.22025 16.532375,42.464875 C15.776,41.707625 14.771875,41.292 13.70425,41.292 Z" id="Shape"></path>
                        <path d="M23.91125,43.969875 C23.783375,43.969875 23.6555,43.921 23.558,43.8235 C23.36275,43.62825 23.36275,43.312 23.558,43.117 L25.867,40.807875 C27.405,39.269875 29.584125,37.09175 32.03375,34.652 C39.317625,27.357625 48.97025,17.704 51.109375,15.565875 C52.908,13.76725 54.11525,11.477875 54.5085,9.120125 C54.86075,7.006375 54.459625,5.482 53.93775,4.959875 C53.60275,4.625125 52.7695,4.425125 51.70775,4.425125 C51.70575,4.425125 51.703875,4.425125 51.701875,4.425125 C49.28825,4.427125 45.6435,5.480125 43.34225,7.788125 L42.80075,8.32875 C40.10325,11.026125 31.139625,19.98975 24.264375,26.87475 C21.826625,29.30425 19.658125,31.47075 18.119125,33.0205 L15.78,35.34875 C15.58475,35.544 15.268625,35.544 15.0735,35.34875 C14.878375,35.1535 14.87825,34.837375 15.0735,34.64225 L17.41275,32.31375 C18.94975,30.765875 21.12025,28.597 23.559,26.167 C30.43325,19.283 39.396875,10.319375 42.095375,7.621 L42.634875,7.081375 C45.15075,4.558625 49.000625,3.427625 51.701,3.425625 C51.703,3.425625 51.705875,3.425625 51.707875,3.425625 C52.672,3.425625 53.961,3.57 54.644375,4.253125 C56.22225,5.83125 56.34925,11.73925 51.816,16.27225 C49.676875,18.410375 40.02425,28.064125 32.739375,35.358375 C30.290625,37.798125 28.111625,39.97625 26.5735,41.51425 L24.2645,43.823375 C24.166875,43.921 24.039,43.969875 23.91125,43.969875 Z" id="Shape"></path>
                        <path d="M19.664,39.732375 C19.536125,39.732375 19.408375,39.683625 19.31075,39.586 C19.115625,39.39075 19.115625,39.074625 19.31075,38.8795 L27.785375,30.40475 C27.980625,30.209625 28.29675,30.209625 28.491875,30.40475 C28.687125,30.6 28.687125,30.91625 28.491875,31.11125 L20.01725,39.586 C19.91975,39.68375 19.791875,39.732375 19.664,39.732375 Z" id="Shape"></path>
                        <path d="M18.254875,38.32325 C18.127,38.32325 17.99925,38.274375 17.901625,38.176875 L15.0735,35.34875 C14.87825,35.1535 14.87825,34.837375 15.0735,34.64225 C15.26875,34.447125 15.584875,34.447 15.78,34.64225 L18.608125,37.470375 C18.80325,37.665625 18.80325,37.98175 18.608125,38.176875 C18.5105,38.274375 18.38275,38.32325 18.254875,38.32325 Z" id="Shape"></path>
                        <path d="M23.91125,43.969875 C23.783375,43.969875 23.6555,43.921 23.558,43.8235 L20.729875,40.99525 C20.534625,40.8 20.534625,40.483875 20.729875,40.28875 C20.925,40.0935 21.24125,40.0935 21.436375,40.28875 L24.2645,43.117 C24.45975,43.312125 24.45975,43.628375 24.2645,43.8235 C24.166875,43.921 24.039,43.969875 23.91125,43.969875 Z" id="Shape"></path>
                        <path d="M40.868375,21.5325 C39.9345,21.5325 39.054125,21.1705 38.389625,20.511625 C37.024375,19.146375 37.024375,16.929125 38.387625,15.56575 C39.719625,14.235625 42.022875,14.2385 43.34325,15.56675 C44.704625,16.929125 44.704625,19.146375 43.34125,20.509625 C42.681625,21.169375 41.80325,21.5325 40.868375,21.5325 Z M40.868375,15.5345 C40.200875,15.5345 39.5705,15.797125 39.09425,16.27225 C38.121375,17.24625 38.121375,18.829125 39.09425,19.803125 C40.04475,20.743875 41.692125,20.745875 42.63475,19.803125 C43.607625,18.829125 43.607625,17.24625 42.63475,16.27225 C42.162375,15.796125 41.535875,15.5345 40.868375,15.5345 Z" id="Shape"></path>
                        <path d="M33.8,28.597875 C32.867875,28.597875 31.98875,28.234875 31.324125,27.576125 C30.66225,26.9145 30.29925,26.037125 30.29925,25.10325 C30.29925,24.168375 30.66225,23.291 31.323125,22.631375 C32.65325,21.311 34.9435,21.311875 36.27575,22.629375 C37.639,23.993625 37.639,26.211875 36.27675,27.57425 C35.610375,28.234875 34.731,28.597875 33.8,28.597875 Z M33.8,22.606875 C33.1335,22.606875 32.503875,22.8665 32.02875,23.33875 C31.55825,23.809125 31.29875,24.435625 31.29875,25.103125 C31.29875,25.769625 31.55825,26.39625 32.02975,26.8675 C32.97725,27.807375 34.616625,27.81125 35.57225,26.8655 C36.54325,25.8945 36.54325,24.310625 35.57025,23.337625 C35.095,22.8665 34.465625,22.606875 33.8,22.606875 Z" id="Shape"></path>
                        <path d="M52.971375,47.986625 C50.2165,47.986625 47.97475,45.746 47.97475,42.99 C47.97475,40.236125 50.2165,37.993375 52.971375,37.993375 C55.7265,37.993375 57.968,40.236 57.968,42.99 C57.968,45.746 55.7265,47.986625 52.971375,47.986625 Z M52.971375,38.992625 C50.76675,38.992625 48.974,40.786375 48.974,42.99 C48.974,45.195625 50.76675,46.987375 52.971375,46.987375 C55.176,46.987375 56.96875,45.195625 56.96875,42.99 C56.96875,40.786375 55.176,38.992625 52.971375,38.992625 Z" id="Shape"></path>
                        <path d="M54.4705,42.99 C53.643875,42.99 52.9715,42.318625 52.9715,41.491 C52.9715,40.6655 53.643875,39.992125 54.4705,39.992125 C55.297125,39.992125 55.9695,40.6655 55.9695,41.491 C55.9695,42.318625 55.297125,42.99 54.4705,42.99 Z M54.4705,40.991375 C54.195375,40.991375 53.97075,41.215875 53.97075,41.491 C53.97075,41.76625 54.195375,41.99075 54.4705,41.99075 C54.745625,41.99075 54.97025,41.76625 54.97025,41.491 C54.97025,41.215875 54.745625,40.991375 54.4705,40.991375 Z" id="Shape"></path>
                        <path d="M40.48,53.9825 C40.203875,53.9825 39.98025,53.76 39.98025,53.482875 L39.98025,49.4855 C39.98025,49.210375 40.203875,48.985875 40.48,48.985875 C40.756125,48.985875 40.97975,49.210375 40.97975,49.4855 L40.97975,53.482875 C40.97975,53.76 40.756125,53.9825 40.48,53.9825 Z" id="Shape"></path>
                        <path d="M41.47925,51.983875 L39.48075,51.983875 C39.204625,51.983875 38.981,51.761375 38.981,51.48425 C38.981,51.209 39.204625,50.984625 39.48075,50.984625 L41.47925,50.984625 C41.755375,50.984625 41.979,51.209 41.979,51.48425 C41.979,51.761375 41.755375,51.983875 41.47925,51.983875 Z" id="Shape"></path>
                        <path d="M20.493625,57.97975 C20.2175,57.97975 19.994,57.757375 19.994,57.480125 L19.994,53.482875 C19.994,53.207625 20.2175,52.983125 20.493625,52.983125 C20.76975,52.983125 20.99325,53.207625 20.99325,53.482875 L20.99325,57.480125 C20.99325,57.757375 20.76975,57.97975 20.493625,57.97975 Z" id="Shape"></path>
                        <path d="M21.492875,55.98125 L19.49425,55.98125 C19.218125,55.98125 18.9945,55.75875 18.9945,55.4815 C18.9945,55.206375 19.218,54.981875 19.49425,54.981875 L21.492875,54.981875 C21.769125,54.981875 21.992625,55.206375 21.992625,55.4815 C21.9925,55.758625 21.769125,55.98125 21.492875,55.98125 Z" id="Shape"></path>
                        <path d="M8.3515,8.393875 C8.07525,8.393875 7.85175,8.170375 7.85175,7.89425 L7.85175,3.897 C7.85175,3.620875 8.07525,3.397375 8.3515,3.397375 C8.627625,3.397375 8.851125,3.620875 8.851125,3.897 L8.851125,7.894375 C8.851125,8.1705 8.627625,8.393875 8.3515,8.393875 Z" id="Shape"></path>
                        <path d="M9.35075,6.39525 L7.352125,6.39525 C7.076,6.39525 6.8525,6.17175 6.8525,5.895625 C6.8525,5.6195 7.076,5.396 7.352125,5.396 L9.35075,5.396 C9.626875,5.396 9.850375,5.6195 9.850375,5.895625 C9.850375,6.171875 9.627,6.39525 9.35075,6.39525 Z" id="Shape"></path>
                        <path d="M28.488125,5.016375 C28.212,5.016375 27.9885,4.792875 27.9885,4.51675 L27.9885,0.519375 C27.9885,0.24325 28.212,0.01975 28.488125,0.01975 C28.764375,0.01975 28.987875,0.24325 28.987875,0.519375 L28.987875,4.51675 C28.98775,4.792875 28.764375,5.016375 28.488125,5.016375 Z" id="Shape"></path>
                        <path d="M29.4875,3.01775 L27.488875,3.01775 C27.21275,3.01775 26.98925,2.79425 26.98925,2.518125 C26.98925,2.242 27.21275,2.0185 27.488875,2.0185 L29.4875,2.0185 C29.763625,2.0185 29.987125,2.242 29.987125,2.518125 C29.987125,2.79425 29.763625,3.01775 29.4875,3.01775 Z" id="Shape"></path>
                        <path d="M1.5065,28.00075 C1.230375,28.00075 1.006875,27.77725 1.006875,27.501 L1.006875,23.50375 C1.006875,23.227625 1.230375,23.004125 1.5065,23.004125 C1.782625,23.004125 2.006125,23.227625 2.006125,23.50375 L2.006125,27.501 C2.006125,27.77725 1.782625,28.00075 1.5065,28.00075 Z" id="Shape"></path>
                        <path d="M2.50575,26.002125 L0.50725,26.002125 C0.231125,26.002125 0.0075,25.778625 0.0075,25.5025 C0.0075,25.22625 0.231,25.00275 0.50725,25.00275 L2.505875,25.00275 C2.782125,25.00275 3.005625,25.22625 3.005625,25.5025 C3.0055,25.778625 2.782,26.002125 2.50575,26.002125 Z" id="Shape"></path>
                        <path d="M18.499875,17.00625 C17.849,17.00625 17.213625,16.82575 16.66225,16.483125 C16.429,16.342625 16.21825,16.17775 16.023125,15.9825 C14.65975,14.619125 14.65975,12.401875 16.023125,11.038625 C17.3425,9.71925 19.647625,9.71925 20.967,11.038625 C21.16225,11.23375 21.327125,11.444625 21.470625,11.68375 C22.3255,13.05975 22.119625,14.83 20.967,15.982625 C20.30725,16.64325 19.430875,17.00625 18.499875,17.00625 Z M18.494875,11.01525 C17.827375,11.01525 17.20075,11.273875 16.7295,11.74525 C15.7565,12.71925 15.7565,14.302125 16.7295,15.276125 C16.867125,15.41375 17.015375,15.52975 17.18325,15.631375 C18.15325,16.2315 19.46,16.07725 20.26025,15.276125 C21.083,14.453375 21.230375,13.190625 20.618375,12.205 C20.514,12.03125 20.397875,11.883 20.26025,11.745375 C19.789,11.27375 19.162375,11.01525 18.494875,11.01525 Z" id="Shape"></path>
                        <path d="M15.91375,16.92525 C15.69025,16.92525 15.482375,16.859875 15.314625,16.693 C15.1185,16.49875 15.1185,16.181625 15.312625,15.9865 C15.484375,15.81275 15.75175,15.79125 15.946875,15.925 C16.021125,15.91625 16.23675,15.870375 16.68275,15.6225 C17.33275,15.232125 18.128,14.59 18.85125,13.866875 C19.574375,13.14375 20.2165,12.348375 20.614625,11.68475 C20.85675,11.250375 20.901625,11.03675 20.909375,10.962625 C20.776625,10.767375 20.798,10.5 20.97075,10.32825 C21.166,10.135 21.482125,10.133 21.67725,10.33025 C22.1575,10.813375 21.7945,11.620375 21.47925,12.184375 C21.027375,12.94075 20.34725,13.783875 19.557625,14.573375 C18.768125,15.36275 17.924875,16.043 17.182375,16.487125 C16.805625,16.697875 16.331375,16.92525 15.91375,16.92525 Z" id="Shape"></path>
                        <path d="M50.763,15.70925 C50.635375,15.70925 50.507375,15.6605 50.40975,15.562875 L43.3345,8.497375 C43.139375,8.30225 43.139375,7.986 43.3345,7.790875 C43.52975,7.59575 43.846,7.59575 44.041,7.790875 L51.11625,14.856375 C51.3115,15.051625 51.3115,15.36775 51.11625,15.562875 C51.01875,15.6605 50.890875,15.70925 50.763,15.70925 Z" id="Shape"></path>
                        <path d="M21.5095,43.36275 C20.87425,43.36275 19.776375,42.870875 17.901625,40.99525 C16.347,39.4475 15.5585,38.239375 15.5575,37.405875 C15.5575,37.027375 15.714625,36.830125 15.782875,36.761875 C15.978125,36.566625 16.29425,36.566625 16.489375,36.761875 C16.65825,36.92975 16.680625,37.18925 16.55775,37.382625 C16.549,37.501625 16.585125,38.2725 18.607125,40.28875 C20.628125,42.308875 21.41875,42.351875 21.51725,42.348 C21.7115,42.226875 21.968125,42.250375 22.136,42.41825 C22.33125,42.613375 22.33125,42.9295 22.136,43.12475 C22.009125,43.251625 21.811,43.36275 21.5095,43.36275 Z" id="Shape"></path>
                    </g>
                </g>
            </g>
        </g>
    </g>
</svg>