<svg xmlns="http://www.w3.org/2000/svg" viewBox="0 0 64 64">
    <g fill="none">
        <path d="M0 0H64V64H0z"/>
        <g>
            <path fill="#5C9EFF" d="M51.466 1.49c-4.967 0-8.994 4.026-8.994 8.993v13.49H60.46v-13.49c0-4.967-4.026-8.993-8.994-8.993z" transform="translate(0 9)"/>
            <path fill="#94C1FF" d="M60.949 22.005c-.39-.149-1.898-1.328-2.487-1.529H44.46c-.59.201-2.098 1.38-2.487 1.53-1.69.629-2.529 1.258-2.529 2.948v2.517h24.033v-2.517c0-1.69-.839-2.32-2.528-2.949z" transform="translate(0 9)"/>
            <path fill="#D7E9FF" d="M43.971 22.005c.39-.149 1.898-1.328 2.488-1.529H44.46c-.59.201-2.098 1.38-2.487 1.53-1.69.629-2.529 1.258-2.529 2.948v2.517h1.999v-2.517c0-1.69.839-2.32 2.528-2.949z" transform="translate(0 9)"/>
            <path fill="#5C9EFF" d="M60.949 22.005c-.39-.149-1.898-1.328-2.487-1.529h-1.999c.59.201 2.098 1.38 2.487 1.53 1.69.629 2.53 1.258 2.53 2.948v2.517h1.998v-2.517c0-1.69-.84-2.32-2.529-2.949z" transform="translate(0 9)"/>
            <path fill="#D7E9FF" d="M47.479 18.39H55.474V21.976H47.479z" transform="translate(0 9)"/>
            <path fill="#FFF" d="M58.461 20.476L55.448 18.39 52.485 27.471 56.463 23.474 55.464 22.475zM44.465 20.476L47.479 18.39 50.442 27.471 46.464 23.474 47.463 22.475z" transform="translate(0 9)"/>
            <g fill="#94C1FF">
                <path d="M3.091 1.1L3.091 6.096 4.11 6.096 6.089.11zM2.067 6.096L3.086 6.096 3.086 1.1.087.11z" transform="translate(0 9) translate(48.375 21.375)"/>
            </g>
            <path fill="#D7E9FF" d="M55.973 6.664c-.063-.028-2.747-.098-4.507-.142-1.76.044-4.444.114-4.507.142-.093.042-2.477 4.179-2.477 4.179v1.059c0 4.462 4.325 8.562 6.984 8.573 2.66-.01 6.985-4.111 6.985-8.573v-1.059s-2.384-4.137-2.478-4.179z" transform="translate(0 9)"/>
            <path fill="#94C1FF" d="M55.973 6.664c-.063-.028-2.747-.098-4.507-.142l-1 .025c1.628.043 3.456.094 3.508.117.094.042 2.478 4.179 2.478 4.179v1.059c0 3.937-3.366 7.588-5.985 8.4.35.11.686.172 1 .173 2.658-.01 6.984-4.111 6.984-8.573v-1.059s-2.384-4.137-2.478-4.179z" transform="translate(0 9)"/>
            <path fill="#FFF" d="M46.48 11.902v-1.059s2.385-4.137 2.478-4.179c.052-.023 1.88-.074 3.508-.117l-1-.025c-1.76.044-4.444.114-4.507.142-.093.042-2.477 4.18-2.477 4.18v1.058c0 4.462 4.325 8.563 6.984 8.573.314-.001.65-.063 1-.172-2.62-.813-5.986-4.464-5.986-8.401z" transform="translate(0 9)"/>
            <path fill="#94C1FF" d="M42.601 11.943c2.722-.762 8.967-3.12 10.864-4.208 2.898-1.647 4.652-3.2 4.698-3.24-1.646-1.84-4.033-3.006-6.697-3.006-4.967 0-8.994 4.027-8.994 8.994 0 .499.051.984.13 1.46z" transform="translate(0 9)"/>
            <path fill="#D7E9FF" d="M43.472 10.483c0-4.792 3.751-8.697 8.475-8.967-.16-.009-.318-.026-.48-.026-4.968 0-8.995 4.026-8.995 8.993 0 .499.051.984.129 1.46.283-.08.611-.18.961-.29-.052-.383-.09-.771-.09-1.17z" transform="translate(0 9)"/>
            <path fill="#94C1FF" d="M60.46 10.483c0-2.412-.954-4.597-2.501-6.21l-4.494 3.472s2.232 2.466 6.94 3.721c.035-.323.055-.65.055-.983z" transform="translate(0 9)"/>
            <path fill="#5C9EFF" d="M58.157 4.5l.006-.005c-.025-.029-.055-.054-.081-.082-.042-.046-.08-.096-.123-.14-.004-.005-.015-.002-.02-.005-1.636-1.704-3.922-2.778-6.472-2.778-.172 0-.34.016-.51.026 2.351.128 4.453 1.158 5.982 2.752.006.003.017 0 .02.004.044.045.082.095.124.14.026.03.055.054.08.083l-.005.005c1.425 1.589 2.303 3.68 2.303 5.983 0 .234-.02.462-.04.69.317.103.642.202.984.294.035-.324.055-.651.055-.984 0-2.303-.877-4.394-2.303-5.983z" transform="translate(0 9)"/>
            <path fill="#94C1FF" d="M52.471 40.483v4.976H11.5v-4.976c0-2.728 1.368-3.758 4.097-4.777 1.389-.52 4.897-1.879 6.896-2.878l1.268-1.02 3.728 4.657 3.998-1.998h1l3.996 1.998 3.727-4.657 1.27 1.02c2.008 1 5.516 2.359 6.904 2.878 2.729 1.019 4.088 2.048 4.088 4.777z" transform="translate(0 9)"/>
            <path fill="#D7E9FF" d="M17.595 35.706c1.388-.52 4.897-1.879 6.895-2.878l.053-.042-.783-.978-1.268 1.02c-1.999 1-5.507 2.359-6.896 2.878-2.729 1.019-4.097 2.048-4.097 4.777v4.976h1.999v-4.976c0-2.728 1.368-3.758 4.097-4.777z" transform="translate(0 9)"/>
            <path fill="#5C9EFF" d="M46.37 35.706c-1.389-.52-4.897-1.879-6.896-2.878l-.052-.042.782-.978 1.27 1.02c1.998 1 5.506 2.359 6.895 2.878 2.728 1.019 4.096 2.048 4.096 4.777v4.976h-1.998v-4.976c0-2.728-1.368-3.758-4.097-4.777z" transform="translate(0 9)"/>
            <path fill="#D7E9FF" d="M24.523 27.476H.539v-.999-2.328c0-1.67.84-2.3 2.498-2.919.818-.31 2.288-.86 3.498-1.439l1.169-1.16 2.848 2.849 1.998-.99 1.999.99 2.838-2.838 1.14 1.139c1.218.59 2.677 1.14 3.497 1.45 1.67.619 2.499 1.248 2.499 2.918v3.328z" transform="translate(0 9)"/>
            <path fill="#FFF" d="M2.538 24.148c0-1.669.839-2.298 2.498-2.918.818-.31 2.287-.86 3.497-1.439l.166-.164-.995-.995-1.17 1.159c-1.21.58-2.68 1.129-3.497 1.439C1.378 21.85.54 22.479.54 24.148v3.329h1.998v-1-2.329z" transform="translate(0 9)"/>
            <path fill="#94C1FF" d="M22.544 24.148c0-1.669-.84-2.298-2.499-2.918-.818-.31-2.287-.86-3.497-1.439l-.166-.164.995-.995 1.17 1.159c1.21.58 2.68 1.129 3.497 1.439 1.659.62 2.498 1.249 2.498 2.918v3.329h-1.998v-1-2.329z" transform="translate(0 9)"/>
            <path fill="#5C9EFF" d="M13.571 27.476L11.572 27.476 12.072 22.05 13.072 22.05zM11.648 20.692L13.428 20.692 13.428 22.05 11.648 22.05z" transform="translate(0 9)"/>
            <path fill="#FFF" d="M10.573 21.555L7.575 18.557 8.575 17.557 12.587 19.692 12.587 20.555z" transform="translate(0 9)"/>
            <path fill="#FFF" d="M14.57 21.555L17.568 18.557 16.569 17.557 12.556 19.692 12.556 20.555z" transform="translate(0 9)"/>
            <path fill="#5C9EFF" d="M6.545 1.568s13.99-4.997 13.021 7.995l-2.109-2.998C13.1 6.305 8.223 8.254 5.555 9.523c-1.249.6-2.008 1.039-2.008 1.039 0-6.246 4.077-7.994 4.077-7.994l-1.08-1z" transform="translate(0 9)"/>
            <path fill="#2287FF" d="M11.547.635c3.412.118 7.012 1.649 7.062 7.566l.957 1.362C20.141 1.86 15.456.48 11.547.635z" transform="translate(0 9)"/>
            <path fill="#94C1FF" d="M8.7 2.802L7.543 1.568S9.863.741 12.547.635c-3.08-.106-6.002.933-6.002.933l1.079 1s-4.077 1.748-4.077 7.994c0 0 .375-.217 1.022-.549.235-5.79 4.13-7.211 4.13-7.211z" transform="translate(0 9)"/>
            <path fill="#D7E9FF" d="M19.566 9.563v1.009c0 4.747-4.327 9.124-6.995 9.124-2.659 0-6.995-4.378-6.995-9.124v-1.01l-.02-.04C8.222 8.255 13.1 6.306 17.456 6.566l2.11 2.998z" transform="translate(0 9)"/>
            <path fill="#94C1FF" d="M17.457 6.565c-.65-.039-1.31-.016-1.975.034l2.085 2.964v1.009c0 4.189-3.369 8.086-5.995 8.944.35.115.687.18.999.18 2.668 0 6.995-4.377 6.995-9.124v-1.01l-2.109-2.997z" transform="translate(0 9)"/>
            <path fill="#FFF" d="M7.574 10.572v-1.01l-.02-.04c2.27-1.08 6.14-2.639 9.926-2.923l-.023-.034C13.1 6.305 8.223 8.254 5.555 9.523l.02.04v1.009c0 4.747 4.337 9.124 6.996 9.124.313 0 .65-.066 1-.18-2.62-.858-5.997-4.755-5.997-8.944z" transform="translate(0 9)"/>
            <path fill="#94C1FF" d="M38.481 7.485s7.225-1.029 5.496 9.993l-3.497-4.996s-4.138 1.998-8.515 1.998c-4.377 0-8.474-1.998-8.474-1.998l-3.497 4.996c-.36-3.867.319-6.785 1.628-8.954C26.568.26 40.48 2.488 40.48 2.488c-3.269 1.35-1.999 4.997-1.999 4.997z" transform="translate(0 9)"/>
            <path fill="#5C9EFF" d="M38.481 7.485s4.07-.858 3.747 7.495l1.75 2.498c1.728-11.022-5.497-9.993-5.497-9.993z" transform="translate(0 9)"/>
            <path fill="#D7E9FF" d="M23.62 8.524c2.988-4.991 9.244-6.153 13.73-6.292-4.398-.137-12.261.5-15.728 6.292-1.31 2.17-1.989 5.087-1.629 8.954l1.919-2.74c.102-2.547.728-4.59 1.709-6.214z" transform="translate(0 9)"/>
            <path fill="#D7E9FF" d="M43.977 17.478v.98c0 7.814-7.425 15.01-11.992 15.01-2.988 0-7.225-3.098-9.773-7.435-1.34-2.269-2.219-4.887-2.219-7.575v-.98l3.498-4.997s4.097 2 8.474 2 8.514-2 8.514-2l3.498 4.997z" transform="translate(0 9)"/>
            <path fill="#FFF" d="M24.21 26.033c-1.339-2.269-2.218-4.887-2.218-7.575v-.98l3.049-4.356c-.963-.355-1.55-.64-1.55-.64l-3.497 4.996v.98c0 2.688.879 5.306 2.218 7.575 2.548 4.337 6.785 7.435 9.773 7.435.32 0 .654-.043.998-.112-2.877-.573-6.497-3.45-8.773-7.323z" transform="translate(0 9)"/>
            <path fill="#94C1FF" d="M39.629 26.033c1.339-2.269 2.218-4.887 2.218-7.575v-.98l-3.049-4.356c.963-.355 1.55-.64 1.55-.64l3.497 4.996v.98c0 2.688-.88 5.306-2.218 7.575-2.548 4.337-6.785 7.435-9.774 7.435-.319 0-.653-.043-.997-.112 2.877-.573 6.497-3.45 8.773-7.323z" transform="translate(0 9)"/>
            <path fill="#FFF" d="M27.488 36.465L23.491 31.469 23.491 30.469 25.837 30.469 28.524 32.414 31.985 33.467 31.989 34.467z" transform="translate(0 9)"/>
            <path fill="#FFF" d="M36.486 36.465L40.483 31.469 40.483 30.469 38.138 30.469 35.451 32.414 31.989 33.467 31.985 34.467z" transform="translate(0 9)"/>
            <g fill="#116FFF">
                <path d="M32.02 37.97c-.277 0-.505-.224-.505-.5 0-.277.219-.5.494-.5h.01c.276 0 .5.223.5.5 0 .276-.224.5-.5.5zM32.02 40.967c-.277 0-.505-.223-.505-.5 0-.276.219-.5.494-.5h.01c.276 0 .5.224.5.5 0 .277-.224.5-.5.5zM32.02 43.965c-.277 0-.505-.223-.505-.5 0-.276.219-.5.494-.5h.01c.276 0 .5.224.5.5 0 .277-.224.5-.5.5zM51.49 24.979c-.276 0-.504-.223-.504-.5 0-.276.219-.5.494-.5h.01c.276 0 .5.224.5.5 0 .277-.224.5-.5.5z" transform="translate(0 9)"/>
                <path d="M52.471 45.959H11.5c-.276 0-.5-.224-.5-.5v-4.976c0-3.021 1.554-4.174 4.422-5.245 1.67-.624 4.99-1.928 6.847-2.857.247-.124.547-.023.67.224.124.247.024.546-.223.67-2.334 1.167-6.479 2.725-6.944 2.9-2.556.953-3.772 1.842-3.772 4.308v4.476h39.973v-4.476c0-2.47-1.213-3.357-3.763-4.309-1.684-.63-5.042-1.948-6.953-2.9-.246-.122-.347-.422-.224-.669.122-.247.424-.349.67-.224 1.874.932 5.191 2.235 6.856 2.857 2.862 1.068 4.413 2.22 4.413 5.245v4.976c0 .276-.223.5-.5.5z" transform="translate(0 9)"/>
                <path d="M31.985 33.967c-3.244 0-7.631-3.302-10.204-7.681-1.496-2.535-2.287-5.242-2.287-7.828 0-.276.223-.5.5-.5.276 0 .5.224.5.5 0 2.407.742 4.939 2.148 7.321 2.369 4.032 6.472 7.189 9.343 7.189 4.324 0 11.493-7.028 11.493-14.51 0-.276.223-.5.5-.5.276 0 .499.224.499.5 0 8.26-7.786 15.509-12.492 15.509z" transform="translate(0 9)"/>
                <path d="M19.994 17.978c-.043 0-.086-.006-.128-.017-.203-.053-.35-.228-.37-.436-.345-3.706.226-6.821 1.699-9.259 3.24-5.414 10.024-6.551 15.146-6.551 2.442 0 4.146.268 4.218.28.22.035.391.213.417.435.026.222-.1.435-.306.52-2.256.932-2.013 3.138-1.815 4.011.936-.026 2.834.18 4.248 1.834 1.537 1.798 1.997 4.745 1.368 8.76-.032.202-.182.364-.38.41-.203.047-.406-.033-.523-.2l-3.26-4.657c-1.146.5-4.633 1.872-8.343 1.872-3.707 0-7.162-1.37-8.303-1.87l-3.26 4.655c-.094.135-.248.213-.409.213zm20.486-5.996c.158 0 .313.075.408.213l2.76 3.942c.315-3.063-.123-5.31-1.305-6.692-1.105-1.293-2.598-1.486-3.389-1.486-.238 0-.388.019-.404.02-.239.036-.462-.105-.541-.33-.404-1.163-.584-3.394.991-4.824-.695-.058-1.611-.11-2.66-.11-3.98 0-11.13.788-14.29 6.066-1.171 1.941-1.723 4.371-1.645 7.238l2.677-3.824c.14-.203.406-.27.628-.163.04.02 4.05 1.948 8.255 1.948 4.214 0 8.257-1.929 8.297-1.949.07-.033.145-.05.218-.05zM51.461 20.976c-1.645 0-3.807-1.363-5.38-3.39-.17-.219-.13-.533.088-.702.218-.17.532-.13.702.088 1.37 1.77 3.259 3.005 4.59 3.005 2.444 0 6.496-3.911 6.496-8.074 0-.277.223-.5.5-.5.276 0 .5.223.5.5 0 4.832-4.672 9.073-7.496 9.073zM63.483 27.971H43.478c-.277 0-.5-.223-.5-.5 0-.276.223-.5.5-.5h19.506v-2.017c0-1.303-.474-1.836-2.204-2.48-.265-.103-.595-.212-.963-.334l-.542-.18c-.26-.09-.4-.374-.312-.635.09-.262.373-.4.634-.313l.535.18c.385.127.729.242 1.003.347 1.802.672 2.848 1.447 2.848 3.415v2.517c0 .276-.223.5-.5.5zM12.508 27.971H.517c-.277 0-.5-.223-.5-.5v-3.327c0-1.94 1.034-2.711 2.821-3.386.779-.285 2.257-.846 3.459-1.422.246-.118.547-.015.666.235.12.248.014.547-.235.666-1.238.594-2.75 1.168-3.541 1.458-1.703.643-2.17 1.17-2.17 2.449v2.828h11.491c.277 0 .5.223.5.5 0 .275-.223.5-.5.5z" transform="translate(0 9)"/>
                <path d="M20.493 27.971h-7.985c-.276 0-.5-.223-.5-.5 0-.276.224-.5.5-.5h7.985c.276 0 .5.224.5.5s-.224.5-.5.5zM12.538 20.117c-2.824 0-7.495-4.493-7.495-9.614 0-.276.223-.5.5-.5.276 0 .499.224.499.5 0 4.442 4.052 8.614 6.496 8.614 1.316 0 3.189-1.3 4.554-3.163.164-.222.475-.27.699-.108.222.163.27.476.107.698-1.566 2.137-3.72 3.573-5.36 3.573z" transform="translate(0 9)"/>
                <path d="M10.53 21.975c-.13 0-.258-.05-.354-.146L7.178 18.83c-.195-.195-.195-.511 0-.707.195-.195.511-.195.707 0l2.745 2.745 1.659-.822c.19-.102.426-.081.588.073.2.19.213.501.023.7-.04.043-.098.088-.15.114l-2 .99c-.07.034-.146.051-.22.051z" transform="translate(0 9)"/>
                <path d="M14.527 21.975c-.076 0-.152-.017-.222-.052l-1.999-.989.435-.9 1.686.835 2.744-2.745c.195-.195.512-.195.707 0 .195.196.195.512 0 .707l-2.998 2.998c-.096.096-.224.146-.354.146zM3.514 10.983c-.085 0-.171-.023-.25-.067-.153-.089-.25-.254-.25-.433 0-5.03 2.516-7.291 3.736-8.092l-.577-.535c-.128-.119-.186-.296-.15-.467.035-.171.157-.312.322-.37.27-.097 6.698-2.342 10.7.318 1.848 1.228 2.862 3.287 3.017 6.12.015.277-.196.512-.472.527-.302.044-.51-.196-.526-.471-.136-2.502-1-4.3-2.572-5.344-2.814-1.87-7.202-.952-9.003-.456l.442.41c.124.114.182.284.154.45-.03.167-.141.308-.296.375-.144.063-3.414 1.558-3.747 6.678 2.11-1.108 8.09-3.955 13.412-3.639.174.01.33.11.412.264l1.067 1.993c.132.242.044.546-.198.678-.238.133-.546.045-.679-.197l-.939-1.753c-6.082-.222-13.279 3.9-13.352 3.943-.077.045-.164.068-.25.068zM12.508 22.974c-.127 0-.255-.048-.353-.146l-1-1c-.194-.194-.194-.51 0-.706.196-.195.512-.195.707 0l1 1c.195.195.195.511 0 .706-.098.098-.226.146-.354.146z" transform="translate(0 9)"/>
                <path d="M12.508 22.974c-.127 0-.255-.048-.353-.146-.195-.195-.195-.511 0-.706l1-1c.195-.195.51-.195.706 0 .195.195.195.512 0 .707l-1 1c-.097.097-.225.145-.353.145z" transform="translate(0 9)"/>
                <path d="M11.51 26.972l-.057-.003c-.274-.03-.471-.277-.44-.553l.499-4.496c.03-.275.266-.475.552-.442.274.031.472.278.441.552l-.5 4.498c-.028.255-.244.444-.495.444z" transform="translate(0 9)"/>
                <path d="M13.507 26.972c-.251 0-.468-.19-.496-.444l-.5-4.498c-.03-.274.167-.52.442-.552.28-.032.522.167.552.442l.5 4.496c.03.276-.167.523-.442.553l-.056.003zM60.466 20.337c-.276 0-.5-.224-.5-.5v-9.354c0-.276.224-.5.5-.5s.5.224.5.5v9.354c0 .276-.224.5-.5.5zM43.417 6.985c-.075 0-.151-.016-.222-.052-.248-.122-.348-.422-.226-.67C44.585 3.012 47.843.99 51.472.99c.276 0 .5.224.5.5s-.224.5-.5.5c-3.247 0-6.162 1.808-7.607 4.719-.088.176-.264.277-.448.277z" transform="translate(0 9)"/>
                <path d="M60.466 10.983c-.276 0-.5-.224-.5-.5 0-2.102-.767-4.112-2.16-5.662-1.614-1.8-3.923-2.832-6.334-2.832-.276 0-.5-.224-.5-.5s.224-.5.5-.5c2.695 0 5.274 1.153 7.077 3.164 1.559 1.733 2.417 3.981 2.417 6.33 0 .276-.224.5-.5.5z" transform="translate(0 9)"/>
                <path d="M46.476 11.203c-.22 0-.42-.145-.482-.365-.074-.266.081-.542.347-.616 2.317-.647 4.631-1.63 6.88-2.92 2.853-1.62 4.606-3.172 4.624-3.188.205-.184.522-.166.705.04.184.207.166.522-.04.706-.074.066-1.842 1.633-4.792 3.31-2.32 1.33-4.712 2.345-7.108 3.014-.045.013-.09.019-.134.019z" transform="translate(0 9)"/>
                <path d="M60.466 11.982c-.042 0-.085-.005-.127-.017-4.836-1.272-7.143-3.779-7.24-3.885-.183-.204-.168-.52.036-.705.204-.183.52-.17.706.034.021.024 2.225 2.398 6.752 3.59.267.07.426.344.356.61-.059.225-.261.373-.483.373z" transform="translate(0 9)"/>
                <path d="M58.456 12.402c-.276 0-.499-.223-.499-.5v-1.059c0-.276.223-.5.5-.5.276 0 .5.224.5.5v1.06c0 .276-.224.5-.5.5zM53.49 26.972c-.127 0-.254-.05-.352-.146-.195-.194-.197-.51-.002-.706l2.627-2.645-.647-.647c-.106-.106-.159-.254-.144-.402.015-.15.096-.284.22-.367l2.39-1.593-1.4-.98c-.226-.158-.281-.47-.122-.695.158-.227.47-.28.696-.123l1.998 1.399c.135.095.215.25.213.415-.002.165-.085.318-.223.41l-2.49 1.66.568.569c.195.195.195.51.001.706l-2.979 2.997c-.097.099-.225.148-.354.148zM49.453 26.972c-.129 0-.257-.05-.354-.148l-2.978-2.998c-.194-.195-.194-.51.001-.705l.566-.566-.488-.322c-.23-.152-.294-.462-.141-.693.151-.231.461-.293.692-.142l.999.66c.125.082.207.217.221.366.016.15-.036.298-.143.404l-.647.647 2.626 2.645c.195.196.194.512-.002.706-.097.097-.225.146-.352.146z" transform="translate(0 9)"/>
                <path d="M51.472 22.974c-2.18 0-3.304-1.098-3.351-1.145-.195-.195-.195-.512 0-.707.195-.193.51-.195.703-.003.037.035.904.856 2.648.856 1.746 0 2.613-.812 2.65-.847.198-.19.513-.185.704.01.191.197.19.51-.005.703-.047.046-1.17 1.133-3.349 1.133zM23.491 31.968c-.276 0-.5-.223-.5-.5v-.999c0-.276.224-.5.5-.5s.5.224.5.5v1c0 .276-.224.5-.5.5z" transform="translate(0 9)"/>
                <path d="M27.488 36.965c-.146 0-.291-.065-.39-.187L23.1 31.779c-.172-.216-.136-.53.08-.701.216-.172.532-.137.702.08l3.997 4.995c.171.216.137.53-.078.703-.092.073-.202.109-.313.109z" transform="translate(0 9)"/>
                <path d="M27.488 36.965c-.182 0-.359-.102-.447-.276-.122-.247-.023-.547.224-.67l3.997-2c.247-.122.547-.023.67.224.124.247.024.547-.223.67l-3.997 2c-.072.035-.148.052-.224.052zM40.48 31.968c-.277 0-.5-.223-.5-.5v-.999c0-.276.223-.5.5-.5.276 0 .5.224.5.5v1c0 .276-.224.5-.5.5z" transform="translate(0 9)"/>
                <path d="M36.482 36.965c-.11 0-.22-.036-.312-.11-.216-.172-.25-.486-.078-.702l3.996-4.996c.173-.216.488-.25.703-.08.216.173.252.487.08.703l-3.998 4.998c-.099.123-.244.187-.39.187z" transform="translate(0 9)"/>
                <path d="M36.482 36.965c-.075 0-.151-.017-.223-.053l-3.998-1.998c-.247-.124-.346-.424-.223-.67.124-.247.424-.346.67-.224l3.998 1.998c.247.124.346.424.223.67-.088.175-.264.277-.447.277z" transform="translate(0 9)"/>
            </g>
        </g>
    </g>
</svg>
