<svg xmlns="http://www.w3.org/2000/svg" width="64" height="43" viewBox="0 0 64 43">
    <g fill="none" fill-rule="evenodd">
        <g>
            <g>
                <g>
                    <g>
                        <g>
                            <g transform="translate(-118 -218) translate(70 54) translate(32 121) translate(0 31) translate(16 12)">
                                <path fill="#116FFF" fill-rule="nonzero" d="M60 0c2.21 0 4 1.79 4 4v35c0 2.21-1.79 4-4 4H4c-2.21 0-4-1.79-4-4V4c0-2.21 1.79-4 4-4h56zm0 1H4C2.343 1 1 2.343 1 4v35c0 1.657 1.343 3 3 3h56c1.657 0 3-1.343 3-3V4c0-1.657-1.343-3-3-3z"/>
                                <path fill="#116FFF" fill-rule="nonzero" d="M59 3c1.105 0 2 .895 2 2v33c0 1.105-.895 2-2 2H5c-1.105 0-2-.895-2-2V5c0-1.105.895-2 2-2h54zm0 1H5c-.552 0-1 .448-1 1v33c0 .552.448 1 1 1h54c.552 0 1-.448 1-1V5c0-.552-.448-1-1-1z"/>
                                <rect width="56" height="35" x="4" y="4" fill="#D7E9FF" fill-rule="nonzero" rx="1"/>
                                <g transform="translate(9 8)">
                                    <rect width="22" height="1" y="8" fill="#116FFF" fill-rule="nonzero" rx=".5"/>
                                    <rect width="16" height="1" y="16" fill="#94C1FF" fill-rule="nonzero" rx=".5"/>
                                    <rect width="12" height="1" y="12" fill="#116FFF" fill-rule="nonzero" rx=".5"/>
                                    <rect width="6" height="1" x="14" y="12" fill="#116FFF" fill-rule="nonzero" rx=".5"/>
                                    <path fill="#5C9EFF" d="M5 2.5c0 .7-.283 1.317-.732 1.766C3.817 4.716 3.2 5 2.5 5 1.117 5 0 3.883 0 2.5S1.117 0 2.5 0C3.884 0 5 1.117 5 2.5z"/>
                                </g>
                                <path fill="#FFF" fill-rule="nonzero" d="M6 4c-.552 0-1 .448-1 1v33c0 .552.448 1 1 1H5c-.552 0-1-.448-1-1V5c0-.552.448-1 1-1z"/>
                            </g>
                            <g fill-rule="nonzero">
                                <g transform="translate(-118 -218) translate(70 54) translate(32 121) translate(0 31) translate(16 12) translate(41 9)">
                                    <rect width="12" height="1" x="2" y="5" fill="#116FFF" rx=".5" transform="matrix(-1 0 0 1 16 0)"/>
                                    <path fill="#94C1FF" d="M0 0h12c1.105 0 2 .895 2 2s-.895 2-2 2H2C.895 4 0 3.105 0 2V0z" transform="rotate(180 7 2)"/>
                                </g>
                                <g transform="translate(-118 -218) translate(70 54) translate(32 121) translate(0 31) translate(16 12) translate(41 9) translate(0 19)">
                                    <rect width="7" height="1" x="7" y="5" fill="#116FFF" rx=".5" transform="matrix(-1 0 0 1 21 0)"/>
                                    <path fill="#94C1FF" d="M0 0h12c1.105 0 2 .895 2 2s-.895 2-2 2H2C.895 4 0 3.105 0 2V0z" transform="rotate(180 7 2)"/>
                                </g>
                                <g fill="#116FFF">
                                    <path d="M0 0h12c1.105 0 2 .895 2 2v1c0 1.105-.895 2-2 2H2C.895 5 0 4.105 0 3V0z" transform="translate(-118 -218) translate(70 54) translate(32 121) translate(0 31) translate(16 12) translate(41 9) matrix(-1 0 0 1 14 10) rotate(180 7 2.5)"/>
                                </g>
                            </g>
                        </g>
                    </g>
                </g>
            </g>
        </g>
    </g>
</svg>
