<?xml version="1.0" encoding="UTF-8"?>
<svg width="64px" height="64px" viewBox="0 0 64 64" version="1.1" xmlns="http://www.w3.org/2000/svg" xmlns:xlink="http://www.w3.org/1999/xlink">
    <title>Icon/Large/Upload_Fail</title>
    <g id="Icon/Large/Upload_Fail" stroke="none" stroke-width="1" fill="none" fill-rule="evenodd">
        <g id="code" transform="translate(1.000000, 7.000000)" fill-rule="nonzero">
            <polygon id="Path" fill="#FFFFFF" points="58.8974057 42.6850509 0.553918419 42.6850509 0.553918419 2.77174214 60.3797401 2.77174214 60.3797401 39.7119896"></polygon>
            <g id="Group" transform="translate(0.553918, 2.771742)" fill="#94C1FF">
                <polygon id="Path" points="2.21581223 39.9133087 0 39.9133087 0 0 2.21470384 0"></polygon>
            </g>
            <g id="Group" transform="translate(0.553918, 0.554182)" fill="#D7E9FF">
                <path d="M59.8258217,2.2175601 L59.8258217,1.10878005 C59.8258217,0.499276848 59.3269072,0 58.7179849,0 L1.10783684,0 C0.497667574,0 0,0.498029002 0,1.10975059 L0,2.21742145 L59.8258217,2.21742145 L59.8258217,2.2175601 Z" id="Path"></path>
            </g>
            <g id="Group" opacity="0.4" transform="translate(2.768622, 2.771742)" fill="#FFFFFF">
                <polygon id="Path" points="1.10894523 39.9133087 0.00110839103 39.9133087 0 0 1.10894523 0"></polygon>
            </g>
            <g id="Group" fill="#116FFF">
                <path d="M2.80325947,2.2172828 C2.49706645,2.2172828 2.2437991,1.96923884 2.2437991,1.6629621 C2.2437991,1.3565467 2.48625964,1.10850275 2.79134427,1.10850275 L2.80325947,1.10850275 C3.10834411,1.10850275 3.35717789,1.3565467 3.35717789,1.6629621 C3.35717789,1.96923884 3.10834411,2.2172828 2.80325947,2.2172828 Z" id="Path"></path>
                <path d="M5.01893315,2.2172828 C4.71274013,2.2172828 4.45961133,1.96923884 4.45961133,1.6629621 C4.45961133,1.3565467 4.70193332,1.10850275 5.00701795,1.10850275 L5.01893315,1.10850275 C5.32401778,1.10850275 5.57285163,1.3565467 5.57285163,1.6629621 C5.57299012,1.96923884 5.32415633,2.2172828 5.01893315,2.2172828 Z" id="Path"></path>
                <path d="M7.23474538,2.2172828 C6.92855235,2.2172828 6.675285,1.96923884 6.675285,1.6629621 C6.675285,1.3565467 6.91774554,1.10850275 7.22283017,1.10850275 L7.23474538,1.10850275 C7.53983001,1.10850275 7.7886638,1.3565467 7.7886638,1.6629621 C7.7886638,1.96923884 7.53983001,2.2172828 7.23474538,2.2172828 Z" id="Path"></path>
                <path d="M60.3797401,3.32606284 L0.553918419,3.32606284 C0.247725396,3.32606284 0,3.07801889 0,2.77174214 L0,1.66407129 C0,0.747043503 0.74539297,0 1.66175526,0 L59.2719033,0 C60.188127,0 60.9336586,0.745934307 60.9336586,1.66310075 L60.9336586,2.77188079 C60.9336586,3.07801889 60.6859332,3.32606284 60.3797401,3.32606284 Z M1.10783684,2.2172828 L59.8258217,2.2172828 L59.8258217,1.6629621 C59.8258217,1.36195403 59.5725544,1.10850275 59.2719033,1.10850275 L1.66175526,1.10850275 C1.35667063,1.10850275 1.10783684,1.35751725 1.10783684,1.66393264 L1.10783684,2.2172828 Z" id="Shape"></path>
                <path d="M60.3786317,22.1736599 L60.3786317,22.1736599 C60.0724387,22.1736599 59.8247133,21.9257546 59.8247133,21.6193392 L59.8258217,2.7716035 C59.8258217,2.4651881 60.0735471,2.21714415 60.3797401,2.21714415 L60.3797401,2.21714415 C60.6859332,2.21714415 60.9336586,2.4651881 60.9336586,2.7716035 L60.9325502,21.6193392 C60.9325502,21.9257546 60.6848248,22.1736599 60.3786317,22.1736599 Z" id="Path"></path>
                <path d="M0.553918419,43.2393716 C0.247725396,43.2393716 0,42.9902184 0,42.6850509 L0,2.77174214 C0,2.46532675 0.247725396,2.2172828 0.553918419,2.2172828 C0.860111442,2.2172828 1.10783684,2.46532675 1.10783684,2.77174214 L1.10783684,42.6851895 C1.10783684,42.9902184 0.860111442,43.2393716 0.553918419,43.2393716 Z" id="Path"></path>
                <path d="M0.553918419,43.2393716 C0.247725396,43.2393716 0,42.9902184 0,42.6850509 C0,42.3773876 0.247725396,42.1304529 0.553918419,42.1304529 L27.1431109,42.1282345 C27.449304,42.1282345 27.6970294,42.3773876 27.6970294,42.6828325 C27.6970294,42.9902184 27.449304,43.2371532 27.1431109,43.2371532 L0.553918419,43.2393716 Z" id="Path"></path>
                <path d="M2.76973065,43.2393716 C2.46353762,43.2393716 2.21581223,42.9902184 2.21581223,42.6850509 L2.21470384,2.77174214 C2.21470384,2.46532675 2.46242923,2.2172828 2.76862225,2.2172828 C3.07481528,2.2172828 3.32267922,2.46532675 3.32267922,2.77174214 L3.32378761,42.6851895 C3.32364906,42.9902184 3.07592367,43.2393716 2.76973065,43.2393716 Z" id="Path"></path>
                <path d="M1.66175526,6.65198704 L0.553918419,6.65198704 C0.247725396,6.65198704 0,6.40394308 0,6.09766634 C0,5.79125094 0.247725396,5.54320699 0.553918419,5.54320699 L1.66175526,5.54320699 C1.96794828,5.54320699 2.21581223,5.79125094 2.21581223,6.09766634 C2.21581223,6.40408173 1.96794828,6.65198704 1.66175526,6.65198704 Z" id="Path"></path>
                <path d="M1.66175526,9.97804988 L0.553918419,9.97804988 C0.247725396,9.97804988 0,9.73014458 0,9.42372918 C0,9.11731379 0.247725396,8.86940848 0.553918419,8.86940848 L1.66175526,8.86940848 C1.96794828,8.86940848 2.21581223,9.11731379 2.21581223,9.42372918 C2.21581223,9.73014458 1.96794828,9.97804988 1.66175526,9.97804988 Z" id="Path"></path>
                <path d="M1.66175526,13.3041127 L0.553918419,13.3041127 C0.247725396,13.3041127 0,13.0562074 0,12.749792 C0,12.4433766 0.247725396,12.1954713 0.553918419,12.1954713 L1.66175526,12.1954713 C1.96794828,12.1954713 2.21581223,12.4433766 2.21581223,12.749792 C2.21581223,13.0562074 1.96794828,13.3041127 1.66175526,13.3041127 Z" id="Path"></path>
                <path d="M0.553918419,16.6312848 C0.247725396,16.6312848 0,16.3832408 0,16.0769641 C0,15.7716579 0.247725396,15.5225047 0.552810028,15.5225047 L1.66064687,15.5213955 C1.66175526,15.5213955 1.66175526,15.5213955 1.66175526,15.5213955 C1.96794828,15.5213955 2.21581223,15.7694395 2.21581223,16.0747457 C2.21581223,16.3810224 1.96794828,16.6301756 1.66286365,16.6301756 L0.55502681,16.6312848 C0.553918419,16.6312848 0.553918419,16.6312848 0.553918419,16.6312848 Z" id="Path"></path>
                <path d="M1.66175526,19.9562384 L0.553918419,19.9562384 C0.247725396,19.9562384 0,19.7083331 0,19.4019177 C0,19.0955023 0.247725396,18.8474584 0.553918419,18.8474584 L1.66175526,18.8474584 C1.96794828,18.8474584 2.21581223,19.0955023 2.21581223,19.4019177 C2.21581223,19.7083331 1.96794828,19.9562384 1.66175526,19.9562384 Z" id="Path"></path>
                <path d="M1.66175526,23.2823013 L0.553918419,23.2823013 C0.247725396,23.2823013 0,23.034396 0,22.7279806 C0,22.4215652 0.247725396,22.1736599 0.553918419,22.1736599 L1.66175526,22.1736599 C1.96794828,22.1736599 2.21581223,22.4215652 2.21581223,22.7279806 C2.21581223,23.034396 1.96794828,23.2823013 1.66175526,23.2823013 Z" id="Path"></path>
                <path d="M1.66175526,26.6083641 L0.553918419,26.6083641 C0.247725396,26.6083641 0,26.3604588 0,26.0540434 C0,25.747628 0.247725396,25.4997227 0.553918419,25.4997227 L1.66175526,25.4997227 C1.96794828,25.4997227 2.21581223,25.747628 2.21581223,26.0540434 C2.21581223,26.3604588 1.96794828,26.6083641 1.66175526,26.6083641 Z" id="Path"></path>
                <path d="M0.553918419,29.9355361 C0.247725396,29.9355361 0,29.6876308 0,29.3812154 C0,29.0759092 0.247725396,28.8267561 0.552810028,28.8267561 L1.66064687,28.8256469 C1.66175526,28.8256469 1.66175526,28.8256469 1.66175526,28.8256469 C1.96794828,28.8256469 2.21581223,29.0736908 2.21581223,29.378997 C2.21581223,29.6854124 1.96794828,29.9344269 1.66286365,29.9344269 L0.55502681,29.9355361 C0.553918419,29.9355361 0.553918419,29.9355361 0.553918419,29.9355361 Z" id="Path"></path>
                <path d="M1.66175526,33.2609057 L0.553918419,33.2609057 C0.247725396,33.2609057 0,33.0120299 0,32.706585 C0,32.3991991 0.247725396,32.1522643 0.553918419,32.1522643 L1.66175526,32.1522643 C1.96794828,32.1522643 2.21581223,32.3991991 2.21581223,32.706585 C2.21581223,33.0120299 1.96794828,33.2609057 1.66175526,33.2609057 Z" id="Path"></path>
                <path d="M1.66175526,36.5872459 L0.553918419,36.5872459 C0.247725396,36.5872459 0,36.3380927 0,36.0329252 C0,35.7252619 0.247725396,35.4786045 0.553918419,35.4786045 L1.66175526,35.4786045 C1.96794828,35.4786045 2.21581223,35.7252619 2.21581223,36.0329252 C2.21581223,36.3380927 1.96794828,36.5872459 1.66175526,36.5872459 Z" id="Path"></path>
                <path d="M1.66175526,39.9131701 L0.553918419,39.9131701 C0.247725396,39.9131701 0,39.6642942 0,39.3588494 C0,39.0514634 0.247725396,38.8045287 0.553918419,38.8045287 L1.66175526,38.8045287 C1.96794828,38.8045287 2.21581223,39.0514634 2.21581223,39.3588494 C2.21581223,39.6642942 1.96794828,39.9131701 1.66175526,39.9131701 Z" id="Path"></path>
                <path d="M10.5248656,6.65198704 L6.09227132,6.65198704 C5.7860783,6.65198704 5.5383529,6.40394308 5.5383529,6.09766634 C5.5383529,5.79125094 5.7860783,5.54320699 6.09227132,5.54320699 L10.5248656,5.54320699 C10.8310586,5.54320699 11.0789226,5.79125094 11.0789226,6.09766634 C11.078784,6.40408173 10.8310586,6.65198704 10.5248656,6.65198704 Z" id="Path"></path>
                <path d="M30.46676,9.97804988 L14.9563515,9.97804988 C14.650297,9.97804988 14.4024331,9.73014458 14.4024331,9.42372918 C14.4024331,9.11731379 14.650297,8.86940848 14.9563515,8.86940848 L30.46676,8.86940848 C30.772953,8.86940848 31.0206784,9.11731379 31.0206784,9.42372918 C31.0206784,9.73014458 30.772953,9.97804988 30.46676,9.97804988 Z" id="Path"></path>
                <path d="M12.7406778,9.97804988 L7.20121655,9.97804988 C6.89502353,9.97804988 6.64729813,9.73014458 6.64729813,9.42372918 C6.64729813,9.11731379 6.89502353,8.86940848 7.20121655,8.86940848 L12.7406778,8.86940848 C13.0468709,8.86940848 13.2945963,9.11731379 13.2945963,9.42372918 C13.2945963,9.73014458 13.0468709,9.97804988 12.7406778,9.97804988 Z" id="Path"></path>
                <path d="M43.7613563,13.3041127 L29.3589232,13.3041127 C29.0528687,13.3041127 28.8050047,13.0562074 28.8050047,12.749792 C28.8050047,12.4433766 29.0528687,12.1954713 29.3589232,12.1954713 L43.7614948,12.1954713 C44.0676878,12.1954713 44.3154132,12.4433766 44.3154132,12.749792 C44.3154132,13.0562074 44.0675493,13.3041127 43.7613563,13.3041127 Z" id="Path"></path>
                <path d="M50.4087929,13.3041127 L45.9771685,13.3041127 C45.671114,13.3041127 45.4232501,13.0562074 45.4232501,12.749792 C45.4232501,12.4433766 45.671114,12.1954713 45.9771685,12.1954713 L50.4087929,12.1954713 C50.7148474,12.1954713 50.9627114,12.4433766 50.9627114,12.749792 C50.9627114,13.0562074 50.7148474,13.3041127 50.4087929,13.3041127 Z" id="Path"></path>
                <path d="M27.1431109,13.3041127 L8.30919194,13.3041127 C8.00299891,13.3041127 7.75527352,13.0562074 7.75527352,12.749792 C7.75527352,12.4433766 8.00299891,12.1954713 8.30919194,12.1954713 L27.1432495,12.1954713 C27.4494425,12.1954713 27.6971679,12.4433766 27.6971679,12.749792 C27.6971679,13.0562074 27.449304,13.3041127 27.1431109,13.3041127 Z" id="Path"></path>
                <path d="M11.6327025,19.9562384 L8.30919194,19.9562384 C8.00299891,19.9562384 7.75527352,19.7083331 7.75527352,19.4019177 C7.75527352,19.0955023 8.00299891,18.8474584 8.30919194,18.8474584 L11.632841,18.8474584 C11.939034,18.8474584 12.186898,19.0955023 12.186898,19.4019177 C12.186898,19.7083331 11.9388955,19.9562384 11.6327025,19.9562384 Z" id="Path"></path>
                <path d="M30.2937125,19.9562384 L13.8485147,19.9562384 C13.5423217,19.9562384 13.2945963,19.7083331 13.2945963,19.4019177 C13.2945963,19.0955023 13.5423217,18.8474584 13.8485147,18.8474584 L30.2937125,18.8474584 C30.5999055,18.8474584 30.8476309,19.0955023 30.8476309,19.4019177 C30.8476309,19.7083331 30.5999055,19.9562384 30.2937125,19.9562384 Z" id="Path"></path>
                <path d="M34.8983845,16.6303142 L9.41702877,16.6303142 C9.11083575,16.6303142 8.86311036,16.3822703 8.86311036,16.0759935 C8.86311036,15.7695781 9.11083575,15.5215342 9.41702877,15.5215342 L34.8983845,15.5215342 C35.2045775,15.5215342 35.4523029,15.7695781 35.4523029,16.0759935 C35.4523029,16.3822703 35.2045775,16.6303142 34.8983845,16.6303142 Z" id="Path"></path>
                <path d="M29.3589232,23.2823013 L23.8194619,23.2823013 C23.5134074,23.2823013 23.2655435,23.034396 23.2655435,22.7279806 C23.2655435,22.4215652 23.5134074,22.1736599 23.8194619,22.1736599 L29.3589232,22.1736599 C29.6651162,22.1736599 29.9129801,22.4215652 29.9129801,22.7279806 C29.9129801,23.034396 29.6651162,23.2823013 29.3589232,23.2823013 Z" id="Path"></path>
                <path d="M26.0341657,26.6083641 L7.20121655,26.6083641 C6.89502353,26.6083641 6.64729813,26.3604588 6.64729813,26.0540434 C6.64729813,25.747628 6.89502353,25.4997227 7.20121655,25.4997227 L26.0341657,25.4997227 C26.3403587,25.4997227 26.5880841,25.747628 26.5880841,26.0540434 C26.5880841,26.3604588 26.3403587,26.6083641 26.0341657,26.6083641 Z" id="Path"></path>
                <path d="M18.2800006,33.2609057 L7.20121655,33.2609057 C6.89502353,33.2609057 6.64729813,33.0120299 6.64729813,32.706585 C6.64729813,32.3991991 6.89502353,32.1522643 7.20121655,32.1522643 L18.2800006,32.1522643 C18.5861936,32.1522643 18.833919,32.3991991 18.833919,32.706585 C18.833919,33.0120299 18.5861936,33.2609057 18.2800006,33.2609057 Z" id="Path"></path>
                <path d="M7.20121655,36.5872459 C6.89502353,36.5872459 6.64729813,36.3403111 6.64729813,36.0329252 C6.64729813,35.7274803 6.89502353,35.4786045 7.20121655,35.4786045 L16.0643269,35.4786045 C16.3705199,35.4786045 16.6183839,35.7252619 16.6183839,36.0329252 C16.6183839,36.3380927 16.3705199,36.5872459 16.0643269,36.5872459 L7.20121655,36.5872459 Z" id="Path"></path>
                <path d="M26.0341657,29.9345656 L22.711625,29.9345656 C22.405432,29.9345656 22.1577066,29.6866603 22.1577066,29.3802449 C22.1577066,29.0738295 22.405432,28.8257855 22.711625,28.8257855 L26.0341657,28.8257855 C26.3403587,28.8257855 26.5880841,29.0738295 26.5880841,29.3802449 C26.5880841,29.6866603 26.3403587,29.9345656 26.0341657,29.9345656 Z" id="Path"></path>
                <path d="M20.4958128,29.9345656 L8.30919194,29.9345656 C8.00299891,29.9345656 7.75527352,29.6866603 7.75527352,29.3802449 C7.75527352,29.0738295 8.00299891,28.8257855 8.30919194,28.8257855 L20.4958128,28.8257855 C20.8020058,28.8257855 21.0498698,29.0738295 21.0498698,29.3802449 C21.0498698,29.6866603 20.8020058,29.9345656 20.4958128,29.9345656 Z" id="Path"></path>
                <path d="M10.5237572,39.9131701 L6.09324116,39.9131701 C5.78704814,39.9131701 5.53932274,39.6642942 5.53932274,39.3588494 C5.53932274,39.0514634 5.78704814,38.8045287 6.09324116,38.8045287 L10.5237572,38.8045287 C10.8299502,38.8045287 11.0778142,39.0514634 11.0778142,39.3588494 C11.0776756,39.6642942 10.8299502,39.9131701 10.5237572,39.9131701 Z" id="Path"></path>
                <path d="M21.6037882,23.2834105 L21.6037882,23.2834105 L8.30919194,23.2823013 C8.00299891,23.2823013 7.75527352,23.034396 7.75527352,22.7279806 C7.75527352,22.4215652 8.00299891,22.1736599 8.30919194,22.1736599 L8.30919194,22.1736599 L21.6037882,22.1747691 C21.9099812,22.1747691 22.1577066,22.4226744 22.1577066,22.7290898 C22.1577066,23.0355051 21.9099812,23.2834105 21.6037882,23.2834105 Z" id="Path"></path>
            </g>
        </g>
        <g id="Group-2" transform="translate(28.674706, 23.630314)" fill-rule="nonzero">
            <path d="M33.8117629,17.1851895 C33.8117629,26.3685005 26.3725194,33.8131467 17.1944875,33.8131467 C8.01548566,33.8131467 0.576242138,26.3686391 0.57721198,17.1851895 C0.576103589,7.99993747 8.01548566,0.55418205 17.1944875,0.55418205 C26.3725194,0.55418205 33.8117629,8.00007612 33.8117629,17.1851895 Z" id="Path" fill="#5C9EFF"></path>
            <g id="X" transform="translate(11.785204, 12.181691)">
                <path d="M10.6696243,1.20138561 C10.9439588,1.47426983 10.9501522,1.92434055 10.6872833,2.18628391 L7.97661177,4.88741159 C7.52603794,5.33494034 7.52603794,6.063613 7.97661177,6.51260042 L10.6872833,9.21372811 C10.9501522,9.47567147 10.9439588,9.92574219 10.6702539,10.197999 C10.4005956,10.4671849 9.9632196,10.4671849 9.69339731,10.1983126 L6.43419533,6.95051308 C6.16102804,6.67830148 5.71914909,6.67830157 5.4459819,6.95051328 L2.18677866,10.1983166 L2.18677866,10.1983166 C1.91696046,10.4671849 1.47958443,10.4671849 1.21055579,10.1986264 C0.936221242,9.92574219 0.930027898,9.47567147 1.19289678,9.21372811 L3.9035683,6.51260042 C4.35414212,6.063613 4.35414212,5.33494034 3.90299194,4.8868382 L1.19289678,2.18628391 C0.930027898,1.92434055 0.936221242,1.47426983 1.20992615,1.20201303 C1.47958443,0.932827167 1.91696046,0.932827167 2.18678276,1.20169946 L5.44605508,4.44861316 C5.71920532,4.72072766 6.1609718,4.72072775 6.43412215,4.44861336 L9.69334899,1.2017476 L9.69334899,1.2017476 C9.9632196,0.932827167 10.4005956,0.932827167 10.6696243,1.20138561 Z" id="Path-Copy" fill="#D7E9FF"></path>
                <path d="M0.504067743,0.493660636 C-0.157618817,1.15184524 -0.172556455,2.23736437 0.487038093,2.89463659 L3.19770961,5.59576427 C3.2559029,5.65356533 3.2559029,5.74625935 3.19770961,5.80424774 L0.487038093,8.50537543 C-0.172556455,9.16264765 -0.157618817,10.2481668 0.504697386,10.9069788 L0.625028128,11.0161873 C1.28773574,11.562229 2.2713103,11.5258088 2.89264144,10.9066652 L5.79861585,8.01003439 C5.87666295,7.93223824 6.00293447,7.93223214 6.08098908,8.01002075 L8.98753466,10.9066613 L8.98753466,10.9066613 C9.64770296,11.5645052 10.7168062,11.5645052 11.3761123,10.9063514 C12.0377989,10.2481668 12.0527365,9.16264765 11.393142,8.50537543 L8.68247045,5.80424774 C8.62427716,5.74625935 8.62427716,5.65356533 8.6818941,5.59633767 L11.393142,2.89463659 C12.0527365,2.23736437 12.0377989,1.15184524 11.3754827,0.49303321 L11.2556769,0.38434782 C10.5924443,-0.162216962 9.60886976,-0.125796754 8.98753862,0.493346782 L6.08093319,3.38776287 C6.00289153,3.46547725 5.87670588,3.46547116 5.79867173,3.38774924 L2.89259327,0.493298788 L2.89259327,0.493298788 C2.2324771,-0.164493225 1.1633739,-0.164493225 0.504067743,0.493660636 Z M10.6696243,1.20138561 C10.9439588,1.47426983 10.9501522,1.92434055 10.6872833,2.18628391 L7.97661177,4.88741159 C7.52603794,5.33494034 7.52603794,6.063613 7.97661177,6.51260042 L10.6872833,9.21372811 C10.9501522,9.47567147 10.9439588,9.92574219 10.6702539,10.197999 C10.4005956,10.4671849 9.9632196,10.4671849 9.69339731,10.1983126 L6.43419533,6.95051308 C6.16102804,6.67830148 5.71914909,6.67830157 5.4459819,6.95051328 L2.18677866,10.1983166 L2.18677866,10.1983166 C1.91696046,10.4671849 1.47958443,10.4671849 1.21055579,10.1986264 C0.936221242,9.92574219 0.930027898,9.47567147 1.19289678,9.21372811 L3.9035683,6.51260042 C4.35414212,6.063613 4.35414212,5.33494034 3.90299194,4.8868382 L1.19289678,2.18628391 C0.930027898,1.92434055 0.936221242,1.47426983 1.20992615,1.20201303 C1.47958443,0.932827167 1.91696046,0.932827167 2.18678276,1.20169946 L5.44605508,4.44861316 C5.71920532,4.72072766 6.1609718,4.72072775 6.43412215,4.44861336 L9.69334899,1.2017476 L9.69334899,1.2017476 C9.9632196,0.932827167 10.4005956,0.932827167 10.6696243,1.20138561 Z" id="ethernet" fill="#116FFF"></path>
            </g>
            <path d="M2.79316275,17.1851895 C2.79316275,8.37456842 9.64385064,1.18323483 18.3023243,0.610612396 C17.9346156,0.585655486 17.5677381,0.554320699 17.1944875,0.554320699 C8.01548566,0.554320699 0.576242138,8.00007612 0.57721198,17.1853282 C0.576103589,26.3686391 8.01548566,33.8132853 17.1944875,33.8132853 C17.5688465,33.8132853 17.9346156,33.7829211 18.3023243,33.7572709 C9.64385064,33.1852031 2.79316275,25.9941468 2.79316275,17.1851895 Z" id="Path" fill="#94C1FF"></path>
            <path d="M17.1631754,34.3696858 C12.5759606,34.3696858 8.26334961,32.5834643 5.01978179,29.3374022 C-1.67393021,22.6353627 -1.67296037,11.7321047 5.02089018,5.03242223 C8.264458,1.7864988 12.5759606,0 17.163314,0 C21.7496975,0 26.0621699,1.7864988 29.3057377,5.03242223 C35.9984799,11.7321047 35.9984799,22.6353627 29.3057377,29.3374022 C26.0618928,32.5834643 21.7505288,34.3696858 17.1631754,34.3696858 Z M17.1631754,1.1086414 C12.8723166,1.1086414 8.83777326,2.78033841 5.80424555,5.81620785 C-0.457886697,12.0839971 -0.457886697,22.2847181 5.80313716,28.5534779 C8.83777326,31.5893474 12.8723166,33.2610444 17.1631754,33.2610444 C21.4541728,33.2610444 25.4885776,31.5893474 28.5222438,28.5534779 C34.7832677,22.2847181 34.7832677,12.0839971 28.5222438,5.81620785 C25.4874692,2.78033841 21.4541728,1.1086414 17.1631754,1.1086414 Z" id="Shape" fill="#116FFF"></path>
        </g>
    </g>
</svg>