<svg xmlns="http://www.w3.org/2000/svg" viewBox="0 0 64 43">
    <g fill="none" fill-rule="evenodd">
        <g fill-rule="nonzero">
            <g>
                <g>
                    <g transform="translate(-124 -362) translate(101 275) translate(-1 75) translate(24 12)">
                        <path fill="#7E97B2" d="M60 0c2.21 0 4 1.79 4 4v35c0 2.21-1.79 4-4 4H4c-2.21 0-4-1.79-4-4V4c0-2.21 1.79-4 4-4h56zm0 1H4C2.343 1 1 2.343 1 4v35c0 1.657 1.343 3 3 3h56c1.657 0 3-1.343 3-3V4c0-1.657-1.343-3-3-3z"/>
                        <path fill="#7E97B2" d="M59 3c1.105 0 2 .895 2 2v33c0 1.105-.895 2-2 2H5c-1.105 0-2-.895-2-2V5c0-1.105.895-2 2-2h54zm0 1H5c-.552 0-1 .448-1 1v33c0 .552.448 1 1 1h54c.552 0 1-.448 1-1V5c0-.552-.448-1-1-1z"/>
                        <rect width="56" height="35" x="4" y="4" fill="#EAF3F9" rx="1"/>
                        <path fill="#CFDEE9" d="M18 36h29c.65 0 1.28.21 1.8.6L52 39H13l3.2-2.4c.52-.39 1.15-.6 1.8-.6z"/>
                        <g transform="translate(11 8)">
                            <rect width="38" height="24" x="1.731" y=".115" fill="#CFDEE9" rx="2.538"/>
                            <g>
                                <g>
                                    <path fill="#FFF" d="M2.538 1.27c1.405 0 2.539.85 2.539 1.903 0 1.054-1.134 1.904-2.539 1.904C1.134 5.077 0 4.227 0 3.173 0 2.12 1.134 1.27 2.538 1.27z" transform="translate(9.077 3.808)"/>
                                    <path fill="#7E97B2" d="M3.173 6.346C1.423 6.346 0 4.924 0 3.173 0 1.423 1.423 0 3.173 0s3.173 1.422 3.173 3.173c0 1.75-1.423 3.173-3.173 3.173zm0-4.76c-.875 0-1.586.713-1.586 1.587S2.298 4.76 3.173 4.76c.875 0 1.587-.713 1.587-1.587s-.712-1.586-1.587-1.586z" transform="translate(9.077 3.808)"/>
                                </g>
                                <path fill="#EAF3F9" d="M30.626 10.788C36.209 18.263 39 22.333 39 23c0 .431-1.417 1-2 1-2.667 0-8.067.091-16.201.274l9.827-13.486z"/>
                                <path fill="#EAF3F9" d="M18.723 14.354l8.09 9.148c.233.262.208.663-.054.895-.114.101-.26.158-.412.16l-14.732.193 7.108-10.396z"/>
                                <path fill="#7E97B2" d="M21.408 24.4c-.165 0-.33-.048-.48-.15-.425-.286-.556-.89-.29-1.351l9.087-14.061c.166-.286.457-.461.77-.461s.604.175.77.46L40 22c.266.46.137 1.067-.289 1.355-.076.052-.55.6-1 0-.809-1.079-3.548-5.126-8.216-12.141L22.18 23.935c-.173.3-.47.465-.772.465z"/>
                                <path fill="#7E97B2" d="M11.057 24.579c-.205 0-.207.078-.388-.071-.468-.385-.376-.986-.047-1.534L17.889 12.7c.194-.323.507-.415.849-.514.337 0 .654.193.847.52l4.15 5.731c.327.548.434.99-.035 1.373s-1.04.145-1.366-.405l-3.714-4.609-6.715 9.269c-.201.335-.523.515-.848.515z"/>
                                <path fill="#B7CCDB" d="M40 1c-1.402 0-2.538 1.137-2.538 2.538v17.924C37.462 22.863 38.598 24 40 24h-1c-1.402 0-2.538-1.137-2.538-2.538V3.538C36.462 2.137 37.598 1 39 1z" transform="matrix(-1 0 0 1 76.462 0)"/>
                                <path fill="#7E97B2" d="M37.192 0C39.295 0 41 1.705 41 3.808v17.384C41 23.295 39.295 25 37.192 25H3.808C1.705 25 0 23.295 0 21.192V3.808C0 1.705 1.705 0 3.808 0h33.384zm.27 1H4.538C3.137 1 2 2.137 2 3.538v17.924C2 22.863 3.137 24 4.538 24h32.924C38.863 24 40 22.863 40 21.462V3.538C40 2.137 38.863 1 37.462 1z"/>
                                <path fill="#FFF" d="M4.538 1C3.137 1 2 2.137 2 3.538v17.924C2 22.863 3.137 24 4.538 24h-1C2.137 24 1 22.863 1 21.462V3.538C1 2.137 2.137 1 3.538 1z"/>
                            </g>
                        </g>
                        <path fill="#FFF" d="M6 4c-.552 0-1 .448-1 1v33c0 .552.448 1 1 1H5c-.552 0-1-.448-1-1V5c0-.552.448-1 1-1z"/>
                    </g>
                </g>
            </g>
        </g>
    </g>
</svg>
