<?xml version="1.0" encoding="UTF-8"?>
<svg width="207px" height="54px" viewBox="0 0 207 54" version="1.1" xmlns="http://www.w3.org/2000/svg" xmlns:xlink="http://www.w3.org/1999/xlink">
    <title>Calque_1</title>
    <g id="Page-1" stroke="none" stroke-width="1" fill="none" fill-rule="evenodd">
        <g id="Artboard" transform="translate(-2121.000000, -1004.000000)" fill="#101113">
            <g id="Calque_1" transform="translate(2121.000000, 1004.000000)">
                <path d="M197.243853,13.8866223 C196.847658,16.334775 198.024687,18.5501634 199.835626,19.4993797 C198.569454,26.2578001 193.483305,37.0673106 190.620799,37.0673106 C187.758293,37.0673106 189.960475,27.0386337 193.080508,15.1115241 C193.740832,12.5577194 187.025333,13.1305508 185.701382,15.3954636 C183.429866,27.5058132 178.416353,36.7784187 175.301273,36.7784187 C174.069768,36.7784187 173.881575,35.264625 173.881575,33.9390237 C173.881575,28.5474749 176.815067,17.7610757 177.193102,15.4895598 C177.57444,13.2593141 174.474217,13.7479542 172.443719,14.7400916 C171.811458,15.0785078 167.080234,17.44412 164.779003,18.5369569 C163.375814,13.3468071 157.548451,14.0236396 156.378026,17.9542206 C155.527858,20.7886632 157.6475,22.6144601 159.798507,22.9957975 C159.686251,29.2820858 155.980181,37.2555031 151.740898,37.2555031 C146.443445,37.2555031 148.903154,20.3198328 155.716051,16.1564874 C155.336364,13.9807185 152.49862,13.696779 149.849069,14.8358386 C144.772825,17.0033535 141.618125,25.1715664 142.068796,31.9563997 C140.087823,35.0368131 138.10685,36.9748652 136.8869,36.9748652 C136.319021,36.9748652 135.657046,36.408637 135.657046,34.993892 C135.657046,31.0203898 137.638019,19.9500512 138.77873,12.5709259 C139.536452,7.27182254 138.590537,0.838611997 131.399605,0.838611997 C126.359679,0.838611997 123.548347,5.65402774 121.506294,13.1388049 L118.437437,13.1388049 C117.116788,13.1388049 116.355764,16.5460788 117.777112,16.6401751 C118.236038,16.6814453 119.337129,16.6863978 120.636317,16.6797945 C120.263233,18.3421612 119.913262,20.1019258 119.574845,21.9392784 C119.397658,22.8813413 119.227074,23.8536689 119.063094,24.8562615 C116.487829,30.2428579 110.46567,37.6450945 105.098883,37.6450945 C102.611111,37.6450945 101.744435,34.635666 101.89631,30.9114363 C116.486178,31.560205 120.96813,13.2362027 107.936628,13.3286482 C100.177816,13.3798233 95.3772574,21.5661951 94.8011244,29.1483702 C92.4767824,33.0096171 88.6089322,37.7325874 85.0398788,37.7325874 C77.4709103,37.7325874 82.5801704,17.0116075 87.6811764,17.0116075 C89.8569454,17.0116075 89.3848134,20.5129777 88.0592122,22.8785899 C88.5329949,25.9061773 93.3583155,26.1901168 94.4973751,21.0808567 C95.3475428,17.2014508 92.9835814,13.4161411 87.9684175,13.4161411 C79.6301711,13.4161411 74.3904969,22.7135088 74.3426234,30.6654655 C72.7429875,34.1536292 70.6629656,36.0289505 69.1409179,36.0289505 C67.9110637,36.0289505 67.7212204,34.6109038 69.2350141,26.2891655 C69.6130498,24.2074928 69.9910856,21.8418806 70.3707721,19.3821722 C70.9320478,15.8230236 69.4529212,13.749605 66.3956192,13.7066839 C66.3956192,13.7066839 66.0423456,13.7066839 65.9185348,13.7198904 C63.7840361,13.8387488 60.9314347,14.7532981 57.9137521,16.8564313 C56.09786,12.6039421 50.9341232,13.4475066 49.8396355,17.2014508 C48.9894678,20.1729106 51.1091091,22.0366763 53.2601159,22.4279185 C53.1379559,28.9106534 49.4351868,37.1647085 45.2025073,37.1647085 C39.9050547,37.1647085 42.3647632,19.6661117 49.1760094,15.4037176 C48.7979737,13.1322017 45.9602296,12.8482622 43.3106779,13.9840201 C34.1338194,17.863426 31.2944245,41.8001858 44.1624964,41.8001858 C54.3661593,41.8001858 58.3413122,27.3275256 58.5377587,20.9322837 C60.1885697,19.7040803 62.0226208,18.7383559 63.0477744,18.7135937 L63.0857431,18.7135937 C63.557875,18.7135937 63.7460675,18.903437 63.6519712,19.4696652 C63.0824414,23.821203 61.575251,31.2003282 61.575251,35.1738304 C61.575251,39.2430795 62.711009,41.7968842 66.2123791,41.7968842 C69.5007947,41.7968842 72.7446383,38.8815519 74.9616775,35.1936401 C76.1172452,39.0136168 78.9549894,41.7968842 83.8116754,41.7968842 C88.6237895,41.7968842 92.4602743,37.9422404 95.0966195,34.2031535 C96.0128196,38.5282784 98.7284038,41.7968842 103.586741,41.7968842 C110.313795,41.7968842 115.24807,36.4234943 118.094068,31.4165845 C117.919082,32.7372333 117.750699,34.0925492 117.58892,35.4577699 C116.643005,43.1224854 115.886933,46.2441691 114.655428,48.9944202 C114.150154,50.1290687 113.581941,51.2346305 112.953442,52.3059471 C112.47966,53.1577656 113.047539,53.5358013 113.805261,53.5358013 C115.507247,53.5358013 118.250895,52.4957904 119.954532,49.6563954 C121.562422,47.0150978 123.171963,44.3589429 124.873949,29.1252588 C125.250334,25.8550022 125.760434,21.1369843 126.495045,16.6368734 L128.375319,16.6368734 C130.078956,16.6368734 131.686846,13.4194428 129.695968,13.2312503 C129.345996,13.1982341 128.383573,13.1784244 127.117401,13.1635671 C128.192079,7.80833612 129.656348,3.48486206 131.683544,3.48486206 C133.575374,3.48486206 133.953409,6.41835324 133.103242,11.1495776 C131.683544,18.5287029 130.359594,27.8013084 129.791715,33.1053642 C129.13139,39.3487314 131.209761,41.8084399 134.711132,41.8084399 C137.469637,41.8084399 140.523637,39.282699 142.859535,36.0306013 C144.046468,39.4131131 146.552399,41.8084399 150.700887,41.8084399 C160.064287,41.8084399 164.183061,29.9902838 164.949037,23.2566256 C166.313511,22.8033613 167.648319,22.2652481 168.94565,21.6454341 C168.045958,26.3139276 167.352618,31.456204 167.352618,34.4293146 C167.352618,38.7808524 169.528387,41.7143436 172.839914,41.7143436 C177.71806,41.7143436 181.062603,37.1184857 183.074942,33.2952074 C183.061735,38.3318318 184.993184,41.8100907 189.58409,41.8100907 C199.51867,41.8100907 206.51976,21.6586406 206.51976,15.2237792 C206.516458,8.21113401 198.097322,8.49342269 197.243853,13.8866223 Z M108.118217,16.9142097 C112.095021,16.9142097 109.16318,27.1921591 102.208313,27.8590867 C103.089846,22.4923001 105.566063,16.9142097 108.118217,16.9142097 L108.118217,16.9142097 Z" id="Shape" fill-rule="nonzero"></path>
                <path d="M68.1900507,10.4809992 C73.7730936,10.4809992 75.0029478,0.830357942 69.1376163,0.830357942 C63.6486696,0.830357942 62.5145625,10.4809992 68.1900507,10.4809992 Z" id="Path"></path>
                <path d="M25.4224897,1.49233316 C27.2202229,2.5323441 29.8681238,6.22190673 28.8281128,14.1705618 C27.1244758,26.8487904 20.3132296,37.2555031 18.0417136,37.2555031 C16.7210648,37.2555031 16.8118594,35.2745298 18.5154964,27.8888013 C20.7853615,18.2381601 23.908696,4.51992057 11.6085031,4.51992057 C-1.44776126,4.51992057 -3.05730201,18.5220996 5.363485,20.2257366 C4.13363079,13.696779 8.01303668,7.54750798 11.7025993,7.54750798 C15.6761014,7.54750798 13.9741153,15.2105727 12.3629237,23.4431673 C10.4710943,32.9980614 8.29532537,43.8785569 15.8642939,43.8785569 C26.3667536,43.8785569 34.2196616,24.4831782 35.6393591,14.1639585 C37.4420447,1.11264663 29.4933897,-2.38707273 25.4224897,1.49233316 Z" id="Path"></path>
            </g>
        </g>
    </g>
</svg>