<svg width="139" height="36" viewBox="0 0 139 36" fill="none" xmlns="http://www.w3.org/2000/svg">
<path fill-rule="evenodd" clip-rule="evenodd" d="M134.393 13.1542C133.173 12.5191 132.381 11.0373 132.648 9.39957C133.221 5.79195 138.889 5.60212 138.889 10.285C138.889 14.5888 134.177 28.0698 127.49 28.0698C124.4 28.0698 123.1 25.7431 123.109 22.3728C121.752 24.9322 119.501 28.0065 116.218 28.0065C113.99 28.0065 112.525 26.0445 112.525 23.1331C112.525 21.144 112.991 17.7041 113.597 14.5811C112.724 14.9959 111.826 15.3561 110.907 15.6597C110.391 20.1638 107.619 28.0698 101.317 28.0698C98.5248 28.0698 96.8384 26.4646 96.0393 24.2025C94.4671 26.3793 92.4108 28.0698 90.5546 28.0698C88.1991 28.0698 86.7977 26.4243 87.2435 22.247C87.6256 18.7027 88.5168 12.4997 89.4724 7.56346C90.0452 4.39888 89.7905 2.43688 88.5168 2.43688C87.1524 2.43688 86.1674 5.32847 85.4437 8.91103C86.2959 8.92041 86.9436 8.93455 87.1795 8.95586C88.5168 9.08241 87.4343 11.2344 86.2879 11.2344H85.0221C84.5823 13.9154 84.2617 16.7125 84.0181 18.8377C83.9881 19.0987 83.9594 19.3495 83.9317 19.5888C82.7858 29.7782 81.7033 31.5508 80.6206 33.323C79.4744 35.2224 77.6276 35.9181 76.4813 35.9181C75.9718 35.9181 75.5897 35.665 75.9082 35.0953C76.3311 34.3785 76.7138 33.639 77.0545 32.8802C77.8823 31.0447 78.3917 28.9561 79.0286 23.8295C79.1367 22.9144 79.25 22.013 79.3685 21.1254C77.4534 24.4755 74.1315 28.07 69.6037 28.07C66.3391 28.07 64.5062 25.8811 63.8898 22.9878C62.1156 25.4908 59.5329 28.07 56.2942 28.07C53.0255 28.07 51.1168 26.2101 50.3375 23.6546C48.8466 26.1196 46.6623 28.07 44.4494 28.07C42.0932 28.07 41.3289 26.3612 41.3289 23.6397C41.3289 21.8328 41.7997 18.9732 42.2212 16.4126C42.4199 15.206 42.6076 14.0658 42.7299 13.1333C42.7936 12.7535 42.6663 12.627 42.3478 12.627C42.3435 12.627 42.3394 12.6267 42.3353 12.6265C42.3311 12.6262 42.327 12.626 42.3228 12.626C41.6327 12.6428 40.3944 13.2889 39.2869 14.1098C39.1546 18.3883 36.4791 28.07 29.6115 28.07C20.9507 28.07 22.8606 12.0577 29.0384 9.46262C30.8214 8.70353 32.7319 8.89336 32.9866 10.4123C28.4015 13.2604 26.7453 24.9693 30.3119 24.9693C33.1607 24.9693 35.6523 19.4472 35.7351 15.1112C34.2869 14.8505 32.8603 13.6049 33.4324 11.6149C34.1693 9.10406 37.6464 8.53899 38.8668 11.3842C40.8982 9.97369 42.8186 9.36268 44.2548 9.28295C44.3387 9.27644 44.5758 9.27445 44.5758 9.27445C46.6343 9.30228 47.6292 10.6898 47.2514 13.0706C46.9966 14.7162 46.7419 16.2984 46.4872 17.6908C45.4679 23.2601 45.5956 24.2098 46.4235 24.2098C47.4485 24.2098 48.8481 22.9545 49.9247 20.6209C49.9574 15.3014 53.4837 9.08274 59.0962 9.08274C62.4713 9.08274 64.0634 11.6142 63.4902 14.2093C62.7265 17.6271 59.4783 17.4372 59.1598 15.4119C60.0514 13.8297 60.3698 11.4879 58.9052 11.4879C55.4665 11.4879 52.0275 25.3486 57.1221 25.3486C59.5242 25.3486 62.1271 22.1849 63.6916 19.6017C64.0794 14.5299 67.3078 9.05348 72.5331 9.01947C81.3039 8.95763 78.2869 21.2152 68.4678 20.781C68.3651 23.2725 68.9482 25.2853 70.6226 25.2853C74.2349 25.2853 78.2887 20.3336 80.0221 16.7303C80.1333 16.0618 80.2478 15.4098 80.3659 14.779C80.5942 13.5499 80.8297 12.3737 81.0803 11.2609C80.2059 11.2658 79.4646 11.2625 79.1559 11.2347C78.2007 11.1714 78.7102 8.89292 79.6017 8.89292C80.2124 8.89292 80.9256 8.89292 81.6667 8.8938C83.0412 3.8866 84.9344 0.665039 88.3262 0.665039C93.1655 0.665039 93.8023 4.96836 93.2928 8.51315C93.1149 9.66248 92.906 10.9456 92.69 12.2715C91.9785 16.6406 91.1914 21.4738 91.1914 23.5131C91.1914 24.4626 91.6372 24.8422 92.0193 24.8422C92.8429 24.8422 94.1741 23.5452 95.5066 21.4843C95.2033 16.9463 97.3267 11.4825 100.744 10.0321C102.527 9.27279 104.437 9.46251 104.692 10.9182C100.107 13.703 98.4506 25.0322 102.017 25.0322C104.87 25.0322 107.365 19.698 107.441 15.4926C105.993 15.2375 104.566 14.0162 105.138 12.1208C105.925 9.49133 109.848 9.03868 110.792 12.5097C112.341 11.7824 115.526 10.1996 115.951 9.97347C117.318 9.30946 119.405 8.98325 119.148 10.4751C119.082 10.8642 118.904 11.6268 118.676 12.6068C118.011 15.4533 116.919 20.1333 116.919 22.817C116.919 23.7031 117.047 24.7157 117.874 24.7157C119.976 24.7157 123.351 18.5132 124.879 10.4119C125.77 8.89292 130.292 8.51315 129.846 10.222C127.745 18.1967 126.28 24.9055 128.19 24.9055C130.117 24.9055 133.54 17.6747 134.393 13.1542ZM68.6822 18.7463C73.3625 18.2998 75.3369 11.4248 72.6592 11.4248H72.6597C70.9416 11.4248 69.2751 15.1561 68.6822 18.7463Z" fill="white"/>
<path fill-rule="evenodd" clip-rule="evenodd" d="M45.7861 7.12099C49.5433 7.12099 50.3711 0.665283 46.4229 0.665283C42.7293 0.665283 41.9651 7.12099 45.7861 7.12099Z" fill="white"/>
<path fill-rule="evenodd" clip-rule="evenodd" d="M17.0019 1.10856C18.2118 1.80482 19.9949 4.27314 19.2944 9.58954C18.1481 18.0705 13.563 25.0327 12.0347 25.0327C11.1431 25.0327 11.2068 23.7035 12.3531 18.7668C13.8814 12.3111 15.983 3.13395 7.70433 3.13395C-1.08378 3.13395 -2.16633 12.501 3.50133 13.6402C2.67344 9.27316 5.28444 5.15922 7.768 5.15922C10.4427 5.15922 9.29633 10.2858 8.21378 15.7921C6.94011 22.1846 5.47544 29.4633 10.57 29.4633C17.6387 29.4633 22.9243 16.4886 23.8796 9.58987C25.0889 0.855236 19.7402 -1.48653 17.0019 1.10856Z" fill="white"/>
</svg>
