<?xml version="1.0" encoding="UTF-8"?>
<svg viewBox="0 0 26 22" version="1.1" xmlns="http://www.w3.org/2000/svg" xmlns:xlink="http://www.w3.org/1999/xlink">
    <title>AU</title>
        <defs>
        <filter x="-66.7%" y="-85.7%" width="233.3%" height="271.4%" filterUnits="objectBoundingBox" id="filter-1">
            <feOffset dx="0" dy="2" in="SourceAlpha" result="shadowOffsetOuter1"></feOffset>
            <feGaussianBlur stdDeviation="2" in="shadowOffsetOuter1" result="shadowBlurOuter1"></feGaussianBlur>
            <feColorMatrix values="0 0 0 0 0.0745098039   0 0 0 0 0.129411765   0 0 0 0 0.266666667  0 0 0 0.129812047 0" type="matrix" in="shadowBlurOuter1" result="shadowMatrixOuter1"></feColorMatrix>
            <feMerge>
                <feMergeNode in="shadowMatrixOuter1"></feMergeNode>
                <feMergeNode in="SourceGraphic"></feMergeNode>
            </feMerge>
        </filter>
        <rect id="path-2" x="0" y="0" width="18" height="14" rx="2"></rect>
        <linearGradient x1="50%" y1="0%" x2="50%" y2="100%" id="linearGradient-4">
            <stop stop-color="currentColor" offset="0%"></stop>
            <stop stop-color="currentColor" offset="100%"></stop>
        </linearGradient>
        <linearGradient x1="50%" y1="0%" x2="50%" y2="100%" id="linearGradient-5">
            <stop stop-color="currentColor" offset="0%"></stop>
            <stop stop-color="currentColor" offset="100%"></stop>
        </linearGradient>
    </defs>
    <g id="Team-Mode" stroke="none" stroke-width="1" fill="none" fill-rule="evenodd">
        <g id="Skills_dashboard_create-team_1-step" transform="translate(-779.000000, -310.000000)">
            <g id="AU" filter="url(#filter-1)" transform="translate(783.000000, 312.000000)">
                <mask id="mask-3" fill="white">
                    <use xlink:href="#path-2"></use>
                </mask>
                <use id="Mask" fill="#FFFFFF" xlink:href="#path-2"></use>
                <rect id="Mask-Copy" fill="#0A17A7" mask="url(#mask-3)" x="0" y="0" width="18" height="14"></rect>
                <path d="M2.66666667,2.94485077 L-0.845673441,-0.333333333 L0.428571429,-0.333333333 L0.6332183,-0.263117406 L3.54294068,2 L4.18304826,2 L8.04761905,-0.630055118 L8.04761905,0.127518717 C8.04761905,0.416569267 7.88713422,0.754516133 7.66315427,0.92872276 L5.04761905,2.96302794 L5.04761905,3.58848257 L7.69622254,6.06051249 C7.98635848,6.33130604 7.91487726,6.69979407 7.6148856,6.8238909 L7.6148856,6.86666667 C7.5748677,6.86666667 7.53295346,6.86389527 7.4899482,6.85862287 C7.45680386,6.86389325 7.4218234,6.86666667 7.3851144,6.86666667 L7.3851144,6.84131821 C7.18192372,6.79952324 6.96929851,6.70951937 6.8252891,6.59751205 L4.17134504,4.53333333 L3.53123745,4.53333333 L-0.333333333,7.16338845 L-0.333333333,5.90363873 L2.66666667,3.5703054 L2.66666667,2.94485077 Z" id="Rectangle-36" stroke="#FFFFFF" stroke-width="0.666666667" fill="#FF2E3B" mask="url(#mask-3)"></path>
                <path d="M0,2.33333333 L0,4.2 L3,4.2 L3,6.33643909 C3,6.70291366 3.29860578,7 3.65788487,7 L4.05640084,7 C4.41974062,7 4.71428571,6.70035095 4.71428571,6.33643909 L4.71428571,4.2 L7.48179408,4.2 C7.84688913,4.2 8.14285714,3.90833333 8.14285714,3.52609049 L8.14285714,3.00724284 C8.14285714,2.6350529 7.85053907,2.33333333 7.48179408,2.33333333 L4.71428571,2.33333333 L4.71428571,0 L3,0 L3,2.33333333 L0,2.33333333 Z" id="Rectangle-2" fill="url(#linearGradient-4)" mask="url(#mask-3)"></path>
                <polygon id="Rectangle-36" fill="url(#linearGradient-5)" mask="url(#mask-3)" points="0 2.8 3.42857143 2.8 3.42857143 2.33333333 3.42857143 0 4.28571429 0 4.28571429 2.33333333 4.28571429 2.8 7.71428571 2.8 7.71428571 3.73333333 4.28571429 3.73333333 4.28571429 4.2 4.28571429 6.53333333 3.42857143 6.53333333 3.42857143 4.2 3.42857143 3.73333333 0 3.73333333"></polygon>
                <polygon id="Star-2" fill="#FFFFFF" mask="url(#mask-3)" points="4.22278695 11.1 3.46706305 11.5326238 3.61139347 10.6163119 3 9.96737621 3.844925 9.8336881 4.22278695 9 4.6006489 9.8336881 5.4455739 9.96737621 4.83418042 10.6163119 4.97851085 11.5326238"></polygon>
                <polygon id="Star-2" fill="#FFFFFF" mask="url(#mask-3)" points="12.6060915 12.126633 12 12.3199327 12.1775201 11.6599663 12 11 12.6060915 11.1932997 13.2121831 11 13.034663 11.6599663 13.2121831 12.3199327"></polygon>
                <polygon id="Star-2" fill="#FFFFFF" mask="url(#mask-3)" points="12.6060915 3.126633 12 3.31993266 12.1775201 2.65996633 12 2 12.6060915 2.19329966 13.2121831 2 13.034663 2.65996633 13.2121831 3.31993266"></polygon>
                <polygon id="Star-2" fill="#FFFFFF" mask="url(#mask-3)" points="15.6060915 6.126633 15 6.31993266 15.1775201 5.65996633 15 5 15.6060915 5.19329966 16.2121831 5 16.034663 5.65996633 16.2121831 6.31993266"></polygon>
                <polygon id="Star-2" fill="#FFFFFF" mask="url(#mask-3)" points="10.6060915 7.126633 10 7.31993266 10.1775201 6.65996633 10 6 10.6060915 6.19329966 11.2121831 6 11.034663 6.65996633 11.2121831 7.31993266"></polygon>
                <polygon id="Star-2" fill="#FFFFFF" mask="url(#mask-3)" points="14.3030458 8.5633165 14 8.65996633 14.08876 8.32998316 14 8 14.3030458 8.09664983 14.6060915 8 14.5173315 8.32998316 14.6060915 8.65996633"></polygon>
            </g>
        </g>
    </g>
</svg>