<?xml version="1.0" encoding="UTF-8"?>
<svg  viewBox="0 0 26 22" version="1.1" xmlns="http://www.w3.org/2000/svg" xmlns:xlink="http://www.w3.org/1999/xlink">
    <title>US</title>
        <defs>
        <filter x="-66.7%" y="-85.7%" width="233.3%" height="271.4%" filterUnits="objectBoundingBox" id="filter-1">
            <feOffset dx="0" dy="2" in="SourceAlpha" result="shadowOffsetOuter1"></feOffset>
            <feGaussianBlur stdDeviation="2" in="shadowOffsetOuter1" result="shadowBlurOuter1"></feGaussianBlur>
            <feColorMatrix values="0 0 0 0 0.0745098039   0 0 0 0 0.129411765   0 0 0 0 0.266666667  0 0 0 0.129812047 0" type="matrix" in="shadowBlurOuter1" result="shadowMatrixOuter1"></feColorMatrix>
            <feMerge>
                <feMergeNode in="shadowMatrixOuter1"></feMergeNode>
                <feMergeNode in="SourceGraphic"></feMergeNode>
            </feMerge>
        </filter>
        <rect id="path-2" x="0" y="0" width="18" height="14" rx="2"></rect>
        <linearGradient x1="50%" y1="0%" x2="50%" y2="100%" id="linearGradient-4">
            <stop stop-color="currentColor" offset="0%"></stop>
            <stop stop-color="currentColor" offset="100%"></stop>
        </linearGradient>
        <path d="M1.42857143,1.93333333 C1.19187796,1.93333333 1,1.72439955 1,1.46666667 C1,1.20893378 1.19187796,1 1.42857143,1 C1.66526489,1 1.85714286,1.20893378 1.85714286,1.46666667 C1.85714286,1.72439955 1.66526489,1.93333333 1.42857143,1.93333333 Z M3.14285714,1.93333333 C2.90616368,1.93333333 2.71428571,1.72439955 2.71428571,1.46666667 C2.71428571,1.20893378 2.90616368,1 3.14285714,1 C3.37955061,1 3.57142857,1.20893378 3.57142857,1.46666667 C3.57142857,1.72439955 3.37955061,1.93333333 3.14285714,1.93333333 Z M4.85714286,1.93333333 C4.62044939,1.93333333 4.42857143,1.72439955 4.42857143,1.46666667 C4.42857143,1.20893378 4.62044939,1 4.85714286,1 C5.09383632,1 5.28571429,1.20893378 5.28571429,1.46666667 C5.28571429,1.72439955 5.09383632,1.93333333 4.85714286,1.93333333 Z M6.57142857,1.93333333 C6.33473511,1.93333333 6.14285714,1.72439955 6.14285714,1.46666667 C6.14285714,1.20893378 6.33473511,1 6.57142857,1 C6.80812204,1 7,1.20893378 7,1.46666667 C7,1.72439955 6.80812204,1.93333333 6.57142857,1.93333333 Z M2.28571429,2.86666667 C2.04902082,2.86666667 1.85714286,2.65773288 1.85714286,2.4 C1.85714286,2.14226712 2.04902082,1.93333333 2.28571429,1.93333333 C2.52240775,1.93333333 2.71428571,2.14226712 2.71428571,2.4 C2.71428571,2.65773288 2.52240775,2.86666667 2.28571429,2.86666667 Z M4,2.86666667 C3.76330654,2.86666667 3.57142857,2.65773288 3.57142857,2.4 C3.57142857,2.14226712 3.76330654,1.93333333 4,1.93333333 C4.23669346,1.93333333 4.42857143,2.14226712 4.42857143,2.4 C4.42857143,2.65773288 4.23669346,2.86666667 4,2.86666667 Z M5.71428571,2.86666667 C5.47759225,2.86666667 5.28571429,2.65773288 5.28571429,2.4 C5.28571429,2.14226712 5.47759225,1.93333333 5.71428571,1.93333333 C5.95097918,1.93333333 6.14285714,2.14226712 6.14285714,2.4 C6.14285714,2.65773288 5.95097918,2.86666667 5.71428571,2.86666667 Z M6.57142857,3.8 C6.33473511,3.8 6.14285714,3.59106622 6.14285714,3.33333333 C6.14285714,3.07560045 6.33473511,2.86666667 6.57142857,2.86666667 C6.80812204,2.86666667 7,3.07560045 7,3.33333333 C7,3.59106622 6.80812204,3.8 6.57142857,3.8 Z M4.85714286,3.8 C4.62044939,3.8 4.42857143,3.59106622 4.42857143,3.33333333 C4.42857143,3.07560045 4.62044939,2.86666667 4.85714286,2.86666667 C5.09383632,2.86666667 5.28571429,3.07560045 5.28571429,3.33333333 C5.28571429,3.59106622 5.09383632,3.8 4.85714286,3.8 Z M3.14285714,3.8 C2.90616368,3.8 2.71428571,3.59106622 2.71428571,3.33333333 C2.71428571,3.07560045 2.90616368,2.86666667 3.14285714,2.86666667 C3.37955061,2.86666667 3.57142857,3.07560045 3.57142857,3.33333333 C3.57142857,3.59106622 3.37955061,3.8 3.14285714,3.8 Z M1.42857143,3.8 C1.19187796,3.8 1,3.59106622 1,3.33333333 C1,3.07560045 1.19187796,2.86666667 1.42857143,2.86666667 C1.66526489,2.86666667 1.85714286,3.07560045 1.85714286,3.33333333 C1.85714286,3.59106622 1.66526489,3.8 1.42857143,3.8 Z M2.28571429,4.73333333 C2.04902082,4.73333333 1.85714286,4.52439955 1.85714286,4.26666667 C1.85714286,4.00893378 2.04902082,3.8 2.28571429,3.8 C2.52240775,3.8 2.71428571,4.00893378 2.71428571,4.26666667 C2.71428571,4.52439955 2.52240775,4.73333333 2.28571429,4.73333333 Z M4,4.73333333 C3.76330654,4.73333333 3.57142857,4.52439955 3.57142857,4.26666667 C3.57142857,4.00893378 3.76330654,3.8 4,3.8 C4.23669346,3.8 4.42857143,4.00893378 4.42857143,4.26666667 C4.42857143,4.52439955 4.23669346,4.73333333 4,4.73333333 Z M5.71428571,4.73333333 C5.47759225,4.73333333 5.28571429,4.52439955 5.28571429,4.26666667 C5.28571429,4.00893378 5.47759225,3.8 5.71428571,3.8 C5.95097918,3.8 6.14285714,4.00893378 6.14285714,4.26666667 C6.14285714,4.52439955 5.95097918,4.73333333 5.71428571,4.73333333 Z M6.57142857,5.66666667 C6.33473511,5.66666667 6.14285714,5.45773288 6.14285714,5.2 C6.14285714,4.94226712 6.33473511,4.73333333 6.57142857,4.73333333 C6.80812204,4.73333333 7,4.94226712 7,5.2 C7,5.45773288 6.80812204,5.66666667 6.57142857,5.66666667 Z M4.85714286,5.66666667 C4.62044939,5.66666667 4.42857143,5.45773288 4.42857143,5.2 C4.42857143,4.94226712 4.62044939,4.73333333 4.85714286,4.73333333 C5.09383632,4.73333333 5.28571429,4.94226712 5.28571429,5.2 C5.28571429,5.45773288 5.09383632,5.66666667 4.85714286,5.66666667 Z M3.14285714,5.66666667 C2.90616368,5.66666667 2.71428571,5.45773288 2.71428571,5.2 C2.71428571,4.94226712 2.90616368,4.73333333 3.14285714,4.73333333 C3.37955061,4.73333333 3.57142857,4.94226712 3.57142857,5.2 C3.57142857,5.45773288 3.37955061,5.66666667 3.14285714,5.66666667 Z M1.42857143,5.66666667 C1.19187796,5.66666667 1,5.45773288 1,5.2 C1,4.94226712 1.19187796,4.73333333 1.42857143,4.73333333 C1.66526489,4.73333333 1.85714286,4.94226712 1.85714286,5.2 C1.85714286,5.45773288 1.66526489,5.66666667 1.42857143,5.66666667 Z" id="path-5"></path>
        <filter x="-8.3%" y="-10.7%" width="116.7%" height="141.1%" filterUnits="objectBoundingBox" id="filter-6">
            <feOffset dx="0" dy="1" in="SourceAlpha" result="shadowOffsetOuter1"></feOffset>
            <feColorMatrix values="0 0 0 0 0   0 0 0 0 0   0 0 0 0 0  0 0 0 0.06 0" type="matrix" in="shadowOffsetOuter1"></feColorMatrix>
        </filter>
    </defs>
    <g id="Team-Mode" stroke="none" stroke-width="1" fill="none" fill-rule="evenodd">
        <g id="Skills_dashboard_create-team_1-step" transform="translate(-978.000000, -350.000000)">
            <g id="US" filter="url(#filter-1)" transform="translate(982.000000, 352.000000)">
                <mask id="mask-3" fill="white">
                    <use xlink:href="#path-2"></use>
                </mask>
                <use id="Mask" fill="#FFFFFF" xlink:href="#path-2"></use>
                <path d="M0,0 L18,0 L18,0.933333333 L0,0.933333333 L0,0 Z M0,1.86666667 L18,1.86666667 L18,2.8 L0,2.8 L0,1.86666667 Z M0,3.73333333 L18,3.73333333 L18,4.66666667 L0,4.66666667 L0,3.73333333 Z M0,5.6 L18,5.6 L18,6.53333333 L0,6.53333333 L0,5.6 Z M0,7.46666667 L18,7.46666667 L18,8.4 L0,8.4 L0,7.46666667 Z M0,9.33333333 L18,9.33333333 L18,10.2666667 L0,10.2666667 L0,9.33333333 Z M0,11.2 L18,11.2 L18,12.1333333 L0,12.1333333 L0,11.2 Z M0,13.0666667 L18,13.0666667 L18,14 L0,14 L0,13.0666667 Z" id="Rectangle-511" fill="#D02F44" mask="url(#mask-3)"></path>
                <rect id="Rectangle-511" fill="#46467F" mask="url(#mask-3)" x="0" y="0" width="7.71428571" height="6.53333333"></rect>
                <g id="Oval-43" mask="url(#mask-3)">
                    <use fill="currentColor" fill-opacity="1" filter="url(#filter-6)" xlink:href="#path-5"></use>
                    <use fill="url(#linearGradient-4)" fill-rule="evenodd" xlink:href="#path-5"></use>
                </g>
            </g>
        </g>
    </g>
</svg>