<?xml version="1.0" encoding="UTF-8"?>
<svg  viewBox="0 0 25 21" version="1.1" xmlns="http://www.w3.org/2000/svg" xmlns:xlink="http://www.w3.org/1999/xlink">
            <defs>
        <filter x="-57.1%" y="-75.0%" width="214.3%" height="250.0%" filterUnits="objectBoundingBox" id="filter-1">
            <feOffset dx="0" dy="2" in="SourceAlpha" result="shadowOffsetOuter1"></feOffset>
            <feGaussianBlur stdDeviation="2" in="shadowOffsetOuter1" result="shadowBlurOuter1"></feGaussianBlur>
            <feColorMatrix values="0 0 0 0 0.168627451   0 0 0 0 0.223529412   0 0 0 0 0.31372549  0 0 0 0.103091033 0" type="matrix" in="shadowBlurOuter1" result="shadowMatrixOuter1"></feColorMatrix>
            <feMerge>
                <feMergeNode in="shadowMatrixOuter1"></feMergeNode>
                <feMergeNode in="SourceGraphic"></feMergeNode>
            </feMerge>
        </filter>
        <ellipse id="path-2" cx="3.23333333" cy="3.26666667" rx="3.23333333" ry="3.26666667"></ellipse>
    </defs>
    <g id="Artboard" stroke="none" stroke-width="1" fill="none" fill-rule="evenodd">
        <g id="BR" filter="url(#filter-1)" transform="translate(2.000000, 2.000000)">
            <rect id="Mask-Copy" fill="#05AB41" x="0" y="0" width="21" height="16" rx="3"></rect>
            <path d="M3.32957619,8.37042628 C3.02270501,8.16584549 3.02224624,7.83446035 3.32957619,7.62957372 L9.94436059,3.21971746 C10.2512318,3.01513667 10.7483095,3.01483083 11.0556394,3.21971746 L17.6704238,7.62957372 C17.977295,7.83415451 17.9777538,8.16553965 17.6704238,8.37042628 L11.0556394,12.7802825 C10.7487682,12.9848633 10.2516905,12.9851692 9.94436059,12.7802825 L3.32957619,8.37042628 Z" id="Rectangle-60" fill="#FDD216"></path>
            <g id="Oval-2" transform="translate(7.000000, 5.000000)">
                <mask id="mask-3" fill="white">
                    <use xlink:href="#path-2"></use>
                </mask>
                <use id="Mask" fill="#053087" xlink:href="#path-2"></use>
                <path d="M-0.974903455,3.28084488 C-0.435368145,2.80651943 1.48688162,3.00009947 3.28593591,3.22540177 C5.08499019,3.45070407 7.00671403,4.11728926 7.5259841,4.57214389" id="Line" stroke="#FFFFFF" stroke-width="1.33333333" stroke-linecap="square" mask="url(#mask-3)" transform="translate(3.275540, 3.780211) rotate(6.000000) translate(-3.275540, -3.780211) "></path>
            </g>
        </g>
    </g>
</svg>