<?xml version="1.0" encoding="UTF-8"?>
<svg width="24px" height="16px" viewBox="0 0 24 16" version="1.1" xmlns="http://www.w3.org/2000/svg" xmlns:xlink="http://www.w3.org/1999/xlink">
    <title>Icon/System/Cards/Amex</title>
    <g id="Icon/System/Cards/Amex" stroke="none" stroke-width="1" fill="none" fill-rule="evenodd">
        <g id="American-Express">
            <path d="M22,0 L2,0 C0.89543,0 0,0.89543 0,2 L0,14 C0,15.1046 0.89543,16 2,16 L22,16 C23.1046,16 24,15.1046 24,14 L24,2 C24,0.89543 23.1046,0 22,0 Z" id="Path" fill="#016FD0" fill-rule="nonzero"></path>
            <polygon id="Path" fill="#FFFFFE" points="13.7641 13.3939 13.7641 7.69247 23.9116 7.70158 23.9116 9.27647 22.7387 10.5299 23.9116 11.7948 23.9116 13.4031 22.039 13.4031 21.0438 12.3049 20.0557 13.4072"></polygon>
            <polygon id="Path" fill="#016FD0" points="14.4418 12.7688 14.4418 8.31992 18.2141 8.31992 18.2141 9.3448 15.6632 9.3448 15.6632 10.0405 18.1533 10.0405 18.1533 11.0483 15.6632 11.0483 15.6632 11.7316 18.2141 11.7316 18.2141 12.7688"></polygon>
            <polygon id="Path" fill="#016FD0" points="18.1953 12.7688 20.2826 10.5418 18.1952 8.32001 19.8108 8.32001 21.0863 9.73004 22.3654 8.32001 23.9116 8.32001 23.9116 8.35501 21.8687 10.5418 23.9116 12.7057 23.9116 12.7688 22.3499 12.7688 21.0518 11.3446 19.767 12.7688"></polygon>
            <polygon id="Path" fill="#FFFFFE" points="14.2373 2.63196 16.6834 2.63196 17.5425 4.58281 17.5425 2.63196 20.5624 2.63196 21.0831 4.09353 21.6057 2.63196 23.9116 2.63196 23.9116 8.33335 11.7251 8.33335"></polygon>
            <path d="M14.7005,3.25134 L12.7265,7.69651 L14.0804,7.69651 L14.4528,6.80635 L16.4707,6.80635 L16.8429,7.69651 L18.2305,7.69651 L16.2647,3.25134 L14.7005,3.25134 Z M14.8701,5.80878 L15.4621,4.39371 L16.0537,5.80878 L14.8701,5.80878 Z" id="Shape" fill="#016FD0"></path>
            <polygon id="Path" fill="#016FD0" points="18.212 7.69572 18.212 3.25064 20.1151 3.25718 21.0944 5.98991 22.08 3.25064 23.9116 3.25064 23.9116 7.69572 22.733 7.70615 22.733 4.65281 21.6204 7.69572 20.5446 7.69572 19.409 4.64238 19.409 7.69572"></polygon>
        </g>
    </g>
</svg>