<?xml version="1.0" encoding="UTF-8"?>
<svg width="24px" height="16px" viewBox="0 0 24 16" version="1.1" xmlns="http://www.w3.org/2000/svg" xmlns:xlink="http://www.w3.org/1999/xlink">
    <title>Icon/System/Cards/Diners</title>
    <g id="Icon/System/Cards/Diners" stroke="none" stroke-width="1" fill="none" fill-rule="evenodd">
        <g id="Visa" transform="translate(0.250000, 0.250000)" fill="#FFFFFF" fill-rule="nonzero" stroke="#DFE3ED" stroke-width="0.5">
            <path d="M21.5,0 L2,0 C0.89543,0 0,0.89543 0,2 L0,13.5 C0,14.6046 0.89543,15.5 2,15.5 L21.5,15.5 C22.6046,15.5 23.5,14.6046 23.5,13.5 L23.5,2 C23.5,0.89543 22.6046,0 21.5,0 Z" id="Path"></path>
        </g>
        <g id="Type=Color,-showText=False,-showSymbol=True" transform="translate(6.000000, 2.750000)">
            <path d="M0.217226016,5.34065144 C0.217226016,2.54122769 2.45910938,0.271866698 5.22454688,0.271866698 C7.99007813,0.271866698 10.2319688,2.54122769 10.2319688,5.34065144 C10.2319688,8.14007519 7.99007813,10.4095596 5.22454688,10.4095596 C2.45910938,10.4095596 0.217226016,8.14007519 0.217226016,5.34065144 Z" id="Path" fill="#FFFFFE"></path>
            <path d="M8.25285937,5.24086521 C8.25084375,3.94281382 7.44930469,2.83579399 6.31985156,2.3973609 L6.31985156,8.08413227 C7.44930469,7.64515351 8.25084375,6.53913012 8.25285937,5.24086521 Z M4.16524219,8.08304093 L4.16524219,2.39795402 C3.03679688,2.83773942 2.23650234,3.94319342 2.23347891,5.24088893 C2.23650234,6.53825231 3.03679688,7.64358768 4.16524219,8.08304093 Z M5.24313281,0.434215055 C2.62073437,0.435235219 0.496127344,2.58632841 0.495679687,5.24086521 C0.496127344,7.89504614 2.62073437,10.0458119 5.24313281,10.0462627 C7.86553125,10.0458119 9.9905625,7.89504614 9.99124219,5.24086521 C9.9905625,2.58632841 7.86553125,0.435235219 5.24313281,0.434215055 Z M5.23148437,10.4999401 C2.36186719,10.5136874 0,8.16038357 0,5.2957168 C0,2.16490595 2.36186719,-0.000566798434 5.23148437,1.11336562e-07 L6.57625781,1.11336562e-07 C9.41196094,-0.000566798434 12,2.16388579 12,5.2957168 C12,8.1593634 9.41196094,10.4999401 6.57625781,10.4999401 L5.23148437,10.4999401 Z" id="Shape" fill="#0069AA"></path>
        </g>
    </g>
</svg>