<?xml version="1.0" encoding="UTF-8"?>
<svg width="24px" height="16px" viewBox="0 0 24 16" version="1.1" xmlns="http://www.w3.org/2000/svg" xmlns:xlink="http://www.w3.org/1999/xlink">
    <title>Icon/System/Cards/Discover</title>
    <g id="Icon/System/Cards/Discover" stroke="none" stroke-width="1" fill="none" fill-rule="evenodd">
        <g id="Discover" transform="translate(0.250000, 0.249940)" fill-rule="nonzero">
            <path d="M21.7472,15.5000236 L21.7494,15.5000236 C22.7045,15.5081596 23.4881,14.7273596 23.5,13.7542596 L23.5,1.75635963 C23.4962,1.28574963 23.3089,0.836229635 22.9797,0.506861635 C22.6514,0.178328635 22.2089,-0.00379136518 21.7472,5.98594136e-05 L1.75064,5.98594136e-05 C1.29109,-0.00379136518 0.84858,0.178328635 0.520279,0.506861635 C0.191145,0.836229635 0.003838,1.28574963 0,1.75431963 L0,13.7437596 C0.003838,14.2143596 0.191145,14.6638596 0.520279,14.9932596 C0.84858,15.3217596 1.29109,15.5038596 1.75277,15.5000236 L21.7472,15.5000236 Z" id="Shape" stroke="#DFE3ED" stroke-width="0.5" fill="#FFFFFF"></path>
            <path d="M12.3624,15.7499596 L21.7473,15.7499596 C22.274,15.7543596 22.781,15.5493596 23.1566,15.1799596 C23.5322,14.8105596 23.7456,14.3071596 23.75,13.7803596 L23.75,11.4217596 C20.2062,13.4560596 16.3628,14.9168596 12.3624,15.7499596 Z" id="Path" fill="#F27712"></path>
            <path d="M22.9224,9.04654963 L22.07,9.04654963 L21.11,7.78034963 L21.019,7.78034963 L21.019,9.04654963 L20.3238,9.04654963 L20.3238,5.90172963 L21.35,5.90172963 C22.1528,5.90172963 22.6162,6.23275963 22.6162,6.82861963 C22.6162,7.31689963 22.3266,7.63137963 21.8052,7.73068963 L22.9224,9.04654963 Z M21.8962,6.85344963 C21.8962,6.54723963 21.6645,6.38999963 21.2341,6.38999963 L21.019,6.38999963 L21.019,7.34172963 L21.2176,7.34172963 C21.6645,7.34172963 21.8962,7.17620963 21.8962,6.85344963 Z M17.8907,5.90172963 L19.8604,5.90172963 L19.8604,6.43137963 L18.5859,6.43137963 L18.5859,7.13482963 L19.8107,7.13482963 L19.8107,7.67275963 L18.5859,7.67275963 L18.5859,8.52517963 L19.8604,8.52517963 L19.8604,9.05482963 L17.8907,9.05482963 L17.8907,5.90172963 Z M15.6562,9.12930963 L14.15,5.89344963 L14.9114,5.89344963 L15.8631,8.01206963 L16.8231,5.89344963 L17.5679,5.89344963 L16.0452,9.12930963 L15.6728,9.12930963 L15.6562,9.12930963 Z M9.35828,9.12103963 C8.29897,9.12103963 7.47139,8.40103963 7.47139,7.46586963 C7.47139,6.55551963 8.31553,5.81896963 9.37484,5.81896963 C9.67277,5.81896963 9.921,5.87689963 10.2273,6.00930963 L10.2273,6.73758963 C9.9954,6.50976963 9.68336,6.38199963 9.35828,6.38172963 C8.69621,6.38172963 8.19139,6.86172963 8.19139,7.46586963 C8.19139,8.10310963 8.68794,8.55827963 9.39139,8.55827963 C9.70587,8.55827963 9.9459,8.45896963 10.2273,8.21068963 L10.2273,8.93896963 C9.9128,9.07137963 9.64794,9.12103963 9.35828,9.12103963 Z M7.25622,8.08654963 C7.25622,8.69896963 6.75139,9.12103963 6.02311,9.12103963 C5.49346,9.12103963 5.11277,8.93896963 4.79001,8.52517963 L5.24518,8.13620963 C5.40242,8.41758963 5.66725,8.55827963 5.99828,8.55827963 C6.31277,8.55827963 6.53622,8.36792963 6.53622,8.11965963 C6.53622,7.97896963 6.47001,7.87137963 6.32932,7.78861963 C6.17506,7.71376963 6.01442,7.65282963 5.84932,7.60654963 C5.19553,7.39965963 4.97208,7.17620963 4.97208,6.73758963 C4.97208,6.22448963 5.45208,5.83551963 6.08104,5.83551963 C6.47828,5.83551963 6.83415,5.95965963 7.13208,6.19137963 L6.76794,6.60517963 C6.62362,6.44695963 6.41934,6.35682963 6.20518,6.35689963 C5.90725,6.35689963 5.69208,6.50586963 5.69208,6.70448963 C5.69208,6.86999963 5.81622,6.96103963 6.23001,7.10172963 C7.02449,7.34999963 7.25622,7.58172963 7.25622,8.09482963 L7.25622,8.08654963 Z M3.83828,5.90172963 L4.53346,5.90172963 L4.53346,9.05482963 L3.83828,9.05482963 L3.83828,5.90172963 Z M1.6038,9.05482963 L0.577595,9.05482963 L0.577595,5.90172963 L1.6038,5.90172963 C2.72932,5.90172963 3.50725,6.54723963 3.50725,7.47413963 C3.50725,7.94586963 3.27553,8.39275963 2.87001,8.69068963 C2.52242,8.93896963 2.13346,9.05482963 1.59553,9.05482963 L1.6038,9.05482963 Z M2.41484,6.68792963 C2.18311,6.50586963 1.91828,6.43965963 1.46311,6.43965963 L1.27277,6.43965963 L1.27277,8.52517963 L1.46311,8.52517963 C1.91001,8.52517963 2.19139,8.44241963 2.41484,8.27689963 C2.65484,8.07827963 2.79553,7.78034963 2.79553,7.47413963 C2.79553,7.16792963 2.65484,6.87827963 2.41484,6.68792963 Z" id="Shape" fill="#000000"></path>
            <path d="M12.1638,5.81896963 C11.2535,5.81896963 10.5086,6.54723963 10.5086,7.44930963 C10.5086,8.40930963 11.2204,9.12930963 12.1638,9.12930963 C13.0907,9.12930963 13.819,8.40103963 13.819,7.47413963 C13.819,6.54723963 13.099,5.81896963 12.1638,5.81896963 Z" id="Path" fill="#F27712"></path>
        </g>
    </g>
</svg>