<?xml version="1.0" encoding="UTF-8"?>
<svg width="24px" height="16px" viewBox="0 0 24 16" version="1.1" xmlns="http://www.w3.org/2000/svg" xmlns:xlink="http://www.w3.org/1999/xlink">
    <title>Icon/System/Cards/Mastercard</title>
    <g id="Icon/System/Cards/Mastercard" stroke="none" stroke-width="1" fill="none" fill-rule="evenodd">
        <g id="Mastercard">
            <path d="M22,0 L2,0 C0.89543,0 0,0.89543 0,2 L0,14 C0,15.1046 0.89543,16 2,16 L22,16 C23.1046,16 24,15.1046 24,14 L24,2 C24,0.89543 23.1046,0 22,0 Z" id="Path" fill="#252525" fill-rule="nonzero"></path>
            <path d="M9,13 C11.7614,13 14,10.7614 14,8 C14,5.23858 11.7614,3 9,3 C6.23858,3 4,5.23858 4,8 C4,10.7614 6.23858,13 9,13 Z" id="Path" fill="#EB001B" fill-rule="nonzero"></path>
            <path d="M15,13 C17.7614,13 20,10.7614 20,8 C20,5.23858 17.7614,3 15,3 C12.2386,3 10,5.23858 10,8 C10,10.7614 12.2386,13 15,13 Z" id="Path" fill="#F79E1B" fill-rule="nonzero"></path>
            <path d="M12,3.99963 C13.2144,4.91184 14,6.36418 14,8 C14,9.63582 13.2144,11.0882 12,12.0004 C10.7856,11.0882 10,9.63582 10,8 C10,6.36418 10.7856,4.91184 12,3.99963 Z" id="Path" fill="#FF5F00"></path>
        </g>
    </g>
</svg>