<?xml version="1.0" encoding="UTF-8"?>
<svg width="24px" height="16px" viewBox="0 0 24 16" version="1.1" xmlns="http://www.w3.org/2000/svg" xmlns:xlink="http://www.w3.org/1999/xlink">
    <title>Icon/System/Cards/Union</title>
    <g id="Icon/System/Cards/Union" stroke="none" stroke-width="1" fill="none" fill-rule="evenodd">
        <g id="Union-Pay" transform="translate(0.500000, 0.000061)" fill-rule="nonzero">
            <path d="M4.50423072,0 L10.2449741,0 C11.0462671,0 11.54466,0.72639413 11.3577874,1.62053568 L8.6850538,14.3818757 C8.49642743,15.2729702 7.69410399,16 6.8921868,16 L1.15203791,16 C0.351808115,16 -0.147725271,15.2729702 0.0392150797,14.3818757 L2.71304815,1.62053568 C2.89998018,0.72639413 3.70189737,0 4.50423072,0 Z" id="Path" fill="#DD2423"></path>
            <path d="M9.76725013,0 L16.3689648,0 C17.1701587,0 16.8087991,0.72639413 16.6203411,1.62053568 L13.9480435,14.3818757 C13.7605764,15.2729702 13.819036,16 13.0161577,16 L6.41451235,16 C5.61161423,16 5.1147472,15.2729702 5.30336365,14.3818757 L7.97551269,1.62053568 C8.1652488,0.72639413 8.96548156,0 9.76725013,0 Z" id="Path" fill="#16315E"></path>
            <path d="M16.1070856,0 L21.8478191,0 C22.650202,0 23.148694,0.72639413 22.960137,1.62053568 L20.2879384,14.3818757 C20.0992823,15.2729702 19.296404,16 18.4940211,16 L12.7559629,16 C11.9530846,16 11.455088,15.2729702 11.6431496,14.3818757 L14.3158436,1.62053568 C14.5028153,0.72639413 15.3042073,0 16.1070856,0 Z" id="Path" fill="#036862"></path>
            <path d="M6.00349177,4.08966423 C5.41314881,4.09635094 5.23880046,4.08966423 5.18311521,4.07503955 C5.16170314,4.1881631 4.76333559,6.23181455 4.76221594,6.23352627 C4.67644876,6.6469813 4.6140357,6.94170715 4.40205522,7.13201819 C4.2817176,7.24265925 4.14123619,7.29603283 3.97836178,7.29603283 C3.71656182,7.29603283 3.56404169,7.15147772 3.53843837,6.87728248 L3.5335337,6.78313798 C3.5335337,6.78313798 3.61329639,6.22932205 3.61329639,6.22620892 C3.61329639,6.22620892 4.03139158,4.36384946 4.1062496,4.11767234 C4.11016342,4.10366829 4.11128307,4.09635094 4.112264,4.08966423 C3.29846663,4.0976022 3.15420021,4.08966423 3.14426207,4.07503955 C3.13881245,4.0951097 3.11865875,4.2105756 3.11865875,4.2105756 L2.69174508,6.30961265 L2.65508397,6.48763134 L2.58414967,7.06993587 C2.58414967,7.24265925 2.61464775,7.38364077 2.67537639,7.50284043 C2.86986853,7.88081985 3.42467993,7.93746671 3.73852876,7.93746671 C4.14291071,7.93746671 4.52224421,7.8419208 4.77859454,7.66747569 C5.22355142,7.37508218 5.33996531,6.91805341 5.44379552,6.51190571 L5.49193057,6.30354656 C5.49193057,6.30354656 5.92261934,4.36929493 5.99580284,4.11767234 C5.99859702,4.10366829 5.99971667,4.09635094 6.00349177,4.08966423 Z M7.46888588,5.65004056 C7.36506558,5.65004056 7.17532947,5.67804867 7.00489494,5.77095193 C6.94304666,5.80627739 6.88455733,5.84704832 6.82285767,5.88765908 L6.87854292,5.66404462 L6.84804484,5.62638681 C6.48661584,5.70776851 6.4057335,5.71866945 6.0718796,5.77095193 L6.04388835,5.7916427 C6.00513656,6.14909151 5.97071475,6.41783128 5.8270032,7.12041654 C5.77229888,7.37934646 5.71548407,7.64077889 5.65854045,7.89908819 L5.67392821,7.93193115 C6.01604572,7.911851 6.11987593,7.911851 6.41720744,7.91729646 L6.44127496,7.88819725 C6.47905572,7.67299123 6.48396039,7.62257061 6.56762698,7.18670308 C6.60695346,6.98005565 6.68894553,6.52597984 6.72938175,6.36429754 C6.8036849,6.32601912 6.87700712,6.28836131 6.94697039,6.28836131 C7.11361991,6.28836131 7.09332749,6.45004361 7.08689693,6.51445827 C7.07975297,6.62261684 7.01903424,6.97585143 6.9567599,7.27913587 L6.91520403,7.47489237 C6.88624176,7.61945749 6.8544754,7.75997855 6.82551312,7.90329241 L6.83810671,7.93193115 C7.17532947,7.911851 7.27816884,7.911851 7.5661369,7.91729646 L7.59999393,7.88819725 C7.65205271,7.55207985 7.66730175,7.46213957 7.75965802,6.9727383 L7.80610864,6.74788259 C7.89636433,6.30781084 7.9416953,6.08466684 7.87341646,5.9029144 C7.80121389,5.69920992 7.62798519,5.65004056 7.46888588,5.65004056 Z M9.10590352,6.11079307 C8.92666042,6.14907149 8.81233721,6.17458711 8.69871749,6.19108367 C8.58607871,6.21116382 8.4762341,6.2293721 8.30301531,6.25612896 L8.28930207,6.26998287 L8.27670848,6.28103396 C8.25865536,6.42450798 8.24606178,6.54852247 8.22213297,6.69432883 C8.20184055,6.8451202 8.17063897,7.01645218 8.11984847,7.2626293 C8.08053191,7.45106846 8.06023949,7.51674438 8.0378564,7.58303092 C8.01602817,7.64931746 7.99196065,7.71374213 7.94773942,7.89907818 L7.95809371,7.91619536 L7.96677348,7.93191113 C8.12866696,7.92335254 8.23458784,7.91728645 8.34345152,7.91619536 C8.45216657,7.91184099 8.56481527,7.91619536 8.73915371,7.91728645 L8.75441265,7.90343255 L8.77078134,7.88818724 C8.79596852,7.72105948 8.79974362,7.67608433 8.81514129,7.59454248 C8.83039033,7.5070947 8.85669715,7.38602316 8.92120089,7.06266858 C8.95169897,6.91078611 8.98570462,6.75938413 9.01733226,6.60438855 C9.05020836,6.45002359 9.08463017,6.29799098 9.11737746,6.14611853 L9.1124728,6.12775009 L9.10590352,6.11079307 Z M9.10971826,5.48955947 C8.94684385,5.38265215 8.66098627,5.4165762 8.46858481,5.56425445 C8.27674812,5.70896971 8.25491989,5.9143759 8.41722953,6.02268462 C8.57730977,6.12662897 8.86428699,6.09566789 9.05501394,5.9467484 C9.24642457,5.79892001 9.27035337,5.59537569 9.10971826,5.48955947 Z M10.0947627,7.96541477 C10.4242172,7.96541477 10.7619949,7.86442339 11.0162446,7.56471253 C11.2119357,7.32164854 11.3016068,6.96000552 11.3326201,6.81108603 C11.4337849,6.31749055 11.3550131,6.08702921 11.2561272,5.94666832 C11.1058166,5.73270354 10.8402713,5.66407465 10.5647184,5.66407465 C10.3990499,5.66407465 10.0044971,5.68228292 9.69621675,5.99833018 C9.47485301,6.22629902 9.37256851,6.53565956 9.31085895,6.83224728 C9.24859451,7.13445063 9.17695672,7.67846672 9.62681826,7.88091995 C9.76562515,7.94720649 9.96575518,7.96541477 10.0947627,7.96541477 Z M10.0690008,6.85481993 C10.1449983,6.48103472 10.2346694,6.16731981 10.4635536,6.16731981 C10.6429949,6.16731981 10.6559749,6.40074413 10.5762122,6.77576057 C10.5619441,6.85901414 10.4964495,7.16852484 10.4078683,7.30032714 C10.3460399,7.39758477 10.2728167,7.45656397 10.1919641,7.45656397 C10.1678867,7.45656397 10.0248093,7.45656397 10.0225304,7.22018669 C10.0214404,7.10347954 10.0428426,6.98427989 10.0690008,6.85481993 Z M12.1564051,7.91734651 L12.182167,7.8882473 C12.2186299,7.67303127 12.2246741,7.6224605 12.3055267,7.18675313 C12.345953,6.98009569 12.429679,6.52601988 12.4690154,6.36434759 C12.5434275,6.32590901 12.6154617,6.2882512 12.687694,6.2882512 C12.8531644,6.2882512 12.8330503,6.4499335 12.8265108,6.51435817 C12.8204666,6.62265689 12.7597281,6.97574132 12.6963143,7.27902576 L12.657077,7.47478226 C12.6269554,7.61950754 12.5941586,7.75986843 12.565226,7.90334246 L12.5778097,7.93197119 C12.9161819,7.91190105 13.0150678,7.91190105 13.3047896,7.91734651 L13.3397663,7.8882473 C13.3904974,7.55196974 13.40427,7.46202946 13.4993908,6.97278835 L13.5446722,6.74777248 C13.6354332,6.30770073 13.6813091,6.08470688 13.6141301,5.90295444 C13.5398171,5.69925997 13.3654291,5.65009061 13.208579,5.65009061 C13.1046398,5.65009061 12.9139029,5.67793856 12.7444691,5.77100198 C12.6839288,5.80631743 12.6231902,5.84693821 12.5635416,5.88770913 L12.6154617,5.66409467 L12.587619,5.6262767 C12.2263585,5.70781856 12.1438214,5.71870949 11.8103044,5.77100198 L11.7847407,5.79169275 C11.7443144,6.14913155 11.7114185,6.41772117 11.5677466,7.12045658 C11.5130522,7.37939651 11.4561779,7.64082894 11.3994027,7.89913824 L11.4146617,7.93197119 C11.7572944,7.91190105 11.8596483,7.91190105 12.1564051,7.91734651 Z M14.6422266,7.93189111 C14.6635296,7.81643522 14.7898618,7.13204822 14.7909518,7.13204822 C14.7909518,7.13204822 14.8985571,6.62989415 14.9050966,6.61168587 C14.9050966,6.61168587 14.9389834,6.55940339 14.9728701,6.53870261 L15.0227094,6.53870261 C15.4926652,6.53870261 16.0234586,6.53870261 16.4394136,6.19838099 C16.7224968,5.96496669 16.916008,5.6202907 17.0023103,5.20138019 C17.0247033,5.09867709 17.0412503,4.97652447 17.0412503,4.85437185 C17.0412503,4.6939308 17.0123178,4.53521148 16.9285917,4.41118698 C16.7164527,4.08113567 16.2940573,4.07506958 15.8063654,4.07257708 C15.8048792,4.07257708 15.5659874,4.07506958 15.5659874,4.07506958 C14.9417577,4.08362817 14.6914713,4.08113567 14.5886221,4.06713161 C14.5800018,4.11770237 14.5635538,4.20765267 14.5635538,4.20765267 C14.5635538,4.20765267 14.3400201,5.36010952 14.3400201,5.36197139 C14.3400201,5.36197139 13.804867,7.812231 13.7796996,7.9276969 C14.3247612,7.92037956 14.5481958,7.92037956 14.6422266,7.93189111 Z M15.0564971,5.88467609 C15.0564971,5.88467609 15.2942989,4.73455158 15.2931099,4.73890595 L15.3008384,4.67992674 L15.3042073,4.63496161 L15.3992289,4.64585254 C15.3992289,4.64585254 15.889497,4.69268956 15.9009907,4.6939308 C16.0945019,4.77718437 16.1742646,4.99176978 16.1185794,5.27187095 C16.0677492,5.52785791 15.9184295,5.74306394 15.7266027,5.84701829 C15.5686627,5.93508669 15.3751515,5.94240404 15.1757943,5.94240404 L15.0467869,5.94240404 L15.0564971,5.88467609 Z M16.5367142,6.87612132 C16.4738949,7.17396029 16.4016626,7.71797638 16.8493245,7.91187102 C16.9920055,7.9793988 17.1199231,7.99947896 17.2499214,7.99216161 C17.3871529,7.98391333 17.5143768,7.90735649 17.6321878,7.79718589 C17.6215858,7.84246134 17.6108847,7.8877468 17.6002827,7.93318241 L17.6205949,7.96228162 C17.9425191,7.94719648 18.042495,7.94719648 18.3912709,7.95014944 L18.4228788,7.92338257 C18.473808,7.5903783 18.5218637,7.2670137 18.6542401,6.6299442 C18.7187438,6.32478788 18.7830494,6.02259453 18.8492376,5.71867946 L18.8389328,5.68522588 C18.4787622,5.75945039 18.3824524,5.77532632 18.0360545,5.82994115 L18.0096981,5.85375505 C18.0062302,5.88471613 18.0025641,5.91443596 17.9991952,5.94416581 C17.9453926,5.84736864 17.8673143,5.7647457 17.7468281,5.71323399 C17.5927523,5.64585636 17.2308973,5.73268352 16.9198723,6.04763967 C16.7012928,6.2725054 16.5963628,6.58061468 16.5367142,6.87612132 Z M17.2931221,6.89432959 C17.3702095,6.52724111 17.4587906,6.21663932 17.6882694,6.21663932 C17.8334276,6.21663932 17.9098214,6.36555881 17.8942652,6.61951373 C17.8819788,6.68284731 17.8687015,6.74960432 17.852848,6.82508008 C17.8299596,6.93415958 17.8049904,7.04230814 17.7808139,7.15061686 C17.756142,7.22469122 17.7275067,7.29456135 17.6959979,7.34108806 C17.6369438,7.43414147 17.4964426,7.49186941 17.41559,7.49186941 C17.3926025,7.49186941 17.2510113,7.49186941 17.2461562,7.25969635 C17.2450663,7.1440803 17.2664684,7.0250408 17.2931221,6.89432959 Z M21.2433071,5.68225289 L21.2154645,5.64692743 C20.8590591,5.72722804 20.7945553,5.73998084 20.4671815,5.78916021 L20.4431041,5.81592708 C20.4419151,5.82028145 20.4410233,5.82696816 20.4393389,5.83304426 L20.4381499,5.82696816 C20.194403,6.45237595 20.2015371,6.31746052 20.0031708,6.80981476 C20.0020808,6.78740226 20.0020808,6.7733982 20.0008918,6.74959431 L19.9512507,5.68225289 L19.9200392,5.64692743 C19.5466904,5.72722804 19.5378719,5.73998084 19.1931584,5.78916021 L19.1663066,5.81592708 C19.1624423,5.82867988 19.1624423,5.84268394 19.1602625,5.85793925 L19.1624423,5.86338472 C19.2055439,6.10832059 19.1952392,6.05369575 19.2384398,6.44023377 C19.258653,6.62992418 19.2855048,6.82070569 19.3056188,7.00806376 C19.3396047,7.32161851 19.3586288,7.47598347 19.4002441,7.9544938 C19.1673965,8.38180274 19.1122067,8.54347503 18.8880785,8.91850149 L18.8896639,8.92223524 L18.7318229,9.1998439 C18.7137896,9.22910327 18.6973417,9.24917342 18.6744532,9.25773201 C18.6492859,9.27158592 18.616489,9.27407842 18.5710095,9.27407842 L18.4836173,9.27407842 L18.353619,9.75491109 L18.7994973,9.76346968 C19.0612775,9.76222843 19.2258561,9.62607176 19.3144373,9.44306806 L19.5948453,8.90870165 L19.5903865,8.90870165 L19.6199135,8.87104385 C19.8085696,8.41946054 21.2433071,5.68225289 21.2433071,5.68225289 Z M16.5367142,11.9973821 L16.3475627,11.9973821 L17.0476908,9.42182673 L17.2799439,9.42182673 L17.3537615,9.1565104 L17.3608956,9.45154657 C17.3521762,9.63392964 17.4811836,9.79560193 17.8201503,9.76884508 L18.2120278,9.76884508 L18.3468813,9.27290725 L18.1994441,9.27290725 C18.1146282,9.27290725 18.0752918,9.24909334 18.080246,9.19806211 L18.0731119,8.89788079 L17.3473211,8.89788079 L17.3473211,8.89944236 C17.1126899,8.90488782 16.4118682,8.92449751 16.2699798,8.96650968 C16.0983662,9.01567904 15.9174387,9.16040431 15.9174387,9.16040431 L15.988482,8.89476766 L15.3095578,8.89476766 L15.1680658,9.42182673 L14.4585247,12.0367216 L14.3208969,12.0367216 L14.1858453,12.5291159 L15.5380457,12.5291159 L15.4927643,12.6932807 L16.1590057,12.6932807 L16.2032963,12.5291159 L16.3901688,12.5291159 L16.5367142,11.9973821 Z M15.9819424,9.94515205 C15.8731481,9.97860564 15.6708184,10.0800575 15.6708184,10.0800575 L15.8507551,9.42182673 L16.3901688,9.42182673 L16.2600714,9.90141815 C16.2600714,9.90141815 16.093412,9.91230909 15.9819424,9.94515205 Z M15.9922472,10.885466 C15.9922472,10.885466 15.8228134,10.9091898 15.7112447,10.9372179 C15.6014595,10.9742551 15.3954637,11.0908721 15.3954637,11.0908721 L15.5813455,10.4058845 L16.1235336,10.4058845 L15.9922472,10.885466 Z M15.6900407,12.0033881 L15.1489425,12.0033881 L15.3057926,11.4253079 L15.8452064,11.4253079 L15.6900407,12.0033881 Z M16.9930955,10.4058845 L17.7729863,10.4058845 L17.6609222,10.8095898 L16.8706275,10.8095898 L16.7520239,11.2508327 L17.4435317,11.2508327 L16.9198723,12.0707558 C16.8832112,12.1310163 16.8503153,12.1523377 16.8138524,12.1692546 C16.7771912,12.1899754 16.7290364,12.2142999 16.6733511,12.2142999 L16.4815244,12.2142999 L16.3497425,12.697585 L16.8515043,12.697585 C17.1122936,12.697585 17.2663694,12.5656526 17.3801179,12.3924787 L17.7391986,11.8459301 L17.816286,12.4008872 C17.8326349,12.5047915 17.8998139,12.5656526 17.9452935,12.5892763 C17.9955291,12.6173044 18.0474492,12.6653526 18.1207714,12.6725599 C18.1993451,12.6762636 18.2562193,12.6792666 18.2939704,12.6792666 L18.5404916,12.6792666 L18.6885232,12.1383236 L18.5913217,12.1383236 C18.5354383,12.1383236 18.4393267,12.1279131 18.4229778,12.1084936 C18.406629,12.0847698 18.406629,12.0484334 18.3978105,11.9929777 L18.3195341,11.4368194 L17.9992943,11.4368194 L18.1397955,11.2508327 L18.9285048,11.2508327 L19.0498828,10.8095898 L18.3195341,10.8095898 L18.4333817,10.4058845 L19.1613524,10.4058845 L19.296404,9.90811488 L17.1258681,9.90811488 L16.9930955,10.4058845 Z M10.4056885,12.115801 L10.587706,11.4423249 L11.3358899,11.4423249 L11.4726259,10.9414221 L10.7237484,10.9414221 L10.8379923,10.526906 L11.5698274,10.526906 L11.7054735,10.0418191 L9.87436993,10.0418191 L9.74157745,10.526906 L10.157582,10.526906 L10.0466078,10.9414221 L9.62950344,10.9414221 L9.49125142,11.4509336 L9.90711722,11.4509336 L9.66448012,12.341928 C9.63174274,12.4598463 9.67987779,12.5048916 9.71037587,12.5596465 C9.74157745,12.6130001 9.77320508,12.6483355 9.844288,12.6683556 C9.91760032,12.6865739 9.96783594,12.6974849 10.0361049,12.6974849 L10.8796077,12.6974849 L11.0299182,12.1426279 L10.6559749,12.1996852 C10.5837426,12.1996852 10.3837909,12.1900755 10.4056885,12.115801 Z M10.4914953,8.89173462 L10.3018484,9.27282717 C10.261323,9.35608074 10.224761,9.4077426 10.1918651,9.4315565 C10.1629325,9.45162665 10.1055628,9.46002508 10.0224313,9.46002508 L9.92354536,9.46002508 L9.79129784,9.94756448 L10.1198309,9.94756448 C10.277771,9.94756448 10.3991489,9.88313981 10.4570141,9.85092747 C10.5193379,9.81389029 10.5356868,9.83505153 10.5838417,9.78338968 L10.6948158,9.67648236 L11.7207324,9.67648236 L11.856874,9.16888282 L11.1059157,9.16888282 L11.2370039,8.89173462 L10.4914953,8.89173462 Z M12.0060946,12.1256108 C11.9885567,12.0975827 12.0012395,12.0482332 12.0278931,11.9455301 L12.308301,10.913394 L13.3058796,10.913394 C13.4512359,10.9110917 13.5561659,10.9091898 13.6244349,10.9037843 C13.6977571,10.8951757 13.7775198,10.8660465 13.8644165,10.813794 C13.9540876,10.759039 14.0000626,10.7012811 14.0388045,10.6350145 C14.0820052,10.5688481 14.1514631,10.4241028 14.2110126,10.2009789 L14.5634547,8.89479769 L13.5283233,8.90149442 C13.5283233,8.90149442 13.2095698,8.9537769 13.0692668,9.01151486 C12.9276756,9.07592952 12.7253459,9.25582009 12.7253459,9.25582009 L12.8187822,8.89776067 L12.1792936,8.89776067 L11.2840689,12.1996852 C11.2522629,12.3279139 11.2310589,12.4209073 11.2260749,12.4768634 C11.2244203,12.5370238 11.2944727,12.5966837 11.3397541,12.6416288 C11.3933586,12.6865739 11.4725268,12.6792666 11.5485243,12.6865739 C11.6283861,12.6932807 11.7420355,12.6974849 11.8988856,12.6974849 L12.3903426,12.6974849 L12.5411486,12.1310163 L12.1012153,12.1772627 C12.0542494,12.1772627 12.0202636,12.1492345 12.0060946,12.1256108 Z M12.4892286,10.2162942 L13.5370427,10.2162942 L13.4703591,10.4484272 C13.4610452,10.4538327 13.4386522,10.4369157 13.3320378,10.4509298 L12.4247248,10.4509298 L12.4892286,10.2162942 Z M12.6990886,9.43757254 L13.7557213,9.43757254 L13.6797238,9.71720324 C13.6797238,9.71720324 13.1817272,9.71175777 13.1019645,9.72810418 C12.7510087,9.79563196 12.5461028,10.0041513 12.5461028,10.0041513 L12.6990886,9.43757254 Z M13.4938421,11.2259077 C13.4852217,11.2606426 13.4714491,11.2817638 13.4523258,11.2976797 C13.4310227,11.312895 13.3966406,11.3183004 13.3452159,11.3183004 L13.1959953,11.3183004 L13.2048138,11.0356167 L12.5837548,11.0356167 L12.5585874,12.4179042 C12.5575966,12.5176043 12.566316,12.5753623 12.6319096,12.6216087 C12.6975033,12.6792666 12.8997339,12.686674 13.1719179,12.686674 L13.5610211,12.686674 L13.7015223,12.1692546 L13.3627538,12.1898753 L13.2500952,12.1972828 C13.2347372,12.1898753 13.2199737,12.1832687 13.2036248,12.1650504 C13.1893567,12.1493346 13.1652792,12.1589443 13.1692426,12.0592442 L13.1719179,11.7048885 L13.5271343,11.6885721 C13.7189611,11.6885721 13.8010027,11.6191024 13.8709561,11.5530361 C13.9377387,11.4896725 13.9595372,11.4167993 13.9847046,11.3183004 L14.0443532,11.0045855 L13.5561659,11.0045855 L13.4938421,11.2259077 Z" id="Shape" fill="#FEFEFE"></path>
        </g>
    </g>
</svg>