<?xml version="1.0" encoding="UTF-8"?>
<svg width="24px" height="16px" viewBox="0 0 24 16" version="1.1" xmlns="http://www.w3.org/2000/svg" xmlns:xlink="http://www.w3.org/1999/xlink">
    <title>Icon/System/Cards/Visa</title>
    <g id="Icon/System/Cards/Visa" stroke="none" stroke-width="1" fill="none" fill-rule="evenodd">
        <g id="Visa" transform="translate(0.250000, 0.250000)" fill-rule="nonzero">
            <path d="M21.5,0 L2,0 C0.89543,0 0,0.89543 0,2 L0,13.5 C0,14.6046 0.89543,15.5 2,15.5 L21.5,15.5 C22.6046,15.5 23.5,14.6046 23.5,13.5 L23.5,2 C23.5,0.89543 22.6046,0 21.5,0 Z" id="Path" stroke="#DFE3ED" stroke-width="0.5" fill="#FFFFFF"></path>
            <path d="M2.53773,5.66444 C2.01459,5.37751 1.41754,5.14674 0.75,4.98659 L0.778,4.86188 L3.51498,4.86188 C3.88596,4.87489 4.18699,4.98651 4.28495,5.38071 L4.87977,8.21659 L5.06198,9.07073 L6.72797,4.86188 L8.52679,4.86188 L5.85288,11.0275 L4.05397,11.0275 L2.53773,5.66444 Z M9.85,11.0341 L8.14883,11.0341 L9.21285,4.86188 L10.9139,4.86188 L9.85,11.0341 Z M16.0168,5.01277 L15.7854,6.34559 L15.6316,6.28004 C15.3237,6.15525 14.9174,6.03054 14.3644,6.04371 C13.6927,6.04371 13.3915,6.31277 13.3845,6.57546 C13.3845,6.86441 13.7489,7.05484 14.3439,7.33725 C15.324,7.77719 15.7786,8.31557 15.7718,9.01819 C15.7581,10.2986 14.596,11.1261 12.8111,11.1261 C12.0479,11.1194 11.3128,10.9681 10.9138,10.7976 L11.1519,9.41205 L11.3759,9.51066 C11.9289,9.74071 12.2928,9.839 12.972,9.839 C13.4618,9.839 13.9869,9.64838 13.9936,9.23488 C13.9936,8.96565 13.7699,8.76851 13.1117,8.46646 C12.4678,8.17087 11.6068,7.67848 11.6208,6.79198 C11.6281,5.59042 12.8111,4.75 14.491,4.75 C15.149,4.75 15.6812,4.88789 16.0168,5.01277 Z M18.2778,8.84749 L19.6917,8.84749 C19.6218,8.53889 19.2996,7.06147 19.2996,7.06147 L19.1807,6.52964 C19.0967,6.75943 18.9499,7.13373 18.9569,7.12056 C18.9569,7.12056 18.4178,8.4929 18.2778,8.84749 Z M20.3776,4.86188 L21.75,11.034 L20.1749,11.034 C20.1749,11.034 20.0208,10.3248 19.9719,10.1081 L17.7878,10.1081 C17.7246,10.2722 17.4308,11.034 17.4308,11.034 L15.6458,11.034 L18.1726,5.37399 C18.3477,4.97342 18.656,4.86188 19.0618,4.86188 L20.3776,4.86188 Z" id="Shape" fill="#171E6C"></path>
        </g>
    </g>
</svg>