<?xml version="1.0" encoding="UTF-8"?>
<svg viewBox="0 0 16 16" version="1.1" xmlns="http://www.w3.org/2000/svg" xmlns:xlink="http://www.w3.org/1999/xlink">
  <defs>
    <rect id="path-1" x="0" y="0" width="16" height="16"></rect>
  </defs>
  <g id="Icon/Channel/Telegram" stroke="none" stroke-width="1" fill="none" fill-rule="evenodd">
    <mask id="mask-2" fill="white">
      <use xlink:href="#path-1"></use>
    </mask>
    <g id="Rectangle"></g>
    <g id="telegram-1" mask="url(#mask-2)" fill-rule="nonzero">
      <path d="M8,16 C12.418272,16 16,12.418272 16,8 C16,3.581728 12.418272,0 8,0 C3.581728,0 0,3.581728 0,8 C0,12.418272 3.581728,16 8,16 Z" id="Path" fill="#34AADF"></path>
      <path d="M3.329504,7.930624 C3.329504,7.930624 7.329504,6.289024 8.716768,5.710976 C9.248576,5.479776 11.052032,4.739872 11.052032,4.739872 C11.052032,4.739872 11.884416,4.416192 11.81504,5.202304 C11.791904,5.526016 11.606944,6.658944 11.421984,7.884384 C11.144512,9.618496 10.843936,11.514432 10.843936,11.514432 C10.843936,11.514432 10.797696,12.04624 10.40464,12.13872 C10.011584,12.2312 9.36416,11.81504 9.248576,11.722528 C9.156064,11.653184 7.514464,10.612704 6.913312,10.104032 C6.751456,9.965312 6.566496,9.687872 6.936416,9.36416 C7.7688,8.601152 8.763008,7.653184 9.36416,7.052032 C9.641632,6.77456 9.919072,6.127168 8.763008,6.91328 C7.121408,8.04624 5.502912,9.109824 5.502912,9.109824 C5.502912,9.109824 5.13296,9.341024 4.439328,9.132928 C3.745664,8.924864 2.936416,8.647392 2.936416,8.647392 C2.936416,8.647392 2.381536,8.300576 3.329504,7.930624 L3.329504,7.930624 Z" id="Path" fill="#FFFFFF"></path>
    </g>
  </g>
</svg>
