<?xml version="1.0" encoding="UTF-8"?>
<svg width="24px" height="16px" viewBox="0 0 24 16" version="1.1" xmlns="http://www.w3.org/2000/svg" xmlns:xlink="http://www.w3.org/1999/xlink">
    <title>Icon/System/Cards/JCB</title>
    <g id="Icon/System/Cards/JCB" stroke="none" stroke-width="1" fill="none" fill-rule="evenodd">
        <g id="JCB" transform="translate(0.500000, 0.000000)" fill-rule="nonzero">
            <path d="M-4.52164334e-16,16 L4.60000774,16 C5.64650699,16 6.90001313,14.8053 6.90001313,13.8667 L6.90001313,0 L2.30000234,0 C1.25350309,0 -4.52164334e-16,1.19467 -4.52164334e-16,3.2 L-4.52164334e-16,16 Z" id="Path" fill="#047AB1"></path>
            <path d="M2.6105076,10.8160003 C1.72739627,10.8162 0.848642764,10.7013 -4.52164334e-16,10.4747 L-4.52164334e-16,9.30134 C0.65854891,9.67905 1.41130118,9.89218 2.18500869,9.92001 C3.07050257,9.92001 3.56500378,9.34401 3.56500378,8.55468 L3.56500378,5.33334 L5.75000535,5.33334 L5.75000535,8.55468 C5.75000535,9.81334 5.03701212,10.8160003 2.6105076,10.8160003 Z" id="Path" fill="#FFFFFF"></path>
            <path d="M8.05001074,16 L12.6500623,16 C13.6965513,16 14.9500371,14.8053 14.9500371,13.8667 L14.9500371,0 L10.3499856,0 C9.30351689,0 8.05001074,1.19467 8.05001074,3.2 L8.05001074,16 Z" id="Path" fill="#D42D06"></path>
            <path d="M8.05001074,6.07999 C8.71701261,5.48266 9.8670204,5.10933 11.7300316,5.19466 C12.7420042,5.23733 13.7999988,5.51466 13.7999988,5.51466 L13.7999988,6.69866 C13.1948923,6.35918 12.5146438,6.15131 11.8105699,6.09066 C10.3960075,5.97333 9.53351438,6.70933 9.53351438,7.99999 C9.53351438,9.29066 10.3960075,10.0267 11.8105699,9.91999 C12.5151529,9.85393 13.1948923,9.64255 13.7999988,9.30133 L13.7999988,10.4747 C13.7999988,10.4747 12.7420042,10.7627 11.7300316,10.8053 C9.8670204,10.8907 8.71701261,10.5173 8.05001074,9.91999 L8.05001074,6.07999 Z" id="Path" fill="#FFFFFF"></path>
            <path d="M16.1000754,16 L20.7000251,16 C21.7465142,16 23,14.8053 23,13.8667 L23,0 L18.4000503,0 C17.3535612,0 16.1000754,1.19467 16.1000754,3.2 L16.1000754,16 Z" id="Path" fill="#67B637"></path>
            <path d="M21.8500635,9.28001 C21.8500635,10.1333 21.1370295,10.6667 20.1825843,10.6667 L16.1000754,10.6667 L16.1000754,5.33334 L19.8145109,5.33334 L20.079035,5.34401 C20.9185273,5.38668 21.5395175,5.84534 21.5395175,6.63468 C21.5395175,7.25334 21.1140186,7.78668 20.3435591,7.91468 L20.3435591,7.94668 C21.1945569,8.00001 21.8500635,8.50134 21.8500635,9.28001 Z M18.9174912,6.17601 C18.8680075,6.16914 18.8181165,6.16558 18.7680218,6.16534 L17.3880777,6.16534 L17.3880777,7.50934 L18.9174912,7.50934 C19.2050262,7.44534 19.4465394,7.20001 19.4465394,6.83734 C19.4465394,6.47468 19.2050262,6.22934 18.9174912,6.17601 Z M19.0900733,8.35201 C19.0291859,8.34315 18.9675858,8.33958 18.9059857,8.34134 L17.3880777,8.34134 L17.3880777,9.80268 L18.9059857,9.80268 L19.0900733,9.78134 C19.3775065,9.71734 19.6190197,9.44001 19.6190197,9.06668 C19.6190197,8.69334 19.389012,8.42668 19.0900733,8.35201 Z" id="Shape" fill="#FFFFFF"></path>
        </g>
    </g>
</svg>