<?xml version="1.0" encoding="UTF-8"?>
<svg width="50px" height="72px" viewBox="0 0 50 72" version="1.1" xmlns="http://www.w3.org/2000/svg" xmlns:xlink="http://www.w3.org/1999/xlink">
    <!-- Generator: Sketch 52.1 (67048) - http://www.bohemiancoding.com/sketch -->
    <title>clipboard-icon</title>
    <desc>Created with Sketch.</desc>
    <g id="Page-1" stroke="none" stroke-width="1" fill="none" fill-rule="evenodd">
        <g id="clipboard-icon">
            <rect id="Rectangle" fill="#E2E9EC" x="0.5" y="3.5" width="49" height="68" rx="3"></rect>
            <path d="M6,13 L43,13 C44.1045695,13 45,13.8954305 45,15 L45,64 C45,65.1045695 44.1045695,66 43,66 L6,66 C4.8954305,66 4,65.1045695 4,64 L4,15 C4,13.8954305 4.8954305,13 6,13 Z" id="Rectangle-Copy" fill="#FFFFFF"></path>
            <g id="Group" transform="translate(29.000000, 49.000000)">
                <ellipse id="Oval-8" fill="#8BE68A" cx="5.55168269" cy="5.51121549" rx="5.29754274" ry="5.28029141"></ellipse>
                <path d="M4.70207108,7.47049296 C4.80287829,7.57130017 4.93462377,7.62157486 5.06662707,7.62157486 C5.19863037,7.62157486 5.33037585,7.57130017 5.43118306,7.47049296 L8.00937251,4.8923035 C8.21072911,4.69094691 8.21072911,4.36454812 8.00937251,4.16319153 C7.80801591,3.96183493 7.48161713,3.96183493 7.28026053,4.16319153 L5.06662707,6.37656717 L3.88426938,5.19446731 C3.68291279,4.99311071 3.356514,4.99311071 3.1551574,5.19446731 C2.95380081,5.39582391 2.95380081,5.72222269 3.1551574,5.92357929 L4.70207108,7.47049296 Z" id="Shape" fill="#FFFFFF"></path>
            </g>
            <rect id="Rectangle-3" fill="#E2E9EC" x="10" y="25" width="30" height="1" rx="0.5"></rect>
            <rect id="Rectangle-3-Copy" fill="#E2E9EC" x="10" y="31" width="30" height="1" rx="0.5"></rect>
            <rect id="Rectangle-3-Copy-2" fill="#E2E9EC" x="10" y="36" width="30" height="1" rx="0.5"></rect>
            <rect id="Rectangle-3-Copy-3" fill="#E2E9EC" x="10" y="51" width="14" height="1" rx="0.5"></rect>
            <rect id="Rectangle-3-Copy-4" fill="#E2E9EC" x="10" y="55" width="9" height="1" rx="0.5"></rect>
            <path d="M15,6 L34,6 L34,12.6991514 C34,14.7019687 32.3763958,16.325573 30.3735785,16.325573 C29.9919963,16.325573 29.6128051,16.2653486 29.25,16.1471225 L26.0491559,15.1040745 C25.0424368,14.7760184 23.9575632,14.7760184 22.9508441,15.1040745 L19.75,16.1471225 C17.8457382,16.7676578 15.7989857,15.7269917 15.1784505,13.8227299 C15.0602244,13.4599248 15,13.0807336 15,12.6991514 L15,6 Z" id="Rectangle-Copy-3" stroke="#D0D8DC" stroke-width="2"></path>
            <rect id="Rectangle-Copy-2" fill="#42A5FF" x="10" y="0" width="29" height="7" rx="3.5"></rect>
        </g>
    </g>
</svg>