<svg xmlns="http://www.w3.org/2000/svg" viewBox="0 0 64 64">
	<g fill="none" fill-rule="evenodd">
		<path d="M0 0h64v64H0z" />
		<path d="M44.528 22.547c-.001 12.147-9.849 21.994-21.995 21.994S.538 34.694.539 22.547C.539 10.399 10.387.552 22.532.553c12.147 0 21.995 9.847 21.996 21.994z" fill="#FFF" fill-rule="nonzero" />
		<path d="M42.527 22.547c.002 11.041-8.952 19.994-19.994 19.995-11.041-.002-19.994-8.954-19.995-19.995C2.54 11.505 11.492 2.55 22.533 2.553c11.042 0 19.996 8.953 19.994 19.994z" fill="#5C9EFF" fill-rule="nonzero" />
		<path d="M17.397 13h6.582c.675 0 1.323.273 1.8.759l2.751 2.8c.478.486.746 1.145.746 1.832v8.427c0 2.862-2.28 5.182-5.091 5.182H20.79c-2.812 0-5.091-2.32-5.091-5.182v-12.09c0-.955.76-1.728 1.697-1.728z" stroke="#116FFF" stroke-width="1.2" fill="#D7E9FF" />
		<path d="M18.882 19.91a.642.642 0 00-.637.647c0 .358.285.648.637.648h7.212c.351 0 .636-.29.636-.648a.642.642 0 00-.636-.648h-7.212z" fill="#116FFF" />
		<path d="M18.882 22.5a.642.642 0 00-.637.648c0 .357.285.647.637.647h7.212c.351 0 .636-.29.636-.647a.642.642 0 00-.636-.648h-7.212zM18.882 25.09a.642.642 0 00-.637.649c0 .357.285.647.637.647H22.7c.351 0 .636-.29.636-.647a.642.642 0 00-.636-.648h-3.818z" fill="#5C9EFF" />
		<path d="M5.537 22.546C5.54 12.011 13.697 3.396 24.032 2.628c-.497-.037-.992-.076-1.5-.076C11.493 2.55 2.54 11.505 2.539 22.547c.001 11.041 8.954 19.993 19.995 19.995.507 0 1.003-.039 1.5-.077-10.339-.768-18.495-9.383-18.496-19.92z" fill="#94C1FF" fill-rule="nonzero" />
		<path fill="#D7E9FF" fill-rule="nonzero" d="M39.855 36.329l-3.533 3.533 5.613 5.614 3.532-3.534z" />
		<path d="M36.925 40.465a23.078 23.078 0 003.532-3.535l-.602-.601-3.533 3.533.602.603zM62.287 57.346l-16.11-16.111-4.949 4.948 16.125 16.124c.043.05.074.103.12.15a3.52 3.52 0 004.98-4.977c-.052-.051-.113-.087-.166-.134z" fill="#94C1FF" fill-rule="nonzero" />
		<path d="M58.18 61.75c-.046-.047-.078-.1-.12-.15L41.934 45.477l-.707.707 16.125 16.124c.043.05.074.103.12.15a3.52 3.52 0 004.98 0c.121-.12.218-.255.317-.389a3.51 3.51 0 01-4.59-.318z" fill="#D7E9FF" fill-rule="nonzero" />
		<path d="M61.74 58.192c-.047-.047-.101-.079-.15-.122L45.465 41.945l.707-.707 16.125 16.125c.049.043.103.075.15.123a3.52 3.52 0 010 4.978c-.121.12-.256.218-.39.317a3.508 3.508 0 00-.317-4.589z" fill="#5C9EFF" fill-rule="nonzero" />
		<path d="M36.925 40.465l4.303 4.304.704-.704-4.246-4.247c-.25.22-.502.439-.761.647z" fill="#FFF" fill-rule="nonzero" />
		<path d="M40.458 36.932l4.304 4.303-.705.704-4.245-4.246c.22-.25.438-.502.646-.76z" fill="#94C1FF" fill-rule="nonzero" />
		<path fill="#94C1FF" fill-rule="nonzero" d="M41.228 44.768l3.534-3.534.706.707-3.534 3.534z" />
		<g fill="#116FFF" fill-rule="nonzero">
			<path d="M22.5 45.002a22.348 22.348 0 01-15.905-6.59c-8.77-8.77-8.77-23.041 0-31.811A22.347 22.347 0 0122.5.01c6.008 0 11.657 2.34 15.906 6.59a22.345 22.345 0 016.59 15.905 22.343 22.343 0 01-6.588 15.906 22.353 22.353 0 01-15.908 6.59zm0-43.99A21.355 21.355 0 007.303 7.306c-8.38 8.381-8.38 22.018 0 30.399A21.355 21.355 0 0022.5 44.002c5.741 0 11.14-2.237 15.2-6.296a21.352 21.352 0 006.296-15.2c0-5.741-2.237-11.14-6.297-15.199a21.354 21.354 0 00-15.2-6.296z" />
			<path d="M22.497 43a20.364 20.364 0 01-14.492-6.001c-7.991-7.99-7.991-20.993 0-28.983a20.362 20.362 0 0114.493-6.003c5.474 0 10.62 2.131 14.491 6.001 7.989 7.991 7.989 20.993.002 28.985A20.37 20.37 0 0122.497 43zm0-39.987a19.37 19.37 0 00-13.786 5.71c-7.6 7.6-7.6 19.968 0 27.569A19.372 19.372 0 0022.497 42a19.377 19.377 0 0013.787-5.708c7.598-7.602 7.597-19.97-.002-27.57a19.37 19.37 0 00-13.784-5.71zM41.904 45.941a.498.498 0 01-.354-.146l-4.555-4.555a.5.5 0 11.707-.707l4.555 4.555a.5.5 0 01-.353.853zM45.438 42.41a.499.499 0 01-.354-.147l-4.555-4.557a.5.5 0 11.707-.707l4.555 4.557a.5.5 0 01-.353.853z" />
			<path d="M41.197 46.65a.498.498 0 01-.354-.853l4.948-4.948a.5.5 0 11.707.707l-4.948 4.948a.498.498 0 01-.353.146z" />
			<path d="M62.39 57.95a.498.498 0 01-.353-.147L45.791 41.556a.5.5 0 11.707-.707l16.246 16.247a.5.5 0 01-.354.853zM57.509 62.961a.498.498 0 01-.353-.146L40.843 46.504a.5.5 0 11.707-.707l16.312 16.311a.5.5 0 01-.353.853z" />
			<path d="M59.985 63.989a3.972 3.972 0 01-2.83-1.174.5.5 0 11.707-.707 2.98 2.98 0 002.123.88h.002a2.97 2.97 0 002.115-.878c.569-.567.88-1.32.88-2.12 0-.802-.312-1.556-.879-2.123a.5.5 0 11.707-.707 3.975 3.975 0 011.173 2.83 3.968 3.968 0 01-1.173 2.827 3.966 3.966 0 01-2.823 1.172h-.002z" />
		</g>
	</g>
</svg>
