<?xml version="1.0" encoding="UTF-8"?>
<svg viewBox="0 0 315 432" version="1.1" xmlns="http://www.w3.org/2000/svg" xmlns:xlink="http://www.w3.org/1999/xlink">
    <!-- Generator: Sketch 52.1 (67048) - http://www.bohemiancoding.com/sketch -->
    <title>Artwork</title>
    <desc>Created with Sketch.</desc>
    <defs>
        <linearGradient x1="50%" y1="-1.11022302e-14%" x2="50%" y2="100%" id="linearGradient-1">
            <stop stop-color="currentColor" offset="0%"></stop>
            <stop stop-color="currentColor" offset="100%"></stop>
        </linearGradient>
        <path d="M29.5111312,331.265357 C26.5133754,272.853427 31.8693658,221.4945 45.5791024,177.188578 C59.288839,132.882655 72.199174,136.554674 84.3101075,188.204634 C82.9977567,201.821704 81.539404,210.360922 79.9350495,213.822287 C77.5285177,219.014336 65.2014542,246.842185 60.8543337,258.636549 C56.5072132,270.430914 49.4895083,287.713351 45.5791024,297.796435 C41.6686965,307.879519 33.5231277,326.435854 34.5423647,331.265357 C35.221856,334.485025 33.5447782,334.485025 29.5111312,331.265357 Z" id="path-2"></path>
        <filter x="-5.4%" y="-1.6%" width="110.8%" height="103.2%" filterUnits="objectBoundingBox" id="filter-3">
            <feOffset dx="-2" dy="-6" in="SourceAlpha" result="shadowOffsetInner1"></feOffset>
            <feComposite in="shadowOffsetInner1" in2="SourceAlpha" operator="arithmetic" k2="-1" k3="1" result="shadowInnerInner1"></feComposite>
            <feColorMatrix values="0 0 0 0 0.329873787   0 0 0 0 0.467890685   0 0 0 0 0.659279337  0 0 0 0.274796196 0" type="matrix" in="shadowInnerInner1"></feColorMatrix>
        </filter>
        <linearGradient x1="85.3430124%" y1="-4.88106702%" x2="50%" y2="100%" id="linearGradient-4">
            <stop stop-color="currentColor" offset="0%"></stop>
            <stop stop-color="currentColor" offset="100%"></stop>
        </linearGradient>
        <path d="M79.5597559,235.051674 C79.5597559,220.820938 73.2554669,200.458529 75.3072642,192.118323 C76.6751291,186.558186 91.0903133,184.657318 118.552817,186.415718 C118.899105,214.427896 117.546169,231.54999 114.494009,237.782 C111.44185,244.01401 103.288715,254.244849 90.0346051,268.474517 C88.453345,261.336639 85.983998,257.863509 82.626564,258.055127 C79.26913,258.246744 77.1043826,260.137041 76.1323217,263.726016 C75.768006,260.666507 76.2481661,257.280231 77.572802,253.567187 C79.5597559,247.997623 79.5597559,249.28241 79.5597559,235.051674 Z" id="path-5"></path>
        <filter x="-5.7%" y="-3.0%" width="111.4%" height="106.0%" filterUnits="objectBoundingBox" id="filter-6">
            <feOffset dx="-5" dy="1" in="SourceAlpha" result="shadowOffsetInner1"></feOffset>
            <feComposite in="shadowOffsetInner1" in2="SourceAlpha" operator="arithmetic" k2="-1" k3="1" result="shadowInnerInner1"></feComposite>
            <feColorMatrix values="0 0 0 0 0.329873787   0 0 0 0 0.467890685   0 0 0 0 0.659279337  0 0 0 0.274796196 0" type="matrix" in="shadowInnerInner1"></feColorMatrix>
        </filter>
        <linearGradient x1="103.607409%" y1="25.1253727%" x2="50%" y2="100%" id="linearGradient-7">
            <stop stop-color="currentColor" offset="0%"></stop>
            <stop stop-color="currentColor" offset="100%"></stop>
        </linearGradient>
        <linearGradient x1="0%" y1="50%" x2="143.283406%" y2="100%" id="linearGradient-8">
            <stop stop-color="currentColor" stop-opacity="0" offset="0%"></stop>
            <stop stop-color="currentColor" offset="100%"></stop>
        </linearGradient>
    </defs>
    <g id="Storyflow" stroke="none" stroke-width="1" fill="none" fill-rule="evenodd">
        <g id="Login" transform="translate(-716.000000, -221.000000)">
            <g id="Artwork" transform="translate(715.000000, 205.000000)">
                <g id="person">
                    <ellipse id="shadow" fill="#32314F" opacity="0.171591938" cx="114.817276" cy="443.753555" rx="15.9468439" ry="4.2464455"></ellipse>
                    <ellipse id="shadow" fill="#32314F" opacity="0.171591938" cx="172.225914" cy="443.488152" rx="10.6312292" ry="2.91943128"></ellipse>
                    <g transform="translate(85.049834, 83.867299)">
                        <path d="M185.781052,38.4695126 C187.432226,28.1536813 189.307093,20.3338433 191.405653,15.0099987 C193.504213,9.6861541 195.08121,5.28017086 196.136645,1.79204897 C197.905081,0.492478408 198.654392,1.14091404 198.384577,3.73735586 C198.114762,6.33379768 197.365452,10.0913453 196.136645,15.0099987 C200.537121,16.1060781 203.478946,17.1907114 204.962119,18.2638987 C207.18688,19.8736797 203.954511,25.1833952 200.848153,32.1899318 C198.777247,36.8609562 196.679027,41.2736762 194.553493,45.4280918 L185.781052,38.4695126 Z" id="Path-28" fill="#FFE1CA"></path>
                        <path d="M1.20863083e-13,37.3276991 C1.65117455,27.0118678 3.52604175,19.1920298 5.62460159,13.8681852 C7.72316143,8.54434061 9.30015872,4.13835736 10.3555935,0.650235474 C12.1240296,-0.649335085 12.8733403,-0.000899453994 12.6035254,2.59554237 C12.3337106,5.19198419 11.5843999,8.9495318 10.3555935,13.8681852 C14.7560691,14.9642646 17.6978938,16.0488979 19.1810675,17.1220852 C21.4058281,18.7318662 18.1734591,24.0415817 15.067101,31.0481183 C12.9961956,35.7191427 10.8979757,40.1318627 8.77244135,44.2862783 L1.20863083e-13,37.3276991 Z" id="Path-28-Copy" fill="#FFE1CA" transform="translate(9.959027, 22.143139) scale(-1, 1) translate(-9.959027, -22.143139) "></path>
                        <g id="Path-26">
                            <use fill="url(#linearGradient-1)" fill-rule="evenodd" xlink:href="#path-2"></use>
                            fill="currentColor" fill-opacity="1" filter="url(#filter-3)" xlink:href="#path-2"></use>
                        </g>
                        <path d="M30.4591105,326.989848 L30.4591105,326.989848 C34.0711838,326.989402 37.0871022,329.744399 37.412619,333.341775 L39.1605023,352.658114 C39.5956236,357.466759 36.050182,361.717672 31.2415368,362.152793 C30.9799451,362.176464 30.7174196,362.188334 30.4547592,362.188366 L30.4547592,362.188366 C25.6288432,362.188962 21.7161824,358.277267 21.7155866,353.451351 C21.715554,353.187392 21.7274819,352.923566 21.7513337,352.660687 L23.5040568,333.34321 C23.8304906,329.74545 26.8465719,326.990294 30.4591105,326.989848 Z" id="Rectangle-2-Copy" fill="#1B3554" transform="translate(30.456109, 344.589107) rotate(5.000000) translate(-30.456109, -344.589107) "></path>
                        <g id="Path-27">
                            <use fill="url(#linearGradient-4)" fill-rule="evenodd" xlink:href="#path-5"></use>
                            fill="currentColor" fill-opacity="1" filter="url(#filter-6)" xlink:href="#path-5"></use>
                        </g>
                        <path d="M7.79819936,39.1727222 C12.3546751,39.1727222 16.8211527,37.2108104 21.197632,33.2869868 C30.4111249,65.6567119 46.4809879,87.2664117 69.4072208,98.1160863 C87.7450654,109.256865 102.673877,112.984549 121.954174,101.730215 C144.640805,103.181736 182.164624,66.2799428 185.941718,33.2869868 C186.99163,38.0076338 195.608219,40.1227792 198.342329,40.1227792 C194.499944,56.8781527 184.177817,99.8949988 129.428039,125.646674 C115.665748,136.455086 121.954174,172.30004 128.364917,189.095263 C119.414023,196.74524 75.5125562,204.736007 35.0178714,182.753786 C43.7677006,178.642602 60.5684087,137.409658 48.6521519,116.408086 C25.7724217,89.9862761 12.7859577,55.5533644 7.79819936,39.1727222 Z" id="Path-24" fill="url(#linearGradient-7)"></path>
                        <path d="M114.111624,113.269835 C118.47636,116.556628 121.196013,121.193419 121.196013,126.331754 C121.196013,131.41843 118.530769,136.013597 114.242767,139.294133 C119.021982,150.993269 116.305284,163.626133 107.204116,169.086891 C104.342756,170.803725 101.150834,171.631334 97.8672937,171.657524 C93.4899699,175.84419 87.922065,178.350711 81.8604651,178.350711 C67.7689472,178.350711 56.345515,164.804672 56.345515,148.094787 C56.345515,137.53658 60.9061993,128.241505 67.8189356,122.828584 C64.6331007,119.726742 62.7242525,115.773978 62.7242525,111.469194 C62.7242525,106.008915 65.7953841,101.114998 70.6481737,97.8055775 C73.9183947,93.3701483 75.8927163,90.0000879 76.5711386,87.6953961 C77.4930491,84.5635421 77.3920623,79.9486136 76.2681782,73.8506107 C75.7559177,72.1418675 75.4817276,70.3382356 75.4817276,68.4739336 C75.4817276,57.6271659 84.7632663,48.8341232 96.2126246,48.8341232 C107.661983,48.8341232 116.943522,57.6271659 116.943522,68.4739336 C116.943522,69.6713009 116.830419,70.8436419 116.613782,71.9818909 C121.690416,74.8101872 125.096271,79.3996702 125.422751,84.6322799 C125.498552,84.7931079 125.559307,84.9547015 125.605016,85.1170609 C127.778389,92.8369483 121.576366,105.161827 116.746648,109.344402 C115.472051,110.448214 114.593709,111.756692 114.111624,113.269835 Z" id="Combined-Shape" fill="#19232F"></path>
                        <path d="M83.2959756,256.909953 L83.2959756,256.909953 C86.8936009,256.909953 89.8830068,259.683254 90.152454,263.270775 L92.1474705,289.833175 C92.5146335,294.72172 88.8493286,298.982314 83.9607829,299.349477 C83.7395698,299.366092 83.5178117,299.374408 83.2959756,299.374408 L83.2959756,299.374408 C78.393661,299.374408 74.4195499,295.400296 74.4195499,290.497982 C74.4195499,290.276146 74.427866,290.054388 74.4444806,289.833175 L76.4394971,263.270775 C76.7089443,259.683254 79.6983502,256.909953 83.2959756,256.909953 Z" id="Rectangle-2" fill="#1B3554"></path>
                        <path d="M88.2392027,243.901933 C90.771007,242.879505 97.8558188,242.499631 100.858472,244.92436" id="Path" stroke="#356BB0" opacity="0.385303442" stroke-linecap="round"></path>
                    </g>
                    <g id="paper" transform="translate(291.145228, 298.128553) rotate(99.000000) translate(-291.145228, -298.128553) translate(261.645228, 274.628553)">
                        <path d="M50.1372398,3.82393819 C52.0171904,5.6714103 53.6197395,7.46287208 54.9448869,9.19832352 C57.7034923,12.8110729 58.5271311,17.8046741 58.3353217,17.9307915 C57.2888942,18.6188328 51.305983,14.6497591 50.1372398,11.4260837 C49.4365778,9.49348906 49.4365778,6.95944056 50.1372398,3.82393819 Z" id="Path-12" fill="#FFB883"></path>
                        <path d="M0,35.5198516 C13.7519184,26.1389333 20.9611993,14.4513241 21.6278428,0.457024077 C25.2388317,-0.0811561341 32.214021,0.590351324 49.7148714,3.63083505 C51.3446586,3.91398366 51.4887667,6.49723203 50.1471959,11.3805802 C56.0476336,13.5425348 58.7512251,15.6019192 58.2579704,17.5587334 C53.9814601,34.5242816 48.3237959,42.2593358 39.7850827,45.8941743 C29.9904365,47.1366139 16.7287422,43.6785063 0,35.5198516 Z" id="Path-9" fill="#FFDF87"></path>
                    </g>
                    <g id="paper" transform="translate(49.157303, 45.767122) rotate(-48.000000) translate(-49.157303, -45.767122) translate(14.657303, 16.767122)">
                        <path d="M20.639097,6.72763746 C22.4161032,17.6208143 14.6969972,28.7502025 5.06992214,36.6819664 C13.1622646,41.0540047 27.8531324,47.1469691 39.72994,50.8442225 C40.2949343,51.0201053 42.0683228,50.8036739 42.6196775,50.8999806 C45.9529699,51.4822161 47.8351671,49.0677012 49.1047263,48.3412624 C54.3352267,42.8562317 59.4817103,38.8955359 62.0977379,31.200662 C63.439025,27.2553536 64.1973335,23.8956309 64.2295455,22.4528785 C59.9907282,18.5221292 49.8645946,18.6300893 20.639097,6.72763746 Z" id="Path-10" fill="#FF96BC" transform="translate(34.649734, 28.858667) rotate(-14.000000) translate(-34.649734, -28.858667) "></path>
                        <path d="M48.0906549,41.2325943 C50.2674451,43.3637377 48.2512408,49.0510715 43.9736208,48.9514657 C48.5181456,49.0124765 50.9694787,47.3623378 52.7350644,45.7067505 C54.50065,44.0511633 62.7895973,36.3660296 61.7734532,15.5203212 C61.9064604,33.1429153 57.5685869,41.7457802 48.0906549,41.2325943 Z" id="Path-11" fill="#F46DA0"></path>
                    </g>
                    <g id="wind" opacity="0.379755435" transform="translate(0.000000, 357.763033)" stroke="url(#linearGradient-8)" stroke-linecap="round" stroke-width="4">
                        <path d="M260.465116,49.2503067 C275.310092,38.9963779 283.32947,20.7764382 271.897293,9.55450237" id="Path-32"></path>
                        <path d="M0,18.0473934 C9.18154536,27.6595635 41.2782906,40.9488938 82.5565813,42.617997" id="Path-29"></path>
                        <path d="M161.594684,46.0479863 C216.344192,45.2134526 244.213161,36.4425305 245.20159,19.73522 C246.684233,-5.32574563 213.653778,-3.34615392 217.168809,8.19453305" id="Path-31"></path>
                        <path d="M149.900332,72.4474404 C180.897037,74.567817 206.222846,72.0047682 225.877759,64.7582938" id="Path-33"></path>
                        <path d="M11.6943522,52.0189573 C30.8817863,61.1955528 50.0692204,66.1406859 69.2566545,66.8543568" id="Path-30"></path>
                    </g>
                </g>
            </g>
        </g>
    </g>
</svg>