<svg width="16" height="16" viewBox="0 0 16 16" fill="none" xmlns="http://www.w3.org/2000/svg">
<g opacity="0.8">
<path fill-rule="evenodd" clip-rule="evenodd" d="M11.8497 3.05758L13.6676 1.21582C13.9516 0.928061 14.4121 0.928061 14.6961 1.21582C14.9801 1.50357 14.9801 1.97011 14.6961 2.25787L2.33244 14.7842C2.04842 15.0719 1.58794 15.0719 1.30392 14.7842C1.0199 14.4964 1.0199 14.0299 1.30392 13.7421L2.86412 12.1614C1.12059 10.9084 0 9.22712 0 8C0 5.78947 3.63636 2.10526 8 2.10526C9.38803 2.10526 10.7025 2.47804 11.8497 3.05758ZM4.96611 10.0318L6.01862 8.9654C5.89222 8.6414 5.81818 8.30369 5.81818 8C5.81818 6.77916 6.79502 5.78947 8 5.78947C8.30074 5.78947 8.62484 5.87356 8.93254 6.01314L10.0054 4.92619C9.43051 4.54044 8.74115 4.31579 8 4.31579C5.99169 4.31579 4.36364 5.96527 4.36364 8C4.36364 8.7509 4.58537 9.44934 4.96611 10.0318ZM14.1534 4.68235C15.3031 5.78217 16 7.0323 16 8C16 10.2105 12.3636 13.8947 8 13.8947C7.1172 13.8947 6.26417 13.7439 5.465 13.4851L7.3082 11.6176C7.53217 11.6613 7.76344 11.6842 8 11.6842C10.0083 11.6842 11.6364 10.0347 11.6364 8C11.6364 7.76033 11.6138 7.52601 11.5706 7.2991L14.1534 4.68235Z" fill="white"/>
<path fill-rule="evenodd" clip-rule="evenodd" d="M11.8497 3.05758L13.6676 1.21582C13.9516 0.928061 14.4121 0.928061 14.6961 1.21582C14.9801 1.50357 14.9801 1.97011 14.6961 2.25787L2.33244 14.7842C2.04842 15.0719 1.58794 15.0719 1.30392 14.7842C1.0199 14.4964 1.0199 14.0299 1.30392 13.7421L2.86412 12.1614C1.12059 10.9084 0 9.22712 0 8C0 5.78947 3.63636 2.10526 8 2.10526C9.38803 2.10526 10.7025 2.47804 11.8497 3.05758ZM4.96611 10.0318L6.01862 8.9654C5.89222 8.6414 5.81818 8.30369 5.81818 8C5.81818 6.77916 6.79502 5.78947 8 5.78947C8.30074 5.78947 8.62484 5.87356 8.93254 6.01314L10.0054 4.92619C9.43051 4.54044 8.74115 4.31579 8 4.31579C5.99169 4.31579 4.36364 5.96527 4.36364 8C4.36364 8.7509 4.58537 9.44934 4.96611 10.0318ZM14.1534 4.68235C15.3031 5.78217 16 7.0323 16 8C16 10.2105 12.3636 13.8947 8 13.8947C7.1172 13.8947 6.26417 13.7439 5.465 13.4851L7.3082 11.6176C7.53217 11.6613 7.76344 11.6842 8 11.6842C10.0083 11.6842 11.6364 10.0347 11.6364 8C11.6364 7.76033 11.6138 7.52601 11.5706 7.2991L14.1534 4.68235Z" fill="url(#paint0_linear)"/>
</g>
<defs>
<linearGradient id="paint0_linear" x1="0" y1="1" x2="0" y2="15" gradientUnits="userSpaceOnUse">
<stop stop-color="#6E849A" stop-opacity="0.85"/>
<stop offset="1" stop-color="#6E849A"/>
</linearGradient>
</defs>
</svg>
