<svg xmlns="http://www.w3.org/2000/svg" width="80" height="80"><g fill="none" fill-rule="evenodd"><path d="M0 0h80v80H0z"/><g fill-rule="nonzero"><path fill="#FFF" d="M79.365 61.834v5.024a3.76 3.76 0 01-3.749 3.75H40v-2.526a1.871 1.871 0 001.874-1.874A1.872 1.872 0 0040 64.333v-2.499h39.365z"/><path fill="#94C1FF" d="M40 64.333c1.037 0 1.874.838 1.874 1.875s-.837 1.874-1.874 1.874a1.872 1.872 0 01-1.875-1.874c0-1.037.838-1.875 1.875-1.875z"/><path fill="#D7E9FF" d="M79.365 66.859v2.473c0 2.113-1.637 3.75-3.749 3.75H4.385c-2.111 0-3.75-1.637-3.75-3.75v-2.473a3.763 3.763 0 003.75 3.749h71.23a3.761 3.761 0 003.75-3.75z"/><path fill="#FFF" d="M1.916 69.654a3.727 3.727 0 01-1.281-2.795v2.474c0 2.113 1.637 3.75 3.749 3.75h1.25c-2.002 0-3.558-1.476-3.718-3.428z"/><path fill="#94C1FF" d="M78.084 69.654c-.159 1.952-1.716 3.427-3.718 3.427h1.25c2.112 0 3.75-1.636 3.75-3.749v-2.473a3.724 3.724 0 01-1.282 2.795z"/><path fill="#FFF" d="M40 68.083v2.525H4.384a3.762 3.762 0 01-3.75-3.75v-5.024H40v2.5a1.872 1.872 0 00-1.875 1.874c0 1.038.838 1.875 1.875 1.875z"/><path fill="#94C1FF" d="M79.365 16.871v44.963H.635V16.871a3.76 3.76 0 013.749-3.75h71.231a3.76 3.76 0 013.75 3.75zm-3.749 41.214v-41.24H4.383v41.24h71.233z"/><path fill="#D7E9FF" d="M5.633 13.122h-1.25a3.76 3.76 0 00-3.748 3.749v44.963h1.25V16.871a3.76 3.76 0 013.748-3.75z"/><path fill="#5C9EFF" d="M75.616 13.122h-1.25a3.76 3.76 0 013.75 3.749v44.963h1.25V16.871a3.76 3.76 0 00-3.75-3.75z"/><path fill="#94C1FF" d="M48.389 74.331l-.278-1.25H31.889l-.278 1.25h16.778z"/><path fill="#D7E9FF" d="M48.122 72.969l2.503 6h-21.25l2.503-6h16.244z"/><path fill="#94C1FF" d="M46.25 73.219l2.4 6H50l-2.4-6h-1.35z"/><path fill="#FFF" d="M33.75 73.219l-2.4 6h-1.351l2.4-6h1.35zM6.883 16.871H40v41.227H6.883z"/><path fill="#FFF" d="M40 16.871h2.529v41.136H40z" opacity=".3"/><path fill="#D7E9FF" d="M4.384 16.858h2.499V58.11H4.384zm34.366.013H40v41.136h-1.25z"/><g fill="#116FFF"><path d="M79.365 62.484H.635a.625.625 0 110-1.249h78.73a.624.624 0 110 1.249zM40 68.733c-1.378 0-2.5-1.122-2.5-2.5s1.122-2.499 2.5-2.499 2.5 1.12 2.5 2.5a2.503 2.503 0 01-2.5 2.499zm0-3.75a1.25 1.25 0 100 2.5 1.25 1.25 0 000-2.5zm-10.61 15c-.044 0-.09-.003-.136-.009-.337-.045-.549-.245-.474-.447l2.5-6.751c.073-.201.404-.327.745-.285.337.045.549.245.475.448l-2.5 6.75c-.065.175-.323.294-.61.294zm21.22 0c-.287 0-.545-.12-.61-.294l-2.5-6.75c-.074-.203.139-.403.475-.448.342-.042.672.084.746.285l2.5 6.75c.074.203-.139.403-.476.448a1.02 1.02 0 01-.135.009z"/><path d="M50.714 79.979H29.286c-.296 0-.536-.28-.536-.625 0-.346.24-.625.536-.625h21.428c.297 0 .536.28.536.625s-.24.625-.536.625zM75.616 58.76H4.384a.625.625 0 01-.625-.625v-41.24c0-.345.28-.625.625-.625h71.232c.346 0 .625.28.625.625v41.24c0 .345-.28.625-.625.625zM5.01 57.51h69.98V17.52H5.01v39.99z"/><path d="M75.616 71.257H4.384A4.38 4.38 0 01.01 66.883V16.895a4.379 4.379 0 014.374-4.374h71.232a4.379 4.379 0 014.374 4.374v49.988a4.38 4.38 0 01-4.374 4.374zM1.26 66.87v.013c0 1.723 1.4 3.124 3.124 3.124h71.232a3.127 3.127 0 003.124-3.124V16.895c0-1.722-1.4-3.124-3.124-3.124H4.384a3.126 3.126 0 00-3.124 3.124V66.87z"/><path d="M75.616 73.732H4.384C1.93 73.732.01 71.809.01 69.358v-2.475c0-.346.28-.637.625-.637s.625.267.625.612v2.5c0 1.78 1.343 3.124 3.124 3.124h71.232c1.78 0 3.124-1.344 3.124-3.124v-2.475a.625.625 0 111.25 0v2.475c0 2.451-1.92 4.374-4.374 4.374zM6.883 58.76a.625.625 0 01-.625-.625v-41.24a.625.625 0 011.25 0v41.24c0 .345-.28.625-.625.625zm-1.25-37.491h-1.25a.624.624 0 11.001-1.25h1.25a.624.624 0 11-.001 1.25zm0 3.749h-1.25a.624.624 0 11.001-1.25h1.25a.624.624 0 11-.001 1.25zm0 3.749h-1.25a.624.624 0 11.001-1.25h1.25a.624.624 0 11-.001 1.25zm0 3.749h-1.25a.624.624 0 11.001-1.25h1.25a.624.624 0 11-.001 1.25zm0 3.749h-1.25a.624.624 0 11.001-1.25h1.25a.624.624 0 11-.001 1.25zm0 3.749h-1.25a.624.624 0 11.001-1.249h1.25a.624.624 0 11-.001 1.249zm0 3.749h-1.25a.624.624 0 11.001-1.249h1.25a.624.624 0 11-.001 1.249zm0 3.75h-1.25a.624.624 0 11.001-1.25h1.25a.624.624 0 11-.001 1.25zm0 3.749h-1.25a.624.624 0 11.001-1.25h1.25a.624.624 0 11-.001 1.25zm0 3.748h-1.25a.624.624 0 11.001-1.249h1.25a.624.624 0 11-.001 1.25zm9.998-33.741h-4.999a.625.625 0 010-1.25h4.999a.625.625 0 010 1.25zm19.995 3.749H20.63a.625.625 0 110-1.25h14.996a.625.625 0 010 1.25zm-17.496 0h-6.248a.625.625 0 010-1.25h6.248a.625.625 0 110 1.25zm17.496 3.749h-1.25a.624.624 0 010-1.25h1.25a.625.625 0 010 1.25zm-3.749 0H13.132a.625.625 0 110-1.25h18.745a.625.625 0 010 1.25zM16.88 36.265h-3.748a.625.625 0 110-1.25h3.749a.624.624 0 010 1.25zm18.746 0H19.38a.625.625 0 010-1.25h16.246a.625.625 0 110 1.25zm0-3.749H14.381a.624.624 0 010-1.25h21.245a.625.625 0 110 1.25zm0 7.498h-4.999a.624.624 0 010-1.249h5a.625.625 0 01-.001 1.249zm-3.749 3.749H11.882a.625.625 0 010-1.249h19.995a.625.625 0 010 1.249zm-9.997 7.499h-9.998a.625.625 0 010-1.25h9.997a.625.625 0 01.001 1.25zm13.746-3.749h-6.248a.625.625 0 110-1.25h6.248a.625.625 0 010 1.25zm-8.748 0H13.132a.625.625 0 110-1.25h13.746a.625.625 0 110 1.25zM15.631 55.01h-4.999a.624.624 0 110-1.249h4.999a.625.625 0 010 1.25zm19.995-11.247h-1.25a.624.624 0 010-1.249h1.25a.625.625 0 010 1.249zm-7.498-3.749H13.132a.625.625 0 110-1.249h14.996a.625.625 0 010 1.249zM40 58.76a.625.625 0 01-.625-.625v-41.24a.625.625 0 011.25 0v41.24c0 .345-.28.625-.625.625z"/></g></g></g></svg>