<svg viewBox="0 0 16 16" fill="none" xmlns="http://www.w3.org/2000/svg">
  <g>
    <path
      d="M14.8547 6.54738C15.0336 6.00863 15.0954 5.43791 15.0362 4.87334C14.9769 4.30877 14.7978 3.76335 14.5109 3.27352C14.0855 2.53313 13.436 1.94695 12.6561 1.59949C11.8761 1.25202 11.0059 1.16122 10.171 1.34018C9.69667 0.812559 9.09186 0.419031 8.41731 0.199125C7.74276 -0.0207811 7.02222 -0.0593233 6.32806 0.0873693C5.6339 0.234062 4.99055 0.560825 4.46264 1.03484C3.93474 1.50885 3.54085 2.11343 3.32054 2.78785C2.76431 2.90191 2.23884 3.13337 1.77924 3.46678C1.31964 3.80018 0.936489 4.22784 0.655403 4.72118C0.225426 5.46033 0.0416569 6.31707 0.130664 7.16754C0.21967 8.01801 0.57684 8.81814 1.15054 9.45225C0.970979 9.99074 0.908486 10.5614 0.967236 11.1259C1.02599 11.6905 1.20462 12.2361 1.4912 12.726C1.9171 13.4667 2.56715 14.053 3.34768 14.4005C4.1282 14.7479 4.99889 14.8386 5.83427 14.6594C6.21111 15.0838 6.67415 15.4229 7.19247 15.6541C7.7108 15.8852 8.27248 16.0032 8.84 16C9.69576 16.0008 10.5296 15.7296 11.2212 15.2256C11.9129 14.7217 12.4265 14.011 12.6879 13.1961C13.244 13.0819 13.7694 12.8503 14.229 12.5169C14.6886 12.1835 15.0718 11.7559 15.353 11.2627C15.7779 10.5247 15.9585 9.67113 15.869 8.82422C15.7795 7.97731 15.4245 7.18032 14.8547 6.54738ZM8.84 14.9528C8.13915 14.9539 7.46027 14.7082 6.9224 14.2589L7.017 14.2053L10.2025 12.3665C10.2818 12.32 10.3476 12.2537 10.3935 12.1741C10.4394 12.0944 10.4638 12.0042 10.4643 11.9123V7.42105L11.811 8.20012C11.8177 8.20349 11.8234 8.20839 11.8278 8.21441C11.8322 8.22044 11.8351 8.22742 11.8363 8.23478V11.9565C11.8346 12.7507 11.5184 13.5118 10.9569 14.0734C10.3953 14.6349 9.63415 14.9511 8.84 14.9528ZM2.39954 12.2025C2.04805 11.5956 1.92185 10.8842 2.04314 10.1934L2.1378 10.2502L5.32647 12.089C5.40537 12.1353 5.49519 12.1597 5.58667 12.1597C5.67815 12.1597 5.76797 12.1353 5.84687 12.089L9.74207 9.84332V11.3982C9.7417 11.4063 9.73952 11.4142 9.73569 11.4213C9.73186 11.4284 9.72647 11.4345 9.71994 11.4392L6.4934 13.3001C5.80482 13.6968 4.98697 13.804 4.21941 13.5982C3.45185 13.3924 2.79732 12.8905 2.39954 12.2025ZM1.5606 5.26372C1.91453 4.6529 2.47316 4.187 3.1376 3.94852V7.73332C3.1364 7.82475 3.15977 7.91484 3.20525 7.99417C3.25074 8.07349 3.31668 8.13916 3.3962 8.18432L7.27247 10.4205L5.92574 11.1995C5.91845 11.2034 5.91032 11.2054 5.90207 11.2054C5.89382 11.2054 5.88569 11.2034 5.8784 11.1995L2.6582 9.34185C1.97091 8.94346 1.4695 8.28894 1.26378 7.52163C1.05806 6.75433 1.16479 5.93676 1.5606 5.24798V5.26372ZM12.6248 7.83425L8.73594 5.57598L10.0795 4.79998C10.0868 4.79611 10.095 4.79409 10.1032 4.79409C10.1115 4.79409 10.1196 4.79611 10.1269 4.79998L13.3471 6.66085C13.8394 6.94495 14.2408 7.36326 14.5044 7.86692C14.7679 8.37059 14.8828 8.93884 14.8355 9.50532C14.7882 10.0718 14.5807 10.6131 14.2373 11.0661C13.8939 11.5191 13.4287 11.8651 12.8961 12.0637V8.27885C12.8933 8.18757 12.8668 8.09858 12.8192 8.02062C12.7717 7.94266 12.7047 7.87848 12.6248 7.83425ZM13.9653 5.81885L13.8706 5.76205L10.6883 3.90752C10.6089 3.86093 10.5185 3.83637 10.4265 3.83637C10.3344 3.83637 10.2441 3.86093 10.1647 3.90752L6.27274 6.15312V4.59825C6.27191 4.59034 6.27323 4.58236 6.27656 4.57515C6.27989 4.56793 6.28511 4.56175 6.29167 4.55725L9.51187 2.69952C10.0054 2.4152 10.5697 2.27728 11.1388 2.30189C11.7078 2.3265 12.2581 2.51263 12.7252 2.83851C13.1924 3.16438 13.5571 3.61653 13.7767 4.14207C13.9963 4.66761 14.0617 5.24482 13.9653 5.80618L13.9653 5.81885ZM5.53774 8.57532L4.19107 7.79945C4.18433 7.79539 4.17857 7.7899 4.17419 7.78337C4.16981 7.77684 4.16693 7.76942 4.16574 7.76165V4.04945C4.16648 3.47997 4.32932 2.92246 4.63524 2.44212C4.94115 1.96177 5.37749 1.57844 5.89323 1.33694C6.40897 1.09544 6.98281 1.00576 7.54765 1.07837C8.11248 1.15098 8.64498 1.38289 9.08287 1.74698L8.9882 1.80065L5.80274 3.63932C5.72345 3.68582 5.65763 3.75214 5.61173 3.83177C5.56583 3.9114 5.54143 4.0016 5.54094 4.09352L5.53774 8.57532ZM6.26947 6.99838L8.00414 5.99852L9.74207 6.99838V8.99798L8.01047 9.99778L6.27267 8.99798L6.26947 6.99838Z"
      fill="currentColor" />
  </g>
</svg>