<?xml version="1.0" encoding="UTF-8"?>
<svg viewBox="0 0 16 16" version="1.1" xmlns="http://www.w3.org/2000/svg" xmlns:xlink="http://www.w3.org/1999/xlink">
  <defs>
    <rect id="path-1" x="0" y="0" width="16" height="16"></rect>
  </defs>
  <g id="Icon/Channel/Slack" stroke="none" stroke-width="1" fill="none" fill-rule="evenodd">
    <mask id="mask-2" fill="white">
      <use xlink:href="#path-1"></use>
    </mask>
    <g id="Rectangle"></g>
    <g id="slack-new-logo" mask="url(#mask-2)" fill-rule="nonzero">
      <path d="M5.86631898,0 C4.98186113,0.000652395515 4.26605821,0.716982671 4.26671146,1.5996738 C4.26605821,2.48236493 4.98251483,3.19869521 5.86697268,3.1993476 L7.46723389,3.1993476 L7.46723389,1.6003262 C7.46788715,0.717635066 6.75143053,0.00130479103 5.86631898,0 C5.86697268,0 5.86697268,0 5.86631898,0 M5.86631898,4.26666667 L1.60026433,4.26666667 C0.715806485,4.26731906 -0.000650133199,4.98364934 1.78160958e-06,5.86634047 C-0.00130383449,6.7490316 0.715152783,7.46536188 1.59961063,7.46666667 L5.86631898,7.46666667 C6.75077683,7.46601427 7.46723345,6.749684 7.46658019,5.86699286 C7.46723345,4.98364934 6.75077683,4.26731906 5.86631898,4.26666667 Z" id="Shape" fill="#36C5F0"></path>
      <path d="M15.9999969,5.86634047 C16.0006501,4.98364934 15.2841935,4.26731906 14.3997357,4.26666667 C13.5152778,4.26731906 12.7988212,4.98364934 12.7994745,5.86634047 L12.7994745,7.46666667 L14.3997357,7.46666667 C15.2841935,7.46601427 16.0006501,6.749684 15.9999969,5.86634047 Z M11.7332885,5.86634047 L11.7332885,1.5996738 C11.7339418,0.717635066 11.0181389,0.00130479103 10.133681,0 C9.24922317,0.000652395515 8.53276655,0.716982671 8.53341847,1.5996738 L8.53341847,5.86634047 C8.53211285,6.7490316 9.24856947,7.46536188 10.1330273,7.46666667 C11.0174852,7.46601427 11.7339418,6.749684 11.7332885,5.86634047 Z" id="Shape" fill="#2EB67D"></path>
      <path d="M10.1330273,16 C11.0174852,15.9993476 11.7339418,15.2830173 11.7332885,14.4003262 C11.7339418,13.5176351 11.0174852,12.8013048 10.1330273,12.8006524 L8.53276611,12.8006524 L8.53276611,14.4003262 C8.53211285,15.2823649 9.24856947,15.9986952 10.1330273,16 Z M10.1330273,11.7326809 L14.3997357,11.7326809 C15.2841935,11.7320285 16.0006501,11.0156983 15.9999982,10.1330071 C16.0013038,9.250316 15.2848472,8.53398573 14.4003894,8.53268094 L10.133681,8.53268094 C9.24922317,8.53333333 8.53276655,9.24966361 8.53341981,10.1323547 C8.53276655,11.0156983 9.24856947,11.7320285 10.1330273,11.7326809 L10.1330273,11.7326809 Z" id="Shape" fill="#ECB22E"></path>
      <path d="M3.1211179e-06,10.1330071 C-0.000650133199,11.0156983 0.715806485,11.7320285 1.60026433,11.7326809 C2.48472219,11.7320285 3.2011788,11.0156983 3.20052555,10.1330071 L3.20052555,8.53333333 L1.60026433,8.53333333 C0.715806485,8.53398573 -0.000650133199,9.250316 3.1211179e-06,10.1330071 Z M4.26671013,10.1330071 L4.26671013,14.3996738 C4.26540451,15.2823649 4.98186113,15.9986952 5.86631898,16 C6.75077683,15.9993476 7.46723345,15.2830173 7.46658153,14.4003262 L7.46658153,10.1343119 C7.46788715,9.2516208 6.75143053,8.53529052 5.86697268,8.53398573 C4.98186113,8.53398573 4.26605821,9.250316 4.26671013,10.1330071 C4.26671013,10.1330071 4.26671013,10.1336595 4.26671013,10.1330071" id="Shape" fill="#E01E5A"></path>
    </g>
  </g>
</svg>
