<?xml version="1.0" encoding="UTF-8"?>
<svg viewBox="0 0 16 16" version="1.1" xmlns="http://www.w3.org/2000/svg" xmlns:xlink="http://www.w3.org/1999/xlink">
  <g stroke="none" stroke-width="1" fill="none" fill-rule="evenodd">
    <mask fill="white">
      <rect x="0" y="0" width="16" height="16"></rect>
    </mask>
    <g fill="currentColor" fill-rule="nonzero">
      <path
        d="M8.00003128,13.8916858 C4.74614714,13.8916858 2.1083142,11.2538529 2.1083142,8.00003128 C2.1083142,4.74614714 4.74614714,2.10837677 8.00003128,2.10837677 C11.2538529,2.10837677 13.8916232,4.74614714 13.8916232,8.00003128 C13.8916232,11.2538529 11.2538529,13.8916858 8.00003128,13.8916858 L8.00003128,13.8916858 Z M8.00003128,0 C3.58174402,0 0,3.58180659 0,8.00003128 C0,12.4183185 3.58174402,16 8.00003128,16 C12.418256,16 16,12.4183185 16,8.00003128 C16,3.58180659 12.418256,0 7.99996872,0 L8.00003128,0 Z">
      </path>
      <path
        d="M8.32889226,6.00759427 C8.32889226,5.08896093 9.07364725,4.34420594 9.99234316,4.34420594 C10.9110391,4.34420594 11.6557315,5.08896093 11.6557315,6.00759427 C11.6557315,6.92635275 10.9110391,7.67104517 9.99234316,7.67104517 C9.07364725,7.67104517 8.32889226,6.92635275 8.32889226,6.00759427 M8.32889226,9.99234316 C8.32889226,9.07370981 9.07364725,8.32889226 9.99234316,8.32889226 C10.9110391,8.32889226 11.6557315,9.07370981 11.6557315,9.99234316 C11.6557315,10.9110391 10.9110391,11.6557941 9.99234316,11.6557941 C9.07364725,11.6557941 8.32889226,10.9110391 8.32889226,9.99234316 M4.34420594,9.99234316 C4.34420594,9.07370981 5.0890235,8.32889226 6.00765684,8.32889226 C6.92635275,8.32889226 7.67110774,9.07370981 7.67110774,9.99234316 C7.67110774,10.9110391 6.92635275,11.6557941 6.00765684,11.6557941 C5.0890235,11.6557941 4.34420594,10.9110391 4.34420594,9.99234316 M4.34420594,6.00765684 C4.34420594,5.08896093 5.0890235,4.34426851 6.00765684,4.34426851 C6.92635275,4.34426851 7.67110774,5.08896093 7.67110774,6.00765684 C7.67110774,6.92641532 6.92635275,7.67110774 6.00765684,7.67110774 C5.0890235,7.67110774 4.34420594,6.92641532 4.34420594,6.00765684">
      </path>
    </g>
  </g>
</svg>