<?xml version="1.0" encoding="UTF-8"?>
<svg width="16px" height="16px" viewBox="0 0 16 16" version="1.1" xmlns="http://www.w3.org/2000/svg" xmlns:xlink="http://www.w3.org/1999/xlink">
    <title>Icon/Channel/WhatsApp</title>
    <defs>
        <rect id="path-1" x="0" y="0" width="16" height="16"></rect>
        <linearGradient x1="50.0000408%" y1="100%" x2="50.0000408%" y2="0.000171081715%" id="linearGradient-3">
            <stop stop-color="#20B038" offset="0%"></stop>
            <stop stop-color="#60D66A" offset="100%"></stop>
        </linearGradient>
    </defs>
    <g id="Icon/Channel/WhatsApp" stroke="none" stroke-width="1" fill="none" fill-rule="evenodd">
        <mask id="mask-2" fill="white">
            <use xlink:href="#path-1"></use>
        </mask>
        <g id="Rectangle"></g>
        <g id="whatsapp-symbol" mask="url(#mask-2)">
            <path d="M0,16 L1.13025294,11.8915753 C0.43295819,10.6891856 0.0662663049,9.32503473 0.0667062472,7.92792669 C0.0685347573,3.55647407 3.64230958,0 8.03335966,0 C10.16455,0.000958057607 12.1648026,0.826639476 13.6687177,2.3252195 C15.1729628,3.82378583 16.0008655,5.81571078 16,7.9341267 C15.9981708,12.3056888 12.424176,15.8624777 8.03367587,15.8624777 C8.03335966,15.8624777 8.03389584,15.8624777 8.03367587,15.8624777 L8.03012883,15.8624777 C6.69687002,15.8620534 5.38681817,15.5288683 4.22328085,14.8975768 L0,16 L0,16 Z" id="Path" fill="url(#linearGradient-3)" fill-rule="nonzero"></path>
            <path d="M5.97218886,4.49208576 C5.81774163,4.15023712 5.65512797,4.14339385 5.50818725,4.13741283 C5.38800052,4.13228038 5.25040857,4.13259141 5.1130366,4.13259141 C4.97555464,4.13259141 4.75214645,4.18402918 4.56321874,4.38943673 C4.37418104,4.59484428 3.84143845,5.09140554 3.84143845,6.10132144 C3.84143845,7.11134682 4.58040399,8.08726536 4.68340547,8.22433603 C4.78651694,8.3612014 6.10989079,10.4999418 8.20573454,11.3227354 C9.94756224,12.0065285 10.3020182,11.8705117 10.6800936,11.8362953 C11.058169,11.802079 11.900026,11.3398436 12.0718785,10.8604863 C12.2437309,10.3812385 12.2437309,9.97043708 12.1921752,9.88456774 C12.1406195,9.79902689 12.0031375,9.74770237 11.7969146,9.64505334 C11.5906916,9.54240431 10.5769821,9.04573356 10.3879445,8.97730088 C10.1989068,8.90886819 10.0614248,8.87465185 9.92394284,9.08016889 C9.78646088,9.28546695 9.39151645,9.74770237 9.27121973,9.88456774 C9.15092302,10.0217479 9.0306263,10.0388561 8.82440336,9.93620705 C8.61818042,9.83324323 7.95407381,9.61670852 7.16624719,8.91740859 C6.55327012,8.37336874 6.13942192,7.70144188 6.0191252,7.49593852 C5.89882849,7.29064046 6.0062294,7.17943735 6.10967082,7.07710311 C6.20225118,6.98514326 6.31589376,6.83747921 6.41900523,6.71761252 C6.52189673,6.59774583 6.55626722,6.51220497 6.6250082,6.3753396 C6.69374918,6.23825524 6.65937869,6.11840223 6.60782296,6.0157532 C6.55626722,5.91310418 6.15553481,4.89797371 5.97218886,4.49208576 L5.97218886,4.49208576 Z" id="Path" fill="#FFFFFF"></path>
        </g>
    </g>
</svg>