<svg viewBox="0 0 16 16" version="1.1" xmlns="http://www.w3.org/2000/svg" xmlns:xlink="http://www.w3.org/1999/xlink">
  <path fill="currentColor"
    d="M6.77935706,5.14427921 L8.7494337,8.07607626 L13.1520464,6.32019551 C13.507901,6.2038763 13.8667573,6.3361482 14.0210213,6.64049346 L15.6929078,9.93893618 C16.387761,11.2875615 15.8682659,13.0768119 14.4898393,14.0825571 L12.4452326,15.5743692 C11.9772439,15.9158291 11.4020671,16.0597004 10.8342384,15.9773336 L6.72219183,15.3808578 C6.27389334,14.7137162 6.42558755,13.7970485 7.06101034,13.3334232 C7.23962521,13.2030999 7.44512667,13.1182285 7.66124027,13.0855302 L9.18625216,12.8547937 L4.91775277,6.50256675 C4.55507167,5.96283781 4.67779487,5.22123804 5.1918627,4.84615729 C5.70593053,4.47107655 6.41667596,4.60455027 6.77935706,5.14427921 Z M13.5958501,9.72511512 C13.3214956,9.89063341 13.2265943,10.2556471 13.383882,10.540396 C13.6984573,11.1098939 13.5086546,11.8399213 12.9599457,12.1709578 C12.6855912,12.3364761 12.5906899,12.7014898 12.7479776,12.9862387 C12.9052652,13.2709876 13.2551803,13.3676432 13.5295348,13.2021249 C14.6269526,12.5400517 15.0065581,11.079997 14.3774073,9.94100128 C14.2201196,9.65625236 13.8702046,9.55959683 13.5958501,9.72511512 Z M2.25572962,1.20340765 C4.71135013,-0.715133356 8.24527015,-0.299880655 10.143944,2.130311 C10.8972963,3.09455807 11.2261072,4.3149427 11.1303764,5.79146489 C11.1275299,5.835606 11.1177376,5.87902049 11.1013744,5.92011533 C11.0152628,6.1363773 10.7701406,6.24188505 10.5538787,6.15577347 C10.2574901,6.03775696 10.0667483,5.74676069 10.0767712,5.42789771 C10.1079904,4.43475385 9.83380874,3.56726614 9.25422639,2.82543455 C7.73391149,0.87952022 4.90993075,0.547688821 2.94365491,2.08391187 C0.977379072,3.62013492 0.616170888,6.44050864 2.13648579,8.38642298 C2.73928278,9.15796795 3.7234952,9.64913367 5.08912305,9.85992015 C5.40738915,9.90905753 5.65540778,10.1617205 5.69862046,10.480845 C5.70181,10.5043996 5.70338091,10.5281452 5.70332214,10.5519147 C5.70261205,10.839133 5.46919997,11.0713938 5.18198162,11.0707085 C3.75027779,11.0671689 2.43853999,10.4041149 1.24676821,9.08154653 C-0.817619229,6.7905932 -0.199890887,3.12194866 2.25572962,1.20340765 Z M3.63731102,2.95995468 C5.11380027,1.81467222 7.23474203,2.07140135 8.36816485,3.53260124 C9.12834571,4.5126205 7.98281433,4.87799192 7.47604159,4.22463449 C6.71930663,3.24901293 5.30793524,3.07817338 4.32213904,3.84287012 C3.33634284,4.60756686 3.15081361,6.01714594 3.90754857,6.99276749 C4.41432131,7.64612492 3.77560618,8.66482001 3.01542532,7.68480075 C1.88200251,6.22360086 2.16082177,4.10523714 3.63731102,2.95995468 Z">
  </path>
</svg>