<svg viewBox="0 0 16 16" version="1.1" xmlns="http://www.w3.org/2000/svg" xmlns:xlink="http://www.w3.org/1999/xlink">
  <path fill="currentColor"
    d="M7.31580152,0.0394354731 C7.73001508,0.0394354731 8.06580152,0.375221911 8.06580152,0.789435473 C8.06580152,1.16913124 7.78364764,1.48292643 7.41757208,1.53258886 L7.31580152,1.53943547 L4.15789681,1.53943547 C2.88124465,1.53943547 1.83664694,2.5329621 1.75512176,3.78900027 L1.75,3.94731941 L1.74969595,7.09033823 C2.21114907,6.73506948 2.77969824,6.53943547 3.36842064,6.53943547 C4.00176343,6.53943547 4.61176362,6.76585321 5.09344415,7.17714534 L5.24910774,7.32103293 L7.819,9.93443547 L8.43850885,9.31654751 C9.43159233,8.32357102 11.0158256,8.282197 12.0581963,9.19245022 L12.1909916,9.31657566 L14.46,11.5854355 L14.4604844,8.68416899 C14.4604844,8.26995543 14.7962708,7.93416899 15.2104844,7.93416899 C15.5901801,7.93416899 15.9039753,8.21632287 15.9536378,8.58239844 L15.9604844,8.68416899 L15.9604844,11.8420056 C15.9604844,13.9328439 14.3185227,15.6401701 12.2537395,15.7448361 L12.0526428,15.7499211 L4.15789681,15.7499211 C2.06706551,15.7499211 0.359750289,14.1079413 0.255084915,12.0431073 L0.25,11.8420056 L0.25,3.94731941 C0.25,1.8564979 1.89198241,0.149185582 3.956797,0.0445203798 L4.15789681,0.0394354731 L7.31580152,0.0394354731 Z M9.59974769,10.2876124 L9.49914214,10.3772346 L5.626,14.2494355 L12.0526428,14.2499211 C12.8561429,14.2499211 13.5677252,13.856339 14.0051207,13.2514386 L11.1303605,10.3772648 C10.7120505,9.95899991 10.0524968,9.92912385 9.59974769,10.2876124 Z M3.36842064,8.03943547 C3.10620029,8.03943547 2.85319214,8.12871066 2.65005117,8.29040996 L2.5528245,8.37721694 L1.75,9.17943547 L1.75,11.8420056 C1.75,12.9711349 2.52715755,13.9187307 3.57574632,14.1790743 L6.759,10.9954355 L4.18403233,8.37724039 C3.96772184,8.16094937 3.67433712,8.03943547 3.36842064,8.03943547 Z M12.2177018,0.834933068 C12.5277545,0.834941479 12.7921428,1.03044105 12.8943331,1.30489208 L12.9278587,1.42700794 L12.9394848,1.55675274 L12.939937,3.10527607 L14.4886629,3.10593264 C14.8873021,3.10592223 15.2104726,3.42907469 15.2104844,3.82771387 C15.2104949,4.18205981 14.9551666,4.47677526 14.6184498,4.53790026 L14.4887057,4.54953281 L12.9390889,4.54882837 L12.9393775,6.09885916 C12.9393681,6.49749834 12.6161996,6.82065048 12.2175604,6.82063966 C11.8632144,6.82063005 11.5685117,6.56528504 11.5074034,6.22856479 L11.4957773,6.09882 L11.4955366,4.54967649 L9.94661059,4.54965144 C9.54797141,4.54966185 9.22480093,4.22650939 9.22478912,3.82787021 C9.22477863,3.47352427 9.48010691,3.17880882 9.81682369,3.11768382 L9.94656782,3.10605127 L11.4955341,3.10527354 L11.4958846,1.55671357 C11.495894,1.15807439 11.8190626,0.834922254 12.2177018,0.834933068 Z">
  </path>
</svg>