<svg viewBox="0 0 16 16" version="1.1" xmlns="http://www.w3.org/2000/svg" xmlns:xlink="http://www.w3.org/1999/xlink">
	<g stroke="none" stroke-width="1" fill="none" fill-rule="evenodd">
		<path fill="currentColor" d="M11.5,0 C13.9852814,0 16,2.01471863 16,4.5 L16,11.5 C16,13.9852814 13.9852814,16 11.5,16 L4.5,16 C2.01471863,16 0,13.9852814 0,11.5 L0,4.5 C0,2.01471863 2.01471863,0 4.5,0 L11.5,0 Z M10.9666667,1.33333333 L5.03333333,1.33333333 C3.05579762,1.33333333 1.44060991,2.88472957 1.33846204,4.83683021 L1.33333333,5.03333333 L1.33333333,10.9666667 C1.33333333,12.9442024 2.88472957,14.5593901 4.83683021,14.661538 L5.03333333,14.6666667 L10.9666667,14.6666667 C12.9442024,14.6666667 14.5593901,13.1152704 14.661538,11.1631698 L14.6666667,10.9666667 L14.6666667,5.03333333 C14.6666667,2.98987976 13.0101202,1.33333333 10.9666667,1.33333333 Z M8,3.28 C8.21379329,3.28 8.39132083,3.44505413 8.40686865,3.65828133 L8.64286629,6.89481945 C8.66091098,7.14228935 8.85771065,7.33908902 9.10518055,7.35713371 L12.3417187,7.59313135 C12.5549459,7.60867917 12.72,7.78620671 12.72,8 C12.72,8.21379329 12.5549459,8.39132083 12.3417187,8.40686865 L9.10518055,8.64286629 C8.85771065,8.66091098 8.66091098,8.85771065 8.64286629,9.10518055 L8.40686865,12.3417187 C8.39326431,12.5282925 8.25564425,12.6779838 8.07822699,12.7124914 L8,12.72 C7.78620671,12.72 7.60867917,12.5549459 7.59313135,12.3417187 L7.35713371,9.10518055 C7.33908902,8.85771065 7.14228935,8.66091098 6.89481945,8.64286629 L3.65828133,8.40686865 C3.44505413,8.39132083 3.28,8.21379329 3.28,8 C3.28,7.78620671 3.44505413,7.60867917 3.65828133,7.59313135 L6.89481945,7.35713371 C7.14228935,7.33908902 7.33908902,7.14228935 7.35713371,6.89481945 L7.59313135,3.65828133 C7.60673569,3.47170753 7.74435575,3.32201624 7.92177301,3.28750863 L8,3.28 Z" id="Icon" fill-rule="nonzero">
		</path>
	</g>
</svg>
