<svg viewBox="0 0 16 16" fill="none" xmlns="http://www.w3.org/2000/svg">
  <path
    d="M9.07784 5.06843C9.37413 4.77942 9.38002 4.30494 9.09101 4.00865C8.80199 3.71236 8.32751 3.70646 8.03122 3.99548L5.47204 6.49183C5.27416 6.68486 5.1986 6.97115 5.27546 7.23669C5.35233 7.50223 5.56913 7.70389 5.83953 7.76137L8.3499 8.29496L6.79442 9.81342C6.49824 10.1025 6.49252 10.577 6.78165 10.8732C7.07078 11.1694 7.54526 11.1751 7.84144 10.886L10.399 8.38933C10.5967 8.19626 10.6722 7.91 10.5953 7.64453C10.5184 7.37905 10.3016 7.17745 10.0313 7.11999L7.52154 6.58652L9.07784 5.06843Z"
    fill="currentColor" />
  <path fill-rule="evenodd" clip-rule="evenodd"
    d="M7.99977 14.7316C7.52199 14.7316 7.05539 14.6918 6.60184 14.6178L4.01338 15.9055C3.90564 15.9655 3.78158 15.9996 3.64955 15.9996C3.29218 15.9996 2.99322 15.7494 2.91823 15.4147C2.90426 15.3531 2.89837 15.2907 2.90011 15.2291C2.9001 14.8248 2.89982 14.4277 2.89955 14.0524L2.89955 14.0512C2.89929 13.6864 2.89905 13.3422 2.89908 13.0318C1.1481 11.6959 0 9.67182 0 7.36541C0 3.21556 3.6651 0 8 0C12.335 0 16 3.21649 16 7.36622L15.9997 7.38612C15.9876 11.5258 12.3276 14.7316 7.99977 14.7316ZM1.49888 7.36541C1.49888 4.17388 4.35607 1.49888 8 1.49888C11.6369 1.49888 14.4903 4.16441 14.5011 7.34802L14.5009 7.36541C14.5009 10.557 11.6436 13.2327 7.99977 13.2327C7.55512 13.2327 7.12107 13.191 6.69915 13.1134C6.52585 13.0641 6.33433 13.0767 6.16029 13.1633L4.39843 14.0398C4.39807 13.5395 4.39775 13.0795 4.39814 12.6915C4.41183 12.4391 4.29746 12.1858 4.07377 12.0323C2.49528 10.9491 1.49888 9.25797 1.49888 7.36541Z"
    fill="currentColor" />
</svg>