<svg viewBox="0 0 16 16" version="1.1" xmlns="http://www.w3.org/2000/svg" xmlns:xlink="http://www.w3.org/1999/xlink">
	<path d="M14,12 C14,11.4477153 14.4477153,11 15,11 C15.5522847,11 16,11.4477153 16,12 L16,14.0066023 C16,15.1081925 15.1050479,16 14.0029699,16 L12,16 C11.4477153,16 11,15.5522847 11,15 C11,14.4477153 11.4477153,14 12,14 L13.0007658,14 C13.5534735,14 14.0015315,13.5562497 14.0015315,12.9956701 L14.0015314,12.5975299 C14.0007408,11.4446138 14,12 14,12 Z M2,12 C2,11.4477153 1.55228475,11 1,11 C0.44771525,11 0,11.4477153 0,12 L0,14.0066023 C0,15.1081925 0.894952082,16 1.99703014,16 L4,16 C4.55228475,16 5,15.5522847 5,15 C5,14.4477153 4.55228475,14 4,14 L2.9992342,14 C2.44652651,14 1.99846845,13.5562497 1.99846852,12.9956701 L1.99846857,12.5975299 C1.99925918,11.4446138 2,12 2,12 Z M14,4 C14,4.55228475 14.4477153,5 15,5 C15.5522847,5 16,4.55228475 16,4 L16,1.99339768 C16,0.891807467 15.1050479,0 14.0029699,0 L12,0 C11.4477153,0 11,0.44771525 11,1 C11,1.55228475 11.4477153,2 12,2 L13.0007658,2 C13.5534735,2 14.0015315,2.4437503 14.0015315,3.00432986 L14.0015314,3.40247008 C14.0007408,4.55538619 14,4 14,4 Z M2,4 C2,4.55228475 1.55228475,5 1,5 C0.44771525,5 0,4.55228475 0,4 L0,1.99339768 C0,0.891807467 0.894952082,0 1.99703014,0 L4,0 C4.55228475,0 5,0.44771525 5,1 C5,1.55228475 4.55228475,2 4,2 L2.9992342,2 C2.44652651,2 1.99846845,2.4437503 1.99846852,3.00432986 L1.99846857,3.40247008 C1.99925918,4.55538619 2,4 2,4 Z" fill="currentColor">
	</path>
</svg>
