<?xml version="1.0" encoding="UTF-8"?>
<svg width="16px" height="16px" viewBox="0 0 16 16" version="1.1" xmlns="http://www.w3.org/2000/svg" xmlns:xlink="http://www.w3.org/1999/xlink">
    <path fill-rule="evenodd" fill="currentColor"  d="M9.5,3 C9.5,3.82843 8.82843,4.5 8,4.5 C7.17157,4.5 6.5,3.82843 6.5,3 C6.5,2.17157 7.17157,1.5 8,1.5 C8.82843,1.5 9.5,2.17157 9.5,3 Z M11,3 C11,3.8749 10.6255,4.66232 10.028,5.2107 L11.4591,7.89597 C11.6539,8.26151 11.5155,8.71576 11.15,8.91058 C10.7844,9.10539 10.3302,8.96698 10.1354,8.60144 L8.70461,5.91679 C8.47863,5.97119 8.24268,6 8,6 C6.34315,6 5,4.65685 5,3 C5,1.34315 6.34315,0 8,0 C9.65686,0 11,1.34315 11,3 Z M14.5,13 C14.5,13.8284 13.8284,14.5 13,14.5 C12.1716,14.5 11.5,13.8284 11.5,13 C11.5,12.1716 12.1716,11.5 13,11.5 C13.8284,11.5 14.5,12.1716 14.5,13 Z M16,13 C16,14.6569 14.6569,16 13,16 C11.5135,16 10.2795,14.9189 10.0415,13.5 L7.74747,13.5 C7.33325,13.5 6.99747,13.1642 6.99747,12.75 C6.99747,12.3358 7.33325,12 7.74747,12 L10.1707,12 C10.5825,10.8348 11.6938,10 13,10 C14.6569,10 16,11.3431 16,13 Z M5.8222,7.0864 C6.18774,7.28121 6.32615,7.73547 6.13134,8.10101 L4.79975,10.5996 C5.52856,11.1469 6,12.0184 6,13 C6,14.6569 4.65685,16 3,16 C1.34315,16 0,14.6569 0,13 C0,11.3431 1.34315,10 3,10 C3.13739,10 3.27263,10.0092 3.40512,10.0271 L4.80759,7.39553 C5.0024,7.02999 5.45666,6.89159 5.8222,7.0864 Z M4.5,13 C4.5,13.8284 3.82843,14.5 3,14.5 C2.17157,14.5 1.5,13.8284 1.5,13 C1.5,12.1716 2.17157,11.5 3,11.5 C3.82843,11.5 4.5,12.1716 4.5,13 Z"></path>
</svg>