<svg viewBox="0 0 9 16" fill="none" xmlns="http://www.w3.org/2000/svg">
<path fill="currentColor" d="M8.42137 14.9199C8.76042 14.7002 8.85204 14.255 8.62601 13.9254C8.61882 13.9149 8.61135 13.9047 8.60361 13.8946L4.49881 8.54357C4.15661 8.09747 4.15661 7.48586 4.49881 7.03976L8.60361 1.68877C8.84718 1.37126 8.7798 0.921954 8.45313 0.68522C8.44274 0.677694 8.43215 0.670435 8.42137 0.663451C8.04065 0.416753 7.53629 0.452309 7.19618 0.749825L0.57126 6.54499C-0.13713 7.16466 -0.194556 8.22515 0.442995 8.91367C0.483472 8.95739 0.526286 8.999 0.57126 9.03834L7.19618 14.8335C7.53629 15.131 8.04065 15.1666 8.42137 14.9199Z"/>
</svg>
