<svg xmlns="http://www.w3.org/2000/svg" xmlns:xlink="http://www.w3.org/1999/xlink" width="16" height="16" viewBox="0 0 16 16">
        <path fill="currentColor" d="M11.943 0c1.105 0 2 .895 2 2v8.344c0 .674-.34 1.303-.903 1.673L8.066 15.28c-.667.437-1.529.437-2.195 0L.902 12.017C.34 11.647 0 11.019 0 10.345V2C0 .895.895 0 2 0h9.943zM6.967 3c-.209 0-.396.135-.474.34L5.83 5.147c-.076.21-.314.39-.53.402l-1.851.1c-.21.01-.39.157-.457.368-.065.21 0 .442.164.578l1.44 1.216c.168.141.26.433.203.651l-.48 1.868c-.054.214.022.44.191.57.088.066.193.101.3.101.098 0 .194-.031.276-.088l1.555-1.057c.18-.122.475-.123.656 0l1.556 1.057c.177.12.404.113.575-.016.17-.128.246-.355.191-.569L9.14 8.46c-.056-.217.034-.509.202-.65l1.437-1.215c.164-.137.23-.368.164-.578-.066-.211-.248-.357-.457-.368l-1.85-.1c-.215-.012-.454-.192-.531-.402L7.44 3.341C7.363 3.135 7.175 3 6.967 3z"/>
</svg>
