<svg viewBox="0 0 16 16" version="1.1" xmlns="http://www.w3.org/2000/svg" xmlns:xlink="http://www.w3.org/1999/xlink">
    <g stroke="none" stroke-width="1" fill="none" fill-rule="evenodd">
        <g>
            <use fill="currentColor" xlink:href="#path-2"></use>
             <path d="M11.4286135,0.25 L4.57142913,0.25 C2.73356213,0.25 1.25,1.76443009 1.25,3.62493196 L1.25,14.5621499 C1.25050787,15.0041989 1.49394854,15.410503 1.8849618,15.6152501 L2.01969824,15.6754342 C2.3856828,15.811992 2.79932186,15.7575411 3.12034508,15.5230837 L7.999,11.965 L12.8800939,15.5242601 C13.2411424,15.7879323 13.7198828,15.8236678 14.1162266,15.6155511 C14.5073876,15.4100327 14.7504603,15.0029041 14.75,14.5613674 L14.75,3.62493196 C14.75,1.76443613 13.2664523,0.25 11.4286135,0.25 Z M11.4286135,1.75 L11.570499,1.75561887 C12.5071681,1.83008136 13.25,2.63549548 13.25,3.62493196 L13.25,13.937 L8.69135417,10.6128869 L8.57553315,10.5382238 C8.17885109,10.3142365 7.68335313,10.3391547 7.30816791,10.6132543 L2.749,13.937 L2.75,3.62493196 C2.75,2.58602211 3.56898183,1.75 4.57142913,1.75 L11.4286135,1.75 Z" id="path-2"></path>
        </g>
    </g>
</svg>