<svg viewBox="0 0 16 16" xmlns="http://www.w3.org/2000/svg" xmlns:xlink="http://www.w3.org/1999/xlink">
  <g fill="none" fill-rule="evenodd">
    <path fill="currentColor" d="M10.95.25a4.8 4.8 0 0 1 4.8 4.8v5.9a4.8 4.8 0 0 1-4.8 4.8h-5.9a4.8 4.8 0 0 1-4.8-4.8v-5.9a4.8 4.8 0 0 1 4.8-4.8zm0 1.5h-5.9a3.3 3.3 0 0 0-3.3 3.3v5.9a3.3 3.3 0 0 0 3.3 3.3h5.9a3.3 3.3 0 0 0 3.3-3.3v-5.9a3.3 3.3 0 0 0-3.3-3.3zM8.008 4.031a.75.75 0 0 1 .374.913l-.04.094-1.126 2.245h2.787a.75.75 0 0 1 .71.992l-.04.094-1.67 3.332a.75.75 0 0 1-1.38-.579l.039-.094 1.125-2.245H6a.75.75 0 0 1-.71-.992l.04-.094L7 4.366a.75.75 0 0 1 1.007-.335z" />
  </g>
</svg>
