<svg viewBox="0 0 16 16" version="1.1" xmlns="http://www.w3.org/2000/svg" xmlns:xlink="http://www.w3.org/1999/xlink">
  <g stroke="none" stroke-width="1" fill="none" fill-rule="evenodd">
    <path d="M1.5,8 C1.5,4.41016 4.41016,1.5 8,1.5 C11.5898,1.5 14.5,4.41016 14.5,8 C14.5,11.5898 11.5898,14.5 8,14.5 C4.41016,14.5 1.5,11.5898 1.5,8 Z M8,0 C3.58167,0 0,3.58173 0,8 C0,12.4183 3.58167,16 8,16 C12.4183,16 16,12.4183 16,8 C16,3.58173 12.4183,0 8,0 Z M12,5.75 C12,5.33582 11.6642,5 11.25,5 C10.8358,5 10.5,5.33582 10.5,5.75 L10.5,10.25 C10.5,10.6642 10.8358,11 11.25,11 C11.6642,11 12,10.6642 12,10.25 L12,5.75 Z M9,8 C9,8.5523 8.5522,9 8,9 C7.4478,9 7,8.5523 7,8 C7,7.4477 7.4478,7 8,7 C8.5522,7 9,7.4477 9,8 Z M5,9 C5.55225,9 6,8.5523 6,8 C6,7.4477 5.55225,7 5,7 C4.44775,7 4,7.4477 4,8 C4,8.5523 4.44775,9 5,9 Z" fill="currentColor"></path>
  </g>
</svg>
