<?xml version="1.0" encoding="UTF-8"?>
<svg viewBox="0 0 18 18" version="1.1"
  xmlns="http://www.w3.org/2000/svg"
  xmlns:xlink="http://www.w3.org/1999/xlink">
  <title>Path</title>
  <defs>
    <linearGradient x1="50%" y1="0%" x2="50%" y2="96.0440751%" id="linearGradient-1">
      <stop stop-color="currentColor" stop-opacity="0.85" offset="0%"></stop>
      <stop stop-color="currentColor" offset="100%"></stop>
    </linearGradient>
  </defs>
  <g id="Page-1" stroke="none" stroke-width="1" fill="none" fill-rule="evenodd">
    <g id="Create-Project_Channels_Learn" transform="translate(-323.000000, -549.000000)" fill="url(#linearGradient-1)" fill-rule="nonzero">
      <g id="Content" transform="translate(286.000000, 167.000000)">
        <g id="Row-2" transform="translate(0.000000, 346.000000)">
          <g id="Group" transform="translate(25.000000, 24.000000)">
            <path d="M28.5789462,23.8515887 C27.4686147,23.8515887 26.3810645,23.6782201 25.350312,23.3380998 C24.8472589,23.1647312 24.2759953,23.2983103 23.9453782,23.6355885 L21.9019029,25.1788529 C19.5571641,23.927393 18.0565313,22.4276928 16.822124,20.1000067 L18.3236894,18.1048471 C18.7016897,17.7268468 18.8371783,17.1735684 18.6751782,16.6553722 C18.3322157,15.618003 18.1579146,14.5294758 18.1579146,13.4210538 C18.1579146,12.6375647 17.5203499,12 16.7368608,12 L13.4210538,12 C12.6375647,12 12,12.6375647 12,13.4210538 C12,22.5622044 19.4377956,30 28.5789462,30 C29.3624353,30 30,29.3624353 30,28.5789462 L30,25.2726425 C30,24.4891534 29.3624353,23.8515887 28.5789462,23.8515887 Z" id="Path"></path>
          </g>
        </g>
      </g>
    </g>
  </g>
</svg>
