<?xml version="1.0" encoding="UTF-8"?>
<svg viewBox="0 0 20 16" version="1.1" xmlns="http://www.w3.org/2000/svg" xmlns:xlink="http://www.w3.org/1999/xlink">
            <defs>
        <linearGradient x1="50%" y1="-2.48949813e-15%" x2="50%" y2="100%" id="linearGradient-1">
            <stop stop-color="currentColor" stop-opacity="0.85" offset="0%"></stop>
            <stop stop-color="currentColor" offset="100%"></stop>
        </linearGradient>
    </defs>
    <g id="Symbols" stroke="none" stroke-width="1" fill="none" fill-rule="evenodd">
        <g id="Artboard" transform="translate(-2.000000, -4.000000)" fill="url(#linearGradient-1)" fill-rule="nonzero">
            <g id="user-minus-solid" transform="translate(2.000000, 4.000000)">
                <path d="M19.5,6.5 L13.5,6.5 C13.225,6.5 13,6.725 13,7 L13,8 C13,8.275 13.225,8.5 13.5,8.5 L19.5,8.5 C19.775,8.5 20,8.275 20,8 L20,7 C20,6.725 19.775,6.5 19.5,6.5 Z M7,8 C9.209375,8 11,6.209375 11,4 C11,1.790625 9.209375,0 7,0 C4.790625,0 3,1.790625 3,4 C3,6.209375 4.790625,8 7,8 Z M9.8,9 L9.278125,9 C8.584375,9.31875 7.8125,9.5 7,9.5 C6.1875,9.5 5.41875,9.31875 4.721875,9 L4.2,9 C1.88125,9 0,10.88125 0,13.2 L0,14.5 C0,15.328125 0.671875,16 1.5,16 L12.5,16 C13.328125,16 14,15.328125 14,14.5 L14,13.2 C14,10.88125 12.11875,9 9.8,9 Z" id="Shape"></path>
            </g>
        </g>
    </g>
</svg>