<svg width="16" height="16" viewBox="0 0 16 16" xmlns="http://www.w3.org/2000/svg" xmlns:xlink="http://www.w3.org/1999/xlink">
  <path  d="m5.058 1.277-1.948.217c-.588.065-1.551 1.028-1.616 1.616l-.217 1.948c-.053.476-.155.837-.635.837-.465 0-.642-.377-.642-.842V2.105C0 .943.943 0 2.105 0h2.948c.465 0 .842.177.842.642 0 .48-.36.582-.837.635zm5.884 0c-.476-.053-.837-.155-.837-.635 0-.465.377-.642.842-.642h2.948C15.057 0 16 .943 16 2.105v2.948c0 .465-.177.842-.642.842-.48 0-.582-.36-.635-.837l-.217-1.948c-.065-.588-1.028-1.551-1.616-1.616l-1.948-.217zM5.058 14.723c.476.053.837.155.837.635 0 .465-.377.642-.842.642H2.105A2.105 2.105 0 0 1 0 13.895v-2.948c0-.465.177-.842.642-.842.48 0 .582.36.635.837l.217 1.948c.065.588 1.028 1.551 1.616 1.616l1.948.217zm10.3-4.618c.465 0 .642.377.642.842v2.948A2.105 2.105 0 0 1 13.895 16h-2.948c-.465 0-.842-.177-.842-.642 0-.48.36-.582.837-.635l1.948-.217c.588-.065 1.551-1.028 1.616-1.616l.217-1.948c.053-.476.155-.837.635-.837zM10 3a3 3 0 0 1 3 3v4a3 3 0 0 1-3 3H6a3 3 0 0 1-3-3V6a3 3 0 0 1 3-3h4zM7.053 4.802a.51.51 0 0 0 .27.698c.883.387 1.552 1.339 1.552 2.5s-.669 2.113-1.551 2.5a.51.51 0 0 0-.27.698.58.58 0 0 0 .748.252C9.12 10.873 10 9.524 10 8c0-1.524-.88-2.873-2.198-3.45a.58.58 0 0 0-.749.252zm-1.02 1.52a.5.5 0 0 0 .288.645c.386.148.68.546.68 1.033 0 .487-.294.885-.68 1.033a.5.5 0 1 0 .358.934C7.46 9.667 8 8.89 8 8s-.54-1.667-1.321-1.967a.5.5 0 0 0-.646.288z" fill="currentColor" />
</svg>
