<svg viewBox="0 0 16 17" xmlns="http://www.w3.org/2000/svg" xmlns:xlink="http://www.w3.org/1999/xlink">
    <path transform="translate(0 .67)" fill-rule="evenodd" fill="currentColor" d="m14.02 7.679-.266 1.26c-.247 1.17-.41 1.925-.592 2.478-.173.524-.31.687-.404.767-.107.093-.226.17-.355.23-.111.052-.316.111-.865.055-.58-.06-1.335-.221-2.503-.475-1.158-.25-1.905-.415-2.452-.599-.519-.174-.68-.311-.76-.404a1.5 1.5 0 0 1-.228-.353c-.052-.11-.11-.314-.057-.859.057-.574.215-1.323.461-2.482l.268-1.26c.247-1.163.41-1.914.591-2.464.173-.521.31-.683.403-.764.106-.093.225-.17.354-.23.111-.051.315-.111.861-.057.576.057 1.328.215 2.491.462 1.162.247 1.912.408 2.46.59.521.173.683.31.764.402a1.5 1.5 0 0 1 .23.353c.051.112.11.315.057.861-.056.576-.213 1.327-.458 2.489zM5.47 2.993c.207-.589.449-1.004.805-1.315.213-.186.451-.34.708-.46.908-.422 2.038-.182 4.296.298 2.256.48 3.384.719 4.042 1.473.186.213.341.45.46.707.422.907.184 2.036-.293 4.293l-.266 1.26c-.48 2.272-.72 3.407-1.479 4.068-.214.186-.453.34-.71.46-.773.357-1.704.236-3.349-.109A2.75 2.75 0 0 1 7.328 15H4.7c-.9 0-1.649 0-2.244-.08-.628-.084-1.195-.27-1.65-.726-.456-.456-.642-1.023-.726-1.651C0 11.948 0 11.198 0 10.299V7.694c0-.899 0-1.649.08-2.244.084-.628.27-1.195.726-1.65.455-.456 1.022-.642 1.65-.727.595-.08 1.345-.08 2.244-.08h.77zm-.404 1.501c-.083.368-.17.777-.267 1.231l-.268 1.26c-.478 2.251-.718 3.377-.298 4.284a3 3 0 0 0 .456.706c.58.67 1.531.937 3.31 1.33a1.244 1.244 0 0 1-.671.194H4.752c-.965 0-1.612-.001-2.096-.066-.461-.063-.659-.17-.79-.3-.13-.13-.237-.328-.299-.79-.065-.483-.066-1.131-.066-2.096V7.746c0-.965.001-1.612.066-2.096.062-.461.17-.66.3-.79.13-.13.328-.237.79-.3.483-.064 1.13-.066 2.095-.066h.314z" />
</svg>
