<?xml version="1.0" encoding="UTF-8"?>
<svg viewBox="0 0 16 16" version="1.1" xmlns="http://www.w3.org/2000/svg" xmlns:xlink="http://www.w3.org/1999/xlink">
    <title>Icon/Skill-Category/Assistant</title>
    <defs>
        <linearGradient x1="50%" y1="-2.48949813e-15%" x2="50%" y2="100%" id="linearGradient-1">
            <stop stop-color="currentColor" stop-opacity="0.85" offset="0%"></stop>
            <stop stop-color="currentColor" offset="100%"></stop>
        </linearGradient>
    </defs>
    <g id="Icon/Skill-Category/Assistant" stroke="none" stroke-width="1" fill="none" fill-rule="evenodd">
        <g id="chat" fill="url(#linearGradient-1)" fill-rule="nonzero">
            <path d="M10.532856,3.99294369 L10.7496608,3.99875244 C14.3757661,4.17419103 16.832,7.77727875 15.6640312,11.2054893 L15.6640312,11.2054893 L15.681154,11.2054893 C15.6144717,11.4012632 15.5365302,11.5938869 15.4468928,11.782924 L15.4468928,11.782924 L15.9599844,14.348694 C16.0177154,14.6373489 15.7968655,14.9082573 15.5012242,14.9082573 L15.5012242,14.9082573 L15.4880046,14.908766 C15.476866,14.9093009 15.4644114,14.9084661 15.3826094,14.8932311 L15.3170544,14.880798 C15.0722021,14.8337651 14.4509044,14.7096471 12.8130682,14.3858402 C12.0842729,14.73154 11.3027368,14.9070721 10.4873606,14.9081637 C7.48129435,14.9037973 5.03728655,12.457232 5.03728655,9.45016764 C5.03728655,6.35253021 7.62947368,3.85440936 10.7496608,3.99875244 Z M5.48952827,-0.000124756334 C7.6048655,-0.000124756334 9.49071345,1.21690448 10.3922339,3.0577154 C6.3977232,3.12127875 3.40619103,6.82591813 4.23946979,10.772616 C3.8677271,10.685692 3.50593372,10.5595322 3.15621053,10.3936374 L3.15621053,10.3936374 L0.558814815,10.9071657 C0.232140351,10.9717895 -0.0559844055,10.6831033 0.00932553606,10.3564912 L0.00932553606,10.3564912 L0.522417154,7.79072125 C0.175844055,7.05980507 0.000249512671,6.27586745 0.000249512671,5.45796491 C0.000249512671,2.44837427 2.46272125,-0.000124756334 5.48952827,-0.000124756334 Z" id="Combined-Shape"></path>
        </g>
    </g>
</svg>
