<svg viewBox="0 0 16 16" version="1.1" xmlns="http://www.w3.org/2000/svg" xmlns:xlink="http://www.w3.org/1999/xlink">
	<g stroke="none" stroke-width="1" fill="none" fill-rule="evenodd">
		<path d="M8,0 C3.58146241,0 0,3.58210185 0,7.99958807 C0,12.4178982 3.58146241,16 8,16 C12.4185376,16 16,12.4178982 16,7.99958807 C16,3.58210185 12.4185376,0 8,0 L8,0 Z M8.03878233,14.4 C4.50443527,14.4 1.6392,11.5347647 1.6392,7.99958233 C1.6392,4.46523527 4.50443527,1.6 8.03878233,1.6 C11.5739647,1.6 14.4392,4.46523527 14.4392,7.99958233 C14.4392,11.5347647 11.5739647,14.4 8.03878233,14.4 L8.03878233,14.4 Z M6.94833935,8.56537308 L11.1281576,5.12852595 C11.3557912,4.94135465 11.6846003,4.96063005 11.8899241,5.17318212 C12.0900253,5.38032774 12.0900253,5.71398555 11.8899241,5.92113117 L7.29221093,10.6807036 C6.88386528,11.1034248 6.21846245,11.1068516 5.8059921,10.6883577 C5.77992286,10.6619077 5.75522281,10.634077 5.73199337,10.6049799 L4.16890688,8.64706215 C3.98407923,8.41554754 3.99965948,8.07837647 4.20500808,7.86579871 C4.41200618,7.65151339 4.74159155,7.62675929 4.97686071,7.80782734 L5.98178769,8.5812401 C6.26969193,8.80281721 6.66750735,8.79628663 6.94833935,8.56537308 Z" fill="currentColor">
		</path>
	</g>
</svg>
