<svg viewBox="0 0 15 15">
  <g fill="none" fill-rule="evenodd" opacity=".8">
    <g transform="translate(.55 .5)">
      <path fill="currentColor"
        d="M6.389 7.611a.955.955 0 1 1-1.35 1.35 4.167 4.167 0 0 1 0-5.893L6.886 1.22a4.167 4.167 0 0 1 5.893 5.893.955.955 0 0 1-1.35-1.35 2.258 2.258 0 1 0-3.193-3.193L6.389 4.418a2.258 2.258 0 0 0 0 3.193zM7.61 6.39a.955.955 0 1 1 1.35-1.35 4.167 4.167 0 0 1 0 5.893L7.114 12.78a4.167 4.167 0 0 1-5.893-5.893.955.955 0 1 1 1.35 1.35 2.258 2.258 0 1 0 3.193 3.193l1.847-1.847a2.258 2.258 0 0 0 0-3.193z" />
    </g>
  </g>
</svg>
