<svg viewBox="0 0 8 8" xmlns="http://www.w3.org/2000/svg" xmlns:xlink="http://www.w3.org/1999/xlink">
    <defs>
        <path d="M11.799 5.261c.281-.28.26-.758-.021-1.04-.282-.28-.759-.302-1.04-.02l-2.49 2.507a.339.339 0 0 1-.479 0L5.275 4.213a.726.726 0 0 0-1.027 0l-.035.036a.726.726 0 0 0 0 1.026L6.707 7.77a.328.328 0 0 1-.008.47l-2.482 2.481c-.28.282-.26.759.022 1.04.28.281.758.302 1.04.021l2.48-2.481c.133-.132.313-.166.445-.034l2.521 2.521a.726.726 0 0 0 1.027 0l.035-.036a.726.726 0 0 0 0-1.026l-2.52-2.521c-.133-.132-.099-.313.033-.445L11.8 5.26Z" id="a"/>
    </defs>
    <g transform="translate(-4 -4)" fill="none" fill-rule="evenodd">
        <use fill="#FFF" xlink:href="#a"/>
        <use fill-opacity=".85" fill="currentColor" xlink:href="#a"/>
    </g>
</svg>
