<svg viewBox="0 0 7 7" version="1.1" xmlns="http://www.w3.org/2000/svg" xmlns:xlink="http://www.w3.org/1999/xlink">
  <path
    d="M12.5,8.25 C12.5,8.66421 12.16421,9 11.75,9 L9.25,9 C9.11193,9 9,9.11193 9,9.25 L9,11.75 C9,12.16421 8.66421,12.5 8.25,12.5 C7.83579,12.5 7.5,12.16421 7.5,11.75 L7.5,9.25 C7.5,9.11193 7.38807,9 7.25,9 L4.75,9 C4.335787,9 4,8.66421 4,8.25 C4,7.83579 4.335786,7.5 4.75,7.5 L7.25,7.5 C7.38807,7.5 7.5,7.38807 7.5,7.25 L7.5,4.75 C7.5,4.335787 7.83579,4 8.25,4 C8.66421,4 9,4.335786 9,4.75 L9,7.25 C9,7.38807 9.11193,7.5 9.25,7.5 L11.75,7.5 C12.16421,7.5 12.5,7.83579 12.5,8.25 Z"
    fill="currentColor" transform="translate(3.5,-8) rotate(45.000000)">
  </path>
</svg>
