<svg viewBox="0 0 16 16" version="1.1" xmlns="http://www.w3.org/2000/svg" xmlns:xlink="http://www.w3.org/1999/xlink">
	<g id="Icon/System/Commenting" stroke="none" stroke-width="1" fill="none" fill-rule="evenodd">
		<g id="Combined-Shape" transform="translate(0.265719, 1.130754)">
			<path d="M12.6704476,0 C14.2168449,-2.84068575e-16 15.4704476,1.2536027 15.4704476,2.8 C15.4704476,2.88394494 15.4666725,2.96784742 15.4591339,3.05145318 L14.9013835,9.23706166 C14.8039688,10.317418 13.9336298,11.1655339 12.8511156,11.2349783 L10.3240194,11.3970941 C9.95943449,11.4204826 9.63025,11.6233552 9.44548596,11.9385241 L8.24543431,13.9855615 C8.07784694,14.2714305 7.71024788,14.3673168 7.42437883,14.1997294 C7.33571973,14.1477541 7.26189713,14.073877 7.20998719,13.9851796 L6.01249563,11.9390509 C5.82786429,11.6235752 5.49858142,11.4204221 5.13380464,11.396937 L2.62322504,11.2353007 C1.54147666,11.1656555 0.671667372,10.3184299 0.573595387,9.23888742 L0.0116625372,3.05332527 C-0.128245149,1.51326994 1.00679879,0.151390821 2.54685413,0.0114831352 C2.63107913,0.00383164023 2.71560756,1.55355959e-17 2.8001794,0 L12.6704476,0 Z M7.53154459,6.66924587 L4.42957401,6.66924587 C4.04557401,6.66924587 3.73428051,6.98053937 3.73428051,7.36453937 C3.73428051,7.74853937 4.04557401,8.05983287 4.42957401,8.05983287 L4.42957401,8.05983287 L7.53154459,8.05983287 C7.91554459,8.05983287 8.22683809,7.74853937 8.22683809,7.36453937 C8.22683809,6.98053937 7.91554459,6.66924587 7.53154459,6.66924587 L7.53154459,6.66924587 Z M11.038987,3.96924587 L4.42957401,3.96924587 C4.04557401,3.96924587 3.73428051,4.28053937 3.73428051,4.66453937 C3.73428051,5.04853937 4.04557401,5.35983287 4.42957401,5.35983287 L4.42957401,5.35983287 L11.038987,5.35983287 C11.422987,5.35983287 11.7342805,5.04853937 11.7342805,4.66453937 C11.7342805,4.28053937 11.422987,3.96924587 11.038987,3.96924587 L11.038987,3.96924587 Z" fill="currentColor">
			</path>
		</g>
	</g>
</svg>
