<?xml version="1.0" encoding="UTF-8"?>
<svg viewBox="0 0 16 16" version="1.1" xmlns="http://www.w3.org/2000/svg" xmlns:xlink="http://www.w3.org/1999/xlink">
	<g id="Icon/System/Component" stroke="none" stroke-width="1" fill="none" fill-rule="evenodd">
		<path fill="currentColor" d="M7.62272831,9.40643947 C7.83108971,9.19807807 8.16891029,9.19807807 8.37727169,9.40643947 L8.37727169,9.40643947 L11.3954453,12.424613 C11.6038067,12.6329744 11.6038067,12.970795 11.3954453,13.1791564 L11.3954453,13.1791564 L8.98090641,15.5936953 C8.43916676,16.1354349 7.56083324,16.1354349 7.01909359,15.5936953 L7.01909359,15.5936953 L4.60455475,13.1791564 C4.39619335,12.970795 4.39619335,12.6329744 4.60455475,12.424613 L4.60455475,12.424613 Z M13.1791564,4.60455475 L15.5936953,7.01909359 C16.1354349,7.56083324 16.1354349,8.43916676 15.5936953,8.98090641 L13.1791564,11.3954453 C12.970795,11.6038067 12.6329744,11.6038067 12.424613,11.3954453 L9.40643947,8.37727169 C9.19807807,8.16891029 9.19807807,7.83108971 9.40643947,7.62272831 L12.424613,4.60455475 C12.6329744,4.39619335 12.970795,4.39619335 13.1791564,4.60455475 Z M2.82084358,4.60455475 C3.02920499,4.39619335 3.36702557,4.39619335 3.57538697,4.60455475 L3.57538697,4.60455475 L6.59356053,7.62272831 C6.80192193,7.83108971 6.80192193,8.16891029 6.59356053,8.37727169 L6.59356053,8.37727169 L3.57538697,11.3954453 C3.36702557,11.6038067 3.02920499,11.6038067 2.82084358,11.3954453 L2.82084358,11.3954453 L0.406304737,8.98090641 C-0.135434912,8.43916676 -0.135434912,7.56083324 0.406304737,7.01909359 L0.406304737,7.01909359 Z M8.98090641,0.406304737 L11.3954453,2.82084358 C11.6038067,3.02920499 11.6038067,3.36702557 11.3954453,3.57538697 L8.37727169,6.59356053 C8.16891029,6.80192193 7.83108971,6.80192193 7.62272831,6.59356053 L4.60455475,3.57538697 C4.39619335,3.36702557 4.39619335,3.02920499 4.60455475,2.82084358 L7.01909359,0.406304737 C7.56083324,-0.135434912 8.43916676,-0.135434912 8.98090641,0.406304737 Z" id="path-2">
		</path>
	</g>
</svg>
