<?xml version="1.0" encoding="UTF-8"?>
<svg width="16px" height="16px" viewBox="0 0 16 16" version="1.1" xmlns="http://www.w3.org/2000/svg" xmlns:xlink="http://www.w3.org/1999/xlink">
    <title>Icon/Skill-Category/Custom Payload</title>
    <defs>
        <linearGradient x1="50%" y1="1.22154986%" x2="50%" y2="100%" id="linearGradient-1">
            <stop stop-color="#8F8F91" stop-opacity="0.85" offset="0%"></stop>
            <stop stop-color="#8F8F91" offset="100%"></stop>
        </linearGradient>
        <path d="M13,0 C14.8196817,0 16,1.18031832 16,3 L16,13 C16,14.8196817 14.8196817,16 13,16 L3,16 C1.18031832,16 0,14.8196817 0,13 L0,3 C0,1.18031832 1.18031832,0 3,0 L13,0 Z M12.0500002,4.13999987 L3.95000005,4.13999987 C2.73687893,4.13999987 1.95000005,4.92687875 1.95000005,6.13999987 L1.95000005,6.13999987 L1.95000005,12.0299997 C1.95000005,13.2431209 2.73687893,14.0299997 3.95000005,14.0299997 L3.95000005,14.0299997 L12.0500002,14.0299997 C13.2631213,14.0299997 14.0500002,13.2431209 14.0500002,12.0299997 L14.0500002,12.0299997 L14.0500002,6.13999987 C14.0500002,4.92687875 13.2631213,4.13999987 12.0500002,4.13999987 L12.0500002,4.13999987 Z M8.82536374,9.79553312 C9.26038193,9.79553312 9.61288121,10.1489293 9.61288121,10.5839475 C9.61288121,11.0189657 9.26038193,11.371465 8.82536374,11.371465 L4.47787268,11.371465 C4.04285449,11.371465 3.69035522,11.0189657 3.69035522,10.5839475 C3.69035522,10.1489293 4.04285449,9.79553312 4.47787268,9.79553312 L8.82536374,9.79553312 Z M10.5492915,6.63200909 C10.9843097,6.63200909 11.336809,6.98450837 11.336809,7.41952656 C11.336809,7.85454475 10.9843097,8.20704402 10.5492915,8.20704402 L4.47787268,8.20704402 C4.04285449,8.20704402 3.69035522,7.85454475 3.69035522,7.41952656 C3.69035522,6.98450837 4.04285449,6.63200909 4.47787268,6.63200909 L10.5492915,6.63200909 Z" id="path-2"></path>
    </defs>
    <g id="Icon/Skill-Category/Custom-Payload" stroke="none" stroke-width="1" fill="none" fill-rule="evenodd">
        <g id="Group">
            <rect id="Rectangle" x="0" y="0" width="16" height="16"></rect>
            <g id="commandline">
                <use fill="#FFFFFF" xlink:href="#path-2"></use>
                <use fill="url(#linearGradient-1)" xlink:href="#path-2"></use>
            </g>
        </g>
    </g>
</svg>