<svg viewBox="0 0 16 16" version="1.1" xmlns="http://www.w3.org/2000/svg" xmlns:xlink="http://www.w3.org/1999/xlink">
  <path fill="currentColor" transform="translate(1.000000, 1.000000)"
    d="M7,-0.75 C11.2802068,-0.75 14.75,2.71979319 14.75,7 C14.75,11.2802068 11.2802068,14.75 7,14.75 C2.71979319,14.75 -0.75,11.2802068 -0.75,7 C-0.75,2.71979319 2.71979319,-0.75 7,-0.75 Z M7,0.75 C3.54822031,0.75 0.75,3.54822031 0.75,7 C0.75,10.4517797 3.54822031,13.25 7,13.25 C10.4517797,13.25 13.25,10.4517797 13.25,7 C13.25,3.54822031 10.4517797,0.75 7,0.75 Z M7.02678566,7.02824308 L7,7.02776482 C7.03839224,7.02776482 7.07611073,7.03064953 7.11295053,7.03621401 C7.12443146,7.03801717 7.13614102,7.04007265 7.14780579,7.04240732 C7.17289581,7.04735278 7.19719212,7.053526 7.22098366,7.06085099 C7.23255582,7.06447434 7.2446052,7.06850603 7.25656616,7.0728519 C7.27995161,7.08133981 7.30202019,7.09064168 7.32352179,7.10093796 C7.3353849,7.10659178 7.34806482,7.11308208 7.36058998,7.11995687 C7.37935273,7.13030479 7.39709186,7.14105699 7.4143304,7.15250304 C7.42485474,7.15945922 7.43556841,7.1669775 7.44612307,7.17480857 L7.53024174,7.24742413 L9.47473153,9.19183618 C9.76763061,9.48472355 9.7676401,9.95959728 9.47475274,10.2524964 C9.2084915,10.5187682 8.7918283,10.5429826 8.49821245,10.325134 L8.41409257,10.2525176 L7.75,9.588 L7.75,11.6665889 C7.75,12.0808025 7.41421356,12.4165889 7,12.4165889 C6.62030423,12.4165889 6.30650904,12.134435 6.25684662,11.7683595 L6.25,11.6665889 L6.25,9.587 L5.58584029,10.252507 C5.31957373,10.5187735 4.90291004,10.5429796 4.60929855,10.3251251 L4.52518012,10.252507 C4.25891356,9.98624039 4.2347075,9.56957671 4.45256196,9.27596522 L4.52518012,9.19184678 L6.46959217,7.24743473 L6.48982625,7.2280125 C6.5093653,7.20987174 6.52987296,7.19275993 6.55126304,7.17676326 L6.46959217,7.24743473 C6.50750661,7.20952029 6.54847048,7.17651379 6.5916943,7.14841523 C6.60828185,7.13775897 6.62530703,7.12762019 6.64274979,7.1181531 C6.65764023,7.10998121 6.67273443,7.10245816 6.68801494,7.09547522 C6.70620938,7.0871864 6.72523067,7.07938699 6.74462411,7.07236458 C6.75988887,7.066865 6.7747159,7.06204465 6.78965151,7.05769774 C6.81042064,7.05159447 6.83195773,7.04632105 6.85383678,7.04199918 C6.86813273,7.03923651 6.88189121,7.03692582 6.89569305,7.03499971 C6.92942956,7.03024162 6.96442554,7.02776482 7,7.02776482 C7.01275061,7.0278412 7.01976956,7.02799317 7.02678566,7.02824308 Z M3.88889407,6.25 C4.30310763,6.25 4.63889407,6.58578644 4.63889407,7 C4.63889407,7.37969577 4.35674019,7.69349096 3.99066463,7.74315338 L3.88889407,7.75 L3.11112148,7.75 C2.69690791,7.75 2.36112148,7.41421356 2.36112148,7 C2.36112148,6.62030423 2.64327536,6.30650904 3.00935092,6.25684662 L3.11112148,6.25 L3.88889407,6.25 Z M10.8889018,6.25 C11.3031154,6.25 11.6389018,6.58578644 11.6389018,7 C11.6389018,7.37969577 11.356748,7.69349096 10.9906724,7.74315338 L10.8889018,7.75 L10.111137,7.75 C9.69692346,7.75 9.36113703,7.41421356 9.36113703,7 C9.36113703,6.62030423 9.64329091,6.30650904 10.0093665,6.25684662 L10.111137,6.25 L10.8889018,6.25 Z M4.69637223,3.64722232 L4.78049169,3.71983929 L5.33047031,4.26980236 C5.62336766,4.56269144 5.62337438,5.03756517 5.3304853,5.33046253 C5.0642225,5.59673286 4.64755916,5.6209448 4.35394459,5.40309449 L4.26982513,5.33047752 L3.71984651,4.78051445 C3.42694915,4.48762538 3.42694244,4.01275164 3.71983151,3.71985428 C3.98609431,3.45358396 4.40275765,3.42937201 4.69637223,3.64722232 Z M10.2801806,3.71983526 C10.546449,3.98609994 10.570658,4.40276345 10.3528056,4.69637649 L10.2801881,4.78049543 L9.73021722,5.33047405 C9.43732607,5.62336934 8.96245233,5.6233727 8.66955704,5.33048155 C8.4032886,5.06421687 8.3790796,4.64755336 8.59693199,4.35394033 L8.66954955,4.26982138 L9.21952039,3.71984276 C9.51241154,3.42694747 9.98728528,3.42694411 10.2801806,3.71983526 Z M7,2.36112148 C7.37969577,2.36112148 7.69349096,2.64327536 7.74315338,3.00935092 L7.75,3.11112148 L7.75,3.88889407 C7.75,4.30310763 7.41421356,4.63889407 7,4.63889407 C6.62030423,4.63889407 6.30650904,4.35674019 6.25684662,3.99066463 L6.25,3.88889407 L6.25,3.11112148 C6.25,2.69690791 6.58578644,2.36112148 7,2.36112148 Z">
  </path>
</svg>