<?xml version="1.0" encoding="UTF-8"?>
<svg version="1.1" width="16px" height="16px" viewBox="0 0 16.0 16.0"
    xmlns="http://www.w3.org/2000/svg"
    xmlns:xlink="http://www.w3.org/1999/xlink">
    <defs>
        <clipPath id="i0">
            <path d="M9.57893397,0.0796503017 C10.4536292,0.291346362 11.1795842,0.959148003 11.4661981,1.81458835 C11.5111188,1.94940833 11.545471,2.08504331 11.569421,2.22085709 L11.5838086,2.33277718 L13.1943046,2.33326153 C14.4146357,2.33326153 15.4133801,3.28114956 15.4944902,4.48089162 L15.4998086,4.63875079 L15.4998086,13.1942732 C15.4998086,14.4676635 14.4676949,15.4997772 13.1943046,15.4997772 L4.63878223,15.4997772 C3.36556671,15.4997772 2.33329296,14.4678309 2.33329296,13.1950097 L2.33280861,11.5867772 L2.20252011,11.5671834 C0.771976279,11.3058639 -0.226149702,9.92414744 0.0443190884,8.42176173 L0.0796342131,8.2543842 C0.291331098,7.37865336 0.959468679,6.65230466 1.81448888,6.36696725 C1.9493213,6.32201484 2.08498083,6.2876358 2.22081139,6.26366618 L2.33180861,6.24777718 L2.33255642,4.63875079 C2.33255642,3.41842546 3.28044571,2.41968927 4.48018667,2.33857988 L4.63804568,2.33326153 L6.24580861,2.33277718 L6.26586674,2.20248948 C6.53687766,0.718964738 8.01287764,-0.299519088 9.57893397,0.0796503017 Z M7.72162575,2.69420508 C7.72162575,2.77389835 7.72986532,2.85449735 7.74627444,2.93705936 L7.75930611,3.03582653 C7.78716315,3.46046311 7.44979945,3.83326153 7.0106625,3.83326153 L4.63804568,3.83326153 C4.19308985,3.83326153 3.83255642,4.19379496 3.83255642,4.63875079 L3.83255642,7.01136761 C3.83255642,7.4858406 3.39751051,7.84108355 2.93261612,7.74622672 L2.80716081,7.72743074 C2.6387416,7.71127048 2.46580449,7.73099002 2.28911744,7.78989651 C1.92415089,7.91169319 1.62780043,8.23386302 1.53757506,8.60709997 C1.34738549,9.39262641 1.92006908,10.1114223 2.69423651,10.1114223 C2.77392978,10.1114223 2.85452878,10.1031827 2.93709079,10.0867736 L3.03585796,10.0737419 C3.46049454,10.0458849 3.83329296,10.3832486 3.83329296,10.8223855 L3.83329296,13.1950097 C3.83329296,13.6392973 4.1938873,13.9997772 4.63878223,13.9997772 L13.1943046,13.9997772 C13.6392678,13.9997772 13.9998086,13.6392364 13.9998086,13.1942732 L13.9998086,4.63875079 C13.9998086,4.19379687 13.6392697,3.83326153 13.1943046,3.83326153 L10.8216804,3.83326153 C10.3473447,3.83326153 9.99213309,3.3984529 10.0867542,2.93365053 L10.105597,2.8077423 C10.1218154,2.638846 10.1021543,2.46594891 10.0435096,2.2899366 C9.92101534,1.92433627 9.59855233,1.62770448 9.22602173,1.53754363 C8.44047867,1.34735003 7.72162575,1.92005548 7.72162575,2.69420508 Z M8.79289148,6.02374595 C9.1845128,6.15867413 9.39260371,6.58552685 9.25767553,6.97714817 L8.90517972,7.99862186 L10.1011612,8.01100915 C10.5765011,8.0157684 10.9177914,8.45166097 10.8306054,8.90143111 L10.8027455,9.00528065 L10.1116918,11.0110244 C9.97676362,11.4026457 9.54991091,11.6107366 9.15828959,11.4758084 C8.76666826,11.3408802 8.55857735,10.9140275 8.69350554,10.5224062 L9.04466418,9.50047208 L7.85001987,9.48854521 C7.37468,9.48378597 7.03338969,9.0478934 7.12057565,8.59812326 L7.14843559,8.49427372 L7.83948926,6.48853 C7.97441744,6.09690868 8.40127015,5.88881777 8.79289148,6.02374595 Z"></path>
        </clipPath>
        <linearGradient id="i1" x1="7.74990431px" y1="0px" x2="7.74990431px" y2="15.4997772px" gradientUnits="userSpaceOnUse">
            <stop stop-color="rgba(110, 132, 153, 0.85)" offset="0%"></stop>
            <stop stop-color="#6E849A" offset="100%"></stop>
        </linearGradient>
    </defs>
    <g transform="translate(0 0)">
        <g clip-path="url(#i0)">
            <polygon points="4.4408921e-16,0 15.4998086,0 15.4998086,15.4997772 4.4408921e-16,15.4997772 4.4408921e-16,0" stroke="none" fill="currentColor"></polygon>
            <polygon points="4.4408921e-16,0 15.4998086,0 15.4998086,15.4997772 4.4408921e-16,15.4997772 4.4408921e-16,0" stroke="none" fill="currentColor" opacity="85%"></polygon>
        </g>
    </g>
</svg>