<?xml version="1.0" encoding="UTF-8"?>
<svg width="16px" height="16px" viewBox="0 0 16 16" version="1.1" xmlns="http://www.w3.org/2000/svg" xmlns:xlink="http://www.w3.org/1999/xlink">
  <path d="M6.42162007,0.105035723 C11.6732314,-0.747061762 16.1489856,3.70985655 15.330075,8.95608623 C14.8349616,12.1321675 12.3118561,14.7135744 9.15102286,15.2956915 C7.57419404,15.5854047 6.07181163,15.384489 4.75240595,14.832868 C4.39093723,14.6812844 3.98551821,14.670521 3.63301894,14.8409405 L3.63301894,14.8409405 L1.33235573,15.9567398 C1.01035257,16.1128082 0.651574686,15.8221981 0.738578324,15.4750805 L0.738578324,15.4750805 L1.38437852,12.8739408 C1.474073,12.512472 1.39334797,12.1375491 1.19422624,11.8227216 C0.221938165,10.2880491 -0.229225029,8.391908 0.114304799,6.37288543 C0.656956355,3.18693778 3.2311877,0.622572827 6.42162007,0.105035723 Z M9.50041329,4 L7.26562684,4 C7.03263913,4 6.82454257,4.1434915 6.74492064,4.35904924 L6.74492064,4.35904924 L5.52232756,7.66893376 C5.45417101,7.85345166 5.54710857,8.05791346 5.73228209,8.13083185 L5.73228209,8.13083185 L7.27460293,8.65076578 L7.27460293,8.65076578 C7.40144845,8.69746991 7.46315294,8.83133679 7.41864453,8.95196156 L7.41864453,8.95196156 L6.43842579,11.6085079 C6.42839993,11.6385585 6.42329162,11.6699874 6.42329162,11.7016174 C6.42329162,11.8664096 6.55899048,12 6.72638389,12 C6.99190589,12 7.24401755,11.8851449 7.41587458,11.6858869 L7.41587458,11.6858869 L10.412093,8.0348129 C10.4404703,8.00191113 10.4626709,7.96429853 10.4776556,7.92373568 C10.547379,7.73499888 10.4484845,7.52635383 10.2567685,7.45771391 L10.2567685,7.45771391 L8.76955674,7.12595888 C8.74880306,7.12132932 8.72878148,7.11387825 8.71005049,7.10381353 C8.59679115,7.04295588 8.55431119,6.90180617 8.61516884,6.78854683 L8.61516884,6.78854683 L9.82235273,4.54191318 C9.85345271,4.48748349 9.86978972,4.42608613 9.86978972,4.36363636 C9.86978972,4.16280555 9.70441421,4 9.50041329,4 L9.50041329,4 Z" fill="currentColor" />
</svg>
