<svg viewBox="0 0 16 16" version="1.1" xmlns="http://www.w3.org/2000/svg" xmlns:xlink="http://www.w3.org/1999/xlink">
    <path d="M8,0 C12.4183,0 16,3.58179 16,8 C16,12.4182 12.4183,16 8,16 C3.58167,16 0,12.4182 0,8 C0,3.58179 3.58167,0 8,0 Z M8,1.5 C4.41014913,1.5 1.5,4.41014913 1.5,8 C1.5,11.5898509 4.41014913,14.5 8,14.5 C11.5898509,14.5 14.5,11.5898509 14.5,8 C14.5,4.41014913 11.5898509,1.5 8,1.5 Z M7.56983341,3.27530317 C7.86133379,3.27801828 8.10866591,3.48994459 8.15602891,3.77758428 L8.59982278,6.47278356 C8.61367095,6.55688472 8.63020368,6.64052176 8.64939564,6.7235666 L8.74090212,7.11952103 C8.8190109,7.45750272 9.00414532,7.76123752 9.26876218,7.98553758 L9.48608065,8.1697456 C9.61817764,8.28171641 9.7487377,8.3954879 9.87772421,8.51102818 L11.6441161,10.0932822 C11.8250137,10.2553221 11.8521044,10.5287294 11.7065236,10.7231185 C11.5596786,10.9191956 11.2895891,10.9748325 11.077206,10.8527542 L7.59825467,8.85304572 C7.26872627,8.6636321 7.06557056,8.31253219 7.06557056,7.93244471 L7.06557056,3.77489105 C7.06557056,3.49896431 7.28925338,3.2752815 7.56518012,3.2752815 L7.56983341,3.27530317 Z" id="path-2"></path>
    <g id="Icon/System/Delay" stroke="none" stroke-width="1" fill="none" fill-rule="evenodd">
      <use fill="currentColor" xlink:href="#path-2"></use>
      <use fill="currentColor" xlink:href="#path-2"></use>
    </g>
</svg>
