<?xml version="1.0" encoding="UTF-8"?>
<svg viewBox="0 0 16 16" version="1.1" xmlns="http://www.w3.org/2000/svg" xmlns:xlink="http://www.w3.org/1999/xlink">
  <defs>
    <path d="M8,0 C12.4183,0 16,3.58179 16,8 C16,12.4182 12.4183,16 8,16 C3.58167,16 0,12.4182 0,8 C0,3.58179 3.58167,0 8,0 Z M8,1.5 C4.41014913,1.5 1.5,4.41014913 1.5,8 C1.5,11.5898509 4.41014913,14.5 8,14.5 C11.5898509,14.5 14.5,11.5898509 14.5,8 C14.5,4.41014913 11.5898509,1.5 8,1.5 Z M7.78085277,4.22148932 C8.11028809,4.22148932 8.38301866,4.46427122 8.42988343,4.78067398 L8.43699772,4.87763428 L8.43682963,8.12683022 L10.9657767,9.66895227 C11.2442234,9.83876204 11.351329,10.1827883 11.2324197,10.4754373 L11.1843373,10.5707747 C11.0145276,10.8492214 10.6705013,10.956327 10.3778523,10.8374177 L10.2825149,10.7893353 L7.4392219,9.05536294 C7.27179133,8.95325599 7.16031302,8.78271384 7.13187902,8.59199109 L7.12470781,8.4951714 L7.12470781,4.87763428 C7.12470781,4.51525542 7.41847391,4.22148932 7.78085277,4.22148932 Z" id="path-2"></path>
  </defs>
  <g stroke="none" stroke-width="1" fill="none" fill-rule="evenodd">
    <g id="Combined-Shape">
      <use fill="currentColor" xlink:href="#path-2"></use>
    </g>
  </g>
</svg>
