<svg xmlns="http://www.w3.org/2000/svg" version="1.0" width="840.000000pt" height="804.000000pt" viewBox="0 0 840.000000 804.000000" preserveAspectRatio="xMidYMid meet">

<g transform="translate(0.000000,804.000000) scale(0.100000,-0.100000)" fill="#DE692A" stroke="none">
<path d="M4093 7563 c-9 -7 -23 -13 -30 -13 -25 0 -103 -40 -103 -53 0 -8 -4 -7 -10 3 -7 11 -10 11 -10 2 0 -7 -4 -11 -9 -8 -5 3 -11 0 -14 -7 -5 -14 -93 -60 -114 -60 -8 0 -11 -7 -8 -15 4 -12 3 -13 -10 -2 -9 7 -15 8 -15 2 0 -13 -110 -73 -121 -66 -5 3 -9 0 -9 -6 0 -6 -4 -8 -10 -5 -5 3 -10 1 -10 -6 0 -7 -3 -10 -6 -6 -3 3 -17 -6 -30 -20 -13 -14 -24 -22 -24 -18 0 4 -11 0 -23 -8 -13 -8 -32 -17 -43 -19 -10 -2 -29 -14 -41 -27 -13 -13 -23 -21 -23 -17 0 3 -21 -5 -47 -18 -25 -14 -50 -23 -55 -20 -4 3 -8 0 -8 -6 0 -6 -4 -8 -10 -5 -5 3 -10 2 -10 -4 0 -11 -88 -62 -112 -64 -10 -1 -18 -5 -18 -10 0 -4 -4 -6 -9 -3 -5 3 -11 0 -14 -7 -7 -16 -127 -75 -134 -65 -1 2 -8 -4 -15 -14 -13 -16 -100 -64 -127 -70 -8 -2 -25 -14 -38 -27 -13 -13 -23 -21 -23 -18 0 4 -21 -4 -47 -18 -26 -13 -51 -21 -55 -19 -4 3 -8 0 -8 -5 0 -14 -135 -82 -145 -73 -5 4 -5 2 -2 -4 5 -9 -116 -77 -135 -75 -5 1 -17 -7 -27 -16 -35 -32 -51 -44 -51 -38 0 3 -17 -3 -39 -14 -21 -11 -41 -17 -45 -14 -3 4 -6 1 -6 -5 0 -14 -135 -84 -144 -75 -3 4 -6 -1 -6 -10 0 -10 -5 -17 -11 -17 -6 0 -38 -13 -69 -29 -32 -16 -61 -27 -64 -24 -3 4 -6 1 -6 -5 0 -7 -6 -12 -14 -12 -8 0 -16 -4 -18 -9 -4 -10 -130 -76 -140 -73 -5 1 -8 -2 -8 -7 0 -5 -13 -14 -30 -21 -16 -7 -28 -15 -26 -19 3 -4 -4 -8 -15 -9 -44 -4 -49 -6 -49 -19 0 -7 -3 -12 -7 -11 -5 1 -46 -18 -93 -42 -47 -24 -97 -51 -113 -58 -65 -34 -153 -156 -124 -174 8 -5 6 -8 -5 -8 -11 0 -15 -5 -12 -15 4 -9 0 -15 -7 -15 -11 0 -11 -3 1 -10 8 -5 11 -10 5 -10 -6 0 -9 -26 -9 -60 1 -51 6 -64 27 -84 14 -13 28 -21 31 -18 3 3 6 -1 6 -8 0 -7 3 -11 6 -7 9 8 124 -51 124 -64 0 -5 5 -7 10 -4 6 3 10 1 10 -6 0 -7 3 -10 6 -6 9 9 124 -51 124 -64 0 -8 5 -7 15 1 13 11 14 10 9 -6 -4 -10 -4 -16 1 -12 4 4 29 -4 55 -17 26 -13 50 -22 54 -20 3 3 4 2 2 -1 -3 -3 1 -12 7 -19 9 -9 16 -10 25 -3 9 8 11 6 6 -8 -4 -10 -4 -16 1 -12 9 9 145 -60 145 -73 0 -5 3 -8 8 -7 20 5 111 -43 120 -65 2 -4 8 -5 13 -1 5 3 9 0 9 -7 0 -7 3 -9 6 -6 9 8 124 -53 124 -65 0 -5 4 -6 10 -3 6 3 10 1 10 -4 0 -6 3 -10 8 -9 13 4 87 -30 108 -51 12 -11 25 -17 28 -14 3 4 6 2 6 -4 0 -9 6 -11 49 -15 11 -1 18 -5 16 -9 -3 -3 11 -15 30 -25 19 -10 35 -23 35 -29 0 -5 5 -3 10 5 8 13 10 12 10 -4 0 -11 3 -16 7 -13 7 8 123 -54 123 -66 0 -4 4 -6 9 -3 10 7 151 -70 163 -88 4 -6 8 -8 8 -3 0 11 120 -52 120 -64 0 -5 5 -7 10 -4 6 3 10 1 10 -6 0 -7 3 -9 6 -6 9 9 144 -63 144 -76 0 -6 3 -8 6 -4 7 7 144 -62 144 -73 0 -4 6 -7 13 -7 17 0 102 -42 125 -62 10 -9 24 -17 31 -19 20 -4 67 -29 209 -106 67 -37 127 -64 132 -61 6 3 13 -1 16 -9 3 -9 26 -25 50 -38 24 -12 44 -26 44 -30 0 -5 5 -6 10 -3 6 3 10 3 10 -2 0 -4 12 -9 26 -10 15 0 29 -5 33 -10 3 -4 20 -8 36 -8 17 0 39 -4 50 -9 24 -12 53 -13 82 -4 12 4 25 3 28 -2 4 -6 14 -6 26 1 11 6 27 8 35 5 8 -3 14 0 14 5 0 6 9 9 20 6 11 -3 20 -1 20 5 0 6 6 8 14 5 8 -3 16 -3 18 2 5 12 145 81 152 74 3 -4 6 -1 6 5 0 11 115 76 135 77 5 0 20 10 34 23 13 12 31 22 40 22 10 0 22 5 27 10 6 6 21 13 35 15 13 3 25 9 27 15 2 6 8 8 13 4 5 -3 9 0 9 5 0 13 95 62 104 54 3 -4 6 2 6 13 0 16 2 17 10 4 7 -11 10 -11 10 -2 0 8 5 10 12 6 8 -5 9 -2 5 10 -4 9 -3 15 1 12 5 -3 27 6 51 20 24 13 47 21 52 18 5 -3 9 0 9 6 0 6 5 8 10 5 6 -3 10 -1 10 5 0 6 5 8 10 5 6 -3 10 -1 10 4 0 13 115 72 124 64 3 -4 6 0 6 7 0 7 3 11 6 7 3 -3 14 2 24 11 35 32 47 40 71 47 13 4 30 12 37 18 7 5 15 7 18 4 9 -9 33 17 26 28 -3 6 -2 7 3 3 4 -4 29 4 55 17 26 13 50 21 54 18 3 -4 6 0 6 7 0 7 3 10 7 7 3 -4 11 0 17 7 15 19 128 76 138 70 4 -3 8 -1 8 5 0 15 131 82 144 73 5 -3 6 3 2 14 -4 10 -4 15 0 12 3 -4 36 8 71 27 36 19 69 32 74 29 5 -3 9 0 9 5 0 6 32 27 70 46 39 19 70 32 70 28 0 -4 6 0 13 9 12 16 99 64 126 70 8 2 23 11 33 21 10 10 23 15 28 12 6 -4 10 2 10 11 0 10 3 15 6 11 4 -3 24 3 45 14 22 11 39 16 39 12 0 -5 4 -3 8 4 12 18 81 63 105 67 12 3 24 5 27 6 3 2 8 2 13 1 4 0 7 3 7 9 0 5 18 19 40 30 22 11 40 18 40 15 0 -3 10 4 22 15 12 11 28 18 34 16 7 -3 14 1 17 7 5 14 113 70 134 70 7 0 13 4 13 9 0 10 140 81 140 71 1 -5 7 3 15 17 8 14 14 21 15 17 0 -4 9 -3 20 3 22 12 29 73 9 86 -6 3 -8 17 -5 30 4 14 2 24 -4 24 -5 0 -10 7 -10 15 0 31 -67 119 -105 136 -42 20 -65 36 -60 42 3 4 2 5 -1 2 -9 -6 -144 65 -144 77 0 5 -4 7 -8 4 -4 -2 -36 11 -71 29 -35 19 -68 32 -72 29 -5 -3 -6 3 -2 13 3 10 3 15 -2 11 -4 -4 -23 2 -43 12 -19 11 -39 17 -44 14 -4 -3 -8 -1 -8 5 0 5 -39 29 -87 53 -49 23 -95 51 -104 60 -9 10 -19 15 -22 12 -3 -3 -24 6 -46 21 -23 14 -46 23 -50 20 -5 -2 -12 2 -15 11 -3 8 -10 12 -16 9 -5 -3 -10 -3 -10 2 0 4 -27 21 -60 37 -33 16 -68 37 -77 45 -10 9 -29 18 -43 20 -14 1 -27 6 -30 10 -3 4 -27 20 -55 36 -27 15 -53 33 -57 39 -5 7 -8 7 -8 -2 0 -10 -4 -9 -16 2 -8 9 -20 14 -25 11 -5 -4 -9 -2 -9 2 0 5 -20 19 -45 33 -25 14 -45 27 -45 31 0 3 -6 6 -13 6 -17 0 -281 142 -285 154 -2 5 -7 7 -12 4 -9 -6 -133 63 -138 77 -2 4 -7 6 -12 3 -9 -6 -133 63 -138 77 -2 4 -8 6 -12 3 -8 -5 -46 11 -60 25 -3 3 -22 14 -42 25 -21 11 -38 23 -38 28 0 4 -5 5 -12 1 -6 -4 -17 1 -25 11 -7 11 -13 15 -13 11 0 -4 -22 5 -50 21 -27 15 -50 32 -50 36 0 5 -4 6 -9 2 -5 -3 -17 2 -25 11 -9 8 -16 13 -16 10 0 -3 -30 10 -66 29 -37 19 -73 35 -80 35 -8 0 -14 3 -14 8 0 4 -20 18 -45 31 -25 13 -45 28 -45 33 0 5 -4 7 -9 4 -11 -7 -101 42 -101 55 0 6 -4 7 -10 4 -5 -3 -10 -3 -10 2 0 4 -12 9 -26 10 -15 0 -29 5 -33 10 -14 19 -213 24 -238 6z"/>
<path d="M7090 5360 c-8 -5 -18 -6 -22 -4 -4 3 -8 0 -8 -6 0 -6 -8 -14 -17 -17 -10 -4 -36 -18 -58 -32 -22 -14 -44 -26 -50 -27 -13 -3 -278 -145 -285 -153 -3 -3 -11 -7 -19 -9 -8 -2 -41 -18 -72 -37 -32 -18 -60 -31 -63 -28 -3 4 -6 1 -6 -6 0 -7 -5 -11 -12 -9 -7 3 -22 -4 -34 -15 -30 -26 -115 -68 -125 -61 -5 3 -9 1 -9 -4 0 -12 -156 -93 -164 -85 -3 4 -6 0 -6 -8 0 -13 -98 -63 -110 -57 -3 2 -19 -9 -35 -24 -16 -16 -36 -28 -43 -28 -8 0 -27 -9 -43 -21 -16 -11 -33 -18 -38 -15 -5 4 -11 2 -13 -2 -5 -15 -129 -83 -139 -77 -5 4 -9 2 -9 -3 0 -5 -25 -21 -55 -37 -30 -15 -53 -30 -51 -34 3 -4 -4 -7 -14 -8 -9 -1 -73 -32 -141 -69 -68 -37 -135 -73 -148 -80 -14 -7 -28 -11 -33 -8 -4 3 -8 0 -8 -5 0 -6 -7 -11 -15 -11 -7 0 -18 -6 -22 -13 -9 -13 -63 -42 -75 -39 -5 1 -8 -3 -8 -9 0 -6 -7 -9 -15 -5 -8 3 -15 2 -15 -2 0 -4 -25 -21 -55 -37 -30 -17 -55 -34 -55 -38 0 -5 -4 -5 -10 -2 -5 3 -10 0 -10 -7 0 -9 -3 -9 -10 2 -5 8 -10 11 -10 5 0 -12 -23 -25 -186 -111 -67 -35 -124 -60 -128 -57 -3 4 -6 1 -6 -6 0 -7 -4 -9 -10 -6 -5 3 -10 2 -10 -3 0 -10 -65 -53 -85 -58 -32 -7 -41 -11 -59 -26 -11 -10 -23 -18 -27 -18 -5 0 -30 -12 -56 -27 -26 -16 -57 -28 -68 -28 -11 1 -23 -3 -26 -7 -9 -13 -179 -33 -187 -22 -4 5 -25 10 -47 11 -61 2 -84 8 -105 25 -10 9 -21 14 -24 11 -3 -4 -6 -1 -6 6 0 7 -4 9 -10 6 -5 -3 -10 -1 -10 5 0 6 -4 8 -10 5 -5 -3 -10 -1 -10 5 0 6 -4 9 -8 6 -4 -2 -32 8 -61 24 -30 17 -57 27 -62 24 -5 -3 -6 3 -2 13 3 10 3 15 -2 11 -9 -9 -145 62 -145 75 0 4 -4 5 -10 2 -6 -3 -10 -1 -10 6 0 7 -3 9 -7 6 -7 -8 -134 60 -145 77 -4 6 -8 8 -8 3 0 -4 -17 2 -37 13 -21 11 -42 20 -48 20 -6 0 -17 9 -25 19 -7 11 -17 18 -22 15 -4 -3 -8 0 -8 7 0 7 -3 10 -6 6 -4 -3 -20 1 -36 9 -16 8 -34 12 -41 8 -7 -4 -9 -4 -5 1 11 11 -29 38 -44 29 -6 -4 -9 -3 -6 2 3 5 0 15 -8 22 -8 7 -14 10 -14 7 0 -3 -13 1 -29 9 -16 9 -31 12 -35 9 -3 -4 -6 -1 -6 5 0 13 -59 44 -71 36 -5 -3 -6 3 -2 12 4 11 2 15 -4 11 -5 -3 -26 3 -46 13 -21 11 -37 18 -37 15 0 -3 -10 3 -22 14 -11 11 -25 18 -30 15 -4 -3 -8 2 -8 10 0 9 -3 15 -7 14 -13 -3 -83 25 -83 34 0 4 -6 8 -13 8 -8 0 -22 9 -32 20 -10 11 -20 18 -24 16 -11 -7 -153 68 -146 78 3 3 2 4 -1 1 -6 -4 -168 77 -291 147 -29 16 -53 26 -53 21 0 -4 -4 -3 -8 3 -9 14 -74 49 -84 46 -5 -1 -8 5 -8 14 0 8 -4 12 -10 9 -5 -3 -10 -1 -10 6 0 7 -3 10 -6 6 -9 -8 -104 42 -104 55 0 6 -8 5 -17 -3 -10 -7 -15 -10 -11 -5 9 10 -14 36 -26 29 -4 -3 -11 -2 -15 3 -12 16 -112 65 -121 59 -6 -3 -7 1 -4 10 4 11 2 14 -9 9 -8 -3 -18 0 -22 5 -3 6 -11 9 -16 6 -5 -4 -9 -2 -9 3 0 8 -50 36 -58 32 -2 -1 -11 7 -20 17 -17 18 -34 26 -64 27 -9 0 -15 3 -13 6 2 3 -16 17 -41 30 -24 14 -44 27 -44 31 0 3 -7 6 -15 7 -8 1 -22 3 -30 4 -8 1 -15 4 -15 7 0 4 -20 17 -45 31 -25 14 -45 28 -45 32 0 4 -7 5 -15 2 -13 -5 -15 -162 -14 -1278 0 -699 4 -1280 8 -1291 5 -11 4 -28 -1 -37 -5 -10 -5 -18 -1 -18 4 0 16 -20 26 -43 31 -77 56 -94 402 -277 161 -85 180 -94 188 -92 4 1 7 -2 7 -7 0 -8 72 -42 86 -40 4 0 10 -4 13 -10 4 -6 52 -35 107 -64 54 -29 140 -75 189 -102 139 -75 139 -75 152 -75 6 0 18 -6 25 -13 13 -13 117 -70 333 -182 61 -31 116 -64 123 -73 7 -10 15 -16 17 -14 14 7 35 -1 54 -20 l22 -23 -1 -592 c0 -326 2 -593 5 -593 3 0 23 9 44 20 21 10 42 16 46 12 5 -4 5 1 2 10 -3 10 -3 17 1 16 15 -5 71 25 65 35 -4 6 0 8 10 4 9 -3 19 -2 23 4 3 6 12 8 20 5 8 -3 14 -1 14 5 0 5 11 14 25 21 13 6 23 14 20 17 -2 4 5 8 16 9 42 4 49 6 49 12 0 11 116 70 124 63 3 -3 6 -1 6 5 0 12 185 115 207 115 7 0 13 4 13 8 0 12 96 60 104 52 3 -4 6 0 6 7 0 7 3 10 6 7 4 -4 15 3 25 14 10 12 22 18 28 15 5 -3 11 -2 13 2 5 13 135 82 142 75 3 -3 6 -1 6 6 0 7 5 9 10 6 6 -3 10 -1 10 4 0 13 95 62 104 54 3 -4 6 -1 6 6 0 7 5 9 10 6 6 -3 10 -2 10 3 0 11 100 66 100 55 0 -4 4 -3 8 2 14 21 71 55 91 55 12 0 21 4 21 10 0 5 37 28 83 51 45 23 89 48 98 56 9 8 26 15 38 16 11 1 21 4 21 8 0 11 91 59 101 53 5 -3 9 -1 9 4 0 5 23 21 50 36 28 15 50 32 50 38 0 6 6 6 15 -2 11 -9 15 -9 15 -1 0 6 11 16 25 21 14 5 28 16 31 23 3 8 16 13 30 11 13 -1 24 1 24 6 0 4 24 20 54 36 30 16 52 33 48 39 -3 5 2 4 11 -4 9 -7 17 -9 17 -4 0 13 95 64 104 56 3 -3 6 -1 6 5 0 6 23 23 50 37 28 14 50 22 50 19 0 -4 11 5 25 20 14 15 25 24 25 21 0 -3 30 11 68 31 107 59 115 63 124 58 4 -3 8 1 8 8 1 12 73 53 95 53 16 0 34 19 27 29 -3 5 0 6 7 2 7 -5 18 0 26 10 8 11 15 16 15 11 0 -4 13 -1 29 7 16 9 31 12 35 9 3 -4 6 -1 6 5 0 14 75 54 84 45 3 -4 6 2 6 13 0 16 2 17 10 4 5 -8 10 -10 10 -4 0 12 80 59 80 47 0 -4 4 -3 8 3 12 18 133 85 143 79 5 -4 9 -3 9 2 0 4 23 21 50 36 28 16 50 25 50 22 0 -6 16 6 51 38 10 9 19 15 19 12 0 -3 13 1 29 9 16 9 31 12 35 9 3 -4 6 -1 6 5 0 15 95 63 105 54 5 -4 5 -1 1 6 -4 7 -1 12 8 12 8 0 16 3 18 8 2 4 38 25 82 47 43 22 81 46 83 53 4 9 9 10 19 1 11 -9 14 -9 14 0 0 7 4 10 9 7 5 -3 11 1 15 9 3 8 12 15 21 15 8 0 15 3 15 8 0 10 51 32 61 26 5 -3 9 0 9 5 0 6 7 11 15 11 8 0 15 4 15 9 0 5 14 15 32 22 43 18 100 68 91 82 -4 6 0 8 11 4 9 -4 15 -3 11 2 -4 8 21 67 35 81 3 3 3 591 0 1307 -4 1135 -7 1301 -20 1293z"/>
</g>
</svg>