<?xml version="1.0" encoding="UTF-8"?>
<svg version="1.1" viewBox="0 0 16 16" xmlns="http://www.w3.org/2000/svg" xmlns:xlink="http://www.w3.org/1999/xlink">
  <g fill="none" fill-rule="evenodd">
    <g transform="translate(8 8) scale(-1 1) translate(-8 -8)">
      <g transform="translate(8 8) rotate(90) translate(-6 -7)">
        <path fill="currentColor"
          d="m7.7314 8.3402l-0.48864 4.5606c-0.066947 0.62484-0.60326 1.0992-1.2428 1.0992s-1.1758-0.47435-1.2428-1.0992l-0.48864-4.5606c-0.081665-0.76221-0.72489-1.3402-1.4915-1.3402h-2.0848c-0.38235 0-0.69231-0.31898-0.69231-0.71247 0-0.18295 0.068383-0.35888 0.19098-0.49136l5.057-5.4645c0.39554-0.42741 1.0529-0.44391 1.4682-0.036852 0.012226 0.011983 0.024166 0.02427 0.035809 0.036852l5.057 5.4645c0.26369 0.28494 0.253 0.73591-0.023873 1.0073-0.12873 0.12617-0.29969 0.19654-0.47745 0.19654h-2.0848c-0.76657 0-1.4098 0.57799-1.4915 1.3402z" />
      </g>
    </g>
  </g>
</svg>