<svg viewBox="0 0 16 16" xmlns="http://www.w3.org/2000/svg" xmlns:xlink="http://www.w3.org/1999/xlink">
  <g fill="none" fill-rule="evenodd">
    <path fill="currentColor" d="M10.75 2.5h1.69L8.22 6.72a.75.75 0 0 0 1.06 1.06l4.22-4.22v1.69a.75.75 0 0 0 1.5 0V3.21c0-.319 0-.628-.034-.883-.039-.287-.133-.615-.405-.888-.273-.272-.6-.366-.888-.405C13.418 1 13.109 1 12.791 1H10.75a.75.75 0 0 0 0 1.5zm-3.412.04a.75.75 0 1 0-.179-1.49 7.001 7.001 0 1 0 7.791 7.788.75.75 0 0 0-1.49-.178 5.501 5.501 0 1 1-6.122-6.12z" />
  </g>
</svg>
