<svg viewBox="0 0 16 16" xmlns="http://www.w3.org/2000/svg" xmlns:xlink="http://www.w3.org/1999/xlink">
  <g fill="none" fill-rule="evenodd">
    <path fill="currentColor" d="m10.764 2.798-.953.952 1.439 1.44.952-.953a1.018 1.018 0 0 0-1.438-1.44zM2.44 11.12l6.31-6.309 1.44 1.439-6.31 6.31a.917.917 0 0 1-.426.24l-1.673.42.418-1.674a.917.917 0 0 1 .241-.426zm7.263-9.383a2.518 2.518 0 0 1 3.56 3.56L4.94 13.62c-.31.31-.697.53-1.122.636l-2.886.722a.75.75 0 0 1-.91-.91l.722-2.886c.106-.425.326-.813.636-1.122l8.323-8.323zm6.13 11.484a.75.75 0 0 0-1.167-.942c-.761.944-1.274 1.175-1.594 1.214-.329.04-.666-.089-1.186-.401a16.373 16.373 0 0 1-.262-.162c-.431-.27-.985-.616-1.583-.786-.815-.232-1.707-.155-2.694.473a.75.75 0 0 0 .806 1.266c.638-.407 1.09-.406 1.478-.296.373.106.7.308 1.117.567.114.07.235.146.366.224.542.325 1.268.711 2.142.604.884-.11 1.714-.69 2.578-1.761z" />
  </g>
</svg>
