<svg viewBox="0 0 16 16" version="1.1" xmlns="http://www.w3.org/2000/svg" xmlns:xlink="http://www.w3.org/1999/xlink">
  <g stroke="none" stroke-width="1" fill="none" fill-rule="evenodd">
    <path d="M2.33789,2.20642004 C2.96268,1.48076804 3.92831,1.00000004 5.25,1.00000004 C5.66421,1.00000004 6,1.33578604 6,1.75000004 C6,2.16421004 5.66421,2.50000004 5.25,2.50000004 C4.32168,2.50000004 3.78732,2.82193004 3.47461,3.18513004 C3.14239,3.57099004 3,4.07526004 3,4.50000004 L3,5.39004004 C3,6.37369004 2.61424,7.30724004 1.94277,8.00000004 C2.61424,8.69276004 3,9.62631004 3,10.60996 L3,11.5 C3,11.9247 3.14239,12.429 3.47461,12.8149 C3.78732,13.1781 4.32168,13.5 5.25,13.5 C5.66421,13.5 6,13.8358 6,14.25 C6,14.6642 5.66421,15 5.25,15 C3.92831,15 2.96268,14.5192 2.33789,13.7936 C1.73261,13.0906 1.5,12.2199 1.5,11.5 L1.5,10.60996 C1.5,9.87070004 1.13685,9.17860004 0.528538,8.75852004 L0.323821,8.61715004 C0.121049,8.47712004 0,8.24642004 0,8.00000004 C0,7.75358004 0.121049,7.52288004 0.323821,7.38285004 L0.528538,7.24148004 C1.13685,6.82140004 1.5,6.12931004 1.5,5.39004004 L1.5,4.50000004 C1.5,3.78014004 1.73261,2.90942004 2.33789,2.20642004 Z M10.7743,6.21371004 C11.0705,6.50327004 11.0759,6.97811004 10.7863,7.27430004 L8.48465,9.62862004 C8.01351,10.11054 7.24514,10.13219 6.74762,9.67756004 L5.24408,8.30366004 C4.9383,8.02425004 4.91693,7.54986004 5.19634,7.24408004 C5.47576,6.93830004 5.95015,6.91692004 6.25593,7.19634004 L7.4026,8.24414004 C7.5021,8.33506004 7.65578,8.33073004 7.75,8.23435004 L9.71371,6.22570004 C10.0033,5.92952004 10.4781,5.92414004 10.7743,6.21371004 Z M10.75,1.00000004 C12.0717,1.00000004 13.0373,1.48076804 13.6621,2.20642004 C14.2674,2.90942004 14.5,3.78014004 14.5,4.50000004 L14.5,5.39004004 C14.5,6.12931004 14.8631,6.82140004 15.4715,7.24148004 L15.6762,7.38285004 C15.879,7.52288004 16,7.75358004 16,8.00000004 C16,8.24642004 15.879,8.47712004 15.6762,8.61715004 L15.4715,8.75852004 C14.8631,9.17860004 14.5,9.87070004 14.5,10.60996 L14.5,11.5 C14.5,12.2199 14.2674,13.0906 13.6621,13.7936 C13.0373,14.5192 12.0717,15 10.75,15 C10.3358,15 10,14.6642 10,14.25 C10,13.8358 10.3358,13.5 10.75,13.5 C11.6783,13.5 12.2127,13.1781 12.5254,12.8149 C12.8576,12.429 13,11.9247 13,11.5 L13,10.60996 C13,9.62631004 13.3858,8.69276004 14.0572,8.00000004 C13.3858,7.30724004 13,6.37369004 13,5.39004004 L13,4.50000004 C13,4.07526004 12.8576,3.57099004 12.5254,3.18513004 C12.2127,2.82193004 11.6783,2.50000004 10.75,2.50000004 C10.3358,2.50000004 10,2.16421004 10,1.75000004 C10,1.33578604 10.3358,1.00000004 10.75,1.00000004 Z" id="path-2"></path>
    <g id="Shape">
      <use fill="currentColor" xlink:href="#path-2"></use>
    </g>
  </g>
</svg>
