<svg viewBox="0 0 16 16" version="1.1" xmlns="http://www.w3.org/2000/svg" xmlns:xlink="http://www.w3.org/1999/xlink">
  <path fill="currentColor" fill-rule="evenodd"
    d="M9.32405002,2.04304002 C8.59263002,1.31768002 7.39835002,1.32065002 6.67703002,2.04196002 L4.88644002,3.83255002 L7.99633002,6.94245002 L11.1099,3.82888002 L9.32485002,2.04384002 L9.32405002,2.04304002 Z M12.1706,4.88955002 L9.05699002,8.00311002 L12.1674,11.1136 L13.958,9.32296002 C14.6793,8.60169002 14.6823,7.40750002 13.9571,6.67606002 L13.9562,6.67514002 L12.1706,4.88955002 Z M6.93567002,8.00311002 L3.82578002,4.89321002 L2.04384002,6.67514002 L2.04299002,6.67601002 C1.31768002,7.40743002 1.32067002,8.60167002 2.04196002,9.32296002 L3.82889002,11.1099 L6.93567002,8.00311002 Z M4.88955002,12.1706 L7.99633002,9.06377002 L11.1068,12.1742 L9.32296002,13.958 C8.60169002,14.6793 7.40750002,14.6823 6.67606002,13.9571 L6.67514002,13.9562 L4.88955002,12.1706 Z M3.35883002,12.7612 L5.61637002,15.0187 L5.61827002,15.0206 C6.93244002,16.3254 9.07419002,16.3281 10.3836,15.0187 L15.0187,10.3836 C16.3281,9.07419002 16.3254,6.93244002 15.0206,5.61826002 L10.3836,0.981297024 L10.3817,0.979416024 C9.06756002,-0.325433976 6.92581002,-0.328137976 5.61637002,0.981300024 L3.31279002,3.28488002 C3.30685002,3.29046002 3.30097002,3.29614002 3.29517002,3.30195002 C3.28937002,3.30775002 3.28368002,3.31362002 3.27811002,3.31956002 L0.981297024,5.61637002 L0.979416024,5.61827002 C-0.325433976,6.93244002 -0.328137976,9.07419002 0.981300024,10.3836 L3.23828002,12.6406 C3.25583002,12.6626 3.27479002,12.6839 3.29517002,12.7043 C3.31555002,12.7246 3.33681002,12.7436 3.35883002,12.7612 Z">
  </path>
</svg>