<svg xmlns="http://www.w3.org/2000/svg" xmlns:xlink="http://www.w3.org/1999/xlink"><defs><linearGradient x1="50%" y1="0%" x2="50%" y2="100%" id="b"><stop stop-color="currentColor" stop-opacity=".85" offset="0%"/><stop stop-color="currentColor" offset="100%"/></linearGradient><path d="M11.5 2A2.5 2.5 0 0114 4.5v7a2.5 2.5 0 01-2.5 2.5h-7A2.5 2.5 0 012 11.5v-7A2.5 2.5 0 014.5 2h7zm0 1h-7A1.5 1.5 0 003 4.5v7A1.5 1.5 0 004.5 13h7a1.5 1.5 0 001.5-1.5v-7A1.5 1.5 0 0011.5 3zm-9-3a.5.5 0 01.5.5v1a.5.5 0 01-1 0v-1a.5.5 0 01.5-.5zm0 14a.5.5 0 01.5.5v1a.5.5 0 11-1 0v-1a.5.5 0 01.5-.5zm-2-1h1a.5.5 0 110 1h-1a.5.5 0 110-1zm14 0h1a.5.5 0 110 1h-1a.5.5 0 110-1zm0-11h1a.5.5 0 110 1h-1a.5.5 0 110-1zm-1-2a.5.5 0 01.5.5v1a.5.5 0 11-1 0v-1a.5.5 0 01.5-.5zm0 14a.5.5 0 01.5.5v1a.5.5 0 11-1 0v-1a.5.5 0 01.5-.5zM.5 2h1a.5.5 0 010 1h-1a.5.5 0 010-1z" id="a"/></defs><g fill="none" fill-rule="evenodd"><path d="M0 0h16v16H0z"/><use fill="#FFF" xlink:href="#a"/><use fill="url(#b)" xlink:href="#a"/></g></svg>