<svg viewBox="0 0 16 16" version="1.1" xmlns="http://www.w3.org/2000/svg" xmlns:xlink="http://www.w3.org/1999/xlink">
    <defs>
        <path d="M11.1127308,0.25 C13.6738239,0.25 15.75,2.32617614 15.75,4.88726919 L15.75,4.88726919 L15.75,11.1127308 C15.75,13.6738239 13.6738239,15.75 11.1127308,15.75 L11.1127308,15.75 L4.88726919,15.75 C2.32617614,15.75 0.25,13.6738239 0.25,11.1127308 L0.25,11.1127308 L0.25,4.88726919 C0.25,2.32617614 2.32617614,0.25 4.88726919,0.25 L4.88726919,0.25 Z M11.1127308,1.75 L4.88726919,1.75 C3.15460326,1.75 1.75,3.15460326 1.75,4.88726919 L1.75,4.88726919 L1.75,11.1127308 C1.75,12.8453967 3.15460326,14.25 4.88726919,14.25 L4.88726919,14.25 L11.1127308,14.25 C12.8453967,14.25 14.25,12.8453967 14.25,11.1127308 L14.25,11.1127308 L14.25,4.88726919 C14.25,3.15460326 12.8453967,1.75 11.1127308,1.75 L11.1127308,1.75 Z M5.27779981,7.63890573 C5.65749557,7.63890573 5.97129077,7.92105962 6.02095319,8.28713518 L6.02779981,8.38890573 L6.027,9.972 L7.61114091,9.97220019 C7.99083668,9.97220019 8.30463187,10.2543541 8.3542943,10.6204296 L8.36114091,10.7222002 C8.36114091,11.101896 8.07898703,11.4156912 7.71291147,11.4653536 L7.61114091,11.4722002 L5.27779981,11.4722002 C4.89810404,11.4722002 4.58430884,11.1900463 4.53464642,10.8239708 L4.52779981,10.7222002 L4.52779981,8.38890573 C4.52779981,7.97469217 4.86358624,7.63890573 5.27779981,7.63890573 Z M10.7222002,4.52779981 C11.101896,4.52779981 11.4156912,4.80995369 11.4653536,5.17602925 L11.4722002,5.27779981 L11.4722002,7.61114091 C11.4722002,8.02535448 11.1364138,8.36114091 10.7222002,8.36114091 C10.3425044,8.36114091 10.0287092,8.07898703 9.97904681,7.71291147 L9.97220019,7.61114091 L9.972,6.027 L8.38890573,6.02779981 C8.00920997,6.02779981 7.69541477,5.74564592 7.64575235,5.37957036 L7.63890573,5.27779981 C7.63890573,4.89810404 7.92105962,4.58430884 8.28713518,4.53464642 L8.38890573,4.52779981 L10.7222002,4.52779981 Z" id="path-2"></path>
    </defs>
    <g id="Icon/System/Expand" stroke="none" stroke-width="1" fill="none" fill-rule="evenodd">
        <g id="Combined-Shape">
            <use fill="currentColor" xlink:href="#path-2"></use>
        </g>
    </g>
</svg>
