<?xml version="1.0" encoding="UTF-8"?>
<svg viewBox="0 0 16 16" fill="none" xmlns="http://www.w3.org/2000/svg" xmlns:xlink="http://www.w3.org/1999/xlink">
<g>
	<path fill-rule="evenodd" clip-rule="evenodd" d="M2.9562 2C3.4843 2 3.91241 2.42811 3.91241 2.9562V13.0438C3.91241 13.5719 3.4843 14 2.9562 14C2.42811 14 2 13.5719 2 13.0438V2.95621C2 2.42811 2.42811 2 2.9562 2ZM8.10657 14C7.57847 14 7.15036 13.5719 7.15036 13.0438V3C7.15036 2.44772 7.59808 2 8.15036 2H13.1165C13.5795 2 13.9322 2.41498 13.8576 2.87197C13.7983 3.23517 13.4845 3.50188 13.1165 3.50188H9.56277C9.28663 3.50188 9.06277 3.72574 9.06277 4.00188V6.99667C9.06277 7.27281 9.28663 7.49667 9.56277 7.49667H12.4932C12.8803 7.49667 13.1942 7.81049 13.1942 8.19761C13.1942 8.58473 12.8803 8.89855 12.4932 8.89855H9.56277C9.28663 8.89855 9.06277 9.12241 9.06277 9.39855V13.0438C9.06277 13.5719 8.63467 14 8.10657 14Z" fill="white" />
	<path fill-rule="evenodd" clip-rule="evenodd" d="M2.9562 2C3.4843 2 3.91241 2.42811 3.91241 2.9562V13.0438C3.91241 13.5719 3.4843 14 2.9562 14C2.42811 14 2 13.5719 2 13.0438V2.95621C2 2.42811 2.42811 2 2.9562 2ZM8.10657 14C7.57847 14 7.15036 13.5719 7.15036 13.0438V3C7.15036 2.44772 7.59808 2 8.15036 2H13.1165C13.5795 2 13.9322 2.41498 13.8576 2.87197C13.7983 3.23517 13.4845 3.50188 13.1165 3.50188H9.56277C9.28663 3.50188 9.06277 3.72574 9.06277 4.00188V6.99667C9.06277 7.27281 9.28663 7.49667 9.56277 7.49667H12.4932C12.8803 7.49667 13.1942 7.81049 13.1942 8.19761C13.1942 8.58473 12.8803 8.89855 12.4932 8.89855H9.56277C9.28663 8.89855 9.06277 9.12241 9.06277 9.39855V13.0438C9.06277 13.5719 8.63467 14 8.10657 14Z" fill="currentColor" />
  </g>
</svg>
