<svg viewBox="0 0 16 16" version="1.1" xmlns="http://www.w3.org/2000/svg" xmlns:xlink="http://www.w3.org/1999/xlink">
	<g stroke="none" stroke-width="1" fill="none" fill-rule="evenodd">
		<g transform="translate(-249.000000, -28.000000)">
			<g transform="translate(20.000000, 15.000000)">
				<g transform="translate(216.000000, 0.000000)">
					<g transform="translate(13.000000, 13.000000)">
						<path d="M10.6290323,15.6 C9.43538457,15.6 8.9,15.0646154 8.9,13.8709677 L8.9,9.39480892 C8.9,9.1215335 9.1265093,8.9 9.39480892,8.9 L13.8709677,8.9 C15.0646154,8.9 15.6,9.43538457 15.6,10.6290323 L15.6,13.8709677 C15.6,15.0646154 15.0646154,15.6 13.8709677,15.6 L10.6290323,15.6 Z M9.39480892,7.1 C9.1215335,7.1 8.9,6.8734907 8.9,6.60519108 L8.9,2.12903226 C8.9,0.935384573 9.43538457,0.4 10.6290323,0.4 L13.8709677,0.4 C15.0646154,0.4 15.6,0.935384573 15.6,2.12903226 L15.6,5.37096774 C15.6,6.56461543 15.0646154,7.1 13.8709677,7.1 L9.39480892,7.1 Z M2.12903226,15.6 C0.935384573,15.6 0.4,15.0646154 0.4,13.8709677 L0.4,10.6290323 C0.4,9.43538457 0.935384573,8.9 2.12903226,8.9 L6.60519108,8.9 C6.8784665,8.9 7.1,9.1265093 7.1,9.39480892 L7.1,13.8709677 C7.1,15.0646154 6.56461543,15.6 5.37096774,15.6 L2.12903226,15.6 Z M2.12903226,7.1 C0.935384573,7.1 0.4,6.56461543 0.4,5.37096774 L0.4,2.12903226 C0.4,0.935384573 0.935384573,0.4 2.12903226,0.4 L5.37096774,0.4 C6.56461543,0.4 7.1,0.935384573 7.1,2.12903226 L7.1,6.60519108 C7.1,6.8784665 6.8734907,7.1 6.60519108,7.1 L2.12903226,7.1 Z" fill="currentColor">
						</path>
					</g>
				</g>
			</g>
		</g>
	</g>
</svg>
