<svg viewBox="0 0 16 16" version="1.1" xmlns="http://www.w3.org/2000/svg" xmlns:xlink="http://www.w3.org/1999/xlink">
	<g stroke="none" stroke-width="1" fill="none" fill-rule="evenodd">
		<path d="M5.05778212,1.277205 L3.10960883,1.493669 C2.5224331,1.55891075 1.55891075,2.5224331 1.493669,3.10960883 L1.277205,5.05778212 C1.22426282,5.53426171 1.1215168,5.894737 0.642105,5.894737 C0.177023105,5.894737 0,5.51771347 0,5.05263158 L0,2.10526316 C0,0.942558421 0.942558421,0 2.10526316,0 L5.05263158,0 C5.51771347,0 5.89473684,0.177023105 5.89473684,0.642105 C5.89473684,1.1215168 5.53426171,1.22426282 5.05778212,1.277205 Z M10.9422179,1.277205 C10.4657383,1.22426282 10.1052632,1.1215168 10.1052632,0.642105 C10.1052632,0.177023105 10.4822865,0 10.9473684,0 L13.8947368,0 C15.0574416,0 16,0.942558421 16,2.10526316 L16,5.05263158 C16,5.51771347 15.8229769,5.89473684 15.357895,5.89473684 C14.8784832,5.89473684 14.7757372,5.53426171 14.722795,5.05778212 L14.506331,3.10960883 C14.4410893,2.5224331 13.4775669,1.55891075 12.8903912,1.493669 L10.9422179,1.277205 Z M5.05778212,14.722795 C5.53426171,14.7757372 5.89473684,14.8784832 5.89473684,15.357895 C5.89473684,15.8229769 5.51771347,16 5.05263158,16 L2.10526316,16 C0.942558421,16 0,15.0574416 0,13.8947368 L0,10.9473684 C0,10.4822865 0.177023105,10.1052632 0.642105,10.1052632 C1.1215168,10.1052632 1.22426282,10.4657383 1.277205,10.9422179 L1.493669,12.8903912 C1.55891075,13.4775669 2.5224331,14.4410893 3.10960883,14.506331 L5.05778212,14.722795 Z M15.357895,10.1052632 C15.8229769,10.1052632 16,10.4822865 16,10.9473684 L16,13.8947368 C16,15.0574416 15.0574416,16 13.8947368,16 L10.9473684,16 C10.4822865,16 10.1052632,15.8229769 10.1052632,15.357895 C10.1052632,14.8784832 10.4657383,14.7757372 10.9422179,14.722795 L12.8903912,14.506331 C13.4775669,14.4410893 14.4410893,13.4775669 14.506331,12.8903912 L14.722795,10.9422179 C14.7757372,10.4657383 14.8784832,10.1052632 15.357895,10.1052632 Z M8,3 C10.7614237,3 13,5.23857625 13,8 C13,10.7614237 10.7614237,13 8,13 C5.23857625,13 3,10.7614237 3,8 C3,5.23857625 5.23857625,3 8,3 Z M8.00002045,8.32670905 C7.05665639,8.32670905 6.12144648,8.66071259 5.20012775,9.3187974 C5.07951128,9.40495202 5.02209001,9.55487242 5.05429189,9.69955826 L5.25338067,10.5627848 C5.33300177,10.9079863 5.55535614,11.2031935 5.86516703,11.3750096 C6.72575159,11.8522759 7.43736258,12.0909091 8,12.0909091 C8.56265389,12.0909091 9.27428379,11.8522632 10.1348897,11.3749714 C10.4447013,11.2031594 10.6670528,10.9079523 10.7466679,10.5627509 L10.945749,9.69955826 C10.9779509,9.55487242 10.9205296,9.40495202 10.7999132,9.3187974 C9.87859443,8.66071259 8.94338452,8.32670905 8.00002045,8.32670905 Z M8.30522573,4.81818182 L7.69481518,4.81818182 C7.66410515,4.81818182 7.6334084,4.81945864 7.60280445,4.82200897 C6.99301094,4.87282509 6.53987024,5.40835501 6.59068636,6.01814852 L6.63200526,6.51397531 C6.69129602,7.22546446 7.28606512,7.77273107 8.00002045,7.77273107 C8.71397579,7.77273107 9.30874488,7.22546446 9.36803565,6.51397531 L9.40935455,6.01814852 C9.41190488,5.98754457 9.41318169,5.95684782 9.41318169,5.92613779 C9.41318169,5.3142306 8.91713291,4.81818182 8.30522573,4.81818182 Z" fill="currentColor">
		</path>
	</g>
</svg>
