<?xml version="1.0" encoding="UTF-8"?>
<svg viewBox="0 0 16 16" version="1.1" xmlns="http://www.w3.org/2000/svg" xmlns:xlink="http://www.w3.org/1999/xlink">

  <path
    d="M0.75012307,10 C1.16433207,10 1.50012207,10.33579 1.50012207,10.75 L1.50074539,11.4481118 C1.50277491,12.0433373 1.5113754,12.4898111 1.54768207,12.8514 C1.59312207,13.3041 1.67589207,13.5409 1.78746207,13.7108 C1.91871207,13.9106 2.08952207,14.0814 2.28933207,14.2127 C2.45918207,14.3242 2.69604207,14.407 3.14869207,14.4524 C3.51027318,14.4887222 3.95677553,14.4973383 4.55200934,14.4993739 L5.25278207,14.5 C5.66700207,14.5 6.00278207,14.8358 6.00278207,15.25 C6.00278207,15.6642 5.66700207,16 5.25278207,16 L5.06108207,16 C4.22837207,16 3.54751207,16 2.99884207,15.9449 C2.42937207,15.8878 1.92085207,15.7653 1.46580207,15.4664 C1.09471207,15.2226 0.77750707,14.9054 0.53374907,14.5343 C0.23483407,14.0793 0.11236007,13.5708 0.05518477,13.0013 C0.00798817,12.5309857 0.00124579857,11.9635816 0.000282602654,11.2866756 L0.000122070001,10.75 C0.000122070001,10.33579 0.33591007,10 0.75012307,10 Z M15.2501221,10 C15.6643221,10 16.0001221,10.33579 16.0001221,10.75 L16.0001221,10.93904 C16.0001221,11.77175 16.0001221,12.4526 15.9450221,13.0013 C15.8879221,13.5708 15.7654221,14.0793 15.4665221,14.5343 C15.2227221,14.9054 14.9055221,15.2226 14.5344221,15.4664 C14.0794221,15.7653 13.5709221,15.8878 13.0014221,15.9449 C12.5311078,15.9921286 11.9637037,15.9988755 11.2867977,15.9998394 L10.7499421,16 C10.3357321,16 9.99994207,15.6642 9.99994207,15.25 C9.99994207,14.8358 10.3357321,14.5 10.7499421,14.5 L11.4482339,14.4993739 C12.0434594,14.4973383 12.4899332,14.4887222 12.8515221,14.4524 C13.3042221,14.407 13.5410221,14.3242 13.7109221,14.2127 C13.9107221,14.0814 14.0815221,13.9106 14.2128221,13.7108 C14.3243221,13.5409 14.4071221,13.3041 14.4525221,12.8514 C14.4888443,12.4898111 14.4974603,12.0433373 14.499496,11.4481118 L14.5001221,10.75 C14.5001221,10.33579 14.8359221,10 15.2501221,10 Z M6.5,4.50000004 C8.433,4.50000004 10,6.06700004 10,8.00000004 C10,9.93300004 8.433,11.5 6.5,11.5 C4.567,11.5 3,9.93300004 3,8.00000004 C3,6.06700004 4.567,4.50000004 6.5,4.50000004 Z M12.2394,5.34798004 C12.7214,6.11717004 13,7.02721004 13,8.00001004 C13,8.96955004 12.7233,9.87675004 12.2442,10.6443 C12.0249,10.9957 11.5623,11.1028 11.2109,10.8834 C10.8595,10.6641 10.7524,10.2015 10.9717,9.85008004 C11.3065,9.31381004 11.5,8.68066004 11.5,8.00001004 C11.5,7.31708004 11.3052,6.68196004 10.9684,6.14453004 C10.7484,5.79354004 10.8546,5.33070004 11.2056,5.11074004 C11.5566,4.89078004 12.0194,4.99700004 12.2394,5.34798004 Z M6.5,6.00000004 C5.39543,6.00000004 4.5,6.89543004 4.5,8.00000004 C4.5,9.10457004 5.39543,10 6.5,10 C7.60457,10 8.5,9.10457004 8.5,8.00000004 C8.5,6.89543004 7.60457,6.00000004 6.5,6.00000004 Z M5.25278207,7.95807864e-13 C5.66700207,7.95807864e-13 6.00278207,0.335788 6.00278207,0.750001 C6.00278207,1.16421 5.66700207,1.5 5.25278207,1.5 L4.55200531,1.50062332 C3.95676948,1.50265284 3.51027318,1.51125333 3.14869207,1.54756 C2.69604207,1.59301 2.45918207,1.67577 2.28933207,1.78734 C2.08952207,1.91859 1.91871207,2.0894 1.78746207,2.28921 C1.67589207,2.45906 1.59312207,2.69593 1.54768207,3.14857 C1.5113754,3.51015111 1.50277491,3.95665346 1.50074539,4.55188727 L1.50012207,5.25 C1.50012207,5.66422 1.16433207,6 0.75012307,6 C0.33591007,6 0.000122070001,5.66422 0.000122070001,5.25 L0.000122070001,5.06097 C0.000122070001,4.22826 0.000122070001,3.54739 0.05518477,2.99872 C0.11236007,2.42925 0.23483407,1.92073 0.53374907,1.46568 C0.77750707,1.09459 1.09471207,0.777385 1.46580207,0.533627 C1.92085207,0.234712 2.42937207,0.112238 2.99884207,0.0550627 C3.46913064,0.0078661 4.0365384,0.00112372857 4.71344598,0.000160532654 L5.25278207,7.95807864e-13 Z M13.0014221,0.0550627 C13.5708221,0.112238 14.0794221,0.234712 14.5344221,0.533627 C14.9055221,0.777385 15.2227221,1.09459 15.4665221,1.46568 C15.7654221,1.92073 15.8879221,2.42925 15.9450221,2.99872 C15.9922506,3.46900857 15.9989976,4.03641633 15.9999614,4.71332391 L16.0001221,5.25 C16.0001221,5.66422 15.6643221,6 15.2501221,6 C14.8359221,6 14.5001221,5.66422 14.5001221,5.25 L14.499496,4.55188727 C14.4974603,3.95665346 14.4888443,3.51015111 14.4525221,3.14857 C14.4071221,2.69593 14.3243221,2.45906 14.2128221,2.28921 C14.0815221,2.0894 13.9107221,1.91859 13.7109221,1.78734 C13.5410221,1.67577 13.3042221,1.59301 12.8515221,1.54756 C12.4899332,1.51125333 12.0434594,1.50265284 11.4482339,1.50062332 L10.7499421,1.5 C10.3357321,1.5 9.99994207,1.16421 9.99994207,0.750001 C9.99994207,0.335788 10.3357321,8.05577827e-13 10.7499421,8.05577827e-13 L10.9391621,8.05577827e-13 C11.7718721,8.05577827e-13 12.4527221,8.05577827e-13 13.0014221,0.0550627 Z"
    fill="currentColor"></path>

</svg>
