<svg viewBox="0 0 16 16" version="1.1" xmlns="http://www.w3.org/2000/svg" xmlns:xlink="http://www.w3.org/1999/xlink">
  <g id="Icon/System/Intents" stroke="none" stroke-width="1" fill="none" fill-rule="evenodd">
    <path d="M1.5,8.00000004 C1.5,4.41015004 4.41015,1.50000004 8,1.50000004 C8.38414,1.50000004 8.75991,1.53324004 9.12476,1.59683004 C9.53282,1.66796004 9.92128,1.39482004 9.9924,0.986758037 C10.0635,0.578697037 9.79039,0.190239037 9.38233,0.119113037 C8.9328,0.0407593374 8.47085,3.73856892e-08 8,3.73856892e-08 C3.58172,3.73856892e-08 0,3.58172004 0,8.00000004 C0,12.4183 3.58172,16 8,16 C8.47085,16 8.9328,15.9592 9.38233,15.8809 C9.79039,15.8098 10.0635,15.4213 9.9924,15.0132 C9.92128,14.6052 9.53282,14.332 9.12476,14.4032 C8.75991,14.4668 8.38414,14.5 8,14.5 C4.41015,14.5 1.5,11.5899 1.5,8.00000004 Z M6.5,10 C7.60457,10 8.5,9.10457004 8.5,8.00000004 C8.5,6.89543004 7.60457,6.00000004 6.5,6.00000004 C5.39543,6.00000004 4.5,6.89543004 4.5,8.00000004 C4.5,9.10457004 5.39543,10 6.5,10 Z M6.5,11.5 C8.433,11.5 10,9.93300004 10,8.00000004 C10,6.06700004 8.433,4.50000004 6.5,4.50000004 C4.567,4.50000004 3,6.06700004 3,8.00000004 C3,9.93300004 4.567,11.5 6.5,11.5 Z M12.1866,2.03311004 C12.4583,1.72043004 12.932,1.68718004 13.2446,1.95885004 C14.9315,3.42448004 16,5.58789004 16,8.00000004 C16,10.4121 14.9315,12.5755 13.2446,14.0411 C12.932,14.3128 12.4583,14.2796 12.1866,13.9669 C11.9149,13.6542 11.9482,13.1805 12.2608,12.9088 C13.6338,11.716 14.5,9.95957004 14.5,8.00000004 C14.5,6.04043004 13.6338,4.28403004 12.2608,3.09117004 C11.9482,2.81950004 11.9149,2.34580004 12.1866,2.03311004 Z M12.2394,5.34798004 C12.7214,6.11717004 13,7.02721004 13,8.00001004 C13,8.96955004 12.7233,9.87675004 12.2442,10.6443 C12.0249,10.9957 11.5623,11.1028 11.2109,10.8834 C10.8595,10.6641 10.7524,10.2015 10.9717,9.85008004 C11.3065,9.31381004 11.5,8.68066004 11.5,8.00001004 C11.5,7.31708004 11.3052,6.68196004 10.9684,6.14453004 C10.7484,5.79354004 10.8546,5.33070004 11.2056,5.11074004 C11.5566,4.89078004 12.0194,4.99700004 12.2394,5.34798004 Z" id="path-2"></path>
    <g id="Shape">
      <use fill="currentColor" xlink:href="#path-2"></use>
    </g>
  </g>
</svg>
