<svg viewBox="0 0 16 16" version="1.1" xmlns="http://www.w3.org/2000/svg" xmlns:xlink="http://www.w3.org/1999/xlink">
	<g stroke="none" stroke-width="1" fill="none" fill-rule="evenodd">
		<path d="M8.88298554,12.7584432 L9.04933764,11.1115573 C9.09883176,10.6215656 9.48866608,10.25 9.95325505,10.25 L11.2167833,10.25 C11.4485111,10.25 11.6363636,10.0449396 11.6363636,9.79198486 C11.6363636,9.67437732 11.5949197,9.56127644 11.5206173,9.47611235 L8.45575149,5.96321522 C8.21603303,5.688454 7.81765611,5.67784743 7.56595173,5.93952479 C7.56101207,5.94466016 6.53215598,7.12352268 4.47938346,9.47611235 C4.31957115,9.6592865 4.32604882,9.94919943 4.49385174,10.123651 C4.5718692,10.2047596 4.67547912,10.25 4.78321752,10.25 L6.04674495,10.25 C6.51133392,10.25 6.90116824,10.6215656 6.95066236,11.1115573 L7.11701446,12.7584432 C7.17943634,13.3764198 6.7442511,13.9295731 6.14500102,13.9939457 C6.10745303,13.9979792 6.06972734,14 6.0319762,14 L4.72727273,14 C2.11647209,14 0,11.8173882 0,9.125 C0,6.95030363 1.38081172,5.10819142 3.28762011,4.4801914 C4.3449744,2.97733773 6.0618111,2 8,2 C10.6796744,2 12.9362365,3.86817051 13.611813,6.41045486 C15.0120615,6.99410238 16,8.40932309 16,10.0625 C16,12.2371212 14.2905418,14 12.1818182,14 L9.9680238,14 C9.36553135,14 8.87711471,13.4963203 8.87711471,12.875 C8.87711471,12.8360691 8.87907429,12.7971645 8.88298554,12.7584432 Z" fill="currentColor">
		</path>
	</g>
</svg>
