<svg viewBox="0 0 16 16" xmlns="http://www.w3.org/2000/svg" xmlns:xlink="http://www.w3.org/1999/xlink">
  <g transform="translate(1 3)" fill="none" fill-rule="evenodd">
    <path fill="currentColor" d="M11.274.167a.75.75 0 0 1 1.055.11A7.475 7.475 0 0 1 14 5c0 1.79-.627 3.434-1.673 4.723a.75.75 0 1 1-1.165-.945A5.975 5.975 0 0 0 12.5 5c0-1.432-.5-2.745-1.336-3.776a.75.75 0 0 1 .11-1.056zM4 2.5a2.5 2.5 0 1 0 0 5 2.5 2.5 0 0 0 0-5zm-4 2.5a4 4 0 1 1 8.001 0 4 4 0 0 1-8.001 0zm10.331-2.63a.75.75 0 1 0-1.317.718c.31.567.486 1.218.486 1.913 0 .68-.169 1.317-.466 1.876a.75.75 0 0 0 1.324.705c.41-.77.642-1.65.642-2.581 0-.952-.242-1.85-.669-2.632z" />
  </g>
</svg>
