<?xml version="1.0" encoding="UTF-8"?>
<svg width="16px" height="16px" viewBox="0 0 16 16" version="1.1" xmlns="http://www.w3.org/2000/svg" xmlns:xlink="http://www.w3.org/1999/xlink">
    <g id="Icon/Channel/Lex" stroke="none" stroke-width="1" fill="none" fill-rule="evenodd" stroke-linecap="round" stroke-linejoin="round">
        <g id="amazon-lex" transform="translate(0.500000, 0.000000)">
            <g id="Group" transform="translate(0.468800, 0.000000)">
                <polygon id="Path" fill="#19486F" points="14.369 8.13867707 6.3242 8.25636215 6.3242 10.1023594 14.369 10.8620176"></polygon>
                <polygon id="Path" fill="#2E73B8" points="2.367 2.38329756 10.5288 4.92002029 10.5178 7.24135337 0.6046 6.13743141"></polygon>
                <polygon id="Path" fill="#99BCE3" points="0.653 8.86276995 8.6956 8.74728273 8.6956 6.90128546 0.653 6.14162732 0.653 8.86276995"></polygon>
                <polygon id="Path" fill="#5294CF" points="5.5368 8.69393483 0.953 8.73829151 0.953 11.9835223 5.5368 11.3371536 5.5368 8.69373502"></polygon>
                <polygon id="Path" fill="#205B99" points="14.0294 7.33446244 9.4964 7.5498521 9.4964 5.64850888 14.0294 5.00433795"></polygon>
                <polygon id="Path" fill="#5294CF" points="13.96875 2.64122068 8.72755 0 6.46655 2.50775102 6.46655 2.50775102 12.99815 4.48242263 12.99815 6.81274693 6.46655 6.15299122 6.46655 9.82040976 11.23575 9.33608273 11.23575 7.98999727 12.19535 9.240576 12.99835 10.2845565 13.01815 10.3089327 12.99835 10.3379044 12.19755 11.7061682 11.23575 13.3477651 11.23575 11.9972839 6.46655 13.4322825 6.46655 13.4322825 8.75635 15.9490248 13.96875 13.3233889 13.96875 11.1908714 13.96875 4.77134049"></polygon>
                <polygon id="Path" fill="#205B99" points="0.953 9.1628519 7.4978 9.82700332 7.4978 6.15958478 2.7772 6.63711844 2.7772 8.00098654 1.7934 6.73482302 0.953 5.65307941 1.7978 4.23806127 2.7772 2.59426654 2.7772 3.94254985 7.4978 2.52093815 7.4978 2.51434459 5.2522 0 0 2.64561639 0 4.77813385 0 11.1798821 0 13.3323801 5.2676 15.9843902 7.4978 13.4388761 0.953 11.4686002"></polygon>
                <polygon id="Path" fill="#19486F" points="14.0294 5.00433795 9.4964 5.64850888 2.7772 4.45787161 7.4978 3.02966634 14.0294 5.00433795"></polygon>
                <polygon id="Path" fill="#99BCE3" points="12.267 12.5187996 5.5368 11.3371536 0.953 11.9835223 7.4978 13.9537982 12.267 12.5187996"></polygon>
            </g>
            <g id="Group" transform="translate(0.000000, 0.015610)">
                <polygon id="Path" fill="#2E73B8" points="12.653 14.1052254 4.4912 11.5685026 4.4824 9.25835863 14.4178 10.3512913 12.6532 14.1052254"></polygon>
                <polygon id="Path" fill="#19486F" points="14.369 7.62355512 6.3242 7.7412402 6.3242 9.58723746 14.369 10.3468956"></polygon>
                <polygon id="Path" fill="#2E73B8" points="2.367 1.86817561 10.5288 4.40489834 10.5178 6.72623141 0.6046 5.62230946"></polygon>
                <polygon id="Path" fill="#99BCE3" points="0.653 8.347648 8.6956 8.23216078 8.6956 6.38616351 0.653 5.62650537 0.653 8.347648"></polygon>
                <polygon id="Path" fill="#5294CF" points="5.5368 8.17881288 0.953 8.22316956 0.953 11.4684004 5.5368 10.8220316 5.5368 8.17861307"></polygon>
                <polygon id="Path" fill="#205B99" points="14.0294 6.81934049 9.4964 7.03473015 9.4964 5.13338693 14.0294 4.489216"></polygon>
                <path d="M5.2522,0 L9.7588,0 L9.7588,3.62286205 L5.2522,3.62286205 L5.2522,0 Z M5.2676,12.4502416 L9.7588,12.4502416 L9.7588,15.9843902 L5.2676,15.9843902 L5.2676,12.4502416 Z" id="Shape" fill="#2E73B8"></path>
                <polygon id="Path" fill="#5294CF" points="15 2.64122068 9.7588 0 7.4978 2.50775102 7.4978 2.50775102 14.0294 4.48242263 14.0294 6.81274693 7.4978 6.15299122 7.4978 9.82040976 12.267 9.33608273 12.267 7.98999727 13.2266 9.240576 14.0296 10.2845565 14.0494 10.3089327 14.0296 10.3379044 13.2288 11.7061682 12.267 13.3477651 12.267 11.9972839 7.4978 13.4322825 7.4978 13.4322825 9.7876 15.9490248 15 13.3233889 15 11.1908714 15 4.77134049"></polygon>
                <polygon id="Path" fill="#205B99" points="0.953 9.1628519 7.4978 9.82700332 7.4978 6.15958478 2.7772 6.63711844 2.7772 8.00098654 1.7934 6.73482302 0.953 5.65307941 1.7978 4.23806127 2.7772 2.59426654 2.7772 3.94254985 7.4978 2.52093815 7.4978 2.51434459 5.2522 0 0 2.64561639 0 4.77813385 0 11.1798821 0 13.3323801 5.2676 15.9843902 7.4978 13.4388761 0.953 11.4686002"></polygon>
                <polygon id="Path" fill="#19486F" points="14.0294 4.489216 9.4964 5.13338693 2.7772 3.94274966 7.4978 2.51454439 14.0294 4.489216"></polygon>
                <polygon id="Path" fill="#99BCE3" points="12.267 12.0036777 5.5368 10.8220316 0.953 11.4684004 7.4978 13.4386763 12.267 12.0036777"></polygon>
            </g>
        </g>
    </g>
</svg>