<svg viewBox="0 0 20 20" version="1.1" xmlns="http://www.w3.org/2000/svg" xmlns:xlink="http://www.w3.org/1999/xlink">

  <path fill="currentColor"
    d="M9.89822944,18.7430296 C9.88774709,18.7414936 9.88135935,18.7405026 9.87498271,18.7394288 C9.84719402,18.7348381 9.81998937,18.7286636 9.79338918,18.7210571 C9.7812204,18.7174755 9.76948466,18.7138001 9.75782648,18.7098295 C9.73660138,18.7026752 9.71593912,18.6945682 9.69574675,18.6855955 C9.68100749,18.6790165 9.66587122,18.6716983 9.6509421,18.6638419 C9.63611451,18.656048 9.62191236,18.6479492 9.60800995,18.6394098 C9.56902598,18.6154658 9.53172425,18.5876289 9.49667277,18.5558993 L9.55997406,18.6072953 C9.54624106,18.5973296 9.53285919,18.5869095 9.51985051,18.5760572 L9.49667277,18.5558993 C7.71552771,16.9435584 4.96392053,16.6055828 2.77657677,17.6911059 C1.61641775,18.2650793 0.25,17.4592432 0.25,16.1568762 L0.25,4.84392622 C0.25,4.00099633 0.635371829,3.20072369 1.29835936,2.69073345 C3.90655793,0.681928052 7.47119319,0.792716471 9.96119266,2.90107546 L10,2.935 L10.03885,2.90103814 C12.4617179,0.849548856 15.9018521,0.68955098 18.4882718,2.53354169 L18.7012831,2.69145823 C19.3644815,3.20161085 19.75,4.0018142 19.75,4.84392622 L19.75,16.1558762 C19.75,17.4585747 18.3828468,18.2654595 17.2228166,17.6898054 L16.9864224,17.5790607 C14.8406821,16.631229 12.220726,17.0012633 10.5033272,18.5558993 C10.4957082,18.5627963 10.4879828,18.5695093 10.4801568,18.5760384 C10.4671408,18.5869095 10.4537589,18.5973296 10.4400259,18.6072953 C10.4244617,18.6185921 10.4083679,18.6293451 10.3919742,18.6394102 C10.3780876,18.6479492 10.3638855,18.656048 10.349403,18.6636868 C10.3341288,18.6716983 10.3189925,18.6790165 10.3036775,18.6857967 C10.2840609,18.6945682 10.2633986,18.7026752 10.2423136,18.7098694 C10.2305153,18.7138001 10.2187796,18.7174755 10.2069778,18.7208557 C10.1800106,18.7286636 10.152806,18.7348381 10.1250856,18.7394921 C10.1186345,18.7405036 10.1122405,18.7414955 10.1058372,18.7424045 L10,18.7498762 L9.89822944,18.7430296 Z M9.25056575,4.27873342 C7.28663873,2.40094732 4.3485481,2.23483711 2.21328307,3.87939422 C1.92298696,4.10269892 1.75,4.46192789 1.75,4.84392622 L1.75,16.1568762 C1.75,16.328099 1.93198294,16.4354223 2.11059341,16.3470578 C4.37198222,15.2247874 7.1034837,15.3195727 9.2507514,16.5393437 Z M17.7862096,3.88000359 C15.6518359,2.23527531 12.7144558,2.40078982 10.750434,4.27777732 L10.7501326,16.5388415 C12.8160425,15.365658 15.4226895,15.2334885 17.6313736,16.2242696 L17.8893881,16.3460486 C18.0681374,16.4347512 18.25,16.3274171 18.25,16.1558762 L18.25,4.84392622 C18.25,4.46284329 18.0769494,4.10364994 17.7862096,3.88000359 Z">
  </path>
</svg>
