<svg version="1.1" viewBox="0 0 16 16" xmlns="http://www.w3.org/2000/svg" xmlns:xlink="http://www.w3.org/1999/xlink">
  <path fill="currentColor" transform="translate(0.25 1.249719844017477)"
    d="M14.6088586,1.11238921 C15.1709654,1.5293977 15.5,2.18793106 15.5,2.88324177 L15.5,11.3672692 C15.5,12.4906935 14.3059657,13.1702215 13.3033553,12.6904027 L13.086186,12.5935354 C11.4771362,11.9260286 9.52116837,12.1998013 8.24319747,13.3153078 C7.96064807,13.5619376 7.53935193,13.5619376 7.25680253,13.3153078 C5.92063787,12.1490056 3.84360893,11.9029968 2.19599402,12.6915135 L2.0748401,12.7433996 C1.09970946,13.1147959 0,12.4463089 0,11.3680692 L0,2.88324177 C0,2.18729306 0.328891414,1.5286961 0.890822633,1.11187584 C2.94174827,-0.41132199 5.72746158,-0.355284094 7.71451187,1.19250284 L7.75,1.22128016 L7.78552916,1.19246837 C9.77270572,-0.355400345 12.5584277,-0.411194956 14.6088586,1.11238921 Z M1.78481862,2.31635539 C1.60538764,2.44945085 1.5,2.66048701 1.5,2.88324177 L1.5,11.3662802 L1.50427609,11.3563515 L1.79458675,11.2273904 C3.46215005,10.5193997 5.40599245,10.5814262 7.00095179,11.3625803 L7.00107529,2.54922526 C5.53100143,1.24534105 3.36310284,1.14418282 1.78481862,2.31635539 Z M8.4999312,2.54833193 L8.50006618,11.3620801 C10.0978356,10.5799121 12.0456349,10.5191362 13.7152587,11.2308748 L13.995763,11.3556918 L14,11.366 L14,2.88324177 C14,2.69822786 13.926769,2.52082696 13.7982688,2.38961159 L13.7146801,2.3167332 C12.1371936,1.14457323 9.97004813,1.24523017 8.4999312,2.54833193 Z">
  </path>
</svg>
