<svg viewBox="0 0 16 16" version="1.1" xmlns="http://www.w3.org/2000/svg" xmlns:xlink="http://www.w3.org/1999/xlink">
    <path
        d="M13,0 C14.6568542,0 16,1.34314575 16,3 L16,13 C16,14.6568542 14.6568542,16 13,16 L3,16 C1.34314575,16 0,14.6568542 0,13 L0,3 C0,1.34314575 1.34314575,0 3,0 L13,0 Z M13,1.5 L3,1.5 C2.17157288,1.5 1.5,2.17157288 1.5,3 L1.5,13 C1.5,13.8284271 2.17157288,14.5 3,14.5 L13,14.5 C13.8284271,14.5 14.5,13.8284271 14.5,13 L14.5,3 C14.5,2.17157288 13.8284271,1.5 13,1.5 Z M8.00568549,3.99567845 L8.081,4 L11.15,4 C11.619442,4 12,4.38055796 12,4.85 C12,5.31944204 11.619442,5.7 11.15,5.7 L8.855,5.7 L8.85568549,11.4652587 C8.85568549,11.9347007 8.47512753,12.3152587 8.00568549,12.3152587 C7.53624346,12.3152587 7.15568549,11.9347007 7.15568549,11.4652587 L7.155,5.7 L4.85,5.7 C4.38055796,5.7 4,5.31944204 4,4.85 C4,4.38055796 4.38055796,4 4.85,4 L7.92887297,3.99910225 C7.95417415,3.99683603 7.97979464,3.99567845 8.00568549,3.99567845 Z"
        fill="currentColor"
    ></path>
    <g stroke="none" stroke-width="1" fill="none" fill-rule="evenodd">
        <g>
            <use fill="currentColor" xlink:href="#path-1"></use>
            <use fill-opacity="0.85" fill="currentColor" xlink:href="#path-1"></use>
        </g>
    </g>
</svg>