<svg viewBox="0 0 16 16" version="1.1" xmlns="http://www.w3.org/2000/svg" xmlns:xlink="http://www.w3.org/1999/xlink">
  <path fill="currentColor"
    d="M12.0833333,0.75 C13.6366559,0.75 14.9063385,1.9642208 14.9950489,3.4952896 L15,3.66666667 L15,7.27777778 C15,7.69199134 14.6642136,8.02777778 14.25,8.02777778 C13.8703042,8.02777778 13.556509,7.7456239 13.5068466,7.37954834 L13.5,7.27777778 L13.5,3.66666667 C13.5,2.93027633 12.9381778,2.32513055 12.2197707,2.25648499 L12.0833333,2.25 L3.41666667,2.25 C2.68028989,2.25 2.07513214,2.81184146 2.00648513,3.53023269 L2,3.66666667 L2,12.3333333 C2,13.0697305 2.5618287,13.6748703 3.28023044,13.7435151 L3.41666667,13.75 L7.02777778,13.75 C7.44199134,13.75 7.77777778,14.0857864 7.77777778,14.5 C7.77777778,14.8796958 7.4956239,15.193491 7.12954834,15.2431534 L7.02777778,15.25 L3.41666667,15.25 C1.8633586,15.25 0.593662519,14.0357932 0.504951202,12.5047119 L0.5,12.3333333 L0.5,3.66666667 C0.5,2.11336877 1.7142306,0.843663245 3.24529065,0.754951241 L3.41666667,0.75 L12.0833333,0.75 Z M12.3676044,9.1787992 C12.9394944,8.60705562 13.8665317,8.60705562 14.4383432,9.17886709 L14.4383432,9.17886709 L15.5711329,10.3116568 C16.1429557,10.8834796 16.1429557,11.8106407 15.5711329,12.3824635 L15.5711329,12.3824635 L13.1324813,14.8211151 C12.8578965,15.0956999 12.4854146,15.25 12.097078,15.25 L12.097078,15.25 L10.6071441,15.25 C9.99571558,15.25 9.5,14.7542844 9.5,14.1428559 L9.5,14.1428559 L9.5,12.652922 C9.5,12.2645126 9.65428597,11.8919712 9.92888495,11.6175187 L9.92888495,11.6175187 Z M13.403,10.265 L11,12.667 L11,13.75 L12.081,13.75 L14.485,11.347 L13.403,10.265 Z M7.80737461,7.25 C8.22158818,7.25 8.55737461,7.58578644 8.55737461,8 C8.55737461,8.37969577 8.27522073,8.69349096 7.90914517,8.74315338 L7.80737461,8.75 L4.25,8.75 C3.83578644,8.75 3.5,8.41421356 3.5,8 C3.5,7.62030423 3.78215388,7.30650904 4.14822944,7.25684662 L4.25,7.25 L7.80737461,7.25 Z M10.25,4.25 C10.6642136,4.25 11,4.58578644 11,5 C11,5.37969577 10.7178461,5.69349096 10.3517706,5.74315338 L10.25,5.75 L4.25,5.75 C3.83578644,5.75 3.5,5.41421356 3.5,5 C3.5,4.62030423 3.78215388,4.30650904 4.14822944,4.25684662 L4.25,4.25 L10.25,4.25 Z">
  </path>
</svg>