<svg viewbox="0 0 16 16" xmlns="http://www.w3.org/2000/svg">
	<g fill-rule="nonzero" fill="none">
		<path d="M6.422.105a7.723 7.723 0 0 1 8.908 8.851c-.495 3.176-3.018 5.758-6.179 6.34a7.706 7.706 0 0 1-4.399-.463 1.382 1.382 0 0 0-.985-.048l-.134.056-1.922.69a.423.423 0 0 1-.606-.403l.013-.08.266-2.174c.09-.362.01-.736-.19-1.051a7.683 7.683 0 0 1-1.08-5.45C.657 3.187 3.231.623 6.422.105zm7.722 8.666a6.523 6.523 0 0 0-7.53-7.481c-2.681.434-4.86 2.601-5.317 5.284a6.482 6.482 0 0 0 .911 4.607c.341.54.483 1.174.38 1.796l-.018.081-.114.93.753-.271.085-.036a2.548 2.548 0 0 1 1.734-.026l.187.07a6.505 6.505 0 0 0 3.719.39c2.663-.49 4.794-2.675 5.21-5.344z" fill="currentColor" />
		<path d="M2.27.003C3.5-.065 4.554.873 4.63 2.138c0 .666-.29 1.115-.89 1.64l-.504.42-.053.047a2.378 2.378 0 0 0-.118.113l-.07.078c-.025.031-.034.05-.034.057a.582.582 0 0 1-1.165 0c0-.437.215-.761.61-1.115l.14-.12.296-.244c.458-.38.624-.608.625-.84-.034-.551-.478-.98-1.063-1.008h-.127a1.111 1.111 0 0 0-1.129.86.582.582 0 0 1-1.134-.264C.262.697 1.233-.042 2.27.003z" fill="currentColor" transform="translate(5.418 3.918)" />
		<path d="M2.38 5.924a.68.68 0 0 1 .67.573l.009.107a.68.68 0 1 1-.68-.68z" fill="currentColor" transform="translate(5.418 3.918)" />
	</g>
</svg>
