<svg viewbox="0 0 16 16" xmlns="http://www.w3.org/2000/svg">
	<g transform="translate(.35 .35)" fill="none" fill-rule="evenodd">
		<path d="M14.716 4.723A7.648 7.648 0 1 1 4.492.685l.231-.1.235-.094a7.648 7.648 0 0 1 9.758 4.232zM5.221 1.785a6.348 6.348 0 1 0 4.859 11.73 6.348 6.348 0 0 0-4.86-11.73zm2.21 2.087c.33 0 .602.242.65.559l.006.097v3.249l2.529 1.542c.278.17.385.514.267.807l-.048.095a.656.656 0 0 1-.807.267l-.095-.048-2.844-1.734a.656.656 0 0 1-.307-.464l-.007-.097V4.528c0-.363.294-.656.656-.656z" fill="currentColor" />
	</g>
</svg>
