<svg viewBox="0 0 16 16" version="1.1" xmlns="http://www.w3.org/2000/svg" xmlns:xlink="http://www.w3.org/1999/xlink">
  <path
    d="M11.8888716,0.25 C14.0211757,0.25 15.7499223,1.97878315 15.7499223,4.11110938 L15.7499223,10.9220946 C15.7499223,11.7400101 15.4252665,12.5242536 14.8474176,13.1021048 L13.3307648,14.6187634 C12.606172,15.3433591 11.6244149,15.75 10.60009,15.75 L4.11109729,15.75 C1.97876151,15.75 0.25,14.0212318 0.25,11.8888595 L0.25,4.11110938 C0.25,1.97878378 1.97877706,0.25 4.11109729,0.25 Z M11.8888716,1.75 L4.11109729,1.75 C2.80720549,1.75 1.75,2.8072096 1.75,4.11110938 L1.75,11.8888595 C1.75,13.192806 2.80718994,14.25 4.11109729,14.25 L9.583,14.25 L9.58334629,11.8889373 C9.58334629,10.6683154 10.5309924,9.66974096 11.7309779,9.58864556 L11.8888716,9.58332815 L14.249,9.583 L14.2499223,4.11110938 C14.2499223,2.8615326 13.2790045,1.83852857 12.0505119,1.75544764 L11.8888716,1.75 Z M14.241672,11.0837203 L11.8888716,11.0833282 C11.4778881,11.0833282 11.1392786,11.3903459 11.0896167,11.7878118 L11.0833463,11.8889373 L11.0839261,14.1999483 C11.5298249,14.1066414 11.9427556,13.8854536 12.2701026,13.5581053 L13.7867553,12.0414467 C14.0449614,11.7832396 14.2047329,11.4444663 14.241672,11.0837203 Z"
    fill="currentColor"></path>
</svg>
