<svg viewBox="0 0 16 16" version="1.1" xmlns="http://www.w3.org/2000/svg" xmlns:xlink="http://www.w3.org/1999/xlink">
	<g id="Buttons" stroke="none" stroke-width="1" fill="none" fill-rule="evenodd" opacity="0.8">
		<g id="Buttons-Step-Editors" transform="translate(-1119.000000, -2723.000000)">
			<g id="URL-Button" transform="translate(151.000000, 2408.000000)">
				<g id="2" transform="translate(552.000000, 51.000000)">
					<g id="Button/URL/Added" transform="translate(0.000000, 61.000000)">
						<g id="Trigger" transform="translate(31.000000, 190.000000)">
							<g id="Shape" transform="translate(385.000000, 13.000000)">
								<path d="M5.88992,0.0288230612 C6.28832,-0.0845310388 6.70318,0.146545061 6.81653,0.544947061 C6.92989,0.943348061 6.69881,1.35821006 6.30041,1.47156006 C3.48601,2.27232006 1.5,4.88354006 1.5,7.87300006 C1.5,11.5331001 4.4671,14.5002001 8.12719,14.5002001 C11.106,14.5002001 13.7205,12.5125001 14.5293,9.70341006 C14.6439,9.30537006 15.0595,9.07560006 15.4575,9.19020006 C15.8556,9.30480006 16.0853,9.72039006 15.9707,10.1184001 C14.9778,13.5672001 11.7776,16.0002001 8.12719,16.0002001 C3.63867,16.0002001 0,12.3615001 0,7.87300006 C0,4.21109006 2.43279,1.01245006 5.88992,0.0288230612 Z M15.0532833,0.271496041 C15.4487686,0.267570912 15.7505384,0.585530089 15.7273052,0.981677741 L15.7273052,0.981677741 L15.4302618,6.04653347 C15.4230605,6.16932209 15.3689807,6.28787352 15.2792258,6.37762846 C15.0861774,6.57067682 14.7835658,6.58105844 14.6033239,6.40081648 L14.6033239,6.40081648 L13.6205296,5.41802218 C13.2591642,5.05665677 12.6723752,5.03700581 12.2599292,5.37245707 L12.2599292,5.37245707 L9.1252108,8.04657225 C8.78709764,8.32156698 8.30155687,8.30146897 8.0000879,8 C7.69861893,7.69853103 7.67852092,7.21299025 7.95351565,6.8748771 L7.95351565,6.8748771 L10.6275429,3.74007079 C10.9629942,3.32762476 10.9433432,2.74083583 10.5819778,2.37947042 L10.5819778,2.37947042 L9.59918412,1.39667672 C9.51538332,1.31287592 9.46931995,1.19776008 9.47053657,1.07517678 C9.47315332,0.811519941 9.6893687,0.585227667 9.95346713,0.569738835 L9.95346713,0.569738835 L15.0183229,0.272695421 C15.0299844,0.272011498 15.0416413,0.271611586 15.0532833,0.271496041 Z" fill="currentColor">
								</path>
							</g>
						</g>
					</g>
				</g>
			</g>
		</g>
	</g>
</svg>
