<?xml version="1.0" encoding="UTF-8"?>
<svg width="16px" height="16px" viewBox="0 0 16 16" version="1.1" xmlns="http://www.w3.org/2000/svg" xmlns:xlink="http://www.w3.org/1999/xlink">
    <path fill="currentColor" d="M3,5.7779346 C3,3.73600061 3,2.71504028 3.61714812,2.2650568 C3.72135594,2.18907444 3.83505469,2.12617876 3.95553562,2.07786674 C4.66904375,1.79175298 5.57508281,2.31151282 7.38714375,3.35103382 L11.2606219,5.5731012 C13.0161531,6.58016819 13.8939188,7.08373502 13.9880375,7.81390193 C14.0039875,7.93750197 14.0039875,8.06250201 13.9880375,8.18610205 C13.8939188,8.91626895 13.0161531,9.41980244 11.2606219,10.4269028 L7.38714375,12.6489702 C5.57508281,13.6885038 4.66904719,14.2082373 3.95553562,13.9221372 C3.83505469,13.8738372 3.72135594,13.8109372 3.61714812,13.7349372 C3,13.2849704 3,12.2640034 3,10.2220694 L3,5.7779346 Z"></path>
</svg>