<svg viewBox="0 0 16 16" version="1.1" xmlns="http://www.w3.org/2000/svg" xmlns:xlink="http://www.w3.org/1999/xlink">
  <g stroke="none" stroke-width="1" fill="none" fill-rule="evenodd">
    <path fill="currentColor" d="M9.862,5.18713887 L8.4751,4.31007887 C7.3332,3.58797887 6.5653,3.10421887 5.9689,2.80055887 C5.36159,2.49140887 5.16445,2.49630887 5.13378,2.49900887 C4.78417,2.52978887 4.4637,2.70672887 4.25106,2.98637887 C4.2324,3.01090887 4.12301,3.17523887 4.0598,3.85455887 C3.99771,4.52182887 3.99616,5.43040887 3.99616,6.78289887 L3.99616,9.21709887 C3.99616,10.5695989 3.99771,11.4781989 4.0598,12.1453989 C4.12301,12.8247989 4.2324,12.9890989 4.25106,13.0135989 C4.4637,13.2932989 4.78417,13.4701989 5.13378,13.5009989 C5.16445,13.5036989 5.36159,13.5085989 5.9689,13.1993989 C6.5653,12.8957989 7.3332,12.4119989 8.4751,11.6898989 L9.862,10.8128989 C10.9695,10.1124989 11.7109,9.64189887 12.2295,9.24219887 C12.7484,8.84239887 12.8591,8.64799887 12.8898,8.57379887 C13.0419,8.20639887 13.0419,7.79359887 12.8898,7.42619887 C12.8591,7.35199887 12.7484,7.15759887 12.2295,6.75779887 C11.7109,6.35809887 10.9695,5.88748887 9.862,5.18713887 Z M3.06077,2.07847887 C2.5,2.81595887 2.5,4.13828887 2.5,6.78289887 L2.5,9.21709887 C2.5,11.8616989 2.5,13.1839989 3.06077,13.9214989 C3.52858,14.5366989 4.23362,14.9259989 5.00277,14.9936989 C5.9248,15.0748989 7.0411,14.3688989 9.2739,12.9569989 L10.6608,12.0798989 C12.8258,10.7107989 13.9083,10.0262989 14.2719,9.14759887 C14.576,8.41289887 14.576,7.58709887 14.2719,6.85239887 C13.9083,5.97369887 12.8258,5.28916887 10.6608,3.92008887 L9.2739,3.04302887 C7.0411,1.63108887 5.9248,0.925118868 5.00277,1.00628887 C4.23362,1.07399887 3.52858,1.46325887 3.06077,2.07847887 Z"></path>
  </g>
</svg>
