<?xml version="1.0" encoding="UTF-8"?>
<svg version="1.1" viewBox="0 0 16 16" xmlns="http://www.w3.org/2000/svg" xmlns:xlink="http://www.w3.org/1999/xlink">
  <g fill="none" fill-rule="evenodd">
    <path fill="currentColor"
      d="m8 0c4.4183-8.1162e-16 8 3.5817 8 8s-3.5817 8-8 8-8-3.5817-8-8 3.5817-8 8-8zm0 1.1429c-3.7871 0-6.8571 3.07-6.8571 6.8571 0 3.7871 3.07 6.8571 6.8571 6.8571 3.7871 0 6.8571-3.07 6.8571-6.8571 0-3.7871-3.07-6.8571-6.8571-6.8571zm0 2.2857c2.5247 0 4.5714 2.0467 4.5714 4.5714 0 2.5247-2.0467 4.5714-4.5714 4.5714-2.5247 0-4.5714-2.0467-4.5714-4.5714 0-2.5247 2.0467-4.5714 4.5714-4.5714z" />

  </g>
</svg>