<svg viewBox="0 0 16 16" version="1.1" xmlns="http://www.w3.org/2000/svg" xmlns:xlink="http://www.w3.org/1999/xlink">
  <g id="Icon/System/Sync_Large" stroke="none" stroke-width="1" fill="none" fill-rule="evenodd">
    <path d="M9.60340016,1.70161999 C7.07300016,1.05751999 4.44196016,1.99334999 2.87647016,4.00005999 L4.41748016,4.00005999 C4.83169016,4.00005999 5.16748016,4.33583999 5.16748016,4.75005999 C5.16748016,5.16426999 4.83169016,5.50005999 4.41748016,5.50005999 L1.25000016,5.50005999 C0.835790157,5.50005999 0.500000157,5.16426999 0.500000157,4.75005999 L0.500000157,1.75005999 C0.500000157,1.33584999 0.835790157,1.00005999 1.25000016,1.00005999 C1.66421016,1.00005999 2.00000016,1.33584999 2.00000016,1.75005999 L2.00000016,2.70812999 C3.95194016,0.494239988 7.01840016,-0.504200012 9.97340016,0.247969988 C13.5190002,1.15046999 16.0005002,4.34325999 16.0000002,8.00185999 L16.0000002,8.25005999 C16.0000002,8.66425999 15.6642002,9.00005999 15.2500002,9.00005999 C14.8358002,9.00005999 14.5000002,8.66425999 14.5000002,8.25005999 L14.5000002,8.00185999 C14.5005002,5.02920999 12.4842002,2.43490999 9.60340016,1.70161999 Z M0.750000157,7.00005999 C1.16421016,7.00005999 1.50000008,7.33585999 1.50000008,7.75005999 L1.50000008,8.00185999 C1.49955016,10.97456 3.51581016,13.56886 6.39660016,14.30216 C8.92860016,14.94666 11.5612002,14.00926 13.1264002,12.00006 L11.7500002,12.00006 C11.3358002,12.00006 11.0000001,11.66426 11.0000001,11.25006 C11.0000001,10.83586 11.3358002,10.50006 11.7500002,10.50006 L14.7500002,10.50006 C15.1642002,10.50006 15.5000001,10.83586 15.5000001,11.25006 L15.5000001,14.25006 C15.5000001,14.66426 15.1642002,15.00006 14.7500002,15.00006 C14.3358002,15.00006 14.0000001,14.66426 14.0000001,14.25006 L14.0000001,13.29566 C12.0481002,15.50956 8.98160016,16.50796 6.02660016,15.75586 C2.48103016,14.85336 -0.000509842833,11.66056 7.85716239e-08,8.00185999 L7.85716239e-08,7.75005999 C7.85716239e-08,7.33585999 0.335790157,7.00005999 0.750000157,7.00005999 Z" fill="currentColor"></path>
  </g>
</svg>
