<svg viewBox="0 0 16 16" fill="none" xmlns="http://www.w3.org/2000/svg">
  <path fill-rule="evenodd" clip-rule="evenodd"
    d="M6.3966 1.70162C8.927 1.05752 11.558 1.99335 13.1235 4.00006H11.5825C11.1683 4.00006 10.8325 4.33584 10.8325 4.75006C10.8325 5.16427 11.1683 5.50006 11.5825 5.50006H14.75C15.1642 5.50006 15.5 5.16427 15.5 4.75006V1.75006C15.5 1.33585 15.1642 1.00006 14.75 1.00006C14.3358 1.00006 14 1.33585 14 1.75006V2.70813C12.0481 0.49424 8.9816 -0.5042 6.0266 0.24797C2.481 1.15047 -0.0005 4.34326 0 8.00186V8.25006C0 8.66426 0.3358 9.00006 0.75 9.00006C1.1642 9.00006 1.5 8.66426 1.5 8.25006V8.00186C1.4995 5.02921 3.5158 2.43491 6.3966 1.70162ZM15.25 7.00006C14.8358 7.00006 14.5 7.33586 14.5 7.75006V8.00186C14.5004 10.9746 12.4842 13.5689 9.6034 14.3022C7.0714 14.9467 4.4388 14.0093 2.8736 12.0001H4.25C4.6642 12.0001 5 11.6643 5 11.2501C5 10.8359 4.6642 10.5001 4.25 10.5001H1.25C0.8358 10.5001 0.5 10.8359 0.5 11.2501V14.2501C0.5 14.6643 0.8358 15.0001 1.25 15.0001C1.6642 15.0001 2 14.6643 2 14.2501V13.2957C3.9519 15.5096 7.0184 16.508 9.9734 15.7559C13.519 14.8534 16.0005 11.6606 16 8.00186V7.75006C16 7.33586 15.6642 7.00006 15.25 7.00006Z"
    fill="currentColor" />
</svg>