<?xml version="1.0" encoding="UTF-8"?>
<svg width="16px" height="16px" viewBox="0 0 16 16" version="1.1" xmlns="http://www.w3.org/2000/svg"
  xmlns:xlink="http://www.w3.org/1999/xlink">
  <defs>
    <path
      d="M11.4480364,2.2981949 C11.9599111,2.44497048 12.3217477,2.90261349 12.3353894,3.45429418 L12.335,6.04 L14.5055538,6.04018744 C14.9092675,6.03126417 15.2900171,6.22067612 15.523299,6.54350903 L15.5954271,6.65597248 C15.8208451,7.05474141 15.7981592,7.54504612 15.5340282,7.92678499 L11.8002172,13.2295992 C11.4973715,13.6586968 10.952607,13.8465387 10.4479004,13.7018005 C9.93609643,13.555081 9.57434014,13.0975503 9.56049747,12.5457366 L9.56,9.957 L7.39188001,9.9576657 C6.9881135,9.96659014 6.60721909,9.77712433 6.37412772,9.45441784 L6.30207615,9.34200354 C6.07655713,8.94323106 6.09916279,8.45286217 6.36333389,8.07106545 L10.0956261,2.77045764 C10.3984663,2.34127613 10.9432222,2.15349719 11.4480364,2.2981949 Z M6.15858686,11.5357027 C6.57280042,11.5357027 6.90858686,11.8714891 6.90858686,12.2857027 C6.90858686,12.6999162 6.57280042,13.0357027 6.15858686,13.0357027 L2.28964671,13.0357027 C1.87543315,13.0357027 1.53964671,12.6999162 1.53964671,12.2857027 C1.53964671,11.8714891 1.87543315,11.5357027 2.28964671,11.5357027 L6.15858686,11.5357027 Z M10.835,4.324 L7.925,8.457 L10.3104975,8.45784884 C10.6901932,8.45784884 11.0039884,8.74000272 11.0536509,9.10607828 L11.0604975,9.20784884 L11.06,11.675 L13.972,7.54 L11.5853894,7.54000431 C11.2056936,7.54000431 10.8918985,7.25785042 10.842236,6.89177486 L10.8353894,6.79000431 L10.835,4.324 Z M4.2241131,7.60713369 C4.63832667,7.60713369 4.9741131,7.94292013 4.9741131,8.35713369 C4.9741131,8.77134726 4.63832667,9.10713369 4.2241131,9.10713369 L1,9.10713369 C0.585786438,9.10713369 0.25,8.77134726 0.25,8.35713369 C0.25,7.94292013 0.585786438,7.60713369 1,7.60713369 L4.2241131,7.60713369 Z M6.15858686,3.678579 C6.57280042,3.678579 6.90858686,4.01436544 6.90858686,4.428579 C6.90858686,4.84279257 6.57280042,5.178579 6.15858686,5.178579 L2.28964671,5.178579 C1.87543315,5.178579 1.53964671,4.84279257 1.53964671,4.428579 C1.53964671,4.01436544 1.87543315,3.678579 2.28964671,3.678579 L6.15858686,3.678579 Z"
      id="path-2"></path>
  </defs>
  <g id="Icon/System/Publish" stroke="none" stroke-width="1" fill="none" fill-rule="evenodd">
    <g id="Combined-Shape">
      <use fill="currentColor" xlink:href="#path-2"></use>
    </g>
  </g>
</svg>