<svg viewBox="0 0 16 16" version="1.1" xmlns="http://www.w3.org/2000/svg" xmlns:xlink="http://www.w3.org/1999/xlink">
  <g stroke="none" stroke-width="1" fill="none" fill-rule="evenodd">
    <g transform="translate(0.415961, 0.415961)">
      <path d="M11.03,4.976 L9.46354355,6.54176366 C9.91872968,7.35629591 9.79978344,8.40501831 9.10671082,9.09714574 C8.27050224,9.9324278 6.91489228,9.9324278 6.07872602,9.09718801 C5.24205649,8.2616167 5.24205649,6.90645404 6.07869427,6.07091444 C6.77167187,5.3787401 7.82134953,5.26018186 8.636521,5.71523972 L9.76148421,4.59148785 C9.13929592,4.14072432 8.38627401,3.8904133 7.59269726,3.8904133 C5.5493433,3.8904133 3.89378195,5.54392857 3.89378195,7.58403537 C3.89378195,9.62414217 5.5493433,11.2776574 7.59269726,11.2776574 C9.63605121,11.2776574 11.2916126,9.62414217 11.2916126,7.58403537 C11.2916126,7.26147939 11.5530958,6.99999611 11.8756518,6.99999611 C12.1982078,6.99999611 12.4596911,7.26147939 12.4596911,7.58403537 C12.4596911,10.2695777 10.28084,12.445736 7.59269726,12.445736 C4.90455449,12.445736 2.72570343,10.2695777 2.72570343,7.58403537 C2.72570343,4.89849303 4.90455449,2.72233478 7.59269726,2.72233478 C8.70042085,2.72233478 9.75032784,3.094395 10.5964541,3.75844946 L11.7030957,2.65269703 C9.1788575,0.549314245 5.41926226,0.680959737 3.04965994,3.04763351 C0.54088471,5.55330818 0.54088471,9.61477034 3.04965994,12.120445 C5.55883431,14.6265183 9.626568,14.6265183 12.1357424,12.120445 C13.3507834,10.9069056 14.0014761,9.28490017 14,7.5845462 C13.9997202,7.26199035 14.2609765,7.0002802 14.5835323,7 C14.9060882,6.99972024 15.1677983,7.26097646 15.1680812,7.58353232 C15.1698197,9.58975955 14.3992232,11.5106536 12.9611877,12.9469118 C9.99596745,15.9084674 5.18943485,15.9084674 2.22421457,12.9469118 C-0.741404855,9.98495754 -0.741404855,5.18312098 2.22421457,2.22116671 C5.18943485,-0.740388905 9.99596745,-0.740388905 12.9611877,2.22116671 C13.1894102,2.44910716 13.1896389,2.81890029 12.9616984,3.0471228 L12.959,3.048 L12.9580724,3.05074495 L11.0381004,4.96829313 L11.0381004,4.96829313 L11.03,4.976 Z M6.90413965,6.89738123 C6.52435663,7.27666573 6.52435663,7.89140501 6.90418197,8.27073179 C7.28433248,8.65046109 7.90106203,8.65046109 8.28126545,8.27067895 C8.63185011,7.92057239 8.65881817,7.36985351 8.3621696,6.98888353 L8.30139694,6.92279613 C8.29325784,6.91550583 8.28527413,6.90794739 8.27745725,6.90012083 L8.256,6.875 L8.18951101,6.81646408 C7.80758598,6.51988424 7.25507936,6.54684831 6.90413965,6.89738123 Z" fill="currentColor"></path>
    </g>
  </g>
</svg>
