<?xml version="1.0" encoding="UTF-8"?>
<svg width="16px" height="16px" viewBox="0 0 16 16" version="1.1" xmlns="http://www.w3.org/2000/svg" xmlns:xlink="http://www.w3.org/1999/xlink">
     <path fill="currentColor" d="M8.64793623,1.00058929 C11.0313492,1.00455852 12.2943561,1.0541739 13.2225441,1.67436614 C13.6592441,1.96620014 14.0342441,2.34120414 14.3261441,2.77796414 C15.0002441,3.78685414 15.0002441,5.19132414 15.0002441,8.00024414 C15.0002441,10.8091641 15.0002441,12.2136441 14.3261441,13.2225441 C14.0342441,13.6592441 13.6592441,14.0342441 13.2225441,14.3261441 C12.2136441,15.0002441 10.8091641,15.0002441 8.00024414,15.0002441 C5.19132414,15.0002441 3.78685414,15.0002441 2.77796414,14.3261441 C2.34120414,14.0342441 1.96620014,13.6592441 1.67436614,13.2225441 C1.0541739,12.2943561 1.00455852,11.0313492 1.00058929,8.64793623 L1.00058929,7.35255224 C1.00455852,4.96914065 1.0541739,3.70614294 1.67436614,2.77796414 C1.96620014,2.34120414 2.34120414,1.96620014 2.77796414,1.67436614 C3.70614294,1.0541739 4.96914065,1.00455852 7.35255224,1.00058929 Z M8.63024749,2.50063167 L7.37024125,2.50063167 C6.27341598,2.50252746 5.48766645,2.51355414 4.86590414,2.57680414 C4.15616414,2.64900414 3.82822414,2.77664414 3.61131414,2.92157414 C3.33834414,3.10396414 3.10396414,3.33834414 2.92157414,3.61131414 C2.77664414,3.82822414 2.64900414,4.15616414 2.57680414,4.86590414 C2.51355414,5.48766645 2.50252746,6.27341598 2.50063167,7.37024125 L2.50063167,8.63024749 C2.50252746,9.72707396 2.51355414,10.5128241 2.57680414,11.1345441 C2.64900414,11.8443441 2.77664414,12.1722441 2.92157414,12.3891441 C3.10396414,12.6621441 3.33834414,12.8965441 3.61131414,13.0789441 C3.82822414,13.2238441 4.15616414,13.3514441 4.86590414,13.4236441 C5.60071414,13.4984441 6.56456414,13.5002441 8.00024414,13.5002441 C9.43592414,13.5002441 10.3997841,13.4984441 11.1345441,13.4236441 C11.8443441,13.3514441 12.1722441,13.2238441 12.3891441,13.0789441 C12.6621441,12.8965441 12.8965441,12.6621441 13.0789441,12.3891441 C13.2238441,12.1722441 13.3514441,11.8443441 13.4236441,11.1345441 C13.4984441,10.3997841 13.5002441,9.43592414 13.5002441,8.00024414 C13.5002441,6.56456414 13.4984441,5.60071414 13.4236441,4.86590414 C13.3514441,4.15616414 13.2238441,3.82822414 13.0789441,3.61131414 C12.8965441,3.33834414 12.6621441,3.10396414 12.3891441,2.92157414 C12.1722441,2.77664414 11.8443441,2.64900414 11.1345441,2.57680414 C10.5128241,2.51355414 9.72707396,2.50252746 8.63024749,2.50063167 Z M11.0003341,10.0001641 C11.5526441,10.0001641 12.0003441,10.4478641 12.0003441,11.0001641 C12.0003441,11.5524441 11.5526441,12.0001441 11.0003341,12.0001441 C10.4480541,12.0001441 10.0003341,11.5524441 10.0003341,11.0001641 C10.0003341,10.4478641 10.4480541,10.0001641 11.0003341,10.0001641 Z M5.00033414,10.0001641 C5.55262414,10.0001641 6.00033414,10.4478641 6.00033414,11.0001641 C6.00033414,11.5524441 5.55262414,12.0001441 5.00033414,12.0001441 C4.44805414,12.0001441 4.00033414,11.5524441 4.00033414,11.0001641 C4.00033414,10.4478641 4.44805414,10.0001641 5.00033414,10.0001641 Z M8.00033414,7.00016414 C8.55262414,7.00016414 9.00033414,7.44786414 9.00033414,8.00016414 C9.00033414,8.55245414 8.55262414,9.00016414 8.00033414,9.00016414 C7.44805414,9.00016414 7.00033414,8.55245414 7.00033414,8.00016414 C7.00033414,7.44786414 7.44805414,7.00016414 8.00033414,7.00016414 Z M5.00033414,4.00016414 C5.55262414,4.00016414 6.00033414,4.44786414 6.00033414,5.00016414 C6.00033414,5.55245414 5.55262414,6.00016414 5.00033414,6.00016414 C4.44805414,6.00016414 4.00033414,5.55245414 4.00033414,5.00016414 C4.00033414,4.44786414 4.44805414,4.00016414 5.00033414,4.00016414 Z M11.0003341,4.00016414 C11.5526441,4.00016414 12.0003441,4.44786414 12.0003441,5.00016414 C12.0003441,5.55245414 11.5526441,6.00016414 11.0003341,6.00016414 C10.4480541,6.00016414 10.0003341,5.55245414 10.0003341,5.00016414 C10.0003341,4.44786414 10.4480541,4.00016414 11.0003341,4.00016414 Z"></path>
</svg>