<?xml version="1.0" encoding="UTF-8"?>
<svg width="16px" height="16px" viewBox="0 0 16 16" version="1.1" xmlns="http://www.w3.org/2000/svg" xmlns:xlink="http://www.w3.org/1999/xlink">
    <g id="Icon/Channel/Rasa" stroke="none" stroke-width="1" fill="none" fill-rule="evenodd">
        <g id="svgexport-3" transform="translate(1.500000, 0.000000)" fill="#5A17EE">
            <path d="M10.9851278,3.06069822 L10.9851278,2.03925905 L6.79200467,2.03925905 L6.79200467,6.2939151 L7.79824238,6.2939151 L7.79824238,5.01349687 L9.9780912,5.01349687 L9.9780912,6.28949154 L10.9847284,6.28949154 L10.9847284,3.05627466 L10.9847284,3.06029608 L10.9851278,3.06069822 Z M9.97849066,3.99648126 L7.79864184,3.99648126 L7.79864184,3.06069822 L9.97849066,3.06069822 L9.97849066,3.99648126 Z M6.12131268,9.402066 L6.12131268,11.3166612 L2.01247542,11.3166612 L2.01247542,10.2952221 L5.11507498,10.2952221 L5.11507498,9.70005278 L2.01247542,9.70005278 L2.01247542,7.06240732 L6.12131268,7.06240732 L6.12131268,8.08344434 L3.01871313,8.08344434 L3.01871313,8.67861362 L6.12131268,8.67861362 L6.12131268,9.40246814 L6.12131268,9.402066 Z M10.9851278,8.08062935 L10.9851278,7.05959233 L6.79200467,7.05959233 L6.79200467,11.3142484 L7.79824238,11.3142484 L7.79824238,10.0330259 L9.9780912,10.0330259 L9.9780912,11.3094227 L10.9847284,11.3094227 L10.9847284,8.0762058 L10.9847284,8.08022721 L10.9851278,8.08062935 Z M9.97849066,9.01681454 L7.79864184,9.01681454 L7.79864184,8.08062935 L9.97849066,8.08062935 L9.97849066,9.01681454 Z" id="Shape"></path>
            <path d="M11.9070796,1.10588886 L11.9070796,12.2263051 L10.1690327,12.2263051 L10.1690327,14.1219996 L7.02608776,12.3606203 L6.77962144,12.2226858 L1.09292035,12.2226858 L1.09292035,1.10588886 L11.9098759,1.10588886 L11.9070796,1.10588886 Z M13,0 L0,0 L0,13.3321939 L6.49840216,13.3321939 L11.2579585,16 L11.2579585,13.3321939 L12.9968043,13.3321939 L12.9968043,0 L12.9996005,0 L13,0 Z" id="Shape" fill-rule="nonzero"></path>
            <path d="M4.77233899,4.67489381 L6.06019543,4.19916053 L6.12131268,4.17422776 L6.12131268,2.04247619 L2.01247542,2.04247619 L2.01247542,2.12773016 L2.00328786,6.29673009 L3.00992502,6.29673009 L3.00992502,5.32596074 L3.76450344,5.04848317 L4.89617134,6.29673009 L6.13888889,6.29673009 L4.77233899,4.67489381 Z M3.01152286,4.23897253 L3.01152286,3.06311107 L5.11507498,3.06311107 L5.11507498,3.46123106 L3.01192232,4.23897253 L3.01152286,4.23897253 Z" id="Shape"></path>
        </g>
    </g>
</svg>