<svg viewBox="0 0 16 16" version="1.1" xmlns="http://www.w3.org/2000/svg" xmlns:xlink="http://www.w3.org/1999/xlink">
    <g stroke="none" stroke-width="1" fill="none" fill-rule="evenodd">
        <path d="M10.1396188,0.292664969 C14.0165379,1.368767 16.4907979,5.15723808 15.9177589,9.13983412 C15.3448071,13.1224861 11.9028981,16.0596611 7.87981189,15.9990798 C3.8567641,15.9384985 0.504861867,12.8989467 0.0520864095,8.90081287 C0.00349049904,8.4716974 0.311963776,8.08443594 0.741080758,8.0358402 C1.17019774,7.98724446 1.55746056,8.29571666 1.60605647,8.72483213 C1.97031478,11.9413349 4.66688563,14.386623 7.90335932,14.4353596 C11.1398801,14.4840965 13.9088543,12.1211747 14.369795,8.91712418 C14.8308073,5.71310892 12.8402757,2.66530014 9.7213427,1.7995895 C7.00602265,1.04590197 4.17121015,2.15032989 2.65406683,4.41731923 L3.19072029,4.41757795 C3.58332017,4.41757795 3.90834297,4.70690883 3.9641934,5.08397602 L3.97267176,5.19952667 C3.97267176,5.59212518 3.68333986,5.91714683 3.30627135,5.97299706 L3.19072029,5.98147539 L0.781951465,5.98147539 C0.389351584,5.98147539 0.0643287883,5.69214451 0.00847836164,5.31507732 L0,5.19952667 L0,2.79064406 C0,2.3587857 0.350091596,2.00869534 0.781951465,2.00869534 C1.17455135,2.00869534 1.49957414,2.29802622 1.55542457,2.67509341 L1.56390293,2.79064406 L1.56248631,3.25092326 C3.49150605,0.633755476 6.88462499,-0.610819043 10.1396188,0.292664969 Z M10.123675,5.89353682 C10.3742428,6.14408982 10.4020938,6.53302947 10.2072209,6.81434609 L10.1237034,6.9143145 L9.0274608,8.0095609 L10.1237022,9.10539411 C10.405576,9.38728123 10.4055644,9.84429897 10.1236763,10.1261718 C9.87310904,10.3767254 9.48416654,10.4045555 9.20285931,10.2096684 L9.10289499,10.1261459 L8.00731489,9.03090623 L6.91204109,10.1261446 C6.63016798,10.4080324 6.17314864,10.4080452 5.89125982,10.1261731 C5.64069198,9.87562007 5.61284105,9.48668042 5.80771387,9.2053638 L5.89123137,9.10539538 L6.98596597,8.0095609 L5.8912166,6.91431578 C5.60934279,6.63242865 5.60935438,6.17541092 5.8912425,5.8935381 C6.11048881,5.67430368 6.4356787,5.62559194 6.70200431,5.74739868 L6.81205944,5.81004147 L6.91202376,5.893564 L8.00731489,6.98821557 L9.10289371,5.89356527 C9.38476682,5.61167744 9.84178616,5.61166471 10.123675,5.89353682 Z" fill="currentColor"></path>
    </g>
</svg>