<svg viewBox="0 0 16 16" version="1.1" xmlns="http://www.w3.org/2000/svg" xmlns:xlink="http://www.w3.org/1999/xlink">
	<defs>
		<path d="M6.51838528,1.91454327 L6.51838528,0.467122899 C6.51838528,0.063673216 6.00142958,-0.149119714 5.6768834,0.120084765 L0.34659877,4.54589209 C-0.110856797,4.92506338 -0.1162659,5.58557835 0.335007836,5.97189035 L5.67070157,10.5412258 C5.99370229,10.818285 6.51838528,10.6062062 6.51838528,10.1999002 L6.51838528,8.3625975 C6.51838528,7.80919307 7.0090682,7.35861475 7.6087059,7.35647254 C11.8842154,7.34147706 14.006902,8.44043115 15.2200865,9.46583601 C15.580951,9.770744 16.1481341,9.42013552 15.9642246,9.00169036 C14.2680844,5.13500003 10.7815312,3.24342798 7.57625128,2.96565466 C6.99438635,2.91566974 6.51838528,2.4536663 6.51838528,1.91454327" id="path-2">
		</path>
	</defs>
	<g id="forward-2" transform="translate(0.000000, 2.000000)">
		<g id="forward" transform="translate(8.000000, 5.333333) scale(-1, 1) translate(-8.000000, -5.333333) ">
			<use fill="currentColor" xlink:href="#path-2">
			</use>
		</g>
	</g>
</svg>
