<svg width="80" height="80" viewBox="0 0 80 80" xmlns="http://www.w3.org/2000/svg">
    <g fill-rule="nonzero" fill="none">
        <path d="M76.95 40.039c0 20.385-16.526 36.911-36.912 36.911-20.385 0-36.911-16.526-36.911-36.911 0-20.386 16.526-36.911 36.911-36.911 20.386 0 36.911 16.525 36.911 36.911z" fill="#D7E9FF"/>
        <path d="M74.447 40.039c0 19.003-15.406 34.409-34.41 34.409-19.001 0-34.408-15.406-34.408-34.409S21.036 5.63 40.038 5.63c19.003 0 34.409 15.406 34.409 34.409z" fill="#94C1FF"/>
        <path d="M8.132 40.039c0-18.583 14.736-33.717 33.157-34.377-.416-.015-.832-.032-1.25-.032-19.003 0-34.41 15.406-34.41 34.409s15.407 34.409 34.41 34.409c.418 0 .834-.017 1.25-.032-18.421-.66-33.157-15.794-33.157-34.377z" fill="#D7E9FF"/>
        <path d="M71.944 40.039c0 18.583-14.736 33.717-33.157 34.377.416.015.832.032 1.25.032 19.003 0 34.41-15.406 34.41-34.409S59.04 5.63 40.037 5.63c-.418 0-.834.017-1.25.032 18.421.66 33.157 15.794 33.157 34.377z" fill="#5C9EFF"/>
        <path fill="#D7E9FF" d="M40.664 35.66h13.763l-30.03 23.773h-2.502l17.517-17.517H24.398l20.02-20.02h10.01z"/>
        <g fill="#FFF">
            <path d="M39.412 41.916 21.895 59.433h2.503l17.517-17.517zM46.92 21.896h-2.503l-20.02 20.02H26.9z"/>
        </g>
        <g fill="#D7E9FF">
            <path d="m40.664 79.374-4.38-3.753 4.38-3.754zM40.114.625l4.378 3.754-4.378 3.754z"/>
        </g>
        <g fill="#116FFF">
            <path d="M21.895 60.059a.625.625 0 0 1-.442-1.068L38.97 41.474a.625.625 0 1 1 .885.884L22.338 59.875a.624.624 0 0 1-.443.184zM24.398 60.059a.627.627 0 0 1-.389-1.117l30.03-23.773a.626.626 0 0 1 .776.981L24.786 59.923a.622.622 0 0 1-.388.136zM28.151 60.059a.627.627 0 0 1-.388-1.117l30.03-23.773a.625.625 0 0 1 .776.981L28.54 59.923a.622.622 0 0 1-.388.136zM24.398 42.541a.625.625 0 0 1-.442-1.068l20.019-20.02a.625.625 0 1 1 .885.885l-20.02 20.02a.623.623 0 0 1-.442.183zM40.664 36.285a.625.625 0 0 1-.442-1.068l13.763-13.763a.625.625 0 1 1 .884.884L41.106 36.102a.623.623 0 0 1-.442.183zM45.668 35.034a.625.625 0 0 1-.442-1.068l12.512-12.512a.625.625 0 1 1 .885.884L46.111 34.851a.624.624 0 0 1-.443.183z"/>
            <path d="M40.664 42.541H24.398a.625.625 0 1 1 0-1.25h16.266a.625.625 0 1 1 0 1.25zM54.427 36.285H39.412a.625.625 0 1 1 0-1.251h15.015a.625.625 0 1 1 0 1.251zM54.427 22.522h-10.01a.625.625 0 1 1 0-1.252h10.01a.625.625 0 1 1 0 1.252zM24.398 60.059h-2.503a.625.625 0 1 1 0-1.252h2.503a.625.625 0 1 1 0 1.252z"/>
            <path d="M40.038 77.498a.625.625 0 1 1 0-1.252c20.007 0 36.284-16.278 36.284-36.285 0-16.827-11.897-31.715-28.29-35.402a.626.626 0 0 1 .273-1.22c16.96 3.813 29.269 19.215 29.269 36.622 0 20.698-16.838 37.537-37.536 37.537zM31.898 76.598a.594.594 0 0 1-.138-.016C14.806 72.766 2.5 57.364 2.5 39.961c0-20.698 16.839-37.537 37.538-37.537a.625.625 0 1 1 0 1.251c-20.009 0-36.287 16.278-36.287 36.286 0 16.823 11.895 31.712 28.283 35.4a.625.625 0 0 1-.136 1.237z"/>
            <path d="M40.038 74.995a.625.625 0 1 1 0-1.251c18.628 0 33.782-15.155 33.782-33.783 0-15.65-10.607-29.15-25.797-32.833a.627.627 0 0 1 .296-1.216C64.07 9.732 75.07 23.732 75.07 39.96c0 19.318-15.716 35.034-35.033 35.034zM33.156 74.308a.727.727 0 0 1-.124-.012C16.79 70.997 5.002 56.558 5.002 39.961c0-19.318 15.718-35.035 35.036-35.035a.625.625 0 1 1 0 1.252c-18.63 0-33.784 15.155-33.784 33.783 0 16.004 11.366 29.928 27.027 33.109a.626.626 0 0 1-.125 1.238zM40.664 80a.62.62 0 0 1-.407-.152l-4.38-3.753a.626.626 0 0 1 .814-.95l4.38 3.754A.625.625 0 0 1 40.663 80z"/>
            <path d="M36.284 76.246a.626.626 0 0 1-.406-1.1l4.379-3.754a.627.627 0 0 1 .882.068.624.624 0 0 1-.068.881l-4.38 3.754a.625.625 0 0 1-.407.151zM44.493 5.004a.62.62 0 0 1-.407-.15L39.706 1.1a.625.625 0 1 1 .815-.95L44.9 3.905a.625.625 0 0 1-.407 1.1z"/>
            <path d="M40.114 8.758a.625.625 0 0 1-.407-1.1l4.38-3.754a.626.626 0 0 1 .813.95l-4.38 3.753a.624.624 0 0 1-.406.151zM14.388 40.665a.625.625 0 0 1-.626-.626c0-.856.042-1.716.122-2.558a.625.625 0 1 1 1.245.121 25.603 25.603 0 0 0-.116 2.437c0 .346-.28.626-.625.626zm.481-4.972a.626.626 0 0 1-.615-.746C16.642 22.8 27.369 13.89 39.765 13.765c.38.026.627.275.63.62a.626.626 0 0 1-.619.631c-11.803.12-22.02 8.604-24.292 20.171a.626.626 0 0 1-.614.506zM40.038 66.315a.625.625 0 1 1 0-1.252c.496 0 .99-.014 1.478-.042a.625.625 0 1 1 .074 1.249c-.513.029-1.031.045-1.552.045zm4-.31a.626.626 0 0 1-.095-1.244c10.332-1.62 18.632-9.606 20.65-19.87a.626.626 0 1 1 1.227.242C63.7 55.909 54.987 64.294 44.136 65.996a.686.686 0 0 1-.098.007zM65.57 43.161a.626.626 0 0 1-.625-.687c.078-.801.117-1.62.117-2.436a.625.625 0 1 1 1.251 0c0 .855-.041 1.715-.122 2.557a.627.627 0 0 1-.621.566z"/>
        </g>
    </g>
</svg>
