<svg viewBox="0 0 16 16" version="1.1" xmlns="http://www.w3.org/2000/svg" xmlns:xlink="http://www.w3.org/1999/xlink">
	<g stroke="none" stroke-width="1" fill="none" fill-rule="evenodd">
		<path d="M12.7544298,10.0345275 C12.9181439,10.4827217 13,10.9915021 13,11.5608782 C13,12.944784 12.4978683,14.0306015 11.4935897,14.8183633 C10.4893112,15.606125 9.10399744,16 7.33760684,16 C6.3299279,16 5.12580716,15.7999291 3.7252446,15.3997874 C3.29596965,15.277095 3,14.8847243 3,14.43826 L3,13.9773786 C3,13.5211509 3.36984559,13.1513053 3.82607325,13.1513053 C3.92127715,13.1513053 4.01576456,13.1677626 4.10535695,13.1999649 C4.56972453,13.3667876 4.9580386,13.4875356 5.27029915,13.5622089 C6.0715852,13.7538266 6.81766036,13.8496341 7.50854701,13.8496341 C8.51994808,13.8496341 9.26602324,13.6580192 9.74679487,13.2747838 C10.2275665,12.8915483 10.4679487,12.377027 10.4679487,11.7312043 C10.4679487,11.1492541 10.2471532,10.6560233 9.80555556,10.251497 C9.72960571,10.181923 9.639751,10.110145 9.53599129,10.0361628 L12.7544298,10.0345275 Z M14.5,8 C14.7761424,8 15,8.22385763 15,8.5 C15,8.77614237 14.7761424,9 14.5,9 L12.1514005,8.99993857 C12.1601193,9.01033621 12.168767,9.02076042 12.1773436,9.0312112 L7.59815012,9.03182154 L7.523,9 L1.5,9 C1.22385763,9 1,8.77614237 1,8.5 C1,8.22385763 1.22385763,8 1.5,8 L14.5,8 Z M8.2991453,0 C9.11388157,0 10.2567022,0.21793926 11.7276071,0.653817781 C12.2571361,0.810728835 12.5591966,1.3672017 12.4022799,1.89672903 C12.394251,1.92382324 12.3850772,1.95056494 12.3747833,1.97688213 L12.2947158,2.18158042 C12.1043927,2.66820695 11.5715016,2.92625648 11.0717069,2.77383112 C9.77864519,2.37947842 8.83309047,2.18230206 8.23504274,2.18230206 C7.40882778,2.18230206 6.78205342,2.36149743 6.35470085,2.71989355 C5.92734829,3.07828966 5.71367521,3.55200415 5.71367521,4.14105123 C5.71367521,4.54557754 5.79914444,4.8915488 5.97008547,5.17897538 C6.1410265,5.46640197 6.42236271,5.73785634 6.81410256,5.99334664 C7.20584241,6.24883694 7.91096357,6.58593714 8.92948718,7.00465735 L8.976,7.024 L4.209899,7.02495874 C4.15633599,6.96551394 4.10560043,6.90551993 4.05769231,6.84497671 C3.4736438,6.10689363 3.18162393,5.21978784 3.18162393,4.18363273 C3.18162393,2.88489038 3.64458226,1.86294451 4.57051282,1.11776447 C5.49644338,0.372584431 6.73930844,0 8.2991453,0 Z" fill="currentColor">
		</path>
	</g>
</svg>
