<svg viewBox="0 0 11 11" version="1.1">
	<g stroke="none" stroke-width="1" fill="none" fill-rule="evenodd">
		<g transform="translate(-2.000000, -2.000000)" fill="currentColor" fill-rule="nonzero">
			<g transform="translate(7.500000, 7.500000) rotate(90.000000) translate(-7.500000, -7.500000) translate(2.350000, 2.350000)">
				<path d="M7.43311828,0.120036388 L7.51338414,0.187556856 L10.1067782,2.74918186 C10.3621785,3.0014535 10.3647148,3.41300292 10.1124431,3.66840322 C9.88539867,3.89826348 9.52933919,3.92330389 9.27421092,3.74210734 L9.19322178,3.67406814 L7.706,2.205 L7.70660592,6.4859375 C7.70660592,8.51807241 6.11341519,10.1923542 4.12099955,10.2950123 L3.92697893,10.3 L0.65,10.3 C0.291014913,10.3 0,10.0089851 0,9.65 C0,9.32364992 0.240508192,9.05347354 0.553947764,9.00704767 L0.65,9 L3.92697893,9 C5.23335427,9 6.31671319,7.95751399 6.40129171,6.65062008 L6.40660592,6.4859375 L6.406,2.205 L4.91999006,3.67406814 C4.69012979,3.90111262 4.33378874,3.92176269 4.0809131,3.73743544 L4.0007687,3.66840322 C3.77372422,3.43854295 3.75307416,3.08220189 3.93740141,2.82932625 L4.00643363,2.74918186 L6.59982771,0.187556856 C6.82768721,-0.0375113712 7.18030676,-0.0600181938 7.43311828,0.120036388 Z">
				</path>
			</g>
		</g>
	</g>
</svg>
