<svg xmlns="http://www.w3.org/2000/svg" xmlns:xlink="http://www.w3.org/1999/xlink">
  <path fill="currentColor" d="M9.593 1.702A6.49 6.49 0 0 0 2.873 4h1.54a.75.75 0 0 1 0 1.5H1.249a.75.75 0 0 1-.75-.75v-3a.75.75 0 1 1 1.499 0v.958A7.987 7.987 0 0 1 9.962.248a7.998 7.998 0 0 1 6.02 7.754v.248a.75.75 0 1 1-1.498 0v-.248a6.499 6.499 0 0 0-4.891-6.3zM.749 7a.75.75 0 0 1 .75.75v.252a6.499 6.499 0 0 0 4.89 6.3A6.49 6.49 0 0 0 13.113 12h-1.375a.75.75 0 0 1 0-1.5h2.997a.75.75 0 0 1 .749.75v3a.75.75 0 1 1-1.499 0v-.954a7.987 7.987 0 0 1-7.964 2.46A7.998 7.998 0 0 1 0 8.002V7.75A.75.75 0 0 1 .75 7z" id="ot3wc7rapa"/>
</svg>
