<svg width="16" height="16" viewBox="0 0 16 16" xmlns="http://www.w3.org/2000/svg" xmlns:xlink="http://www.w3.org/1999/xlink">
    <path fill="currentColor" d="M6.25 1a.75.75 0 0 1 .75.75v1.926c0 .489 0 .91-.034 1.255-.037.365-.118.724-.335 1.054a2.25 2.25 0 0 1-.646.646c-.33.216-.689.298-1.054.334C4.587 7 4.165 7 3.676 7H1.75a.75.75 0 0 1 0-1.5h1.89c.535 0 .88 0 1.141-.027.248-.025.336-.067.381-.096a.75.75 0 0 0 .215-.215c.03-.045.071-.133.096-.381.026-.26.027-.606.027-1.141V1.75A.75.75 0 0 1 6.25 1zm-2.61 9.5c.535 0 .88 0 1.141.027.248.025.336.067.381.096a.75.75 0 0 1 .215.215c.03.045.071.133.096.381.026.26.027.606.027 1.141v1.89a.75.75 0 0 0 1.5 0v-1.926c0-.489 0-.91-.034-1.255-.037-.365-.118-.724-.335-1.054a2.25 2.25 0 0 0-.646-.646c-.33-.216-.689-.298-1.054-.334C4.587 9 4.165 9 3.676 9H1.75a.75.75 0 0 0 0 1.5h1.89zM12.36 9h-.036c-.489 0-.91 0-1.255.035-.365.036-.724.118-1.054.334a2.25 2.25 0 0 0-.645.646c-.217.33-.299.69-.335 1.054C9 11.414 9 11.835 9 12.324v1.926a.75.75 0 0 0 1.5 0v-1.89c0-.535.001-.88.027-1.14.025-.25.067-.337.096-.382a.75.75 0 0 1 .215-.215c.045-.03.133-.071.381-.096.26-.026.606-.027 1.141-.027h1.893a.75.75 0 0 0 0-1.5H12.36zM10.5 1.75a.75.75 0 1 0-1.5 0v1.926c0 .489 0 .91.035 1.255.036.365.118.724.335 1.054.168.257.388.477.645.646.33.216.69.298 1.054.334.345.035.766.035 1.255.035h1.929a.75.75 0 0 0 0-1.5H12.36c-.535 0-.88 0-1.14-.027-.249-.025-.337-.067-.382-.096a.75.75 0 0 1-.215-.215c-.03-.045-.07-.133-.096-.381-.026-.26-.027-.606-.027-1.141V1.75z" />
</svg>
