<svg version="1.1" viewBox="0 0 16.0 16.0" xmlns="http://www.w3.org/2000/svg"
  xmlns:xlink="http://www.w3.org/1999/xlink">

  <path fill="currentColor"
    d="M7.02856972,0.663621991 C7.07683972,1.07553999 6.78203972,1.44857999 6.37011972,1.49684999 C6.29677972,1.50543999 6.22377972,1.51548999 6.15113972,1.52697999 C4.49448972,1.78889999 3.02804972,2.79726999 2.19709972,4.29060999 C1.22316972,6.04088999 1.27581972,8.18203999 2.33425972,9.88197999 C2.45647972,10.0783 2.48144972,10.3199 2.40195972,10.537 L1.78847972,12.2129 L3.46377972,11.5995 C3.68040972,11.5202 3.92146972,11.5448 4.11754972,11.6664 C6.10718972,12.8995 8.65860972,12.7433 10.4824997,11.2761 C11.6328997,10.3506 12.3361997,9.03094999 12.5032997,7.62765999 C12.5523997,7.21583999 12.9259997,6.92173999 13.3377997,6.97077999 C13.7495997,7.01981999 14.0436997,7.39341999 13.9946997,7.80524999 C13.7821997,9.58907999 12.8877997,11.2687 11.4238997,12.4463 C9.20071972,14.2347 6.12826972,14.492 3.64874972,13.1311 L1.49433972,13.9199 C0.614007723,14.2422 -0.240849277,13.3874 0.0814271234,12.5071 L0.870013723,10.3529 C-0.291137277,8.24577999 -0.293756277,5.67820999 0.884713723,3.56033999 C1.94225972,1.65979999 3.80837972,0.376843991 5.91659972,0.0435240913 C6.00906972,0.0289040913 6.10199972,0.0161112913 6.19534972,0.00517396129 C6.60725972,-0.0430895087 6.98030972,0.251707991 7.02856972,0.663621991 Z M8.99016972,0.237830991 C9.08718972,0.266132991 9.18343972,0.296487991 9.27884972,0.328852991 C10.0606997,0.594064991 10.7862997,0.994293991 11.4236997,1.50685999 C12.4187997,2.30694999 13.1996997,3.38137999 13.6441997,4.64331999 C13.6844997,4.75749999 13.7215997,4.87223999 13.7556997,4.98742999 C13.8733997,5.38511999 13.6463997,5.80289999 13.2486997,5.92056999 C12.8509997,6.03822999 12.4331997,5.81122999 12.3154997,5.41353999 C12.2886997,5.32291999 12.2594997,5.23260999 12.2277997,5.14267999 C11.8783997,4.15049999 11.2648997,3.30632999 10.4825997,2.67729999 C9.98119972,2.27412999 9.41067972,1.95950999 8.79639972,1.75112999 C8.72143972,1.72569999 8.64582972,1.70185999 8.56960972,1.67962999 C8.17146972,1.56349999 7.94285972,1.14658999 8.05898972,0.748452991 C8.17511972,0.350312991 8.59202972,0.121698991 8.99016972,0.237830991 Z">
  </path>

</svg>
