<svg viewBox="0 0 16 16" version="1.1" xmlns="http://www.w3.org/2000/svg" xmlns:xlink="http://www.w3.org/1999/xlink">
  <path stroke="none" stroke-width="1" fill-rule="evenodd" d="M8 1.5a1.49 1.49 0 0 0-.59.104l-.002.001-4.393 2.038h-.002c-.25.116-.39.23-.46.31a.278.278 0 0 0-.051.075.278.278 0 0 0 .051.076c.07.08.209.193.458.308l4.39 1.985.009.004c.122.057.335.104.59.104.255 0 .469-.047.59-.104l.01-.004 4.39-1.985c.249-.115.388-.228.457-.308a.277.277 0 0 0 .052-.076.277.277 0 0 0-.052-.075c-.069-.08-.21-.194-.46-.31h-.002L8.593 1.605H8.59A1.49 1.49 0 0 0 8 1.5zM9.225.245C8.85.07 8.403 0 8 0c-.403 0-.848.07-1.225.245l-4.39 2.037C1.663 2.615 1 3.195 1 4.028c0 .834.663 1.414 1.385 1.747l.005.002L6.78 7.762c.376.174.82.243 1.221.243.402 0 .846-.069 1.221-.243l4.389-1.985.005-.002C14.337 5.442 15 4.862 15 4.028c0-.833-.663-1.413-1.384-1.746h-.001L9.226.246zM1.013 7.038a.75.75 0 0 1 .949.475c.11.332.182.417.216.45.049.048.123.094.434.237h.001l4.657 2.14a1.75 1.75 0 0 0 1.46 0l4.657-2.14h.001c.312-.143.385-.189.435-.237.033-.033.105-.118.216-.45a.75.75 0 1 1 1.423.474c-.14.418-.304.767-.589 1.046-.26.256-.575.4-.836.52l-.024.01-4.656 2.14a3.25 3.25 0 0 1-2.713 0l-4.656-2.14-.024-.01c-.262-.12-.576-.264-.837-.52-.284-.279-.45-.628-.588-1.046a.75.75 0 0 1 .474-.949zm.449 4.225a.75.75 0 0 0-1.423.474c.302.907.922 1.32 1.274 1.556.049.032.092.061.128.087.038.028.079.051.121.07l4.65 2.157a4.25 4.25 0 0 0 3.576 0l4.641-2.152c.369-.16.708-.342.982-.653.271-.306.42-.672.55-1.065a.75.75 0 0 0-1.422-.474c-.12.357-.192.479-.252.546-.054.061-.15.138-.462.273l-.018.008-4.65 2.157a2.75 2.75 0 0 1-2.314 0l-4.587-2.128a16.89 16.89 0 0 0-.13-.09l-.001-.001c-.332-.23-.53-.366-.663-.765z" fill="currentColor"></path>
</svg>
