<svg viewBox="0 0 17 16" xmlns="http://www.w3.org/2000/svg" xmlns:xlink="http://www.w3.org/1999/xlink">
    <path fill="currentColor" d="M8.53 12.38a.75.75 0 0 1 .073.977l-.073.085-1.621 1.621a.75.75 0 0 1-1.134-.976l.073-.084L7.47 12.38a.75.75 0 0 1 1.06 0zm-.81-4.053a.75.75 0 0 1 .072.976l-.072.085-4.865 4.864a.75.75 0 0 1-1.134-.976l.073-.084 4.865-4.865a.75.75 0 0 1 1.06 0zm-4.055-.81a.75.75 0 0 1 .073.976l-.073.084-1.621 1.621A.75.75 0 0 1 .91 9.222l.072-.084 1.622-1.622a.75.75 0 0 1 1.06 0zM9.141.134a1.243 1.243 0 0 1 1.308.112l1.493 1.113 1.765-.597a1.243 1.243 0 0 1 1.173.204l.105.094c.335.335.45.83.298 1.278l-.598 1.764L15.8 5.598c.254.341.315.786.168 1.179l-.057.128c-.215.422-.65.685-1.123.679l-1.865-.025-1.075 1.523c-.246.347-.65.542-1.07.524l-.14-.014a1.243 1.243 0 0 1-.992-.859l-.554-1.78L7.313 6.4a1.243 1.243 0 0 1-.829-.855l-.03-.137a1.243 1.243 0 0 1 .51-1.21l1.522-1.076-.024-1.863A1.243 1.243 0 0 1 9.02.206zm.828 1.625.022 1.738a.75.75 0 0 1-.317.621L8.255 5.122l1.66.516a.75.75 0 0 1 .455.396l.038.098.515 1.658 1.004-1.418a.75.75 0 0 1 .517-.31l.105-.007 1.736.021-1.038-1.39a.75.75 0 0 1-.136-.589l.027-.101.556-1.646-1.643.559a.75.75 0 0 1-.602-.053l-.088-.057L9.97 1.76z" />
</svg>
