<svg viewBox="0 0 18 18" xmlns="http://www.w3.org/2000/svg" xmlns:xlink="http://www.w3.org/1999/xlink">

  <path fill="currentColor" fill-rule="evenodd"
    d="M11.893.254a3.861 3.861 0 0 1 3.86 3.86v7.779a3.861 3.861 0 0 1-3.86 3.86H4.115a3.861 3.861 0 0 1-3.861-3.86V4.115A3.861 3.861 0 0 1 4.114.254zm-7.68 10.608-.103.092-2.082 2.044a2.36 2.36 0 0 0 2.087 1.256h5.002l-3.233-3.305a1.251 1.251 0 0 0-1.671-.087zm10.042-2.247a1.251 1.251 0 0 0-1.653.102l-3.444 3.434 2.058 2.103h.677c1.25 0 2.272-.971 2.355-2.2l.006-.161zm-2.362-6.861H4.115a2.361 2.361 0 0 0-2.361 2.36v7.05l1.3-1.276a2.752 2.752 0 0 1 3.758-.123l.138.13 1.159 1.183 3.433-3.422.138-.129a2.75 2.75 0 0 1 2.575-.567l-.001-2.845a2.361 2.361 0 0 0-2.361-2.361zm-6.391 2.25a1.5 1.5 0 1 1 0 3.001 1.5 1.5 0 0 1 0-3.001z" />

</svg>
