<svg viewBox="0 0 16 16" xmlns="http://www.w3.org/2000/svg" xmlns:xlink="http://www.w3.org/1999/xlink">
  <path fill="currentColor" fill-opacity=".85" fill-rule="evenodd" d="M.5 4.015C.5 2.835 1.562 2 2.714 2H6.09c.452 0 .9.196 1.184.563l1.062 1.371s.004.004.013.008c.012.006.03.01.05.01h4.887c1.152 0 2.214.837 2.214 2.016v6.017c0 1.18-1.062 2.015-2.214 2.015H2.714C1.562 14 .5 13.164.5 11.985v-7.97zM2.795 3.5c-.51 0-.795.343-.795.624v7.752c0 .28.285.624.795.624h10.41c.51 0 .795-.344.795-.624V6.023c0-.28-.285-.624-.795-.624H8.393c-.444 0-.887-.19-1.167-.548L6.182 3.518s-.004-.004-.013-.008a.12.12 0 0 0-.05-.01H2.795z" />
</svg>
