<svg viewBox="0 0 16 17" xmlns="http://www.w3.org/2000/svg" xmlns:xlink="http://www.w3.org/1999/xlink">

  <path fill="currentColor" fill-rule="evenodd"
    d="M11.5 10V6c0-.962-.001-1.584-.044-2.055-.04-.45-.11-.613-.157-.695a1.5 1.5 0 0 0-.549-.549c-.082-.047-.245-.116-.695-.157C9.584 2.501 8.962 2.5 8 2.5c-.962 0-1.584.001-2.055.044-.45.04-.613.11-.695.157a1.5 1.5 0 0 0-.549.549c-.047.082-.116.245-.157.695C4.501 4.416 4.5 5.038 4.5 6v4c0 .962.001 1.584.044 2.055.04.45.11.613.157.695a1.5 1.5 0 0 0 .549.549c.082.047.245.116.695.157.471.043 1.093.044 2.055.044.962 0 1.584-.001 2.055-.044.45-.04.613-.11.695-.157a1.5 1.5 0 0 0 .549-.549c.047-.082.116-.245.157-.695.043-.471.044-1.093.044-2.055zM3.402 2.5C3 3.196 3 4.13 3 6v4c0 1.87 0 2.804.402 3.5A3 3 0 0 0 4.5 14.598C5.196 15 6.13 15 8 15s2.804 0 3.5-.402a3 3 0 0 0 1.098-1.098C13 12.804 13 11.87 13 10V6c0-1.87 0-2.804-.402-3.5A3 3 0 0 0 11.5 1.402C10.804 1 9.87 1 8 1s-2.804 0-3.5.402A3 3 0 0 0 3.402 2.5zM14.5 3A1.5 1.5 0 0 1 16 4.5v7a1.5 1.5 0 0 1-1.5 1.5V3zm-13 0A1.5 1.5 0 0 0 0 4.5v7A1.5 1.5 0 0 0 1.5 13V3z" />

</svg>