<svg viewBox="0 0 22 22" xmlns="http://www.w3.org/2000/svg" xmlns:xlink="http://www.w3.org/1999/xlink">

  <path fill="currentColor"
    d="M4.086 2.445a11 11 0 0 1 14.683.768l.008.008A11 11 0 0 1 4.086 19.555a.825.825 0 0 1 1.037-1.283A9.35 9.35 0 0 0 17.618 4.395l-.008-.007a9.35 9.35 0 0 0-12.487-.66.825.825 0 0 1-1.037-1.283zM5.5 5.5a5.5 5.5 0 1 1 0 11 5.5 5.5 0 0 1 0-11zm9.934.243A7.442 7.442 0 0 1 17.6 11a7.442 7.442 0 0 1-2.166 5.257.825.825 0 1 1-1.168-1.164A5.793 5.793 0 0 0 15.95 11a5.793 5.793 0 0 0-1.684-4.093.825.825 0 1 1 1.168-1.164zM5.5 7.15a3.85 3.85 0 1 0 0 7.7 3.85 3.85 0 0 0 0-7.7zm7.893.907c.572.838.907 1.853.907 2.943a5.204 5.204 0 0 1-.91 2.947.825.825 0 1 1-1.362-.931A3.555 3.555 0 0 0 12.65 11c0-.748-.229-1.44-.62-2.013a.825.825 0 1 1 1.363-.93z" />

</svg>