<svg width="16" height="16" viewBox="0 0 16 16" xmlns="http://www.w3.org/2000/svg">
    <path fill="currentColor" fill-rule="evenodd" d="M1.5 8a6.5 6.5 0 0 1 7.625-6.403.75.75 0 1 0 .257-1.478 8 8 0 1 0 0 15.762.75.75 0 0 0-.257-1.478A6.5 6.5 0 0 1 1.5 8zm5 2a2 2 0 1 0 0-4 2 2 0 0 0 0 4zm0 1.5a3.5 3.5 0 1 0 0-7 3.5 3.5 0 0 0 0 7zm5.687-9.467a.75.75 0 0 1 1.058-.074A7.983 7.983 0 0 1 16 8a7.983 7.983 0 0 1-2.755 6.041.75.75 0 1 1-.984-1.132A6.483 6.483 0 0 0 14.5 8c0-1.96-.866-3.716-2.24-4.909a.75.75 0 0 1-.073-1.058zm.052 3.315c.482.77.761 1.68.761 2.652a4.98 4.98 0 0 1-.756 2.644.75.75 0 1 1-1.272-.794A3.48 3.48 0 0 0 11.5 8a3.48 3.48 0 0 0-.532-1.855.75.75 0 1 1 1.271-.797z" />
</svg>
