<svg width="16" height="16" viewBox="0 0 16 16" xmlns="http://www.w3.org/2000/svg" xmlns:xlink="http://www.w3.org/1999/xlink">
    <path fill="currentColor" d="M6.061 1h.192a.75.75 0 1 1 0 1.5H6.1c-.881 0-1.486 0-1.951.048-.453.045-.69.128-.86.24-.2.13-.37.301-.502.501-.111.17-.194.407-.24.86-.046.464-.047 1.07-.047 1.951v.15a.75.75 0 1 1-1.5 0v-.189c0-.833 0-1.514.055-2.062.057-.57.18-1.078.479-1.533a3.25 3.25 0 0 1 .932-.932c.455-.3.963-.422 1.533-.479C4.548 1 5.229 1 6.06 1zm5.79 1.548c-.464-.047-1.07-.048-1.95-.048H9.75a.75.75 0 0 1 0-1.5h.19c.832 0 1.513 0 2.061.055.57.057 1.078.18 1.533.479.372.243.689.56.933.932.298.455.42.963.478 1.533C15 4.547 15 5.229 15 6.06v.189a.75.75 0 0 1-1.5 0V6.1c0-.881 0-1.487-.047-1.951-.046-.453-.129-.69-.24-.86a1.75 1.75 0 0 0-.502-.502c-.17-.111-.407-.194-.86-.24zM1.752 9a.75.75 0 0 1 .75.75v.15c0 .881 0 1.486.047 1.951.045.453.128.69.24.86.13.2.302.37.501.502.17.111.407.194.86.24.465.046 1.07.047 1.951.047h.153a.75.75 0 0 1 0 1.5H6.06c-.833 0-1.513 0-2.062-.055-.57-.057-1.078-.18-1.533-.479a3.25 3.25 0 0 1-.932-.932c-.3-.455-.422-.963-.479-1.533C1 11.453 1 10.771 1 9.94V9.75A.75.75 0 0 1 1.75 9zm12.5 0a.75.75 0 0 1 .75.75v.189c0 .833 0 1.514-.056 2.062-.057.57-.18 1.078-.478 1.533a3.251 3.251 0 0 1-.933.932c-.455.3-.963.422-1.533.479-.548.055-1.23.055-2.062.055h-.19a.75.75 0 0 1 0-1.5H9.9c.881 0 1.487 0 1.952-.048.452-.045.689-.128.859-.24.2-.13.37-.301.502-.501.111-.17.194-.407.24-.86.046-.465.047-1.07.047-1.951v-.15a.75.75 0 0 1 .75-.75z" />
</svg>
