<svg viewBox="0 0 16 16" version="1.1" xmlns="http://www.w3.org/2000/svg" xmlns:xlink="http://www.w3.org/1999/xlink">
	<g id="Icon/Visuals/Text/Bold" stroke="none" stroke-width="1" fill="none" fill-rule="evenodd">
		<g id="Shape" transform="translate(2.000000, 0.000000)">
			<path d="M8.95431732,7.64642486 C9.82065318,6.99631752 10.5750075,5.94998081 10.5750075,4.27736624 L10.5750075,4.2345414 C10.5750075,3.17137048 10.2181906,2.2479917 9.5143958,1.48999758 C9.51104034,1.48635776 9.50757113,1.4827748 9.50410192,1.47924872 C8.55160451,0.511509533 7.12632761,0 5.38228143,0 L0.511850767,0 C0.229138527,0 0,0.229138527 0,0.511850767 L0,15.4881492 C0,15.7708615 0.229138527,16 0.511850767,16 L5.64918317,16 C7.32037593,16 8.73717885,15.5897232 9.74643482,14.813473 C10.8122787,13.9937156 11.3756558,12.8140133 11.3756558,11.4018171 L11.3756558,11.3589922 C11.3756558,9.68114541 10.5433865,8.41368916 8.95431732,7.64642486 Z M5.69024498,13.4573529 L2.6250551,13.4573529 L2.6250551,9.19653648 L5.40281234,9.19653648 C6.52518732,9.19653648 7.41267968,9.39849004 7.9694027,9.78061507 C8.46743349,10.1224745 8.70959578,10.6037849 8.70959578,11.2520154 L8.70959578,11.2947834 C8.70959578,13.246641 6.59804075,13.4573529 5.69024498,13.4573529 Z M5.11418538,6.67521647 L2.6250551,6.67521647 L2.6250551,2.54270399 L5.23862198,2.54270399 C6.93563477,2.54270399 7.90889056,3.24513386 7.90889056,4.469879 L7.90889056,4.51264698 C7.90883369,6.39426727 6.15790596,6.67521647 5.11418538,6.67521647 Z" fill="currentColor">
			</path>
		</g>
	</g>
</svg>
