<svg viewBox="0 0 16 16" version="1.1" xmlns="http://www.w3.org/2000/svg" xmlns:xlink="http://www.w3.org/1999/xlink">
  <path fill-rule="evenodd" stroke="none" stroke-width="1" d="M5.68618,1.65439004 C5.68618,1.56677004 5.7572,1.49575004 5.84482,1.49575004 L10.3774,1.49575004 C10.465,1.49575004 10.536,1.56677004 10.536,1.65439004 L10.536,2.71954004 L5.68618,2.71954004 L5.68618,1.65439004 Z M5.84482,3.73856892e-08 C4.93112,3.73856892e-08 4.19043,0.740695037 4.19043,1.65439004 L4.19043,2.71954004 L2.67207,2.71954004 L1.66474,2.71954004 C1.2517,2.71954004 0.91687,3.05438004 0.91687,3.46742004 C0.91687,3.88046004 1.2517,4.21529004 1.66474,4.21529004 L1.97952,4.21529004 L2.70415,13.6355 C2.80678,14.9697 3.91934,16 5.25751,16 L10.9648,16 C12.303,16 13.4155,14.9697 13.5182,13.6355 L14.2428,4.21529004 L14.5574,4.21529004 C14.9704,4.21529004 15.3053,3.88046004 15.3053,3.46742004 C15.3053,3.05438004 14.9704,2.71954004 14.5574,2.71954004 L13.5502,2.71954004 L12.0318,2.71954004 L12.0318,1.65439004 C12.0318,0.740695037 11.2911,3.73856892e-08 10.3774,3.73856892e-08 L5.84482,3.73856892e-08 Z M4.9383,4.21529004 L3.47968,4.21529004 L4.19549,13.5208 C4.23818,14.0757 4.70093,14.5042 5.25751,14.5042 L10.9648,14.5042 C11.5214,14.5042 11.9841,14.0757 12.0268,13.5208 L12.7426,4.21529004 L11.2839,4.21529004 L4.9383,4.21529004 Z M9.69752,6.34564004 C10.1106,6.34564004 10.4454,6.68048004 10.4454,7.09352004 L10.4454,11.6261 C10.4454,12.0391 10.1106,12.374 9.69752,12.374 C9.28448,12.374 8.94965,12.0391 8.94965,11.6261 L8.94965,7.09352004 C8.94965,6.68048004 9.28448,6.34564004 9.69752,6.34564004 Z M7.2726,7.09352004 C7.2726,6.68048004 6.93777,6.34564004 6.52473,6.34564004 C6.11169,6.34564004 5.77686,6.68048004 5.77686,7.09352004 L5.77686,11.6261 C5.77686,12.0391 6.11169,12.374 6.52473,12.374 C6.93777,12.374 7.2726,12.0391 7.2726,11.6261 L7.2726,7.09352004 Z" fill="currentColor"></path>
</svg>
