<svg viewBox="0 0 16 16" version="1.1" xmlns="http://www.w3.org/2000/svg" xmlns:xlink="http://www.w3.org/1999/xlink">
  <g transform="translate(1.250000, 4.250000)" fill="currentColor">
    <path
      d="M12.2196699,0.219669914 C12.5125631,-0.0732233047 12.9874369,-0.0732233047 13.2803301,0.219669914 C13.5732233,0.512563133 13.5732233,0.987436867 13.2803301,1.28033009 L8.02966342,6.53099675 C7.7367702,6.82388997 7.26189647,6.82388997 6.96900325,6.53099675 L4.499,4.06 L1.28033009,7.28033009 C1.01406352,7.54659665 0.597399841,7.5708027 0.303788347,7.35294824 L0.219669914,7.28033009 C-0.0732233047,6.98743687 -0.0732233047,6.51256313 0.219669914,6.21966991 L3.96900325,2.47033658 C4.26189647,2.17744336 4.7367702,2.17744336 5.02966342,2.47033658 L7.499,4.94 L12.2196699,0.219669914 Z">
    </path>
    <path
      d="M12.75,0 C13.1642136,0 13.5,0.335786438 13.5,0.75 L13.5,4.49933333 C13.5,4.9135469 13.1642136,5.24933333 12.75,5.24933333 C12.3357864,5.24933333 12,4.9135469 12,4.49933333 L11.9996667,1.5 L9.00066667,1.5 C8.6209709,1.5 8.30717571,1.21784612 8.25751328,0.851770557 L8.25066667,0.75 C8.25066667,0.335786438 8.5864531,0 9.00066667,0 L12.75,0 Z">
    </path>
  </g>
</svg>
