<svg xmlns="http://www.w3.org/2000/svg" viewBox="0 0 100 100">
	<g fill="none" fill-rule="evenodd">
		<g fill-rule="nonzero">
			<g>
				<g>
					<path fill="#FFF" d="M68.794 34.448c-.002 18.98-15.39 34.367-34.367 34.367C15.448 68.815.059 53.426.06 34.448.062 15.468 15.448.082 34.425.083c18.98 0 34.367 15.386 34.369 34.365z" transform="translate(-670 -363) translate(670 363) translate(.781 .781)" />
					<path fill="#F4F4F4" d="M65.667 34.448C65.67 51.7 51.679 65.689 34.427 65.69 17.175 65.688 3.187 51.7 3.185 34.448c.001-17.252 13.99-31.244 31.242-31.24 17.252 0 31.243 13.988 31.24 31.24z" transform="translate(-670 -363) translate(670 363) translate(.781 .781)" />
					<g>
						<g transform="translate(-670 -363) translate(670 363) translate(.781 .781) translate(16.406 22.656) translate(1.563 1.563)">
							<rect width="31.25" height="21.875" fill="#EFEFEF" rx="2.5" />
							<path fill="#FFF" d="M7.813 2.93c1.297 0 2.343 1.046 2.343 2.343S9.11 7.617 7.812 7.617c-1.297 0-2.343-1.047-2.343-2.344S6.515 2.93 7.812 2.93z" />
							<path fill="#D2D2D2" d="M7.813 8.984c-1.724 0-3.125-1.4-3.125-3.125 0-1.724 1.401-3.125 3.125-3.125 1.723 0 3.125 1.401 3.125 3.125 0 1.725-1.402 3.125-3.126 3.125zm0-4.687c-.862 0-1.563.702-1.563 1.562 0 .86.701 1.563 1.563 1.563.86 0 1.562-.702 1.562-1.563 0-.86-.701-1.562-1.563-1.562z" />
							<path fill="#FFF" d="M22.866 6.25l6.96 13.344c.16.306.041.683-.265.843-.09.047-.188.07-.289.07h-15.21L22.867 6.25z" />
							<path fill="#FFF" d="M11.651 10.352l6.79 9.159c.206.277.148.668-.129.874-.108.08-.238.123-.372.123H4.687l6.964-10.156z" />
							<path fill="#D2D2D2" d="M13.724 20.311c-.15 0-.303-.045-.44-.14-.391-.269-.51-.836-.267-1.268l8.346-13.197c.152-.269.42-.433.707-.433.288 0 .555.164.708.433l8.345 13.193c.244.432.126 1.001-.265 1.272-.39.272-.906.14-1.15-.292L22.07 7.936l-7.637 11.94c-.158.28-.43.435-.709.435z" />
							<path fill="#D2D2D2" d="M5.21 20.898c-.18 0-.364-.06-.524-.189-.413-.332-.513-.979-.223-1.45l6.42-8.854c.172-.28.449-.359.75-.444.299 0 .578.167.749.448l3.666 4.94c.29.471.187 1.118-.228 1.448-.414.33-.984.213-1.272-.26l-2.919-3.715-5.669 7.633c-.178.289-.462.443-.75.443z" />
						</g>
						<path fill="#D2D2D2" d="M30.625 0c2.071 0 3.75 1.679 3.75 3.75v15.938c0 2.07-1.679 3.75-3.75 3.75H3.75c-2.071 0-3.75-1.68-3.75-3.75V3.75C0 1.679 1.679 0 3.75 0h26.875zm-.313 1.563H4.063c-1.38 0-2.5 1.119-2.5 2.5v15.312c0 1.38 1.12 2.5 2.5 2.5h26.25c1.381 0 2.5-1.12 2.5-2.5V4.062c0-1.38-1.119-2.5-2.5-2.5z" transform="translate(-670 -363) translate(670 363) translate(.781 .781) translate(16.406 22.656)" />
					</g>
					<path fill="#FFF" d="M7.871 34.446C7.873 17.988 20.618 4.527 36.77 3.326c-.777-.057-1.552-.119-2.344-.119-17.251-.003-31.24 13.99-31.241 31.24.002 17.254 13.99 31.24 31.242 31.244.791 0 1.566-.061 2.344-.12-16.155-1.201-28.898-14.662-28.9-31.125z" transform="translate(-670 -363) translate(670 363) translate(.781 .781)" />
					<path fill="#F2F2F2" d="M61.493 55.983L55.972 61.503 64.742 70.275 70.261 64.753z" transform="translate(-670 -363) translate(670 363) translate(.781 .781)" />
					<path fill="#E4E4E4" d="M56.913 62.445c2.035-1.636 3.884-3.488 5.52-5.523l-.94-.94-5.521 5.522.941.94z" transform="translate(-670 -363) translate(670 363) translate(.781 .781)" />
					<path fill="#F2F2F2" d="M96.542 88.821L71.37 63.648l-7.733 7.731 25.195 25.195c.067.076.116.16.19.233 2.149 2.15 5.632 2.15 7.78.002 2.147-2.148 2.147-5.63 0-7.777-.081-.08-.178-.137-.26-.21z" transform="translate(-670 -363) translate(670 363) translate(.781 .781)" />
					<path fill="#FFF" d="M90.126 95.703c-.073-.073-.122-.157-.19-.233L64.743 70.275l-1.105 1.104 25.195 25.195c.067.076.116.16.19.233 2.149 2.15 5.632 2.15 7.78.002.189-.19.341-.4.495-.609-2.152 1.614-5.21 1.463-7.171-.497z" transform="translate(-670 -363) translate(670 363) translate(.781 .781)" />
					<path fill="#E4E4E4" d="M95.688 90.144c-.073-.073-.159-.124-.235-.19L70.258 64.756l1.105-1.104 25.194 25.196c.077.067.162.116.235.19 2.148 2.149 2.148 5.631 0 7.78-.19.188-.4.34-.608.495 1.615-2.154 1.462-5.211-.496-7.17z" transform="translate(-670 -363) translate(670 363) translate(.781 .781)" />
					<path fill="#FFF" d="M56.913 62.445l6.725 6.726 1.1-1.1-6.635-6.636c-.39.343-.784.685-1.19 1.01z" transform="translate(-670 -363) translate(670 363) translate(.781 .781)" />
					<path fill="#E4E4E4" d="M62.434 56.925l6.726 6.723-1.102 1.1-6.634-6.634c.343-.39.685-.785 1.01-1.189z" transform="translate(-670 -363) translate(670 363) translate(.781 .781)" />
					<path fill="#E4E4E4" d="M63.045 66.179L70.855 66.179 70.855 67.741 63.045 67.741z" transform="translate(-670 -363) translate(670 363) translate(.781 .781) rotate(-45 66.95 66.96)" />
				</g>
				<g fill="#D2D2D2">
					<path d="M35.157 70.315c-9.387 0-18.214-3.657-24.853-10.296-13.703-13.703-13.703-36.002 0-49.706C16.944 3.674 25.77.018 35.157.018c9.388 0 18.214 3.657 24.853 10.295 6.64 6.64 10.297 15.466 10.297 24.853.002 9.388-3.655 18.214-10.294 24.853-6.64 6.639-15.466 10.296-24.856 10.296zm0-68.735c-8.971 0-17.405 3.495-23.748 9.838-13.095 13.095-13.095 34.402 0 47.497 6.343 6.343 14.777 9.838 23.748 9.838 8.972 0 17.407-3.495 23.752-9.838 6.343-6.344 9.837-14.777 9.836-23.749 0-8.97-3.495-17.405-9.84-23.748C52.564 5.075 44.13 1.58 35.158 1.58z" transform="translate(-670 -363) translate(670 363)" />
					<path d="M35.151 67.188c-8.553 0-16.595-3.33-22.644-9.378-12.486-12.484-12.486-32.8 0-45.285 6.049-6.048 14.091-9.38 22.646-9.38 8.553 0 16.594 3.33 22.642 9.377 12.483 12.486 12.483 32.801.003 45.289-6.05 6.046-14.092 9.377-22.647 9.377zm.002-62.48c-8.137 0-15.787 3.168-21.541 8.922-11.876 11.876-11.876 31.2 0 43.076 5.752 5.751 13.402 8.92 21.54 8.92 8.136 0 15.788-3.169 21.542-8.92 11.871-11.877 11.87-31.203-.003-43.079-5.753-5.751-13.403-8.92-21.538-8.92zM65.474 71.784c-.2 0-.4-.077-.552-.23l-7.118-7.117c-.305-.305-.305-.8 0-1.104.306-.305.8-.305 1.105 0l7.118 7.117c.305.305.305.8 0 1.105-.153.153-.353.229-.553.229zM70.997 66.264c-.2 0-.4-.076-.552-.228l-7.118-7.121c-.305-.305-.305-.8 0-1.105.305-.305.8-.305 1.104 0l7.118 7.121c.305.305.305.8 0 1.105-.153.152-.353.228-.552.228z" transform="translate(-670 -363) translate(670 363)" />
					<path d="M64.37 72.891c-.2 0-.4-.076-.552-.229-.305-.305-.305-.8 0-1.104l7.73-7.731c.306-.305.8-.305 1.105 0 .305.305.305.8 0 1.104l-7.73 7.731c-.153.153-.353.23-.553.23z" transform="translate(-670 -363) translate(670 363)" />
					<path d="M97.485 90.546c-.2 0-.4-.077-.552-.23L71.549 64.932c-.305-.305-.305-.8 0-1.104.305-.305.8-.305 1.104 0l25.384 25.385c.305.305.305.8 0 1.105-.152.152-.352.229-.552.229zM89.858 98.377c-.2 0-.4-.076-.553-.229L63.818 72.662c-.305-.305-.305-.8 0-1.104.305-.305.8-.305 1.104 0L90.41 97.044c.305.305.305.8 0 1.104-.153.153-.353.23-.552.23z" transform="translate(-670 -363) translate(670 363)" />
					<path d="M93.726 99.982c-1.67 0-3.24-.652-4.42-1.834-.306-.305-.306-.8 0-1.104.305-.305.799-.305 1.104 0 .886.888 2.064 1.376 3.316 1.376h.003c1.251-.002 2.424-.488 3.306-1.373.888-.886 1.376-2.062 1.376-3.313 0-1.253-.488-2.43-1.375-3.317-.305-.305-.305-.799 0-1.104.305-.305.8-.305 1.105 0 1.182 1.182 1.832 2.752 1.832 4.42 0 1.67-.65 3.238-1.832 4.419-1.176 1.179-2.743 1.829-4.412 1.83h-.003z" transform="translate(-670 -363) translate(670 363)" />
				</g>
			</g>
		</g>
	</g>
</svg>
