<svg  viewBox="0 0 16 16" version="1.1" xmlns="http://www.w3.org/2000/svg" xmlns:xlink="http://www.w3.org/1999/xlink">
  <path d="M13.2685,2.36023988 L10.2315,0.600191875 C8.85064,-0.200064125 7.14936,-0.200064125 5.7685,0.600192875 L2.7315,2.36023988 C1.35064,3.16049988 0.5,4.63943988 0.5,6.23994988 L0.5,9.76004988 C0.5,11.3605999 1.35064,12.8394999 2.7315,13.6397999 L5.7685,15.3997999 C7.14936,16.2000999 8.85064,16.2000999 10.2315,15.3997999 L13.2685,13.6397999 C14.6494,12.8394999 15.5,11.3605999 15.5,9.76004988 L15.5,6.23994988 C15.5,4.63943988 14.6494,3.16049988 13.2685,2.36023988 Z M6.51233,1.89342988 C7.4329,1.35991988 8.5671,1.35991988 9.48767,1.89342988 L12.5247,3.65347988 C13.4452,4.18697988 14.0123,5.17293988 14.0123,6.23994988 L14,9.76004988 C13.9877,10.8270999 13.4452,11.8129999 12.5247,12.3464999 L9.48767,14.1065999 C8.5671,14.6400999 7.4329,14.6400999 6.51233,14.1065999 L3.47533,12.3464999 C2.55476,11.8129999 2,10.8270999 2,9.76004988 L2,6.23994988 C2,5.17293988 2.55476,4.18697988 3.47533,3.65347988 L6.51233,1.89342988 Z M7,4.99999988 C7,4.44771988 7.44772,3.99999988 8,3.99999988 C8.55229,3.99999988 9,4.44771988 9,4.99999988 L8.56202,8.50385988 C8.52659,8.78729988 8.28564,8.99999988 8,8.99999988 C7.71436,8.99999988 7.47341,8.78729988 7.43798,8.50385988 L7,4.99999988 Z M9,10.9999999 C9,11.5522999 8.55229,11.9999999 8,11.9999999 C7.44772,11.9999999 7,11.5522999 7,10.9999999 C7,10.4476999 7.44772,9.99999988 8,9.99999988 C8.55229,9.99999988 9,10.4476999 9,10.9999999 Z" fill="currentColor" fill-opacity="0.85" />
</svg>
