<?xml version="1.0" encoding="UTF-8"?>
<svg width="16px" height="16px" viewBox="0 0 16 16" version="1.1" xmlns="http://www.w3.org/2000/svg"
  xmlns:xlink="http://www.w3.org/1999/xlink">
  <path fill="currentColor"
    d="M13.603568,2.32500782 C12.1071573,0.825002601 10.1142559,0 7.99641074,0 C3.62498854,0 0.0678573286,3.55715066 0.0678573286,7.9285993 C0.0678573286,9.32503293 0.432141968,10.6893196 1.12499314,11.8928935 L0,16 L4.2035644,14.8964992 C5.36070525,15.5286713 6.66426814,15.8607982 7.99283283,15.8607982 L7.99641074,15.8607982 C12.3642442,15.8607982 16,12.3036476 16,7.93216635 C16,5.81430836 15.0999786,3.82501631 13.603568,2.32500782 Z M7.99641074,14.5250043 C6.81070106,14.5250043 5.64998231,14.2072327 4.63927437,13.6071423 L4.39999005,13.4643516 L1.90713615,14.1179477 L2.57142192,11.685722 L2.41427706,11.4357024 C1.75356174,10.3857509 1.40713615,9.17503208 1.40713615,7.9285993 C1.40713615,4.29644289 4.36427629,1.33928486 7.99997776,1.33928486 C9.7606854,1.33928486 11.4143062,2.02500613 12.65711,3.2714389 C13.8999138,4.51787168 14.6642143,6.17144806 14.6606381,7.93216635 C14.6606381,11.5679442 11.6285452,14.5250043 7.99641074,14.5250043 Z M11.6107101,9.58932065 C11.4143062,9.48931284 10.4392576,9.01074129 10.2571109,8.94645832 C10.0749751,8.87859743 9.94283207,8.84646138 9.81068901,9.04645526 C9.67854594,9.24646002 9.29997363,9.68931759 9.18212041,9.8250285 C9.06783423,9.95717237 8.94998101,9.97502935 8.75354449,9.87503241 C7.58926959,9.292886 6.82498003,8.83574936 6.05712345,7.51787777 C5.85355288,7.16788304 6.26069402,7.192885 6.63926634,6.43573579 C6.70354892,6.30359192 6.67141307,6.18930504 6.62140946,6.0893081 C6.57140586,5.98931116 6.17498754,5.01430021 6.01069775,4.61786862 C5.84998585,4.23215992 5.68569606,4.28573087 5.56427582,4.2785859 C5.44998964,4.27144093 5.31784657,4.27144093 5.18570351,4.27144093 C5.05356044,4.27144093 4.83927792,4.32144484 4.65713125,4.51787168 C4.47498458,4.71787643 3.96428007,5.19644798 3.96428007,6.17144806 C3.96428007,7.14644814 4.67498813,8.08931217 4.77141744,8.22145603 C4.87141377,8.35359989 6.16784261,10.353604 8.15712263,11.2142845 C9.41425981,11.7571717 9.90711832,11.8036085 10.5356869,11.7107348 C10.9178589,11.6536403 11.7070632,11.2322285 11.8713857,10.7678925 C12.0357081,10.3036109 12.0357081,9.90717934 11.9856827,9.8250285 C11.9392461,9.73574358 11.8071139,9.68575055 11.6107101,9.58932065 Z">
  </path>
</svg>