<?xml version="1.0" encoding="UTF-8"?>
<svg width="21px" height="14px" viewBox="0 0 21 14" version="1.1" xmlns="http://www.w3.org/2000/svg" xmlns:xlink="http://www.w3.org/1999/xlink">
    <!-- Generator: Sketch 52.1 (67048) - http://www.bohemiancoding.com/sketch -->
    <title>left-arrow (2)</title>
    <desc>Created with Sketch.</desc>
    <g id="Page-1" stroke="none" stroke-width="1" fill="none" fill-rule="evenodd">
        <g id="left-arrow-(2)" transform="translate(0.000000, -0.000960)" fill="#7B8C9F">
            <path d="M20.0909191,6.02416136 L3.10355896,6.02416136 L7.15699093,1.66838016 C7.51209738,1.28703635 7.51209738,0.668424481 7.15699093,0.287137083 C6.80188448,-0.0944323739 6.22617524,-0.0944323739 5.87159378,0.287137083 L0.266329837,6.31022563 C-0.0887766122,6.69156944 -0.0887766122,7.31023772 0.266329837,7.6914687 L5.87159378,13.7148393 C6.04909451,13.9056804 6.28171968,14.00096 6.51429236,14.00096 C6.74686503,14.00096 6.97949021,13.9056804 7.15699093,13.7148393 C7.51209738,13.3334955 7.51209738,12.7148836 7.15699093,12.3336526 L3.10355896,7.9776458 L20.0909191,7.9776458 C20.5929191,7.9776458 21,7.54028506 21,7.00087537 C21,6.46146568 20.5929716,6.02416136 20.0909191,6.02416136 Z" id="Path"></path>
        </g>
    </g>
</svg>