<?xml version="1.0" encoding="UTF-8"?>
<svg width="64px" height="64px" viewBox="0 0 64 64" version="1.1" xmlns="http://www.w3.org/2000/svg" xmlns:xlink="http://www.w3.org/1999/xlink">
    <!-- Generator: Sketch 52.2 (67145) - http://www.bohemiancoding.com/sketch -->
    <title>Icon/Large/Skill-template/Blank</title>
    <desc>Created with Sketch.</desc>
    <g id="Icon/Large/Skill-template/Blank" stroke="none" stroke-width="1" fill="none" fill-rule="evenodd">
        <rect id="Rectangle-5" x="0" y="0" width="64" height="64"></rect>
        <g id="Group" transform="translate(32.000000, 37.000000) rotate(-90.000000) translate(-32.000000, -37.000000) translate(5.000000, 4.500000)" fill-rule="nonzero">
            <polygon id="Rectangle-path" fill="#5C9EFF" points="1.0989275 1.05652174 51.8989267 1.05652174 51.8989267 63.9073043 1.0989275 63.9073043"></polygon>
            <polygon id="Shape" fill="#D7E9FF" points="44.2562446 60.5709579 4.515365 60.5709579 4.515365 4.88539402 49.4853662 4.88539402 49.4853662 55.6862207"></polygon>
            <polygon id="Shape" fill="#94C1FF" points="40.18796 1.05652174 18.17 1.05652174 21.230615 5.50410435 37.175225 5.50410435"></polygon>
            <polygon id="Shape" fill="#D7E9FF" points="18.17 1.05652174 21.230615 5.50410435 22.369475 5.50410435 19.30886 1.05652174"></polygon>
            <polygon id="Shape" fill="#5C9EFF" points="40.0393325 1.05652174 36.9787175 5.50410435 35.84 5.50410435 38.900615 1.05652174"></polygon>
            <polygon id="Shape" fill="#FFFFFF" points="43.7904775 60.5716522 42.65176 60.5716522 42.65176 53.9002087 49.484635 53.9002087 49.484635 55.0121391"></polygon>
            <polygon id="Rectangle-path" fill="#94C1FF" points="1.0989275 0.5 2.237645 0.5 2.237645 63.9073043 1.0989275 63.9073043"></polygon>
            <polygon id="Rectangle-path" fill="#FFFFFF" points="4.5682325 3.86542609 5.7164975 3.86542609 5.7164975 60.6648696 4.5682325 60.6648696"></polygon>
            <polygon id="Shape" fill="#94C1FF" points="49.484635 53.9002087 48.0612025 53.9002087 48.0612025 3.86542609 49.2088975 3.86542609"></polygon>
            <polygon id="Rectangle-path" fill="#2287FF" points="51.762355 1.05652174 52.901215 1.05652174 52.901215 63.9073043 51.762355 63.9073043"></polygon>
            <polygon id="Shape" fill="#5C9EFF" points="42.22119 61.1276174 49.054065 61.1276174 49.054065 54.456313"></polygon>
            <polygon id="Shape" fill="#94C1FF" points="37.175225 5.50521739 21.230615 5.50521739 18.935225 2.16956522 18.17 2.16956522 21.230615 6.61714783 37.175225 6.61714783 40.18796 2.16956522 39.4339925 2.16956522"></polygon>
            <path d="M36.9618497,6.06107274 L21.0172397,6.06107274 C20.8271447,6.06107274 20.6491622,5.96827274 20.5434272,5.8135597 L18.2658497,2.47776839 C18.0911447,2.22204665 18.1619672,1.87742057 18.4237397,1.70684665 C18.6856547,1.53585535 19.0386272,1.60542057 19.2133322,1.86100318 L21.3219047,4.94914231 L36.6570422,4.94914231 L38.7646172,1.86100318 C38.9380397,1.60528144 39.2905847,1.53585535 39.5542097,1.70684665 C39.8155547,1.87686405 39.8866622,2.22204665 39.7119572,2.47776839 L37.4355197,5.8135597 C37.3299272,5.96827274 37.1520872,6.06107274 36.9618497,6.06107274 Z" id="Shape" fill="#116FFF"></path>
            <path d="M18.7247525,4.95106087 L4.48943,4.95106087 C4.17479,4.95106087 3.92,4.70229565 3.92,4.39509565 C3.92,4.08775652 4.17479,3.83913043 4.48943,3.83913043 L18.7247525,3.83913043 C19.0393925,3.83913043 19.2941825,4.08775652 19.2941825,4.39509565 C19.29404,4.70229565 19.0393925,4.95106087 18.7247525,4.95106087 Z" id="Shape" fill="#116FFF"></path>
            <path d="M49.6388732,4.95106087 L39.1111267,4.95106087 C38.8783267,4.95106087 38.69,4.70229565 38.69,4.39509565 C38.69,4.08775652 38.8783267,3.83913043 39.1111267,3.83913043 L49.6388732,3.83913043 C49.8716732,3.83913043 50.0599999,4.08775652 50.0599999,4.39509565 C50.0599999,4.70229565 49.8716732,4.95106087 49.6388732,4.95106087 Z" id="Shape" fill="#116FFF"></path>
            <path d="M33.550025,3.83801739 L24.43943,3.83801739 C24.12479,3.83801739 23.87,3.5893913 23.87,3.28205217 C23.87,2.97485217 24.12479,2.72608696 24.43943,2.72608696 L33.550025,2.72608696 C33.8648075,2.72608696 34.119455,2.97485217 34.119455,3.28205217 C34.119455,3.5893913 33.8648075,3.83801739 33.550025,3.83801739 Z" id="Shape" fill="#116FFF"></path>
            <path d="M47.2070575,54.456313 L42.65176,54.456313 C42.3369775,54.456313 42.08233,54.2075478 42.08233,53.9003478 C42.08233,53.5930087 42.3369775,53.3443826 42.65176,53.3443826 L47.2070575,53.3443826 C47.52184,53.3443826 47.7764875,53.5930087 47.7764875,53.9003478 C47.7764875,54.2074087 47.52184,54.456313 47.2070575,54.456313 Z" id="Shape" fill="#116FFF"></path>
            <path d="M42.65176,58.9037565 C42.3369775,58.9037565 42.08233,58.6551304 42.08233,58.3477913 L42.08233,53.9002087 C42.08233,53.5928696 42.3369775,53.3442435 42.65176,53.3442435 C42.9664,53.3442435 43.22119,53.5928696 43.22119,53.9002087 L43.22119,58.3477913 C43.22119,58.6551304 42.9664,58.9037565 42.65176,58.9037565 Z" id="Shape" fill="#116FFF"></path>
            <path d="M4.515365,61.1276174 C4.200725,61.1276174 3.945935,60.9067546 3.945935,60.6337351 L3.945935,4.33301268 C3.945935,4.05999319 4.200725,3.83913043 4.515365,3.83913043 C4.8301475,3.83913043 5.084795,4.05999319 5.084795,4.33301268 L5.084795,60.6336115 C5.084795,60.9067546 4.8301475,61.1276174 4.515365,61.1276174 Z" id="Shape" fill="#116FFF"></path>
            <path d="M49.484635,55.5681043 C49.1698525,55.5681043 48.915205,55.3498608 48.915205,55.080079 L48.915205,4.32715575 C48.915205,4.05737399 49.1698525,3.83913043 49.484635,3.83913043 C49.7994175,3.83913043 50.054065,4.05737399 50.054065,4.32715575 L50.054065,55.0799569 C50.054065,55.3498608 49.7994175,55.5681043 49.484635,55.5681043 Z" id="Shape" fill="#116FFF"></path>
            <path d="M43.7904775,61.1276174 C43.644985,61.1276174 43.499065,61.0732174 43.3880575,60.9646957 C43.1654725,60.747513 43.1654725,60.3957913 43.3880575,60.1786087 L49.0820725,54.6192348 C49.3046575,54.401913 49.6648975,54.401913 49.8871975,54.6192348 C50.1097825,54.8364174 50.1097825,55.1881391 49.8871975,55.4053217 L44.1931825,60.9646957 C44.08189,61.0732174 43.936255,61.1276174 43.7904775,61.1276174 Z" id="Shape" fill="#116FFF"></path>
            <path d="M43.8377117,61.1276174 L4.46402854,61.1276174 C4.17775463,61.1276174 3.945935,60.8789913 3.945935,60.5716522 C3.945935,60.264313 4.17775463,60.015687 4.46402854,60.015687 L43.8378413,60.015687 C44.1242449,60.015687 44.3559348,60.264313 44.3559348,60.5716522 C44.3559348,60.8789913 44.1241152,61.1276174 43.8377117,61.1276174 Z" id="Shape" fill="#116FFF"></path>
            <path d="M52.901215,64.4631304 C52.5864325,64.4631304 52.331785,64.2396528 52.331785,63.9635259 L52.331785,0.999729543 C52.331785,0.723602708 52.5864325,0.5 52.901215,0.5 C53.215855,0.5 53.4705025,0.723602708 53.4705025,0.999729543 L53.4705025,63.9635259 C53.4705025,64.2396528 53.215855,64.4631304 52.901215,64.4631304 Z" id="Shape" fill="#116FFF"></path>
            <path d="M52.9402101,64.4631304 L1.05891603,64.4631304 C0.766251985,64.4631304 0.5294975,64.2145043 0.5294975,63.9073043 C0.5294975,63.5999652 0.766251985,63.3513391 1.05891603,63.3513391 L52.9402101,63.3513391 C53.2327416,63.3513391 53.4694961,63.5999652 53.4694961,63.9073043 C53.4694961,64.2145043 53.2327416,64.4631304 52.9402101,64.4631304 Z" id="Shape" fill="#116FFF"></path>
            <path d="M1.0989275,64.4631304 C0.784145,64.4631304 0.5294975,64.2396528 0.5294975,63.9635259 L0.5294975,0.999729543 C0.5294975,0.723602708 0.784145,0.5 1.0989275,0.5 C1.4135675,0.5 1.6683575,0.723602708 1.6683575,0.999729543 L1.6683575,63.9635259 C1.6683575,64.2396528 1.41371,64.4631304 1.0989275,64.4631304 Z" id="Shape" fill="#116FFF"></path>
            <path d="M52.9107126,1.61193043 L1.02941853,1.61193043 C0.736754485,1.61193043 0.5,1.36330435 0.5,1.05596522 C0.5,0.748765217 0.736754485,0.5 1.02941853,0.5 L52.9107126,0.5 C53.2032441,0.5 53.4399986,0.748765217 53.4399986,1.05596522 C53.4399986,1.36330435 53.2032441,1.61193043 52.9107126,1.61193043 Z" id="Shape" fill="#116FFF"></path>
        </g>
    </g>
</svg>