<?xml version="1.0" encoding="UTF-8"?>
<svg width="64px" height="64px" viewBox="0 0 64 64" version="1.1" xmlns="http://www.w3.org/2000/svg" xmlns:xlink="http://www.w3.org/1999/xlink">
    <!-- Generator: Sketch 57.1 (83088) - https://sketch.com -->
    <title>Icon/Large/Skill-template/Blank_inactive</title>
    <desc>Created with Sketch.</desc>
    <g id="Icon/Large/Skill-template/Blank_inactive" stroke="none" stroke-width="1" fill="none" fill-rule="evenodd">
        <rect id="Rectangle-5" x="0" y="0" width="64" height="64"></rect>
        <g id="Group-2" transform="translate(32.000000, 37.000000) rotate(-90.000000) translate(-32.000000, -37.000000) translate(5.000000, 4.500000)" fill-rule="nonzero">
            <rect id="Rectangle-path" fill="#B8CCDC" x="1.0989275" y="1.05652174" width="51.7999992" height="62.8507826"></rect>
            <polygon id="Shape" fill="#EAF3F9" points="43.3725248 60.5709579 4.515365 60.5709579 4.515365 4.88539402 48.4853662 4.88539402 48.4853662 55.6862207"></polygon>
            <polygon id="Shape" fill="#CFDEE9" points="40.18796 1.05652174 18.17 1.05652174 21.230615 5.50410435 37.175225 5.50410435"></polygon>
            <polygon id="Shape" fill="#EAF3F9" points="18.17 1.05652174 21.230615 5.50410435 22.369475 5.50410435 19.30886 1.05652174"></polygon>
            <polygon id="Shape" fill="#B8CCDC" points="40.0393325 1.05652174 36.9787175 5.50410435 35.84 5.50410435 38.900615 1.05652174"></polygon>
            <polygon id="Shape" fill="#FFFFFF" points="43.7904775 60.5716522 42.65176 60.5716522 42.65176 53.9002087 49.484635 53.9002087 49.484635 55.0121392"></polygon>
            <rect id="Rectangle-path" fill="#CFDEE9" x="1.0989275" y="0.5" width="1.1387175" height="63.4073043"></rect>
            <rect id="Rectangle-path" fill="#FFFFFF" x="4.5682325" y="3.86542608" width="1.148265" height="56.7994435"></rect>
            <polygon id="Shape" fill="#CFDEE9" points="49.484635 53.9002087 48.0612025 53.9002087 48.0612025 3.86542608 49.2088975 3.86542608"></polygon>
            <polygon id="Rectangle-path" fill="#97B4D0" points="51.762355 1.05652174 52.901215 1.05652174 52.901215 63.9073043 51.762355 63.9073043"></polygon>
            <polygon id="Shape" fill="#B8CCDC" points="43.22119 61.1276174 50.054065 61.1276174 50.054065 54.4563131"></polygon>
            <polygon id="Shape" fill="#CFDEE9" points="37.175225 5.50521739 21.230615 5.50521739 18.935225 2.16956522 18.17 2.16956522 21.230615 6.61714783 37.175225 6.61714783 40.18796 2.16956522 39.4339925 2.16956522"></polygon>
            <path d="M36.9618497,6.06107274 L21.0172397,6.06107274 C20.8271447,6.06107274 20.6491622,5.96827274 20.5434272,5.81355969 L18.2658497,2.47776839 C18.0911447,2.22204665 18.1619672,1.87742057 18.4237397,1.70684665 C18.6856547,1.53585535 19.0386272,1.60542057 19.2133322,1.86100318 L21.3219047,4.9491423 L36.6570422,4.9491423 L38.7646172,1.86100318 C38.9380397,1.60528144 39.2905847,1.53585535 39.5542097,1.70684665 C39.8155547,1.87686404 39.8866622,2.22204665 39.7119572,2.47776839 L37.4355197,5.81355969 C37.3299272,5.96827274 37.1520872,6.06107274 36.9618497,6.06107274 Z" id="Shape" fill="#7C97B0"></path>
            <path d="M18.7247525,4.95106087 L4.48943,4.95106087 C4.17479,4.95106087 3.92,4.70229565 3.92,4.39509565 C3.92,4.08775652 4.17479,3.83913043 4.48943,3.83913043 L18.7247525,3.83913043 C19.0393925,3.83913043 19.2941825,4.08775652 19.2941825,4.39509565 C19.2941825,4.70229565 19.0393925,4.95106087 18.7247525,4.95106087 Z" id="Shape" fill="#7C97B0"></path>
            <path d="M49.6388732,4.95106087 L39.1111267,4.95106087 C38.8783267,4.95106087 38.69,4.70229565 38.69,4.39509565 C38.69,4.08775652 38.8783267,3.83913043 39.1111267,3.83913043 L49.6388732,3.83913043 C49.8716732,3.83913043 50.0599999,4.08775652 50.0599999,4.39509565 C50.0599999,4.70229565 49.8716732,4.95106087 49.6388732,4.95106087 Z" id="Shape" fill="#7C97B0"></path>
            <path d="M33.550025,3.83801739 L24.43943,3.83801739 C24.12479,3.83801739 23.87,3.58939131 23.87,3.28205217 C23.87,2.97485217 24.12479,2.72608696 24.43943,2.72608696 L33.550025,2.72608696 C33.8648075,2.72608696 34.119455,2.97485217 34.119455,3.28205217 C34.119455,3.58939131 33.8648075,3.83801739 33.550025,3.83801739 Z" id="Shape" fill="#7C97B0"></path>
            <g id="Group" transform="translate(41.957500, 53.230435)" fill="#7C97B0">
                <path d="M5.2495575,1.22587826 L0.69426,1.22587826 C0.3794775,1.22587826 0.12483,0.977113042 0.12483,0.669913043 C0.12483,0.362573913 0.3794775,0.113947826 0.69426,0.113947826 L5.2495575,0.113947826 C5.56434,0.113947826 5.8189875,0.362573913 5.8189875,0.669913043 C5.8189875,0.976973916 5.56434,1.22587826 5.2495575,1.22587826 Z" id="Shape"></path>
                <path d="M0.69426,5.67332174 C0.3794775,5.67332174 0.12483,5.42469565 0.12483,5.11735652 L0.12483,0.669773913 C0.12483,0.362434783 0.3794775,0.113808696 0.69426,0.113808696 C1.0089,0.113808696 1.26369,0.362434783 1.26369,0.669773913 L1.26369,5.11735652 C1.26369,5.42469565 1.0089,5.67332174 0.69426,5.67332174 Z" id="Shape"></path>
            </g>
            <path d="M4.515365,61.1276174 C4.200725,61.1276174 3.945935,60.9067546 3.945935,60.6337351 L3.945935,4.33301268 C3.945935,4.05999319 4.200725,3.83913043 4.515365,3.83913043 C4.8301475,3.83913043 5.084795,4.05999319 5.084795,4.33301268 L5.084795,60.6336115 C5.084795,60.9067546 4.8301475,61.1276174 4.515365,61.1276174 Z" id="Shape" fill="#7C97B0"></path>
            <path d="M49.484635,55.5681043 C49.1698525,55.5681043 48.915205,55.3498608 48.915205,55.080079 L48.915205,4.32715575 C48.915205,4.05737399 49.1698525,3.83913043 49.484635,3.83913043 C49.7994175,3.83913043 50.054065,4.05737399 50.054065,4.32715575 L50.054065,55.0799569 C50.054065,55.3498608 49.7994175,55.5681043 49.484635,55.5681043 Z" id="Shape" fill="#7C97B0"></path>
            <path d="M43.7904775,61.1276174 C43.644985,61.1276174 43.499065,61.0732174 43.3880575,60.9646957 C43.1654725,60.7475131 43.1654725,60.3957913 43.3880575,60.1786087 L49.0820725,54.6192348 C49.3046575,54.4019131 49.6648975,54.4019131 49.8871975,54.6192348 C50.1097825,54.8364174 50.1097825,55.1881392 49.8871975,55.4053217 L44.1931825,60.9646957 C44.08189,61.0732174 43.936255,61.1276174 43.7904775,61.1276174 Z" id="Shape" fill="#7C97B0"></path>
            <path d="M43.8377117,61.1276174 L4.46402854,61.1276174 C4.17775463,61.1276174 3.945935,60.8789913 3.945935,60.5716522 C3.945935,60.2643131 4.17775463,60.0156869 4.46402854,60.0156869 L43.8378413,60.0156869 C44.1242449,60.0156869 44.3559348,60.2643131 44.3559348,60.5716522 C44.3559348,60.8789913 44.1241152,61.1276174 43.8377117,61.1276174 Z" id="Shape" fill="#7C97B0"></path>
            <path d="M52.901215,64.4631304 C52.5864325,64.4631304 52.331785,64.2396528 52.331785,63.963526 L52.331785,0.999729543 C52.331785,0.723602708 52.5864325,0.5 52.901215,0.5 C53.215855,0.5 53.4705025,0.723602708 53.4705025,0.999729543 L53.4705025,63.963526 C53.4705025,64.2396528 53.215855,64.4631304 52.901215,64.4631304 Z" id="Shape" fill="#7C97B0"></path>
            <path d="M52.9402101,64.4631304 L1.05891603,64.4631304 C0.766251985,64.4631304 0.5294975,64.2145043 0.5294975,63.9073043 C0.5294975,63.5999652 0.766251985,63.3513392 1.05891603,63.3513392 L52.9402101,63.3513392 C53.2327416,63.3513392 53.4694961,63.5999652 53.4694961,63.9073043 C53.4694961,64.2145043 53.2327416,64.4631304 52.9402101,64.4631304 Z" id="Shape" fill="#7C97B0"></path>
            <path d="M1.0989275,64.4631304 C0.784145,64.4631304 0.5294975,64.2396528 0.5294975,63.963526 L0.5294975,0.999729543 C0.5294975,0.723602708 0.784145,0.5 1.0989275,0.5 C1.4135675,0.5 1.6683575,0.723602708 1.6683575,0.999729543 L1.6683575,63.963526 C1.6683575,64.2396528 1.41371,64.4631304 1.0989275,64.4631304 Z" id="Shape" fill="#7C97B0"></path>
            <path d="M52.9107126,1.61193043 L1.02941853,1.61193043 C0.736754485,1.61193043 0.5,1.36330435 0.5,1.05596522 C0.5,0.748765217 0.736754485,0.5 1.02941853,0.5 L52.9107126,0.5 C53.2032441,0.5 53.4399986,0.748765217 53.4399986,1.05596522 C53.4399986,1.36330435 53.2032441,1.61193043 52.9107126,1.61193043 Z" id="Shape" fill="#7C97B0"></path>
        </g>
    </g>
</svg>