<?xml version="1.0" encoding="UTF-8"?>
<svg width="64px" height="64px" viewBox="0 0 64 64" version="1.1" xmlns="http://www.w3.org/2000/svg" xmlns:xlink="http://www.w3.org/1999/xlink">
    <!-- Generator: Sketch 57.1 (83088) - https://sketch.com -->
    <title>Icon/Large/Skill-template/Builld-Inactive</title>
    <desc>Created with Sketch.</desc>
    <g id="Icon/Large/Skill-template/Builld-Inactive" stroke="none" stroke-width="1" fill="none" fill-rule="evenodd">
        <g id="gsheets">
            <rect id="Rectangle-5" x="0" y="0" width="64" height="64"></rect>
            <g id="9-website,-programming,-develop,-developer,-web,-page,-interface" transform="translate(0.000000, 10.000000)" fill-rule="nonzero">
                <g id="Group" transform="translate(0.500000, 0.375000)">
                    <path d="M62.99225,39.092 L62.99225,43.1115 C62.99225,44.760625 61.643125,46.11075 59.993,46.11075 L31.5,46.11075 L31.5,44.09075 C32.329875,44.09075 32.9995,43.421125 32.9995,42.59125 C32.9995,41.761375 32.329875,41.0915 31.5,41.0915 L31.5,39.092 L62.99225,39.092 Z" id="Shape" fill="#FFFFFF"></path>
                    <path d="M31.5,41.0915 C32.329875,41.0915 32.9995,41.761375 32.9995,42.59125 C32.9995,43.421125 32.329875,44.09075 31.5,44.09075 C30.670125,44.09075 30.000375,43.421125 30.000375,42.59125 C30.000375,41.761375 30.670125,41.0915 31.5,41.0915 Z" id="Shape" fill="#CFDEE9"></path>
                    <path d="M62.99225,43.111625 L62.99225,45.090625 C62.99225,46.78075 61.68225,48.089875 59.993,48.089875 C59.28425,48.089875 49.36675,48.089875 37.988625,48.089875 C33.730125,48.089875 29.270125,48.089875 25.0115,48.089875 C13.635375,48.089875 3.717875,48.089875 3.007125,48.089875 C1.318125,48.089875 0.007875,46.78075 0.007875,45.090625 L0.007875,43.111625 C0.007875,44.76075 1.358125,46.110875 3.007125,46.110875 L31.5,46.110875 L59.992875,46.110875 C61.643125,46.110875 62.99225,44.76075 62.99225,43.111625 Z" id="Shape" fill="#EAF3F9"></path>
                    <path d="M1.032875,45.348375 C0.41,44.797875 0.00775,44.002875 0.00775,43.1115 L0.00775,45.0905 C0.00775,46.780625 1.318,48.08975 3.007,48.08975 C3.11925,48.08975 3.465875,48.08975 4.00675,48.08975 C2.405625,48.089875 1.160875,46.909375 1.032875,45.348375 Z" id="Shape" fill="#FFFFFF"></path>
                    <path d="M61.967,45.348375 C61.84,46.909375 60.5945,48.089875 58.993125,48.089875 C59.534125,48.089875 59.8815,48.089875 59.992875,48.089875 C61.682125,48.089875 62.9921251,46.78075 62.9921251,45.090625 L62.9921251,43.111625 C62.99225,44.002875 62.590125,44.797875 61.967,45.348375 Z" id="Shape" fill="#CFDEE9"></path>
                    <path d="M31.5,44.090875 L31.5,46.110875 L3.007,46.110875 C1.358,46.110875 0.00775,44.76075 0.00775,43.111625 L0.00775,43.091125 L0.00775,39.092125 L31.5,39.092125 L31.5,41.091625 C30.670125,41.091625 30.000375,41.7615 30.000375,42.591375 C30.000375,43.42125 30.670125,44.090875 31.5,44.090875 Z" id="Shape" fill="#FFFFFF"></path>
                    <path d="M62.99225,3.1215 L62.99225,39.092125 L31.5,39.092125 L0.00775,39.092125 L0.00775,3.1215 C0.00775,1.4715 1.358,0.12225 3.007,0.12225 L59.992875,0.12225 C61.643125,0.12225 62.99225,1.4715 62.99225,3.1215 Z M59.992875,36.09275 L59.992875,5.1005 L59.992875,3.101 L57.993375,3.101 L55.993875,3.101 L52.994625,3.101 L50.995125,3.101 L48.995625,3.101 L46.996125,3.101 L44.996625,3.101 L23.002125,3.101 L19.003125,3.101 L15.004125,3.101 L11.005125,3.101 L7.006,3.101 L3.007,3.101 L3.007,5.1005 L3.007,36.09275 L59.992875,36.09275 Z" id="Shape" fill="#CFDEE9"></path>
                    <path d="M4.00675,0.12225 L3.007,0.12225 C1.358,0.12225 0.00775,1.4715 0.00775,3.1215 L0.00775,39.092125 L1.0075,39.092125 L1.0075,3.1215 C1.0075,1.4715 2.35775,0.12225 4.00675,0.12225 Z" id="Shape" fill="#EAF3F9"></path>
                    <path d="M59.992875,0.12225 L58.993125,0.12225 C60.64325,0.12225 61.992375,1.4715 61.992375,3.1215 L61.992375,39.092125 L62.992125,39.092125 L62.992125,3.1215 C62.99225,1.4715 61.643125,0.12225 59.992875,0.12225 Z" id="Shape" fill="#B7CCDB"></path>
                    <path d="M38.211125,49.089625 L37.9885,48.089875 C33.73,48.089875 29.27,48.089875 25.011375,48.089875 L24.78875,49.089625 C29.24475,49.089625 33.755375,49.089625 38.211125,49.089625 Z" id="Shape" fill="#CFDEE9"></path>
                    <g id="Group-2" transform="translate(23.000000, 48.000000)">
                        <path d="M14.9976879,0 L17,4.8 L0,4.8 L2.00231207,0 C6.26705152,0 10.7331988,0 14.9976879,0 Z" id="Shape" fill="#EAF3F9"></path>
                        <path d="M13.5,0.2 L15.4198217,5 L16.5,5 L14.5801783,0.2 C14.2197137,0.2 13.8588439,0.2 13.5,0.2 Z" id="Shape" fill="#CFDEE9"></path>
                        <path d="M3.5,0.2 L1.57944934,5 L0.5,5 L2.42055066,0.2 C2.77888249,0.2 3.13950873,0.2 3.5,0.2 Z" id="Shape" fill="#FFFFFF"></path>
                    </g>
                </g>
                <rect id="Rectangle-path" fill="#FFFFFF" x="5.5065" y="3.4965" width="26.4935" height="32.982"></rect>
                <g id="Group" opacity="0.3" transform="translate(32.000000, 3.375000)" fill="#FFFFFF">
                    <polygon id="Rectangle-path" points="-5.68434188e-14 0.1215 2.023 0.1215 2.023 33.030375 -5.68434188e-14 33.030375"></polygon>
                </g>
                <rect id="Rectangle-path" fill="#EAF3F9" x="3.507" y="3.48675" width="1.9995" height="33.001625"></rect>
                <polygon id="Rectangle-path" fill="#EAF3F9" points="31.00025 3.4965 32.00025 3.4965 32.00025 36.405375 31.00025 36.405375"></polygon>
                <g id="Group" fill="#7E97B2">
                    <path d="M63.49225,39.9875 L0.50775,39.9875 C0.2315,39.9875 0.007875,39.763875 0.007875,39.4875 C0.007875,39.211375 0.2315,38.98775 0.50775,38.98775 L63.492125,38.98775 C63.7685,38.98775 63.9921251,39.211375 63.9921251,39.4875 C63.9921251,39.763875 63.7685,39.9875 63.49225,39.9875 Z" id="Shape"></path>
                    <path d="M32,44.986375 C30.89775,44.986375 30.0005,44.089125 30.0005,42.986875 C30.0005,41.883625 30.89775,40.987375 32,40.987375 C33.10225,40.987375 33.9995,41.883625 33.9995,42.986875 C33.9995,44.089125 33.10225,44.986375 32,44.986375 Z M32,41.987 C31.448375,41.987 31.00025,42.435 31.00025,42.98675 C31.00025,43.53725 31.448375,43.9865 32,43.9865 C32.5515,43.9865 32.99975,43.53725 32.99975,42.98675 C32.99975,42.435 32.5515,41.987 32,41.987 Z" id="Shape"></path>
                    <path d="M23.511875,53.9864061 C23.47675,53.9864061 23.439625,53.9840803 23.4035,53.9793538 C23.134,53.9430419 22.964125,53.7830144 23.02375,53.6212613 L25.02325,48.2208394 C25.08275,48.0598365 25.347375,47.9590035 25.61975,47.9929896 C25.88925,48.0287763 26.059125,48.189179 25.999625,48.350932 L24,53.751354 C23.94825,53.8908998 23.74125,53.9864061 23.511875,53.9864061 Z" id="Shape"></path>
                    <path d="M40.488,53.9864061 C40.25875,53.9864061 40.05175,53.8908998 40,53.751354 L38.0005,48.350932 C37.940875,48.189179 38.110875,48.0287013 38.380375,47.9929896 C38.653625,47.9590035 38.91725,48.0598365 38.97675,48.2208394 L40.97625,53.6212613 C41.035875,53.7830144 40.865875,53.9430419 40.596375,53.9793538 C40.56025,53.9840803 40.52325,53.9864061 40.488,53.9864061 Z" id="Shape"></path>
                    <path d="M40.5715332,53.983125 L23.428574,53.983125 C23.1916205,53.983125 23,53.7595 23,53.483125 C23,53.20675 23.1916205,52.983375 23.428574,52.983375 L40.5715332,52.983375 C40.8084867,52.983375 41,53.20675 41,53.483125 C41,53.7595 40.8084867,53.983125 40.5715332,53.983125 Z" id="Shape"></path>
                    <path d="M60.492875,37.00775 L3.507,37.00775 C3.23075,37.00775 3.007125,36.784125 3.007125,36.50775 L3.007125,3.516 C3.007125,3.23975 3.23075,3.016125 3.507,3.016125 L60.492875,3.016125 C60.76925,3.016125 60.992875,3.23975 60.992875,3.516 L60.992875,36.507875 C60.992875,36.784125 60.76925,37.00775 60.492875,37.00775 Z M4.006875,36.008 L59.993125,36.008 L59.993125,4.015875 L4.006875,4.015875 L4.006875,36.008 Z" id="Shape"></path>
                    <path d="M60.492875,47.005375 L3.507,47.005375 C1.57775,47.005375 0.007875,45.43525 0.007875,43.506125 C0.007875,43.50325 0.007875,43.49925 0.007875,43.496375 C0.007875,43.4935 0.007875,43.4895 0.007875,43.486625 L0.007875,3.516 C0.007875,1.58675 1.577875,0.016875 3.507,0.016875 L60.492875,0.016875 C62.422125,0.016875 63.992125,1.58675 63.992125,3.516 L63.992125,43.506125 C63.992125,45.43525 62.422125,47.005375 60.492875,47.005375 Z M1.007625,43.496375 C1.007625,43.49925 1.007625,43.50325 1.007625,43.506125 C1.007625,44.88475 2.1285,46.005625 3.507,46.005625 L60.492875,46.005625 C61.8715,46.005625 62.992375,44.88475 62.992375,43.506125 L62.992375,3.516 C62.992375,2.138375 61.8715,1.016625 60.492875,1.016625 L3.507,1.016625 C2.1285,1.016625 1.007625,2.138375 1.007625,3.516 L1.007625,43.486625 C1.007625,43.4895 1.007625,43.493375 1.007625,43.496375 Z" id="Shape"></path>
                    <path d="M60.492875,48.985375 L3.507,48.985375 C1.544625,48.985375 0.007875,47.4475 0.007875,45.486125 L0.007875,43.506125 C0.007875,43.23 0.2315,42.996625 0.50775,42.996625 C0.784,42.996625 1.007625,43.2105 1.007625,43.486625 L1.007625,45.486125 C1.007625,46.910625 2.082625,47.985625 3.507,47.985625 L60.492875,47.985625 C61.917375,47.985625 62.992375,46.910625 62.992375,45.486125 L62.992375,43.506125 C62.992375,43.23 63.216,43.006375 63.492125,43.006375 C63.7685,43.006375 63.992125,43.23 63.992125,43.506125 L63.992125,45.486125 C63.992125,47.4475 62.455375,48.985375 60.492875,48.985375 Z" id="Shape"></path>
                    <path d="M5.5065,37.00775 C5.23025,37.00775 5.006625,36.784125 5.006625,36.50775 L5.006625,3.516 C5.006625,3.23975 5.23025,3.016125 5.5065,3.016125 C5.78275,3.016125 6.006375,3.23975 6.006375,3.516 L6.006375,36.507875 C6.006375,36.784125 5.782875,37.00775 5.5065,37.00775 Z" id="Shape"></path>
                    <path d="M4.50675,7.015125 L3.507,7.015125 C3.23075,7.015125 3.007125,6.7915 3.007125,6.51525 C3.007125,6.239 3.23075,6.015375 3.507,6.015375 L4.50675,6.015375 C4.783,6.015375 5.006625,6.239 5.006625,6.51525 C5.006625,6.7915 4.783125,7.015125 4.50675,7.015125 Z" id="Shape"></path>
                    <path d="M4.50675,10.014375 L3.507,10.014375 C3.23075,10.014375 3.007125,9.790875 3.007125,9.5145 C3.007125,9.23825 3.23075,9.014625 3.507,9.014625 L4.50675,9.014625 C4.783,9.014625 5.006625,9.23825 5.006625,9.5145 C5.006625,9.790875 4.783125,10.014375 4.50675,10.014375 Z" id="Shape"></path>
                    <path d="M4.50675,13.013625 L3.507,13.013625 C3.23075,13.013625 3.007125,12.790125 3.007125,12.51375 C3.007125,12.2375 3.23075,12.013875 3.507,12.013875 L4.50675,12.013875 C4.783,12.013875 5.006625,12.2375 5.006625,12.51375 C5.006625,12.790125 4.783125,13.013625 4.50675,13.013625 Z" id="Shape"></path>
                    <path d="M4.50675,16.012875 L3.507,16.012875 C3.23075,16.012875 3.007125,15.789375 3.007125,15.513 C3.007125,15.23675 3.23075,15.013125 3.507,15.013125 L4.50675,15.013125 C4.783,15.013125 5.006625,15.23675 5.006625,15.513 C5.006625,15.789375 4.783125,16.012875 4.50675,16.012875 Z" id="Shape"></path>
                    <path d="M4.50675,19.012125 L3.507,19.012125 C3.23075,19.012125 3.007125,18.788625 3.007125,18.51225 C3.007125,18.236 3.23075,18.012375 3.507,18.012375 L4.50675,18.012375 C4.783,18.012375 5.006625,18.236 5.006625,18.51225 C5.006625,18.788625 4.783125,19.012125 4.50675,19.012125 Z" id="Shape"></path>
                    <path d="M4.50675,22.011375 L3.507,22.011375 C3.23075,22.011375 3.007125,21.78775 3.007125,21.5115 C3.007125,21.23525 3.23075,21.011625 3.507,21.011625 L4.50675,21.011625 C4.783,21.011625 5.006625,21.23525 5.006625,21.5115 C5.006625,21.787875 4.783125,22.011375 4.50675,22.011375 Z" id="Shape"></path>
                    <path d="M4.50675,25.010625 L3.507,25.010625 C3.23075,25.010625 3.007125,24.787 3.007125,24.51075 C3.007125,24.2345 3.23075,24.010875 3.507,24.010875 L4.50675,24.010875 C4.783,24.010875 5.006625,24.2345 5.006625,24.51075 C5.006625,24.787125 4.783125,25.010625 4.50675,25.010625 Z" id="Shape"></path>
                    <path d="M4.50675,28.01 L3.507,28.01 C3.23075,28.01 3.007125,27.786375 3.007125,27.510125 C3.007125,27.233875 3.23075,27.01025 3.507,27.01025 L4.50675,27.01025 C4.783,27.01025 5.006625,27.233875 5.006625,27.510125 C5.006625,27.786375 4.783125,28.01 4.50675,28.01 Z" id="Shape"></path>
                    <path d="M4.50675,31.00925 L3.507,31.00925 C3.23075,31.00925 3.007125,30.785625 3.007125,30.50925 C3.007125,30.233125 3.23075,30.0095 3.507,30.0095 L4.50675,30.0095 C4.783,30.0095 5.006625,30.233125 5.006625,30.50925 C5.006625,30.785625 4.783125,31.00925 4.50675,31.00925 Z" id="Shape"></path>
                    <path d="M4.50675,34.0085 L3.507,34.0085 C3.23075,34.0085 3.007125,33.784875 3.007125,33.5085 C3.007125,33.232375 3.23075,33.00875 3.507,33.00875 L4.50675,33.00875 C4.783,33.00875 5.006625,33.232375 5.006625,33.5085 C5.006625,33.784875 4.783125,34.0085 4.50675,34.0085 Z" id="Shape"></path>
                    <path d="M12.504875,7.015125 L8.50575,7.015125 C8.2295,7.015125 8.005875,6.7915 8.005875,6.51525 C8.005875,6.239 8.2295,6.015375 8.50575,6.015375 L12.50475,6.015375 C12.781,6.015375 13.004625,6.239 13.004625,6.51525 C13.004625,6.7915 12.781125,7.015125 12.504875,7.015125 Z" id="Shape"></path>
                    <path d="M28.500875,10.014375 L16.50375,10.014375 C16.227375,10.014375 16.003875,9.790875 16.003875,9.5145 C16.003875,9.23825 16.227375,9.014625 16.50375,9.014625 L28.500875,9.014625 C28.777125,9.014625 29.00075,9.23825 29.00075,9.5145 C29.00075,9.790875 28.777125,10.014375 28.500875,10.014375 Z" id="Shape"></path>
                    <path d="M14.504375,10.014375 L9.505625,10.014375 C9.229375,10.014375 9.00575,9.790875 9.00575,9.5145 C9.00575,9.23825 9.229375,9.014625 9.505625,9.014625 L14.504375,9.014625 C14.780625,9.014625 15.00425,9.23825 15.00425,9.5145 C15.00425,9.790875 14.780625,10.014375 14.504375,10.014375 Z" id="Shape"></path>
                    <path d="M28.500875,13.013625 L27.501125,13.013625 C27.22475,13.013625 27.00125,12.790125 27.00125,12.51375 C27.00125,12.2375 27.22475,12.013875 27.501125,12.013875 L28.500875,12.013875 C28.777125,12.013875 29.00075,12.2375 29.00075,12.51375 C29.00075,12.790125 28.777125,13.013625 28.500875,13.013625 Z" id="Shape"></path>
                    <path d="M25.501625,13.013625 L10.50525,13.013625 C10.229,13.013625 10.005375,12.790125 10.005375,12.51375 C10.005375,12.2375 10.229,12.013875 10.50525,12.013875 L25.501625,12.013875 C25.777875,12.013875 26.0015,12.2375 26.0015,12.51375 C26.0015,12.790125 25.777875,13.013625 25.501625,13.013625 Z" id="Shape"></path>
                    <path d="M13.504625,19.012125 L10.50525,19.012125 C10.229,19.012125 10.005375,18.788625 10.005375,18.51225 C10.005375,18.236 10.229,18.012375 10.50525,18.012375 L13.5045,18.012375 C13.78075,18.012375 14.0043751,18.236 14.0043751,18.51225 C14.0045,18.788625 13.780875,19.012125 13.504625,19.012125 Z" id="Shape"></path>
                    <path d="M28.500875,19.012125 L15.504125,19.012125 C15.227875,19.012125 15.00425,18.788625 15.00425,18.51225 C15.00425,18.236 15.227875,18.012375 15.504125,18.012375 L28.501,18.012375 C28.77725,18.012375 29.000875,18.236 29.000875,18.51225 C29.000875,18.788625 28.777125,19.012125 28.500875,19.012125 Z" id="Shape"></path>
                    <path d="M28.500875,16.012875 L11.505125,16.012875 C11.228875,16.012875 11.00525,15.789375 11.00525,15.513 C11.00525,15.23675 11.228875,15.013125 11.505125,15.013125 L28.501,15.013125 C28.77725,15.013125 29.000875,15.23675 29.000875,15.513 C29.000875,15.789375 28.777125,16.012875 28.500875,16.012875 Z" id="Shape"></path>
                    <path d="M28.500875,22.011375 L24.501875,22.011375 C24.2255,22.011375 24.002,21.78775 24.002,21.5115 C24.002,21.23525 24.2255,21.011625 24.501875,21.011625 L28.500875,21.011625 C28.777125,21.011625 29.00075,21.23525 29.00075,21.5115 C29.00075,21.787875 28.777125,22.011375 28.500875,22.011375 Z" id="Shape"></path>
                    <path d="M25.501625,25.010625 L9.5055,25.010625 C9.22925,25.010625 9.005625,24.787 9.005625,24.51075 C9.005625,24.2345 9.22925,24.010875 9.5055,24.010875 L25.501625,24.010875 C25.777875,24.010875 26.0015,24.2345 26.0015,24.51075 C26.0015,24.787125 25.777875,25.010625 25.501625,25.010625 Z" id="Shape"></path>
                    <path d="M17.503625,31.00925 L9.5055,31.00925 C9.22925,31.00925 9.005625,30.785625 9.005625,30.50925 C9.005625,30.233125 9.22925,30.0095 9.5055,30.0095 L17.5035,30.0095 C17.77975,30.0095 18.0033751,30.233125 18.0033751,30.50925 C18.0035,30.785625 17.779875,31.00925 17.503625,31.00925 Z" id="Shape"></path>
                    <path d="M28.500875,28.01 L23.502125,28.01 C23.22575,28.01 23.00225,27.786375 23.00225,27.510125 C23.00225,27.233875 23.22575,27.01025 23.502125,27.01025 L28.500875,27.01025 C28.777125,27.01025 29.00075,27.233875 29.00075,27.510125 C29.00075,27.786375 28.777125,28.01 28.500875,28.01 Z" id="Shape"></path>
                    <path d="M21.502625,28.01 L10.50525,28.01 C10.229,28.01 10.005375,27.786375 10.005375,27.510125 C10.005375,27.233875 10.229,27.01025 10.50525,27.01025 L21.502625,27.01025 C21.778875,27.01025 22.0025,27.233875 22.0025,27.510125 C22.0025,27.786375 21.778875,28.01 21.502625,28.01 Z" id="Shape"></path>
                    <path d="M12.504875,34.0085 L8.50575,34.0085 C8.2295,34.0085 8.005875,33.784875 8.005875,33.5085 C8.005875,33.232375 8.2295,33.00875 8.50575,33.00875 L12.50475,33.00875 C12.781,33.00875 13.0046251,33.232375 13.0046251,33.5085 C13.00475,33.784875 12.781125,34.0085 12.504875,34.0085 Z" id="Shape"></path>
                    <path d="M28.500875,25.010625 L27.501125,25.010625 C27.22475,25.010625 27.00125,24.787 27.00125,24.51075 C27.00125,24.2345 27.22475,24.010875 27.501125,24.010875 L28.500875,24.010875 C28.777125,24.010875 29.00075,24.2345 29.00075,24.51075 C29.00075,24.787125 28.777125,25.010625 28.500875,25.010625 Z" id="Shape"></path>
                    <path d="M22.502375,22.011375 L10.50525,22.011375 C10.229,22.011375 10.005375,21.78775 10.005375,21.5115 C10.005375,21.23525 10.229,21.011625 10.50525,21.011625 L22.502375,21.011625 C22.778625,21.011625 23.00225,21.23525 23.00225,21.5115 C23.00225,21.787875 22.778625,22.011375 22.502375,22.011375 Z" id="Shape"></path>
                    <path d="M32,37.00775 C31.72375,37.00775 31.500125,36.784125 31.500125,36.50775 L31.500125,3.516 C31.500125,3.23975 31.72375,3.016125 32,3.016125 C32.276375,3.016125 32.49975,3.23975 32.49975,3.516 L32.49975,36.507875 C32.49975,36.784125 32.276375,37.00775 32,37.00775 Z" id="Shape"></path>
                </g>
            </g>
        </g>
    </g>
</svg>