<?xml version="1.0" encoding="UTF-8"?>
<svg width="80px" height="80px" viewBox="0 0 80 80" version="1.1" xmlns="http://www.w3.org/2000/svg" xmlns:xlink="http://www.w3.org/1999/xlink">
	<title>
		Icon/COnnect-account
	</title>
	<g id="Bulk-Upload" stroke="none" stroke-width="1" fill="none" fill-rule="evenodd">
		<g id="Bulk_Import_Upgrade" transform="translate(-680.000000, -140.000000)">
			<g id="Group-23" transform="translate(524.000000, 48.000000)">
				<g id="Icon/COnnect-account" transform="translate(156.000000, 92.000000)">
					<g id="Group-13">
						<rect id="Rectangle" fill-rule="nonzero" x="0" y="0" width="80" height="80">
						</rect>
						<g id="Group-12" transform="translate(10.750000, 0.000000)">
							<g id="12-deadline,-time,-clock,-fire,-business,-work,-office" transform="translate(0.500000, 0.000000)">
								<path d="M46.3390625,66.3317187 L46.3390625,66.3195312 C47.8126562,64.858125 49.0251562,63.2589062 50.0107813,61.5475 C51.0354687,59.7860937 51.8101562,57.9 52.3225,55.9640625 C52.846875,54.0146875 53.1092188,52.004375 53.1092188,49.9928125 C53.1092188,47.98125 52.846875,45.9709375 52.3225,44.009375 C51.8101562,42.0732813 51.0354687,40.1996875 50.0107813,38.4260938 C49.0251563,36.7145313 47.8004688,35.1153125 46.3390625,33.6539063 C44.8775,32.1925 43.2660938,30.9554688 41.5546875,29.9692188 C39.793125,28.9445313 37.9071875,28.1826563 35.9835937,27.6704688 C34.023125,27.1459375 32.0103125,26.8835938 30,26.8835938 C27.9890625,26.8835938 25.9775,27.1459375 24.0165625,27.6704688 C22.0928125,28.1828125 20.206875,28.9445313 18.4454687,29.9815625 C16.7339062,30.9684375 15.1225,32.1926563 13.6610937,33.6539063 C12.1996875,35.1153125 10.9754687,36.726875 9.98875,38.4382813 C8.9646875,40.1996875 8.19015625,42.085625 7.67765625,44.009375 C7.153125,45.9575 6.89078125,47.9690625 6.89078125,49.980625 C6.89078125,51.9909375 7.15296875,54.0025 7.67765625,55.9640625 C8.67734375,59.7617188 10.6754687,63.3590625 13.6610937,66.331875 C15.1226562,67.7934375 16.7340625,69.0179688 18.4454687,70.00375 C20.206875,71.0284375 22.0928125,71.803125 24.0165625,72.3154687 C25.9775,72.8398438 27.9890625,73.1021875 30,73.1021875 C32.0103125,73.1021875 34.023125,72.8398438 35.9835937,72.3154687 C37.9073437,71.803125 39.793125,71.0284375 41.5546875,70.00375 C43.2660938,69.0179687 44.8776562,67.7932812 46.3390625,66.3317187 Z M43.1160937,13.1429687 C43.1160937,13.1429687 59.355,29.231875 59.355,49.9928125 C59.355,66.2196875 46.2267187,79.3478125 30,79.3478125 C13.7732812,79.3478125 0.645,66.2195312 0.645,49.9928125 C0.645,17.7771875 31.87375,0.65140625 31.87375,0.65140625 C31.87375,0.65140625 28.7759375,10.045 33.110625,14.3920312 C37.4582813,18.7270312 43.1160937,13.1429687 43.1160937,13.1429687 Z" id="Shape" fill="#94C1FF" fill-rule="nonzero">
								</path>
								<path d="M43.1160937,13.1429687 C43.1160937,13.1429687 42.5720312,13.6790625 41.6935938,14.2895312 C45.3167187,18.3107812 56.8565625,32.49125 56.8565625,49.9926562 C56.8565625,65.8010937 44.396875,78.6620312 28.7507812,79.3159375 C29.1654687,79.3329687 29.5807813,79.3476562 29.9998438,79.3476562 C46.2267188,79.3476562 59.3548438,66.219375 59.3548438,49.9926562 C59.3548438,29.231875 43.1160937,13.1429687 43.1160937,13.1429687 Z" id="Path" fill="#5C9EFF">
								</path>
								<path d="M3.14328125,49.9928125 C3.14328125,23.9290625 23.5792187,7.746875 31.3857813,2.51546875 C31.6370313,1.3846875 31.87375,0.6515625 31.87375,0.6515625 C31.87375,0.6515625 0.645,17.7771875 0.645,49.9928125 C0.645,66.2196875 13.7732812,79.3478125 30,79.3478125 C30.4190625,79.3478125 30.834375,79.333125 31.2492188,79.3160938 C15.60375,78.6621875 3.14328125,65.80125 3.14328125,49.9928125 Z" id="Path" fill="#D7E9FF">
								</path>
								<path d="M25.628125,14.529375 C25.628125,14.529375 17.1914062,17.9315625 14.6078125,32.7590625 L35.7396875,27.508125 C25.1735937,23.6442188 25.628125,14.529375 25.628125,14.529375 Z" id="Path" fill="#D7E9FF">
								</path>
								<path d="M31.3248437,48.6692187 C32.0617187,49.3926563 32.0617187,50.5795313 31.3248437,51.31625 C30.9620312,51.6785937 30.4875,51.8664062 30,51.8664062 C29.5254687,51.8664062 29.0509375,51.6785937 28.6757812,51.31625 C27.9390625,50.579375 27.9390625,49.3925 28.6757812,48.6692187 C29.4126563,47.93125 30.5996875,47.93125 31.3248437,48.6692187 Z" id="Path" fill="#94C1FF">
								</path>
								<g id="Group-2" transform="translate(8.750000, 28.750000)">
									<g id="minute-hand">
										<path d="M22.5748437,19.9192188 C21.8496875,19.1810938 20.6628125,19.1810938 19.9259375,19.9192188 C19.1892187,20.6426563 19.1892187,21.8295313 19.9259375,22.56625 C20.3010937,22.9285938 20.775625,23.1164063 21.2501562,23.1164063 C21.7375,23.1164063 22.2120312,22.9285938 22.575,22.56625 C23.3115625,21.8295313 23.3115625,20.6426563 22.5748437,19.9192188 Z M35.8275,6.6653125 C43.87125,14.7225 43.87125,27.7629688 35.8275,35.8203125 C27.78375,43.8653125 14.7292187,43.8653125 6.6725,35.808125 C-1.371875,27.763125 -1.371875,14.7092188 6.6725,6.6653125 C14.7292187,-1.3790625 27.7714062,-1.3790625 35.8275,6.6653125 Z" id="Shape" fill="#FFFFFF" fill-rule="nonzero">
										</path>
										<path d="M22.5748438,20.54375 C22.4145313,20.54375 22.2546875,20.4826563 22.1326563,20.3607813 C21.88875,20.1167188 21.88875,19.7215625 22.1326563,19.4776563 L30.9640625,10.6457813 C31.208125,10.4017188 31.6032813,10.4017188 31.8471875,10.6457813 C32.0910938,10.8898438 32.09125,11.285 31.8471875,11.5289063 L23.0164063,20.3607813 C22.894375,20.4828125 22.7334375,20.54375 22.5748438,20.54375 Z" id="Path" fill="#116FFF">
										</path>
									</g>
									<g id="hour-hand">
										<path d="M22.5748438,19.9192187 C21.8496875,19.1810937 20.6628125,19.1810937 19.9259375,19.9192187 C19.1892188,20.6426562 19.1892188,21.8295312 19.9259375,22.56625 C20.3010938,22.9285937 20.775625,23.1164062 21.2501563,23.1164062 C21.7375,23.1164062 22.2120313,22.9285937 22.575,22.56625 C23.3115625,21.8295312 23.3115625,20.6426562 22.5748438,19.9192187 Z M35.8275,6.6653125 C43.87125,14.7225 43.87125,27.7629687 35.8275,35.8203125 C27.78375,43.8653125 14.7292188,43.8653125 6.6725,35.808125 C-1.371875,27.763125 -1.371875,14.7092187 6.6725,6.6653125 C14.7292188,-1.3790625 27.7714063,-1.3790625 35.8275,6.6653125 Z" id="Shape" opacity="0" fill-rule="nonzero">
										</path>
										<path d="M21.25,31.5860937 C20.9048438,31.5860937 20.6254688,31.3067187 20.6254688,30.9615625 L20.6254688,23.1165625 C20.6254688,22.77125 20.9048438,22.4920312 21.25,22.4920312 C21.5953125,22.4920312 21.8746875,22.77125 21.8746875,23.1165625 L21.8746875,30.9615625 C21.8746875,31.3067187 21.5953125,31.5860937 21.25,31.5860937 Z" id="Path" fill="#116FFF">
										</path>
									</g>
								</g>
								<path d="M50.0107812,38.4260937 C51.0354687,40.1998437 51.8101562,42.0734375 52.3225,44.009375 C52.846875,45.9709375 53.1092187,47.98125 53.1092187,49.9928125 C53.1092187,52.004375 52.846875,54.0146875 52.3225,55.9640625 C51.8101562,57.9001562 51.0354687,59.7860937 50.0107812,61.5475 C49.0251562,63.2589062 47.8126562,64.858125 46.3390625,66.3195312 L46.3390625,66.3317187 C44.8775,67.7932812 43.2660937,69.0178125 41.5546875,70.0035937 C39.793125,71.0282812 37.9071875,71.8029687 35.9835937,72.3153125 C34.023125,72.8396875 32.0103125,73.1020312 30,73.1020312 C27.9890625,73.1020312 25.9775,72.8396875 24.0165625,72.3153125 C22.0928125,71.8029687 20.206875,71.0282812 18.4454687,70.0035937 C16.7339062,69.0178125 15.1225,67.7932812 13.6610937,66.3317187 C10.6754687,63.3590625 8.67734375,59.7615625 7.67765625,55.9639062 C7.153125,54.0023437 6.89078125,51.9907812 6.89078125,49.9804687 C6.89078125,47.9689062 7.15296875,45.9573437 7.67765625,44.0092187 C8.19,42.0854687 8.96453125,40.1995312 9.98875,38.438125 C10.975625,36.7265625 12.1998437,35.1151562 13.6610937,33.65375 C15.1226562,32.1923437 16.7340625,30.968125 18.4454687,29.9814062 C20.206875,28.9445312 22.0928125,28.1826562 24.0165625,27.6703125 C25.9775,27.1457812 27.9890625,26.8834375 30,26.8834375 C32.0103125,26.8834375 34.023125,27.1457812 35.9835937,27.6703125 C37.9073437,28.1826562 39.793125,28.944375 41.5546875,29.9690625 C43.2660937,30.9553125 44.8776562,32.1923437 46.3390625,33.65375 C47.8004687,35.1153125 49.0253125,36.7145313 50.0107812,38.4260937 Z M44.5775,64.5703125 C52.62125,56.513125 52.62125,43.4726562 44.5775,35.4153125 C36.5214062,27.3709375 23.4792187,27.3709375 15.4225,35.4153125 C7.378125,43.4590625 7.378125,56.5129687 15.4225,64.558125 C23.4792187,72.6153125 36.5335938,72.6153125 44.5775,64.5703125 Z" id="Shape" fill="#5C9EFF" fill-rule="nonzero">
								</path>
								<g id="Group" fill="#116FFF">
									<g>
										<path d="M30,79.9725 C29.6548438,79.9725 29.3754687,79.693125 29.3754687,79.3478125 C29.3754687,79.0026563 29.6548438,78.7232812 30,78.7232812 C45.8414063,78.7232812 58.7304688,65.8353125 58.7304688,49.9928125 C58.7304688,49.6476563 59.0098438,49.3682813 59.355,49.3682813 C59.7003125,49.3682813 59.9795313,49.6476563 59.9795313,49.9928125 C59.9795313,66.5234375 46.5304688,79.9725 30,79.9725 Z" id="Path">
										</path>
										<path d="M30,79.9725 C13.4695313,79.9725 0.02046875,66.5234375 0.02046875,49.9928125 C0.02046875,49.6476563 0.29984375,49.3682813 0.645,49.3682813 C0.9903125,49.3682813 1.2696875,49.6476563 1.2696875,49.9928125 C1.2696875,65.8353125 14.1582813,78.7232812 30.0001562,78.7232812 C30.3454687,78.7232812 30.6248438,79.0026563 30.6248438,79.3478125 C30.6248438,79.693125 30.3453125,79.9725 30,79.9725 Z" id="Path">
										</path>
										<path d="M59.355,50.6173438 C59.0098438,50.6173438 58.7304688,50.338125 58.7304688,49.9928125 C58.7304688,31.5921875 45.6084375,16.704375 43.0904687,14.0176563 C40.7775,16.0353125 36.199375,18.3535938 32.6690625,14.834375 C29.1620312,11.316875 30.155,4.9253125 30.856875,1.9909375 C24.9565625,5.6975 1.26953125,22.3090625 1.26953125,49.9928125 C1.26953125,50.338125 0.99015625,50.6173438 0.64484375,50.6173438 C0.2996875,50.6173438 0.0203125,50.338125 0.0203125,49.9928125 C0.0203125,17.7803125 31.2576563,0.276875 31.5734375,0.10375 C31.7979687,-0.01828125 32.0760937,0.00734375 32.2725,0.17140625 C32.4701563,0.33484375 32.5470312,0.60328125 32.4664062,0.8465625 C32.4371875,0.936875 29.5417187,9.92859375 33.5520312,13.9510938 C37.4165625,17.8046875 42.4645312,12.90875 42.6767187,12.6982813 C42.9207813,12.4573438 43.3121875,12.4585938 43.555,12.6995313 C43.7196875,12.8617187 59.979219,29.2117188 59.979219,49.9928125 C59.979219,50.338125 59.7003125,50.6173438 59.355,50.6173438 Z" id="Path">
										</path>
										<path d="M15.6348437,30.0065625 C15.5751562,30.0065625 15.5140625,29.9979687 15.4542187,29.9796875 C15.12375,29.8803125 14.9370312,29.5314062 15.0370312,29.2014063 C18.1873437,18.77875 24.989375,14.0707813 25.2773437,13.875625 C25.4529687,13.7560938 25.6810937,13.7334375 25.87625,13.8195313 C26.0726562,13.9042188 26.2115625,14.0842188 26.2451562,14.2951563 C26.2548437,14.3573438 27.2735937,20.5775 31.039375,23.918125 C31.2978125,24.146875 31.3198437,24.5421875 31.091875,24.8001563 C30.8617187,25.0575 30.4671875,25.0801563 30.2098437,24.8525 C27.0259375,22.0278125 25.6790625,17.515 25.215,15.5039063 C23.36875,17.0439063 18.6392187,21.6009375 16.2325,29.5623438 C16.1507812,29.8326562 15.903125,30.0065625 15.6348437,30.0065625 Z" id="Path">
										</path>
										<path d="M30,73.7267187 C27.926875,73.7267187 25.8598437,73.4546875 23.855,72.9192187 C21.8470313,72.3835937 19.9214062,71.5846875 18.13125,70.5442187 C16.3453125,69.5145312 14.691875,68.2459375 13.219375,66.7734375 C10.2564062,63.8239062 8.13140625,60.1398437 7.07359375,56.1228125 C6.538125,54.1209375 6.26609375,52.0532812 6.26609375,49.980625 C6.26609375,47.903125 6.538125,45.8392188 7.07421875,43.8471875 C7.6084375,41.8404687 8.40765625,39.9148437 9.44875,38.1240625 C10.4795312,36.3364062 11.7489062,34.6828125 13.219375,33.2121875 C14.69,31.7417187 16.3434375,30.4723437 18.1329687,29.4403125 C19.8804687,28.411875 21.8073437,27.6123437 23.8554688,27.0664062 C27.8639062,25.9953125 32.1346875,25.9946875 36.145625,27.0670312 C38.1803125,27.6085937 40.1053125,28.4040625 41.8692187,29.429375 C43.6357812,30.4479687 45.2898437,31.7209375 46.780625,33.2121875 C48.2615625,34.69375 49.53125,36.3429687 50.5523437,38.1135937 C51.6015625,39.93 52.3992187,41.86 52.92625,43.8495312 C53.461875,45.8525 53.73375,47.9201562 53.73375,49.9926562 C53.73375,52.0689062 53.461875,54.1329687 52.92625,56.12625 C52.394375,58.1365625 51.5942187,60.0664062 50.5510937,61.8607812 C49.5301562,63.6307812 48.2846875,65.256875 46.8476562,66.6951562 C46.826875,66.721875 46.805,66.74875 46.780625,66.773125 C45.308125,68.245625 43.6553125,69.5142187 41.866875,70.5451562 C40.0785937,71.584375 38.1535937,72.3834375 36.1445312,72.9189062 C34.1403125,73.4545312 32.07375,73.7267187 30,73.7267187 Z M30,27.508125 C28.0360937,27.508125 26.0770312,27.7654687 24.178125,28.2735937 C22.2385937,28.7903125 20.4167188,29.5459375 18.761875,30.519375 C17.0620313,31.5001562 15.495625,32.7023437 14.1025,34.0954687 C12.709375,35.4885937 11.5073438,37.0548437 10.5295313,38.7504687 C9.54328125,40.4467187 8.78703125,42.2698437 8.28125,44.1703125 C7.77265625,46.0575 7.5153125,48.0117187 7.5153125,49.980625 C7.5153125,51.9445312 7.77265625,53.9026562 8.280625,55.803125 C9.2821875,59.6079687 11.295,63.094375 14.101875,65.8890625 C15.498125,67.2857812 17.06375,68.4875 18.756875,69.4620312 C20.453125,70.4489063 22.275625,71.2051563 24.1773438,71.7114063 C27.9760938,72.7289062 32.0248438,72.7289062 35.8210938,71.7114063 C37.7242188,71.2051563 39.5467187,70.4489063 41.2398437,69.463125 C42.90875,68.5029688 44.4529688,67.3235938 45.8303125,65.9560938 C45.8510937,65.9279688 45.8729688,65.9010938 45.8996875,65.8754687 C47.2867188,64.499375 48.4882812,62.939375 49.4704688,61.2351563 C50.4584375,59.5359375 51.2148438,57.7085938 51.71875,55.8042188 C52.2273438,53.9146875 52.4846875,51.9603125 52.4846875,49.9928125 C52.4846875,48.0289063 52.2273438,46.0709375 51.71875,44.1703125 C51.2209375,42.285625 50.4646875,40.4589063 49.4704688,38.7382813 C48.503125,37.0615625 47.3014062,35.5001563 45.8973438,34.0954688 C44.4835938,32.6817188 42.9173438,31.4751563 41.2423438,30.5103125 C39.5735938,29.539375 37.7510938,28.7873438 35.8223438,28.2742188 C33.923125,27.765625 31.9640625,27.508125 30,27.508125 Z" id="Shape" fill-rule="nonzero">
										</path>
										<path d="M30.0103125,71.2271875 C24.3342188,71.2271875 18.9960938,69.015625 14.9809375,64.9998438 C10.9725,60.9914063 8.76453125,55.659375 8.76453125,49.986875 C8.76453125,44.313125 10.9725,38.9823437 14.9809375,34.9739062 C18.995625,30.9654687 24.3295313,28.7575 30,28.7575 C35.67,28.7575 41.0045313,30.9654687 45.0190625,34.9732812 C53.2873438,43.255625 53.2873438,56.7303125 45.0190625,65.0120313 C41.011875,69.0203125 35.6821875,71.2271875 30.0103125,71.2271875 Z M30,30.0065625 C24.663125,30.0065625 19.6426563,32.0845312 15.8642187,35.8576563 C12.0917187,39.6295313 10.01375,44.6475 10.01375,49.986875 C10.01375,55.3251563 12.0917188,60.3435938 15.8642187,64.1167188 C19.6439063,67.8970313 24.6679688,69.9782813 30.0104688,69.9782813 C35.3479687,69.9782813 40.3642188,67.9007813 44.1359375,64.1289063 C51.91875,56.3339063 51.91875,43.6521875 44.1359375,35.8571875 C40.3567188,32.0845312 35.336875,30.0065625 30,30.0065625 Z" id="Shape" fill-rule="nonzero">
										</path>
										<path d="M30,52.4910937 C29.3504688,52.4910937 28.7265625,52.23375 28.2421875,51.7651562 C27.7567188,51.2809375 27.495625,50.6478125 27.4987223,49.975625 C27.501875,49.3107812 27.7646875,48.68875 28.2385938,48.2239062 C29.1785938,47.2809375 30.833125,47.2784375 31.7701563,48.23125 C32.235,48.68875 32.4984375,49.3107812 32.5009741,49.975625 C32.5045313,50.6478125 32.2435938,51.2809375 31.7665625,51.7578125 C31.2929688,52.23125 30.6660938,52.4910937 30,52.4910937 Z M30.0042188,48.7401563 C29.67125,48.7401563 29.3559375,48.871875 29.1179688,49.1109375 C28.8789063,49.3451563 28.7496875,49.6526562 28.7477928,49.981875 C28.7459375,50.3173437 28.8776563,50.6345313 29.1173438,50.8748437 C29.6084375,51.348125 30.4146875,51.3407813 30.8825,50.8748437 C31.1221875,50.6345312 31.2540625,50.3175 31.2515625,49.981875 C31.2503125,49.6526562 31.1209375,49.3451563 30.8867188,49.1145313 C30.6467188,48.8704688 30.3360938,48.7401563 30.0042188,48.7401563 Z" id="Shape" fill-rule="nonzero">
										</path>
										<path d="M45.9021875,34.7157812 C45.74125,34.7157812 45.5826562,34.6548437 45.460625,34.5328125 C45.2165625,34.28875 45.2165625,33.8935938 45.460625,33.6496875 L45.8973437,33.2123438 C46.1414063,32.9682812 46.5365625,32.9682812 46.780625,33.2123438 C47.0245312,33.4564063 47.0245312,33.8515625 46.780625,34.0954688 L46.3439062,34.5328125 C46.221875,34.6548437 46.0609375,34.7157812 45.9021875,34.7157812 Z" id="Path">
										</path>
										<path d="M13.6610938,66.9564063 C13.5014063,66.9564063 13.3409375,66.8953125 13.2189063,66.7732812 C12.9754688,66.529375 12.9754688,66.1340625 13.2195313,65.8901563 L13.656875,65.4534375 C13.9009375,65.209375 14.2967188,65.209375 14.540625,65.4534375 C14.7840625,65.6975 14.7840625,66.0926563 14.54,66.3365625 L14.1026563,66.7732812 C13.9807813,66.8954687 13.8209375,66.9564063 13.6610938,66.9564063 Z" id="Path">
										</path>
										<path d="M41.2423438,31.1432812 C41.1373438,31.1432812 41.03125,31.1171875 40.93375,31.0617187 C40.6335938,30.8915625 40.5285938,30.5103125 40.699375,30.2101563 L41.0117188,29.660625 C41.18125,29.3610938 41.561875,29.255 41.863125,29.4264063 C42.1632813,29.5965625 42.2682813,29.9778125 42.0973438,30.2778125 L41.7851563,30.8275 C41.6704688,31.03 41.4595313,31.1432812 41.2423438,31.1432812 Z" id="Path">
										</path>
										<path d="M18.4448438,70.6282813 C18.3379688,70.6282813 18.2301563,70.6014062 18.13125,70.5442187 C17.8329688,70.3696875 17.7323438,69.9878125 17.905625,69.6901563 L18.2179688,69.1534375 C18.3910938,68.8532812 18.7735938,68.7532813 19.071875,68.9265625 C19.3701563,69.1009375 19.4707813,69.4828125 19.2975,69.7804687 L18.9851563,70.3171875 C18.869375,70.5173437 18.6601563,70.6282813 18.4448438,70.6282813 Z" id="Path">
										</path>
										<path d="M35.82125,28.8945312 C35.7675,28.8945312 35.7128125,28.8879687 35.6578125,28.8726563 C35.3259375,28.7829688 35.1284375,28.4396875 35.2185937,28.1071875 L35.3807812,27.5076563 C35.4698437,27.1740625 35.81375,26.9734375 36.1457812,27.0679688 C36.4801562,27.1576563 36.6764062,27.5009375 36.5860937,27.8334375 L36.4239062,28.4329688 C36.3482812,28.7115625 36.0970312,28.8945312 35.82125,28.8945312 Z" id="Path">
										</path>
										<path d="M24.0171875,72.9398438 C23.9628125,72.9398438 23.9079687,72.9325 23.85375,72.9178125 C23.520625,72.8275 23.3235937,72.4848437 23.4134375,72.1517188 L23.575625,71.5515625 C23.6659375,71.2184375 24.0092187,71.0232812 24.3417187,71.1123437 C24.6746875,71.2025 24.8717187,71.5453125 24.7820312,71.8784375 L24.6196875,72.4785938 C24.5442187,72.7570313 24.2923437,72.9398438 24.0171875,72.9398438 Z" id="Path">
										</path>
										<path d="M30,28.1328125 C29.6548438,28.1328125 29.3754687,27.8534375 29.3754687,27.508125 L29.3754687,26.8834375 C29.3754687,26.5382813 29.6548438,26.2589062 30,26.2589062 C30.3453125,26.2589062 30.6246875,26.5382813 30.6246875,26.8834375 L30.6246875,27.508125 C30.6246875,27.8534375 30.3453125,28.1328125 30,28.1328125 Z" id="Path">
										</path>
										<path d="M30,73.7267187 C29.6548438,73.7267187 29.3754687,73.4473437 29.3754687,73.1021875 L29.3754687,72.4776562 C29.3754687,72.1323437 29.6548438,71.853125 30,71.853125 C30.3453125,71.853125 30.6246875,72.1323437 30.6246875,72.4776562 L30.6246875,73.1021875 C30.6246875,73.4471875 30.3453125,73.7267187 30,73.7267187 Z" id="Path">
										</path>
										<path d="M24.178125,28.8945313 C23.903125,28.8945313 23.65125,28.7115625 23.5760938,28.4328125 L23.4139063,27.8332813 C23.3235938,27.5009375 23.520625,27.1575 23.8535938,27.0678125 C24.1823438,26.9757813 24.529375,27.1739063 24.6189063,27.5075 L24.78125,28.1070313 C24.8715625,28.439375 24.6745313,28.7828125 24.3415625,28.8725 C24.2873438,28.8878125 24.2325,28.8945313 24.178125,28.8945313 Z" id="Path">
										</path>
										<path d="M35.9823438,72.9398437 C35.7078125,72.9398437 35.4553125,72.756875 35.3796875,72.47875 L35.21875,71.8785937 C35.1285938,71.5454687 35.3260938,71.2026562 35.6579688,71.1125 C35.9873438,71.0257812 36.33375,71.2185937 36.4240625,71.5517187 L36.5875,72.151875 C36.6764063,72.485 36.4801563,72.8276562 36.1459375,72.9179687 C36.0920313,72.9326562 36.0371875,72.9398437 35.9823438,72.9398437 Z" id="Path">
										</path>
										<path d="M18.7582812,31.1432812 C18.5429687,31.1432812 18.33375,31.0323437 18.2179687,30.8329687 L17.905625,30.295625 C17.731875,29.9973437 17.83375,29.615 18.13125,29.4417187 C18.4289062,29.2679687 18.811875,29.3684375 18.9851562,29.6673437 L19.2975,30.2046875 C19.47125,30.5029687 19.3695312,30.8853125 19.071875,31.0585937 C18.9729687,31.1159375 18.865,31.1432812 18.7582812,31.1432812 Z" id="Path">
										</path>
										<path d="M41.5546875,70.6282813 C41.34,70.6282813 41.1301562,70.5173438 41.0154687,70.3171875 L40.703125,69.7804688 C40.53,69.4828125 40.63,69.1009375 40.9278125,68.9265625 C41.2253125,68.7521875 41.6082812,68.8532813 41.7817187,69.1534375 L42.0939062,69.6901563 C42.2671875,69.9878125 42.1671875,70.3696875 41.869375,70.5442188 C41.769375,70.6014062 41.6620312,70.6282813 41.5546875,70.6282813 Z" id="Path">
										</path>
										<path d="M14.0982813,34.7157812 C13.9385938,34.7157812 13.77875,34.6548437 13.6567188,34.5328125 L13.219375,34.0954687 C12.9753125,33.8514062 12.9753125,33.45625 13.219375,33.2123438 C13.4634375,32.9684375 13.8585938,32.9682812 14.1025,33.2123438 L14.5398438,33.6496875 C14.7839063,33.89375 14.7839063,34.2889063 14.5398438,34.5328125 C14.4179688,34.6548437 14.258125,34.7157812 14.0982813,34.7157812 Z" id="Path">
										</path>
										<path d="M46.3510938,66.9564063 L46.3390625,66.9564063 C46.1315625,66.9564063 45.9485938,66.85625 45.8351563,66.7014063 L45.4667188,66.3426563 C45.2190625,66.1023438 45.2129688,65.7071875 45.4532813,65.4595312 C45.6948438,65.213125 46.08875,65.2057813 46.3365625,65.4473438 L46.7732813,65.871875 C46.8353125,65.9304688 46.8829688,66.00125 46.9146875,66.079375 C46.9501562,66.1560937 46.9695313,66.2415625 46.9695313,66.3317188 C46.9695313,66.6770312 46.6964063,66.9564063 46.3510938,66.9564063 Z" id="Path">
										</path>
										<path d="M10.5253125,39.375 C10.4185937,39.375 10.310625,39.3476562 10.211875,39.2903125 L9.67453125,38.9779687 C9.376875,38.8048437 9.275,38.4223437 9.44890625,38.1240625 C9.62203125,37.8257812 10.0051562,37.7245312 10.3028125,37.8984375 L10.8401562,38.2107812 C11.1378125,38.3839062 11.2396875,38.7664062 11.0657812,39.0646875 C10.9498438,39.2640625 10.740625,39.375 10.5253125,39.375 Z" id="Path">
										</path>
										<path d="M50.0229688,62.1720313 L50.0107813,62.1720313 C49.9010938,62.1720313 49.7935938,62.1426563 49.6971875,62.0878125 L49.159375,61.775625 C48.8617188,61.6025 48.7603125,61.2192188 48.9348438,60.9215625 C49.1079688,60.6228125 49.4885937,60.5214063 49.78875,60.6948438 L50.29875,60.9923438 C50.50125,61.0960938 50.6426563,61.3059375 50.6426563,61.5475 C50.6426563,61.8926563 50.3695313,62.1720313 50.0229688,62.1720313 Z" id="Path">
										</path>
										<path d="M8.290625,44.7960937 C8.23765625,44.7960937 8.18390625,44.79 8.1303125,44.7753125 L7.51796875,44.613125 C7.18421875,44.5253125 6.98546875,44.1825 7.07390625,43.8495312 C7.16234375,43.5151563 7.50703125,43.3164063 7.8375,43.4053125 L8.44984375,43.5676562 C8.7834375,43.6554687 8.98234375,43.9982812 8.89390625,44.33125 C8.819375,44.6120313 8.566875,44.7960937 8.290625,44.7960937 Z" id="Path">
										</path>
										<path d="M52.32375,56.58875 C52.26875,56.58875 52.2139062,56.5814062 52.1603125,56.5667187 L51.56,56.404375 C51.2270313,56.3142187 51.0304687,55.9714062 51.1207813,55.6384375 C51.2085937,55.3054688 51.55375,55.1101563 51.8857813,55.1992188 L52.4846875,55.3614063 C52.8189063,55.4517187 53.0153125,55.794375 52.925,56.1275 C52.850625,56.405625 52.5982812,56.58875 52.32375,56.58875 Z" id="Path">
										</path>
										<path d="M7.51546875,50.6173437 C7.511875,50.6173437 7.5075,50.6173437 7.50328125,50.6173437 L6.87859375,50.6051563 C6.53390625,50.5978125 6.25953125,50.31375 6.26625,49.9684375 C6.27296875,49.6245312 6.495,49.3609375 6.903125,49.3560938 L7.52765625,49.3682813 C7.87234375,49.375625 8.14671875,49.6598438 8.14,50.005 C8.13328125,50.3454687 7.855,50.6173437 7.51546875,50.6173437 Z" id="Path">
										</path>
										<path d="M53.1092187,50.6173438 L52.496875,50.6173438 C52.1517188,50.6173438 51.8723437,50.338125 51.8723437,49.9928125 C51.8723437,49.6476563 52.1517188,49.3682813 52.496875,49.3682813 L53.1092187,49.3682813 C53.4545312,49.3682813 53.73375,49.6476563 53.73375,49.9928125 C53.73375,50.338125 53.4545312,50.6173438 53.1092187,50.6173438 Z" id="Path">
										</path>
										<path d="M7.67703125,56.58875 C7.39578125,56.58875 7.14078125,56.3984375 7.07078125,56.1129688 C6.9890625,55.7776563 7.19390625,55.4395313 7.52875,55.3578125 L8.14109375,55.2078125 C8.47640625,55.1235938 8.81390625,55.3298438 8.89671875,55.6653125 C8.9784375,56.000625 8.7734375,56.33875 8.43859375,56.4203125 L7.82625,56.5704688 C7.77640625,56.5826563 7.72640625,56.58875 7.67703125,56.58875 Z" id="Path">
										</path>
										<path d="M51.7223438,44.7839063 C51.4429688,44.7839063 51.1879688,44.5948438 51.1171875,44.310625 C51.0329688,43.9764063 51.236875,43.6373438 51.5709375,43.553125 L52.17,43.4029688 C52.5065625,43.325 52.844375,43.5226563 52.9285938,43.8579688 C53.0115625,44.1923438 52.8089063,44.5315625 52.4748438,44.615625 L51.8746875,44.765625 C51.8235938,44.7778125 51.7723438,44.7839063 51.7223438,44.7839063 Z" id="Path">
										</path>
										<path d="M9.98921875,62.1598438 C9.7703125,62.1598438 9.55734375,62.0453125 9.44328125,61.8401562 C9.275,61.5389063 9.3828125,61.1584375 9.68421875,60.99 L10.2215625,60.69 C10.5215625,60.5215625 10.9034375,60.6289063 11.07125,60.9301563 C11.2395312,61.2315625 11.1315625,61.6120313 10.8303125,61.7803125 L10.2929688,62.0804687 C10.1967187,62.1342188 10.0923438,62.1598438 9.98921875,62.1598438 Z" id="Path">
										</path>
										<path d="M49.4742187,39.3629688 C49.259375,39.3629688 49.0495313,39.251875 48.935,39.0525 C48.7604687,38.7542188 48.8617188,38.371875 49.1595313,38.1985938 L49.6973438,37.88625 C50.0939063,37.656875 50.6428125,37.9710938 50.6428125,38.4260938 C50.6428125,38.6871875 50.4854687,38.9104688 50.2598437,39.0035938 L49.7889062,39.278125 C49.68875,39.3354688 49.5814063,39.3629688 49.4742187,39.3629688 Z" id="Path">
										</path>
									</g>
									<g transform="translate(11.875000, 31.718750)" id="Path">
										<path d="M30.9703125,6.08875 C30.625,6.08875 30.3384375,5.809375 30.3384375,5.46421875 C30.3384375,5.1190625 30.6115625,4.83953125 30.958125,4.83953125 L30.9703125,4.83953125 C31.314375,4.83953125 31.5948438,5.11890625 31.5948438,5.46421875 C31.5948438,5.80953125 31.314375,6.08875 30.9703125,6.08875 Z">
										</path>
										<path d="M5.35359375,31.7048438 C5.0090625,31.7048438 4.72296875,31.4254688 4.72296875,31.0803125 C4.72296875,30.7351563 4.99625,30.4557813 5.34140625,30.4557813 L5.35359375,30.4557813 C5.69890625,30.4557813 5.97828125,30.7351563 5.97828125,31.0803125 C5.97828125,31.4254688 5.69890625,31.7048438 5.35359375,31.7048438 Z">
										</path>
										<path d="M22.8482813,1.40203125 C22.504375,1.40203125 22.2189062,1.12265625 22.2189062,0.77734375 C22.2189062,0.4321875 22.4921875,0.1528125 22.8360937,0.1528125 L22.8482812,0.1528125 C23.1948437,0.1528125 23.4728126,0.4321875 23.4728126,0.77734375 C23.4729687,1.1228125 23.1948438,1.40203125 22.8482813,1.40203125 Z">
										</path>
										<path d="M13.473125,36.3928125 C13.1284375,36.3928125 12.8425,36.1135937 12.8425,35.7682812 C12.8425,35.423125 13.1157812,35.14375 13.4609375,35.14375 L13.473125,35.14375 C13.8182813,35.14375 14.0976563,35.423125 14.0976563,35.7682812 C14.0976563,36.1135937 13.8182813,36.3928125 13.473125,36.3928125 Z">
										</path>
										<path d="M13.473125,1.40078125 C13.1284375,1.40078125 12.8425,1.12140625 12.8425,0.77609375 C12.8425,0.4309375 13.1157812,0.1515625 13.4609375,0.1515625 L13.473125,0.1515625 C13.8182813,0.1515625 14.0976563,0.4309375 14.0976563,0.77609375 C14.0976563,1.1215625 13.8182813,1.40078125 13.473125,1.40078125 Z">
										</path>
										<path d="M22.8482813,36.3915625 C22.504375,36.3915625 22.2189062,36.1123438 22.2189062,35.7670313 C22.2189062,35.421875 22.4921875,35.1425 22.8360937,35.1425 L22.8482812,35.1425 C23.1948437,35.1425 23.4728126,35.421875 23.4728126,35.7670313 C23.4729687,36.1123438 23.1948438,36.3915625 22.8482813,36.3915625 Z">
										</path>
										<path d="M5.35359375,6.09 C5.0090625,6.09 4.72296875,5.810625 4.72296875,5.46546875 C4.72296875,5.1203125 4.99625,4.84078125 5.34140625,4.84078125 L5.35359375,4.84078125 C5.69890625,4.84078125 5.97828125,5.12015625 5.97828125,5.46546875 C5.97828125,5.81078125 5.69890625,6.09 5.35359375,6.09 Z">
										</path>
										<path d="M30.9678125,31.7035938 C30.62375,31.7035938 30.3384375,31.4242188 30.3384375,31.0790625 C30.3384375,30.7339063 30.6115625,30.4545312 30.955625,30.4545312 L30.9678125,30.4545312 C31.314375,30.4545312 31.5923438,30.7339063 31.5923438,31.0790625 C31.5923438,31.4242188 31.314375,31.7035938 30.9678125,31.7035938 Z">
										</path>
										<path d="M0.665625,14.2082813 C0.32109375,14.2082813 0.035,13.9289063 0.035,13.58375 C0.035,13.2385938 0.30828125,12.9592187 0.6534375,12.9592187 L0.665625,12.9592187 C1.0109375,12.9592187 1.2903125,13.2385938 1.2903125,13.58375 C1.2903125,13.9289063 1.0109375,14.2082813 0.665625,14.2082813 Z">
										</path>
										<path d="M35.6570312,23.5842188 C35.311875,23.5842188 35.0251563,23.3048437 35.0251563,22.9595313 C35.0251563,22.614375 35.2984375,22.335 35.6448437,22.335 L35.6570312,22.335 C36.0009375,22.335 36.2815625,22.614375 36.2815625,22.9595313 C36.2815625,23.3048437 36.0009375,23.5842188 35.6570312,23.5842188 Z">
										</path>
										<path d="M0.665625,23.5854688 C0.32109375,23.5854688 0.035,23.3060937 0.035,22.9607813 C0.035,22.615625 0.30828125,22.33625 0.6534375,22.33625 L0.665625,22.33625 C1.0109375,22.33625 1.2903125,22.615625 1.2903125,22.9607813 C1.29015625,23.3060937 1.0109375,23.5854688 0.665625,23.5854688 Z">
										</path>
										<path d="M35.6545313,14.2082813 C35.310625,14.2082813 35.0251563,13.9289063 35.0251563,13.58375 C35.0251563,13.2385938 35.2984375,12.9592187 35.6423437,12.9592187 L35.6545312,12.9592187 C36.0009375,12.9592187 36.2790625,13.2385938 36.2790625,13.58375 C36.2790625,13.9289063 36.0009375,14.2082813 35.6545313,14.2082813 Z">
										</path>
									</g>
								</g>
							</g>
						</g>
					</g>
				</g>
			</g>
		</g>
	</g>
</svg>
