<?xml version="1.0" encoding="UTF-8"?>
<svg width="15px" height="15px" viewBox="0 0 15 15" version="1.1" xmlns="http://www.w3.org/2000/svg" xmlns:xlink="http://www.w3.org/1999/xlink">
    <path fill="#fff" d="M9.28272779,7.50003521 L14.6307791,2.15197763 C15.1230736,1.65968251 15.1230736,0.861516466 14.6307791,0.369291771 C14.1384845,-0.123003352 13.3403899,-0.123003352 12.8480953,0.369291771 L7.49997359,5.71741978 L2.15185186,0.369221343 C1.65955731,-0.123073781 0.861462634,-0.123073781 0.369168088,0.369221343 C-0.123056029,0.861516466 -0.123056029,1.65968251 0.369168088,2.1519072 L5.71728982,7.49996479 L0.369168088,12.8480928 C-0.123056029,13.3403879 -0.123056029,14.138554 0.369168088,14.6307787 C0.861462634,15.1230738 1.65955731,15.1230738 2.15185186,14.6307787 L7.49997359,9.28265065 L12.8480953,14.6307787 C13.3403194,15.1230738 14.1384845,15.1230738 14.6307791,14.6307787 C15.1230736,14.1384835 15.1230736,13.3403879 14.6307791,12.8480928 L9.28272779,7.50003521 Z"></path>
</svg>
