<?xml version="1.0" encoding="UTF-8"?>
<svg width="64px" height="64px" viewBox="0 0 64 64" version="1.1" xmlns="http://www.w3.org/2000/svg" xmlns:xlink="http://www.w3.org/1999/xlink">
    <!-- Generator: Sketch 52.2 (67145) - http://www.bohemiancoding.com/sketch -->
    <title>Icon/Large/Connect-account</title>
    <desc>Created with Sketch.</desc>
    <g id="Icon/Large/Connect-account" stroke="none" stroke-width="1" fill="none" fill-rule="evenodd">
        <g id="Group-2">
            <rect id="Rectangle" x="0" y="0" width="64" height="64"></rect>
            <g id="11-link,-url,-build,-plus,-seo,-promotion,-marketing" fill-rule="nonzero">
                <path d="M57.54775,24.820125 C57.550625,24.817625 57.552625,24.81575 57.5555,24.81325 C62.629375,19.738875 62.630375,11.511625 57.5555,6.436875 C52.480625,1.362 44.253,1.362 39.179125,6.436875 L39.178125,6.436875 L32.109625,13.505875 C27.03475,18.58075 27.03475,26.807875 32.109625,31.88275 C37.183875,36.957625 45.411625,36.957625 50.4865,31.88275 C50.4885,31.88025 50.490375,31.877875 50.492375,31.875375 L57.54775,24.820125 Z M47.660625,29.0545 C47.660625,29.055 47.659625,29.0555 47.659625,29.056 C44.146625,32.569 38.45,32.569 34.937,29.0555 C31.424,25.5425 31.424,19.84675 34.937,16.33325 L34.938,16.33225 L42.005,9.264625 C45.518,5.752 51.21475,5.751625 54.72775,9.264625 C58.24075,12.778125 58.24075,18.47425 54.72775,21.98725 L47.660625,29.0545 Z" id="Shape" fill="#94C1FF"></path>
                <path d="M59.666875,22.700875 C59.66975,22.698375 59.67175,22.697 59.674625,22.6945 C64.7485,17.619625 64.7485,9.392375 59.674625,4.318125 C54.59975,-0.75675 46.372125,-0.75675 41.29725,4.317625 L41.29725,4.318125 L34.22825,11.386625 C29.153875,16.4615 29.153875,24.689125 34.22825,29.764 C39.303125,34.838375 47.52975,34.838375 52.604625,29.7635 C52.6075,29.761 52.6095,29.758625 52.6115,29.756125 L59.666875,22.700875 Z M49.77975,26.93525 C49.77975,26.93575 49.77875,26.93675 49.77875,26.93675 C46.26475,30.45025 40.569125,30.44975 37.056125,26.93675 C33.543125,23.42325 33.543125,17.7275 37.056125,14.2145 C37.056125,14.214 37.057125,14.2135 37.057125,14.213 L44.124125,7.145875 C47.63725,3.632875 53.332875,3.632875 56.846875,7.145875 C60.359875,10.658875 60.359,16.355 56.846875,19.868 L49.77975,26.93525 Z" id="Shape" fill="#D7E9FF"></path>
                <path d="M29.75625,52.6115 C29.759125,52.6095 29.761625,52.607625 29.763625,52.605625 C34.8375,47.530875 34.8375,39.303125 29.763625,34.229375 C24.68875,29.154 16.4615,29.154 11.38675,34.228375 L4.31775,41.298375 C-0.756625,46.37225 -0.756625,54.599875 4.31825,59.67475 C9.392625,64.749625 17.62025,64.749625 22.694625,59.67475 C22.697125,59.671875 22.699,59.669875 22.701,59.667 L29.75625,52.6115 Z M19.86925,56.84675 C19.86925,56.84675 19.86825,56.84675 19.86775,56.84775 C16.35475,60.360875 10.658625,60.360875 7.145,56.84775 C3.632,53.333875 3.632,47.638125 7.145,44.125125 L7.1465,44.124125 L14.214625,37.056125 C17.727125,33.544 23.42325,33.543125 26.93675,37.056125 C30.44975,40.569125 30.449375,46.26575 26.93675,49.77875 L19.86925,56.84675 Z" id="Shape" fill="#5C9EFF"></path>
                <path d="M31.875375,50.49325 C31.87825,50.490375 31.88075,50.488375 31.88275,50.486375 C36.95675,45.411625 36.95775,37.183875 31.88325,32.1095 C26.8085,27.03475 18.58025,27.03525 13.506,32.1095 L6.437,39.179125 C1.362125,44.253 1.362125,52.480625 6.437,57.5555 C11.511875,62.630375 19.739,62.630375 24.813375,57.5555 C24.81625,57.552625 24.81825,57.550625 24.82025,57.548625 L31.875375,50.49325 Z M21.987875,54.727625 C21.987875,54.727625 21.987375,54.727625 21.986875,54.728625 C18.473375,58.24175 12.77725,58.24175 9.264125,54.728625 C5.751125,51.215625 5.751125,45.52 9.264125,42.006 L9.265625,42.005 L16.33325,34.937 C19.84575,31.424875 25.542375,31.424 29.055375,34.937 C32.568875,38.45 32.568,44.146625 29.055875,47.659625 L21.987875,54.727625 Z" id="Shape" fill="#94C1FF"></path>
                <path d="M7.85025,40.592625 L14.91925,33.5235 C19.755,28.687375 27.448125,28.470625 32.55425,32.851875 C32.338125,32.600625 32.121375,32.34825 31.883125,32.109625 C26.808375,27.034875 18.580125,27.035375 13.505875,32.109625 L6.436875,39.17925 C1.362,44.253125 1.362,52.48075 6.436875,57.555625 C6.6755,57.79375 6.927875,58.0105 7.179625,58.22625 C2.797875,53.121 3.014625,45.428375 7.85025,40.592625 Z" id="Shape" fill="#D7E9FF"></path>
                <path d="M30.469875,49.072125 L23.40075,56.141125 C18.565125,60.976875 10.871875,61.1935 5.76575,56.81275 C5.981875,57.064625 6.198125,57.316375 6.436875,57.5555 C11.51175,62.630375 19.739875,62.629375 24.81425,57.5545 L31.88325,50.485375 C36.95775,45.411625 36.95775,37.183875 31.88275,32.109 C31.644125,31.870875 31.39175,31.654125 31.14,31.4385 C35.52175,36.54375 35.305,44.2365 30.469875,49.072125 Z" id="Shape" fill="#5C9EFF"></path>
                <path d="M35.64175,12.800625 L42.710875,5.7315 C47.546625,0.895875 55.24025,0.679125 60.345375,5.0605 C60.1295,4.808625 59.912875,4.556375 59.67475,4.318125 C54.599875,-0.75675 46.37225,-0.75675 41.297375,4.318125 L34.228375,11.387125 C29.154,16.4615 29.154,24.689125 34.228375,29.764 C34.4665,30.002625 34.719375,30.218875 34.971125,30.435125 C30.589375,25.329625 30.806125,17.636375 35.64175,12.800625 Z" id="Shape" fill="#FFFFFF"></path>
                <path d="M58.261375,21.280625 L51.19225,28.349625 C46.3565,33.18575 38.662875,33.402375 33.55675,29.02075 C33.7735,29.273125 33.989125,29.525375 34.228375,29.7635 C39.30325,34.838375 47.530875,34.837375 52.60575,29.763 L59.67475,22.694 C64.749625,17.619625 64.748625,9.392375 59.67375,4.317625 C59.435625,4.079 59.18375,3.86275 58.931,3.6465 C63.313625,8.75225 63.097,16.445 58.261375,21.280625 Z" id="Shape" fill="#94C1FF"></path>
                <path d="M29.506875,30.24525 L24.446125,35.306 C25.345625,35.7345 26.192,36.311375 26.93675,37.056125 C27.6815,37.800875 28.258375,38.64725 28.686875,39.54625 L33.747125,34.486 C33.226875,33.64275 32.613875,32.840875 31.883125,32.109625 C31.152125,31.3785 30.35025,30.765625 29.506875,30.24525 Z" id="Shape" fill="#2287FF"></path>
                <path d="M34.486125,33.747125 L39.54625,28.687375 C38.64725,28.258375 37.800875,27.6815 37.056125,26.93675 C36.311375,26.192 35.7345,25.345625 35.305,24.446625 L30.24525,29.50675 C30.766125,30.350125 31.3785,31.152 32.10975,31.882625 C32.840875,32.613875 33.64275,33.22675 34.486125,33.747125 Z" id="Shape" fill="#94C1FF"></path>
                <path d="M39.885875,26.93625 C40.664875,26.154375 40.664875,24.888875 39.883875,24.1075 C39.103125,23.326125 37.835,23.326125 37.054125,24.1075 C37.046375,24.11575 37.0405,24.126 37.032625,24.13375 L24.13625,37.03075 C24.128,37.0385 24.118125,37.044375 24.109875,37.05225 C23.3285,37.834125 23.3285,39.101125 24.109875,39.882 C24.890875,40.662875 26.15675,40.662875 26.938125,39.884 L39.885875,26.93625 Z" id="Shape" fill="#FFFFFF"></path>
                <path d="M35.644625,35.41825 C33.6925,37.3705 30.529375,37.3705 28.577125,35.41825 C26.625875,33.467 26.625875,30.302875 28.577125,28.351125 C30.529375,26.399375 33.6925,26.399375 35.644625,28.350625 C37.596,30.302875 37.596,33.466875 35.644625,35.41825 Z" id="Shape" fill="#FFFFFF"></path>
                <g id="_x31_1_link_x2C__url_x2C__build_x2C__plus_x2C__seo_x2C__promotion_x2C__marketing" fill="#116FFF">
                    <g id="Group" transform="translate(27.750000, 0.000000)">
                        <path d="M15.682125,34.074125 C14.322375,34.074125 12.951,33.86825 11.60875,33.4455 C11.345375,33.363625 11.198875,33.0825 11.281875,32.819375 C11.36475,32.556375 11.645875,32.41175 11.9085,32.492375 C16.37225,33.8965 21.19725,32.715375 24.501375,29.40975 L31.5705,22.34125 C33.93075,19.982 35.230875,16.84475 35.230875,13.507375 C35.230875,10.170125 33.93075,7.031875 31.5705,4.6715 C26.698625,-0.19925 18.772625,-0.19925 13.900875,4.6715 L6.83175,11.741625 C3.52625,15.047125 2.346,19.874125 3.752125,24.337875 C3.835125,24.601375 3.688625,24.882125 3.425625,24.965 C3.160625,25.049 2.881875,24.902125 2.7985,24.6385 C1.28,19.8175 2.554875,14.605 6.125,11.034875 L13.194,3.964875 C18.455375,-1.295375 27.016875,-1.295375 32.277125,3.964875 C34.82675,6.514 36.230375,9.903125 36.230375,13.507375 C36.230375,17.111625 34.825875,20.50025 32.277125,23.047875 L25.208125,30.1165 C22.634,32.691875 19.203,34.074125 15.682125,34.074125 Z" id="Shape"></path>
                        <path d="M13.566875,36.19325 C12.597625,36.19325 11.6195,36.08875 10.646375,35.875 C10.377,35.8165 10.20625,35.549875 10.26575,35.279625 C10.32425,35.009125 10.591625,34.838375 10.860125,34.898875 C15.04975,35.8155 19.353375,34.55725 22.38125,31.52975 L24.501375,29.409625 C24.696625,29.214375 25.012875,29.214375 25.208125,29.409625 C25.403375,29.604875 25.403375,29.921125 25.208125,30.116375 L23.088,32.2365 C20.52175,34.80225 17.104375,36.19325 13.566875,36.19325 Z" id="Shape"></path>
                        <path d="M0.856875,25.99425 C0.6275,25.99425 0.4205,25.83525 0.36925,25.601875 C-0.625,21.0785 0.73425,16.425375 4.00525,13.154875 L6.125,11.034875 C6.32025,10.839625 6.6365,10.839625 6.831625,11.034875 C7.026875,11.230125 7.026875,11.546375 6.831625,11.741625 L4.712,13.86175 C1.68325,16.890125 0.424875,21.198625 1.345375,25.38725 C1.405,25.657125 1.234,25.923625 0.964625,25.982625 C0.928625,25.990375 0.8925,25.99425 0.856875,25.99425 Z" id="Shape"></path>
                        <path d="M15.685,30.077875 C14.668875,30.077875 13.641,29.913875 12.6375,29.577625 C12.376,29.48975 12.234375,29.206625 12.322375,28.944625 C12.41125,28.6835 12.695125,28.545 12.955875,28.629875 C16.037375,29.662625 19.378625,28.87775 21.6765,26.582 L28.7435,19.514875 C30.34925,17.909125 31.232625,15.775375 31.232625,13.506375 C31.232625,11.2375 30.34925,9.104125 28.7435,7.499375 C27.13875,5.894625 25.005,5.01025 22.735625,5.01025 L22.734625,5.01025 C20.465125,5.01025 18.33225,5.894125 16.7275,7.499375 L9.6605,14.566875 C7.361625,16.865125 6.577875,20.206875 7.613625,23.289 C7.701375,23.550625 7.559875,23.834125 7.29825,23.922 C7.03875,24.009875 6.75375,23.86875 6.66575,23.607125 C5.508,20.163375 6.385625,16.42825 8.95375,13.860125 L16.020875,6.7925 C17.814,4.998375 20.198625,4.010625 22.734625,4.010625 L22.735625,4.010625 C25.2715,4.010625 27.656125,4.998875 29.450375,6.7925 C31.2445,8.586125 32.23225,10.970375 32.23225,13.50625 C32.23325,16.04225 31.2445,18.427375 29.450375,20.2215 L22.38325,27.288625 C20.56375,29.107625 18.157625,30.077875 15.685,30.077875 Z" id="Shape"></path>
                        <path d="M26.97775,22.486625 C26.849875,22.486625 26.722,22.437875 26.624375,22.34025 C26.429125,22.145 26.429125,21.82875 26.624375,21.633625 C29.937375,18.321125 29.937375,12.931 26.624375,9.618625 C23.310375,6.305625 17.920375,6.306125 14.608375,9.617125 C14.413125,9.812375 14.096875,9.812375 13.90175,9.617125 C13.7065,9.421875 13.7065,9.105625 13.90175,8.910375 C17.603125,5.2085 23.62775,5.209 27.33125,8.911875 C31.033625,12.614375 31.033625,18.638 27.33125,22.340375 C27.2335,22.437875 27.105625,22.486625 26.97775,22.486625 Z" id="Shape"></path>
                    </g>
                    <g id="Group" transform="translate(0.000000, 27.750000)">
                        <path d="M15.6275,34.10925 C12.02325,34.10925 8.634625,32.705625 6.086375,30.156 C3.53725,27.60825 2.133125,24.22025 2.132625,20.615375 C2.132625,17.011625 3.535875,13.6235 6.084375,11.074875 L13.1535,4.005875 C16.425375,0.733875 21.0785,-0.625875 25.601375,0.36975 C25.87075,0.428875 26.0415,0.69575 25.982,0.96525 C25.923,1.234625 25.654,1.4035 25.386625,1.346 C21.2,0.4265 16.8905,1.68375 13.860125,4.712625 L6.79125,11.781625 C4.4315,14.140875 3.13225,17.279 3.13225,20.615375 C3.13225,23.95275 4.4325,27.09 6.79325,29.44925 C9.153,31.8095 12.29025,33.10975 15.627625,33.10975 C18.964,33.10975 22.10125,31.810375 24.461,29.451125 L31.530125,22.382125 C34.5585,19.354125 35.81775,15.0465 34.898125,10.859 C34.838625,10.589625 35.0095,10.323125 35.278875,10.2635 C35.546375,10.203125 35.81475,10.373875 35.874375,10.64425 C36.868,15.166625 35.50825,19.81875 32.23675,23.08875 L25.16775,30.157875 C22.618875,32.705625 19.230875,34.10925 15.6275,34.10925 Z" id="Shape"></path>
                        <path d="M13.507375,36.230375 C9.903125,36.230375 6.5145,34.827625 3.965375,32.279125 C-1.294875,27.01675 -1.295875,18.45625 3.963875,13.196 L6.0845,11.074875 C6.27975,10.879625 6.596,10.879625 6.79125,11.074875 C6.9865,11.270125 6.9865,11.586375 6.79125,11.781625 L4.670625,13.90275 C-0.19925,18.7735 -0.19875,26.699625 4.672,31.57225 C7.03225,33.9315 10.17,35.230875 13.50725,35.230875 C16.844125,35.230875 19.981375,33.930625 22.340125,31.571375 L24.46075,29.45125 C24.656,29.256 24.97225,29.256 25.1675,29.45125 C25.36275,29.6465 25.36275,29.96275 25.1675,30.158 L23.046875,32.278125 C20.49925,34.826625 17.11125,36.230375 13.507375,36.230375 Z" id="Shape"></path>
                        <path d="M15.6255,30.108125 C13.1935,30.108125 10.7625,29.18275 8.91125,27.331 C7.118125,25.536875 6.13075,23.15225 6.13075,20.61525 C6.13125,18.079375 7.119,15.69475 8.912625,13.902625 L15.980625,6.8325 C18.548375,4.263875 22.283875,3.38875 25.730125,4.5455 C25.99175,4.63325 26.13275,4.916875 26.044875,5.178375 C25.957125,5.4395 25.6745,5.581125 25.412,5.49325 C22.328375,4.457125 18.98475,5.241875 16.6875,7.53925 L9.6195,14.60925 C8.01475,16.213 7.130875,18.345875 7.130375,20.61525 C7.130375,22.88475 8.01375,25.0195 9.618,26.62425 C12.931375,29.93825 18.3215,29.93525 21.635,26.62325 L28.703,19.555125 C31.00025,17.258375 31.784625,13.917125 30.7495,10.833625 C30.661625,10.572 30.802625,10.289 31.06425,10.201125 C31.32725,10.109375 31.609375,10.25375 31.69725,10.515375 C32.8535,13.961 31.977375,17.695625 29.40975,20.262 L22.341625,27.33 C20.49,29.18175 18.0575,30.107125 15.6255,30.108125 Z" id="Shape"></path>
                        <path d="M14.215125,9.804 C14.08725,9.804 13.959375,9.755125 13.86175,9.657625 C13.6665,9.462375 13.6665,9.146125 13.86175,8.950875 C16.430375,6.38275 20.164,5.50525 23.61025,6.66775 C23.871875,6.7555 24.012375,7.038625 23.924,7.30025 C23.83675,7.561875 23.555125,7.7025 23.291125,7.614625 C20.209,6.578 16.86675,7.359875 14.5685,9.65775 C14.470875,9.755125 14.342875,9.804 14.215125,9.804 Z" id="Shape"></path>
                        <path d="M26.93775,22.526625 C26.809875,22.526625 26.682,22.477875 26.584375,22.38025 C26.389125,22.185 26.389125,21.86875 26.584375,21.6735 C28.88275,19.37575 29.6665,16.0355 28.629375,12.954875 C28.5415,12.69325 28.682,12.41025 28.943625,12.322375 C29.208125,12.236375 29.48925,12.375 29.577125,12.636625 C30.735875,16.0795 29.85975,19.813125 27.291125,22.38025 C27.1935,22.477875 27.065625,22.526625 26.93775,22.526625 Z" id="Shape"></path>
                    </g>
                    <path d="M37.76475,29.556625 C37.637,29.556625 37.509,29.50775 37.4115,29.41025 C37.21625,29.215 37.21625,28.89875 37.4115,28.7035 L39.531625,26.583375 C40.115375,25.999125 40.115375,25.0475 39.531625,24.46175 C38.9655,23.895625 37.977625,23.895125 37.4115,24.46225 C37.397875,24.475875 37.383125,24.489125 37.3675,24.50125 L35.288375,26.580375 C35.093125,26.775625 34.776875,26.775625 34.581625,26.580375 C34.386375,26.385125 34.386375,26.068875 34.581625,25.87375 L36.70175,23.753125 C36.717375,23.7375 36.734,23.722875 36.7515,23.709625 C37.699375,22.807625 39.309875,22.82525 40.23825,23.7555 C41.2125,24.730625 41.2115,26.31625 40.23825,27.29 L38.118125,29.410125 C38.020625,29.50775 37.89275,29.556625 37.76475,29.556625 Z" id="Shape"></path>
                    <path d="M25.522875,40.966375 C25.522375,40.966375 25.522375,40.966375 25.521875,40.966375 C24.85525,40.966375 24.227625,40.70675 23.755625,40.234375 C22.781875,39.261125 22.781875,37.675875 23.755125,36.70075 L26.10125,34.35425 C26.2965,34.159 26.61275,34.159 26.808,34.35425 C27.00325,34.5495 27.00325,34.86575 26.808,35.060875 L24.462375,37.4075 C23.87825,37.992125 23.87825,38.943875 24.462375,39.527625 C24.746,39.810625 25.12225,39.966875 25.522375,39.966875 C25.522375,39.966875 25.522375,39.966875 25.522875,39.966875 C25.922625,39.966875 26.298875,39.810625 26.5825,39.527625 C26.597125,39.513 26.61225,39.49925 26.628875,39.486625 L28.930625,37.184875 C29.125875,36.989625 29.442125,36.989625 29.637375,37.184875 C29.832625,37.380125 29.832625,37.696375 29.637375,37.891625 L27.29175,40.23725 C27.275625,40.253875 27.258,40.2685 27.24,40.282125 C26.77375,40.724375 26.166625,40.966375 25.522875,40.966375 Z" id="Shape"></path>
                    <path d="M32.11175,37.38225 C30.643625,37.38225 29.262875,36.81025 28.22425,35.771625 C27.185625,34.734 26.614125,33.35275 26.614125,31.884625 C26.614125,30.416625 27.185625,29.035875 28.22425,27.99725 C29.262875,26.958625 30.643125,26.387125 32.11175,26.387125 C33.58025,26.387125 34.9605,26.959125 35.998125,27.99775 C38.141625,30.140875 38.141625,33.628 35.998125,35.7715 C34.9605,36.810125 33.58025,37.38225 32.11175,37.38225 Z M32.11175,27.38675 C30.910125,27.38675 29.78075,27.85425 28.931,28.704 C28.08125,29.55375 27.61375,30.683625 27.61375,31.884625 C27.61375,33.08625 28.081375,34.215625 28.931,35.06475 C29.780625,35.915 30.9105,36.3825 32.11175,36.3825 C33.31275,36.3825 34.44225,35.915 35.2915,35.06475 C37.0445,33.31075 37.0445,30.458 35.2915,28.704375 C34.442125,27.85425 33.31275,27.38675 32.11175,27.38675 Z" id="Shape"></path>
                    <path d="M32.11175,34.3835 C31.8355,34.3835 31.611875,34.16 31.611875,33.88375 L31.611875,29.885125 C31.611875,29.608875 31.8355,29.38525 32.11175,29.38525 C32.387875,29.38525 32.6115,29.608875 32.6115,29.885125 L32.6115,33.88375 C32.6115,34.16 32.387875,34.3835 32.11175,34.3835 Z" id="Shape"></path>
                    <path d="M34.11025,32.383875 L30.112125,32.383875 C29.835875,32.383875 29.612375,32.160375 29.612375,31.884125 C29.612375,31.607875 29.835875,31.384375 30.112125,31.384375 L34.11025,31.384375 C34.3865,31.384375 34.61,31.607875 34.61,31.884125 C34.61,32.160375 34.3865,32.383875 34.11025,32.383875 Z" id="Shape"></path>
                </g>
            </g>
        </g>
    </g>
</svg>