<?xml version="1.0" encoding="UTF-8"?>
<svg width="56px" height="54px" viewBox="0 0 56 54" version="1.1" xmlns="http://www.w3.org/2000/svg" xmlns:xlink="http://www.w3.org/1999/xlink">
    <!-- Generator: Sketch 52.1 (67048) - http://www.bohemiancoding.com/sketch -->
    <title>24. scroll, magic, halloween, legend, story, fantasy</title>
    <desc>Created with Sketch.</desc>
    <g id="Symbols" stroke="none" stroke-width="1" fill="none" fill-rule="evenodd">
        <g id="Icon/Large/Skill-template/Story" transform="translate(-4.000000, -6.000000)" fill-rule="nonzero">
            <g id="24.-scroll,-magic,-halloween,-legend,-story,-fantasy" transform="translate(4.000000, 6.000000)">
                <path d="M51.5496303,6.98915948 C51.5496303,9.04604741 49.8907261,10.7121336 47.8447751,10.7121336 C45.796971,10.7121336 44.1399198,9.04604741 44.1399198,6.98915948 C44.1399198,4.93227155 45.7970869,3.26618534 47.8447751,3.26618534 C49.8907261,3.26618534 51.5496303,4.93227155 51.5496303,6.98915948 Z" id="Shape" fill="#5C9EFF"></path>
                <path d="M44.139804,49.8034784 C44.139804,51.8603664 42.4808998,53.5264526 40.4349488,53.5264526 C38.3871448,53.5264526 36.7300935,51.8603664 36.7300935,49.8034784 C36.7300935,47.7465905 38.3872606,46.0805043 40.4349488,46.0805043 C42.4808998,46.0805043 44.139804,47.7467069 44.139804,49.8034784 Z" id="Shape" fill="#94C1FF"></path>
                <path d="M44.139804,24.6733448 L44.139804,47.011306 L42.8789488,47.011306 C42.2313229,46.434181 41.3702539,46.0805043 40.434833,46.0805043 L12.6478396,46.0805043 L12.6478396,44.2191336 L12.6478396,34.9114655 L12.6478396,13.5044224 L12.6478396,5.59307328 C12.6478396,4.30871121 13.6852918,3.26618534 14.9634031,3.26618534 L47.8446592,3.26618534 C45.7968552,3.26618534 44.139804,4.93227155 44.139804,6.98915948 L44.139804,24.6733448 Z" id="Shape" fill="#D7E9FF"></path>
                <path d="M45.9923474,3.26618534 C43.9443118,3.26618534 42.2874922,4.93227155 42.2874922,6.98915948 L42.2874922,24.6733448 L42.2874922,46.5887328 C42.4972294,46.7112802 42.698049,46.8503534 42.8789488,47.011306 L44.139804,48.8726767 L44.139804,24.6733448 L44.139804,6.98915948 C44.139804,4.93227155 45.796971,3.26618534 47.8446592,3.26618534 L45.9923474,3.26618534 Z" id="Shape" fill="#94C1FF"></path>
                <path d="M36.7300935,49.8034784 C36.7300935,51.7023233 38.1464855,53.2757716 39.9809621,53.4982888 L39.9719287,53.5264526 L8.94310022,53.5264526 C6.89622272,53.5264526 5.23824499,51.8603664 5.23824499,49.8034784 C5.23824499,47.7465905 6.89622272,46.0805043 8.94310022,46.0805043 L12.6479555,46.0805043 L40.4349488,46.0805043 C38.3871448,46.0805043 36.7300935,47.7467069 36.7300935,49.8034784 Z" id="Shape" fill="#FFFFFF"></path>
                <path d="M51.5496303,6.05847414 C52.0579332,6.05847414 52.475902,6.47743966 52.475902,6.98927586 C52.475902,7.50099569 52.0579332,7.92007759 51.5496303,7.92007759 L47.8447751,7.92007759 C47.334735,7.92007759 46.9185033,7.50099569 46.9185033,6.98927586 C46.9185033,6.47755603 47.334735,6.05847414 47.8447751,6.05847414 L51.5496303,6.05847414 Z" id="Shape" fill="#D7E9FF"></path>
                <path d="M44.139804,48.8726767 C44.6481069,48.8726767 45.0660757,49.291875 45.0660757,49.8034784 C45.0660757,50.3153147 44.6481069,50.7342802 44.139804,50.7342802 L40.4349488,50.7342802 C39.9249087,50.7342802 39.5086771,50.3153147 39.5086771,49.8034784 C39.5086771,49.291875 39.9249087,48.8726767 40.4349488,48.8726767 L44.139804,48.8726767 Z" id="Shape" fill="#FFFFFF"></path>
                <path d="M14.5003831,34.9114655 L14.5003831,13.5044224 L14.5003831,5.59307328 C14.5003831,4.30871121 15.5378352,3.26618534 16.8159465,3.26618534 L14.9635189,3.26618534 C13.6854076,3.26618534 12.6479555,4.30871121 12.6479555,5.59307328 L12.6479555,13.5044224 L12.6479555,34.9114655 L12.6479555,44.2191336 L12.6479555,46.0805043 L14.5003831,46.0805043 L14.5003831,44.2191336 L14.5003831,34.9114655 Z" id="Shape" fill="#FFFFFF"></path>
                <g id="Group" fill="#116FFF">
                    <path d="M3.34011581,15.8313103 C3.08416927,15.8313103 2.87246325,15.6231078 2.87246325,15.3659095 C2.87246325,15.1087112 3.07513586,14.9005086 3.3301559,14.9005086 L3.34011581,14.9005086 C3.59513586,14.9005086 3.80325167,15.1087112 3.80325167,15.3659095 C3.80325167,15.6231078 3.59513586,15.8313103 3.34011581,15.8313103 Z" id="Shape"></path>
                    <path d="M32.1279198,0.93987931 C31.8730156,0.93987931 31.6613096,0.731793103 31.6613096,0.474478448 C31.6613096,0.217163793 31.8639822,0.00907758621 32.1188864,0.00907758621 L32.1279198,0.00907758621 C32.3830557,0.00907758621 32.5911715,0.217163793 32.5911715,0.474478448 C32.5911715,0.731793103 32.3830557,0.93987931 32.1279198,0.93987931 Z" id="Shape"></path>
                    <path d="M0.486761693,43.7545474 C0.230815145,43.7545474 0.0191091314,43.5465776 0.0191091314,43.2892629 C0.0191091314,43.0319483 0.221781737,42.8239784 0.476801782,42.8239784 L0.486761693,42.8239784 C0.741781737,42.8239784 0.94989755,43.0319483 0.94989755,43.2892629 C0.94989755,43.5465776 0.741781737,43.7545474 0.486761693,43.7545474 Z" id="Shape"></path>
                    <path d="M49.7241871,36.3079009 C49.4692829,36.3079009 49.2575768,36.0996983 49.2575768,35.8423836 C49.2575768,35.585069 49.4602494,35.3770991 49.7151537,35.3770991 L49.7241871,35.3770991 C49.9793229,35.3770991 50.1874388,35.585069 50.1874388,35.8423836 C50.1874388,36.0996983 49.9793229,36.3079009 49.7241871,36.3079009 Z" id="Shape"></path>
                    <path d="M55.5030022,50.2689957 C55.2478664,50.2689957 55.0361604,50.0607931 55.0361604,49.8034784 C55.0361604,49.5463966 55.238833,49.338194 55.4939688,49.338194 L55.5030022,49.338194 C55.7579065,49.338194 55.9660223,49.5463966 55.9660223,49.8034784 C55.9660223,50.0607931 55.7579065,50.2689957 55.5030022,50.2689957 Z" id="Shape"></path>
                    <g transform="translate(50.988864, 18.620690)" id="Shape">
                        <path d="M1.48703786,4.65656897 C1.230049,4.65656897 1.02378619,4.44836638 1.02378619,4.1911681 L1.02378619,0.468193966 C1.02378619,0.21099569 1.230049,0.00279310345 1.48703786,0.00279310345 C1.74194209,0.00279310345 1.95005791,0.21099569 1.95005791,0.468193966 L1.95005791,4.1911681 C1.95005791,4.44836638 1.74194209,4.65656897 1.48703786,4.65656897 Z"></path>
                        <path d="M2.41307795,2.7950819 L0.560766147,2.7950819 C0.303777283,2.7950819 0.0977461024,2.58687931 0.0977461024,2.32968103 C0.0977461024,2.07248276 0.303777283,1.86428017 0.560766147,1.86428017 L2.41307795,1.86428017 C2.66821381,1.86428017 2.87632962,2.07248276 2.87632962,2.32968103 C2.87632962,2.58687931 2.66821381,2.7950819 2.41307795,2.7950819 Z"></path>
                    </g>
                    <g transform="translate(6.443207, 5.586207)" id="Shape">
                        <path d="M1.4998931,4.66262069 C1.24394655,4.66262069 1.03675724,4.4544181 1.03675724,4.19721983 L1.03675724,0.47424569 C1.03675724,0.217047414 1.24383073,0.00884482759 1.4998931,0.00884482759 C1.75595546,0.00884482759 1.96302895,0.217047414 1.96302895,0.47424569 L1.96302895,4.19721983 C1.96302895,4.4544181 1.75595546,4.66262069 1.4998931,4.66262069 Z"></path>
                        <path d="M2.42616481,2.80113362 L0.573737194,2.80113362 C0.317790646,2.80113362 0.110601336,2.59293103 0.110601336,2.33573276 C0.110601336,2.07853448 0.317790646,1.8703319 0.573737194,1.8703319 L2.42616481,1.8703319 C2.68211136,1.8703319 2.88930067,2.07853448 2.88930067,2.33573276 C2.88930067,2.59293103 2.68211136,2.80113362 2.42616481,2.80113362 Z"></path>
                    </g>
                    <g transform="translate(3.590200, 26.068966)" id="Shape">
                        <path d="M1.50047216,4.65424138 C1.24452561,4.65424138 1.0373363,4.44603879 1.0373363,4.1889569 L1.0373363,0.465866379 C1.0373363,0.208668103 1.2444098,0.000465517241 1.50047216,0.000465517241 C1.75653452,0.000465517241 1.96360802,0.208668103 1.96360802,0.465866379 L1.96360802,4.1889569 C1.96360802,4.44603879 1.75653452,4.65424138 1.50047216,4.65424138 Z"></path>
                        <path d="M2.42674388,2.79287069 L0.574200445,2.79287069 C0.318253898,2.79287069 0.111064588,2.5846681 0.111064588,2.32735345 C0.111064588,2.07027155 0.318253898,1.86195259 0.574200445,1.86195259 L2.42662806,1.86195259 C2.68257461,1.86195259 2.88976392,2.07027155 2.88976392,2.32735345 C2.88987973,2.5846681 2.68269042,2.79287069 2.42674388,2.79287069 Z"></path>
                    </g>
                    <g transform="translate(4.663697, 2.793103)" id="Shape">
                        <path d="M35.3082316,51.1989828 L4.27940312,51.1989828 C4.02345657,51.1989828 3.81626726,50.9907802 3.81626726,50.7334655 C3.81626726,50.4763836 4.02334076,50.268181 4.27940312,50.268181 L35.3082316,50.268181 C35.5631359,50.268181 35.7712517,50.4763836 35.7712517,50.7334655 C35.7712517,50.9907802 35.5631359,51.1989828 35.3082316,51.1989828 Z"></path>
                        <path d="M39.4761069,44.6834871 C39.219118,44.6834871 39.0130869,44.4755172 39.0130869,44.2182026 L39.0130869,4.19605603 C39.0130869,3.93885776 39.219118,3.73065517 39.4761069,3.73065517 C39.7312428,3.73065517 39.9391269,3.93885776 39.9391269,4.19605603 L39.9391269,44.2182026 C39.9391269,44.4755172 39.7312428,44.6834871 39.4761069,44.6834871 Z"></path>
                        <path d="M7.98425835,41.8913147 C7.7283118,41.8913147 7.52112249,41.6831121 7.52112249,41.4260302 L7.52112249,2.79996983 C7.52112249,2.54277155 7.7283118,2.33456897 7.98425835,2.33456897 C8.2402049,2.33456897 8.44739421,2.54277155 8.44739421,2.79996983 L8.44739421,41.4260302 C8.44739421,41.6831121 8.2402049,41.8913147 7.98425835,41.8913147 Z"></path>
                        <path d="M7.98425835,3.26537069 C7.7283118,3.26537069 7.52112249,3.0571681 7.52112249,2.79996983 C7.52112249,1.26027155 8.76750111,0.00768103448 10.2998218,0.00768103448 C10.5557684,0.00768103448 10.7629577,0.215883621 10.7629577,0.473081897 C10.7629577,0.730280172 10.5557684,0.938482759 10.2998218,0.938482759 C9.27869933,0.938482759 8.44739421,1.77373707 8.44739421,2.79996983 C8.44739421,3.0571681 8.2402049,3.26537069 7.98425835,3.26537069 Z"></path>
                        <path d="M43.181078,0.938482759 L10.2998218,0.938482759 C10.0438753,0.938482759 9.83668597,0.730280172 9.83668597,0.473081897 C9.83668597,0.215883621 10.0438753,0.00768103448 10.2998218,0.00768103448 L43.181078,0.00768103448 C43.4362138,0.00768103448 43.644098,0.215883621 43.644098,0.473081897 C43.644098,0.730280172 43.4362138,0.938482759 43.181078,0.938482759 Z"></path>
                        <path d="M43.181078,8.38443103 C40.8817283,8.38443103 39.0132027,6.50571983 39.0132027,4.19605603 C39.0132027,1.88639224 40.8818441,0.00768103448 43.181078,0.00768103448 C44.1977996,0.00768103448 45.1745657,0.379396552 45.9325612,1.05567672 C46.1243474,1.22652155 46.1424143,1.52014655 45.9724009,1.71287069 C45.8022717,1.90454741 45.5093808,1.92281897 45.3175947,1.75185776 C44.7297283,1.22745259 43.9698797,0.938366379 43.1811938,0.938366379 C41.3937372,0.938366379 39.9393586,2.39997414 39.9393586,4.19593966 C39.9393586,5.99190517 41.393853,7.45351293 43.1811938,7.45351293 C43.9699955,7.45351293 44.7297283,7.1645431 45.3175947,6.64002155 C45.5093808,6.46824569 45.8023875,6.48651724 45.9724009,6.679125 C46.1425301,6.87184914 46.1243474,7.16547414 45.9325612,7.33631897 C45.1744499,8.01271552 44.1977996,8.38443103 43.181078,8.38443103 Z"></path>
                        <path d="M46.8859332,5.59214224 L43.181078,5.59214224 C42.414049,5.59214224 41.7917862,4.96590517 41.7917862,4.19605603 C41.7917862,3.4262069 42.414049,2.79996983 43.181078,2.79996983 L46.8859332,2.79996983 C47.6511091,2.79996983 48.2752249,3.4262069 48.2752249,4.19605603 C48.2752249,4.96590517 47.6511091,5.59214224 46.8859332,5.59214224 Z M43.181078,3.73065517 C42.9259421,3.73065517 42.7180579,3.93967241 42.7180579,4.19605603 C42.7180579,4.45232328 42.9259421,4.6614569 43.181078,4.6614569 L46.8859332,4.6614569 C47.141069,4.6614569 47.3489532,4.45232328 47.3489532,4.19605603 C47.3489532,3.93967241 47.141069,3.73065517 46.8859332,3.73065517 L43.181078,3.73065517 Z"></path>
                        <path d="M35.7712517,51.1989828 C35.5920891,51.1989828 35.4258976,51.1889741 35.2575056,51.1672112 C33.1699777,50.9034957 31.6032606,49.1164914 31.6032606,47.0104914 C31.6032606,44.7008276 33.471902,42.8222328 35.7711359,42.8222328 C36.7878575,42.8222328 37.7646236,43.1938319 38.5226192,43.8701121 C38.7144053,44.0410733 38.7324722,44.3346983 38.5624588,44.5274224 C38.3925612,44.7189828 38.0994388,44.7363233 37.9076526,44.5665259 C37.3197862,44.0418879 36.5599376,43.7530345 35.7712517,43.7530345 C33.9840267,43.7530345 32.5296481,45.2146422 32.5296481,47.0104914 C32.5296481,48.6484138 33.7488107,50.0382155 35.3661381,50.243625 C36.310245,50.3545345 37.2167127,50.0699871 37.9076526,49.4546897 C38.0994388,49.2827974 38.3926771,49.301069 38.5624588,49.4937931 C38.732588,49.6865172 38.7144053,49.9800259 38.5226192,50.1508707 C37.7647394,50.8270345 36.7879733,51.1989828 35.7712517,51.1989828 Z"></path>
                        <path d="M39.4761069,48.4065776 L35.7712517,48.4065776 C35.0042227,48.4065776 34.3819599,47.7803405 34.3819599,47.0104914 C34.3819599,46.2406422 35.0042227,45.6144052 35.7712517,45.6144052 L39.4761069,45.6144052 C40.2412829,45.6144052 40.8653987,46.2406422 40.8653987,47.0104914 C40.8653987,47.7803405 40.2413987,48.4065776 39.4761069,48.4065776 Z M35.7712517,46.5450905 C35.5161158,46.5450905 35.3082316,46.7542241 35.3082316,47.010375 C35.3082316,47.2667586 35.5161158,47.4758922 35.7712517,47.4758922 L39.4761069,47.4758922 C39.7312428,47.4758922 39.9391269,47.2667586 39.9391269,47.010375 C39.9391269,46.7542241 39.7312428,46.5450905 39.4761069,46.5450905 L35.7712517,46.5450905 Z"></path>
                        <path d="M4.27940312,51.1989828 C1.98109577,51.1989828 0.111412027,49.3200388 0.111412027,47.0104914 C0.111412027,44.700944 1.98109577,42.8222328 4.27940312,42.8222328 C4.53534967,42.8222328 4.74253898,43.0304353 4.74253898,43.2875172 C4.74253898,43.5448319 4.53546548,43.7530345 4.27940312,43.7530345 C2.49206236,43.7530345 1.03756793,45.2146422 1.03756793,47.0104914 C1.03756793,48.8066897 2.49206236,50.268181 4.27940312,50.268181 C4.53534967,50.268181 4.74253898,50.4763836 4.74253898,50.7334655 C4.74253898,50.9907802 4.53546548,51.1989828 4.27940312,51.1989828 Z"></path>
                        <path d="M35.7712517,43.7529181 L4.27940312,43.7529181 C4.02345657,43.7529181 3.81626726,43.5447155 3.81626726,43.2874009 C3.81626726,43.030319 4.02334076,42.8221164 4.27940312,42.8221164 L35.7712517,42.8221164 C36.0263875,42.8221164 36.2342717,43.030319 36.2342717,43.2874009 C36.2342717,43.5447155 36.0263875,43.7529181 35.7712517,43.7529181 Z"></path>
                        <path d="M34.84498,8.38443103 L12.6153853,8.38443103 C12.3593229,8.38443103 12.1522494,8.17622845 12.1522494,7.91903017 C12.1522494,7.6618319 12.3593229,7.45362931 12.6153853,7.45362931 L34.84498,7.45362931 C35.1001158,7.45362931 35.3082316,7.6618319 35.3082316,7.91903017 C35.3082316,8.17622845 35.1001158,8.38443103 34.84498,8.38443103 Z"></path>
                        <path d="M34.84498,13.9688922 L12.6153853,13.9688922 C12.3593229,13.9688922 12.1522494,13.7606897 12.1522494,13.5034914 C12.1522494,13.2461767 12.3593229,13.0380905 12.6153853,13.0380905 L34.84498,13.0380905 C35.1001158,13.0380905 35.3082316,13.2461767 35.3082316,13.5034914 C35.3082316,13.760806 35.1001158,13.9688922 34.84498,13.9688922 Z"></path>
                        <path d="M34.84498,19.5533534 L12.6153853,19.5533534 C12.3593229,19.5533534 12.1522494,19.3452672 12.1522494,19.0879526 C12.1522494,18.8306379 12.3593229,18.6225517 12.6153853,18.6225517 L34.84498,18.6225517 C35.1001158,18.6225517 35.3082316,18.8306379 35.3082316,19.0879526 C35.3082316,19.3452672 35.1001158,19.5533534 34.84498,19.5533534 Z"></path>
                        <path d="M34.84498,25.137931 L12.6153853,25.137931 C12.3593229,25.137931 12.1522494,24.9298448 12.1522494,24.6725302 C12.1522494,24.4152155 12.3593229,24.2071293 12.6153853,24.2071293 L34.84498,24.2071293 C35.1001158,24.2071293 35.3082316,24.4152155 35.3082316,24.6725302 C35.3082316,24.9298448 35.1001158,25.137931 34.84498,25.137931 Z"></path>
                        <path d="M34.84498,30.7222759 L12.6153853,30.7222759 C12.3593229,30.7222759 12.1522494,30.514306 12.1522494,30.2569914 C12.1522494,29.9996767 12.3593229,29.7917069 12.6153853,29.7917069 L34.84498,29.7917069 C35.1001158,29.7917069 35.3082316,29.9996767 35.3082316,30.2569914 C35.3082316,30.514306 35.1001158,30.7222759 34.84498,30.7222759 Z"></path>
                        <path d="M34.84498,36.3069698 L12.6153853,36.3069698 C12.3593229,36.3069698 12.1522494,36.0987672 12.1522494,35.8414526 C12.1522494,35.5843707 12.3593229,35.3761681 12.6153853,35.3761681 L34.84498,35.3761681 C35.1001158,35.3761681 35.3082316,35.5843707 35.3082316,35.8414526 C35.3082316,36.0987672 35.1001158,36.3069698 34.84498,36.3069698 Z"></path>
                        <path d="M8.91053007,32.5838793 L7.98425835,32.5838793 C7.7283118,32.5838793 7.52112249,32.3756767 7.52112249,32.1183621 C7.52112249,31.8612802 7.7283118,31.6530776 7.98425835,31.6530776 L8.91053007,31.6530776 C9.16647661,31.6530776 9.37366592,31.8612802 9.37366592,32.1183621 C9.37366592,32.3756767 9.16647661,32.5838793 8.91053007,32.5838793 Z"></path>
                        <path d="M39.4761069,22.3456422 L37.6237951,22.3456422 C37.3668062,22.3456422 37.1605434,22.1374397 37.1605434,21.8802414 C37.1605434,21.6230431 37.3668062,21.4148405 37.6237951,21.4148405 L39.4761069,21.4148405 C39.7312428,21.4148405 39.9391269,21.6230431 39.9391269,21.8802414 C39.9391269,22.1374397 39.7312428,22.3456422 39.4761069,22.3456422 Z"></path>
                        <path d="M10.7629577,11.1767198 L7.98425835,11.1767198 C7.7283118,11.1767198 7.52112249,10.9685172 7.52112249,10.711319 C7.52112249,10.4541207 7.7283118,10.2459181 7.98425835,10.2459181 L10.7629577,10.2459181 C11.0189042,10.2459181 11.2260935,10.4541207 11.2260935,10.711319 C11.2260935,10.9685172 11.0189042,11.1767198 10.7629577,11.1767198 Z"></path>
                        <path d="M29.2878129,47.4758922 L4.27940312,47.4758922 C4.02345657,47.4758922 3.81626726,47.2676897 3.81626726,47.010375 C3.81626726,46.7532931 4.02334076,46.5450905 4.27940312,46.5450905 L29.2878129,46.5450905 C29.5429488,46.5450905 29.750833,46.7532931 29.750833,47.010375 C29.750833,47.2676897 29.5429488,47.4758922 29.2878129,47.4758922 Z"></path>
                    </g>
                </g>
            </g>
        </g>
    </g>
</svg>