<?xml version="1.0" encoding="UTF-8"?>
<svg width="16px" height="16px" viewBox="0 0 16 16" version="1.1" xmlns="http://www.w3.org/2000/svg" xmlns:xlink="http://www.w3.org/1999/xlink">
    <!-- Generator: Sketch 52.1 (67048) - http://www.bohemiancoding.com/sketch -->
    <title>Combined Shape</title>
    <desc>Created with Sketch.</desc>
    <defs>
        <linearGradient x1="50%" y1="0%" x2="50%" y2="100%" id="linearGradient-1">
            <stop stop-color="#6E849A" stop-opacity="0.85" offset="0%"></stop>
            <stop stop-color="#6E849A" offset="100%"></stop>
        </linearGradient>
        <path d="M8.49567195,10.5211962 C8.08546542,10.9314027 7.52777491,11.1605233 6.94528544,11.1581534 L4.87002719,11.5722482 C4.46570335,11.5706032 4.1366006,11.2415004 4.13495562,10.8371766 L4.54905046,8.76191847 C4.54668063,8.179429 4.77580122,7.62173849 5.18600775,7.21153196 L11.6291327,0.698154534 C12.2618944,0.0604368835 13.2918216,0.0564195461 13.9295393,0.689181216 C13.9305402,0.690174388 13.7261902,0.485818567 15.0135449,1.77316928 C15.6487893,2.40841377 15.6487892,3.4383484 15.0135447,4.07359289 C15.0125476,4.07458996 12.8399232,6.22379086 8.49567195,10.5211962 Z M12.9504139,4.75263205 L14.3157895,3.42942 L12.2705651,1.384211 L10.9473684,2.74958222 L12.9504139,4.75263205 Z M7.16768699,1.212259 L3.59740145,1.761533 C2.981193,1.8563343 1.926316,2.98654468 1.926316,3.61000289 L1.926316,12.2105263 C1.926316,12.9081492 3.09185084,14.073684 3.78947368,14.073684 L12.3899971,14.073684 C13.0134553,14.073684 14.1436657,13.018807 14.238467,12.4025985 L14.787741,8.83231301 C14.8614086,8.35347334 14.9734217,8 15.457895,8 C15.9229769,8 16,8.37702337 16,8.84210526 L16,13.4736842 C16,14.8689299 14.8689299,16 13.4736842,16 L2.52631579,16 C1.13107011,16 0,14.8689299 0,13.4736842 L0,2.52631579 C0,1.13107011 1.13107011,3.73969861e-16 2.52631579,0 L7.15789474,0 C7.62297663,0 8,0.0770231054 8,0.542105 C8,1.02657827 7.64652666,1.13859136 7.16768699,1.212259 Z" id="path-2"></path>
    </defs>
    <g id="Symbols" stroke="none" stroke-width="1" fill="none" fill-rule="evenodd">
        <g id="Icon/System/Pen">
            <g id="Group-12">
                <g id="Combined-Shape">
                    <use fill="#FFFFFF" xlink:href="#path-2"></use>
                    <use fill="url(#linearGradient-1)" xlink:href="#path-2"></use>
                </g>
            </g>
        </g>
    </g>
</svg>