<?xml version="1.0" encoding="UTF-8"?>
<svg width="22px" height="22px" viewBox="0 0 22 22" version="1.1" xmlns="http://www.w3.org/2000/svg" xmlns:xlink="http://www.w3.org/1999/xlink">
    <!-- Generator: Sketch 52.1 (67048) - http://www.bohemiancoding.com/sketch -->
    <title>Path</title>
    <desc>Created with Sketch.</desc>
    <defs>
        <linearGradient x1="50%" y1="0%" x2="50%" y2="100%" id="linearGradient-1">
            <stop stop-color="#8da2b5" stop-opacity="0.85" offset="0%"></stop>
            <stop stop-color="#8da2b5" offset="100%"></stop>
        </linearGradient>
    </defs>
    <g id="Symbols" stroke="none" stroke-width="1" fill="none" fill-rule="evenodd">
        <g id="home" fill="#8da2b5">
            <path d="M21.6321622,9.85012179 L11.7607143,0.967933524 C11.3274274,0.578008014 10.6740377,0.578050448 10.2409227,0.96789109 L0.369431765,9.85016422 C0.0223467088,10.162478 -0.0923026573,10.643679 0.0772649583,11.0760384 C0.246875546,11.5083979 0.659836718,11.7877405 1.12939205,11.7877405 L2.70603569,11.7877405 L2.70603569,20.6870297 C2.70603569,21.0398679 2.99575309,21.3259576 3.35306549,21.3259576 L8.7638452,21.3259576 C9.1211576,21.3259576 9.410875,21.0399104 9.410875,20.6870297 L9.410875,15.283661 L12.5908909,15.283661 L12.5908909,20.6870721 C12.5908909,21.0399104 12.8806083,21.326 13.2379207,21.326 L18.6484426,21.326 C19.005755,21.326 19.2954724,21.0399528 19.2954724,20.6870721 L19.2954724,11.7877405 L20.8724168,11.7877405 C21.3419292,11.7877405 21.7549333,11.5083554 21.9245439,11.0760384 C22.0938967,10.6436365 21.9792473,10.162478 21.6321622,9.85012179 Z" id="Path" transform="translate(11.000833, 11.000750) scale(-1, 1) translate(-11.000833, -11.000750) "></path>
        </g>
    </g>
</svg>