<?xml version="1.0" encoding="UTF-8"?>
<svg width="64px" height="43px" viewBox="0 0 64 43" version="1.1" xmlns="http://www.w3.org/2000/svg" xmlns:xlink="http://www.w3.org/1999/xlink">
    <title>Icon/Large/Voice+Visuals</title>
    <g id="Icon/Large/Voice+Visuals" stroke="none" stroke-width="1" fill="none" fill-rule="evenodd">
        <g id="Group" fill-rule="nonzero">
            <path d="M60,0 C62.209139,-4.05812251e-16 64,1.790861 64,4 L64,39 C64,41.209139 62.209139,43 60,43 L4,43 C1.790861,43 2.705415e-16,41.209139 0,39 L0,4 C-2.705415e-16,1.790861 1.790861,4.05812251e-16 4,0 L60,0 Z M60,1 L4,1 C2.34314575,1 1,2.34314575 1,4 L1,4 L1,39 C1,40.6568542 2.34314575,42 4,42 L4,42 L60,42 C61.6568542,42 63,40.6568542 63,39 L63,39 L63,4 C63,2.34314575 61.6568542,1 60,1 L60,1 Z" id="Combined-Shape" fill="#116FFF"></path>
            <path d="M59,3 C60.1045695,3 61,3.8954305 61,5 L61,38 C61,39.1045695 60.1045695,40 59,40 L5,40 C3.8954305,40 3,39.1045695 3,38 L3,5 C3,3.8954305 3.8954305,3 5,3 L59,3 Z M59,4 L5,4 C4.44771525,4 4,4.44771525 4,5 L4,5 L4,38 C4,38.5522847 4.44771525,39 5,39 L5,39 L59,39 C59.5522847,39 60,38.5522847 60,38 L60,38 L60,5 C60,4.44771525 59.5522847,4 59,4 L59,4 Z" id="Combined-Shape" fill="#116FFF"></path>
            <rect id="Rectangle-Copy" fill="#D7E9FF" x="4" y="4" width="56" height="35" rx="1"></rect>
            <g id="Group-5" transform="translate(11.000000, 8.000000)">
                <rect id="Rectangle-Copy-5" fill="#94C1FF" x="1.73076923" y="0.115384615" width="38" height="24" rx="2.53846154"></rect>
                <g id="Group-3">
                    <g id="Group-2" transform="translate(9.076923, 3.807692)">
                        <path d="M2.53846154,1.26923077 C3.94321657,1.26923077 5.07692308,2.11951065 5.07692308,3.17307692 C5.07692308,4.2266432 3.94321657,5.07692308 2.53846154,5.07692308 C1.1337065,5.07692308 0,4.2266432 0,3.17307692 C0,2.11951065 1.1337065,1.26923077 2.53846154,1.26923077 Z" id="Shape" fill="#FFFFFF"></path>
                        <path d="M3.17307692,6.34615385 C1.42308414,6.34615385 0,4.92386318 0,3.17307692 C0,1.42229067 1.42308414,0 3.17307692,0 C4.92306971,0 6.34615385,1.42229067 6.34615385,3.17307692 C6.34615385,4.92386318 4.92326808,6.34615385 3.17307692,6.34615385 Z M3.17307692,1.58653846 C2.29847726,1.58653846 1.58653846,2.29927073 1.58653846,3.17307692 C1.58653846,4.04688312 2.29847726,4.75961538 3.17307692,4.75961538 C4.04767658,4.75961538 4.75961538,4.04688312 4.75961538,3.17307692 C4.75961538,2.29927073 4.04787495,1.58653846 3.17307692,1.58653846 Z" id="Shape" fill="#116FFF"></path>
                    </g>
                    <path d="M30.6256058,10.7884615 C36.2085353,18.2628205 39,22.3333333 39,23 C39,23.4314534 37.5833293,24 37,24 C34.3333333,24 28.9329641,24.0913462 20.7988923,24.2740385 L30.6256058,10.7884615 Z" id="Shape" fill="#EAF3F9"></path>
                    <path d="M18.7230769,14.3535068 L26.8137596,23.501659 C27.0459532,23.7642009 27.0213511,24.1652632 26.7588093,24.3974569 C26.6449426,24.4981613 26.4987112,24.5546485 26.3467144,24.5566435 L11.6153846,24.75 L11.6153846,24.75 L18.7230769,14.3535068 Z" id="Shape-Copy" fill="#EAF3F9"></path>
                    <path d="M21.4075559,24.3995582 C21.2432757,24.3995582 21.077405,24.3516426 20.9283485,24.2499142 C20.5025379,23.9638953 20.3721135,23.3594223 20.6375067,22.8989416 L29.7249514,8.83764946 C29.8908221,8.55163052 30.1818912,8.37692308 30.4952278,8.37692308 C30.8083373,8.37692308 31.0994064,8.55163052 31.2655043,8.83764946 L40,22 C40.2660749,22.4604807 40.1367866,23.0669195 39.7114303,23.3549042 C39.6347661,23.4072194 39.1618976,23.9552883 38.7114303,23.3549042 C37.9021159,22.2762474 35.1633817,18.2291204 30.4952278,11.2135233 L22.1796502,23.935146 C22.0071901,24.2344338 21.7108949,24.3995582 21.4075559,24.3995582 Z" id="Shape" fill="#116FFF"></path>
                    <path d="M11.0568301,24.5785088 C10.8515398,24.5785088 10.8495443,24.6569839 10.6688474,24.5079631 C10.2007957,24.1231691 10.2927732,23.5215293 10.6215484,22.9741122 L17.8885159,12.6993869 C18.0826745,12.3759544 18.395917,12.2837611 18.7376361,12.1846154 C19.0752132,12.1846154 19.3915622,12.3783726 19.5846853,12.7042233 L23.7341755,18.4360632 C24.0619151,18.9837826 24.1692302,19.4268835 23.7001431,19.8092593 C23.2310559,20.1919374 22.6607941,19.9544405 22.3343488,19.404303 L18.6204001,14.7950357 L11.9051738,24.0640396 C11.7037666,24.3989585 11.3822399,24.5785088 11.0568301,24.5785088 Z" id="Shape" fill="#116FFF"></path>
                    <path d="M40,1 C38.5980464,1 37.4615385,2.13650794 37.4615385,3.53846154 L37.4615385,3.53846154 L37.4615385,21.4615385 C37.4615385,22.8634921 38.5980464,24 40,24 L40,24 L39,24 C37.5980464,24 36.4615385,22.8634921 36.4615385,21.4615385 L36.4615385,3.53846154 C36.4615385,2.13650794 37.5980464,1 39,1 Z" id="Combined-Shape" fill="#5C9EFF" transform="translate(38.230769, 12.500000) scale(-1, 1) translate(-38.230769, -12.500000) "></path>
                    <path d="M37.1923077,0 C39.2952381,-4.12185683e-15 41,1.70476191 41,3.80769231 L41,21.1923077 C41,23.2952381 39.2952381,25 37.1923077,25 L3.80769231,25 C1.70476191,25 2.57534698e-16,23.2952381 0,21.1923077 L0,3.80769231 C-2.57534698e-16,1.70476191 1.70476191,-5.77871635e-17 3.80769231,0 L37.1923077,0 Z M37.4615385,1 L4.53846154,1 C3.13650794,1 2,2.13650794 2,3.53846154 L2,3.53846154 L2,21.4615385 C2,22.8634921 3.13650794,24 4.53846154,24 L4.53846154,24 L37.4615385,24 C38.8634921,24 40,22.8634921 40,21.4615385 L40,21.4615385 L40,3.53846154 C40,2.13650794 38.8634921,1 37.4615385,1 L37.4615385,1 Z" id="Combined-Shape" fill="#116FFF"></path>
                    <path d="M4.53846154,1 C3.13650794,1 2,2.13650794 2,3.53846154 L2,3.53846154 L2,21.4615385 C2,22.8634921 3.13650794,24 4.53846154,24 L4.53846154,24 L3.53846154,24 C2.13650794,24 1,22.8634921 1,21.4615385 L1,3.53846154 C1,2.13650794 2.13650794,1 3.53846154,1 Z" id="Combined-Shape" fill="#FFFFFF"></path>
                </g>
            </g>
            <path d="M6,4 C5.44771525,4 5,4.44771525 5,5 L5,5 L5,38 C5,38.5522847 5.44771525,39 6,39 L6,39 L5,39 C4.44771525,39 4,38.5522847 4,38 L4,5 C4,4.44771525 4.44771525,4 5,4 Z" id="Combined-Shape" fill="#FFFFFF"></path>
        </g>
        <path d="M18,36 L47,36 C47.6491106,36 48.2807115,36.2105336 48.8,36.6 L52,39 L52,39 L13,39 L16.2,36.6 C16.7192885,36.2105336 17.3508894,36 18,36 Z" id="Rectangle" fill="#94C1FF" fill-rule="nonzero"></path>
    </g>
</svg>