<svg xmlns="http://www.w3.org/2000/svg" width="81" height="80" viewBox="0 0 81 80">
    <g fill="none" fill-rule="evenodd">
        <g>
            <g>
                <g>
                    <g>
                        <g>
                            <g>
                                <path d="M0 0H80.211V80H0z" transform="translate(-1210 -130) translate(1060 74) translate(.501) translate(.501) translate(54.142 56) translate(95.25)"/>
                                <g fill-rule="nonzero">
                                    <g>
                                        <path fill="#D7E9FF" d="M64.6 31.556c0 17.407-14.452 31.535-32.288 31.535S.023 48.963.023 31.556 14.476.021 32.312.021c17.836 0 32.287 14.128 32.287 31.535z" transform="translate(-1210 -130) translate(1060 74) translate(.501) translate(.501) translate(54.142 56) translate(95.25) translate(2.507 7.5) translate(5.287 5.164)"/>
                                        <path fill="#FFF" d="M57.555 31.556c0 13.604-11.297 24.655-25.243 24.655-13.948 0-25.244-11.051-25.244-24.655 0-13.604 11.296-24.654 25.244-24.654 13.946 0 25.243 11.05 25.243 24.654z" transform="translate(-1210 -130) translate(1060 74) translate(.501) translate(.501) translate(54.142 56) translate(95.25) translate(2.507 7.5) translate(5.287 5.164)"/>
                                        <path fill="#94C1FF" d="M42.291 59.651L39.943 61.944 24.68 61.944 22.332 59.651 22.332 51.624 42.291 51.624z" transform="translate(-1210 -130) translate(1060 74) translate(.501) translate(.501) translate(54.142 56) translate(95.25) translate(2.507 7.5) translate(5.287 5.164)"/>
                                        <path fill="#D7E9FF" d="M24.68 51.624L22.332 51.624 22.332 59.651 24.68 61.944 27.028 61.944 24.68 59.651z" transform="translate(-1210 -130) translate(1060 74) translate(.501) translate(.501) translate(54.142 56) translate(95.25) translate(2.507 7.5) translate(5.287 5.164)"/>
                                        <path fill="#5C9EFF" d="M39.943 51.624L42.291 51.624 42.291 59.651 39.943 61.944 37.595 61.944 39.943 59.651z" transform="translate(-1210 -130) translate(1060 74) translate(.501) translate(.501) translate(54.142 56) translate(95.25) translate(2.507 7.5) translate(5.287 5.164)"/>
                                        <path fill="#D7E9FF" d="M51.684 31.556c0-10.45-8.673-18.92-19.372-18.92-10.7 0-19.373 8.47-19.373 18.92 0 6.878 3.77 12.883 9.393 16.195v3.873H42.29V47.75c5.623-3.312 9.393-9.317 9.393-16.195z" transform="translate(-1210 -130) translate(1060 74) translate(.501) translate(.501) translate(54.142 56) translate(95.25) translate(2.507 7.5) translate(5.287 5.164)"/>
                                        <path fill="#FFF" d="M32.312 12.635c.396 0 .785.032 1.176.058-10.15.596-18.201 8.8-18.201 18.863 0 10.206 7.045 16.195 7.045 16.195-5.622-3.312-9.393-9.317-9.393-16.195 0-10.45 8.674-18.92 19.373-18.92z" transform="translate(-1210 -130) translate(1060 74) translate(.501) translate(.501) translate(54.142 56) translate(95.25) translate(2.507 7.5) translate(5.287 5.164)"/>
                                        <path fill="#FFF" d="M32.313 12.635c-.397 0-.786.032-1.175.058 10.149.596 18.2 8.8 18.2 18.863 0 10.206-7.045 16.195-7.045 16.195 5.621-3.312 9.393-9.317 9.393-16.195 0-10.45-8.675-18.92-19.373-18.92z" transform="translate(-1210 -130) translate(1060 74) translate(.501) translate(.501) translate(54.142 56) translate(95.25) translate(2.507 7.5) translate(5.287 5.164)"/>
                                        <path fill="#94C1FF" d="M27.028 61.944s1.174 2.294 5.284 2.294c4.108 0 5.283-2.294 5.283-2.294H27.028z" transform="translate(-1210 -130) translate(1060 74) translate(.501) translate(.501) translate(54.142 56) translate(95.25) translate(2.507 7.5) translate(5.287 5.164)"/>
                                        <path fill="#D7E9FF" d="M29.376 61.944h-2.348s1.174 2.294 5.284 2.294c.424 0 .81-.03 1.173-.074-3.157-.38-4.109-2.22-4.109-2.22z" transform="translate(-1210 -130) translate(1060 74) translate(.501) translate(.501) translate(54.142 56) translate(95.25) translate(2.507 7.5) translate(5.287 5.164)"/>
                                        <path fill="#5C9EFF" d="M35.246 61.944h2.348s-1.174 2.294-5.282 2.294c-.425 0-.811-.03-1.175-.074 3.158-.38 4.11-2.22 4.11-2.22z" transform="translate(-1210 -130) translate(1060 74) translate(.501) translate(.501) translate(54.142 56) translate(95.25) translate(2.507 7.5) translate(5.287 5.164)"/>
                                        <path fill="#94C1FF" d="M22.332 50.477L42.291 50.477 42.291 51.624 22.332 51.624z" transform="translate(-1210 -130) translate(1060 74) translate(.501) translate(.501) translate(54.142 56) translate(95.25) translate(2.507 7.5) translate(5.287 5.164)"/>
                                    </g>
                                    <path fill="#D7E9FF" d="M26.445 36.72c0 2.954 1.21 5.63 3.167 7.594.065-.027 1.776-6.118-3.167-7.594z" transform="translate(-1210 -130) translate(1060 74) translate(.501) translate(.501) translate(54.142 56) translate(95.25) translate(2.507 7.5)"/>
                                    <path fill="#D7E9FF" d="M28.793 36.72c0-5.628 4.372-10.259 9.98-10.832-.386-.04-.777-.062-1.174-.062-6.16 0-11.154 4.878-11.154 10.894 0 6.012 4.994 10.894 11.154 10.894.397 0 .788-.022 1.173-.062-5.607-.573-9.979-5.207-9.979-10.832z" transform="translate(-1210 -130) translate(1060 74) translate(.501) translate(.501) translate(54.142 56) translate(95.25) translate(2.507 7.5)"/>
                                    <g fill="#116FFF">
                                        <path d="M45.23 67.682H29.967c-.156 0-.305-.06-.415-.168l-2.348-2.294c-.11-.107-.172-.253-.172-.405v-8.027c0-.317.262-.574.587-.574h19.96c.323 0 .586.257.586.574v8.027c0 .152-.062.298-.172.405l-2.348 2.294c-.11.107-.259.168-.415.168zm-15.02-1.147h14.777l2.004-1.958v-7.216H28.206v7.216l2.004 1.958z" transform="translate(-1210 -130) translate(1060 74) translate(.501) translate(.501) translate(54.142 56) translate(95.25) translate(2.507 7.5)"/>
                                        <path d="M26.445 60.801c-.31 0-.57-.237-.586-.543-.017-.316.232-.586.555-.602l22.306-1.147c.33-.046.601.226.617.542.019.316-.231.586-.555.602L26.476 60.8l-.031.001zM26.445 64.241c-.31 0-.57-.237-.586-.543-.017-.316.232-.585.555-.602l22.306-1.147c.33-.037.601.226.617.542.019.316-.231.586-.555.603L26.476 64.24l-.031.001zM47.578 57.361h-19.96c-.324 0-.586-.256-.586-.573v-3.555c-5.888-3.592-9.393-9.741-9.393-16.513 0-10.75 8.954-19.494 19.96-19.494 11.004 0 19.96 8.745 19.96 19.494 0 6.772-3.507 12.92-9.394 16.513v3.555c0 .317-.263.573-.587.573zm-19.372-1.147H46.99v-3.3c0-.201.108-.388.285-.493 5.703-3.357 9.108-9.227 9.108-15.701 0-10.117-8.427-18.347-18.785-18.347s-18.786 8.23-18.786 18.347c0 6.474 3.406 12.344 9.109 15.701.176.105.284.292.284.492v3.301zM37.599 69.975c-4.421 0-5.754-2.504-5.809-2.61-.144-.284-.027-.627.263-.77.291-.14.64-.028.785.252.046.087 1.113 1.982 4.761 1.982 3.652 0 4.717-1.901 4.76-1.982.15-.278.502-.39.789-.246.287.143.404.483.26.764-.056.106-1.388 2.61-5.809 2.61zM12.355 37.293H.615c-.325 0-.588-.256-.588-.573 0-.317.263-.573.587-.573h11.741c.325 0 .587.256.587.573 0 .317-.262.573-.587.573zM74.583 37.293H62.842c-.326 0-.587-.256-.587-.573 0-.317.261-.573.587-.573h11.741c.323 0 .587.256.587.573 0 .317-.263.573-.587.573zM5.567 55.354c-.201 0-.4-.103-.507-.286-.163-.275-.067-.625.214-.783l10.17-5.734c.28-.161.64-.065.802.21.162.274.066.624-.215.782l-10.17 5.734c-.093.053-.194.077-.294.077zM59.462 24.966c-.202 0-.402-.103-.51-.287-.162-.274-.066-.624.216-.782l10.166-5.734c.28-.16.64-.066.8.21.163.274.067.624-.213.782L59.755 24.89c-.094.053-.195.077-.293.077zM50.222 15.943c-.1 0-.201-.025-.293-.078-.282-.158-.378-.508-.216-.783l5.869-9.93c.16-.275.52-.37.802-.21.28.158.376.509.213.783l-5.868 9.93c-.108.184-.305.288-.507.288zM37.601 12.637c-.324 0-.587-.257-.587-.574L37.012.598c0-.317.262-.573.587-.573.324 0 .587.256.587.573l.002 11.465c0 .317-.262.574-.587.574zM24.98 15.94c-.202 0-.4-.103-.508-.287L18.6 5.725c-.163-.274-.067-.625.214-.783.28-.159.64-.066.802.21l5.87 9.928c.163.275.067.625-.214.783-.093.053-.194.077-.294.077zM69.63 55.352c-.101 0-.202-.025-.294-.077L59.168 49.54c-.282-.158-.378-.508-.215-.783.16-.274.523-.368.802-.209l10.168 5.734c.28.158.377.508.214.782-.108.184-.305.287-.507.287zM15.738 24.962c-.1 0-.2-.025-.294-.078L5.28 19.153c-.281-.158-.378-.508-.215-.783.162-.274.522-.367.802-.21l10.165 5.732c.281.158.377.509.215.783-.108.184-.306.287-.508.287z" transform="translate(-1210 -130) translate(1060 74) translate(.501) translate(.501) translate(54.142 56) translate(95.25) translate(2.507 7.5)"/>
                                    </g>
                                </g>
                            </g>
                        </g>
                    </g>
                </g>
            </g>
        </g>
    </g>
</svg>
