<?xml version="1.0" encoding="UTF-8"?>
<svg width="20px" height="20px" viewBox="0 0 20 20" version="1.1" xmlns="http://www.w3.org/2000/svg" xmlns:xlink="http://www.w3.org/1999/xlink">
    <!-- Generator: Sketch 52.1 (67048) - http://www.bohemiancoding.com/sketch -->
    <title>Artboard</title>
    <desc>Created with Sketch.</desc>
    <defs>
        <linearGradient x1="50%" y1="0%" x2="50%" y2="100%" id="linearGradient-1">
            <stop stop-color="#5D9DF5" stop-opacity="0.85" offset="0%"></stop>
            <stop stop-color="#2C85FF" offset="100%"></stop>
        </linearGradient>
    </defs>
    <g id="Artboard" stroke="none" stroke-width="1" fill="none" fill-rule="evenodd">
        <g id="checked-(2)" fill="url(#linearGradient-1)">
            <path d="M10,0 C4.48613377,0 0,4.48613377 0,10 C0,15.5138662 4.48613377,20 10,20 C15.5138662,20 20,15.5138662 20,10 C20,4.48613377 15.5138662,0 10,0 Z M10,19.0008157 C5.03670473,19.0008157 0.999184339,14.9632953 0.999184339,10 C0.999184339,5.03670473 5.03670473,0.999184339 10,0.999184339 C14.9632953,0.999184339 19.0008157,5.03670473 19.0008157,10 C19.0008157,14.9632953 14.9632953,19.0008157 10,19.0008157 Z" id="Shape" fill-rule="nonzero"></path>
            <path d="M13.8983198,7.19905213 L8.91729341,11.4123223 L7.1069735,10.4612954 C6.85289351,10.1958926 6.44530687,10.1958926 6.19122688,10.4557662 C5.93714689,10.7156398 5.93714689,11.1469194 6.18593355,11.4123223 L8.45677343,13.8009479 C8.58381343,13.9336493 8.74790675,14 8.91729341,14 C9.08138674,14 9.24548006,13.9336493 9.37252006,13.8009479 L14.8087731,8.15560821 C15.0628531,7.89020537 15.0628531,7.46445498 14.8140665,7.19905213 C14.5599865,6.93364929 14.1523998,6.93364929 13.8983198,7.19905213 Z" id="Path"></path>
        </g>
    </g>
</svg>