<?xml version="1.0" encoding="UTF-8"?>
<svg width="555px" height="406px" viewBox="0 0 555 406" version="1.1" xmlns="http://www.w3.org/2000/svg" xmlns:xlink="http://www.w3.org/1999/xlink">
    <!-- Generator: Sketch 52.1 (67048) - http://www.bohemiancoding.com/sketch -->
    <title>Group 2</title>
    <desc>Created with Sketch.</desc>
    <defs>
        <linearGradient x1="14.803816%" y1="18.4931409%" x2="97.0621726%" y2="89.2888329%" id="linearGradient-1">
            <stop stop-color="#00A8FF" offset="0%"></stop>
            <stop stop-color="#004EDA" offset="100%"></stop>
        </linearGradient>
        <linearGradient x1="76.453177%" y1="62.7906717%" x2="-2.92405413%" y2="8.31368136%" id="linearGradient-2">
            <stop stop-color="#AADAFF" offset="0%"></stop>
            <stop stop-color="#BAE1FF" offset="100%"></stop>
        </linearGradient>
        <linearGradient x1="56.5832881%" y1="98.2243799%" x2="58.3951957%" y2="3.15435332%" id="linearGradient-3">
            <stop stop-color="#39B8FF" offset="0%"></stop>
            <stop stop-color="#39A4FF" offset="24.9819364%"></stop>
            <stop stop-color="#42A5FF" offset="100%"></stop>
        </linearGradient>
    </defs>
    <g id="Page-1" stroke="none" stroke-width="1" fill="none" fill-rule="evenodd">
        <g id="Artboard" transform="translate(-321.000000, -618.000000)">
            <g id="Group-3" transform="translate(321.000000, 603.000000)">
                <g id="Group-2" transform="translate(0.000000, 15.000000)">
                    <g id="Group" transform="translate(278.000000, 203.000000) scale(-1, 1) translate(-278.000000, -203.000000) ">
                        <path d="M7.79260681,59.2444432 L92.3862368,185.202509 C107.452339,201.440004 126.066589,209.558752 148.228986,209.558752 C170.391384,209.558752 189.005634,200.372501 204.071736,182 C235.934058,163.916128 256.889027,147.584 266.936642,133.003618 C276.984256,118.423236 280.756499,98.8729968 278.25337,74.3529012 C259.815937,44.7711431 245.346554,25.3304928 234.845222,16.0309501 C224.34389,6.73140752 210.879251,1.43485044 194.451304,0.141278907 L37.1117588,0.141278907 C21.9615331,2.08000872 11.2694638,9.06178543 5.03555098,21.0866091 C-1.19836185,33.1114327 -0.279343238,45.8307107 7.79260681,59.2444432 Z" id="Path-5" fill="url(#linearGradient-1)"></path>
                        <path d="M284.831784,59.1031642 L369.425414,185.06123 L423.702487,265.2 L555.292547,74.2116223 C536.855114,44.6298642 522.385731,25.1892139 511.884399,15.8896712 C501.383067,6.59012861 487.918428,1.29357154 471.490482,3.86946714e-14 L314.150936,2.84217094e-14 C299.00071,1.93872981 288.308641,8.92050653 282.074728,20.9453302 C275.840815,32.9701538 276.759834,45.6894318 284.831784,59.1031642 Z" id="Path-5-Copy" fill="url(#linearGradient-2)" transform="translate(416.646274, 132.600000) scale(-1, 1) translate(-416.646274, -132.600000) "></path>
                        <path d="M92.5592109,185.651474 L222.734614,376 C236.498103,395.928142 255.202686,405.892214 278.848363,405.892214 C302.494039,405.892214 321.198622,395.928142 334.962112,376 L409.514582,265 L278.242512,74.6050472 C265.512061,119.191426 242.351616,151.528864 208.761178,171.617359 C175.17074,191.705854 136.436751,196.383892 92.5592109,185.651474 Z" id="Path-6" fill="url(#linearGradient-3)"></path>
                    </g>
                </g>
            </g>
        </g>
    </g>
</svg>