<?xml version="1.0" encoding="UTF-8"?>
<svg width="513px" height="513px" viewBox="0 0 513 513" version="1.1" xmlns="http://www.w3.org/2000/svg" xmlns:xlink="http://www.w3.org/1999/xlink">
    <!-- Generator: Sketch 52.1 (67048) - http://www.bohemiancoding.com/sketch -->
    <title>Shape</title>
    <desc>Created with Sketch.</desc>
    <defs>
        <linearGradient x1="50%" y1="0%" x2="50%" y2="100%" id="linearGradient-1">
            <stop stop-color="#132144" stop-opacity="0.85" offset="0%"></stop>
            <stop stop-color="#132144" offset="100%"></stop>
        </linearGradient>
    </defs>
    <g id="Symbols" stroke="none" stroke-width="1" fill="none" fill-rule="evenodd">
        <g id="Icon/Logo/logo_bubble" transform="translate(504.000000, 31.000000)" fill="url(#linearGradient-1)" fill-rule="nonzero">
            <path d="M4.5,437.9 L-116.9,316.5 C-119.2,314.2 -122.2,313 -125.4,313 L-138.6,313 C-107.1,276.5 -88,229 -88,177 C-88,62.1 -181.1,-31 -296,-31 C-410.9,-31 -504,62.1 -504,177 C-504,291.9 -410.9,385 -296,385 C-244,385 -196.5,365.9 -160,334.4 L-160,347.6 C-160,350.8 -158.7,353.8 -156.5,356.1 L-35.1,477.5 C-30.4,482.2 -22.8,482.2 -18.1,477.5 L4.5,454.9 C9.2,450.2 9.2,442.6 4.5,437.9 Z M-296,337 C-384.4,337 -456,265.4 -456,177 C-456,88.6 -384.4,17 -296,17 C-207.6,17 -136,88.6 -136,177 C-136,265.4 -207.6,337 -296,337 Z" id="Shape"></path>
        </g>
    </g>
</svg>