<?xml version="1.0" encoding="UTF-8"?>
<svg width="64px" height="64px" viewBox="0 0 64 64" version="1.1" xmlns="http://www.w3.org/2000/svg" xmlns:xlink="http://www.w3.org/1999/xlink">
    <!-- Generator: Sketch 52.2 (67145) - http://www.bohemiancoding.com/sketch -->
    <title>Icon/Large/Support</title>
    <desc>Created with Sketch.</desc>
    <g id="Icon/Large/Support" stroke="none" stroke-width="1" fill="none" fill-rule="evenodd">
        <rect id="Rectangle" x="0" y="0" width="64" height="64"></rect>
        <g id="9.-lifebuoy,-pirate,-seafaring,-crime,-bandit" fill-rule="nonzero">
            <path d="M32.001,5.513 C17.372,5.513 5.513125,17.371375 5.513125,32.000875 C5.513125,46.629875 17.372,58.487875 32.001,58.487875 C46.629,58.487875 58.488875,46.63 58.488875,32.000875 C58.488875,17.3715 46.629,5.513 32.001,5.513 Z M32.001,48.492375 C22.89675,48.492375 15.5085,41.108125 15.5085,32.000875 C15.5085,22.89275 22.89675,15.5085 32.001,15.5085 C41.10425,15.5085 48.493375,22.89275 48.493375,32.000875 C48.493375,41.108125 41.10425,48.492375 32.001,48.492375 Z" id="Shape" fill="#D7E9FF"></path>
            <path d="M32.001,5.513 C17.372,5.513 5.513125,17.371375 5.513125,32.000875 C5.513125,46.629875 17.372,58.487875 32.001,58.487875 C46.629,58.487875 58.488875,46.63 58.488875,32.000875 C58.488875,17.3715 46.629,5.513 32.001,5.513 Z M32.001,57.48825 C17.946875,57.48825 6.512625,46.055 6.512625,32.001 C6.512625,17.947 17.946875,6.512625 32.001,6.512625 C46.055125,6.512625 57.48925,17.946875 57.48925,32.001 C57.48925,46.055125 46.055,57.48825 32.001,57.48825 Z" id="Shape" fill="#FFFFFF"></path>
            <path d="M32.001,14.509 C22.356,14.509 14.508875,22.356 14.508875,32.001 C14.508875,41.646 22.355875,49.492 32.001,49.492 C41.645875,49.492 49.493,41.646 49.493,32.001 C49.493,22.356 41.645875,14.509 32.001,14.509 Z M32.001,48.492375 C22.89675,48.492375 15.5085,41.108125 15.5085,32.000875 C15.5085,22.89275 22.89675,15.5085 32.001,15.5085 C41.10425,15.5085 48.493375,22.89275 48.493375,32.000875 C48.493375,41.108125 41.10425,48.492375 32.001,48.492375 Z" id="Shape" fill="#94C1FF"></path>
            <path d="M28.501625,62.486125 C13.584625,62.486125 1.514,50.4155 1.514,35.4985 L1.514,33.499375 L3.513125,33.499375 L3.513125,35.4985 C3.513125,49.3105 14.68975,60.487 28.50175,60.487 L30.500875,60.487 L30.500875,62.486125 L28.501625,62.486125 Z" id="Shape" fill="#D7E9FF"></path>
            <path d="M35.499375,1.513875 C50.416375,1.513875 62.486875,13.5845 62.486875,28.5015 L62.486875,30.500625 L60.487875,30.500625 L60.487875,28.5015 C60.487875,14.6895 49.311375,3.513 35.499375,3.513 L33.50025,3.513 L33.50025,1.513875 L35.499375,1.513875 Z" id="Shape" fill="#D7E9FF"></path>
            <path d="M62.487,35.498375 C62.487,50.415375 50.4165,62.486 35.4995,62.486 L33.500375,62.486 L33.500375,60.486875 L35.4995,60.486875 C49.3115,60.486875 60.488,49.310375 60.488,35.498375 L60.488,33.49925 L62.487,33.49925 L62.487,35.498375 Z" id="Shape" fill="#D7E9FF"></path>
            <path d="M28.502625,1.514875 C13.585625,1.514875 1.515,13.5855 1.515,28.5025 L1.515,30.501625 L3.514125,30.501625 L3.514125,28.5025 C3.514125,14.6905 14.69075,3.514 28.50275,3.514 L30.501875,3.514 L30.501875,1.514875 L28.502625,1.514875 Z" id="Shape" fill="#D7E9FF"></path>
            <path d="M32,0.514375 C30.896,0.514375 30.000875,1.4095 30.000875,2.5135 L30.000875,5.1295 L33.999,5.1295 L33.999,2.5135 C33.999,1.4095 33.104,0.514375 32,0.514375 Z" id="Shape" fill="#5C9EFF"></path>
            <path d="M32,63.485625 C33.104,63.485625 33.999,62.5905 33.999,61.486625 L33.999,58.8705 L30.000875,58.8705 L30.000875,61.486625 C30.000875,62.5905 30.896,63.485625 32,63.485625 Z" id="Shape" fill="#5C9EFF"></path>
            <path d="M63.485625,32 C63.485625,30.896 62.5905,30.000875 61.4865,30.000875 L58.8705,30.000875 L58.8705,33.999 L61.4865,33.999 C62.5905,33.999 63.485625,33.104 63.485625,32 Z" id="Shape" fill="#5C9EFF"></path>
            <path d="M0.514375,32 C0.514375,33.104 1.4095,33.999 2.513375,33.999 L5.129375,33.999 L5.129375,30.000875 L2.513375,30.000875 C1.4095,30.000875 0.514375,30.896 0.514375,32 Z" id="Shape" fill="#5C9EFF"></path>
            <path d="M21.481375,6.605375 L26.071125,17.685375 C29.735375,16.170375 33.976625,16.049375 37.927875,17.685375 L42.518625,6.6045 C35.50625,3.6995 27.980375,3.91325 21.481375,6.605375 Z" id="Shape" fill="#94C1FF"></path>
            <path d="M42.5195,57.38975 L37.92975,46.30975 C34.2655,47.82475 30.02425,47.94575 26.073,46.30975 L21.48225,57.390625 C28.49475,60.295625 36.020625,60.081875 42.5195,57.38975 Z" id="Shape" fill="#94C1FF"></path>
            <path d="M6.60825,42.516625 L17.688125,37.927 C16.173125,34.26275 16.052125,30.021375 17.688125,26.070125 L6.60725,21.4795 C3.702375,28.491875 3.916125,36.01775 6.60825,42.516625 Z" id="Shape" fill="#94C1FF"></path>
            <path d="M57.39275,21.4785 L46.31275,26.068125 C47.82775,29.7325 47.94875,33.97375 46.31275,37.925 L57.393625,42.515625 C60.298625,35.50325 60.084875,27.977375 57.39275,21.4785 Z" id="Shape" fill="#94C1FF"></path>
            <path d="M25.30875,15.84525 L26.071125,17.68525 C26.37475,17.55975 26.687125,17.45875 26.998375,17.352875 C27.142875,17.303125 27.283375,17.243 27.43075,17.197625 C27.836875,17.07225 28.24975,16.971125 28.6655,16.879 C28.741625,16.862375 28.814,16.838 28.89,16.822375 C29.907125,16.613 30.948625,16.5085 31.999,16.508 C32,16.508 32,16.508 32.001,16.508 C32.006875,16.508 32.01275,16.509 32.018625,16.509 C32.52525,16.5095 33.03375,16.535375 33.54225,16.586125 C33.667125,16.598875 33.78825,16.62325 33.91325,16.638875 C34.290875,16.68575 34.66875,16.735875 35.0455,16.812125 C35.265125,16.856125 35.477,16.918 35.69275,16.97125 C35.97,17.0395 36.248125,17.100625 36.524375,17.1855 C36.798625,17.269375 37.064125,17.374375 37.331625,17.473 C37.53075,17.54575 37.73075,17.60375 37.928,17.685375 L38.6905,15.844375 C36.628,14.987375 34.37025,14.509 32.001125,14.509 C29.631,14.509 27.37225,14.98775 25.30875,15.84525 Z" id="Shape" fill="#5C9EFF"></path>
            <path d="M17.17375,36.478375 C16.959,35.76775 16.80675,35.031875 16.695375,34.283125 C16.66125,34.054625 16.614375,33.829125 16.591,33.59875 C16.58125,33.505 16.58225,33.409375 16.574375,33.315625 C16.53825,32.889125 16.511,32.4625 16.51,32.0325 C16.51,32.02175 16.508,32.0115 16.508,32.00075 C16.508,31.8905 16.522625,31.783125 16.524625,31.67325 C16.532375,31.278 16.546125,30.882125 16.585125,30.485875 C16.604625,30.280875 16.642625,30.08175 16.671,29.879125 C16.712,29.578 16.749125,29.276875 16.80875,28.976625 C16.865375,28.695125 16.942375,28.42225 17.01275,28.1465 C17.069375,27.92875 17.11525,27.710125 17.181625,27.493 C17.28225,27.1635 17.40525,26.84475 17.52625,26.525125 C17.583875,26.373875 17.625875,26.220125 17.68825,26.06975 L15.84625,25.3065 C14.98825,27.3705 14.509,29.63025 14.509,32.00075 C14.509,34.36975 14.987375,36.6285 15.844375,38.690125 L17.68825,37.926875 C17.634625,37.798 17.5965,37.663375 17.54675,37.5325 C17.419875,37.200625 17.292,36.87075 17.1865,36.529125 C17.1815,36.512625 17.178625,36.495 17.17375,36.478375 Z" id="Shape" fill="#5C9EFF"></path>
            <path d="M38.69425,48.15575 L37.929875,46.30975 C37.90075,46.3215 37.870375,46.32925 37.842125,46.341 C36.254,46.991125 34.534,47.37075 32.736,47.45575 C32.5145,47.4675 32.293875,47.489 32.07125,47.489875 C32.046875,47.489875 32.024375,47.49275 32.001,47.49275 C31.757,47.49275 31.51875,47.467375 31.277625,47.456625 C31.02775,47.444875 30.77775,47.442 30.527875,47.4185 C30.192125,47.38725 29.865125,47.330625 29.536125,47.278 C29.364375,47.250625 29.1925,47.233125 29.02175,47.199875 C28.606875,47.117875 28.200875,47.0125 27.79775,46.89825 C27.711875,46.873875 27.625,46.85725 27.538125,46.830875 C27.05,46.6845 26.57275,46.51475 26.10525,46.321375 C26.0945,46.3175 26.08375,46.313625 26.073,46.309625 L25.30775,48.155625 C27.37125,49.0135 29.631,49.49175 32.001,49.49175 C34.372,49.492 36.63075,49.013625 38.69425,48.15575 Z" id="Shape" fill="#5C9EFF"></path>
            <path d="M48.154625,25.30475 L46.31275,26.068 C46.390875,26.255875 46.448375,26.451125 46.518625,26.642 C46.61925,26.912875 46.726625,27.180875 46.8115,27.4585 C46.838875,27.548875 46.856375,27.642 46.88175,27.73275 C47.06525,28.371625 47.202875,29.028 47.3035,29.69775 C47.3385,29.931 47.385375,30.161875 47.409875,30.397125 C47.4235,30.527375 47.422625,30.661625 47.432375,30.793 C47.463625,31.179 47.49,31.566125 47.492,31.9555 C47.492,31.970625 47.494,31.98575 47.494,32.000875 C47.494,32.159125 47.4755,32.31225 47.4705,32.469375 C47.45975,32.811 47.452,33.15175 47.41775,33.49525 C47.392375,33.76575 47.3445,34.029125 47.304625,34.29575 C47.2695,34.529875 47.244125,34.76225 47.19725,34.9965 C47.126,35.361625 47.02925,35.71875 46.93275,36.075125 C46.895625,36.207875 46.86925,36.341625 46.82925,36.47425 C46.694625,36.921375 46.535375,37.358625 46.36175,37.787125 C46.34325,37.833 46.3315,37.879875 46.312875,37.924875 L48.15775,38.689125 C49.01475,36.626625 49.493125,34.36975 49.493125,32.00075 C49.492875,29.6295 49.013625,27.369375 48.154625,25.30475 Z" id="Shape" fill="#5C9EFF"></path>
            <path d="M41.75525,55.544875 C38.748875,56.79525 35.4545,57.48825 32.001,57.48825 C28.5475,57.48825 25.253125,56.79525 22.246625,55.544875 L21.482375,57.39075 C22.355,57.752 23.234625,58.06425 24.119875,58.33075 C24.140375,58.337625 24.160875,58.3425 24.181375,58.348375 C24.591375,58.4705 25.001375,58.581625 25.41325,58.68425 C25.498125,58.70575 25.585125,58.72425 25.67,58.743875 C26.0155,58.825875 26.361125,58.902875 26.706625,58.97125 C26.86475,59.0025 27.02475,59.028875 27.184875,59.057125 C27.45825,59.106 27.7325,59.15375 28.00675,59.194875 C28.243,59.229 28.480125,59.257375 28.71825,59.28475 C28.92025,59.310125 29.122375,59.3355 29.3245,59.356 C29.631,59.386125 29.939375,59.406625 30.247875,59.42625 C30.3885,59.435 30.53,59.44775 30.670625,59.454625 C31.028875,59.47225 31.39,59.479 31.752125,59.482 C31.851625,59.483 31.95025,59.487875 32.04975,59.486875 C32.407,59.485875 32.761375,59.474125 33.115625,59.4605 C33.228875,59.455625 33.344125,59.454625 33.45725,59.44875 C33.713,59.435125 33.965875,59.411625 34.219625,59.391125 C37.085625,59.155875 39.888,58.4805 42.5195,57.390125 L41.75525,55.544875 Z" id="Shape" fill="#D7E9FF"></path>
            <path d="M8.455125,41.7515 C7.20575,38.746 6.512625,35.4535 6.512625,32.001 C6.512625,28.547 7.20675,25.252625 8.457125,22.24575 L6.610375,21.481 C6.5615,21.598125 6.517625,21.71775 6.47075,21.83575 C6.353625,22.129625 6.2365,22.423375 6.130125,22.719125 C6.08125,22.85525 6.037375,22.993875 5.9905,23.1315 C5.89,23.42675 5.790375,23.722125 5.699625,24.018375 C5.646875,24.190625 5.600125,24.365375 5.55125,24.539125 C5.479,24.796375 5.40575,25.053 5.340375,25.31075 C5.28275,25.541625 5.232,25.774875 5.17925,26.00775 C5.134375,26.207375 5.0885,26.4065 5.0485,26.606125 C4.988,26.90775 4.93525,27.212375 4.8855,27.517375 C4.864,27.648125 4.839625,27.7785 4.819125,27.90925 C4.7625,28.29 4.714625,28.673625 4.672625,29.059125 C4.66675,29.11675 4.659,29.174375 4.653125,29.231875 C4.5615,30.142625 4.513625,31.0665 4.513625,32.001125 C4.513625,33.328625 4.613125,34.63275 4.79675,35.910375 C5.12375,38.16725 5.725,40.371375 6.588875,42.467 C6.59575,42.483625 6.601625,42.50025 6.608375,42.516625 L8.455125,41.7515 Z" id="Shape" fill="#D7E9FF"></path>
            <path d="M22.2475,8.456 C25.254,7.206125 28.547375,6.512625 32.000875,6.512625 C35.453375,6.512625 38.745875,7.205625 41.75125,8.455125 L42.5165,6.60875 C42.3525,6.5405 42.185625,6.4775 42.020625,6.412625 C41.785375,6.320375 41.551125,6.22625 41.314875,6.14125 C41.118625,6.07 40.9185,6.006 40.719375,5.93925 C40.487125,5.861125 40.25475,5.782 40.0215,5.71025 C39.78525,5.638 39.545,5.572625 39.307,5.50675 C39.116625,5.454125 38.92625,5.3995 38.735,5.351125 C38.432375,5.2745 38.126875,5.205625 37.820375,5.139375 C37.6965,5.1125 37.5725,5.08325 37.4475,5.057875 C37.064,4.98025 36.677375,4.9115 36.288,4.85 C36.242125,4.842625 36.19625,4.833875 36.15025,4.827 C34.796375,4.621125 33.411375,4.513625 32.000875,4.513625 C30.112125,4.513625 28.26625,4.7055 26.482875,5.0705 C26.34625,5.098375 26.2115,5.134 26.075875,5.16375 C25.783,5.228125 25.491125,5.2925 25.20225,5.36625 C24.93675,5.434125 24.67325,5.512125 24.409625,5.58825 C24.248625,5.634625 24.084625,5.676625 23.9245,5.726375 C23.66975,5.8045 23.418875,5.892875 23.167,5.97825 C22.995125,6.036875 22.821375,6.0915 22.650625,6.1535 C22.4485,6.22675 22.249375,6.307625 22.04925,6.38575 C21.859875,6.4595 21.6705,6.531625 21.483125,6.60925 L22.2475,8.456 Z" id="Shape" fill="#D7E9FF"></path>
            <path d="M59.211125,28.133125 C58.894875,25.927125 58.314,23.773375 57.48525,21.718625 C57.453,21.639125 57.423875,21.5585 57.390625,21.4795 L55.54375,22.24425 C56.79525,25.251125 57.489125,28.546125 57.489125,32.001 C57.489125,35.4535 56.796125,38.745 55.546625,41.7505 L57.3935,42.515625 C57.3945,42.514625 57.3945,42.51275 57.3945,42.51175 C57.574125,42.079375 57.740875,41.644125 57.897125,41.20775 C57.904,41.18725 57.91075,41.16575 57.917625,41.14525 C58.063,40.73525 58.197625,40.323375 58.322625,39.910375 C58.344125,39.840125 58.362625,39.768875 58.383125,39.697625 C58.488625,39.340375 58.587125,38.982125 58.677,38.623875 C58.711,38.482375 58.74225,38.338875 58.7755,38.196375 C58.841875,37.909375 58.907375,37.622375 58.964,37.335375 C59.008,37.112875 59.045875,36.888375 59.084,36.66375 C59.120125,36.456875 59.15725,36.248 59.1885,36.040125 C59.234375,35.72975 59.272375,35.416375 59.3085,35.103 C59.322125,34.977125 59.33975,34.852125 59.3525,34.72625 C59.3915,34.330875 59.420875,33.932625 59.443375,33.532375 C59.44625,33.4835 59.45025,33.433875 59.453125,33.384 C59.475625,32.926125 59.48825,32.464875 59.48825,32.000875 C59.488375,30.688125 59.38975,29.39775 59.211125,28.133125 Z" id="Shape" fill="#D7E9FF"></path>
            <g id="_x39_._lifebuoy_x2C__pirate_x2C__seafaring_x2C__crime_x2C__bandit" fill="#116FFF">
                <path d="M20.50725,56.37075 C20.434,56.37075 20.359875,56.354125 20.290625,56.321 C14.811625,53.678625 10.337125,49.207125 7.689,43.73 C7.569,43.481125 7.673375,43.182375 7.92125,43.06225 C8.170125,42.94425 8.469875,43.045625 8.588875,43.294625 C11.1385,48.5695 15.449,52.876125 20.724,55.420875 C20.972875,55.54 21.077375,55.83875 20.95725,56.088625 C20.87125,56.26625 20.692625,56.37075 20.50725,56.37075 Z" id="Shape"></path>
                <path d="M43.5075,56.362875 C43.322,56.362875 43.143375,56.258375 43.057375,56.08075 C42.937375,55.831875 43.041875,55.533125 43.289625,55.413 C48.56175,52.865375 52.86725,48.56075 55.414,43.28975 C55.534,43.039875 55.83375,42.937375 56.081625,43.056375 C56.329625,43.1765 56.434,43.47525 56.314,43.723125 C53.66975,49.19725 49.199,53.667875 43.725,56.313125 C43.65475,56.346375 43.580625,56.362875 43.5075,56.362875 Z" id="Shape"></path>
                <path d="M55.823125,20.908375 C55.6385,20.908375 55.46,20.805375 55.374,20.62775 C52.8205,15.389375 48.523625,11.1105 43.275,8.579 C43.02625,8.459375 42.92175,8.16075 43.041875,7.91175 C43.161875,7.662875 43.4645,7.5595 43.7085,7.679 C49.159,10.307125 53.621,14.7505 56.272125,20.189375 C56.393125,20.437875 56.290625,20.737 56.04175,20.857625 C55.971375,20.892375 55.89725,20.908375 55.823125,20.908375 Z" id="Shape"></path>
                <path d="M8.135875,20.99225 C8.06275,20.99225 7.9885,20.976125 7.91825,20.9425 C7.670375,20.8225 7.565875,20.52375 7.686,20.275375 C10.33225,14.797375 14.80775,10.324375 20.287625,7.68 C20.5365,7.562 20.83625,7.664375 20.95525,7.91275 C21.075375,8.16125 20.970875,8.459875 20.723,8.58 C15.44425,11.127125 11.134625,15.43475 8.586,20.709625 C8.5,20.888375 8.321375,20.99225 8.135875,20.99225 Z" id="Shape"></path>
                <path d="M46.60075,24.8255 C46.421125,24.8255 46.248375,24.728375 46.158625,24.5585 C44.64175,21.68 42.3175,19.35575 39.435125,17.838375 C39.191125,17.71 39.097375,17.4075 39.22625,17.1635 C39.356,16.918875 39.656625,16.82625 39.901625,16.954125 C42.96275,18.566125 45.43225,21.03475 47.042875,24.093 C47.17175,24.337 47.078,24.639125 46.834,24.767875 C46.759875,24.807 46.67975,24.8255 46.60075,24.8255 Z" id="Shape"></path>
                <path d="M17.39625,24.8285 C17.31725,24.8285 17.238125,24.81 17.163,24.770875 C16.918875,24.6425 16.82525,24.34 16.954125,24.096 C18.56575,21.034375 21.03525,18.56475 24.096375,16.95425 C24.3385,16.826375 24.641,16.919125 24.770875,17.163625 C24.89975,17.408125 24.806,17.71025 24.561,17.8385 C21.6805,19.354875 19.35525,21.679625 17.8385,24.5615 C17.748625,24.731375 17.575875,24.8285 17.39625,24.8285 Z" id="Shape"></path>
                <path d="M24.328625,47.1015 C24.249625,47.1015 24.1705,47.083 24.095375,47.043875 C21.03725,45.43225 18.567625,42.963625 16.956,39.9025 C16.82725,39.6585 16.920875,39.356875 17.164875,39.228 C17.407,39.10025 17.7115,39.192875 17.840375,39.437875 C19.35825,42.317375 21.682375,44.6425 24.561875,46.159375 C24.805875,46.288125 24.899625,46.59075 24.77075,46.83475 C24.681,47.004875 24.50825,47.1015 24.328625,47.1015 Z" id="Shape"></path>
                <path d="M39.67025,47.100625 C39.491625,47.100625 39.317875,47.003 39.228125,46.833 C39.09925,46.589 39.193,46.287375 39.437,46.1585 C42.3165,44.641625 44.64075,42.317375 46.1585,39.437875 C46.28825,39.192875 46.592875,39.102125 46.833875,39.229 C47.077875,39.35775 47.171625,39.660375 47.04275,39.904375 C45.43025,42.963625 42.96075,45.43125 39.9035,47.04275 C39.8295,47.082 39.749375,47.100625 39.67025,47.100625 Z" id="Shape"></path>
                <g id="Group">
                    <path d="M33.999,3.01325 C33.72275,3.01325 33.49925,2.789625 33.49925,2.513375 C33.49925,1.686625 32.82675,1.014 32,1.014 C31.17325,1.014 30.500625,1.686625 30.500625,2.513375 C30.500625,2.789625 30.277,3.01325 30.00075,3.01325 C29.7245,3.01325 29.501,2.789625 29.501,2.513375 C29.501,1.135625 30.621625,0.0145 31.999875,0.0145 C33.378125,0.0145 34.49875,1.135625 34.49875,2.513375 C34.498875,2.78975 34.27525,3.01325 33.999,3.01325 Z" id="Shape"></path>
                    <path d="M2.513375,34.498875 C1.135125,34.498875 0.014625,33.37725 0.014625,31.999 C0.014625,30.62125 1.135125,29.500125 2.513375,29.500125 C2.789625,29.500125 3.01325,29.723625 3.01325,29.999875 C3.01325,30.276125 2.789625,30.49975 2.513375,30.49975 C1.686625,30.49975 1.014125,31.17225 1.014125,31.999 C1.014125,32.82625 1.686625,33.49925 2.513375,33.49925 C2.789625,33.49925 3.01325,33.722875 3.01325,33.999 C3.01325,34.275375 2.789625,34.498875 2.513375,34.498875 Z" id="Shape"></path>
                    <path d="M1.513875,29.001375 C1.237625,29.001375 1.014125,28.777875 1.014125,28.501625 C1.014125,13.345 13.345375,1.01425 28.5015,1.01425 C28.77775,1.01425 29.00125,1.237875 29.00125,1.514 C29.00125,1.79025 28.77775,2.013875 28.5015,2.013875 C13.895875,2.013875 2.013625,13.896125 2.013625,28.50175 C2.013625,28.777875 1.790125,29.001375 1.513875,29.001375 Z" id="Shape"></path>
                    <path d="M3.513,29.001375 C3.236875,29.001375 3.01325,28.777875 3.01325,28.501625 C3.01325,14.4475 14.4475,3.013375 28.501625,3.013375 C28.777875,3.013375 29.001375,3.236875 29.001375,3.513125 C29.001375,3.789375 28.777875,4.012875 28.501625,4.012875 C14.998,4.012875 4.012875,14.998625 4.012875,28.501625 C4.012875,28.777875 3.78925,29.001375 3.513,29.001375 Z" id="Shape"></path>
                    <path d="M22.033875,4.865 C21.81325,4.865 21.61125,4.7175 21.55075,4.4945 L21.033375,2.56275 C20.962125,2.29625 21.12025,2.022 21.387625,1.95075 C21.653125,1.8795 21.927375,2.037625 21.999625,2.304125 L22.517,4.235875 C22.58825,4.502375 22.43025,4.776625 22.16275,4.847875 C22.11975,4.859625 22.07675,4.865 22.033875,4.865 Z" id="Shape"></path>
                    <path d="M16.007375,7.361875 C15.834625,7.361875 15.666625,7.272125 15.574875,7.111875 L14.575375,5.379375 C14.436875,5.14025 14.51875,4.83475 14.757875,4.696625 C14.997,4.558 15.3025,4.6405 15.440125,4.879625 L16.439625,6.612125 C16.57825,6.85125 16.49625,7.15675 16.257125,7.295 C16.178125,7.340375 16.09225,7.361875 16.007375,7.361875 Z" id="Shape"></path>
                    <path d="M10.831875,11.33275 C10.704125,11.33275 10.576125,11.284 10.4785,11.186375 L9.065125,9.771875 C8.869875,9.576625 8.869875,9.259875 9.065125,9.065125 C9.260375,8.869875 9.576625,8.869875 9.77175,9.065125 L11.18525,10.4795 C11.3805,10.67475 11.3805,10.9915 11.18525,11.186125 C11.087625,11.283875 10.959875,11.33275 10.831875,11.33275 Z" id="Shape"></path>
                    <path d="M6.861125,16.508 C6.776125,16.508 6.690375,16.4865 6.61125,16.441125 L4.879625,15.440625 C4.640375,15.302625 4.5585,14.9965 4.697125,14.757875 C4.83575,14.51825 5.14025,14.438125 5.379375,14.57475 L7.111,15.57525 C7.350125,15.713375 7.432125,16.019375 7.2935,16.258 C7.20075,16.41875 7.032875,16.508 6.861125,16.508 Z" id="Shape"></path>
                    <path d="M4.365125,22.534625 C4.322125,22.534625 4.27925,22.52925 4.23525,22.5175 L2.3035,21.99925 C2.037,21.9275 1.879,21.65375 1.950125,21.38725 C2.022375,21.12075 2.294625,20.964125 2.563125,21.033875 L4.494875,21.552125 C4.761375,21.623875 4.919375,21.89775 4.84825,22.164125 C4.787875,22.38775 4.58575,22.534625 4.365125,22.534625 Z" id="Shape"></path>
                </g>
                <g id="Group" transform="translate(34.875000, 1.000000)">
                    <path d="M26.6115,33.498875 C26.33525,33.498875 26.11175,33.275375 26.11175,32.999 C26.11175,32.722875 26.33525,32.49925 26.6115,32.49925 C27.43825,32.49925 28.11075,31.82675 28.11075,31 C28.11075,30.17325 27.43825,29.50075 26.6115,29.50075 C26.33525,29.50075 26.11175,29.277125 26.11175,29.000875 C26.11175,28.724625 26.33525,28.501125 26.6115,28.501125 C27.98975,28.501125 29.110375,29.622125 29.110375,31 C29.110375,32.37825 27.98975,33.498875 26.6115,33.498875 Z" id="Shape"></path>
                    <path d="M27.611,28.001375 C27.334875,28.001375 27.11125,27.777875 27.11125,27.501625 C27.11125,12.896 15.229,1.01375 0.6235,1.01375 C0.34725,1.01375 0.12375,0.790125 0.12375,0.513875 C0.12375,0.23775 0.34725,0.014125 0.6235,0.014125 C15.779625,0.014125 28.11075,12.344875 28.11075,27.5015 C28.11075,27.777875 27.887375,28.001375 27.611,28.001375 Z" id="Shape"></path>
                    <path d="M25.612,28.001375 C25.33575,28.001375 25.11225,27.777875 25.11225,27.501625 C25.11225,13.998625 14.127,3.012875 0.6235,3.012875 C0.34725,3.012875 0.12375,2.789375 0.12375,2.513125 C0.12375,2.236875 0.34725,2.013375 0.6235,2.013375 C14.677625,2.013375 26.11175,13.447625 26.11175,27.501625 C26.11175,27.777875 25.888125,28.001375 25.612,28.001375 Z" id="Shape"></path>
                    <path d="M24.75975,21.533625 C24.539125,21.533625 24.337125,21.38625 24.276625,21.16325 C24.205375,20.89675 24.3635,20.6225 24.631,20.55125 L26.562625,20.033875 C26.82625,19.963125 27.102375,20.12075 27.174625,20.38725 C27.245875,20.65375 27.08775,20.928 26.820375,20.99925 L24.888625,21.516625 C24.84575,21.52825 24.80275,21.533625 24.75975,21.533625 Z" id="Shape"></path>
                    <path d="M22.26375,15.507125 C22.092,15.507125 21.923125,15.417375 21.831375,15.25725 C21.692875,15.018125 21.77475,14.712625 22.014,14.5745 L23.745625,13.574875 C23.98275,13.436875 24.29025,13.51875 24.427875,13.758 C24.5665,13.997125 24.4845,14.302625 24.245375,14.44075 L22.51375,15.440375 C22.43475,15.485625 22.34875,15.507125 22.26375,15.507125 Z" id="Shape"></path>
                    <path d="M18.292125,10.33175 C18.16425,10.33175 18.03625,10.283 17.93875,10.185375 C17.7435,9.990125 17.7435,9.673375 17.93875,9.47875 L19.353125,8.06525 C19.548375,7.87 19.864625,7.87 20.05975,8.06525 C20.254875,8.2605 20.255,8.57725 20.05975,8.772 L18.645375,10.185375 C18.54775,10.283 18.419875,10.33175 18.292125,10.33175 Z" id="Shape"></path>
                    <path d="M13.11675,6.360875 C13.03175,6.360875 12.946,6.339375 12.866875,6.294 C12.62775,6.155875 12.54575,5.84975 12.68425,5.611125 L13.684875,3.8795 C13.823375,3.64025 14.129,3.56025 14.367125,3.6965 C14.60625,3.834625 14.68825,4.140625 14.54975,4.37925 L13.549125,6.110875 C13.456375,6.271625 13.2885,6.360875 13.11675,6.360875 Z" id="Shape"></path>
                    <path d="M7.09025,3.865 C7.04725,3.865 7.00425,3.859625 6.960375,3.847875 C6.693875,3.776125 6.535875,3.50225 6.607,3.235875 L7.12525,1.304125 C7.1975,1.037625 7.470875,0.8805 7.73825,0.95075 C8.00475,1.0225 8.162875,1.29625 8.091625,1.56275 L7.573375,3.4945 C7.512875,3.718 7.310625,3.865 7.09025,3.865 Z" id="Shape"></path>
                </g>
                <g id="Group" transform="translate(29.500000, 34.875000)">
                    <path d="M2.501,29.110375 C1.12275,29.110375 0.002125,27.98975 0.002125,26.611625 C0.002125,26.33525 0.225625,26.11175 0.501875,26.11175 C0.778125,26.11175 1.00175,26.33525 1.00175,26.611625 C1.00175,27.43825 1.67425,28.110875 2.501125,28.110875 C3.328,28.110875 4.000375,27.43825 4.000375,26.611625 C4.000375,26.33525 4.223875,26.11175 4.500125,26.11175 C4.776375,26.11175 5,26.33525 5,26.611625 C4.999875,27.98975 3.87925,29.110375 2.501,29.110375 Z" id="Shape"></path>
                    <path d="M5.999375,28.110875 C5.723125,28.110875 5.499625,27.887375 5.499625,27.611125 C5.499625,27.334875 5.723125,27.111375 5.999375,27.111375 C20.605,27.111375 32.487125,15.229 32.487125,0.6235 C32.487125,0.34725 32.71075,0.12375 32.986875,0.12375 C33.26325,0.12375 33.486625,0.34725 33.486625,0.6235 C33.48675,15.7805 21.1555,28.110875 5.999375,28.110875 Z" id="Shape"></path>
                    <path d="M5.999375,26.11175 C5.723125,26.11175 5.499625,25.88825 5.499625,25.612 C5.499625,25.33575 5.723125,25.11225 5.999375,25.11225 C19.502875,25.11225 30.488125,14.127 30.488125,0.6235 C30.488125,0.34725 30.711625,0.12375 30.987875,0.12375 C31.264125,0.12375 31.487625,0.34725 31.487625,0.6235 C31.487625,14.6775 20.0535,26.11175 5.999375,26.11175 Z" id="Shape"></path>
                    <path d="M12.9845,27.19125 C12.76375,27.19125 12.56175,27.043875 12.50125,26.820375 L11.983875,24.887625 C11.91275,24.621125 12.07075,24.346875 12.33825,24.2765 C12.607625,24.20225 12.878,24.364375 12.95025,24.629875 L13.467625,26.562625 C13.538875,26.829125 13.38075,27.103375 13.11325,27.173625 C13.07025,27.185375 13.026375,27.19125 12.9845,27.19125 Z" id="Shape"></path>
                    <path d="M19.493125,24.495375 C19.320375,24.495375 19.152375,24.4055 19.06075,24.245375 L18.061125,22.512875 C17.922625,22.27375 18.004625,21.96825 18.24375,21.830625 C18.482875,21.692 18.789375,21.774 18.926,22.013125 L19.925625,23.745625 C20.064125,23.98475 19.982125,24.29025 19.743,24.429 C19.664,24.473875 19.578125,24.495375 19.493125,24.495375 Z" id="Shape"></path>
                    <path d="M25.082375,20.20625 C24.9545,20.20625 24.826625,20.157375 24.729125,20.05975 L23.315625,18.644375 C23.120375,18.449125 23.120375,18.132875 23.315625,17.93775 C23.510875,17.742625 23.827125,17.7425 24.02225,17.93775 L25.43575,19.353125 C25.631,19.548375 25.631,19.864625 25.43575,20.05975 C25.338125,20.1575 25.210375,20.20625 25.082375,20.20625 Z" id="Shape"></path>
                    <path d="M29.3715,14.617 C29.2865,14.617 29.19975,14.5955 29.121625,14.54975 L27.39,13.548125 C27.15075,13.4105 27.068875,13.104 27.207375,12.865875 C27.346,12.62575 27.654375,12.545625 27.88975,12.683375 L29.621375,13.684875 C29.8605,13.822625 29.9425,14.129 29.803875,14.36725 C29.711125,14.52725 29.543375,14.617 29.3715,14.617 Z" id="Shape"></path>
                    <path d="M32.0675,8.10825 C32.0245,8.10825 31.9815,8.102375 31.937625,8.090625 L30.006,7.571375 C29.7395,7.500125 29.581375,7.22575 29.653625,6.959375 C29.724875,6.692875 29.99725,6.534875 30.265625,6.607 L32.197375,7.12625 C32.46375,7.1975 32.621875,7.471875 32.549625,7.73825 C32.490125,7.961875 32.288125,8.10825 32.0675,8.10825 Z" id="Shape"></path>
                </g>
                <g id="Group" transform="translate(1.000000, 34.875000)">
                    <path d="M27.502625,28.110875 C12.3465,28.110875 0.01525,15.7805 0.01525,0.6235 C0.01525,0.34725 0.23875,0.12375 0.515,0.12375 C0.79125,0.12375 1.01475,0.34725 1.01475,0.6235 C1.01475,15.229125 12.897125,27.111375 27.502625,27.111375 C27.778875,27.111375 28.002375,27.334875 28.002375,27.611125 C28.002375,27.887375 27.77875,28.110875 27.502625,28.110875 Z" id="Shape"></path>
                    <path d="M27.502625,26.11175 C13.4485,26.11175 2.01425,14.6775 2.01425,0.6235 C2.01425,0.34725 2.237875,0.12375 2.514,0.12375 C2.79025,0.12375 3.013875,0.34725 3.013875,0.6235 C3.013875,14.127 13.999,25.11225 27.502625,25.11225 C27.778875,25.11225 28.002375,25.33575 28.002375,25.612 C28.002375,25.88825 27.77875,26.11175 27.502625,26.11175 Z" id="Shape"></path>
                    <path d="M1.4345,8.10825 C1.213875,8.10825 1.01175,7.961875 0.95125,7.73725 C0.88,7.47175 1.038125,7.1965 1.304625,7.126125 L3.235375,6.60875 C3.50475,6.536625 3.776125,6.69475 3.848375,6.962125 C3.919625,7.227625 3.7615,7.502875 3.495,7.57325 L1.56425,8.090625 C1.52025,8.102375 1.477375,8.10825 1.4345,8.10825 Z" id="Shape"></path>
                    <path d="M4.130375,14.617 C3.9585,14.617 3.78975,14.52725 3.698,14.36725 C3.5595,14.128 3.641375,13.822625 3.8805,13.683875 L5.612125,12.684375 C5.85025,12.547625 6.15675,12.62775 6.294375,12.867875 C6.433,13.107 6.351,13.4125 6.111875,13.551125 L4.38025,14.55075 C4.30125,14.5955 4.215375,14.617 4.130375,14.617 Z" id="Shape"></path>
                    <path d="M8.4195,20.20625 C8.291625,20.20625 8.16375,20.157375 8.066125,20.05975 C7.870875,19.8645 7.870875,19.54825 8.066125,19.353125 L9.4795,17.939625 C9.67475,17.744375 9.991,17.744375 10.18625,17.939625 C10.3815,18.134875 10.3815,18.451125 10.18625,18.64625 L8.77275,20.05975 C8.67525,20.1575 8.547375,20.20625 8.4195,20.20625 Z" id="Shape"></path>
                    <path d="M14.00875,24.495375 C13.923875,24.495375 13.837875,24.473875 13.758875,24.429 C13.519625,24.290375 13.43775,23.98475 13.576375,23.745625 L14.575875,22.014 C14.713625,21.775875 15.020125,21.69375 15.25825,21.8305 C15.497375,21.969 15.579375,22.274625 15.44075,22.51375 L14.44125,24.245375 C14.349375,24.4055 14.1805,24.495375 14.00875,24.495375 Z" id="Shape"></path>
                    <path d="M20.5175,27.19125 C20.4755,27.19125 20.431625,27.185375 20.388625,27.173625 C20.121125,27.103375 19.963,26.829125 20.034375,26.562625 L20.55175,24.629875 C20.624,24.364375 20.895375,24.20225 21.16375,24.2765 C21.43125,24.34675 21.58925,24.621125 21.518,24.887625 L21.000625,26.820375 C20.940125,27.044 20.738,27.19125 20.5175,27.19125 Z" id="Shape"></path>
                </g>
                <path d="M30.000875,4.012875 C29.724625,4.012875 29.501125,3.789375 29.501125,3.513125 L29.501125,2.5135 C29.501125,2.237375 29.724625,2.01375 30.000875,2.01375 C30.277125,2.01375 30.50075,2.237375 30.50075,2.5135 L30.50075,3.513125 C30.500625,3.78925 30.277125,4.012875 30.000875,4.012875 Z" id="Shape"></path>
                <path d="M33.999,4.012875 C33.72275,4.012875 33.49925,3.789375 33.49925,3.513125 L33.49925,2.5135 C33.49925,2.237375 33.72275,2.01375 33.999,2.01375 C34.27525,2.01375 34.498875,2.237375 34.498875,2.5135 L34.498875,3.513125 C34.498875,3.78925 34.27525,4.012875 33.999,4.012875 Z" id="Shape"></path>
                <path d="M3.514,34.498875 L2.5135,34.498875 C2.237375,34.498875 2.01375,34.275375 2.01375,33.999 C2.01375,33.722875 2.237375,33.49925 2.5135,33.49925 L3.514,33.49925 C3.79025,33.49925 4.013875,33.722875 4.013875,33.999 C4.01375,34.275375 3.79025,34.498875 3.514,34.498875 Z" id="Shape"></path>
                <path d="M3.514,30.49975 L2.5135,30.49975 C2.237375,30.49975 2.01375,30.276125 2.01375,29.999875 C2.01375,29.723625 2.237375,29.500125 2.5135,29.500125 L3.514,29.500125 C3.79025,29.500125 4.013875,29.723625 4.013875,29.999875 C4.013875,30.276125 3.79025,30.49975 3.514,30.49975 Z" id="Shape"></path>
                <path d="M61.4865,30.50075 L60.487,30.50075 C60.21075,30.50075 59.98725,30.277125 59.98725,30.000875 C59.98725,29.724625 60.21075,29.501125 60.487,29.501125 L61.4865,29.501125 C61.76275,29.501125 61.98625,29.724625 61.98625,30.000875 C61.98625,30.277125 61.76275,30.50075 61.4865,30.50075 Z" id="Shape"></path>
                <path d="M61.4865,34.498875 L60.488,34.498875 C60.21175,34.498875 59.98825,34.275375 59.98825,33.999 C59.98825,33.722875 60.21175,33.49925 60.488,33.49925 L61.4865,33.49925 C61.76275,33.49925 61.98625,33.722875 61.98625,33.999 C61.98625,34.275375 61.76275,34.498875 61.4865,34.498875 Z" id="Shape"></path>
                <path d="M34,61.986375 C33.72375,61.986375 33.50025,61.76275 33.50025,61.486625 L33.50025,60.487 C33.50025,60.21075 33.72375,59.98725 34,59.98725 C34.27625,59.98725 34.499875,60.21075 34.499875,60.487 L34.499875,61.486625 C34.499875,61.76275 34.27625,61.986375 34,61.986375 Z" id="Shape"></path>
                <path d="M30.001875,61.986375 C29.725625,61.986375 29.502125,61.76275 29.502125,61.486625 L29.502125,60.487 C29.502125,60.21075 29.725625,59.98725 30.001875,59.98725 C30.278125,59.98725 30.50175,60.21075 30.50175,60.487 L30.50175,61.486625 C30.501625,61.76275 30.278125,61.986375 30.001875,61.986375 Z" id="Shape"></path>
                <g id="Group" transform="translate(20.875000, 3.875000)">
                    <path d="M0.60725,3.230125 C0.411125,3.230125 0.225625,3.114 0.145625,2.921625 C0.040125,2.666375 0.16125,2.374 0.416,2.268625 C7.323,-0.592375 14.93075,-0.593375 21.83575,2.267625 C22.090625,2.373 22.211625,2.665375 22.10625,2.920625 C21.99975,3.175875 21.705,3.296375 21.453125,3.191 C14.795,0.432 7.4585,0.433 0.7985,3.192 C0.73625,3.218 0.67075,3.230125 0.60725,3.230125 Z" id="Shape"></path>
                    <path d="M11.124,56.126875 C7.49575,56.126875 3.8685,55.411375 0.416,53.981375 C0.16125,53.876 0.040125,53.583 0.145625,53.328375 C0.252,53.0725 0.544875,52.9535 0.798625,53.057875 C7.45675,55.817375 14.79125,55.817375 21.45325,53.057875 C21.709,52.9525 22.000875,53.0745 22.106375,53.328375 C22.21175,53.584 22.09075,53.876 21.835875,53.981375 C18.3825,55.411375 14.75225,56.126875 11.124,56.126875 Z" id="Shape"></path>
                    <path d="M5.197,14.31 C5.000875,14.31 4.814375,14.19375 4.735375,14.001 C4.629875,13.74625 4.751,13.453875 5.00575,13.3485 C8.955125,11.7155 13.301625,11.7155 17.24525,13.3485 C17.5,13.453875 17.621,13.74625 17.515625,14.0015 C17.409125,14.25625 17.11825,14.37825 16.8625,14.271875 C13.166,12.740875 9.08875,12.741875 5.38825,14.271875 C5.325875,14.297875 5.2605,14.31 5.197,14.31 Z" id="Shape"></path>
                    <path d="M11.119125,44.1245 C9.04775,44.1245 6.976375,43.7165 5.00575,42.9005 C4.751,42.795 4.629875,42.503125 4.735375,42.247375 C4.84175,41.993625 5.132625,41.8705 5.388375,41.977 C9.086,43.5085 13.162125,43.504625 16.863625,41.973125 C17.119375,41.867625 17.41125,41.98975 17.51675,42.2435 C17.622125,42.49925 17.501125,42.791125 17.246375,42.896625 C15.2705,43.715625 13.194375,44.1245 11.119125,44.1245 Z" id="Shape"></path>
                    <path d="M17.053875,14.31 C16.9895,14.31 16.925125,14.29775 16.862625,14.271875 C16.607875,14.166375 16.486875,13.874125 16.59225,13.618875 L21.183,2.538 C21.2895,2.28225 21.58325,2.163125 21.836,2.267625 C22.090875,2.373 22.211875,2.665375 22.1065,2.920625 L17.51575,14.0015 C17.4355,14.193875 17.250125,14.31 17.053875,14.31 Z" id="Shape"></path>
                    <path d="M0.60725,54.019375 C0.543875,54.019375 0.4785,54.007625 0.416,53.98125 C0.16125,53.875875 0.040125,53.583875 0.145625,53.32825 L4.735375,42.247375 C4.84175,41.993625 5.132625,41.8705 5.388375,41.977 C5.643125,42.0825 5.76425,42.37425 5.65875,42.630125 L1.069125,53.710875 C0.989,53.90325 0.8035,54.019375 0.60725,54.019375 Z" id="Shape"></path>
                    <path d="M5.197,14.31 C5.000875,14.31 4.815375,14.19375 4.735375,14.0015 L0.145625,2.921625 C0.040125,2.666375 0.16125,2.374 0.416,2.268625 C0.67375,2.16375 0.963625,2.28475 1.069,2.539 L5.658625,13.618875 C5.764125,13.874125 5.643,14.166375 5.38825,14.271875 C5.325875,14.297875 5.2605,14.31 5.197,14.31 Z" id="Shape"></path>
                    <path d="M21.6445,54.019375 C21.448375,54.019375 21.262875,53.903125 21.182875,53.710875 L16.592125,42.629125 C16.48675,42.37425 16.60775,42.0815 16.8625,41.976 C17.11925,41.8715 17.410125,41.991625 17.515625,42.246375 L22.106375,53.32825 C22.21175,53.583875 22.09075,53.875875 21.835875,53.98125 C21.7735,54.00775 21.708,54.019375 21.6445,54.019375 Z" id="Shape"></path>
                </g>
                <g id="Group" transform="translate(3.875000, 20.875000)">
                    <path d="M2.731375,22.143375 C2.53525,22.143375 2.34975,22.027125 2.26975,21.834875 C-0.59125,14.927875 -0.59225,7.32 2.26875,0.414 C2.375125,0.15875 2.667875,0.03825 2.92175,0.143625 C3.1765,0.249125 3.297625,0.5415 3.192125,0.79675 C0.433625,7.45575 0.433625,14.79125 3.193125,21.45225 C3.298625,21.708 3.1775,21.999875 2.92275,22.105375 C2.860125,22.13175 2.79475,22.143375 2.731375,22.143375 Z" id="Shape"></path>
                    <path d="M53.520625,22.143375 C53.456125,22.143375 53.39175,22.131625 53.32925,22.10525 C53.0745,21.99975 52.9535,21.706875 53.058875,21.452125 C55.817375,14.794 55.817375,7.458625 53.058875,0.796625 C52.9535,0.541375 53.0745,0.249 53.32925,0.1435 C53.587,0.039125 53.876875,0.160125 53.982375,0.413875 C56.843375,7.32275 56.843375,14.92975 53.982375,21.83475 C53.90225,22.02725 53.71675,22.143375 53.520625,22.143375 Z" id="Shape"></path>
                    <path d="M13.81125,17.55375 C13.615,17.55375 13.428625,17.4375 13.3495,17.24525 C11.7165,13.295875 11.7165,8.94925 13.3495,5.00575 C13.456,4.7515 13.746875,4.630875 14.002625,4.735375 C14.257375,4.84075 14.378375,5.133125 14.273,5.388375 C12.742375,9.0855 12.742375,13.160125 14.273,16.8625 C14.378375,17.118375 14.257375,17.410125 14.002625,17.515625 C13.940125,17.542 13.874625,17.55375 13.81125,17.55375 Z" id="Shape"></path>
                    <path d="M42.43975,17.55375 C42.37625,17.55375 42.311,17.542 42.2485,17.515625 C41.99375,17.410125 41.872625,17.118375 41.978125,16.8625 C43.508625,13.165 43.507625,9.088875 41.97425,5.386375 C41.86875,5.131125 41.989875,4.83875 42.244625,4.733375 C42.502375,4.629375 42.79225,4.75 42.89775,5.00375 C44.533625,8.952625 44.534625,13.29975 42.9015,17.24525 C42.821375,17.4375 42.635875,17.55375 42.43975,17.55375 Z" id="Shape"></path>
                    <path d="M13.81125,5.696875 C13.746875,5.696875 13.682375,5.684625 13.619875,5.65875 L2.539125,1.067125 C2.284375,0.961625 2.16325,0.66875 2.26875,0.414 C2.375125,0.15875 2.667875,0.03825 2.92175,0.143625 L14.002625,4.73525 C14.257375,4.840625 14.378375,5.1335 14.273,5.38825 C14.192875,5.58075 14.0075,5.696875 13.81125,5.696875 Z" id="Shape"></path>
                    <path d="M53.520625,22.143375 C53.456125,22.143375 53.39175,22.131625 53.32925,22.10525 L42.2485,17.5155 C41.99375,17.41 41.872625,17.11825 41.978125,16.862375 C42.0845,16.60675 42.37725,16.487625 42.631125,16.592125 L53.712,21.18175 C53.96675,21.28725 54.087875,21.579125 53.982375,21.834875 C53.90225,22.02725 53.71675,22.143375 53.520625,22.143375 Z" id="Shape"></path>
                    <path d="M2.731375,22.143375 C2.53525,22.143375 2.34975,22.027125 2.26975,21.834875 C2.16425,21.579125 2.285375,21.28725 2.540125,21.18175 L13.62,16.592125 C13.87675,16.487625 14.167625,16.60875 14.273125,16.862375 C14.3785,17.11825 14.2575,17.41 14.00275,17.5155 L2.92275,22.10525 C2.860125,22.13175 2.79475,22.143375 2.731375,22.143375 Z" id="Shape"></path>
                    <path d="M42.43875,5.696875 C42.242625,5.696875 42.057,5.58075 41.977125,5.388375 C41.871625,5.133625 41.99275,4.84075 42.2475,4.735375 L53.32925,0.14375 C53.587,0.039375 53.876875,0.160375 53.982375,0.414125 C54.087875,0.668875 53.96675,0.96175 53.712,1.06725 L42.63,5.65875 C42.5675,5.684625 42.50225,5.696875 42.43875,5.696875 Z" id="Shape"></path>
                </g>
            </g>
        </g>
    </g>
</svg>