<?xml version="1.0" encoding="UTF-8"?>
<svg width="10px" height="13px" viewBox="0 0 10 13" version="1.1" xmlns="http://www.w3.org/2000/svg" xmlns:xlink="http://www.w3.org/1999/xlink">
    <!-- Generator: Sketch 52.1 (67048) - http://www.bohemiancoding.com/sketch -->
    <title>Path</title>
    <desc>Created with Sketch.</desc>
    <g id="Page-1" stroke="none" stroke-width="1" fill="none" fill-rule="evenodd">
        <g id="right-arrow-(1)" fill="#FFFFFF">
            <path d="M10.8532009,5.95411734 L5.82941428,2.0991504 C5.6323884,1.91404362 5.47125056,1.99571805 5.47125056,2.28083901 L5.47125056,3.89355551 C5.47125056,4.17857788 5.25929621,4.41186763 5.00040678,4.41186763 L1.89003132,4.41699488 L-0.53154478,4.41699488 L-0.53154478,4.42110325 C-0.789478792,4.42268086 -0.999940286,4.65521468 -1,4.9392839 L-0.999940286,7.6603075 C-0.999940286,7.94536273 -0.788105373,8.17865249 -0.529245797,8.17865249 L4.9472913,8.16961407 L5.00204891,8.16961407 C5.26022178,8.17053435 5.47131027,8.40319963 5.47131027,8.68776186 L5.47131027,10.3004455 C5.47131027,10.5855665 5.63244812,10.6673395 5.82938442,10.4823642 L10.8532606,6.62726576 C11.0501969,6.44202752 11.0501969,6.13925699 10.8532009,5.95411734 Z" id="Path" transform="translate(5.000478, 6.290694) scale(1, -1) rotate(90.000000) translate(-5.000478, -6.290694) "></path>
        </g>
    </g>
</svg>