<?xml version="1.0" encoding="UTF-8"?>
<svg width="137px" height="145px" viewBox="0 0 137 145" version="1.1" xmlns="http://www.w3.org/2000/svg" xmlns:xlink="http://www.w3.org/1999/xlink">
    <!-- Generator: Sketch 52.1 (67048) - http://www.bohemiancoding.com/sketch -->
    <title>Group</title>
    <desc>Created with Sketch.</desc>
    <defs>
        <linearGradient x1="50%" y1="0%" x2="50%" y2="100%" id="linearGradient-1">
            <stop stop-color="#5D9DF5" stop-opacity="0.85" offset="0%"></stop>
            <stop stop-color="#2C85FF" offset="100%"></stop>
        </linearGradient>
    </defs>
    <g id="Illustration" stroke="none" stroke-width="1" fill="none" fill-rule="evenodd">
        <g id="Artboard" transform="translate(-2672.000000, -667.000000)">
            <g id="Group" transform="translate(2672.000000, 667.000000)">
                <g id="File_Dock">
                    <path d="M109.7,17.4 L109.7,79 L27,79 L27,5.7 C27,2.6 29.5,0.1 32.6,0.1 L104,0.1 C107.1,0.1 109.6,2.6 109.6,5.6 L109.7,17.4 Z" id="Shape" fill="#C5DCFA"></path>
                    <path d="M118.7,17.3 L118.7,105 L18.9,105 L18.9,17.3 C18.9,13.6 21.9,10.6 25.6,10.6 L111.9,10.6 C115.7,10.6 118.7,13.6 118.7,17.3 Z" id="Shape" fill="#D1E4FC"></path>
                    <path d="M125.5,30.5 L125.5,131.7 L11.3,131.7 L11.3,30.5 C11.3,26.2 14.8,22.7 19.1,22.7 L117.7,22.7 C122,22.7 125.5,26.2 125.5,30.5 Z" id="Shape" fill="#DFECFD"></path>
                    <path d="M125.5,94.7 L125.5,138.7 L11.3,138.7 L11.3,94.7 L43.5,94.7 C43.5,94.8 43.5,94.9 43.5,95 C43.5,108.7 54.8,119.8 68.7,119.8 C82.6,119.8 93.9,108.7 93.9,95 L93.9,94.7 L125.5,94.7 Z" id="Shape" fill="#D1E4FC"></path>
                    <path d="M136.4,99.5 L136.4,134.5 C136.4,140.1 131.8,144.7 126.2,144.7 L11.1,144.7 C5.5,144.7 0.9,140.1 0.9,134.5 L0.9,99.5 L43.5,99.5 C43.5,99.6 43.5,99.7 43.5,99.8 C43.5,113.7 54.8,125 68.7,125 C82.6,125 93.9,113.7 93.9,99.8 L93.9,99.5 L136.4,99.5 Z" id="Shape" fill="#4988FD"></path>
                    <path d="M136.4,128.6 L136.4,134.5 C136.4,140.1 131.8,144.7 126.2,144.7 L11.1,144.7 C5.5,144.7 0.9,140.1 0.9,134.5 L0.9,126.2 C1.2,131.1 5.5,135 10.8,135 L127,135 C131.4,135.1 135.1,132.4 136.4,128.6 Z" id="Shape" fill="#2767F4"></path>
                </g>
                <path d="M71.1585465,72.3964509 C69.9664201,73.5211603 68.0336014,73.5211603 66.8414751,72.3964509 L59.741778,65.6982552 L45.1060734,78.2510075 C43.8585927,79.3209469 41.9279617,79.2342111 40.7938884,78.0572779 C39.659815,76.8803446 39.7517498,75.0588944 40.9992305,73.9889551 L57.788698,59.5889632 C58.9944094,58.5548486 60.8484447,58.5964723 62.0006551,59.6835231 L69.0000108,66.2870518 L81.4059614,53.2871294 C82.2299211,52.3268572 82.1524691,50.9346538 81.2264851,50.061036 L77.3343952,46.3890512 C76.7194336,45.8088669 76.7431124,44.8458626 77.3872832,44.2381208 C77.6867808,43.9555604 78.0847862,43.7875921 78.4988481,43.7690125 L95.5783094,43.0026301 C96.9141794,42.9426875 97.9984064,43.9146334 97.9999983,45.1735319 C98.0000451,45.2105904 97.999133,45.2476865 97.9972627,45.2847869 L97.184942,61.3983722 C97.1425849,62.2385882 96.3871065,62.9189061 95.4975338,62.9179049 C95.0839403,62.9174394 94.6937708,62.7667211 94.4078537,62.4969731 L90.5157659,58.8249902 C89.5897818,57.9513724 88.1141274,57.8783004 87.0962948,58.6556636 L71.1585465,72.3964509 Z" id="Path" fill="url(#linearGradient-1)"></path>
            </g>
        </g>
    </g>
</svg>