<?xml version="1.0" encoding="UTF-8"?>
<svg width="159px" height="159px" viewBox="0 0 159 159" version="1.1" xmlns="http://www.w3.org/2000/svg" xmlns:xlink="http://www.w3.org/1999/xlink">
    <!-- Generator: Sketch 52.1 (67048) - http://www.bohemiancoding.com/sketch -->
    <title>Group</title>
    <desc>Created with Sketch.</desc>
    <defs>
        <linearGradient x1="50%" y1="0%" x2="50%" y2="100%" id="linearGradient-1">
            <stop stop-color="#5D9DF5" stop-opacity="0.85" offset="0%"></stop>
            <stop stop-color="#2C85FF" offset="100%"></stop>
        </linearGradient>
        <circle id="path-2" cx="72.5" cy="72.5" r="72.5"></circle>
        <filter x="-8.6%" y="-5.9%" width="117.2%" height="117.2%" filterUnits="objectBoundingBox" id="filter-3">
            <feOffset dx="0" dy="4" in="SourceAlpha" result="shadowOffsetOuter1"></feOffset>
            <feGaussianBlur stdDeviation="3.5" in="shadowOffsetOuter1" result="shadowBlurOuter1"></feGaussianBlur>
            <feColorMatrix values="0 0 0 0 0.168627451   0 0 0 0 0.223529412   0 0 0 0 0.31372549  0 0 0 0.342900815 0" type="matrix" in="shadowBlurOuter1"></feColorMatrix>
        </filter>
        <linearGradient x1="50.0000018%" y1="1.69346098%" x2="50%" y2="100%" id="linearGradient-4">
            <stop stop-color="#FFFFFF" stop-opacity="0.874235734" offset="0%"></stop>
            <stop stop-color="#FFFFFF" stop-opacity="0.864668252" offset="100%"></stop>
        </linearGradient>
    </defs>
    <g id="Symbols" stroke="none" stroke-width="1" fill="none" fill-rule="evenodd">
        <g id="Artboard" transform="translate(-36.000000, -21.000000)">
            <g id="Group" transform="translate(43.000000, 24.000000)">
                <g id="Oval">
                    <use fill="black" fill-opacity="1" filter="url(#filter-3)" xlink:href="#path-2"></use>
                    <use fill="url(#linearGradient-1)" fill-rule="evenodd" xlink:href="#path-2"></use>
                </g>
                <path d="M72.5583054,30 C77.1309343,30 81,32.5683433 81,37.1206418 C81,51.0115043 79.3585889,70.9731567 79.3585889,84.8640192 C79.3585889,88.4829201 75.3722036,90 72.5583054,90 C68.8069137,90 65.6410566,88.4825672 65.6410566,84.8640192 C65.6410566,70.9731567 64,51.0115043 64,37.1206418 C64,32.5683433 67.7513917,30 72.5583054,30 Z M73.0588607,115 C67.8826737,115 64,110.792226 64,106 C64,101.090813 67.8823181,97 73.0588607,97 C77.882239,97 82,101.090813 82,106 C82,110.792226 77.882239,115 73.0588607,115 Z" id="Shape" fill="url(#linearGradient-4)" fill-rule="nonzero"></path>
            </g>
        </g>
    </g>
</svg>