<svg width="14" height="14" viewBox="0 0 14 14" fill="none" xmlns="http://www.w3.org/2000/svg">
<g opacity="0.8">
<path fill-rule="evenodd" clip-rule="evenodd" d="M14 7C14 7.24994 13.8154 7.46014 13.567 7.48754C12.5257 7.60238 9.76287 7.875 7 7.875C4.23713 7.875 1.47426 7.60238 0.43304 7.48754C0.184607 7.46014 0 7.24994 0 7C0 6.75006 0.184607 6.53986 0.43304 6.51246C1.47426 6.39762 4.23713 6.125 7 6.125C9.76287 6.125 12.5257 6.39762 13.567 6.51246C13.8154 6.53986 14 6.75006 14 7Z" fill="white"/>
<path fill-rule="evenodd" clip-rule="evenodd" d="M14 7C14 7.24994 13.8154 7.46014 13.567 7.48754C12.5257 7.60238 9.76287 7.875 7 7.875C4.23713 7.875 1.47426 7.60238 0.43304 7.48754C0.184607 7.46014 0 7.24994 0 7C0 6.75006 0.184607 6.53986 0.43304 6.51246C1.47426 6.39762 4.23713 6.125 7 6.125C9.76287 6.125 12.5257 6.39762 13.567 6.51246C13.8154 6.53986 14 6.75006 14 7Z" fill="url(#paint0_linear)"/>
</g>
<defs>
<linearGradient id="paint0_linear" x1="0" y1="6.125" x2="0" y2="7.875" gradientUnits="userSpaceOnUse">
<stop stop-color="#6E849A" stop-opacity="0.85"/>
<stop offset="1" stop-color="#6E849A"/>
</linearGradient>
</defs>
</svg>
