<?xml version="1.0" encoding="UTF-8"?>
<svg width="64px" height="64px" viewBox="0 0 64 64" version="1.1" xmlns="http://www.w3.org/2000/svg" xmlns:xlink="http://www.w3.org/1999/xlink">
    <title>Icon/Large/Import_Intents</title>
    <g id="Icon/Large/Import_Intents" stroke="none" stroke-width="1" fill="none" fill-rule="evenodd">
        <g id="book-(1)" transform="translate(7.500000, 0.000000)" fill-rule="nonzero">
            <path d="M3.50010715,52.5000381 C1.84330643,52.5000381 0.500015307,53.8437025 0.500015307,55.500001 C0.500015307,57.1562995 1.84330643,58.5000889 3.50010715,58.5000889 L47.5000791,58.5000889 C48.052721,58.5000889 48.4999847,58.0528258 48.4999847,57.5000596 L48.4999847,52.5000381 L3.50010715,52.5000381 Z" id="Path" fill="#FFFFFF"></path>
            <polygon id="Path" fill="#D7E9FF" points="11.500102 55.500001 11.500102 63.4999854 8.5000102 62.4999561 5.50004337 63.4999854 5.50004337 55.500001 5.50004337 54.4999717 11.500102 54.4999717"></polygon>
            <polygon id="Path" fill="#FFFFFF" points="6.50007398 54.4999717 5.50004337 54.4999717 5.50004337 63.4999854 6.50007398 63.1659756"></polygon>
            <polygon id="Path" fill="#94C1FF" points="10.5000714 54.4999717 11.500102 54.4999717 11.500102 63.4999854 10.5000714 63.1659756"></polygon>
            <path d="M3.50010715,52.5000381 C1.83993132,52.5000381 0.500015307,53.8398273 0.500015307,55.500001 L0.500015307,3.50010254 C0.500015307,1.8399289 1.83993132,0.500139653 3.50010715,0.500139653 L5.50004337,0.500139653 L5.50004337,3.50010254 L5.50004337,49.5000752 L5.50004337,52.5000381 L3.50010715,52.5000381 Z" id="Path" fill="#5C9EFF"></path>
            <g id="Group" opacity="0.3" transform="translate(0.500015, 0.500140)" fill="#FFFFFF">
                <path d="M2.00006123,2.99996289 C2.00006123,1.33978925 3.33997724,0 5.00002806,0 L3.00009184,0 C1.33991602,0 0,1.33978925 0,2.99996289 L0,54.9998613 C0,53.692198 0.836025593,52.5956659 2.00006123,52.1835288 L2.00006123,2.99996289 Z" id="Path"></path>
            </g>
            <g id="Group" transform="translate(11.499602, 6.500565)" fill="#D7E9FF">
                <rect id="Rectangle" x="0" y="0" width="30.999699" height="3.99999219"></rect>
                <path d="M22.9809535,27.9703194 C22.1508031,28.7993437 21.0198935,29.1196031 19.960486,28.9594734 L19.9507357,28.9594734 C19.8706083,29.4389875 19.6402262,29.899876 19.2700899,30.2691368 C18.2905599,31.2495405 16.7105115,31.2495405 15.7309816,30.2691368 C15.2504669,29.7896227 15.0102095,29.1597293 15.0004592,28.5395861 L15.0004592,23.9994531 L15.0004592,16.999373 L15.0004592,12.9993808 C15.0004592,11.8895983 15.8901114,10.9993222 17.0005204,10.9993222 C18.1108044,10.9993222 19.0004592,11.8894733 19.0004592,12.9993808 C19.0004592,13.279139 18.9408298,13.5393967 18.8403267,13.7791537 C19.2807152,13.3895173 19.860858,13.1492602 20.5003776,13.1492602 C21.8802948,13.1492602 23.0004592,14.269418 23.0004592,15.6595838 C23.0004592,16.1693487 22.8500745,16.6492378 22.5805662,17.0394992 C22.7104452,17.0092483 22.8608248,16.999498 23.0004592,16.999498 C24.1108631,16.999498 25.0005153,17.8896491 25.0005153,18.9995566 C25.0005153,20.1094641 24.1108631,20.9996152 23.0004592,20.9996152 C23.8306045,20.9996152 24.5005,21.6695098 24.5005,22.4996592 C24.5005,23.1196773 24.1303637,23.6398176 23.6000975,23.8696993 C24.3002439,25.189488 24.0903625,26.8589119 22.9809535,27.9703194 Z" id="Path"></path>
                <path d="M15.0004592,23.9994531 L15.0004592,28.5394611 C14.9907089,29.1596043 14.7504515,29.7894977 14.2699368,30.2690118 C13.2904068,31.2494155 11.7103585,31.2494155 10.7304535,30.2690118 C10.3603172,29.899876 10.1303101,29.4388625 10.0503077,28.9593484 L10.0405574,28.9593484 C8.98052491,29.1194781 7.85061532,28.7992187 7.02058992,27.9701944 C5.91068094,26.8587869 5.70067451,25.189363 6.40044593,23.8695743 C5.87067971,23.6395676 5.50054338,23.1195523 5.50054338,22.4995342 C5.50054338,21.6693848 6.17043889,20.9994902 7.0005893,20.9994902 C5.89068033,20.9994902 5.00052808,20.1093391 5.00052808,18.9994316 C5.00052808,17.8895241 5.89068033,16.999373 7.0005893,16.999373 C7.14071859,16.999373 7.29059818,17.0091233 7.42047716,17.0393742 C7.15046889,16.6492378 7.0005893,16.1692237 7.0005893,15.6594588 C7.0005893,14.269293 8.12074859,13.1491352 9.50054083,13.1491352 C10.1406854,13.1491352 10.7208282,13.3893923 11.1607167,13.7790287 C11.0605886,13.5392717 11.0005868,13.279014 11.0005868,12.9992558 C11.0005868,11.8894733 11.890739,10.9991972 13.0005281,10.9991972 C14.110932,10.9991972 15.0005842,11.8893483 15.0005842,12.9992558 L15.0005842,16.999248 L15.0005842,23.9994531 L15.0004592,23.9994531 L15.0004592,23.9994531 Z" id="Path"></path>
            </g>
            <g id="Group" transform="translate(16.500130, 17.500013)" fill="#FFFFFF">
                <path d="M7.16009419,2.77983144 C7.05996612,2.54007442 6.99996428,2.27981679 6.99996428,2.0000586 C6.99996428,1.06403117 7.63610876,0.291133529 8.4998852,0.0698770472 C8.33925528,0.028875846 8.17375022,0 7.99986989,0 C6.89008592,0 5.99993367,0.890151079 5.99993367,2.0000586 C5.99993367,2.07231071 6.0140591,2.13968769 6.02193434,2.20906472 C6.45307254,2.30081741 6.8437095,2.49957323 7.16009419,2.77983144 Z" id="Path"></path>
                <path d="M6.72995602,19.2695645 C6.35981969,18.9004287 6.12981265,18.4394152 6.0498102,17.9599012 L6.0400599,17.9599012 C4.98002745,18.1200309 3.84999286,17.7997715 3.02009245,16.9707472 C1.91018348,15.8593396 1.70017705,14.1899157 2.39994847,12.8701271 C1.87018225,12.6401203 1.50004592,12.1201051 1.50004592,11.5000869 C1.50004592,10.6699376 2.16994143,10.000043 3.00009184,10.000043 C1.89018286,10.000043 1.00003061,9.10989189 1.00003061,7.99998437 C1.00003061,6.89007686 1.89018286,5.99992578 3.00009184,5.99992578 C3.14022113,5.99992578 3.29010072,6.00967606 3.41997969,6.03992695 C3.14997143,5.64979052 3.00009184,5.16977646 3.00009184,4.66001152 C3.00009184,3.44422591 3.85649306,2.43544635 4.9946529,2.20106448 C4.834523,2.16881354 4.66989296,2.14981298 4.50001276,2.14981298 C3.12022052,2.14981298 2.00006123,3.2699708 2.00006123,4.66013653 C2.00006123,5.16990146 2.14994081,5.64979052 2.41994908,6.04005195 C2.2900701,6.00980107 2.14019052,6.00005078 2.00006123,6.00005078 C0.89015225,6.00005078 0,6.89020186 0,8.00010938 C0,9.1100169 0.89015225,10.000168 2.00006123,10.000168 C1.16991081,10.000168 0.500015307,10.6700626 0.500015307,11.5002119 C0.500015307,12.1202301 0.870151637,12.6403703 1.39991785,12.8702521 C0.700146433,14.1900407 0.910152862,15.8595896 2.02006184,16.9708722 C2.85021225,17.7998965 3.97999684,18.1201559 5.04002929,17.9600262 L5.04977959,17.9600262 C5.12990704,18.4395402 5.35978908,18.9004287 5.72992541,19.2696895 C6.34856934,19.8888327 7.20509556,20.1143393 7.99986989,19.9523345 C7.53498066,19.8574568 7.09171709,19.6319502 6.72995602,19.2695645 Z" id="Path"></path>
            </g>
            <g id="Group" transform="translate(5.500043, 0.500140)" fill="#94C1FF">
                <path d="M23.8398548,19.7797045 C23.9394828,19.5399475 23.9999847,19.2796898 23.9999847,18.9999316 C23.9999847,18.0639042 23.3633402,17.2910066 22.5000638,17.0697501 C22.6601937,17.0287489 22.8261988,16.999873 23.0000791,16.999873 C24.109363,16.999873 25.0000153,17.8900241 25.0000153,18.9999316 C25.0000153,19.0721838 24.9863899,19.1395607 24.9785146,19.2089378 C24.5468764,19.3006904 24.1562395,19.4994463 23.8398548,19.7797045 Z" id="Path"></path>
                <path d="M24.2694929,36.2694376 C24.6406293,35.9003018 24.8701363,35.4392883 24.9501388,34.9597742 L24.9598891,34.9597742 C26.0195465,35.1199039 27.1502061,34.7996445 27.9803565,33.9706202 C29.0897655,32.8592127 29.2997719,31.1897888 28.5995005,29.8700001 C29.1297667,29.6399934 29.4999031,29.1199781 29.4999031,28.49996 C29.4999031,27.6698106 28.8300076,26.999916 27.9998571,26.999916 C29.1092661,26.999916 29.9999184,26.1097649 29.9999184,24.9998574 C29.9999184,23.8899499 29.1092661,22.9997988 27.9998571,22.9997988 C27.8592278,22.9997988 27.7098483,23.0095491 27.5799693,23.0398 C27.8494775,22.6496636 27.9998571,22.1696495 27.9998571,21.6598846 C27.9998571,20.4440989 27.1433309,19.4353194 26.0057961,19.2009375 C26.165926,19.1686866 26.330056,19.149686 26.4998112,19.149686 C27.8797285,19.149686 28.9998878,20.2698438 28.9998878,21.6600096 C28.9998878,22.1697745 28.8495081,22.6496636 28.5799999,23.039925 C28.7098789,23.0096741 28.8592584,22.9999238 28.9998878,22.9999238 C30.1092967,22.9999238 30.999949,23.8900749 30.999949,24.9999824 C30.999949,26.1098899 30.1092967,27.000041 28.9998878,27.000041 C29.8300382,27.000041 30.4999337,27.6699356 30.4999337,28.500085 C30.4999337,29.1201031 30.1297973,29.6402434 29.5995311,29.8701251 C30.2998025,31.1899138 30.0897961,32.8594627 28.9803872,33.9707452 C28.1502367,34.7997695 27.0193271,35.1200289 25.9599197,34.9598992 L25.9501694,34.9598992 C25.8700419,35.4394133 25.6405349,35.9003018 25.2695236,36.2695626 C24.6513796,36.8887057 23.7948534,37.1142123 23.0000791,36.9522076 C23.4649683,36.8573298 23.9082319,36.6318232 24.2694929,36.2694376 Z" id="Path"></path>
                <path d="M25.2695236,36.2694376 C25.6396599,35.9003018 25.8701669,35.4392883 25.9501694,34.9597742 L25.9599197,34.9597742 C27.0194521,35.1199039 28.1502367,34.7996445 28.9803872,33.9706202 C30.0897961,32.8592127 30.2998025,31.1897888 29.5995311,29.8700001 C30.1297973,29.6399934 30.4999337,29.1199781 30.4999337,28.49996 C30.4999337,27.6698106 29.8300382,26.999916 28.9998878,26.999916 C30.1102967,26.999916 30.999949,26.1097649 30.999949,24.9998574 C30.999949,23.8899499 30.1102967,22.9997988 28.9998878,22.9997988 C28.8602585,22.9997988 28.7098789,23.0095491 28.5799999,23.0398 C28.8495081,22.6496636 28.9998878,22.1696495 28.9998878,21.6598846 C28.9998878,20.2697188 27.8797285,19.149561 26.4998112,19.149561 C25.8602916,19.149561 25.2801489,19.3898181 24.8397604,19.7794545 C24.9403885,19.5396975 24.9998903,19.2794398 24.9998903,18.9996816 C24.9998903,17.8898991 24.1102381,16.999623 22.9999541,16.999623 C21.8895451,16.999623 20.9998929,17.8897741 20.9998929,18.9996816 C20.9998929,17.8898991 20.1102406,16.999623 18.9998367,16.999623 C17.8900477,16.999623 16.9998954,17.8897741 16.9998954,18.9996816 C16.9998954,19.2794398 17.0598972,19.5396975 17.1600253,19.7794545 C16.7200118,19.3898181 16.1399941,19.149561 15.4998495,19.149561 C14.1200572,19.149561 12.999898,20.2697188 12.999898,21.6598846 C12.999898,22.1696495 13.1497775,22.6495386 13.4197858,23.0398 C13.2899068,23.0095491 13.1400272,22.9997988 12.999898,22.9997988 C11.889989,22.9997988 10.9998367,23.8899499 10.9998367,24.9998574 C10.9998367,26.1097649 11.889989,26.999916 12.999898,26.999916 C12.1697475,26.999916 11.499852,27.6698106 11.499852,28.49996 C11.499852,29.1199781 11.8699884,29.6401184 12.3997546,29.8700001 C11.6999832,31.1897888 11.9099896,32.8593377 13.0198986,33.9706202 C13.850049,34.7996445 14.9798336,35.1199039 16.039866,34.9597742 L16.0496163,34.9597742 C16.1297438,35.4392883 16.3596258,35.9001768 16.7297621,36.2694376 C17.7097921,37.2498413 19.2897155,37.2498413 20.2692455,36.2694376 C20.7497602,35.7899235 20.9900176,35.1600301 20.9997679,34.5398869 C21.0095181,35.1600301 21.2497755,35.7899235 21.7302902,36.2694376 C22.7100702,37.2498413 24.2899936,37.2498413 25.2695236,36.2694376 Z M42.9999413,0.999904294 L42.9999413,50.9998691 C42.9999413,51.5496352 42.5496775,51.9998984 42.0000357,51.9998984 L0,51.9998984 L0,48.9999355 L0,2.99996289 L0,0 L42.0000357,0 C42.5498025,0 42.9999413,0.450138188 42.9999413,0.999904294 Z M37.0000077,9.99992578 L37.0000077,5.99992578 L6.00005868,5.99992578 L6.00005868,9.99992578 C6.00005868,9.99992578 37.0000077,9.99992578 37.0000077,9.99992578 Z" id="Shape"></path>
            </g>
            <path d="M47.5000791,0.500139653 L45.5000179,0.500139653 C46.0497847,0.500139653 46.5000485,0.950402844 46.5000485,1.50016895 L46.5000485,51.5001397 C46.5000485,52.0498999 46.0497847,52.5001631 45.5000179,52.5001631 L47.5000791,52.5001631 C48.0497209,52.5001631 48.4999847,52.0498999 48.4999847,51.5001397 L48.4999847,1.50004395 C48.4999847,0.95027784 48.0498459,0.500139653 47.5000791,0.500139653 Z" id="Path" fill="#5C9EFF"></path>
            <g id="Group" fill="#116FFF">
                <path d="M47.5000791,53.0000527 L3.50010715,53.0000527 C3.22372369,53.0000527 3.00009184,52.7764212 3.00009184,52.5000381 C3.00009184,52.223655 3.22372369,52.0000234 3.50010715,52.0000234 L47.5000791,52.0000234 C47.7764625,52.0000234 47.9999694,52.223655 47.9999694,52.5000381 C47.9999694,52.7764212 47.7764625,53.0000527 47.5000791,53.0000527 Z" id="Path"></path>
                <path d="M47.5000791,1.0001543 L3.50010715,1.0001543 C3.22372369,1.0001543 3.00009184,0.77652275 3.00009184,0.500139653 C3.00009184,0.223756555 3.22372369,0.000125003662 3.50010715,0.000125003662 L47.5000791,0.000125003662 C47.7764625,0.000125003662 47.9999694,0.223756555 47.9999694,0.500139653 C47.9999694,0.77652275 47.7764625,1.0001543 47.5000791,1.0001543 Z" id="Path"></path>
                <path d="M3.50010715,58.9999785 C1.57029807,58.9999785 0,57.4296825 0,55.500001 C0,53.5703194 1.57029807,52.0000234 3.50010715,52.0000234 C3.77649061,52.0000234 4,52.223655 4,52.5000381 C4,52.7764212 3.77649061,53.0000527 3.50010715,53.0000527 C2.12168995,53.0000527 1.00003061,54.1210856 1.00003061,55.500001 C1.00003061,56.8789164 2.12168995,58.0000742 3.50010715,58.0000742 C3.77649061,58.0000742 4,58.2237058 4,58.5000889 C4,58.776347 3.77649061,58.9999785 3.50010715,58.9999785 Z" id="Path"></path>
                <path d="M3.50010715,57.0000449 C2.67295683,57.0000449 2.00006123,56.3271502 2.00006123,55.500001 C2.00006123,54.6728517 2.67295683,53.999957 3.50010715,53.999957 C3.77649061,53.999957 3.99999745,54.2235886 3.99999745,54.4999717 C3.99999745,54.7763548 3.77649061,54.9999863 3.50010715,54.9999863 C3.2242237,54.9999863 3.00009184,55.2246179 3.00009184,55.500001 C3.00009184,55.775384 3.2242237,56.0000156 3.50010715,56.0000156 C3.77649061,56.0000156 3.99999745,56.2236472 3.99999745,56.5000303 C3.99999745,56.7764134 3.77649061,57.0000449 3.50010715,57.0000449 Z" id="Path"></path>
                <path d="M0.500015307,4.000125 C0.223631846,4.000125 0,3.77648564 0,3.50010254 C0,1.57042101 1.57029807,0.000125003662 3.50010715,0.000125003662 C3.77649061,0.000125003662 4,0.223756555 4,0.500139653 C4,0.77652275 3.77649061,1.0001543 3.50010715,1.0001543 C2.12168995,1.0001543 1.00003061,2.12168716 1.00003061,3.50010254 C1.00003061,3.77648564 0.776398767,4.000125 0.500015307,4.000125 Z" id="Path"></path>
                <path d="M0.500015307,56.0000156 C0.223631846,56.0000156 0,55.7763841 0,55.500001 L0,3.50010254 C0,3.22371944 0.223631846,3.00008789 0.500015307,3.00008789 C0.776398767,3.00008789 1.00003061,3.22371944 1.00003061,3.50010254 L1.00003061,55.500001 C1.00003061,55.7763841 0.776398767,56.0000156 0.500015307,56.0000156 Z" id="Path"></path>
                <path d="M48.4999847,2.0000586 C48.2236012,2.0000586 47.9999694,1.77642704 47.9999694,1.50004395 C47.9999694,1.22416086 47.7754625,1.0000293 47.5000791,1.0000293 C47.2236956,1.0000293 47.0000638,0.776397746 47.0000638,0.500014649 C47.0000638,0.223631552 47.2236956,0 47.5000791,0 C48.3271044,0 49,0.672894714 49,1.50004395 C49,1.77642704 48.7763682,2.0000586 48.4999847,2.0000586 Z" id="Path"></path>
                <path d="M47.5000791,53.0000527 C47.2236956,53.0000527 47.0000638,52.7764212 47.0000638,52.5000381 C47.0000638,52.223655 47.2236956,52.0000234 47.5000791,52.0000234 C47.7754625,52.0000234 47.9999694,51.7753919 47.9999694,51.5000088 C47.9999694,51.2236257 48.2236012,50.9999941 48.4999847,50.9999941 C48.7763682,50.9999941 49,51.2236257 49,51.5000088 C49,52.327158 48.3271044,53.0000527 47.5000791,53.0000527 Z" id="Path"></path>
                <path d="M47.5000791,58.9999785 L12.5000077,58.9999785 C12.2236242,58.9999785 11.9999923,58.776347 11.9999923,58.5000889 C11.9999923,58.2237058 12.2236242,58.0000742 12.5000077,58.0000742 L47.5000791,58.0000742 C47.7764625,58.0000742 47.9999694,58.2237058 47.9999694,58.5000889 C47.9999694,58.776347 47.7764625,58.9999785 47.5000791,58.9999785 Z" id="Path"></path>
                <path d="M47.5000791,58.9999785 C47.2236956,58.9999785 47.0000638,58.776347 47.0000638,58.5000889 C47.0000638,58.2237058 47.2236956,58.0000742 47.5000791,58.0000742 C47.7754625,58.0000742 47.9999694,57.7754426 47.9999694,57.5000596 C47.9999694,57.2236765 48.2236012,57.0000449 48.4999847,57.0000449 C48.7763682,57.0000449 49,57.2236765 49,57.5000596 C49,58.3272088 48.3271044,58.9999785 47.5000791,58.9999785 Z" id="Path"></path>
                <path d="M48.4999847,52.0000293 C48.2236012,52.0000293 47.9999694,51.7763919 47.9999694,51.5000088 L47.9999694,1.50004395 C47.9999694,1.22378585 48.2236012,1.0000293 48.4999847,1.0000293 C48.7763682,1.0000293 49,1.22366085 49,1.50004395 L49,51.5000088 C49,51.7763919 48.7763682,52.0000293 48.4999847,52.0000293 Z" id="Path"></path>
                <path d="M48.4999847,58.0000742 C48.2236012,58.0000742 47.9999694,57.7764427 47.9999694,57.5000527 L47.9999694,53.4999424 C47.9999694,53.2236843 48.2236012,53.0000527 48.4999847,53.0000527 C48.7763682,53.0000527 49,53.2236843 49,53.4999424 L49,57.5000527 C49,57.7764427 48.7763682,58.0000742 48.4999847,58.0000742 Z" id="Path"></path>
                <path d="M5.50004337,52.0000293 C5.22365991,52.0000293 5.00002806,51.7763919 5.00002806,51.5000088 L5.00002806,1.50004395 C5.00002806,1.22378585 5.22365991,1.0000293 5.50004337,1.0000293 C5.77642683,1.0000293 6.00005868,1.22366085 6.00005868,1.50004395 L6.00005868,51.5000088 C6.00005868,51.7763919 5.77642683,52.0000293 5.50004337,52.0000293 Z" id="Path"></path>
                <path d="M46.5000485,57.0000449 L12.5000077,57.0000449 C12.2236242,57.0000449 11.9999923,56.7764134 11.9999923,56.5000303 C11.9999923,56.2236472 12.2236242,56.0000156 12.5000077,56.0000156 L46.5000485,56.0000156 C46.7764319,56.0000156 47.0000638,56.2236472 47.0000638,56.5000303 C47.0000638,56.7764134 46.7764319,57.0000449 46.5000485,57.0000449 Z" id="Path"></path>
                <path d="M46.5000485,54.9999863 L3.50010715,54.9999863 C3.22372369,54.9999863 3.00009184,54.7763548 3.00009184,54.4999717 C3.00009184,54.2235886 3.22372369,53.999957 3.50010715,53.999957 L46.5000485,53.999957 C46.7764319,53.999957 47.0000638,54.2235886 47.0000638,54.4999717 C47.0000638,54.7763548 46.7764319,54.9999863 46.5000485,54.9999863 Z" id="Path"></path>
                <path d="M42.500051,11.0000723 L11.500102,11.0000723 C11.2237186,11.0000723 11.0000867,10.7764407 11.0000867,10.5000508 L11.0000867,6.50006543 C11.0000867,6.22368233 11.2237186,6.00005078 11.500102,6.00005078 L42.500051,6.00005078 C42.7764345,6.00005078 43.0000663,6.22368233 43.0000663,6.50006543 L43.0000663,10.5000508 C43.0000663,10.7764407 42.7764345,11.0000723 42.500051,11.0000723 Z M11.9999923,10.000043 L42.0000357,10.000043 L42.0000357,6.99995508 L11.9999923,6.99995508 L11.9999923,10.000043 Z" id="Shape"></path>
                <path d="M37.500023,9.00013868 L16.5000051,9.00013868 C16.2236216,9.00013868 15.9999898,8.77650712 15.9999898,8.50012403 C15.9999898,8.22374093 16.2236216,8.00010938 16.5000051,8.00010938 L37.500023,8.00010938 C37.7764064,8.00010938 38.0000383,8.22374093 38.0000383,8.50012403 C38.0000383,8.77650712 37.7764064,9.00013868 37.500023,9.00013868 Z" id="Path"></path>
                <path d="M37.500023,45.0000684 L16.5000051,45.0000684 C16.2236216,45.0000684 15.9999898,44.7764368 15.9999898,44.5000537 C15.9999898,44.2236706 16.2236216,44.0000391 16.5000051,44.0000391 L37.500023,44.0000391 C37.7764064,44.0000391 38.0000383,44.2236706 38.0000383,44.5000537 C38.0000383,44.7764368 37.7764064,45.0000684 37.500023,45.0000684 Z" id="Path"></path>
                <path d="M31.5000893,47.000002 L22.5000638,47.000002 C22.2236803,47.000002 22.0000485,46.7763704 22.0000485,46.4999873 C22.0000485,46.2236042 22.2236803,45.9999727 22.5000638,45.9999727 L31.5000893,45.9999727 C31.7764727,45.9999727 31.9999796,46.2236042 31.9999796,46.4999873 C31.9999796,46.7763704 31.7764727,47.000002 31.5000893,47.000002 Z" id="Path"></path>
                <path d="M5.50004337,64 C5.22365991,64 5.00002806,63.7763684 5.00002806,63.4999863 L5.00002806,55.500001 C5.00002806,55.2236179 5.22365991,54.9999863 5.50004337,54.9999863 C5.77642683,54.9999863 6.00005868,55.2236179 6.00005868,55.500001 L6.00005868,63.4999863 C6.00005868,63.7763684 5.77642683,64 5.50004337,64 Z" id="Path"></path>
                <path d="M11.500102,64 C11.2237186,64 11.0000867,63.7763684 11.0000867,63.4999863 L11.0000867,55.500001 C11.0000867,55.2236179 11.2237186,54.9999863 11.500102,54.9999863 C11.7764855,54.9999863 11.9999923,55.2236179 11.9999923,55.500001 L11.9999923,63.4999863 C11.9999923,63.7763684 11.7764855,64 11.500102,64 Z" id="Path"></path>
                <path d="M5.50004337,64 C5.29053696,64 5.09578099,63.8672461 5.02590385,63.65824 C4.93852618,63.3964823 5.08015551,63.113349 5.34178852,63.0254714 L8.34175536,62.0254422 C8.60688848,61.9375646 8.88664704,62.0801938 8.97414972,62.3418264 C9.0616524,62.6034591 8.91989806,62.8867174 8.65826505,62.974595 L5.65829821,63.9746243 C5.6055466,63.9922498 5.55229497,64 5.50004337,64 Z" id="Path"></path>
                <path d="M11.500102,64 C11.4478504,64 11.3945988,63.9922498 11.3418472,63.9746243 L8.34175536,62.974595 C8.07999735,62.8867174 7.93849302,62.6034591 8.02587069,62.3418264 C8.11324836,62.0800688 8.39450697,61.9375646 8.65826505,62.0254422 L11.6583569,63.0254714 C11.9201149,63.113349 12.0616192,63.3966073 11.9742416,63.65824 C11.9043644,63.8672461 11.7096085,64 11.500102,64 Z" id="Path"></path>
                <path d="M8.5000102,61.0000371 C8.22362674,61.0000371 7.9999949,60.7764056 7.9999949,60.5000225 L7.9999949,55.6201295 C7.9999949,55.3437464 8.22362674,55.1201148 8.5000102,55.1201148 C8.77639367,55.1201148 9.00002551,55.3437464 9.00002551,55.6201295 L9.00002551,60.5000225 C9.00002551,60.7764056 8.77639367,61.0000371 8.5000102,61.0000371 Z" id="Path"></path>
                <path d="M23.9999847,38.0048634 C23.1988352,38.0048634 22.4449371,37.6913542 21.8765447,37.1230876 C21.4400313,36.6875748 21.1562726,36.1406838 21.0566446,35.5429163 C20.8613886,34.5897634 21.166523,33.585984 21.8765447,32.8764632 C22.0718007,32.6812075 22.3883104,32.6812075 22.5835663,32.8764632 C22.7788223,33.0722189 22.7788223,33.3887282 22.5835663,33.5839839 C22.1119269,34.0547477 21.9087957,34.7186421 22.0395497,35.3592859 C22.1084268,35.7694229 22.2954325,36.1278084 22.5835663,36.4159419 C23.3423396,37.1757141 24.6562548,37.1757141 25.416028,36.4159419 C25.7841643,36.0486811 25.9921707,35.5565417 26.0000459,35.0321513 C26.003921,34.7557682 26.2461785,34.5565124 26.5078115,34.5398869 C26.7841949,34.5447621 27.0039517,34.7713937 27.000127,35.0476518 C26.9873261,35.8337998 26.6758166,36.5711964 26.1230497,37.1229626 C25.5547823,37.6913542 24.8007592,38.0048634 23.9999847,38.0048634 Z" id="Path"></path>
                <path d="M21.0000179,25.1499868 C19.9976122,25.1499868 19.0650836,24.6524722 18.5049415,23.8189478 C18.1758064,23.3438089 18.000051,22.768167 18.000051,22.1602742 C18.000051,20.5006006 19.3458422,19.149936 21.0000179,19.149936 C21.7344153,19.149936 22.441437,19.4184439 22.9918288,19.9053332 C23.1983352,20.0884635 23.2179608,20.4048478 23.0348301,20.6113538 C22.8516995,20.8183599 22.5358149,20.8364854 22.3288085,20.6543551 C21.9615473,20.3290956 21.4899079,20.1499653 21.0001429,20.1499653 C19.8972341,20.1499653 19.0002066,21.0518668 19.0002066,22.1602742 C19.0002066,22.5640361 19.1144601,22.9424221 19.3312168,23.2554313 C19.7091033,23.8179478 20.3316224,24.1499575 21.0001429,24.1499575 C21.2765263,24.1499575 21.5001582,24.3735891 21.5001582,24.6499722 C21.5001582,24.9263553 21.2764013,25.1499868 21.0000179,25.1499868 Z" id="Path"></path>
                <path d="M17.8994229,30.8701544 C17.8330459,30.8701544 17.7656688,30.857029 17.7006669,30.8286532 C16.9711445,30.5122689 16.5000051,29.7944979 16.5000051,29.0000996 C16.5000051,27.8970673 17.3970326,27.000041 18.5000663,27.000041 C18.7764498,27.000041 19.0000816,27.2236726 19.0000816,27.5000557 C19.0000816,27.7764388 18.7764498,28.0000703 18.5000663,28.0000703 C17.9487995,28.0000703 17.5000357,28.4488335 17.5000357,29.0000996 C17.5000357,29.4019864 17.7295427,29.7509966 18.0991791,29.9116263 C18.3525618,30.0215045 18.4688154,30.3158882 18.358437,30.5692706 C18.2769345,30.7577761 18.0928039,30.8701544 17.8994229,30.8701544 Z" id="Path"></path>
                <path d="M18.5000663,28.0000703 C17.1216491,28.0000703 15.9999898,26.8784125 15.9999898,25.4999971 C15.9999898,24.1215817 17.1216491,22.9999238 18.5000663,22.9999238 C18.7026975,22.9999238 18.882453,23.0180494 19.0333327,23.0531754 C19.3023409,23.1156772 19.469846,23.3846851 19.4068441,23.653318 C19.3438422,23.9223258 19.0738339,24.0864557 18.8067007,24.0268289 C18.7534491,24.0145786 18.6578212,23.9999531 18.5000663,23.9999531 C17.672916,23.9999531 17.0000204,24.6728478 17.0000204,25.4999971 C17.0000204,26.3271463 17.672916,27.000041 18.5000663,27.000041 C18.7764498,27.000041 19.0000816,27.2236726 19.0000816,27.5000557 C19.0000816,27.7764388 18.7764498,28.0000703 18.5000663,28.0000703 Z" id="Path"></path>
                <path d="M24.5,22.0000195 C23.488344,22.0000195 22.5850664,21.400502 22.1988046,20.4722248 C22.0669255,20.1568405 22.0000485,19.8295809 22.0000485,19.5000713 C22.0000485,18.1216559 23.1217078,17.0001231 24.5,17.0001231 C25.8789172,17.0001231 27.0000765,18.1216559 27.0000765,19.5000713 C27.0000765,19.7764544 26.7764447,20.0000859 26.5000612,20.0000859 C26.2236778,20.0000859 26.0000485,19.7764544 26.0000485,19.5000713 C26.0000485,18.6729221 25.3271503,18.0000273 24.5,18.0000273 C23.6729747,18.0000273 23.0000791,18.6727971 23.0000791,19.5000713 C23.0000791,19.696327 23.0410803,19.8940828 23.1217078,20.0869635 C23.3527149,20.6421047 23.8937314,21.0001231 24.5,21.0001231 C24.7763835,21.0001231 25.0000153,21.2237468 25.0000153,21.5001231 C25.0000153,21.776388 24.7763835,22.0000195 24.5,22.0000195 Z" id="Path"></path>
                <path d="M20.9966428,36.0010547 C19.9376103,36.0010547 18.9313295,35.5879176 18.1665561,34.8242702 C16.9185179,33.5753587 16.6337592,31.6910534 17.4580344,30.1358829 C17.6489153,29.7784974 17.8901727,29.4523629 18.1763064,29.1667295 C18.9258294,28.4118324 19.9248599,27.9943201 20.9892675,27.9928201 C20.9917676,27.9923201 20.9941427,27.9923201 20.9966428,27.9923201 C22.0625504,27.9923201 23.0665811,28.4093323 23.8238543,29.1667295 C24.0191103,29.3619852 24.0191103,29.6783695 23.8238543,29.8737502 C23.6285983,30.0690059 23.3120886,30.0690059 23.1168327,29.8737502 C22.5484403,29.3054836 21.7955422,28.9924744 20.9966428,28.9924744 C20.9946427,28.9924744 20.9927676,28.9929744 20.9912676,28.9929744 C20.1948682,28.9939744 19.4464703,29.3064836 18.8848281,29.8723752 C18.6675715,30.0901315 18.4849409,30.3362638 18.3413115,30.6057717 C17.7240426,31.7694307 17.9379241,33.1810971 18.8735778,34.1176245 C19.5585987,34.8011446 20.5048777,35.1146537 21.4652821,34.9651494 C21.7406655,34.9300233 21.9931733,35.1126537 22.0346745,35.3850367 C22.0756758,35.6585447 21.88767,35.9134272 21.6147867,35.9544284 C21.4077803,35.9864293 21.201149,36.0010547 20.9966428,36.0010547 Z" id="Path"></path>
                <path d="M29.0001378,38.0048634 C28.1993632,38.0048634 27.4453402,37.6913542 26.8770728,37.1230876 C26.3243058,36.5713214 26.0127963,35.8340498 25.9999954,35.0477768 C25.9961708,34.7713937 26.2159275,34.5448871 26.492311,34.5400119 C26.7891951,34.5487622 26.9962014,34.7558932 27.0000765,35.0322763 C27.0078268,35.5566667 27.2159581,36.0489311 27.5840944,36.4160669 C28.3438677,37.1758391 29.6562828,37.1758391 30.4160561,36.4160669 C30.705065,36.1279334 30.8916957,35.7685479 30.9570727,35.3770364 C31.0918268,34.7187672 30.8886956,34.0558727 30.4160561,33.5841089 C30.2208001,33.3888532 30.2208001,33.0723439 30.4160561,32.8765882 C30.6113121,32.6813325 30.9278218,32.6813325 31.1230777,32.8765882 C31.8340995,33.586109 32.1396089,34.5898884 31.9404778,35.5606668 C31.8438498,36.1398088 31.5595911,36.6866998 31.1230777,37.1232126 C30.5548104,37.6913542 29.8007873,38.0048634 29.0001378,38.0048634 Z" id="Path"></path>
                <path d="M31.9999796,25.1499868 C31.7237211,25.1499868 31.5000893,24.9263553 31.5000893,24.6499722 C31.5000893,24.3735891 31.7237211,24.1499575 31.9999796,24.1499575 C32.6690001,24.1499575 33.2910191,23.8179478 33.6650306,23.2613065 C33.8857873,22.9419221 34.0000408,22.563536 34.0000408,22.1602742 C34.0000408,21.0518668 33.1025133,20.1499653 31.9999796,20.1499653 C31.5108396,20.1499653 31.0390752,20.3292206 30.6709389,20.6543551 C30.4658076,20.8359854 30.1484229,20.8179849 29.9657923,20.6113538 C29.7821617,20.4043478 29.8017873,20.0883385 30.0087936,19.9053332 C30.5595605,19.4180689 31.2665821,19.149936 31.9999796,19.149936 C33.6542802,19.149936 35.0000714,20.5006006 35.0000714,22.1602742 C35.0000714,22.767167 34.8243161,23.3428089 34.4913059,23.824323 C33.9346638,24.6524722 33.0020103,25.1499868 31.9999796,25.1499868 Z" id="Path"></path>
                <path d="M35.0996995,30.8701544 C34.9063186,30.8701544 34.7226879,30.7579011 34.6406854,30.5688956 C34.5313071,30.3160132 34.6475606,30.0216295 34.9004434,29.9117513 C35.2705797,29.7511216 35.5000867,29.4019864 35.5000867,29.0002246 C35.5000867,28.4489585 35.051823,28.0001953 34.5000561,28.0001953 C34.2236727,28.0001953 34.0000408,27.7765638 34.0000408,27.5001807 C34.0000408,27.2237976 34.2236727,27.000166 34.5000561,27.000166 C35.6025899,27.000166 36.5001174,27.8971923 36.5001174,29.0002246 C36.5001174,29.7946229 36.0284779,30.5123939 35.2989556,30.8287782 C35.2334536,30.856904 35.1660765,30.8701544 35.0996995,30.8701544 Z" id="Path"></path>
                <path d="M34.5000561,28.0000703 C34.2236727,28.0000703 34.0000408,27.7764388 34.0000408,27.5000557 C34.0000408,27.2236726 34.2236727,27.000041 34.5000561,27.000041 C35.3272064,27.000041 36.000102,26.3272713 36.000102,25.4999971 C36.000102,24.6728478 35.3272064,23.9999531 34.5000561,23.9999531 C34.3428013,23.9999531 34.2461734,24.0145786 34.1934217,24.0268289 C33.9219134,24.0903308 33.6552803,23.9218258 33.5927784,23.653318 C33.5302764,23.3848101 33.6972815,23.1156772 33.9667898,23.0531754 C34.1181694,23.0180494 34.2969249,22.9999238 34.5000561,22.9999238 C35.8789733,22.9999238 37.0001327,24.1215817 37.0001327,25.4999971 C37.0001327,26.8784125 35.8789733,28.0000703 34.5000561,28.0000703 Z" id="Path"></path>
                <path d="M28.5001225,22.0000195 C28.223739,22.0000195 28.0001071,21.776388 28.0001071,21.499998 C28.0001071,21.2237468 28.223739,20.999998 28.5001225,20.999998 C29.106516,20.999998 29.6475326,20.6421047 29.8779146,20.0873385 C29.9589171,19.8944578 30.0000459,19.6972021 30.0000459,19.4999463 C30.0000459,18.6727971 29.3271478,17.9999023 28.5001225,17.9999023 C27.6729721,17.9999023 27.0000765,18.6726721 27.0000765,19.4999463 C27.0000765,19.7763294 26.7764447,19.9999609 26.5000612,19.9999609 C26.2236778,19.9999609 26.0000459,19.7763294 26.0000459,19.4999463 C26.0000459,18.1215309 27.1212052,16.999998 28.5001225,16.999998 C29.8789147,16.999998 31.000074,18.1215309 31.000074,19.4999463 C31.000074,19.830956 30.9326969,20.1582156 30.8008179,20.4730998 C30.4150561,21.400502 29.5117784,22.0000195 28.5001225,22.0000195 Z" id="Path"></path>
                <path d="M31.9834791,36.0000547 C31.784223,36.0000547 31.5849669,35.9844292 31.3848358,35.9541783 C31.1123274,35.9131771 30.9238216,35.6582947 30.9658229,35.3847867 C31.0068242,35.1112787 31.261707,34.9257732 31.5352154,34.9648994 C32.4961198,35.1134037 33.4413987,34.8008946 34.1269197,34.1173745 C35.0624483,33.1808471 35.2754549,31.7691807 34.658186,30.6045216 C34.5155566,30.3355137 34.332926,30.0898815 34.1171694,29.8741252 C33.5536522,29.3067336 32.8056293,28.9942244 32.0097299,28.9928494 C32.0077298,28.9928494 32.0058548,28.9923494 32.0038547,28.9923494 C31.2050803,28.9923494 30.4521822,29.3053586 29.8837898,29.8736252 C29.6885338,30.0688809 29.3720241,30.0688809 29.1767682,29.8736252 C28.9815122,29.6783695 28.9815122,29.3619852 29.1767682,29.1666045 C29.9336663,28.4092073 30.9375721,27.9921951 32.0038547,27.9921951 C32.0067298,27.9921951 32.0087299,27.9921951 32.0116049,27.9926951 C33.0761375,27.9946952 34.0751681,28.4120824 34.824191,29.1679795 C35.1103248,29.4521129 35.3515822,29.7787474 35.540963,30.1357579 C36.3662383,31.6909284 36.0819796,33.5742336 34.8339413,34.8241452 C34.0771682,35.5801674 33.0440116,35.9990547 31.9834791,36.0000547 Z" id="Path"></path>
                <path d="M26.5000612,35.5400412 C26.2236778,35.5400412 26.0000459,35.3164097 26.0000459,35.0400266 L26.0000459,19.5000713 C26.0000459,19.2236882 26.2236778,19.0000566 26.5000612,19.0000566 C26.7764447,19.0000566 27.0000765,19.2236882 27.0000765,19.5000713 L27.0000765,35.0400266 C27.0000765,35.3164097 26.7764447,35.5400412 26.5000612,35.5400412 Z" id="Path"></path>
                <path d="M28.0001071,32.0000625 C26.7060675,32.0000625 26.0791733,30.7759016 26.0527975,30.7236501 C25.9297938,30.4766429 26.0292968,30.1763841 26.2764294,30.0527555 C26.5235619,29.9311269 26.820446,30.0283797 26.9463249,30.2740119 C26.9540751,30.2891374 27.3330867,31.0000332 28.0001071,31.0000332 C28.2764906,31.0000332 28.5001225,31.2236648 28.5001225,31.5000479 C28.5001225,31.776431 28.2764906,32.0000625 28.0001071,32.0000625 Z" id="Path"></path>
                <path d="M25.0000153,32.0000625 C24.7236318,32.0000625 24.5,31.776431 24.5,31.5000479 C24.5,31.2236648 24.7236318,31.0000332 25.0000153,31.0000332 C25.6699108,31.0000332 26.0381721,30.2871373 26.0410472,30.2798871 C26.1631759,30.0323799 26.4649352,29.9292518 26.7100677,30.0513804 C26.9580752,30.172509 27.0607034,30.4722677 26.9395747,30.720275 C26.9131989,30.7725265 26.29693,32.0000625 25.0000153,32.0000625 Z" id="Path"></path>
                <path d="M29.0001378,26.0000117 C26.6270651,26.0000117 26.0000459,24.3647138 26.0000459,23.4999385 C26.0000459,23.2235554 26.2236778,22.9999238 26.5000612,22.9999238 C26.7754447,22.9999238 26.9980765,23.2220553 27.0000765,23.4965634 C27.0029516,23.655318 27.0869542,24.9999824 29.0001378,24.9999824 C29.2763962,24.9999824 29.5000281,25.223614 29.5000281,25.4999971 C29.5000281,25.7763802 29.2763962,26.0000117 29.0001378,26.0000117 Z" id="Path"></path>
                <path d="M23.9999847,26.0000117 C23.7237262,26.0000117 23.5000944,25.7763802 23.5000944,25.4999971 C23.5000944,25.223739 23.7237262,24.9999824 23.9999847,24.9999824 C25.9677949,24.9999824 25.9902956,23.5609403 25.9902956,23.4999385 C25.9902956,23.2235554 26.2139275,22.9999238 26.4903109,22.9999238 C26.7666944,22.9999238 26.9903262,23.2235554 26.9903262,23.4999385 C26.9903262,24.3648388 26.3653071,26.0000117 23.9999847,26.0000117 Z" id="Path"></path>
                <path d="M4.50001276,57.0000449 L3.50010715,57.0000449 C3.22372369,57.0000449 3.00009184,56.7764134 3.00009184,56.5000303 C3.00009184,56.2236472 3.22372369,56.0000156 3.50010715,56.0000156 L4.50001276,56.0000156 C4.77639622,56.0000156 5.00002806,56.2236472 5.00002806,56.5000303 C5.00002806,56.7764134 4.77639622,57.0000449 4.50001276,57.0000449 Z" id="Path"></path>
                <path d="M4.50001276,58.9999785 L3.50010715,58.9999785 C3.22372369,58.9999785 3.00009184,58.776347 3.00009184,58.5000889 C3.00009184,58.2237058 3.22372369,58.0000742 3.50010715,58.0000742 L4.50001276,58.0000742 C4.77639622,58.0000742 5.00002806,58.2237058 5.00002806,58.5000889 C5.00002806,58.776347 4.77639622,58.9999785 4.50001276,58.9999785 Z" id="Path"></path>
            </g>
        </g>
    </g>
</svg>