<?xml version="1.0" encoding="UTF-8"?>
<svg width="16px" height="16px" viewBox="0 0 16 16" version="1.1" xmlns="http://www.w3.org/2000/svg" xmlns:xlink="http://www.w3.org/1999/xlink">
    <!-- Generator: Sketch 57.1 (83088) - https://sketch.com -->
    <title>Icon/System/Search</title>
    <desc>Created with Sketch.</desc>
    <defs>
        <linearGradient x1="50%" y1="0%" x2="50%" y2="100%" id="linearGradient-1">
            <stop stop-color="#6E849A" stop-opacity="0.85" offset="0%"></stop>
            <stop stop-color="#6E849A" offset="100%"></stop>
        </linearGradient>
        <path d="M11.9090392,10.1942771 C11.6067775,9.91926258 11.529589,9.47606336 11.7200355,9.11443012 C12.2920963,8.02808675 12.5517961,6.75118215 12.3808271,5.40353892 C12.0403318,2.72701984 9.93027138,0.523294723 7.26907034,0.0865919072 C3.01720833,-0.611410775 -0.607767341,3.01286168 0.0854867129,7.26728548 C0.519041017,9.92648081 2.7135039,12.0378126 5.38480438,12.3857312 C6.72875058,12.5604123 8.00272213,12.3041652 9.08841136,11.7360907 C9.44621991,11.5491385 9.88338115,11.6249299 10.1575087,11.9215991 L13.5191776,15.5530898 C14.1063876,16.1875721 15.1560075,16.1413754 15.7093122,15.4469819 C16.1868712,14.8471471 16.0512502,13.959305 15.4835177,13.4439235 L11.9090392,10.1942771 Z M1.60040192,6.21992054 C1.60040192,3.66899864 3.66717909,1.60169804 6.21656497,1.60169804 C8.76522945,1.60169804 10.8320066,3.66899864 10.8320066,6.21992054 C10.8320066,8.77084245 8.76522945,10.838143 6.21656497,10.838143 C3.66717909,10.838143 1.60040192,8.77084245 1.60040192,6.21992054 L1.60040192,6.21992054 Z" id="path-2"></path>
    </defs>
    <g id="Icon/System/Search" stroke="none" stroke-width="1" fill="none" fill-rule="evenodd">
        <g id="Group-13">
            <rect id="Rectangle-3" x="0" y="0" width="16" height="16"></rect>
            <g id="search">
                <use fill="#FFFFFF" xlink:href="#path-2"></use>
                <use fill="url(#linearGradient-1)" xlink:href="#path-2"></use>
            </g>
        </g>
    </g>
</svg>