<?xml version="1.0" encoding="UTF-8"?>
<svg width="16px" height="16px" viewBox="0 0 16 16" version="1.1" xmlns="http://www.w3.org/2000/svg" xmlns:xlink="http://www.w3.org/1999/xlink">
    <!-- Generator: Sketch 52.2 (67145) - http://www.bohemiancoding.com/sketch -->
    <title>Icon/System/Progress-bar_circle</title>
    <desc>Created with Sketch.</desc>
    <defs>
        <path d="M1.1224668,6.68950224 C1.11188787,6.6919869 1.09931483,6.70449279 1.08474766,6.7270199 L1.08472293,6.72700391 C0.93055184,6.96541879 0.612298032,7.03371187 0.373883157,6.87954078 C0.243158803,6.79500781 0.157780896,6.65579181 0.141701994,6.50094948 C0.14383774,6.48975351 0.145996203,6.47856674 0.14817733,6.46738919 C0.880875091,2.71256055 4.17116156,-5.55111512e-17 8,-5.55111512e-17 C8.26851618,0.080554853 8.42088894,0.363532834 8.34033408,0.632049011 C8.29788358,0.773550699 8.19589289,0.889537665 8.06098228,0.949736517 C8.02032534,0.967861336 8,0.98462051 8,1 C4.58190987,1 1.73601981,3.44987974 1.1224668,6.68950224 Z" id="path-1"></path>
    </defs>
    <g id="Icon/System/Progress-bar_circle" stroke="none" stroke-width="1" fill="none" fill-rule="evenodd">
        <g id="Group-15" transform="translate(8.000000, 8.000000) scale(-1, 1) translate(-8.000000, -8.000000) ">
            <path d="M8,16 C3.581722,16 0,12.418278 0,8 C0,3.581722 3.581722,0 8,0 C12.418278,0 16,3.581722 16,8 C16,12.418278 12.418278,16 8,16 Z M8,15 C11.8659932,15 15,11.8659932 15,8 C15,4.13400675 11.8659932,1 8,1 C4.13400675,1 1,4.13400675 1,8 C1,11.8659932 4.13400675,15 8,15 Z" id="Combined-Shape" fill="#EAEFF4"></path>
            <g id="Combined-Shape">
                <use fill="#FFFFFF" xlink:href="#path-1"></use>
                <use fill="#393E42" xlink:href="#path-1"></use>
            </g>
        </g>
    </g>
</svg>