<?xml version="1.0" encoding="UTF-8"?>
<svg viewBox="0 0 64 64" version="1.1" xmlns="http://www.w3.org/2000/svg" xmlns:xlink="http://www.w3.org/1999/xlink">
    <!-- Generator: Sketch 52.2 (67145) - http://www.bohemiancoding.com/sketch -->
    <title>Icon/Large/404</title>
    <desc>Created with Sketch.</desc>
    <g id="Icon/Large/404" stroke="none" stroke-width="1" fill="none" fill-rule="evenodd">
        <g id="Group-2">
            <rect id="Rectangle" x="0" y="0" width="64" height="64"></rect>
            <g id="22.-ufo,-alien,-human,-space,-star,-astronomy,-discovery" transform="translate(0.000000, 6.000000)" fill-rule="nonzero">
                <path d="M31.9795,19.502875 L29.9805,19.502875 L27.9815,19.502875 L27.071875,19.502875 L25.9825,19.502875 L24.48325,19.502875 C23.93375,19.502875 23.48375,19.05275 23.48375,18.50325 L23.48375,17.50375 L40.475625,17.50375 L40.475625,18.50325 C40.475625,19.05275 40.025625,19.502875 39.476125,19.502875 L37.976875,19.502875 L36.8875,19.502875 L35.97775,19.502875 L33.97875,19.502875 L31.9795,19.502875 Z" id="Shape" fill="#94C1FF"></path>
                <path d="M8.490875,30.4975 C10.150125,30.4975 11.489375,41.711875 11.489375,43.3615 C11.489375,45.02075 10.150125,46.36 8.490875,46.36 C6.8315,46.36 5.492375,45.02075 5.492375,43.3615 C5.49225,41.711875 6.8315,30.4975 8.490875,30.4975 Z" id="Shape" fill="#D7E9FF"></path>
                <path d="M6.491875,43.361625 C6.491875,41.881875 7.570375,32.705625 8.990625,30.835375 C8.828125,30.621625 8.661125,30.497625 8.490875,30.497625 C6.8315,30.497625 5.492375,41.712 5.492375,43.361625 C5.492375,45.020875 6.8315,46.360125 8.490875,46.360125 C8.662125,46.360125 8.827125,46.337625 8.990625,46.310375 C7.571375,46.072125 6.491875,44.850125 6.491875,43.361625 Z" id="Shape" fill="#FFFFFF"></path>
                <path d="M10.489875,43.361625 C10.489875,42.0605 9.65675,34.814875 8.490375,31.8095 C8.490375,31.8095 8.831,30.61775 8.995,30.835375 C10.41325,32.716375 11.489375,41.882875 11.489375,43.361625 C11.489375,45.020875 10.150125,46.360125 8.490875,46.360125 C8.3195,46.360125 8.154625,46.337625 7.991125,46.310375 C9.41025,46.072125 10.489875,44.850125 10.489875,43.361625 Z" id="Shape" fill="#94C1FF"></path>
                <path d="M55.46825,30.4975 C57.1275,30.4975 58.46675,41.711875 58.46675,43.3615 C58.46675,45.02075 57.1275,46.36 55.46825,46.36 C53.808875,46.36 52.46975,45.02075 52.46975,43.3615 C52.46975,41.711875 53.808875,30.4975 55.46825,30.4975 Z" id="Shape" fill="#D7E9FF"></path>
                <path d="M53.46925,43.361625 C53.46925,41.881875 54.547875,32.705625 55.968,30.835375 C55.804875,30.621625 55.639,30.497625 55.46825,30.497625 C53.808875,30.497625 52.46975,41.712 52.46975,43.361625 C52.46975,45.020875 53.808875,46.360125 55.46825,46.360125 C55.639,46.360125 55.804875,46.337625 55.968,46.310375 C54.548875,46.072125 53.46925,44.850125 53.46925,43.361625 Z" id="Shape" fill="#FFFFFF"></path>
                <path d="M57.46725,43.361625 C57.46725,42.0605 56.634625,34.814875 55.46725,31.8095 C55.46725,31.8095 55.80875,30.61775 55.972875,30.835375 C57.390125,32.716375 58.46675,41.882875 58.46675,43.361625 C58.46675,45.020875 57.1275,46.360125 55.46825,46.360125 C55.297375,46.360125 55.1315,46.337625 54.9685,46.310375 C56.38775,46.072125 57.46725,44.850125 57.46725,43.361625 Z" id="Shape" fill="#94C1FF"></path>
                <path d="M33.47875,37.49425 C34.02825,37.49425 34.47825,37.94425 34.47825,38.49375 C34.47825,39.04325 34.02825,39.49325 33.47875,39.49325 C33.2885,39.49325 33.099125,39.433625 32.94925,39.343 C32.66925,39.16325 32.47925,38.854 32.47925,38.49375 C32.47925,37.94425 32.92925,37.49425 33.47875,37.49425 Z" id="Shape" fill="#FFFFFF"></path>
                <path d="M32.94925,39.343 C33.099125,39.43375 33.2885,39.49325 33.47875,39.49325 C34.02825,39.49325 34.47825,39.04325 34.47825,38.49375 C34.47825,37.94425 34.02825,37.49425 33.47875,37.49425 C32.92925,37.49425 32.47925,37.94425 32.47925,38.49375 C32.47925,38.854 32.66925,39.163375 32.94925,39.343 Z M36.887375,19.502875 L46.062625,50.488 L17.88625,50.488 L27.07175,19.502875 L27.981375,19.502875 L29.980375,19.502875 L31.979375,19.502875 L33.978375,19.502875 L35.977375,19.502875 L36.887375,19.502875 Z" id="Shape" fill="#D7E9FF"></path>
                <polygon id="Shape" fill="#FFFFFF" points="27.9815 19.502875 27.07175 19.502875 17.88625 50.488 19.88525 50.488 29.07075 19.502875"></polygon>
                <polygon id="Shape" fill="#94C1FF" points="35.97275 19.502875 36.8825 19.502875 46.0675 50.488 44.0685 50.488 34.883375 19.502875"></polygon>
                <path d="M35.47775,4.010375 C35.47775,4.559875 35.02775,5.509625 34.47825,5.509625 C33.92875,5.509625 33.47875,4.55975 33.47875,4.010375 C33.47875,3.460875 33.928875,3.01075 34.47825,3.01075 C35.027875,3.01075 35.47775,3.460875 35.47775,4.010375 Z" id="Shape" fill="#D7E9FF"></path>
                <path d="M30.48025,4.010375 C30.48025,4.559875 30.03025,5.509625 29.48075,5.509625 C28.93125,5.509625 28.48125,4.55975 28.48125,4.010375 C28.48125,3.460875 28.93125,3.01075 29.48075,3.01075 C30.03025,3.01075 30.48025,3.460875 30.48025,4.010375 Z" id="Shape" fill="#D7E9FF"></path>
                <path d="M22.484125,13.50575 C23.033625,13.50575 23.483625,13.95575 23.483625,14.50525 C23.483625,15.05475 23.033625,15.50475 22.484125,15.50475 C21.934625,15.50475 21.484625,15.05475 21.484625,14.50525 C21.484625,13.95575 21.934625,13.50575 22.484125,13.50575 Z" id="Shape" fill="#94C1FF"></path>
                <path d="M31.9795,13.50575 C32.529,13.50575 32.979,13.95575 32.979,14.50525 C32.979,15.05475 32.529,15.50475 31.9795,15.50475 C31.43,15.50475 30.98,15.05475 30.98,14.50525 C30.98,13.95575 31.43,13.50575 31.9795,13.50575 Z" id="Shape" fill="#94C1FF"></path>
                <path d="M41.475,13.50575 C42.0245,13.50575 42.4745,13.95575 42.4745,14.50525 C42.4745,15.05475 42.0245,15.50475 41.475,15.50475 C40.9255,15.50475 40.4755,15.05475 40.4755,14.50525 C40.4755,13.95575 40.925375,13.50575 41.475,13.50575 Z" id="Shape" fill="#94C1FF"></path>
                <path d="M34.47825,5.509625 C35.02775,5.509625 35.47775,4.55975 35.47775,4.010375 C35.47775,3.460875 35.02775,3.01075 34.47825,3.01075 C33.92875,3.01075 33.47875,3.460875 33.47875,4.010375 C33.47875,4.559875 33.928875,5.509625 34.47825,5.509625 Z M30.48025,4.010375 C30.48025,3.460875 30.03025,3.01075 29.48075,3.01075 C28.93125,3.01075 28.48125,3.460875 28.48125,4.010375 C28.48125,4.559875 28.93125,5.509625 29.48075,5.509625 C30.03025,5.509625 30.48025,4.559875 30.48025,4.010375 Z M25.482625,0.512 L38.476375,0.512 C40.68525,0.512 42.474375,2.301125 42.474375,4.510125 L42.474375,5.509625 L42.474375,6.509125 L34.478125,6.509125 L29.480625,6.509125 L21.4845,6.509125 L21.4845,5.509625 L21.4845,4.510125 C21.484625,2.301125 23.27375,0.512 25.482625,0.512 Z" id="Shape" fill="#94C1FF"></path>
                <path d="M23.483625,4.510125 C23.483625,2.301125 25.27275,0.512 27.481625,0.512 L25.482625,0.512 C23.27375,0.512 21.484625,2.301125 21.484625,4.510125 L21.484625,5.509625 L23.483625,5.509625 L23.483625,4.510125 Z" id="Shape" fill="#D7E9FF"></path>
                <path d="M40.4755,4.510125 C40.4755,2.301125 38.686375,0.512 36.4775,0.512 L38.4765,0.512 C40.685375,0.512 42.4745,2.301125 42.4745,4.510125 L42.4745,5.509625 L40.4755,5.509625 L40.4755,4.510125 Z" id="Shape" fill="#5C9EFF"></path>
                <path d="M58.81725,11.50675 L5.142375,11.50675 C4.662625,10.907375 4.49275,10.50725 4.49275,10.50725 C9.490375,8.50825 21.484625,6.50925 21.484625,6.50925 L29.48075,6.50925 L34.47825,6.50925 L42.4745,6.50925 C42.4745,6.50925 54.46875,8.50825 59.466375,10.50725 C59.46625,10.50725 59.2965,10.907375 58.81725,11.50675 Z" id="Shape" fill="#FFFFFF"></path>
                <path d="M41.475,15.50475 C42.0245,15.50475 42.4745,15.05475 42.4745,14.50525 C42.4745,13.95575 42.0245,13.50575 41.475,13.50575 C40.9255,13.50575 40.4755,13.95575 40.4755,14.50525 C40.4755,15.05475 40.925375,15.50475 41.475,15.50475 Z M31.9795,15.50475 C32.529,15.50475 32.979,15.05475 32.979,14.50525 C32.979,13.95575 32.529,13.50575 31.9795,13.50575 C31.43,13.50575 30.98,13.95575 30.98,14.50525 C30.98,15.05475 31.43,15.50475 31.9795,15.50475 Z M22.484125,15.50475 C23.033625,15.50475 23.483625,15.05475 23.483625,14.50525 C23.483625,13.95575 23.033625,13.50575 22.484125,13.50575 C21.934625,13.50575 21.484625,13.95575 21.484625,14.50525 C21.484625,15.05475 21.934625,15.50475 22.484125,15.50475 Z M5.142375,11.50675 L58.81725,11.50675 C57.30725,13.4355 52.66975,17.503875 40.4755,17.503875 L23.483625,17.503875 C11.28925,17.50375 6.651875,13.435375 5.142375,11.50675 Z" id="Shape" fill="#D7E9FF"></path>
                <polygon id="Rectangle-path" fill="#5C9EFF" points="21.484625 5.509625 42.4745 5.509625 42.4745 6.509125 21.484625 6.509125"></polygon>
                <g id="_x32_2._ufo_x2C__alien_x2C__human_x2C__space_x2C__star_x2C__astronomy_x2C__discovery" fill="#116FFF">
                    <path d="M4.51325,11.007 C4.315125,11.007 4.12725,10.887875 4.049125,10.692625 C3.94675,10.436875 4.071625,10.146 4.32775,10.043625 C9.318,8.0475 20.931125,6.09825 21.423125,6.01625 C21.696875,5.969375 21.953125,6.153875 21.998125,6.427125 C22.0435,6.6995 21.8595,6.957125 21.587125,7.002125 C21.468125,7.021625 9.589,9.014875 4.698875,10.970875 C4.638125,10.99525 4.57525,11.007 4.51325,11.007 Z" id="Shape"></path>
                    <path d="M23.504125,18.0035 C7.36775,18.0035 4.181875,11.002 4.053875,10.70425 C3.945125,10.4505 4.062625,10.156625 4.3165,10.047375 C4.566375,9.94 4.862125,10.055125 4.9715,10.308 C5.0085,10.390875 8.12125,17.003875 23.504125,17.003875 C23.780375,17.003875 24.003875,17.227375 24.003875,17.503625 C24.003875,17.779875 23.780375,18.0035 23.504125,18.0035 Z" id="Shape"></path>
                    <path d="M59.486875,11.007 C59.424375,11.007 59.361875,10.99525 59.3015,10.970875 C54.41125,9.014875 42.53225,7.021625 42.413125,7.002125 C42.14075,6.95725 41.956375,6.6995 42.00225,6.427125 C42.047125,6.15375 42.304875,5.968375 42.57725,6.01625 C43.06925,6.098125 54.68275,8.0475 59.6725,10.043625 C59.92825,10.146 60.05325,10.436875 59.951625,10.692625 C59.87325,10.887875 59.684875,11.007 59.486875,11.007 Z" id="Shape"></path>
                    <path d="M40.496,18.0035 C40.21975,18.0035 39.99625,17.78 39.99625,17.50375 C39.99625,17.2275 40.21975,17.004 40.496,17.004 C55.97975,17.004 58.99875,10.37725 59.028125,10.31 C59.1365,10.05625 59.432125,9.939 59.684,10.047375 C59.93775,10.156625 60.055,10.4505 59.945625,10.70425 C59.81875,11.002125 56.63275,18.0035 40.496,18.0035 Z" id="Shape"></path>
                    <path d="M42.495,7.008875 L21.505125,7.008875 C21.229,7.008875 21.005375,6.785375 21.005375,6.509125 C21.005375,6.232875 21.229,6.009375 21.505125,6.009375 L42.495,6.009375 C42.77125,6.009375 42.99475,6.232875 42.99475,6.509125 C42.99475,6.785375 42.77125,7.008875 42.495,7.008875 Z" id="Shape"></path>
                    <path d="M40.496,18.0035 L23.504125,18.0035 C23.227875,18.0035 23.004375,17.78 23.004375,17.50375 C23.004375,17.2275 23.227875,17.004 23.504125,17.004 L40.496,17.004 C40.77225,17.004 40.99575,17.2275 40.99575,17.50375 C40.99575,17.78 40.77225,18.0035 40.496,18.0035 Z" id="Shape"></path>
                    <path d="M56.48825,12.0065 L7.511875,12.0065 C7.235625,12.0065 7.012125,11.783 7.012125,11.50675 C7.012125,11.2305 7.235625,11.007 7.511875,11.007 L56.488375,11.007 C56.764625,11.007 56.988125,11.2305 56.988125,11.50675 C56.988125,11.783 56.7645,12.0065 56.48825,12.0065 Z" id="Shape"></path>
                    <path d="M21.505125,5.009875 C21.229,5.009875 21.005375,4.78625 21.005375,4.510125 C21.005375,2.02975 23.023,0.01225 25.50325,0.01225 C25.7795,0.01225 26.003,0.23575 26.003,0.512 C26.003,0.78825 25.7795,1.01175 25.50325,1.01175 C23.5745,1.01175 22.005,2.581375 22.005,4.510125 C22.004875,4.78625 21.78125,5.009875 21.505125,5.009875 Z" id="Shape"></path>
                    <path d="M42.495,5.009875 C42.21875,5.009875 41.99525,4.78625 41.99525,4.510125 C41.99525,2.58125 40.425625,1.01175 38.497,1.01175 C38.22075,1.01175 37.99725,0.78825 37.99725,0.512 C37.99725,0.23575 38.22075,0.01225 38.497,0.01225 C40.97725,0.01225 42.99475,2.029875 42.99475,4.510125 C42.99475,4.78625 42.77125,5.009875 42.495,5.009875 Z" id="Shape"></path>
                    <path d="M38.497,1.01175 L25.50325,1.01175 C25.227,1.01175 25.0035,0.78825 25.0035,0.512 C25.0035,0.23575 25.227,0.01225 25.50325,0.01225 L38.497,0.01225 C38.77325,0.01225 38.99675,0.23575 38.99675,0.512 C38.99675,0.78825 38.77325,1.01175 38.497,1.01175 Z" id="Shape"></path>
                    <path d="M22.504625,16.0045 C21.677875,16.0045 21.00525,15.332 21.00525,14.50525 C21.00525,13.6785 21.67775,13.006 22.504625,13.006 C23.331375,13.006 24.003875,13.6785 24.003875,14.50525 C24.003875,15.332 23.331375,16.0045 22.504625,16.0045 Z M22.504625,14.0055 C22.228875,14.0055 22.004875,14.23 22.004875,14.50525 C22.004875,14.7805 22.228875,15.005 22.504625,15.005 C22.780375,15.005 23.004375,14.7805 23.004375,14.50525 C23.004375,14.23 22.780375,14.0055 22.504625,14.0055 Z" id="Shape"></path>
                    <path d="M32,16.0045 C31.17325,16.0045 30.50075,15.332 30.50075,14.50525 C30.50075,13.6785 31.17325,13.006 32,13.006 C32.82675,13.006 33.49925,13.6785 33.49925,14.50525 C33.49925,15.332 32.82675,16.0045 32,16.0045 Z M32,14.0055 C31.72425,14.0055 31.50025,14.23 31.50025,14.50525 C31.50025,14.7805 31.72425,15.005 32,15.005 C32.27575,15.005 32.49975,14.7805 32.49975,14.50525 C32.49975,14.23 32.27575,14.0055 32,14.0055 Z" id="Shape"></path>
                    <path d="M41.4955,16.0045 C40.66875,16.0045 39.99625,15.332 39.99625,14.50525 C39.99625,13.6785 40.66875,13.006 41.4955,13.006 C42.32225,13.006 42.99475,13.6785 42.99475,14.50525 C42.99475,15.332 42.32225,16.0045 41.4955,16.0045 Z M41.4955,14.0055 C41.22025,14.0055 40.99575,14.23 40.99575,14.50525 C40.99575,14.7805 41.22025,15.005 41.4955,15.005 C41.77075,15.005 41.99525,14.7805 41.99525,14.50525 C41.99525,14.23 41.77075,14.0055 41.4955,14.0055 Z" id="Shape"></path>
                    <path d="M21.505125,6.009375 C21.229,6.009375 21.005375,5.785875 21.005375,5.509625 L21.005375,4.510125 C21.005375,4.233875 21.229,4.010375 21.505125,4.010375 C21.781375,4.010375 22.005,4.233875 22.005,4.510125 L22.005,5.509625 C22.004875,5.785875 21.78125,6.009375 21.505125,6.009375 Z" id="Shape"></path>
                    <path d="M42.495,6.009375 C42.21875,6.009375 41.99525,5.785875 41.99525,5.509625 L41.99525,4.510125 C41.99525,4.233875 42.21875,4.010375 42.495,4.010375 C42.77125,4.010375 42.99475,4.233875 42.99475,4.510125 L42.99475,5.509625 C42.99475,5.785875 42.77125,6.009375 42.495,6.009375 Z" id="Shape"></path>
                    <g id="Group" transform="translate(18.000000, 21.000000)">
                        <path d="M0.5065,27.98875 C0.459625,27.98875 0.411875,27.981875 0.3645,27.96825 C0.1,27.890125 -0.050875,27.611875 0.02725,27.347375 L8.0235,0.360375 C8.1025,0.095875 8.38025,-0.0535 8.64475,0.02275 C8.90925,0.10075 9.060125,0.379 8.982,0.6435 L0.985875,27.6305 C0.921375,27.848125 0.72225,27.98875 0.5065,27.98875 Z" id="Shape"></path>
                        <path d="M27.4935,27.98875 C27.27775,27.98875 27.07875,27.848125 27.01425,27.6305 L19.018,0.6435 C18.94,0.379 19.09125,0.10075 19.35475,0.02275 C19.62025,-0.053375 19.8975,0.095875 19.976625,0.360375 L27.97275,27.347375 C28.050875,27.611875 27.899625,27.890125 27.636,27.96825 C27.58825,27.981875 27.540375,27.98875 27.4935,27.98875 Z" id="Shape"></path>
                    </g>
                    <path d="M24.503625,20.002625 C23.676875,20.002625 23.004375,19.33 23.004375,18.50325 C23.004375,18.227125 23.227875,18.0035 23.504125,18.0035 C23.780375,18.0035 24.003875,18.227125 24.003875,18.50325 C24.003875,18.7785 24.227875,19.003 24.503625,19.003 C24.779875,19.003 25.003375,19.226625 25.003375,19.502875 C25.003375,19.779 24.779875,20.002625 24.503625,20.002625 Z" id="Shape"></path>
                    <path d="M39.4965,20.002625 C39.22025,20.002625 38.99675,19.779 38.99675,19.502875 C38.99675,19.226625 39.22025,19.003 39.4965,19.003 C39.77175,19.003 39.99625,18.7785 39.99625,18.50325 C39.99625,18.227125 40.21975,18.0035 40.496,18.0035 C40.77225,18.0035 40.99575,18.227125 40.99575,18.50325 C40.99575,19.330125 40.32325,20.002625 39.4965,20.002625 Z" id="Shape"></path>
                    <path d="M39.4965,20.002625 L24.503625,20.002625 C24.227375,20.002625 24.003875,19.779 24.003875,19.502875 C24.003875,19.226625 24.227375,19.003 24.503625,19.003 L39.496375,19.003 C39.772625,19.003 39.996125,19.226625 39.996125,19.502875 C39.99625,19.779 39.77275,20.002625 39.4965,20.002625 Z" id="Shape"></path>
                    <path d="M28.002,20.002625 C27.72575,20.002625 27.50225,19.779 27.50225,19.502875 L27.50225,19.003 C27.50225,18.726875 27.72575,18.50325 28.002,18.50325 C28.27825,18.50325 28.50175,18.726875 28.50175,19.003 L28.50175,19.502875 C28.50175,19.779 28.27825,20.002625 28.002,20.002625 Z" id="Shape"></path>
                    <path d="M26.002875,20.002625 C25.726625,20.002625 25.503125,19.779 25.503125,19.502875 L25.503125,19.003 C25.503125,18.726875 25.726625,18.50325 26.002875,18.50325 C26.279125,18.50325 26.502625,18.726875 26.502625,19.003 L26.502625,19.502875 C26.502625,19.779 26.279125,20.002625 26.002875,20.002625 Z" id="Shape"></path>
                    <path d="M30.001,20.002625 C29.72475,20.002625 29.50125,19.779 29.50125,19.502875 L29.50125,19.003 C29.50125,18.726875 29.72475,18.50325 30.001,18.50325 C30.27725,18.50325 30.50075,18.726875 30.50075,19.003 L30.50075,19.502875 C30.50075,19.779 30.27725,20.002625 30.001,20.002625 Z" id="Shape"></path>
                    <path d="M32,20.002625 C31.72375,20.002625 31.50025,19.779 31.50025,19.502875 L31.50025,19.003 C31.50025,18.726875 31.72375,18.50325 32,18.50325 C32.27625,18.50325 32.49975,18.726875 32.49975,19.003 L32.49975,19.502875 C32.49975,19.779 32.27625,20.002625 32,20.002625 Z" id="Shape"></path>
                    <path d="M33.999,20.002625 C33.722875,20.002625 33.49925,19.779 33.49925,19.502875 L33.49925,19.003 C33.49925,18.726875 33.722875,18.50325 33.999,18.50325 C34.27525,18.50325 34.49875,18.726875 34.49875,19.003 L34.49875,19.502875 C34.49875,19.779 34.27525,20.002625 33.999,20.002625 Z" id="Shape"></path>
                    <path d="M35.998,20.002625 C35.721875,20.002625 35.49825,19.779 35.49825,19.502875 L35.49825,19.003 C35.49825,18.726875 35.721875,18.50325 35.998,18.50325 C36.274375,18.50325 36.49775,18.726875 36.49775,19.003 L36.49775,19.502875 C36.49775,19.779 36.274375,20.002625 35.998,20.002625 Z" id="Shape"></path>
                    <path d="M37.99725,20.002625 C37.721,20.002625 37.4975,19.779 37.4975,19.502875 L37.4975,19.003 C37.4975,18.726875 37.721,18.50325 37.99725,18.50325 C38.2735,18.50325 38.497,18.726875 38.497,19.003 L38.497,19.502875 C38.497,19.779 38.2735,20.002625 37.99725,20.002625 Z" id="Shape"></path>
                    <g id="Group" transform="translate(32.875000, 2.500000)">
                        <path d="M1.62375,3.509375 C0.721875,3.509375 0.1245,2.30575 0.1245,1.510375 C0.1245,0.683625 0.797125,0.011 1.62375,0.011 C2.4505,0.011 3.123,0.683625 3.123,1.510375 C3.123,2.30575 2.52575,3.509375 1.62375,3.509375 Z M1.62375,1.0105 C1.348625,1.0105 1.124,1.235125 1.124,1.510375 C1.124,1.92025 1.46175,2.4855 1.62375,2.509875 C1.785875,2.4855 2.1235,1.92025 2.1235,1.510375 C2.1235,1.235125 1.899,1.0105 1.62375,1.0105 Z" id="Shape"></path>
                        <path d="M1.62375,4.508875 C1.347625,4.508875 1.124,4.285375 1.124,4.009125 L1.124,3.009625 C1.124,2.733375 1.347625,2.509875 1.62375,2.509875 C1.9,2.509875 2.1235,2.733375 2.1235,3.009625 L2.1235,4.009125 C2.1235,4.285375 1.9,4.508875 1.62375,4.508875 Z" id="Shape"></path>
                    </g>
                    <g id="Group" transform="translate(28.000000, 2.500000)">
                        <path d="M1.50125,3.509375 C0.599875,3.509375 0.002,2.30575 0.002,1.510375 C0.002,0.683625 0.6745,0.011 1.50125,0.011 C2.328,0.011 3.0005,0.683625 3.0005,1.510375 C3.0005,2.30575 2.402625,3.509375 1.50125,3.509375 Z M1.50125,1.0105 C1.2255,1.0105 1.0015,1.235125 1.0015,1.510375 C1.0015,1.92025 1.33925,2.4855 1.50125,2.509875 C1.66325,2.4855 2.001,1.92025 2.001,1.510375 C2.001,1.235125 1.777,1.0105 1.50125,1.0105 Z" id="Shape"></path>
                        <path d="M1.50125,4.508875 C1.225,4.508875 1.0015,4.285375 1.0015,4.009125 L1.0015,3.009625 C1.0015,2.733375 1.225,2.509875 1.50125,2.509875 C1.7775,2.509875 2.001,2.733375 2.001,3.009625 L2.001,4.009125 C2.001,4.285375 1.7775,4.508875 1.50125,4.508875 Z" id="Shape"></path>
                    </g>
                    <g id="Group" transform="translate(28.000000, 36.875000)">
                        <path d="M5.49925,3.118 C4.672625,3.118 4,2.4455 4,1.61875 C4,0.792 4.672625,0.1195 5.49925,0.1195 C6.326,0.1195 6.9985,0.792 6.9985,1.61875 C6.9985,2.4455 6.326,3.118 5.49925,3.118 Z M5.49925,1.119 C5.224125,1.119 4.9995,1.3435 4.9995,1.61875 C4.9995,1.894 5.224125,2.1185 5.49925,2.1185 C5.7745,2.1185 5.999,1.894 5.999,1.61875 C5.999,1.3435 5.7745,1.119 5.49925,1.119 Z" id="Shape"></path>
                        <path d="M0.50125,8.115625 C0.431875,8.115625 0.361125,8.101 0.293875,8.070875 C0.043,7.955625 -0.067375,7.658875 0.047375,7.408 C1.635,3.935125 4.590125,2.11375 4.715125,2.0375 C4.95125,1.896 5.25825,1.97025 5.40075,2.205375 C5.544125,2.44175 5.47,2.748125 5.233875,2.891625 C5.2065,2.90925 2.411875,4.638875 0.956,7.82375 C0.872125,8.007375 0.691,8.115625 0.50125,8.115625 Z" id="Shape"></path>
                        <path d="M2.50125,8.115625 C2.48125,8.115625 2.46075,8.114625 2.44025,8.11175 C2.1665,8.078625 1.97125,7.829625 2.004375,7.5555 L2.424125,4.101 C2.45775,3.827625 2.70525,3.627625 2.981,3.66575 C3.25475,3.699 3.45,3.947875 3.416875,4.222 L2.997125,7.6765 C2.965875,7.92925 2.750625,8.115625 2.50125,8.115625 Z" id="Shape"></path>
                        <path d="M5.49925,6.116625 C5.223125,6.116625 4.9995,5.893125 4.9995,5.616875 C4.9995,4.863375 4.00975,3.862875 3.66325,3.572 C3.4515,3.394375 3.424125,3.079125 3.60175,2.86825 C3.778875,2.657375 4.095125,2.629125 4.3055,2.80675 C4.47925,2.95225 5.999,4.267 5.999,5.616875 C5.999,5.893125 5.7755,6.116625 5.49925,6.116625 Z" id="Shape"></path>
                    </g>
                    <path d="M29.50125,35.995 C29.225,35.995 29.0015,35.7715 29.0015,35.49525 L29.0015,30.4975 C29.0015,30.221375 29.225,29.99775 29.50125,29.99775 C29.7775,29.99775 30.001,30.221375 30.001,30.4975 L30.001,35.495125 C30.001,35.7715 29.7775,35.995 29.50125,35.995 Z" id="Shape"></path>
                    <path d="M32.50075,31.996875 C32.224625,31.996875 32.001,31.773375 32.001,31.497125 L32.001,23.501 C32.001,23.22475 32.224625,23.00125 32.50075,23.00125 C32.777,23.00125 33.0005,23.22475 33.0005,23.501 L33.0005,31.497125 C33.0005,31.773375 32.777,31.996875 32.50075,31.996875 Z" id="Shape"></path>
                    <path d="M35.49825,33.995875 C35.222125,33.995875 34.9985,33.7725 34.9985,33.496125 L34.9985,31.497125 C34.9985,31.221 35.222125,30.997375 35.49825,30.997375 C35.774625,30.997375 35.998,31.221 35.998,31.497125 L35.998,33.496125 C35.998,33.7725 35.774625,33.995875 35.49825,33.995875 Z" id="Shape"></path>
                    <path d="M63.484875,50.98775 L0.515125,50.98775 C0.238875,50.98775 0.015375,50.764125 0.015375,50.488 C0.015375,50.21175 0.238875,49.98825 0.515125,49.98825 L63.484875,49.98825 C63.761125,49.98825 63.984625,50.21175 63.984625,50.488 C63.984625,50.764125 63.761125,50.98775 63.484875,50.98775 Z" id="Shape"></path>
                    <path d="M55.48875,48.98875 C55.2125,48.98875 54.989,48.765125 54.989,48.489 L54.989,39.49325 C54.989,39.217 55.2125,38.9935 55.48875,38.9935 C55.765,38.9935 55.9885,39.217 55.9885,39.49325 L55.9885,48.489 C55.9885,48.765125 55.765,48.98875 55.48875,48.98875 Z" id="Shape"></path>
                    <path d="M55.48875,46.86475 C53.56,46.86475 51.9905,45.295125 51.9905,43.3665 C51.9905,43.23275 52.9685,29.997875 55.48875,29.997875 C58.009,29.997875 58.987,43.23275 58.987,43.3665 C58.987,45.295125 57.4175,46.86475 55.48875,46.86475 Z M55.450625,30.9915 C55.031875,31.218 52.989875,38.279125 52.989875,43.3665 C52.989875,44.744625 54.110375,45.86525 55.488625,45.86525 C56.86675,45.86525 57.987375,44.744625 57.987375,43.3665 C57.9875,38.28 55.9455,31.218 55.450625,30.9915 Z" id="Shape"></path>
                    <path d="M8.511375,48.98875 C8.235125,48.98875 8.011625,48.765125 8.011625,48.489 L8.011625,39.49325 C8.011625,39.217 8.235125,38.9935 8.511375,38.9935 C8.787625,38.9935 9.011125,39.217 9.011125,39.49325 L9.011125,48.489 C9.011125,48.765125 8.787625,48.98875 8.511375,48.98875 Z" id="Shape"></path>
                    <path d="M8.511375,46.86475 C6.5825,46.86475 5.013,45.295125 5.013,43.3665 C5.013,43.23275 5.991125,29.997875 8.511375,29.997875 C11.031625,29.997875 12.009625,43.23275 12.009625,43.3665 C12.009625,45.295125 10.440125,46.86475 8.511375,46.86475 Z M8.47325,30.9915 C8.054,31.218 6.0125,38.279125 6.0125,43.3665 C6.0125,44.744625 7.1335,45.86525 8.511375,45.86525 C9.889,45.86525 11.010125,44.744625 11.010125,43.3665 C11.010125,38.28 8.968625,31.218 8.47325,30.9915 Z" id="Shape"></path>
                </g>
            </g>
        </g>
    </g>
</svg>
