<?xml version="1.0" encoding="UTF-8"?>
<svg width="16px" height="16px" viewBox="0 0 16 16" version="1.1" xmlns="http://www.w3.org/2000/svg" xmlns:xlink="http://www.w3.org/1999/xlink">
    <title>Icon/System/Spinner_Small</title>
    <defs>
        <path d="M8,0 C12.418278,0 16,3.581722 16,8 C16,12.418278 12.418278,16 8,16 C3.581722,16 0,12.418278 0,8 C0,3.581722 3.581722,0 8,0 Z M8,2 C4.6862915,2 2,4.6862915 2,8 C2,11.3137085 4.6862915,14 8,14 C11.3137085,14 14,11.3137085 14,8 C14,4.6862915 11.3137085,2 8,2 Z" id="path-1"></path>
    </defs>
    <g id="Icon/System/Spinner_Small" stroke="none" stroke-width="1" fill="none" fill-rule="evenodd">
        <mask id="mask-2" fill="white">
            <use xlink:href="#path-1"></use>
        </mask>
        <use id="Oval" fill="#E6ECF2" xlink:href="#path-1"></use>
        <polygon id="Rectangle" fill="#393E42" fill-rule="nonzero" mask="url(#mask-2)" points="8 0 16 0 16 8 15 8 14 8 8 2 8 1"></polygon>
    </g>
</svg>