<?xml version="1.0" encoding="UTF-8"?>
<svg width="9px" height="6px" viewBox="0 0 9 6" version="1.1" xmlns="http://www.w3.org/2000/svg" xmlns:xlink="http://www.w3.org/1999/xlink">
    <!-- Generator: Sketch 52.1 (67048) - http://www.bohemiancoding.com/sketch -->
    <title>checkocircle</title>
    <desc>Created with Sketch.</desc>
    <defs>
        <linearGradient x1="50%" y1="0%" x2="50%" y2="100%" id="linearGradient-1">
            <stop stop-color="#FFFFFF" stop-opacity="0.85" offset="0%"></stop>
            <stop stop-color="#FFFFFF" offset="100%"></stop>
        </linearGradient>
        <path d="M6.94833935,8.56537308 L11.1281576,5.12852595 C11.3557912,4.94135465 11.6846003,4.96063005 11.8899241,5.17318212 C12.0900253,5.38032774 12.0900253,5.71398555 11.8899241,5.92113117 L7.29221093,10.6807036 C6.88386528,11.1034248 6.21846245,11.1068516 5.8059921,10.6883577 C5.77992286,10.6619077 5.75522281,10.634077 5.73199337,10.6049799 L4.16890688,8.64706215 C3.98407923,8.41554754 3.99965948,8.07837647 4.20500808,7.86579871 C4.41200618,7.65151339 4.74159155,7.62675929 4.97686071,7.80782734 L5.98178769,8.5812401 C6.26969193,8.80281721 6.66750735,8.79628663 6.94833935,8.56537308 Z" id="path-2"></path>
    </defs>
    <g id="Symbols" stroke="none" stroke-width="1" fill="none" fill-rule="evenodd">
        <g id="Icon/System/Checkmark" transform="translate(-4.000000, -5.000000)">
            <g id="Group-17">
                <g id="checkocircle">
                    <use fill="#FFFFFF" xlink:href="#path-2"></use>
                    <use fill="url(#linearGradient-1)" xlink:href="#path-2"></use>
                </g>
            </g>
        </g>
    </g>
</svg>