<?xml version="1.0" encoding="UTF-8"?>
<svg width="17px" height="17px" viewBox="0 0 17 17" version="1.1" xmlns="http://www.w3.org/2000/svg" xmlns:xlink="http://www.w3.org/1999/xlink">
    <!-- Generator: Sketch 52.1 (67048) - http://www.bohemiancoding.com/sketch -->
    <title>Shape</title>
    <desc>Created with Sketch.</desc>
    <defs>
        <linearGradient x1="50%" y1="1.02285043%" x2="50%" y2="100%" id="linearGradient-1">
            <stop stop-color="#F86683" stop-opacity="0.85" offset="0%"></stop>
            <stop stop-color="#F86683" offset="100%"></stop>
        </linearGradient>
    </defs>
    <g id="Symbols" stroke="none" stroke-width="1" fill="none" fill-rule="evenodd">
        <g id="Artboard" transform="translate(-2.000000, -1.000000)" fill="url(#linearGradient-1)" fill-rule="nonzero">
            <path d="M17.1785714,1 L3.82142857,1 C2.81584821,1 2,1.81584821 2,2.82142857 L2,16.1785714 C2,17.1841518 2.81584821,18 3.82142857,18 L17.1785714,18 C18.1841518,18 19,17.1841518 19,16.1785714 L19,2.82142857 C19,1.81584821 18.1841518,1 17.1785714,1 Z M11.2513393,14.2584821 C11.2513393,15.9129464 10.2799107,16.6680804 8.86450893,16.6680804 C7.58571429,16.6680804 6.84575893,16.0078125 6.46629464,15.2071429 L7.76785714,14.4216518 C8.01830357,14.865625 8.24598214,15.2412946 8.79620536,15.2412946 C9.31986607,15.2412946 9.65379464,15.0363839 9.65379464,14.2357143 L9.65379464,8.80558036 L11.2513393,8.80558036 L11.2513393,14.2584821 Z M15.0308036,16.6680804 C13.5470982,16.6680804 12.5870536,15.9622768 12.1203125,15.0363839 L13.421875,14.2850446 C13.7633929,14.8428571 14.2111607,15.2564732 14.9966518,15.2564732 C15.6569196,15.2564732 16.0819196,14.9263393 16.0819196,14.4671875 C16.0819196,13.9207589 15.6493304,13.7272321 14.9169643,13.4046875 L14.5185268,13.2339286 C13.3649554,12.7444196 12.6022321,12.1258929 12.6022321,10.8243304 C12.6022321,9.62522321 13.5167411,8.71450893 14.9397321,8.71450893 C15.9566964,8.71450893 16.6852679,9.06741071 17.2089286,9.99330357 L15.9642857,10.7901786 C15.6910714,10.3006696 15.3950893,10.1071429 14.9359375,10.1071429 C14.4691964,10.1071429 14.1732143,10.403125 14.1732143,10.7901786 C14.1732143,11.2683036 14.4691964,11.4618304 15.1560268,11.7616071 L15.5544643,11.9323661 C16.9129464,12.5129464 17.6756696,13.1087054 17.6756696,14.4444196 C17.6756696,15.8787946 16.5448661,16.6680804 15.0308036,16.6680804 Z" id="Shape"></path>
        </g>
    </g>
</svg>