<?xml version="1.0" encoding="UTF-8"?>
<svg width="512px" height="498px" viewBox="0 0 512 498" version="1.1" xmlns="http://www.w3.org/2000/svg" xmlns:xlink="http://www.w3.org/1999/xlink">
    <!-- Generator: Sketch 52.1 (67048) - http://www.bohemiancoding.com/sketch -->
    <title>Path</title>
    <desc>Created with Sketch.</desc>
    <g id="Page-1" stroke="none" stroke-width="1" fill="none" fill-rule="evenodd">
        <g id="reload-arrow" transform="translate(0.000000, -0.254215)" fill="#5D9DF5">
            <path d="M97.5878945,446.70755 C141.405139,480.252651 193.524758,497.980573 248.303903,497.978886 L248.307276,497.978886 C259.345066,497.978886 270.527891,497.23685 281.542071,495.773015 C347.406226,487.025419 405.924222,453.153147 446.311235,400.392678 C470.884442,368.294548 487.404869,330.383238 494.086569,290.756812 C495.24853,283.869366 490.605744,277.34282 483.718298,276.180858 L450.459893,270.571738 C447.147712,270.015211 443.757955,270.792663 441.024226,272.737135 C438.290497,274.681608 436.442152,277.631202 435.883938,280.940009 C430.792557,311.12065 418.193118,340.019592 399.443209,364.51185 C368.638583,404.752142 324.008472,430.588497 273.767554,437.260078 C265.345441,438.379879 256.800219,438.946525 248.373047,438.946525 C206.621699,438.946525 166.889027,425.422913 133.463664,399.836151 C93.2250582,369.031525 67.3887028,324.401414 60.7171217,274.163869 C54.0438542,223.929696 67.3347365,174.101958 98.1376759,133.861665 C134.296768,86.6293672 189.291778,59.5416687 249.022329,59.5416687 C290.991229,59.5416687 330.787985,73.0264924 364.113848,98.5356772 C375.160071,106.991518 385.076374,116.437303 393.839149,126.790396 L331.551946,115.794767 C328.253257,115.209571 324.851695,115.965098 322.101101,117.887647 C319.350507,119.811882 317.481925,122.747985 316.898415,126.051733 L311.034641,159.266291 C309.8204,166.145304 314.412593,172.70558 321.289921,173.919821 L470.759645,200.307645 C471.491563,200.437501 472.225167,200.4999 472.958771,200.4999 C475.535661,200.4999 478.070389,199.712329 480.212176,198.214765 C482.961083,196.29053 484.831352,193.354427 485.413176,190.050679 L511.799313,40.5809544 C513.015241,33.7019404 508.423048,27.1416648 501.544034,25.9257371 L468.329476,20.0619637 C461.440344,18.8426631 454.8885,23.4399154 453.675945,30.3189294 L442.570697,93.2233718 C430.112919,77.7721519 415.806797,63.7729622 399.991304,51.6659651 C356.288738,18.2102458 304.099975,0.526171207 249.062804,0.526171207 C170.772913,0.526171207 98.6807116,36.047787 51.2696502,97.9808364 C10.8843236,150.742992 -6.54003827,216.072544 2.20755805,281.936699 C10.9568408,347.805914 44.8307987,406.320537 97.5878945,446.70755 Z" id="Path"></path>
        </g>
    </g>
</svg>