<?xml version="1.0" encoding="UTF-8"?>
<svg width="84px" height="52px" viewBox="0 0 84 52" version="1.1" xmlns="http://www.w3.org/2000/svg" xmlns:xlink="http://www.w3.org/1999/xlink">
    <!-- Generator: Sketch 52.1 (67048) - http://www.bohemiancoding.com/sketch -->
    <title>5be76b7e5713feeb03a8f2fc_logo (2)</title>
    <desc>Created with Sketch.</desc>
    <defs>
        <path d="M3.5,0 C1.57016526,0 0,1.8432224 0,4.1085037 L0,15.8916252 C0,18.1570353 1.57016526,20 3.5,20 C5.42994449,20 7,18.1570353 7,15.891754 L7,4.1085037 C7,1.8432224 5.42983474,0 3.5,0 Z" id="path-1"></path>
        <filter x="-21.4%" y="-7.5%" width="142.9%" height="115.0%" filterUnits="objectBoundingBox" id="filter-2">
            <feGaussianBlur stdDeviation="1.5" in="SourceAlpha" result="shadowBlurInner1"></feGaussianBlur>
            <feOffset dx="0" dy="0" in="shadowBlurInner1" result="shadowOffsetInner1"></feOffset>
            <feComposite in="shadowOffsetInner1" in2="SourceAlpha" operator="arithmetic" k2="-1" k3="1" result="shadowInnerInner1"></feComposite>
            <feColorMatrix values="0 0 0 0 0   0 0 0 0 0   0 0 0 0 0  0 0 0 0.3 0" type="matrix" in="shadowInnerInner1"></feColorMatrix>
        </filter>
        <path d="M3.5,0 C1.5701653,0 0,1.7795008 0,3.9666224 L0,26.0333776 C0,28.2204992 1.5700555,30 3.5,30 C5.4298347,30 7,28.2204992 7,26.0333776 L7,3.9666224 C7,1.7795008 5.4298347,0 3.5,0 Z" id="path-3"></path>
        <filter x="-21.4%" y="-5.0%" width="142.9%" height="110.0%" filterUnits="objectBoundingBox" id="filter-4">
            <feGaussianBlur stdDeviation="1.5" in="SourceAlpha" result="shadowBlurInner1"></feGaussianBlur>
            <feOffset dx="0" dy="0" in="shadowBlurInner1" result="shadowOffsetInner1"></feOffset>
            <feComposite in="shadowOffsetInner1" in2="SourceAlpha" operator="arithmetic" k2="-1" k3="1" result="shadowInnerInner1"></feComposite>
            <feColorMatrix values="0 0 0 0 0   0 0 0 0 0   0 0 0 0 0  0 0 0 0.3 0" type="matrix" in="shadowInnerInner1"></feColorMatrix>
        </filter>
        <path d="M3.5,0 C1.5700555,0 0,1.82153967 0,4.06032983 L0,39.9396702 C0,42.1784603 1.5701653,44 3.5,44 C5.4299445,44 7,42.1785877 7,39.9396702 L7,4.06032983 C7,1.82153967 5.4299445,0 3.5,0 Z" id="path-5"></path>
        <filter x="-21.4%" y="-3.4%" width="142.9%" height="106.8%" filterUnits="objectBoundingBox" id="filter-6">
            <feGaussianBlur stdDeviation="1.5" in="SourceAlpha" result="shadowBlurInner1"></feGaussianBlur>
            <feOffset dx="0" dy="0" in="shadowBlurInner1" result="shadowOffsetInner1"></feOffset>
            <feComposite in="shadowOffsetInner1" in2="SourceAlpha" operator="arithmetic" k2="-1" k3="1" result="shadowInnerInner1"></feComposite>
            <feColorMatrix values="0 0 0 0 0   0 0 0 0 0   0 0 0 0 0  0 0 0 0.3 0" type="matrix" in="shadowInnerInner1"></feColorMatrix>
        </filter>
        <path d="M3.5,0 C1.5701653,0 0,1.78908003 0,3.98797519 L0,48.0120248 C0,50.21092 1.5700555,52 3.5,52 C5.4298347,52 7,50.211045 7,48.0120248 L7,3.98785013 C7,1.78895497 5.4298347,0 3.5,0 Z" id="path-7"></path>
        <filter x="-21.4%" y="-2.9%" width="142.9%" height="105.8%" filterUnits="objectBoundingBox" id="filter-8">
            <feGaussianBlur stdDeviation="1.5" in="SourceAlpha" result="shadowBlurInner1"></feGaussianBlur>
            <feOffset dx="0" dy="0" in="shadowBlurInner1" result="shadowOffsetInner1"></feOffset>
            <feComposite in="shadowOffsetInner1" in2="SourceAlpha" operator="arithmetic" k2="-1" k3="1" result="shadowInnerInner1"></feComposite>
            <feColorMatrix values="0 0 0 0 0   0 0 0 0 0   0 0 0 0 0  0 0 0 0.3 0" type="matrix" in="shadowInnerInner1"></feColorMatrix>
        </filter>
        <path d="M3.4999451,0 C1.5701406,0 0,1.79529776 0,4.0019604 L0,32.9980396 C0,35.2047022 1.5701406,37 3.4999451,37 C5.4298594,37 7,35.2047022 7,32.9981651 L7,4.0019604 C7,1.79529776 5.4298594,0 3.4999451,0 Z" id="path-9"></path>
        <filter x="-21.4%" y="-4.1%" width="142.9%" height="108.1%" filterUnits="objectBoundingBox" id="filter-10">
            <feGaussianBlur stdDeviation="1.5" in="SourceAlpha" result="shadowBlurInner1"></feGaussianBlur>
            <feOffset dx="0" dy="0" in="shadowBlurInner1" result="shadowOffsetInner1"></feOffset>
            <feComposite in="shadowOffsetInner1" in2="SourceAlpha" operator="arithmetic" k2="-1" k3="1" result="shadowInnerInner1"></feComposite>
            <feColorMatrix values="0 0 0 0 0   0 0 0 0 0   0 0 0 0 0  0 0 0 0.3 0" type="matrix" in="shadowInnerInner1"></feColorMatrix>
        </filter>
        <path d="M3.5,0 C1.5701653,0 0,1.82153967 0,4.06032983 L0,39.9396702 C0,42.1784603 1.5701653,44 3.5,44 C5.4298347,44 7,42.1785877 7,39.9396702 L7,4.06032983 C7,1.82153967 5.4298347,0 3.5,0 Z" id="path-11"></path>
        <filter x="-21.4%" y="-3.4%" width="142.9%" height="106.8%" filterUnits="objectBoundingBox" id="filter-12">
            <feGaussianBlur stdDeviation="1.5" in="SourceAlpha" result="shadowBlurInner1"></feGaussianBlur>
            <feOffset dx="0" dy="0" in="shadowBlurInner1" result="shadowOffsetInner1"></feOffset>
            <feComposite in="shadowOffsetInner1" in2="SourceAlpha" operator="arithmetic" k2="-1" k3="1" result="shadowInnerInner1"></feComposite>
            <feColorMatrix values="0 0 0 0 0   0 0 0 0 0   0 0 0 0 0  0 0 0 0.3 0" type="matrix" in="shadowInnerInner1"></feColorMatrix>
        </filter>
        <path d="M3.5000549,0 C1.5701406,0 0,1.8632153 0,4.1533578 L0,19.8466422 C0,22.1367847 1.5701406,24 3.5000549,24 C5.4298594,24 7,22.1367847 7,19.8466422 L7,4.1533578 C7,1.8632153 5.4298594,0 3.5000549,0 Z" id="path-13"></path>
        <filter x="-21.4%" y="-6.2%" width="142.9%" height="112.5%" filterUnits="objectBoundingBox" id="filter-14">
            <feGaussianBlur stdDeviation="1.5" in="SourceAlpha" result="shadowBlurInner1"></feGaussianBlur>
            <feOffset dx="0" dy="0" in="shadowBlurInner1" result="shadowOffsetInner1"></feOffset>
            <feComposite in="shadowOffsetInner1" in2="SourceAlpha" operator="arithmetic" k2="-1" k3="1" result="shadowInnerInner1"></feComposite>
            <feColorMatrix values="0 0 0 0 0   0 0 0 0 0   0 0 0 0 0  0 0 0 0.305706522 0" type="matrix" in="shadowInnerInner1"></feColorMatrix>
        </filter>
    </defs>
    <g id="Page-1" stroke="none" stroke-width="1" fill="none" fill-rule="evenodd">
        <g id="5be76b7e5713feeb03a8f2fc_logo-(2)">
            <g id="sound-bar">
                <g id="Shape" transform="translate(0.000000, 16.000000)">
                    <g id="path-3-link" fill="#42A5FF">
                        <path d="M3.5,0 C1.57016526,0 0,1.8432224 0,4.1085037 L0,15.8916252 C0,18.1570353 1.57016526,20 3.5,20 C5.42994449,20 7,18.1570353 7,15.891754 L7,4.1085037 C7,1.8432224 5.42983474,0 3.5,0 Z" id="path-3"></path>
                    </g>
                    <g id="path-3-link">
                        <g id="path-3">
                            <use fill="#42A5FF" fill-rule="evenodd" xlink:href="#path-1"></use>
                            <use fill="black" fill-opacity="1" filter="url(#filter-2)" xlink:href="#path-1"></use>
                        </g>
                    </g>
                </g>
                <g id="Shape" transform="translate(13.000000, 11.000000)">
                    <g id="path-5-link" fill="#42A5FF">
                        <path d="M3.5,0 C1.5701653,0 0,1.7795008 0,3.9666224 L0,26.0333776 C0,28.2204992 1.5700555,30 3.5,30 C5.4298347,30 7,28.2204992 7,26.0333776 L7,3.9666224 C7,1.7795008 5.4298347,0 3.5,0 Z" id="path-5"></path>
                    </g>
                    <g id="path-5-link">
                        <g id="path-5">
                            <use fill="#42A5FF" fill-rule="evenodd" xlink:href="#path-3"></use>
                            <use fill="black" fill-opacity="1" filter="url(#filter-4)" xlink:href="#path-3"></use>
                        </g>
                    </g>
                </g>
                <g id="Shape" transform="translate(26.000000, 4.000000)">
                    <g id="path-7-link" fill="#42A5FF">
                        <path d="M3.5,0 C1.5700555,0 0,1.82153967 0,4.06032983 L0,39.9396702 C0,42.1784603 1.5701653,44 3.5,44 C5.4299445,44 7,42.1785877 7,39.9396702 L7,4.06032983 C7,1.82153967 5.4299445,0 3.5,0 Z" id="path-7"></path>
                    </g>
                    <g id="path-7-link">
                        <g id="path-7">
                            <use fill="#42A5FF" fill-rule="evenodd" xlink:href="#path-5"></use>
                            <use fill="black" fill-opacity="1" filter="url(#filter-6)" xlink:href="#path-5"></use>
                        </g>
                    </g>
                </g>
                <g id="Shape" transform="translate(39.000000, 0.000000)">
                    <g id="path-9-link" fill="#42A5FF">
                        <path d="M3.5,0 C1.5701653,0 0,1.78908003 0,3.98797519 L0,48.0120248 C0,50.21092 1.5700555,52 3.5,52 C5.4298347,52 7,50.211045 7,48.0120248 L7,3.98785013 C7,1.78895497 5.4298347,0 3.5,0 Z" id="path-9"></path>
                    </g>
                    <g id="path-9-link">
                        <g id="path-9">
                            <use fill="#42A5FF" fill-rule="evenodd" xlink:href="#path-7"></use>
                            <use fill="black" fill-opacity="1" filter="url(#filter-8)" xlink:href="#path-7"></use>
                        </g>
                    </g>
                </g>
                <g id="Shape" transform="translate(51.000000, 7.000000)">
                    <g id="path-11-link" fill="#42A5FF">
                        <path d="M3.4999451,0 C1.5701406,0 0,1.79529776 0,4.0019604 L0,32.9980396 C0,35.2047022 1.5701406,37 3.4999451,37 C5.4298594,37 7,35.2047022 7,32.9981651 L7,4.0019604 C7,1.79529776 5.4298594,0 3.4999451,0 Z" id="path-11"></path>
                    </g>
                    <g id="path-11-link">
                        <g id="path-11">
                            <use fill="#42A5FF" fill-rule="evenodd" xlink:href="#path-9"></use>
                            <use fill="black" fill-opacity="1" filter="url(#filter-10)" xlink:href="#path-9"></use>
                        </g>
                    </g>
                </g>
                <g id="Shape" transform="translate(64.000000, 4.000000)">
                    <g id="path-13-link" fill="#42A5FF">
                        <path d="M3.5,0 C1.5701653,0 0,1.82153967 0,4.06032983 L0,39.9396702 C0,42.1784603 1.5701653,44 3.5,44 C5.4298347,44 7,42.1785877 7,39.9396702 L7,4.06032983 C7,1.82153967 5.4298347,0 3.5,0 Z" id="path-13"></path>
                    </g>
                    <g id="path-13-link">
                        <g id="path-13">
                            <use fill="#42A5FF" fill-rule="evenodd" xlink:href="#path-11"></use>
                            <use fill="black" fill-opacity="1" filter="url(#filter-12)" xlink:href="#path-11"></use>
                        </g>
                    </g>
                </g>
                <g id="Shape" transform="translate(77.000000, 14.000000)">
                    <g id="path-15-link" fill="#42A5FF">
                        <path d="M3.5000549,0 C1.5701406,0 0,1.8632153 0,4.1533578 L0,19.8466422 C0,22.1367847 1.5701406,24 3.5000549,24 C5.4298594,24 7,22.1367847 7,19.8466422 L7,4.1533578 C7,1.8632153 5.4298594,0 3.5000549,0 Z" id="path-15"></path>
                    </g>
                    <g id="path-15-link">
                        <g id="path-15">
                            <use fill="#42A5FF" fill-rule="evenodd" xlink:href="#path-13"></use>
                            <use fill="black" fill-opacity="1" filter="url(#filter-14)" xlink:href="#path-13"></use>
                        </g>
                    </g>
                </g>
            </g>
        </g>
    </g>
</svg>