<?xml version="1.0" encoding="UTF-8"?>
<svg width="260px" height="169px" viewBox="0 0 260 169" version="1.1" xmlns="http://www.w3.org/2000/svg" xmlns:xlink="http://www.w3.org/1999/xlink">
    <!-- Generator: Sketch 51.3 (57544) - http://www.bohemiancoding.com/sketch -->
    <title>Artwork</title>
    <desc>Created with Sketch.</desc>
    <defs></defs>
    <g id="Empty-States" stroke="none" stroke-width="1" fill="none" fill-rule="evenodd">
        <g id="1.4_No-Messages" transform="translate(-61.000000, -175.000000)">
            <g id="Artwork" transform="translate(61.000000, 149.000000)">
                <g id="scenery" transform="translate(0.000000, 91.000000)" stroke="#5C738E" stroke-dasharray="7,7" stroke-width="3">
                    <path d="M148.814596,152.783686 C145.532199,148.531459 140.691798,144.991249 134.293394,142.163059 C111.139055,135.385313 70.4749312,135.990295 55.2038294,96.3786625 C41.2080017,60.074957 92.8371404,25.1345626 107.281677,40.4319199 C117.517074,51.2716253 104.397672,66.9039694 86.1921168,65.1478813 C65.700359,63.1712687 53.5879426,44.845567 57.6283863,25.1345626 C65.6431363,-13.9647997 127.26351,-39.8338775 129.861338,-41.6358963" id="Path-6" transform="translate(100.818109, 55.573895) rotate(-94.000000) translate(-100.818109, -55.573895) "></path>
                </g>
                <g id="rocket" transform="translate(181.000000, 0.000000)">
                    <polygon id="Path-8-Copy" fill="#C4D5DF" transform="translate(36.386104, 68.142713) scale(-1, 1) rotate(-90.000000) translate(-36.386104, -68.142713) " points="17.5404134 87.2966316 17.5404134 67.9330455 55.231795 48.9887949"></polygon>
                    <polygon id="Path-8" fill="#D5DFE5" points="17.2628193 87.1137136 18.0026647 69.7914438 53.8191578 51.1128969"></polygon>
                    <polygon id="Triangle" fill="#FFFFFF" transform="translate(52.503259, 52.503259) rotate(45.000000) translate(-52.503259, -52.503259) " points="52.5032593 16.0032593 89.0032593 89.0032593 64.6825063 89.0032593 52.5032593 51.4297299 40.3298573 89.0032593 16.0032593 89.0032593"></polygon>
                </g>
            </g>
        </g>
    </g>
</svg>