<?xml version="1.0" encoding="UTF-8"?>
<svg width="28px" height="28px" viewBox="0 0 28 28" version="1.1" xmlns="http://www.w3.org/2000/svg" xmlns:xlink="http://www.w3.org/1999/xlink">
    <!-- Generator: Sketch 52.1 (67048) - http://www.bohemiancoding.com/sketch -->
    <title>Rocket</title>
    <g id="Page-1" stroke="none" stroke-width="1" fill="none" fill-rule="evenodd">
        <g id="rocket">
            <g id="Group-2">
                <circle id="Oval-Copy" fill-opacity="0.730242301" fill="#147ADE" cx="14" cy="14" r="14"></circle>
                <circle id="Oval" fill-opacity="0.637624547" fill="#045AB0" cx="14" cy="14" r="10"></circle>
                <path d="M18.6934404,12.2745954 C18.5167851,12.2745954 18.3404835,12.2908249 18.167366,12.3231752 C18.0368203,11.7213729 17.6147579,11.2080165 17.0221724,10.9301526 C16.4297049,10.6522888 15.7319281,10.640634 15.1288471,10.8984559 C14.5830788,9.50989914 12.9219526,8.79296466 11.4186134,9.29706261 C9.91527411,9.80116056 9.13907558,11.3355659 9.68484386,12.7240137 C8.36794792,12.7624637 7.32770981,13.7692436 7.34740369,14.986028 C7.36721548,16.2029213 8.43976573,17.1802919 9.75736926,17.1822525 L18.6934404,17.1822525 C20.1605759,17.1822525 21.3501102,16.0836501 21.3501102,14.7284239 C21.3501102,13.3731978 20.1605759,12.2745954 18.6934404,12.2745954 Z" id="Path" fill="#FFFFFF"></path>
            </g>
        </g>
    </g>
</svg>