<?xml version="1.0" encoding="UTF-8"?>
<svg width="21px" height="21px" viewBox="0 0 21 21" version="1.1" xmlns="http://www.w3.org/2000/svg" xmlns:xlink="http://www.w3.org/1999/xlink">
    <!-- Generator: Sketch 52.1 (67048) - http://www.bohemiancoding.com/sketch -->
    <title>Artboard</title>
    <desc>Created with Sketch.</desc>
    <defs>
        <linearGradient x1="50%" y1="0%" x2="50%" y2="97.6833454%" id="linearGradient-1">
            <stop stop-color="#3ECF8E" offset="0%"></stop>
            <stop stop-color="#3ECF8E" offset="100%"></stop>
        </linearGradient>
        <linearGradient x1="50%" y1="1.7837789%" x2="50%" y2="96.3263186%" id="linearGradient-2">
            <stop stop-color="#FFFFFF" stop-opacity="0.85" offset="0%"></stop>
            <stop stop-color="#FFFFFF" offset="100%"></stop>
        </linearGradient>
    </defs>
    <g id="Artboard" stroke="none" stroke-width="1" fill="none" fill-rule="evenodd">
        <g id="checked-(2)" transform="translate(1.000000, 1.000000)">
            <circle id="Oval" stroke="url(#linearGradient-1)" stroke-width="1.5" fill="#3ECF8E" cx="9.5" cy="9.5" r="9.5"></circle>
            <path d="M13.4752589,6.21359205 L8.13038942,10.9884313 L6.18783326,9.71412849 C5.9151938,9.42933908 5.47783466,9.42933908 5.2051952,9.70819537 C4.93255574,9.98705167 4.93255574,10.4498344 5.19951521,10.7346239 L7.6362304,13.2977285 C7.77255013,13.4401232 7.94862978,13.5113205 8.13038942,13.5113205 C8.30646907,13.5113205 8.48254873,13.4401232 8.61886846,13.2977285 L14.4522169,7.24002053 C14.7248564,6.95523113 14.7248564,6.49838146 14.4578969,6.21359205 C14.1852575,5.92880265 13.7478983,5.92880265 13.4752589,6.21359205 Z" id="Path" fill="url(#linearGradient-2)"></path>
        </g>
    </g>
</svg>