<?xml version="1.0" encoding="UTF-8"?>
<svg viewBox="0 0 64 64" version="1.1" xmlns="http://www.w3.org/2000/svg" xmlns:xlink="http://www.w3.org/1999/xlink">
    <!-- Generator: Sketch 59.1 (86144) - https://sketch.com -->
    <title>Icon/Large/Globe</title>
    <desc>Created with Sketch.</desc>
    <g id="Icon/Large/Globe" stroke="none" stroke-width="1" fill="none" fill-rule="evenodd">
        <rect id="Rectangle" x="0" y="0"></rect>
        <g id="22-earth,-planet,-space,-network,-internet,-communication" transform="translate(0.000000, 2.000000)">
            <path d="M12.49425,5.511375 C12.49425,7.16775 11.152125,8.51 9.495625,8.51 C7.839125,8.51 6.497125,7.167875 6.497125,5.511375 C6.497125,3.854875 7.83925,2.51275 9.49575,2.51275 C11.15225,2.51275 12.49425,3.855 12.49425,5.511375 Z" id="Path" fill="#94C1FF"></path>
            <path d="M7.496625,5.511375 C7.496625,4.02575 8.578125,2.80175 9.9955,2.5635 C9.8315,2.53525 9.666625,2.51275 9.49575,2.51275 C7.839375,2.51275 6.497125,3.854875 6.497125,5.511375 C6.497125,7.167875 7.83925,8.51 9.495625,8.51 C9.6665,8.51 9.831375,8.4875 9.995375,8.45925 C8.578125,8.221125 7.496625,6.997125 7.496625,5.511375 Z" id="Path" fill="#D7E9FF"></path>
            <path d="M11.49475,5.511375 C11.49475,6.997 10.41325,8.221 8.995875,8.45925 C9.159,8.4875 9.323875,8.51 9.49575,8.51 C11.152125,8.51 12.494375,7.167875 12.494375,5.511375 C12.494375,3.854875 11.152125,2.512875 9.495625,2.512875 C9.32375,2.512875 9.158875,2.535375 8.99575,2.563625 C10.41325,2.80175 11.49475,4.02575 11.49475,5.511375 Z" id="Path" fill="#5C9EFF"></path>
            <path d="M59.9745,45.493125 L55.976375,45.493125 C57.080375,45.493125 57.9755,44.598 57.9755,43.494 C57.9755,42.39 57.080375,41.494875 55.976375,41.494875 L51.97825,41.494875 C53.08225,41.494875 53.977375,40.599875 53.977375,39.495875 C53.977375,38.391875 53.08225,37.496875 51.97825,37.496875 L45.981,37.496875 C47.085,37.496875 47.98,36.60175 47.98,35.49775 C47.98,34.39375 47.085,33.498625 45.981,33.498625 L56.975875,33.498625 C58.079875,33.498625 58.975,32.603625 58.975,31.499625 C58.975,30.395625 58.079875,29.5005 56.975875,29.5005 L51.97825,29.5005 C53.08225,29.5005 53.977375,28.605375 53.977375,27.501375 C53.977375,26.397375 53.08225,25.50225 51.97825,25.50225 L49.979125,25.50225 C51.083125,25.50225 51.97825,24.607125 51.97825,23.503125 C51.97825,22.399125 51.083125,21.504 49.979125,21.504 L59.974625,21.504 C61.078625,21.504 61.97375,20.608875 61.97375,19.504875 C61.97375,18.400875 61.078625,17.50575 59.974625,17.50575 L55.9765,17.50575 C57.0805,17.50575 57.975625,16.610625 57.975625,15.506625 C57.975625,14.402625 57.0805,13.5075 55.9765,13.5075 L51.978375,13.5075 C53.082375,13.5075 53.9775,12.612375 53.9775,11.508375 C53.9775,10.404375 53.082375,9.50925 51.978375,9.50925 L48.97975,9.50925 C50.08375,9.50925 50.978875,8.614125 50.978875,7.510125 C50.978875,6.406125 50.08375,5.511 48.97975,5.511 L18.9935,5.511 C17.8895,5.511 16.994375,6.406125 16.994375,7.510125 C16.994375,8.614125 17.8895,9.50925 18.9935,9.50925 L11.9965,9.50925 C10.8925,9.50925 9.997375,10.404375 9.997375,11.508375 C9.997375,12.612375 10.8925,13.5075 11.9965,13.5075 L9.997375,13.5075 C8.893375,13.5075 7.99825,14.402625 7.99825,15.506625 C7.99825,16.610625 8.893375,17.50575 9.997375,17.50575 L15.994625,17.50575 C14.890625,17.50575 13.9955,18.400875 13.9955,19.504875 C13.9955,20.608875 14.890625,21.504 15.994625,21.504 L4.999625,21.504 C3.895625,21.504 3.000625,22.399125 3.000625,23.503125 C3.000625,24.607125 3.89575,25.50225 4.999625,25.50225 L9.997375,25.50225 C8.893375,25.50225 7.99825,26.397375 7.99825,27.501375 C7.99825,28.605375 8.893375,29.5005 9.997375,29.5005 L4.999625,29.5005 C3.895625,29.5005 3.000625,30.395625 3.000625,31.499625 C3.000625,32.603625 3.89575,33.498625 4.999625,33.498625 L3.000625,33.498625 C1.896625,33.498625 1.0015,34.39375 1.0015,35.49775 C1.0015,36.60175 1.896625,37.496875 3.000625,37.496875 L7.99825,37.496875 C6.89425,37.496875 5.999125,38.391875 5.999125,39.495875 C5.999125,40.599875 6.89425,41.494875 7.99825,41.494875 L5.99925,41.494875 C4.89525,41.494875 4.000125,42.39 4.000125,43.494 C4.000125,44.598 4.89525,45.493125 5.99925,45.493125 L15.994625,45.493125 C14.890625,45.493125 13.9955,46.388125 13.9955,47.492125 C13.9955,48.596125 14.890625,49.491125 15.994625,49.491125 L11.9965,49.491125 C10.8925,49.491125 9.997375,50.38625 9.997375,51.49025 C9.997375,52.59425 10.8925,53.489375 11.9965,53.489375 L45.981,53.489375 C47.085,53.489375 47.98,52.59425 47.98,51.49025 C47.98,50.38625 47.085,49.491125 45.981,49.491125 L59.9745,49.491125 C61.0785,49.491125 61.97375,48.596125 61.97375,47.492125 C61.97375,46.388125 61.0785,45.493125 59.9745,45.493125 Z" id="Path" fill="#5C9EFF"></path>
            <circle id="Oval" fill="#94C1FF" cx="31.985375" cy="30.00025" r="18.991375"></circle>
            <path d="M46.879875,28.416875 C43.140375,28.702875 41.779625,26.414875 42.27075,25.74425 C43.12375,24.583625 47.328875,27.590125 47.598375,25.502125 C47.647125,25.125375 49.140625,24.08975 49.979,23.96075 C48.471,19.46775 45.336625,15.72625 41.26625,13.44025 C41.0545,13.325 40.842625,13.210875 40.629875,13.104375 C40.52925,13.052625 40.42475,13.00675 40.323375,12.957 C39.769875,12.6905 39.2145,12.4475 38.662,12.2395 C38.476625,12.818375 37.76975,13.176625 37.687875,13.216625 C34.83475,14.60275 31.4465,15.58375 29.426,18.247625 C29.14,18.622375 28.755375,19.38675 29.1625,19.832875 C29.66325,20.387375 31.1,19.81825 31.760875,19.866125 C33.589125,19.996875 38.127125,20.876375 38.294875,21.712 C38.461875,22.5505 36.886375,24.49775 34.80825,23.350875 C34.19525,23.01225 31.795,22.648 30.96425,22.49775 C30.384375,22.39325 25.174,23.258125 25.3965,29.21925 C25.48825,31.636125 27.046125,33.3365 29.485375,33.363875 C31.506875,33.386375 33.7345,33.363875 34.317125,35.12675 C34.978,37.126875 34.67925,38.801875 35.178125,40.8175 C35.380125,41.629625 35.72575,43.958625 36.7545,44.0465 C38.313375,44.180125 39.83125,43.127875 40.767375,42.0405 C41.514125,41.171875 42.543875,40.31775 43.10025,39.302625 C43.983625,37.688125 44.545,34.288375 45.479125,32.669875 C46.230875,31.367625 48.062,28.327125 46.879875,28.416875 Z" id="Path" fill="#D7E9FF"></path>
            <g id="Group" opacity="0.3" transform="translate(25.375000, 12.125000)" fill="#FFFFFF">
                <g transform="translate(6.750000, 7.625000)" id="Path">
                    <path d="M4.451,3.896625 C6.13475,4.2675 7.314875,2.693125 7.1695,1.962 C7.0015,1.126375 2.463625,0.246875 0.635375,0.116125 C0.488,0.105375 0.298625,0.12775 0.092625,0.159 C2.123,0.379625 6.01475,1.188875 6.169875,1.961875 C6.285125,2.537875 5.5785,3.635125 4.451,3.896625 Z"></path>
                </g>
                <g transform="translate(3.500000, 0.000000)" id="Path">
                    <path d="M1.638375,7.897375 C1.50075,7.86025 1.37575,7.805625 1.287,7.708 C0.88,7.261875 1.2645,6.4975 1.5505,6.12275 C3.571,3.458875 6.95925,2.477875 9.812375,1.09175 C9.876875,1.0605 10.316,0.835 10.59625,0.464125 C10.326875,0.348 10.0565,0.21625 9.787,0.114625 C9.601625,0.6935 8.89475,1.05175 8.812875,1.09175 C5.95975,2.477875 2.5715,3.458875 0.551,6.12275 C0.265,6.4975 -0.119625,7.261875 0.2875,7.708 C0.555875,8.00575 1.09475,7.977375 1.638375,7.897375 Z"></path>
                </g>
                <g transform="translate(0.000000, 10.250000)" id="Path">
                    <path d="M10.80275,18.4425 C10.304,16.426875 10.602625,14.751875 9.941875,12.75175 C9.359125,10.988875 7.131625,11.011375 5.110125,10.988875 C2.67075,10.9615 1.112875,9.26125 1.021125,6.84425 C0.836625,1.912875 4.364375,0.473125 5.919375,0.18025 C5.795375,0.158875 5.67925,0.13925 5.589375,0.12275 C5.0095,0.01825 -0.200875,0.883125 0.021625,6.84425 C0.113375,9.261125 1.67125,10.9615 4.1105,10.988875 C6.132,11.011375 8.359625,10.988875 8.94225,12.75175 C9.603125,14.751875 9.304375,16.426875 9.80325,18.4425 C10.00525,19.254625 10.350875,21.583625 11.379625,21.6715 C11.668625,21.695875 11.954625,21.668625 12.237625,21.61975 C11.323,21.33275 10.994125,19.214625 10.80275,18.4425 Z"></path>
                </g>
            </g>
            <path d="M18.956125,38.714 C19.488125,36.903375 17.679375,31.0935 12.994,30.00025 C12.994,35.154 15.054625,39.821875 18.388,43.243125 C18.989375,42.71025 18.72875,39.49 18.956125,38.714 Z" id="Path" fill="#D7E9FF"></path>
            <path d="M31.985375,11.008875 C31.647625,11.008875 31.31875,11.042125 30.985875,11.059625 C41.006625,11.582875 48.977625,19.8495 48.977625,30.000125 C48.977625,40.15075 41.006625,48.4175 30.985875,48.94075 C31.31875,48.95825 31.647625,48.991375 31.985375,48.991375 C42.47375,48.991375 50.97675,40.4885 50.97675,30.000125 C50.97675,19.511875 42.47375,11.008875 31.985375,11.008875 Z" id="Path" fill="#5C9EFF"></path>
            <path d="M14.993125,30.00025 C14.993125,19.849625 22.964125,11.582875 32.984875,11.05975 C32.652125,11.042125 32.322125,11.009 31.985375,11.009 C21.497,11.009 12.994,19.511875 12.994,30.000375 C12.994,40.488625 21.497,48.991625 31.985375,48.991625 C32.322125,48.991625 32.652125,48.958375 32.984875,48.941 C22.964125,48.4175 14.993125,40.150875 14.993125,30.00025 Z" id="Path" fill="#D7E9FF"></path>
            <path d="M48.247375,24.815125 C48.766625,24.428625 49.484125,24.037125 49.979,23.961 C49.978,23.958125 49.977,23.955125 49.976125,23.95225 C48.467125,19.463125 45.33475,15.724625 41.26625,13.4405 C41.055375,13.32525 40.843625,13.211125 40.630875,13.105625 C40.529375,13.052875 40.424875,13.007 40.323375,12.95725 C39.769875,12.69075 39.2145,12.44775 38.662,12.23975 C38.57525,12.510125 38.376,12.72975 38.178875,12.89375 C43.040875,15.218875 46.751125,19.547 48.247375,24.815125 Z" id="Path" fill="#94C1FF"></path>
            <path d="M13.23425,32.876875 C13.280125,33.1785 13.312375,33.484875 13.372875,33.78175 C13.46075,34.216125 13.57975,34.638625 13.697,35.061375 C13.743875,35.23025 13.777,35.404 13.82775,35.570875 C13.983,36.0755 14.1665,36.5665 14.361625,37.051625 C14.391875,37.12775 14.415375,37.207875 14.446625,37.283 C14.670125,37.819875 14.92,38.344 15.191375,38.8555 C15.201125,38.874 15.209,38.893625 15.21875,38.912125 C16.069,40.504125 17.13875,41.961625 18.388125,43.243125 C18.6575,43.004 18.75325,42.224125 18.798125,41.366 C16.581375,38.417125 15.21475,34.804625 15.03625,30.87275 C14.426125,30.48625 13.751625,30.176875 12.994125,30.00025 C12.994125,30.64925 13.027375,31.289625 13.09075,31.921125 C13.123875,32.24525 13.186375,32.558625 13.23425,32.876875 Z" id="Path" fill="#FFFFFF"></path>
            <circle id="Oval" fill="#5C9EFF" cx="34.48425" cy="28.500875" r="1.999125"></circle>
            <circle id="Oval" fill="#5C9EFF" cx="19.491125" cy="23.503125" r="1.999125"></circle>
            <path d="M18.491625,23.503125 C18.491625,22.572875 19.129875,21.797875 19.990875,21.57425 C19.829875,21.53325 19.664875,21.504 19.491125,21.504 C18.387125,21.504 17.492,22.399125 17.492,23.503125 C17.492,24.607125 18.387125,25.50225 19.491125,25.50225 C19.664875,25.50225 19.829875,25.473 19.990875,25.432 C19.129875,25.208375 18.491625,24.433375 18.491625,23.503125 Z" id="Path" fill="#94C1FF"></path>
            <path d="M20.460375,23.503125 C20.460375,24.433375 19.822125,25.208375 18.961125,25.432 C19.121125,25.473 19.287125,25.50225 19.460875,25.50225 C20.564875,25.50225 21.46,24.607125 21.46,23.503125 C21.46,22.399125 20.564875,21.504 19.460875,21.504 C19.287125,21.504 19.121125,21.53325 18.961125,21.57425 C19.822,21.797875 20.460375,22.572875 20.460375,23.503125 Z" id="Path" fill="#2287FF"></path>
            <path d="M33.49925,28.500875 C33.49925,27.57075 34.137625,26.795625 34.998625,26.572125 C34.838625,26.531125 34.672625,26.501875 34.498875,26.501875 C33.394875,26.501875 32.49975,27.397 32.49975,28.500875 C32.49975,29.604875 33.394875,30.5 34.498875,30.5 C34.672625,30.5 34.838625,30.47075 34.998625,30.42975 C34.13775,30.206125 33.49925,29.431125 33.49925,28.500875 Z" id="Path" fill="#94C1FF"></path>
            <path d="M35.468125,28.500875 C35.468125,29.431125 34.829875,30.20625 33.968875,30.42975 C34.129875,30.47075 34.294875,30.5 34.468625,30.5 C35.572625,30.5 36.467625,29.604875 36.467625,28.500875 C36.467625,27.396875 35.572625,26.501875 34.468625,26.501875 C34.294875,26.501875 34.129875,26.531125 33.968875,26.572125 C34.829875,26.795625 35.468125,27.570625 35.468125,28.500875 Z" id="Path" fill="#2287FF"></path>
            <circle id="Oval" fill="#5C9EFF" cx="28.487" cy="40.495375" r="1.999125"></circle>
            <path d="M27.502125,40.495375 C27.502125,39.56525 28.1405,38.790125 29.001375,38.566625 C28.841375,38.525625 28.675375,38.496375 28.501625,38.496375 C27.397625,38.496375 26.502625,39.391375 26.502625,40.495375 C26.502625,41.599375 27.397625,42.4945 28.501625,42.4945 C28.675375,42.4945 28.841375,42.46525 29.001375,42.42425 C28.1405,42.200625 27.502125,41.425625 27.502125,40.495375 Z" id="Path" fill="#94C1FF"></path>
            <path d="M29.470875,40.495375 C29.470875,41.425625 28.8325,42.20075 27.9715,42.42425 C28.132625,42.46525 28.2975,42.4945 28.47125,42.4945 C29.57525,42.4945 30.470375,41.599375 30.470375,40.495375 C30.470375,39.391375 29.57525,38.496375 28.47125,38.496375 C28.2975,38.496375 28.132625,38.525625 27.9715,38.566625 C28.8325,38.790125 29.470875,39.565125 29.470875,40.495375 Z" id="Path" fill="#2287FF"></path>
            <circle id="Oval" fill="#94C1FF" cx="46.9785" cy="54.98875" r="4.497875"></circle>
            <path d="M46.9785,50.490875 C46.806625,50.490875 46.644625,50.523125 46.47875,50.541625 C48.72475,50.7925 50.476875,52.675375 50.476875,54.98875 C50.476875,57.302125 48.724625,59.185 46.47875,59.435875 C46.644625,59.454375 46.806625,59.486625 46.9785,59.486625 C49.462625,59.486625 51.476375,57.473 51.476375,54.98875 C51.476375,52.5045 49.462625,50.490875 46.9785,50.490875 Z" id="Path" fill="#5C9EFF"></path>
            <path d="M43.480125,54.98875 C43.480125,52.675375 45.23225,50.7925 47.47825,50.541625 C47.31125,50.523125 47.14925,50.490875 46.9785,50.490875 C44.49425,50.490875 42.480625,52.5045 42.480625,54.98875 C42.480625,57.473 44.49425,59.486625 46.9785,59.486625 C47.14925,59.486625 47.31125,59.454375 47.47825,59.435875 C45.232125,59.185 43.480125,57.302125 43.480125,54.98875 Z" id="Path" fill="#D7E9FF"></path>
            <path d="M49.47725,53.4895 C49.47725,54.042 49.02925,54.489 48.47775,54.489 C47.92525,54.489 47.47825,54.042 47.47825,53.4895 C47.47825,52.937 47.92525,52.489875 48.47775,52.489875 C49.02925,52.489875 49.47725,52.937 49.47725,53.4895 Z" id="Path" fill="#94C1FF"></path>
            <g id="_x32_2_earth_x2C__planet_x2C__space_x2C__network_x2C__internet_x2C__communication" fill="#116FFF">
                <path d="M44.508875,5.011625 C44.233625,5.011625 44.00425,4.788125 44.00425,4.511875 C44.00425,4.235625 44.222875,4.012125 44.499125,4.012125 L44.508875,4.012125 C44.785125,4.012125 45.008625,4.235625 45.008625,4.511875 C45.008625,4.788125 44.785125,5.011625 44.508875,5.011625 Z" id="Path"></path>
                <path d="M20.519875,7.01075 C20.244625,7.01075 20.01525,6.78725 20.01525,6.511 C20.01525,6.23475 20.233875,6.011125 20.510125,6.011125 L20.519875,6.011125 C20.796125,6.011125 21.019625,6.23475 21.019625,6.511 C21.019625,6.78725 20.796125,7.01075 20.519875,7.01075 Z" id="Path"></path>
                <path d="M31.514875,1.013375 C31.239625,1.013375 31.01025,0.789875 31.01025,0.513625 C31.01025,0.237375 31.228875,0.013875 31.505125,0.013875 L31.514875,0.013875 C31.791125,0.013875 32.014625,0.237375 32.014625,0.513625 C32.014625,0.789875 31.791125,1.013375 31.514875,1.013375 Z" id="Path"></path>
                <path d="M54.504375,1.013375 C54.229125,1.013375 53.99975,0.789875 53.99975,0.513625 C53.99975,0.237375 54.218375,0.013875 54.494625,0.013875 L54.504375,0.013875 C54.7805,0.013875 55.004125,0.237375 55.004125,0.513625 C55.004125,0.789875 54.7805,1.013375 54.504375,1.013375 Z" id="Path"></path>
                <path d="M61.50125,19.00525 C61.225875,19.00525 60.9965,18.78175 60.9965,18.5055 C60.9965,18.22925 61.215125,18.00575 61.4915,18.00575 L61.50125,18.00575 C61.777375,18.00575 62.001,18.22925 62.001,18.5055 C62.001,18.78175 61.777375,19.00525 61.50125,19.00525 Z" id="Path"></path>
                <path d="M56.503375,26.002125 C56.228125,26.002125 55.99875,25.7785 55.99875,25.50225 C55.99875,25.226 56.217375,25.0025 56.493625,25.0025 L56.503375,25.0025 C56.779625,25.0025 57.003125,25.226 57.003125,25.50225 C57.003125,25.7785 56.779625,26.002125 56.503375,26.002125 Z" id="Path"></path>
                <path d="M4.52725,29.000625 C4.252,29.000625 4.022625,28.777 4.022625,28.50075 C4.022625,28.2245 4.24125,28.001 4.5175,28.001 L4.52725,28.001 C4.8035,28.001 5.027,28.2245 5.027,28.50075 C5.027,28.777 4.8035,29.000625 4.52725,29.000625 Z" id="Path"></path>
                <path d="M8.525375,39.995625 C8.250125,39.995625 8.02075,39.772125 8.02075,39.495875 C8.02075,39.219625 8.239375,38.996125 8.515625,38.996125 L8.525375,38.996125 C8.801625,38.996125 9.025125,39.219625 9.025125,39.495875 C9.025125,39.772125 8.801625,39.995625 8.525375,39.995625 Z" id="Path"></path>
                <path d="M0.529,47.992 C0.25375,47.992 0.024375,47.7685 0.024375,47.49225 C0.024375,47.216 0.243,46.9925 0.51925,46.9925 L0.529,46.9925 C0.80525,46.9925 1.02875,47.216 1.02875,47.49225 C1.02875,47.7685 0.80525,47.992 0.529,47.992 Z" id="Path"></path>
                <path d="M57.502875,48.9915 C57.22775,48.9915 56.99825,48.768 56.99825,48.49175 C56.99825,48.2155 57.217,47.992 57.493125,47.992 L57.502875,47.992 C57.779125,47.992 58.002625,48.2155 58.002625,48.49175 C58.002625,48.768 57.779125,48.9915 57.502875,48.9915 Z" id="Path"></path>
                <path d="M15.52225,51.990125 C15.247,51.990125 15.017625,51.766625 15.017625,51.490375 C15.017625,51.214125 15.23625,50.990625 15.5125,50.990625 L15.52225,50.990625 C15.7985,50.990625 16.022,51.214125 16.022,51.490375 C16.022,51.766625 15.7985,51.990125 15.52225,51.990125 Z" id="Path"></path>
                <path d="M24.602,60.986125 C24.32575,60.986125 24.097375,60.7625 24.097375,60.48625 C24.097375,60.21 24.316,59.9865 24.59225,59.9865 L24.602,59.9865 C24.87825,59.9865 25.10175,60.21 25.10175,60.48625 C25.10175,60.7625 24.87825,60.986125 24.602,60.986125 Z" id="Path"></path>
                <path d="M33.513875,55.98825 C33.23875,55.98825 33.00925,55.76475 33.00925,55.4885 C33.00925,55.21225 33.228,54.98875 33.504125,54.98875 L33.513875,54.98875 C33.790125,54.98875 34.013625,55.21225 34.013625,55.4885 C34.013625,55.76475 33.790125,55.98825 33.513875,55.98825 Z" id="Path"></path>
                <path d="M63.50025,59.9865 C63.225,59.9865 62.995625,59.763 62.995625,59.48675 C62.995625,59.2105 63.21425,58.987 63.4905,58.987 L63.50025,58.987 C63.7765,58.987 64,59.2105 64,59.48675 C64,59.763 63.7765,59.9865 63.50025,59.9865 Z" id="Path"></path>
                <g id="Group" transform="translate(41.875000, 49.875000)">
                    <path d="M4.633,8.112375 C4.35775,8.112375 4.128375,7.888875 4.128375,7.6125 C4.128375,7.336375 4.347,7.11275 4.62325,7.11275 L4.633,7.11275 C4.909125,7.11275 5.13275,7.336375 5.13275,7.6125 C5.13275,7.888875 4.909125,8.112375 4.633,8.112375 Z" id="Path"></path>
                    <path d="M2.633875,5.11375 C2.358625,5.11375 2.12925,4.89025 2.12925,4.614 C2.12925,4.33775 2.347875,4.11425 2.624125,4.11425 L2.633875,4.11425 C2.910125,4.11425 3.133625,4.33775 3.133625,4.614 C3.133625,4.89025 2.910125,5.11375 2.633875,5.11375 Z" id="Path"></path>
                    <path d="M5.1035,10.1115 C2.347875,10.1115 0.10575,7.869375 0.10575,5.113875 C0.10575,2.358375 2.348,0.11625 5.1035,0.11625 C7.859,0.11625 10.101125,2.358375 10.101125,5.113875 C10.101125,7.869375 7.859125,10.1115 5.1035,10.1115 Z M5.1035,1.115625 C2.898375,1.115625 1.105375,2.90875 1.105375,5.11375 C1.105375,7.31875 2.8985,9.111875 5.1035,9.111875 C7.307625,9.111875 9.101625,7.31875 9.101625,5.11375 C9.101625,2.90875 7.307625,1.115625 5.1035,1.115625 Z" id="Shape" fill-rule="nonzero"></path>
                    <path d="M6.60275,5.11375 C5.776,5.11375 5.1035,4.441125 5.1035,3.6145 C5.1035,2.78775 5.776,2.115125 6.60275,2.115125 C7.4295,2.115125 8.102,2.78775 8.102,3.6145 C8.102,4.441125 7.429625,5.11375 6.60275,5.11375 Z M6.60275,3.11475 C6.3265,3.11475 6.103,3.339125 6.103,3.6145 C6.103,3.889625 6.3265,4.11425 6.60275,4.11425 C6.878,4.11425 7.1025,3.889625 7.1025,3.6145 C7.1025,3.339125 6.878,3.11475 6.60275,3.11475 Z" id="Shape" fill-rule="nonzero"></path>
                </g>
                <g id="Group" transform="translate(54.875000, 8.000000)">
                    <path d="M1.599125,5.007875 C1.322875,5.007875 1.099375,4.784375 1.099375,4.508125 L1.099375,0.51 C1.099375,0.23375 1.322875,0.01025 1.599125,0.01025 C1.875375,0.01025 2.098875,0.23375 2.098875,0.51 L2.098875,4.508125 C2.098875,4.784375 1.875375,5.007875 1.599125,5.007875 Z" id="Path"></path>
                    <path d="M2.598625,3.008875 L0.599625,3.008875 C0.323375,3.008875 0.099875,2.785375 0.099875,2.509125 C0.099875,2.232875 0.323375,2.00925 0.599625,2.00925 L2.598625,2.00925 C2.875,2.00925 3.0985,2.232875 3.0985,2.509125 C3.0985,2.785375 2.875,3.008875 2.598625,3.008875 Z" id="Path"></path>
                </g>
                <g id="Group" transform="translate(57.875000, 34.875000)">
                    <path d="M1.59775,5.120625 C1.3215,5.120625 1.098,4.897125 1.098,4.620875 L1.098,0.62275 C1.098,0.3465 1.3215,0.123 1.59775,0.123 C1.874,0.123 2.0975,0.3465 2.0975,0.62275 L2.0975,4.620875 C2.0975,4.897125 1.874,5.120625 1.59775,5.120625 Z" id="Path"></path>
                    <path d="M2.59725,3.121625 L0.59825,3.121625 C0.322,3.121625 0.0985,2.898 0.0985,2.621875 C0.0985,2.3455 0.322,2.122125 0.59825,2.122125 L2.59725,2.122125 C2.8735,2.122125 3.097125,2.3455 3.097125,2.621875 C3.097125,2.898 2.8735,3.121625 2.59725,3.121625 Z" id="Path"></path>
                </g>
                <g id="Group" transform="translate(6.875000, 54.875000)">
                    <path d="M1.621125,5.1115 C1.344875,5.1115 1.121375,4.888 1.121375,4.61175 L1.121375,0.613625 C1.121375,0.337375 1.344875,0.113875 1.621125,0.113875 C1.897375,0.113875 2.120875,0.337375 2.120875,0.613625 L2.120875,4.61175 C2.120875,4.888 1.897375,5.1115 1.621125,5.1115 Z" id="Path"></path>
                    <path d="M2.620625,3.112375 L0.621625,3.112375 C0.345375,3.112375 0.121875,2.888875 0.121875,2.6125 C0.121875,2.336375 0.345375,2.11275 0.621625,2.11275 L2.62075,2.11275 C2.897,2.11275 3.1205,2.336375 3.1205,2.6125 C3.120375,2.888875 2.896875,3.112375 2.620625,3.112375 Z" id="Path"></path>
                </g>
                <g id="Group" transform="translate(0.000000, 15.000000)">
                    <path d="M1.499375,5.00475 C1.223125,5.00475 0.9995,4.78125 0.9995,4.505 L0.9995,0.506875 C0.9995,0.230625 1.223125,0.007125 1.499375,0.007125 C1.7755,0.007125 1.999125,0.230625 1.999125,0.506875 L1.999125,4.505 C1.999125,4.78125 1.7755,5.00475 1.499375,5.00475 Z" id="Path"></path>
                    <path d="M2.498875,3.00575 L0.49975,3.00575 C0.2235,3.00575 0,2.782125 0,2.505875 C0,2.229625 0.2235,2.006125 0.49975,2.006125 L2.498875,2.006125 C2.775,2.006125 2.998625,2.229625 2.998625,2.505875 C2.998625,2.782125 2.775125,3.00575 2.498875,3.00575 Z" id="Path"></path>
                </g>
                <g id="Group" transform="translate(5.875000, 2.000000)">
                    <path d="M3.620625,7.00975 C2.6865,7.00975 1.808,6.64575 1.147125,5.984875 C0.48625,5.324125 0.122125,4.445625 0.122125,3.511375 C0.122125,2.57625 0.48625,1.69775 1.147125,1.037875 C2.46875,-0.28375 4.772375,-0.28375 6.094,1.037875 C6.754875,1.697625 7.118875,2.57625 7.118875,3.511375 C7.118875,4.4455 6.754875,5.324 6.094,5.984875 C5.43325,6.64575 4.55475,7.00975 3.620625,7.00975 Z M3.620625,1.012625 C2.953,1.012625 2.32525,1.27225 1.853875,1.744625 C1.3815,2.216 1.121875,2.84375 1.121875,3.511375 C1.121875,4.178 1.3815,4.80575 1.853875,5.278125 C2.79775,6.223 4.4435,6.223 5.3875,5.278125 C5.858875,4.80575 6.1195,4.178 6.1195,3.511375 C6.1195,2.84375 5.858875,2.216 5.3875,1.744625 C4.915,1.27225 4.287375,1.012625 3.620625,1.012625 Z" id="Shape" fill-rule="nonzero"></path>
                    <path d="M1.037875,6.922 C0.805625,6.922 0.601625,6.852625 0.4405,6.691625 C0.24525,6.496375 0.24525,6.180125 0.4405,5.984875 C0.613375,5.811125 0.88275,5.792625 1.077,5.926375 C1.39725,5.907875 2.533375,5.304625 3.974125,3.86475 C5.413875,2.425 6.017,1.287875 6.0355,0.966625 C5.900875,0.772375 5.920375,0.503 6.094125,0.33025 C6.289375,0.135 6.605625,0.135 6.800875,0.33025 C7.81025,1.339625 5.21175,4.0405 4.68075,4.5715 C4.234625,5.017625 2.257,6.922 1.037875,6.922 Z" id="Path"></path>
                </g>
                <g id="Group" transform="translate(12.375000, 10.500000)">
                    <g id="Path">
                        <path d="M3.117,10.5785 C3.033,10.5785 2.947125,10.557 2.869125,10.512125 C2.629,10.3755 2.546,10.07 2.683625,9.830875 C6.15175,3.772125 12.638,0.00925 19.6105,0.00925 C23.68,0.00925 27.5785,1.25175 30.886625,3.60225 C31.112125,3.761375 31.164875,4.07375 31.004625,4.29925 C30.844625,4.52275 30.53225,4.575375 30.30775,4.416375 C27.1705,2.187 23.471125,1.00875 19.6105,1.00875 C12.995375,1.00875 6.842,4.579375 3.551375,10.32675 C3.458625,10.48875 3.289625,10.5785 3.117,10.5785 Z"></path>
                        <path d="M12.11375,37.452875 C12.048375,37.452875 11.981,37.440125 11.916625,37.411875 C4.75,34.330375 0.11925,27.299375 0.11925,19.50025 C0.11925,17.57925 0.398375,15.680625 0.948,13.85825 C1.027125,13.59475 1.30625,13.44525 1.57075,13.524375 C1.83525,13.6045 1.984625,13.882625 1.9045,14.147125 C1.38325,15.87575 1.11875,17.67675 1.11875,19.500125 C1.11875,26.9 5.51225,33.57075 12.310875,36.49425 C12.564625,36.602625 12.68175,36.896375 12.5735,37.15025 C12.491625,37.33975 12.307125,37.452875 12.11375,37.452875 Z"></path>
                        <path d="M19.610375,38.99125 C18.0545,38.99125 16.504375,38.80675 15.003125,38.44275 C14.73475,38.377375 14.57075,38.106875 14.63525,37.8385 C14.700625,37.570125 14.967125,37.411875 15.239375,37.4705 C16.6625,37.816125 18.1335,37.99175 19.610375,37.99175 C29.806875,37.99175 38.102,29.696875 38.102,19.50025 C38.102,14.59625 36.2005,9.97525 32.747,6.488625 C32.55275,6.292375 32.55475,5.976125 32.749875,5.781875 C32.947,5.586625 33.262375,5.590625 33.4575,5.78575 C37.096375,9.46075 39.101375,14.331625 39.101375,19.50025 C39.101375,30.24725 30.357375,38.99125 19.610375,38.99125 Z"></path>
                        <path d="M24.994625,34.13025 C24.889125,34.13025 24.780875,34.125375 24.6715,34.115625 C23.628,34.02675 22.900875,33.18625 22.511375,31.61775 C22.253625,30.57725 22.171625,29.518125 22.092625,28.49425 C22.00575,27.37075 21.92375,26.310625 21.630875,25.257375 C21.461125,24.6385 21.18875,24.197375 20.798375,23.907375 C20.57675,23.743375 20.53,23.430125 20.694875,23.2085 C20.859875,22.98775 21.172125,22.941 21.393875,23.105 C21.970625,23.5335 22.364125,24.150375 22.594375,24.990875 C22.912625,26.135875 23.002375,27.2955 23.08925,28.417 C23.168375,29.44575 23.243375,30.418125 23.48175,31.377625 C23.756875,32.4845 24.1855,33.07125 24.7565,33.119875 C26.141625,33.237125 27.088375,32.287375 28.01375,31.214625 C28.2715,30.915 28.550625,30.628 28.830875,30.341 C29.395125,29.762125 29.928,29.2155 30.287125,28.5625 C30.697,27.81275 30.85325,26.98025 31.01825,26.09875 C31.198875,25.13525 31.385375,24.139625 31.925125,23.2105 L32.130125,22.858125 C33.755375,20.067375 34.243375,18.898 34.3205,18.4295 C31.6655,18.57 30.1125,17.545125 29.5405,16.515375 C29.217375,15.934625 29.19975,15.348875 29.492625,14.94875 C30.087125,14.1395 31.332625,14.473375 32.53625,14.796375 C33.277125,14.9955 34.29225,15.266875 34.627125,15.043375 C34.658375,15.022875 34.73925,14.96825 34.769625,14.736 C34.872125,13.962875 36.6985,13.07275 37.552625,12.962375 C37.825,12.921375 38.07675,13.1205 38.112875,13.393875 C38.147875,13.668125 37.954625,13.918 37.680375,13.954125 C36.9845,14.043875 35.881375,14.70775 35.737,14.946875 C35.702875,15.31575 35.5085,15.6555 35.1845,15.874125 C34.472875,16.3505 33.406875,16.0655 32.2775,15.762 C31.608,15.58325 30.48925,15.28175 30.298,15.541375 C30.2745,15.578375 30.261875,15.7785 30.440625,16.07525 C30.900375,16.837625 32.1985,17.598 34.467,17.418375 C34.78425,17.394 35.044875,17.519875 35.19625,17.762 C35.612,18.424875 35.076125,19.7855 32.994125,23.361 L32.790125,23.7115 C32.336125,24.493375 32.173125,25.363125 32.0005,26.2835 C31.828625,27.203 31.651,28.15375 31.164,29.043 C30.739375,29.816125 30.13325,30.437875 29.546625,31.039125 C29.281125,31.3115 29.015625,31.582875 28.771625,31.866875 C27.8195,32.969625 26.671625,34.13025 24.994625,34.13025 Z"></path>
                        <path d="M17.1115,23.363625 C17.106625,23.363625 17.10175,23.363625 17.096875,23.363625 C14.378375,23.2885 12.62525,21.515875 12.521875,18.737875 C12.498375,18.093625 12.530625,17.47675 12.618375,16.90275 C12.659375,16.629375 12.913125,16.441 13.1875,16.484 C13.459875,16.525 13.64825,16.78075 13.60625,17.053125 C13.528125,17.565625 13.499875,18.12 13.520375,18.700875 C13.60425,20.934125 14.951375,22.304625 17.12425,22.36425 C17.400375,22.372 17.618125,22.602375 17.610375,22.877625 C17.6025,23.148875 17.380875,23.363625 17.1115,23.363625 Z"></path>
                        <path d="M15.1115,13.784 C14.967,13.784 14.8235,13.7215 14.725,13.6015 C14.55025,13.38775 14.5815,13.0725 14.79425,12.89775 C16.3765,11.602375 18.222375,11.42475 18.67925,11.505875 C21.045375,11.91675 22.376875,12.233 22.863875,12.497625 C23.005375,12.576625 23.144,12.63825 23.282625,12.688875 C23.54225,12.784625 23.675125,13.071625 23.579375,13.33125 C23.48475,13.590875 23.19675,13.722625 22.938125,13.628 C22.752625,13.559625 22.567125,13.476625 22.38275,13.37425 C22.17275,13.26 21.386125,12.990625 18.503625,12.489875 C18.328,12.4655 16.777,12.565125 15.428,13.671 C15.335,13.747 15.22275,13.784 15.1115,13.784 Z"></path>
                        <path d="M25.106875,11.132 C25.052125,11.132 24.9975,11.12325 24.942875,11.104625 C23.196625,10.4995 20.55025,9.950875 19.34975,9.865 C19.171125,9.8425 18.88225,9.905 18.59625,9.95675 C17.86325,10.0875 16.9505,10.2515 16.4185,9.67075 C15.9275,9.124125 16.015375,8.2955 16.65075,7.448125 C18.26725,5.32025 20.640125,4.380125 22.935,3.4715 C23.72175,3.160125 24.534875,2.838 25.29325,2.474875 C25.386875,2.33625 25.586125,1.965375 25.71,1.54075 C25.787125,1.27625 26.064375,1.126875 26.329875,1.2 C26.594375,1.277125 26.746625,1.555375 26.669625,1.819875 C26.556375,2.210375 26.189375,3.12975 25.838,3.321125 C24.9995,3.72925 24.1375,4.070875 23.303,4.40075 C21.0355,5.298875 18.894,6.147125 17.44825,8.0505 C17.1915,8.393125 17.008125,8.8315 17.158375,8.99925 C17.315625,9.170125 18.006625,9.047125 18.4195,8.972875 C18.783625,8.908375 19.131125,8.844 19.422,8.8675 C20.683125,8.95825 23.453375,9.53025 25.269875,10.159875 C25.5315,10.250625 25.669,10.534625 25.579375,10.79625 C25.507125,11.002125 25.313875,11.132 25.106875,11.132 Z"></path>
                        <path d="M6.183875,33.2185 L6.009125,32.75 L5.933,32.256125 L6.009125,32.751 L5.562125,32.532375 C5.773875,32.00425 6.84175,27.411625 5.141375,23.8585 C4.22875,21.951125 2.65725,20.646125 0.472625,19.9785 C0.209125,19.8975 0.05975,19.61825 0.14075,19.35375 C0.22175,19.09025 0.501,18.943875 0.7645,19.021875 C5.80125,20.56125 6.9775,24.78975 7.078,28.066625 C7.122,29.48 6.82025,32.980375 6.183875,33.2185 Z"></path>
                    </g>
                    <path d="M16.112,32.49425 C14.73375,32.49425 13.613125,31.373625 13.613125,29.995375 C13.613125,28.61725 14.733625,27.496625 16.112,27.496625 C17.489375,27.496625 18.610875,28.61725 18.610875,29.995375 C18.610875,31.373625 17.48925,32.49425 16.112,32.49425 Z M16.112,28.496125 C15.28525,28.496125 14.61275,29.16875 14.61275,29.995375 C14.61275,30.822125 15.28525,31.49475 16.112,31.49475 C16.93875,31.49475 17.611375,30.822125 17.611375,29.995375 C17.61125,29.16875 16.93875,28.496125 16.112,28.496125 Z" id="Shape" fill-rule="nonzero"></path>
                    <path d="M7.116125,15.502125 C5.737875,15.502125 4.61725,14.3815 4.61725,13.00325 C4.61725,11.625 5.737875,10.504375 7.116125,10.504375 C8.4935,10.504375 9.615,11.624875 9.615,13.00325 C9.615,14.381625 8.493375,15.502125 7.116125,15.502125 Z M7.116125,11.503875 C6.289375,11.503875 5.61675,12.176375 5.61675,13.003125 C5.61675,13.829875 6.28925,14.5025 7.116125,14.5025 C7.943,14.5025 8.615375,13.83 8.615375,13.003125 C8.615375,12.17625 7.942875,11.503875 7.116125,11.503875 Z" id="Shape" fill-rule="nonzero"></path>
                    <path d="M22.10925,20.49975 C20.731,20.49975 19.610375,19.379125 19.610375,18.000875 C19.610375,16.622625 20.731,15.502125 22.10925,15.502125 C23.486625,15.502125 24.608,16.622625 24.608,18.000875 C24.608,19.379125 23.486625,20.49975 22.10925,20.49975 Z M22.10925,16.501625 C21.2825,16.501625 20.609875,17.174125 20.609875,18.000875 C20.609875,18.827625 21.2825,19.50025 22.10925,19.50025 C22.936,19.50025 23.6085,18.827625 23.6085,18.000875 C23.6085,17.174125 22.936,16.501625 22.10925,16.501625 Z" id="Shape" fill-rule="nonzero"></path>
                    <path d="M13.113375,39.491125 C13.07625,39.491125 13.03825,39.48725 13.001125,39.478375 C12.73175,39.415875 12.56375,39.1475 12.62625,38.879 C13.184625,36.45725 13.900125,34.013 14.75025,31.616625 C14.842,31.356 15.127125,31.2165 15.388625,31.313 C15.64925,31.40475 15.784875,31.69075 15.69225,31.9505 C14.85475,34.31175 14.15,36.71875 13.600375,39.1035 C13.54675,39.334875 13.34075,39.491125 13.113375,39.491125 Z" id="Path"></path>
                    <path d="M16.6625,28.57425 C16.598125,28.57425 16.53175,28.5615 16.46825,28.53525 C16.2145,28.427875 16.095375,28.134 16.20275,27.88025 C17.420875,24.993875 18.861625,22.124125 20.485,19.351 C20.6245,19.112875 20.930125,19.03375 21.16825,19.172375 C21.406375,19.311875 21.4865,19.618375 21.348,19.856625 C19.74625,22.59175 18.324875,25.4225 17.123375,28.268875 C17.04225,28.46 16.85775,28.57425 16.6625,28.57425 Z" id="Path"></path>
                    <path d="M23.018,16.72125 C22.924375,16.72125 22.828625,16.694875 22.74375,16.63925 C22.513375,16.487 22.45,16.1775 22.60125,15.947125 C27.728875,8.15375 32.722625,3.678375 32.772375,3.633375 C32.977375,3.450875 33.293625,3.4685 33.477125,3.675375 C33.66075,3.88125 33.642125,4.197625 33.436125,4.381125 C33.38725,4.424125 28.48625,8.820625 23.435875,16.49575 C23.340125,16.642125 23.181,16.72125 23.018,16.72125 Z" id="Path"></path>
                    <path d="M5.142375,13.18275 C5.11025,13.18275 5.077,13.179875 5.043875,13.173 C3.683125,12.900625 2.339,12.674125 1.051625,12.4985 C0.77825,12.461375 0.586,12.2095 0.623,11.93625 C0.661125,11.662875 0.912875,11.462875 1.18625,11.50875 C2.49425,11.686375 3.858875,11.91675 5.240125,12.193 C5.5105,12.24675 5.686125,12.51025 5.6325,12.780625 C5.584625,13.01875 5.375625,13.18275 5.142375,13.18275 Z" id="Path"></path>
                    <path d="M20.27225,17.732375 C20.21075,17.732375 20.14725,17.720625 20.08675,17.69625 C18.04575,16.87925 13.879625,15.319375 8.91125,14.055375 C8.64375,13.987 8.48175,13.715625 8.550125,13.44825 C8.6175,13.179875 8.88875,13.016875 9.15825,13.087125 C14.181375,14.36575 18.394375,15.94225 20.45875,16.769 C20.7145,16.8715 20.8395,17.162375 20.737,17.418125 C20.65775,17.613375 20.470375,17.732375 20.27225,17.732375 Z" id="Path"></path>
                </g>
            </g>
        </g>
    </g>
</svg>
