<?xml version="1.0" encoding="UTF-8"?>
<svg width="64px" height="64px" viewBox="0 0 64 64" version="1.1" xmlns="http://www.w3.org/2000/svg" xmlns:xlink="http://www.w3.org/1999/xlink">
    <!-- Generator: Sketch 52.2 (67145) - http://www.bohemiancoding.com/sketch -->
    <title>Icon/Large/Skill-template/Integration</title>
    <desc>Created with Sketch.</desc>
    <g id="Icon/Large/Skill-template/Integration" stroke="none" stroke-width="1" fill="none" fill-rule="evenodd">
        <g id="Group-4">
            <rect id="Rectangle-5" x="0" y="0" width="64" height="64"></rect>
            <g id="Group-3" transform="translate(0.000000, 11.000000)" fill-rule="nonzero">
                <rect id="Rectangle-path" fill="#94C1FF" x="0.498900585" y="2.50425" width="1.99610136" height="45"></rect>
                <rect id="Rectangle-path" fill="#FFFFFF" x="2.49450292" y="2.50425" width="49.8901832" height="44.991"></rect>
                <path d="M52.3846862,2.50425 L2.49450292,2.50425 L0.498900585,2.50425 L0.498900585,1.5045 C0.498900585,0.954875 0.948148148,0.50475 1.49670175,0.50475 L51.386885,0.50475 C51.9354386,0.50475 52.3846862,0.954875 52.3846862,1.5045 L52.3846862,2.50425 Z" id="Shape" fill="#D7E9FF"></path>
                <rect id="Rectangle-path" fill="#FFFFFF" x="2.49450292" y="2.50516892" width="1.99560234" height="44.9890541"></rect>
                <path d="M2.49450292,0.50475 L1.49670175,0.50475 C0.948148148,0.50475 0.498900585,0.954875 0.498900585,1.5045 L0.498900585,2.50425 L1.49670175,2.50425 L1.49670175,1.5045 C1.49670175,0.954875 1.94594932,0.50475 2.49450292,0.50475 Z" id="Shape" fill="#FFFFFF"></path>
                <path d="M50.3890838,0.50475 L51.386885,0.50475 C51.9354386,0.50475 52.3846862,0.954875 52.3846862,1.5045 L52.3846862,2.50425 L51.386885,2.50425 L51.386885,1.5045 C51.386885,0.954875 50.9377622,0.50475 50.3890838,0.50475 Z" id="Shape" fill="#94C1FF"></path>
                <path d="M52.3846862,25.5045 C52.1089747,25.5045 51.8857856,25.1210504 51.8857856,24.6473648 L51.8857856,2.3616352 C51.8857856,1.88794958 52.1089747,1.5045 52.3846862,1.5045 C52.6605224,1.5045 52.8835867,1.88794958 52.8835867,2.3616352 L52.8835867,24.6473648 C52.8837115,25.1210504 52.6605224,25.5045 52.3846862,25.5045 Z" id="Shape" fill="#116FFF"></path>
                <path d="M2.52419493,2.004375 C2.2488577,2.004375 2.02042885,1.780875 2.02042885,1.5045 C2.02042885,1.22825 2.23875244,1.004625 2.51446394,1.004625 L2.52419493,1.004625 C2.79990643,1.004625 3.02309552,1.22825 3.02309552,1.5045 C3.02309552,1.780875 2.80003119,2.004375 2.52419493,2.004375 Z" id="Shape" fill="#116FFF"></path>
                <path d="M4.51979727,2.004375 C4.24446004,2.004375 4.01603119,1.780875 4.01603119,1.5045 C4.01603119,1.22825 4.23435478,1.004625 4.51006628,1.004625 L4.51979727,1.004625 C4.79550877,1.004625 5.01869786,1.22825 5.01869786,1.5045 C5.01882261,1.780875 4.79550877,2.004375 4.51979727,2.004375 Z" id="Shape" fill="#116FFF"></path>
                <path d="M6.51552437,2.004375 C6.24018713,2.004375 6.01175828,1.780875 6.01175828,1.5045 C6.01175828,1.22825 6.23008187,1.004625 6.50579337,1.004625 L6.51552437,1.004625 C6.79123587,1.004625 7.01442495,1.22825 7.01442495,1.5045 C7.01442495,1.780875 6.79123587,2.004375 6.51552437,2.004375 Z" id="Shape" fill="#116FFF"></path>
                <path d="M52.3846862,3.004125 L0.498900585,3.004125 C0.223189084,3.004125 0,2.780625 0,2.50425 L0,1.5045 C0,0.677625 0.671438596,0.004875 1.49670175,0.004875 L51.386885,0.004875 C52.2122729,0.004875 52.8835867,0.677625 52.8835867,1.5045 L52.8835867,2.50425 C52.8837115,2.780625 52.6605224,3.004125 52.3846862,3.004125 Z M0.99780117,2.004375 L51.8857856,2.004375 L51.8857856,1.5045 C51.8857856,1.233125 51.6578558,1.004625 51.386885,1.004625 L1.49670175,1.004625 C1.22136452,1.004625 0.99780117,1.22925 0.99780117,1.5045 L0.99780117,2.004375 Z" id="Shape" fill="#116FFF"></path>
                <path d="M0.498900585,47.9943767 C0.223189084,47.9943767 0,47.7236657 0,47.3892491 L0,2.60950262 C0,2.27508601 0.223189084,2.004375 0.498900585,2.004375 C0.774612086,2.004375 0.99780117,2.27508601 0.99780117,2.60950262 L0.99780117,47.3892491 C0.99780117,47.7236657 0.774612086,47.9943767 0.498900585,47.9943767 Z" id="Shape" fill="#116FFF"></path>
                <path d="M37.5033677,47.995125 L0.38663166,47.995125 C0.172964251,47.995125 0,47.7715 0,47.49525 C0,47.218875 0.172964251,46.995375 0.38663166,46.995375 L37.5033677,46.995375 C37.7171318,46.995375 37.8899994,47.218875 37.8899994,47.49525 C37.8899994,47.7715 37.7171318,47.995125 37.5033677,47.995125 Z" id="Shape" fill="#116FFF"></path>
                <path d="M2.49450292,47.9943767 C2.21879142,47.9943767 1.99560234,47.7236657 1.99560234,47.3892491 L1.99560234,2.60950262 C1.99560234,2.27508601 2.21879142,2.004375 2.49450292,2.004375 C2.77021442,2.004375 2.99340351,2.27508601 2.99340351,2.60950262 L2.99340351,47.3892491 C2.99340351,47.7236657 2.77033918,47.9943767 2.49450292,47.9943767 Z" id="Shape" fill="#116FFF"></path>
                <path d="M1.49670175,7.003125 L0.498900585,7.003125 C0.223189084,7.003125 0,6.779625 0,6.50325 C0,6.227 0.223189084,6.003375 0.498900585,6.003375 L1.49670175,6.003375 C1.77241326,6.003375 1.99560234,6.227 1.99560234,6.50325 C1.99560234,6.779625 1.77253801,7.003125 1.49670175,7.003125 Z" id="Shape" fill="#116FFF"></path>
                <path d="M1.49670175,10.0025 L0.498900585,10.0025 C0.223189084,10.0025 0,9.779 0,9.502625 C0,9.226375 0.223189084,9.00275 0.498900585,9.00275 L1.49670175,9.00275 C1.77241326,9.00275 1.99560234,9.226375 1.99560234,9.502625 C1.99560234,9.778875 1.77253801,10.0025 1.49670175,10.0025 Z" id="Shape" fill="#116FFF"></path>
                <path d="M1.49670175,13.00175 L0.498900585,13.00175 C0.223189084,13.00175 0,12.77825 0,12.501875 C0,12.225625 0.223189084,12.002 0.498900585,12.002 L1.49670175,12.002 C1.77241326,12.002 1.99560234,12.225625 1.99560234,12.501875 C1.99560234,12.77825 1.77253801,13.00175 1.49670175,13.00175 Z" id="Shape" fill="#116FFF"></path>
                <path d="M1.49670175,16.001 L0.498900585,16.001 C0.223189084,16.001 0,15.777375 0,15.501125 C0,15.224875 0.223189084,15.00125 0.498900585,15.00125 L1.49670175,15.00125 C1.77241326,15.00125 1.99560234,15.224875 1.99560234,15.501125 C1.99560234,15.777375 1.77253801,16.001 1.49670175,16.001 Z" id="Shape" fill="#116FFF"></path>
                <path d="M1.49670175,19.00025 L0.498900585,19.00025 C0.223189084,19.00025 0,18.776625 0,18.500375 C0,18.224125 0.223189084,18.0005 0.498900585,18.0005 L1.49670175,18.0005 C1.77241326,18.0005 1.99560234,18.224125 1.99560234,18.500375 C1.99560234,18.776625 1.77253801,19.00025 1.49670175,19.00025 Z" id="Shape" fill="#116FFF"></path>
                <path d="M1.49670175,21.9995 L0.498900585,21.9995 C0.223189084,21.9995 0,21.775875 0,21.499625 C0,21.223375 0.223189084,20.99975 0.498900585,20.99975 L1.49670175,20.99975 C1.77241326,20.99975 1.99560234,21.223375 1.99560234,21.499625 C1.99560234,21.775875 1.77253801,21.9995 1.49670175,21.9995 Z" id="Shape" fill="#116FFF"></path>
                <path d="M1.49670175,24.99875 L0.498900585,24.99875 C0.223189084,24.99875 0,24.775125 0,24.498875 C0,24.222625 0.223189084,23.999 0.498900585,23.999 L1.49670175,23.999 C1.77241326,23.999 1.99560234,24.222625 1.99560234,24.498875 C1.99560234,24.775125 1.77253801,24.99875 1.49670175,24.99875 Z" id="Shape" fill="#116FFF"></path>
                <path d="M1.49670175,27.998 L0.498900585,27.998 C0.223189084,27.998 0,27.774375 0,27.498125 C0,27.221875 0.223189084,26.99825 0.498900585,26.99825 L1.49670175,26.99825 C1.77241326,26.99825 1.99560234,27.221875 1.99560234,27.498125 C1.99560234,27.774375 1.77253801,27.998 1.49670175,27.998 Z" id="Shape" fill="#116FFF"></path>
                <path d="M1.49670175,30.997375 L0.498900585,30.997375 C0.223189084,30.997375 0,30.77375 0,30.4975 C0,30.22125 0.223189084,29.997625 0.498900585,29.997625 L1.49670175,29.997625 C1.77241326,29.997625 1.99560234,30.22125 1.99560234,30.4975 C1.99560234,30.77375 1.77253801,30.997375 1.49670175,30.997375 Z" id="Shape" fill="#116FFF"></path>
                <path d="M1.49670175,33.996625 L0.498900585,33.996625 C0.223189084,33.996625 0,33.773 0,33.49675 C0,33.2205 0.223189084,32.996875 0.498900585,32.996875 L1.49670175,32.996875 C1.77241326,32.996875 1.99560234,33.2205 1.99560234,33.49675 C1.99560234,33.773 1.77253801,33.996625 1.49670175,33.996625 Z" id="Shape" fill="#116FFF"></path>
                <path d="M1.49670175,36.99975 L0.498900585,36.99975 C0.223189084,36.99975 0,36.776125 0,36.499875 C0,36.223625 0.223189084,36 0.498900585,36 L1.49670175,36 C1.77241326,36 1.99560234,36.223625 1.99560234,36.499875 C1.99560234,36.776125 1.77253801,36.99975 1.49670175,36.99975 Z" id="Shape" fill="#116FFF"></path>
                <path d="M1.49670175,39.99975 L0.498900585,39.99975 C0.223189084,39.99975 0,39.776125 0,39.499875 C0,39.223625 0.223189084,39 0.498900585,39 L1.49670175,39 C1.77241326,39 1.99560234,39.223625 1.99560234,39.499875 C1.99560234,39.776125 1.77253801,39.99975 1.49670175,39.99975 Z" id="Shape-Copy" fill="#116FFF"></path>
                <path d="M1.49670175,42.99975 L0.498900585,42.99975 C0.223189084,42.99975 0,42.776125 0,42.499875 C0,42.223625 0.223189084,42 0.498900585,42 L1.49670175,42 C1.77241326,42 1.99560234,42.223625 1.99560234,42.499875 C1.99560234,42.776125 1.77253801,42.99975 1.49670175,42.99975 Z" id="Shape-Copy-2" fill="#116FFF"></path>
                <path d="M9.47911111,7.003125 L5.48790643,7.003125 C5.21219493,7.003125 4.98900585,6.779625 4.98900585,6.50325 C4.98900585,6.227 5.21219493,6.003375 5.48790643,6.003375 L9.47911111,6.003375 C9.75482261,6.003375 9.9780117,6.227 9.9780117,6.50325 C9.9780117,6.779625 9.75482261,7.003125 9.47911111,7.003125 Z" id="Shape" fill="#116FFF"></path>
                <path d="M30.4330604,10.0025 L13.4704405,10.0025 C13.194729,10.0025 12.97154,9.779 12.97154,9.502625 C12.97154,9.226375 13.194729,9.00275 13.4704405,9.00275 L30.4330604,9.00275 C30.7087719,9.00275 30.931961,9.226375 30.931961,9.502625 C30.931961,9.778875 30.7087719,10.0025 30.4330604,10.0025 Z" id="Shape" fill="#116FFF"></path>
                <path d="M11.4879064,9.99975 L6.49890058,9.99975 C6.22318908,9.99975 6,9.77625 6,9.499875 C6,9.223625 6.22318908,9 6.49890058,9 L11.4879064,9 C11.7636179,9 11.986807,9.223625 11.986807,9.499875 C11.986807,9.776125 11.7636179,9.99975 11.4879064,9.99975 Z" id="Shape" fill="#116FFF"></path>
                <path d="M38.4879064,9.99975 L33.4989006,9.99975 C33.2231891,9.99975 33,9.77625 33,9.499875 C33,9.223625 33.2231891,9 33.4989006,9 L38.4879064,9 C38.7636179,9 38.986807,9.223625 38.986807,9.499875 C38.986807,9.776125 38.7636179,9.99975 38.4879064,9.99975 Z" id="Shape-Copy-9" fill="#116FFF"></path>
                <path d="M29.3114038,13.00175 L25.568904,13.00175 C25.22404,13.00175 24.945154,12.77825 24.945154,12.501875 C24.945154,12.225625 25.22404,12.002 25.568904,12.002 L29.3114038,12.002 C29.6561118,12.002 29.9351538,12.225625 29.9351538,12.501875 C29.9351538,12.77825 29.6561118,13.00175 29.3114038,13.00175 Z" id="Shape" fill="#116FFF"></path>
                <path d="M23.4484522,13.00175 L7.48350877,13.00175 C7.20779727,13.00175 6.98460819,12.77825 6.98460819,12.501875 C6.98460819,12.225625 7.20779727,12.002 7.48350877,12.002 L23.4484522,12.002 C23.7241637,12.002 23.9473528,12.225625 23.9473528,12.501875 C23.9473528,12.77825 23.7241637,13.00175 23.4484522,13.00175 Z" id="Shape" fill="#116FFF"></path>
                <path d="M10.3578012,18.99975 L7.36439766,18.99975 C7.08868616,18.99975 6.86549708,18.776125 6.86549708,18.499875 C6.86549708,18.223625 7.08868616,18 7.36439766,18 L10.3578012,18 C10.6335127,18 10.8567018,18.223625 10.8567018,18.499875 C10.8568265,18.776125 10.6335127,18.99975 10.3578012,18.99975 Z" id="Shape" fill="#116FFF"></path>
                <path d="M10.3578012,36.99975 L7.36439766,36.99975 C7.08868616,36.99975 6.86549708,36.776125 6.86549708,36.499875 C6.86549708,36.223625 7.08868616,36 7.36439766,36 L10.3578012,36 C10.6335127,36 10.8567018,36.223625 10.8567018,36.499875 C10.8568265,36.776125 10.6335127,36.99975 10.3578012,36.99975 Z" id="Shape-Copy-7" fill="#116FFF"></path>
                <path d="M27.1754698,18.99975 L12.3643977,18.99975 C12.0886862,18.99975 11.8654971,18.776125 11.8654971,18.499875 C11.8654971,18.223625 12.0886862,18 12.3643977,18 L27.1755945,18 C27.451306,18 27.6744951,18.223625 27.6744951,18.499875 C27.6743704,18.776125 27.451306,18.99975 27.1754698,18.99975 Z" id="Shape" fill="#116FFF"></path>
                <path d="M27.1754698,36.99975 L12.3643977,36.99975 C12.0886862,36.99975 11.8654971,36.776125 11.8654971,36.499875 C11.8654971,36.223625 12.0886862,36 12.3643977,36 L27.1755945,36 C27.451306,36 27.6744951,36.223625 27.6744951,36.499875 C27.6743704,36.776125 27.451306,36.99975 27.1754698,36.99975 Z" id="Shape-Copy-8" fill="#116FFF"></path>
                <path d="M10.4769123,39.997375 L7.48350877,39.997375 C7.20779727,39.997375 6.98460819,39.77375 6.98460819,39.4975 C6.98460819,39.22125 7.20779727,38.997625 7.48350877,38.997625 L10.4769123,38.997625 C10.7526238,38.997625 10.9758129,39.22125 10.9758129,39.4975 C10.9758129,39.77375 10.7526238,39.997375 10.4769123,39.997375 Z" id="Shape" fill="#116FFF"></path>
                <path d="M31.29989,39.997375 L12.6474191,39.997375 C12.2751177,39.997375 11.9737388,39.77375 11.9737388,39.4975 C11.9737388,39.22125 12.2751177,38.997625 12.6474191,38.997625 L31.3000585,38.997625 C31.6723599,38.997625 31.9737388,39.22125 31.9737388,39.4975 C31.9737388,39.77375 31.6723599,39.997375 31.29989,39.997375 Z" id="Shape" fill="#116FFF"></path>
                <path d="M21.4528499,16.001 L8.48130994,16.001 C8.20559844,16.001 7.98240936,15.777375 7.98240936,15.501125 C7.98240936,15.224875 8.20559844,15.00125 8.48130994,15.00125 L21.4528499,15.00125 C21.7285614,15.00125 21.9517505,15.224875 21.9517505,15.501125 C21.9517505,15.777375 21.7285614,16.001 21.4528499,16.001 Z" id="Shape" fill="#116FFF"></path>
                <path d="M30.3424094,21.99975 L20.3643977,21.99975 C20.0885614,21.99975 19.8654971,21.776125 19.8654971,21.499875 C19.8654971,21.223625 20.0885614,21 20.3643977,21 L30.3424094,21 C30.6181209,21 30.8413099,21.223625 30.8413099,21.499875 C30.8413099,21.776125 30.6181209,21.99975 30.3424094,21.99975 Z" id="Shape" fill="#116FFF"></path>
                <path d="M30.3424094,30.99975 L20.3643977,30.99975 C20.0885614,30.99975 19.8654971,30.776125 19.8654971,30.499875 C19.8654971,30.223625 20.0885614,30 20.3643977,30 L30.3424094,30 C30.6181209,30 30.8413099,30.223625 30.8413099,30.499875 C30.8413099,30.776125 30.6181209,30.99975 30.3424094,30.99975 Z" id="Shape-Copy-3" fill="#116FFF"></path>
                <path d="M22.4506511,24.99875 L6.4857076,24.99875 C6.2099961,24.99875 5.98680702,24.775125 5.98680702,24.498875 C5.98680702,24.222625 6.2099961,23.999 6.4857076,23.999 L22.4506511,23.999 C22.7263626,23.999 22.9495517,24.222625 22.9495517,24.498875 C22.9495517,24.775125 22.7263626,24.99875 22.4506511,24.99875 Z" id="Shape" fill="#116FFF"></path>
                <path d="M17.4616452,42.996625 L6.4857076,42.996625 C6.2099961,42.996625 5.98680702,42.773 5.98680702,42.49675 C5.98680702,42.2205 6.2099961,41.996875 6.4857076,41.996875 L17.4616452,41.996875 C17.7373567,41.996875 17.9605458,42.2205 17.9605458,42.49675 C17.9605458,42.773 17.7373567,42.996625 17.4616452,42.996625 Z" id="Shape" fill="#116FFF"></path>
                <path d="M34.3314152,27.99975 L19.3643977,27.99975 C19.0885614,27.99975 18.8654971,27.776125 18.8654971,27.499875 C18.8654971,27.223625 19.0885614,27 19.3643977,27 L34.3314152,27 C34.6072515,27 34.8304405,27.223625 34.8304405,27.499875 C34.8304405,27.776125 34.6072515,27.99975 34.3314152,27.99975 Z" id="Shape" fill="#116FFF"></path>
                <path d="M34.3314152,33.99975 L19.3643977,33.99975 C19.0885614,33.99975 18.8654971,33.776125 18.8654971,33.499875 C18.8654971,33.223625 19.0885614,33 19.3643977,33 L34.3314152,33 C34.6072515,33 34.8304405,33.223625 34.8304405,33.499875 C34.8304405,33.776125 34.6072515,33.99975 34.3314152,33.99975 Z" id="Shape-Copy-5" fill="#116FFF"></path>
                <path d="M17.3424094,27.99975 L7.36439766,27.99975 C7.08868616,27.99975 6.86549708,27.776125 6.86549708,27.499875 C6.86549708,27.223625 7.08868616,27 7.36439766,27 L17.3424094,27 C17.6181209,27 17.8413099,27.223625 17.8413099,27.499875 C17.8413099,27.776125 17.6181209,27.99975 17.3424094,27.99975 Z" id="Shape" fill="#116FFF"></path>
                <path d="M17.3424094,33.99975 L7.36439766,33.99975 C7.08868616,33.99975 6.86549708,33.776125 6.86549708,33.499875 C6.86549708,33.223625 7.08868616,33 7.36439766,33 L17.3424094,33 C17.6181209,33 17.8413099,33.223625 17.8413099,33.499875 C17.8413099,33.776125 17.6181209,33.99975 17.3424094,33.99975 Z" id="Shape-Copy-6" fill="#116FFF"></path>
                <path d="M32.4286628,24.99875 L24.4463782,24.99875 C24.1705419,24.99875 23.9474776,24.775125 23.9474776,24.498875 C23.9474776,24.222625 24.1705419,23.999 24.4463782,23.999 L32.4286628,23.999 C32.704499,23.999 32.9276881,24.222625 32.9276881,24.498875 C32.9276881,24.775125 32.7043743,24.99875 32.4286628,24.99875 Z" id="Shape" fill="#116FFF"></path>
                <path d="M18.3403353,21.99975 L7.36439766,21.99975 C7.08868616,21.99975 6.86549708,21.776125 6.86549708,21.499875 C6.86549708,21.223625 7.08868616,21 7.36439766,21 L18.3403353,21 C18.6160468,21 18.8392359,21.223625 18.8392359,21.499875 C18.8392359,21.776125 18.6160468,21.99975 18.3403353,21.99975 Z" id="Shape" fill="#116FFF"></path>
                <path d="M18.3403353,30.99975 L7.36439766,30.99975 C7.08868616,30.99975 6.86549708,30.776125 6.86549708,30.499875 C6.86549708,30.223625 7.08868616,30 7.36439766,30 L18.3403353,30 C18.6160468,30 18.8392359,30.223625 18.8392359,30.499875 C18.8392359,30.776125 18.6160468,30.99975 18.3403353,30.99975 Z" id="Shape-Copy-4" fill="#116FFF"></path>
                <g id="Group" transform="translate(40.000000, 28.000000)">
                    <path d="M15.877115,11.996125 C15.877115,10.066875 14.3101754,8.497 12.3848109,8.497 C10.4495906,8.497 8.89250682,10.067 8.89250682,11.996125 C8.89250682,13.92625 10.4495906,15.49525 12.3848109,15.49525 C14.3101754,15.49525 15.877115,13.92625 15.877115,11.996125 Z M21.3650214,11.996125 C21.3650214,12.9265 21.2246706,13.816 20.9655517,14.6555 L23.3703548,16.045875 L21.3747524,19.51475 L18.9602183,18.11475 C17.7529513,19.41425 16.1665497,20.354375 14.3804133,20.764375 L14.3804133,23.49325 L10.3890838,23.49325 L10.3890838,20.764375 C8.59234308,20.354375 7.01667057,19.414125 5.80940351,18.11475 L3.38488889,19.51475 L1.38928655,16.045875 L3.80394542,14.6555 C3.54470175,13.815875 3.40435088,12.9265 3.40435088,11.996125 C3.40435088,11.0765 3.54470175,10.187 3.80394542,9.347375 L1.38928655,7.947375 L3.38488889,4.48825 L5.80940351,5.88825 C7.01667057,4.578125 8.59234308,3.638875 10.3890838,3.228875 L10.3890838,0.499 L14.3802885,0.499 L14.3802885,3.228875 C16.166425,3.638875 17.7528265,4.578125 18.9600936,5.88825 L21.3746277,4.48825 L23.37023,7.947375 L20.9655517,9.3375 C21.2246706,10.17725 21.3650214,11.076375 21.3650214,11.996125 Z" id="Shape" fill="#94C1FF"></path>
                    <path d="M2.58021053,16.34075 L4.99474464,14.9505 C4.73562573,14.110875 4.4022768,12.926625 4.4022768,11.996125 C4.4022768,11.0765 4.73562573,9.807125 4.99474464,8.9675 L2.58021053,7.5675 L4.1334269,4.920625 L3.38501365,4.488125 L1.38941131,7.94725 L3.80407018,9.34725 C3.54482651,10.187 3.40447563,11.076375 3.40447563,11.996 C3.40447563,12.926375 3.54482651,13.815875 3.80407018,14.655375 L1.38941131,16.04575 L3.38501365,19.514625 L4.13442495,19.082125 L2.58021053,16.34075 Z" id="Shape" fill="#D7E9FF"></path>
                    <path d="M22.2068772,7.561625 L19.7923431,8.951875 C20.0515867,9.7915 20.3633528,11.076375 20.3633528,12.00675 C20.3633528,12.926375 20.2230019,14.251375 19.963883,15.091 L22.1981442,16.230375 L20.6323275,19.082125 L21.380616,19.514625 L23.3762183,16.055625 L20.9616842,14.6555 C21.2208031,13.815875 21.361154,12.9265 21.361154,12.006875 C21.361154,11.0765 21.2208031,10.187 20.9616842,9.347375 L23.3762183,7.957 L21.380616,4.488125 L20.6313294,4.920625 L22.2068772,7.561625 Z" id="Shape" fill="#5C9EFF"></path>
                    <path d="M12.3846862,8.497 C14.3101754,8.497 15.8769903,10.067 15.8769903,11.996125 C15.8769903,13.92625 14.3100507,15.49525 12.3846862,15.49525 C10.4494659,15.49525 8.89238207,13.92625 8.89238207,11.996125 C8.89238207,10.066875 10.4495906,8.497 12.3846862,8.497 Z" id="Shape" fill="#5C9EFF"></path>
                    <path d="M12.3846862,15.997125 C10.1834854,15.997125 8.39348148,14.203625 8.39348148,11.998125 C8.39348148,9.792625 10.1836101,7.999125 12.3846862,7.999125 C14.5860117,7.999125 16.3758908,9.792625 16.3758908,11.998125 C16.3758908,14.203625 14.5860117,15.997125 12.3846862,15.997125 Z M12.3846862,8.99875 C10.7341598,8.99875 9.39128265,10.344125 9.39128265,11.998 C9.39128265,13.651875 10.7341598,14.99725 12.3846862,14.99725 C14.0353372,14.99725 15.3780897,13.651875 15.3780897,11.998 C15.3780897,10.344125 14.035462,8.99875 12.3846862,8.99875 Z" id="Shape" fill="#116FFF"></path>
                    <path d="M18.8705185,12.497 C18.594807,12.497 18.3716179,12.2735 18.3716179,11.997125 C18.3716179,8.690375 15.6862378,5.999625 12.3848109,5.999625 C12.1090994,5.999625 11.8859103,5.776 11.8859103,5.49975 C11.8859103,5.2235 12.1090994,4.999875 12.3848109,4.999875 C16.2356647,4.999875 19.3694191,8.13875 19.3694191,11.99725 C19.3694191,12.2735 19.1463548,12.497 18.8705185,12.497 Z" id="Shape" fill="#116FFF"></path>
                    <path d="M12.3846862,18.996375 C8.53383236,18.996375 5.40007797,15.8565 5.40007797,11.998125 C5.40007797,11.72175 5.62326706,11.49825 5.89910331,11.49825 C6.17481481,11.49825 6.39787914,11.72175 6.39787914,11.998125 C6.39787914,15.305875 9.08338402,17.996625 12.3846862,17.996625 C12.6605224,17.996625 12.8835867,18.22025 12.8835867,18.4965 C12.8835867,18.77275 12.6605224,18.996375 12.3846862,18.996375 Z" id="Shape" fill="#116FFF"></path>
                    <path d="M12.4150019,12.497875 C12.1392904,12.497875 11.9112359,12.274375 11.9112359,11.998 C11.9112359,11.721625 12.1295595,11.498125 12.4042729,11.498125 L12.4150019,11.498125 C12.6898402,11.498125 12.9139025,11.721625 12.9139025,11.998 C12.9139025,12.274375 12.6898402,12.497875 12.4150019,12.497875 Z" id="Shape" fill="#116FFF"></path>
                    <path d="M14.3804133,23.995125 L10.3890838,23.995125 C10.1133723,23.995125 9.89018324,23.7715 9.89018324,23.49525 L9.89018324,21.156 C8.31550877,20.72625 6.88717349,19.898375 5.72169981,18.7395 L3.63939181,19.943375 C3.39961014,20.081125 3.09470565,20 2.95822222,19.76075 L0.962619883,16.29675 C0.824389864,16.057625 0.906230019,15.752 1.14488889,15.614375 L3.21646784,14.415375 C3.00987135,13.6275 2.90569981,12.816125 2.90569981,11.998 C2.90569981,11.180875 3.00987135,10.370375 3.21546979,9.582625 L1.14389084,8.383625 C0.905231969,8.246 0.823391813,7.940375 0.961621832,7.70125 L2.95822222,4.23525 C3.02346979,4.12 3.13263158,4.037 3.26038207,4.001875 C3.38987914,3.968625 3.52436647,3.98525 3.63939181,4.052625 L5.72082651,5.2565 C6.88729825,4.097625 8.31563353,3.269625 9.89030799,2.84 L9.89030799,0.50075 C9.89030799,0.2245 10.1134971,0.000875 10.3892086,0.000875 L14.3804133,0.000875 C14.6562495,0.000875 14.8793138,0.2245 14.8793138,0.50075 L14.8793138,2.84 C16.4539883,3.269625 17.8824483,4.0975 19.0489201,5.2565 L21.1303548,4.052625 C21.2442573,3.98525 21.3807407,3.968625 21.5093645,4.001875 C21.6369903,4.037 21.746152,4.12 21.8113996,4.23525 L23.8070019,7.69925 C23.9453567,7.938375 23.8635166,8.244 23.6248577,8.381625 L21.5532788,9.580625 C21.7598752,10.3685 21.8640468,11.179875 21.8640468,11.998 C21.8640468,12.816125 21.7598752,13.6275 21.5532788,14.414375 L23.6258558,15.614375 C23.7408811,15.680625 23.8235945,15.789 23.8586511,15.918 C23.8927096,16.045875 23.8742456,16.181625 23.808,16.29675 L21.8113996,19.76075 C21.6750409,20 21.3700117,20.083 21.1303548,19.943375 L19.0480468,18.7395 C17.8825731,19.898375 16.4541131,20.726375 14.8794386,21.156 L14.8794386,23.49525 C14.8793138,23.7715 14.6562495,23.995125 14.3804133,23.995125 Z M10.8879844,22.995375 L13.8813879,22.995375 L13.8813879,20.765375 C13.8813879,20.532125 14.0421988,20.33 14.2691306,20.27825 C15.9305107,19.8995 17.4263392,19.0325 18.5946823,17.772 C18.7526238,17.60025 19.0078752,17.56025 19.2094815,17.67925 L21.1973489,18.828375 L22.6951735,16.2295 L20.7171618,15.08525 C20.5154308,14.969 20.4208655,14.727875 20.4901053,14.50525 C20.7396179,13.693875 20.8662456,12.850375 20.8662456,11.998 C20.8662456,11.145625 20.7396179,10.30225 20.4901053,9.489875 C20.4208655,9.267375 20.5154308,9.026125 20.7171618,8.909875 L22.6943002,7.766625 L21.1974737,5.16775 L19.2106043,6.316875 C19.0099961,6.434875 18.7527485,6.395875 18.5958051,6.224125 C17.4264639,4.963625 15.9307602,4.096625 14.2692554,3.717875 C14.0423236,3.666125 13.8815127,3.464 13.8815127,3.23075 L13.8815127,1.00075 L10.8881092,1.00075 L10.8881092,3.23075 C10.8881092,3.464 10.727423,3.666125 10.5003665,3.717875 C8.83911111,4.096625 7.34315789,4.963625 6.17394152,6.224125 C6.016,6.395875 5.76074854,6.435 5.55901754,6.316875 L3.57214815,5.16775 L2.07444834,7.768625 L4.05158674,8.911875 C4.25331774,9.028125 4.34775828,9.268375 4.27864327,9.490875 C4.03012865,10.30425 3.90350097,11.14675 3.90350097,11.998125 C3.90350097,12.850375 4.03012865,13.693875 4.27964133,14.50625 C4.34875634,14.72875 4.25431579,14.97 4.0525848,15.08625 L2.07544639,16.2295 L3.57214815,18.828375 L5.56001559,17.67925 C5.76074854,17.56025 6.01699805,17.60025 6.17493957,17.772 C7.34315789,19.0325 8.83898635,19.8995 10.5003665,20.27825 C10.727423,20.33 10.8881092,20.532125 10.8881092,20.765375 L10.8881092,22.995375 L10.8879844,22.995375 Z" id="Shape" fill="#116FFF"></path>
                </g>
                <g id="Group-2" transform="translate(36.000000, 15.000000)">
                    <path d="M6.41546979,4.9995 C7.51270175,4.9995 8.41107212,5.899625 8.41107212,6.999 C8.41107212,8.109125 7.51270175,8.9985 6.41546979,8.9985 C5.30863158,8.9985 4.41986745,8.109125 4.41986745,6.999 C4.41986745,5.899625 5.30863158,4.9995 6.41546979,4.9995 Z" id="Shape" fill="#5C9EFF"></path>
                    <path d="M8.41107212,6.999 C8.41107212,5.899625 7.51270175,4.9995 6.41546979,4.9995 C5.30863158,4.9995 4.41986745,5.899625 4.41986745,6.999 C4.41986745,8.109125 5.30863158,8.9985 6.41546979,8.9985 C7.51270175,8.9985 8.41107212,8.109125 8.41107212,6.999 Z M10.8657778,6.63975 L12.1022378,6.9795 L11.3246316,9.868375 L10.1066355,9.538375 C9.95755166,9.76875 9.7880078,9.978625 9.5882729,10.178875 C9.38941131,10.379 9.17907212,10.548875 8.95014425,10.69825 L9.27950097,11.917625 L6.38540351,12.69775 L6.05704483,11.4685 C5.51722417,11.41775 4.9891306,11.288 4.49010526,11.04875 L3.59173489,11.947875 L1.47624172,9.82825 L2.37373879,8.929 C2.13495517,8.429125 1.9957271,7.899 1.95480702,7.359125 L0.727953216,7.029125 L1.49670175,4.1305 L2.72355556,4.4595 C2.87263938,4.230125 3.04318129,4.020125 3.24291618,3.82 C3.43192203,3.619875 3.65211696,3.45 3.87044055,3.300625 L3.54195712,2.08025 L6.43493177,1.30125 L6.76441326,2.540125 C7.30423392,2.580125 7.83245224,2.72075 8.33135283,2.950125 L9.23945419,2.051 L11.3538246,4.169625 L10.4467212,5.06975 C10.6853801,5.56975 10.825731,6.099875 10.8657778,6.63975 Z" id="Shape" fill="#94C1FF"></path>
                    <path d="M10.8657778,6.63975 C10.8258558,6.099875 10.6855049,5.569625 10.4467212,5.06975 L11.3538246,4.169625 L9.23945419,2.051 L8.73768421,2.548 L10.3561481,4.16975 L9.44904483,5.069875 C9.68782846,5.56975 9.80871735,6.64475 9.84863938,7.184625 L10.9915322,7.499 L10.3951969,9.616625 L11.3247563,9.8685 L12.1023626,6.979625 L10.8657778,6.63975 Z" id="Shape" fill="#5C9EFF"></path>
                    <path d="M2.56948148,9.9495 L3.4668538,9.050375 C3.22819493,8.5505 2.83945419,7.208125 2.79853411,6.668125 L1.8874386,6.419125 L2.42813255,4.380625 L1.496577,4.130625 L0.72782846,7.02925 L1.95468226,7.35925 C1.99560234,7.899125 2.13483041,8.42925 2.37361404,8.929125 L1.47611696,9.828375 L3.59161014,11.948 L4.09051072,11.448125 L2.56948148,9.9495 Z" id="Shape" fill="#D7E9FF"></path>
                    <path d="M6.44566082,7.500875 C6.16994932,7.500875 5.94201949,7.27725 5.94201949,7.001 C5.94201949,6.72475 6.16021832,6.501125 6.43493177,6.501125 L6.44566082,6.501125 C6.72049903,6.501125 6.94468616,6.72475 6.94468616,7.001 C6.94468616,7.27725 6.72049903,7.500875 6.44566082,7.500875 Z" id="Shape" fill="#116FFF"></path>
                    <path d="M6.3911423,13.200625 C6.3045614,13.200625 6.21872904,13.178125 6.14175439,13.13325 C6.02672904,13.067875 5.94401559,12.9585 5.90895906,12.8305 L5.66718129,11.9235 C5.30276803,11.86875 4.94908382,11.775 4.608,11.641375 L3.9474152,12.303375 C3.75254581,12.498625 3.43666277,12.498625 3.24191813,12.303375 L1.12442885,10.18275 C1.03098635,10.089 0.978339181,9.962 0.978339181,9.82925 C0.978339181,9.6965 1.03098635,9.5695 1.12442885,9.47575 L1.78613645,8.812875 C1.65264717,8.472125 1.55907992,8.11675 1.5034386,7.751625 L0.598705653,7.509375 C0.332725146,7.437125 0.174908382,7.16375 0.246019493,6.89625 L1.02025731,3.9995 C1.09224172,3.735 1.36321248,3.57975 1.63106433,3.646125 L2.52169981,3.885375 C2.64159064,3.731125 2.76247953,3.5935 2.88723587,3.4675 C3.01573489,3.339625 3.15421442,3.217625 3.30616764,3.0985 L3.06838207,2.208125 C3.03332554,2.08025 3.05178947,1.9435 3.11803509,1.82825 C3.18328265,1.714 3.29244444,1.630125 3.42007018,1.594875 L6.31129825,0.81775 C6.44179337,0.785625 6.57528265,0.80125 6.69030799,0.8685 C6.80533333,0.933875 6.88817154,1.04325 6.92322807,1.172125 L7.16575439,2.079125 C7.53016764,2.13475 7.88497466,2.2285 8.22493567,2.36125 L8.88564522,1.699375 C9.07265497,1.511875 9.40388304,1.511875 9.59101754,1.699375 L11.7075088,3.819875 C11.801076,3.913625 11.8537232,4.0405 11.8537232,4.173375 C11.8537232,4.306125 11.801076,4.433 11.7075088,4.52675 L11.0467992,5.18975 C11.1792904,5.5305 11.2728577,5.885875 11.3283743,6.25 L12.2327329,6.492125 C12.4987135,6.564375 12.6565302,6.83775 12.5854191,7.10525 L11.810807,10.001 C11.7757505,10.128875 11.6929123,10.23825 11.5778869,10.303625 C11.4628616,10.371 11.3273762,10.3875 11.1988772,10.354375 L10.3122339,10.115125 C10.191345,10.271375 10.0704561,10.409 9.94395322,10.535875 C9.81819883,10.661875 9.6817154,10.781875 9.52576998,10.903875 L9.76455361,11.79325 C9.83566472,12.060875 9.67784795,12.33425 9.41174269,12.406375 L6.52063938,13.183625 C6.47784795,13.194875 6.43393372,13.200625 6.3911423,13.200625 Z M4.49384795,10.549 C4.56595712,10.549 4.63906433,10.564625 4.70830409,10.596875 C5.14482651,10.804875 5.61253801,10.92975 6.0997115,10.967875 C6.31030019,10.9835 6.48745419,11.131875 6.54309552,11.336 L6.74382846,12.088625 L8.67118908,11.57025 L8.47332554,10.833125 C8.41868226,10.629125 8.49865107,10.41225 8.67118908,10.29225 C8.90410916,10.131125 9.08438207,9.98375 9.23833138,9.8295 C9.39415205,9.67325 9.54036647,9.492625 9.70117739,9.26025 C9.82106823,9.0855 10.0353996,9.009375 10.2409981,9.061125 L10.9756881,9.25925 L11.4921793,7.329125 L10.7418947,7.128 C10.5381676,7.072375 10.3910799,6.895625 10.3744873,6.68475 C10.3355634,6.196625 10.210807,5.727 10.0032125,5.2905 C9.91363743,5.099125 9.9525614,4.871625 10.1016452,4.722375 L10.6493255,4.173625 L9.23833138,2.759875 L8.69065107,3.3085 C8.54156725,3.457875 8.31363743,3.498875 8.12350877,3.406125 C7.68985575,3.199125 7.22127096,3.074125 6.73110331,3.035125 C6.52051462,3.0185 6.34336062,2.871125 6.28871735,2.666125 L6.08798441,1.913375 L4.16062378,2.43175 L4.35848733,3.170875 C4.41387914,3.376875 4.33316179,3.594625 4.15775439,3.71375 C3.93755945,3.864125 3.75242105,4.015375 3.59260819,4.174625 C3.43666277,4.33175 3.2905731,4.511375 3.13362963,4.739875 C3.01386355,4.913625 2.79840936,4.99175 2.59380897,4.94 L1.85525146,4.741875 L1.33876023,6.673 L2.08991813,6.874125 C2.29364522,6.92975 2.44073294,7.1065 2.45720078,7.317375 C2.49612476,7.8065 2.62088109,8.276125 2.82860039,8.712625 C2.91830019,8.903875 2.87925146,9.1315 2.73016764,9.28075 L2.18248733,9.8295 L3.59435478,11.24325 L4.14103704,10.6955 C4.23672515,10.59975 4.36435088,10.549 4.49384795,10.549 Z" id="Shape" fill="#116FFF"></path>
                    <path d="M6.41546979,9.500375 C5.03965692,9.500375 3.92109162,8.3795 3.92109162,7.001 C3.92109162,5.6225 5.03965692,4.501625 6.41546979,4.501625 C7.79140741,4.501625 8.91009747,5.6225 8.91009747,7.001 C8.91009747,8.3795 7.79140741,9.500375 6.41546979,9.500375 Z M6.41546979,5.501375 C5.59020663,5.501375 4.91889279,6.174125 4.91889279,7.001 C4.91889279,7.828 5.59020663,8.500625 6.41546979,8.500625 C7.2408577,8.500625 7.9122963,7.828 7.9122963,7.001 C7.9122963,6.174125 7.2408577,5.501375 6.41546979,5.501375 Z" id="Shape" fill="#116FFF"></path>
                </g>
            </g>
        </g>
    </g>
</svg>