<svg width="11px" height="17px" viewBox="0 0 11 17" version="1.1" xmlns="http://www.w3.org/2000/svg" xmlns:xlink="http://www.w3.org/1999/xlink">
  <path d="M7.88996011,10.4105217 C6.37211398,10.4098327 5.08695652,9.22608287 5.08695652,7.76534384 L5.08695652,2.64517791 C5.08695652,1.18443887 6.31841659,0 7.83626272,0 C9.35410885,0.000689027847 10.6392663,1.1851279 10.6392663,2.64517791 L10.6392663,7.76534384 C10.6392663,9.2267719 9.4085222,10.4112108 7.88996011,10.4105217 Z M12.06521,6.31521739 C12.4155919,6.31521739 12.7133152,6.60136255 12.7133152,6.95411631 L12.7133152,8.08170493 C12.7133152,10.3932956 11.0998034,12.3297031 8.94822923,12.8177131 C8.68156096,12.8782046 8.50198182,13.1303658 8.50198182,13.405636 L8.50198182,13.9527782 C8.50198182,14.256595 8.72139242,14.5135139 9.01979084,14.5570134 C9.33776744,14.6039113 9.73135631,14.6630435 9.98924816,14.706543 C10.4834284,14.7908233 10.6366782,15.1551316 10.6366782,15.385543 C10.6366782,15.6166341 10.4543986,16.0543478 9.97304554,16.0543478 L5.71310425,16.0543478 C5.23175113,16.0543478 5.05014666,15.6166341 5.05014666,15.385543 C5.05014666,15.1551316 5.20272142,14.7908233 5.69690162,14.706543 C5.95479347,14.6630435 6.34905745,14.6039113 6.66635894,14.5570134 C6.96475736,14.5135139 7.18484307,14.256595 7.18484307,13.9527782 L7.18484307,13.388644 C7.18484307,13.1160925 7.00728926,12.864611 6.74399654,12.8020805 C4.58364596,12.2909613 2.97418478,10.3708662 2.97418478,8.08170493 L2.97418478,6.95411631 C2.97418478,6.60136255 3.25840591,6.31521739 3.60878776,6.31521739 C3.95984473,6.31521739 4.25689294,6.60136255 4.25689294,6.95411631 L4.25689294,8.08170493 C4.25689294,10.2865859 6.41724351,12.1013307 8.72611819,11.5501104 C10.33963,11.1640524 11.429932,9.63545273 11.429932,7.96547971 L11.429932,6.95411631 C11.429932,6.60136255 11.7141531,6.31521739 12.06521,6.31521739 Z" id="path-1"></path>
</svg>