<?xml version="1.0" encoding="UTF-8"?>
<svg width="16px" height="16px" viewBox="0 0 16 16" version="1.1" xmlns="http://www.w3.org/2000/svg" xmlns:xlink="http://www.w3.org/1999/xlink">
    <!-- Generator: Sketch 52.1 (67048) - http://www.bohemiancoding.com/sketch -->
    <title>Combined Shape</title>
    <desc>Created with Sketch.</desc>
    <g id="Symbols" stroke="none" stroke-width="1" fill="none" fill-rule="evenodd">
        <g id="Icon/System/Copy_white" fill="#FFFFFF">
            <g id="Group-5">
                <path d="M11.7894737,15.1578947 C11.7894737,15.6229766 11.4124503,16 10.9473684,16 L2.52631579,16 C1.13107011,16 0,14.8689299 0,13.4736842 L0,5.05263158 C0,4.58754968 0.377023369,4.21052632 0.842105263,4.21052632 C1.31903535,4.21052632 1.71727193,4.57420179 1.76045115,5.04917323 L2.39924808,12.0759394 C2.47285585,12.8856249 3.11437515,13.5271442 3.92406064,13.6007519 L10.9508268,14.2395488 C11.4257982,14.2827281 11.7894737,14.6809646 11.7894737,15.1578947 Z M4.72502275,3.73969861e-16 L14.7368421,0 C15.4344649,-3.73969861e-16 16,0.565535053 16,1.26315789 L16,11.2749772 C16,11.9726001 15.4344649,12.5381351 14.7368421,12.5381351 C14.7068147,12.5381351 14.6767969,12.5370644 14.6468458,12.5349251 L5.3024811,11.8674705 C4.67581106,11.8227083 4.17729169,11.3241889 4.13252955,10.6975189 L3.46507492,1.35315417 C3.41537135,0.657304196 3.93917651,0.0529136329 4.63502648,0.00321006337 C4.66497755,0.00107070137 4.69499538,1.12190958e-15 4.72502275,3.73969861e-16 Z M6.31578947,1.68421053 C5.85070758,1.68421053 5.47368421,2.06123389 5.47368421,2.52631579 C5.47368421,2.99139768 5.85070758,3.36842105 6.31578947,3.36842105 L8,3.36842105 C8.46508189,3.36842105 8.84210526,2.99139768 8.84210526,2.52631579 C8.84210526,2.06123389 8.46508189,1.68421053 8,1.68421053 L6.31578947,1.68421053 Z" id="Combined-Shape"></path>
            </g>
        </g>
    </g>
</svg>