<?xml version="1.0" encoding="UTF-8"?>
<svg width="20px" height="20px" viewBox="0 0 20 20" version="1.1" xmlns="http://www.w3.org/2000/svg" xmlns:xlink="http://www.w3.org/1999/xlink">
    <!-- Generator: Sketch 52.1 (67048) - http://www.bohemiancoding.com/sketch -->
    <title>Reload #1 Icon</title>
    <desc>Created with Sketch.</desc>
    <defs>
        <linearGradient x1="50%" y1="0%" x2="50%" y2="100%" id="linearGradient-1">
            <stop stop-color="#5D9DF5" stop-opacity="0.85" offset="0%"></stop>
            <stop stop-color="#2C85FF" offset="100%"></stop>
        </linearGradient>
        <path d="M14.4660652,7.5 C13.3621148,7.5 13.1059798,6.86388027 13.8912393,6.08190789 L15.2823034,4.69666667 C13.9189133,3.34 12.0363348,2.5 9.95541481,2.5 C6.12108838,2.5 2.95762323,5.35333333 2.48593691,9.04333333 C2.48593691,9.04333333 2.34176424,10 1.25421893,10 C0.56169007,10 0,9.44 0,8.75 C0,8.65583333 0.0108337847,8.56416667 0.0308346181,8.475 C0.769198717,3.67666667 4.92937206,0 9.95541481,0 C12.7296971,0 15.240635,1.11916667 17.0582108,2.92916667 C17.1108702,2.87673317 18.5830107,1.41090935 18.5830107,1.41090935 C19.3655923,0.631685631 20,0.889800489 20,2.00986236 L20,7.00790405 C20,7.27968114 19.7826813,7.5 19.505751,7.5 L14.4660652,7.5 Z M5.5339348,12.5 C6.63788522,12.5 6.89402018,13.1361197 6.10876073,13.9180921 L4.71769657,15.3033333 C6.08025334,16.6608333 7.96366515,17.5 10.0445852,17.5 C13.8789116,17.5 17.0423768,14.6466667 17.5140631,10.9566667 C17.5140631,10.9566667 17.6582358,10 18.7457811,10 C19.4383099,10 20,10.56 20,11.25 C20,11.345 19.9891662,11.4366667 19.9691654,11.525 C19.2308013,16.3233333 15.0706279,20 10.0445852,20 C7.27030293,20 4.75936497,18.8808333 2.94178924,17.0716667 L1.41919295,18.5872985 C0.635394327,19.367512 0,19.1101995 0,17.9901376 L0,12.9920959 C0,12.7203189 0.21731868,12.5 0.494248957,12.5 L5.5339348,12.5 Z" id="path-2"></path>
    </defs>
    <g id="Symbols" stroke="none" stroke-width="1" fill="none" fill-rule="evenodd">
        <g id="Icon/Header-buttons/Sync" transform="translate(2.000000, 2.000000)">
            <g id="Group-2" transform="translate(-2.000000, -2.000000)">
                <g id="Reload-#1-Icon">
                    <use fill="#FFFFFF" xlink:href="#path-2"></use>
                    <use fill="url(#linearGradient-1)" xlink:href="#path-2"></use>
                </g>
            </g>
        </g>
    </g>
</svg>