<?xml version="1.0" encoding="UTF-8"?>
<svg width="1278px" height="1278px" viewBox="0 0 1278 1278" version="1.1" xmlns="http://www.w3.org/2000/svg" xmlns:xlink="http://www.w3.org/1999/xlink">
    <!-- Generator: Sketch 52.1 (67048) - http://www.bohemiancoding.com/sketch -->
    <title>Artboard</title>
    <desc>Created with Sketch.</desc>
    <defs>
        <linearGradient x1="14.803816%" y1="18.4931409%" x2="97.0621726%" y2="89.2888329%" id="linearGradient-1">
            <stop stop-color="#00A8FF" offset="0%"></stop>
            <stop stop-color="#004EDA" offset="100%"></stop>
        </linearGradient>
        <linearGradient x1="76.453177%" y1="62.7906717%" x2="-2.92405413%" y2="8.31368136%" id="linearGradient-2">
            <stop stop-color="#AADAFF" offset="0%"></stop>
            <stop stop-color="#BAE1FF" offset="100%"></stop>
        </linearGradient>
        <linearGradient x1="56.5832881%" y1="98.2243799%" x2="58.3951957%" y2="3.15435332%" id="linearGradient-3">
            <stop stop-color="#39B8FF" offset="0%"></stop>
            <stop stop-color="#39A4FF" offset="24.9819364%"></stop>
            <stop stop-color="#42A5FF" offset="100%"></stop>
        </linearGradient>
    </defs>
    <g id="Artboard" stroke="none" stroke-width="1" fill="none" fill-rule="evenodd">
        <g id="Icon/Logo/logo_bubble" transform="translate(127.000000, 127.000000)">
            <g id="LOGO" transform="translate(1.000000, 168.000000)">
                <g id="Group" transform="translate(511.000000, 371.000000) scale(-1, 1) translate(-511.000000, -371.000000) ">
                    <path d="M13.3518514,108.274327 L169.150192,338.473551 C196.897833,368.148973 231.180193,382.986685 271.997269,382.986685 C312.814348,382.986685 347.096707,366.198019 374.844348,332.62069 C433.526035,299.570855 472.119359,269.722483 490.624319,243.075578 C509.129277,216.428673 516.076718,180.698925 511.466638,135.886337 C477.509927,81.8231236 450.861279,46.2936593 431.520697,29.2979433 C412.180114,12.3022275 387.38193,2.62231287 357.126143,0.258199382 L67.349714,0.258199382 C39.4471401,3.80139525 19.7552715,16.5611941 8.27410828,38.5375959 C-3.20705492,60.5139977 -1.51447388,83.7595747 13.3518514,108.274327 Z" id="Path-5" fill="url(#linearGradient-1)"></path>
                    <path d="M523.582281,108.016128 L679.380621,338.215351 L779.344151,484.675862 L1021.69707,135.628137 C987.740356,81.5649242 961.091708,46.0354599 941.751126,29.0397439 C922.410543,12.0440281 897.612359,2.3641135 867.356573,4.71964331e-14 L577.580143,2.84217094e-14 C549.677569,3.54319586 529.985701,16.3029947 518.504537,38.2793966 C507.023374,60.2557983 508.715956,83.5013754 523.582281,108.016128 Z" id="Path-5-Copy" fill="url(#linearGradient-2)" transform="translate(766.348535, 242.337931) scale(-1, 1) translate(-766.348535, -242.337931) "></path>
                    <path d="M169.468763,339.294073 L409.216268,687.172414 C434.564852,723.592811 469.01358,741.803012 512.562453,741.803012 C556.111324,741.803012 590.560052,723.592811 615.908638,687.172414 L753.213906,484.310345 L511.446641,136.347155 C488.00063,217.832606 445.345422,276.932062 383.481018,313.645518 C321.616615,350.358975 250.279196,358.908492 169.468763,339.294073 Z" id="Path-6" fill="url(#linearGradient-3)"></path>
                </g>
            </g>
        </g>
    </g>
</svg>