<?xml version="1.0" encoding="UTF-8"?>
<svg width="545px" height="99px" viewBox="0 0 545 99" version="1.1" xmlns="http://www.w3.org/2000/svg" xmlns:xlink="http://www.w3.org/1999/xlink">
    <!-- Generator: Sketch 52.1 (67048) - http://www.bohemiancoding.com/sketch -->
    <title>voiceflow</title>
    <desc>Created with Sketch.</desc>
    <g id="Light" stroke="none" stroke-width="1" fill="none" fill-rule="evenodd">
        <g id="Artboard" transform="translate(-282.000000, -41.000000)" fill="#353A4E">
            <path d="M353.33,70.595 L327.2,138 L308.87,138 L282.74,70.595 L299.51,70.595 C300.940007,70.595 302.142495,70.93083 303.1175,71.6025 C304.092505,72.27417 304.753332,73.1083283 305.1,74.105 L314.46,104.33 C315.283337,106.800012 316.009164,109.204988 316.6375,111.545 C317.265836,113.885012 317.818331,116.224988 318.295,118.565 C319.248338,113.884977 320.569992,109.140024 322.26,104.33 L332.01,74.105 C332.356668,73.1083283 333.006662,72.27417 333.96,71.6025 C334.913338,70.93083 336.039993,70.595 337.34,70.595 L353.33,70.595 Z M383.99,69.555 C389.103359,69.555 393.761646,70.3566586 397.965,71.96 C402.168354,73.5633413 405.775818,75.859985 408.7875,78.85 C411.799182,81.8400149 414.139158,85.4691453 415.8075,89.7375 C417.475842,94.0058547 418.31,98.8049733 418.31,104.135 C418.31,109.50836 417.475842,114.350812 415.8075,118.6625 C414.139158,122.974188 411.799182,126.635818 408.7875,129.6475 C405.775818,132.659182 402.168354,134.977492 397.965,136.6025 C393.761646,138.227508 389.103359,139.04 383.99,139.04 C378.833308,139.04 374.142521,138.227508 369.9175,136.6025 C365.692479,134.977492 362.052515,132.659182 358.9975,129.6475 C355.942485,126.635818 353.580842,122.974188 351.9125,118.6625 C350.244158,114.350812 349.41,109.50836 349.41,104.135 C349.41,98.8049733 350.244158,94.0058547 351.9125,89.7375 C353.580842,85.4691453 355.942485,81.8400149 358.9975,78.85 C362.052515,75.859985 365.692479,73.5633413 369.9175,71.96 C374.142521,70.3566586 378.833308,69.555 383.99,69.555 Z M383.99,124.09 C388.62669,124.09 392.039156,122.454183 394.2275,119.1825 C396.415844,115.910817 397.51,110.938367 397.51,104.265 C397.51,97.5916333 396.415844,92.6300162 394.2275,89.38 C392.039156,86.1299837 388.62669,84.505 383.99,84.505 C379.223309,84.505 375.735011,86.1299837 373.525,89.38 C371.314989,92.6300162 370.21,97.5916333 370.21,104.265 C370.21,110.938367 371.314989,115.910817 373.525,119.1825 C375.735011,122.454183 379.223309,124.09 383.99,124.09 Z M445.355,70.595 L445.355,138 L425.205,138 L425.205,77.7608653 C425.112365,75.1302122 425.785188,73.278238 427.223467,72.2049428 C428.661747,71.1316476 430.751413,70.595 433.492468,70.595 L445.355,70.595 Z M505.29,86.585 C504.68333,87.3216703 504.098336,87.9066645 503.535,88.34 C502.971664,88.7733355 502.170005,88.99 501.13,88.99 C500.133328,88.99 499.234171,88.751669 498.4325,88.275 C497.630829,87.7983309 496.731672,87.2675029 495.735,86.6825 C494.738328,86.0974971 493.56834,85.566669 492.225,85.09 C490.88166,84.6133309 489.213343,84.375 487.22,84.375 C484.749988,84.375 482.615842,84.8299954 480.8175,85.74 C479.019158,86.6500045 477.535006,87.9499915 476.365,89.64 C475.194994,91.3300084 474.328336,93.3991544 473.765,95.8475 C473.201664,98.2958456 472.92,101.058318 472.92,104.135 C472.92,110.591699 474.165821,115.553316 476.6575,119.02 C479.149179,122.486684 482.583311,124.22 486.96,124.22 C489.300012,124.22 491.152493,123.927503 492.5175,123.3425 C493.882507,122.757497 495.041662,122.107504 495.995,121.3925 C496.948338,120.677496 497.825829,120.01667 498.6275,119.41 C499.429171,118.80333 500.43666,118.5 501.65,118.5 C503.253341,118.5 504.466662,119.084994 505.29,120.255 L511.14,127.47 C509.059989,129.853345 506.871678,131.792493 504.575,133.2875 C502.278322,134.782507 499.927512,135.952496 497.5225,136.7975 C495.117488,137.642504 492.701679,138.227498 490.275,138.5525 C487.848321,138.877502 485.486678,139.04 483.19,139.04 C479.073313,139.04 475.140852,138.260008 471.3925,136.7 C467.644148,135.139992 464.350847,132.875848 461.5125,129.9075 C458.674152,126.939152 456.420842,123.288355 454.7525,118.955 C453.084158,114.621645 452.25,109.681694 452.25,104.135 C452.25,99.2816424 452.975826,94.7425211 454.4275,90.5175 C455.879174,86.2924789 458.024152,82.6308488 460.8625,79.5325 C463.700847,76.4341512 467.210812,73.9966755 471.3925,72.22 C475.574187,70.4433244 480.416639,69.555 485.92,69.555 C491.206693,69.555 495.843313,70.3999915 499.83,72.09 C503.816686,73.7800084 507.413317,76.2499837 510.62,79.5 L505.29,86.585 Z M556.06,96.205 C556.06,94.6016586 555.854169,93.0416742 555.4425,91.525 C555.030831,90.0083257 554.359171,88.6541726 553.4275,87.4625 C552.495828,86.2708274 551.271674,85.3066703 549.755,84.57 C548.238326,83.8333296 546.396677,83.465 544.23,83.465 C540.416647,83.465 537.426677,84.5591557 535.26,86.7475 C533.093322,88.9358443 531.663337,92.0883127 530.97,96.205 L556.06,96.205 Z M530.71,107.905 C531.360003,113.538361 533.071653,117.622487 535.845,120.1575 C538.618347,122.692513 542.193311,123.96 546.57,123.96 C548.910012,123.96 550.924991,123.678336 552.615,123.115 C554.305008,122.551664 555.810827,121.923337 557.1325,121.23 C558.454173,120.536663 559.667494,119.908336 560.7725,119.345 C561.877505,118.781664 563.03666,118.5 564.25,118.5 C565.853341,118.5 567.066662,119.084994 567.89,120.255 L573.74,127.47 C571.659989,129.853345 569.417512,131.792493 567.0125,133.2875 C564.607488,134.782507 562.137512,135.952496 559.6025,136.7975 C557.067487,137.642504 554.532512,138.227498 551.9975,138.5525 C549.462487,138.877502 547.046678,139.04 544.75,139.04 C540.026643,139.04 535.595854,138.270841 531.4575,136.7325 C527.319146,135.194159 523.700849,132.908348 520.6025,129.875 C517.504151,126.841651 515.055842,123.071689 513.2575,118.565 C511.459157,114.058311 510.56,108.81503 510.56,102.835 C510.56,98.3283108 511.329159,94.0600201 512.8675,90.03 C514.405841,85.9999798 516.615819,82.4683485 519.4975,79.435 C522.379181,76.4016515 525.867479,73.9966755 529.9625,72.22 C534.05752,70.4433244 538.683307,69.555 543.84,69.555 C548.303355,69.555 552.387481,70.2483264 556.0925,71.635 C559.797518,73.0216736 562.982486,75.0366534 565.6475,77.68 C568.312513,80.3233465 570.392492,83.5624808 571.8875,87.3975 C573.382507,91.2325192 574.13,95.5766424 574.13,100.43 C574.13,101.946674 574.065,103.181662 573.935,104.135 C573.804999,105.088338 573.566668,105.846664 573.22,106.41 C572.873331,106.973336 572.407503,107.363332 571.8225,107.58 C571.237497,107.796668 570.490004,107.905 569.58,107.905 L530.71,107.905 Z M584.275,138 L584.275,84.44 L579.855,83.53 C578.338326,83.1833316 577.114171,82.6416703 576.1825,81.905 C575.250828,81.1683296 574.785,80.0850071 574.785,78.655 L574.785,70.725 L584.275,70.725 L584.275,68.385 C584.275,64.9616495 584.838327,61.614183 585.965,58.3425 C587.091672,55.070817 588.824988,52.1675127 591.165,49.6325 C593.505011,47.0974873 596.494982,45.060841 600.135,43.5225 C603.775018,41.984159 608.108308,41.215 613.135,41.215 C617.381688,41.215 621.379148,41.3449987 625.1275,41.605 C628.875852,41.8650013 632.678314,41.995 636.535,41.995 L647.845,41.995 L647.845,138 L627.825,138 L627.825,55.515 C625.614989,55.4283329 623.480843,55.3308339 621.4225,55.2225 C619.364156,55.1141661 617.685006,55.06 616.385,55.06 C612.268313,55.06 609.13751,56.1974886 606.9925,58.4725 C604.847489,60.7475114 603.775,64.051645 603.775,68.385 L603.775,70.725 L618.335,70.725 L618.335,84.505 L604.425,84.505 L604.425,138 L584.275,138 Z M688.865,69.555 C693.978359,69.555 698.636645,70.3566586 702.84,71.96 C707.043354,73.5633413 710.650818,75.859985 713.6625,78.85 C716.674181,81.8400149 719.014158,85.4691453 720.6825,89.7375 C722.350841,94.0058547 723.185,98.8049733 723.185,104.135 C723.185,109.50836 722.350841,114.350812 720.6825,118.6625 C719.014158,122.974188 716.674181,126.635818 713.6625,129.6475 C710.650818,132.659182 707.043354,134.977492 702.84,136.6025 C698.636645,138.227508 693.978359,139.04 688.865,139.04 C683.708307,139.04 679.017521,138.227508 674.7925,136.6025 C670.567479,134.977492 666.927515,132.659182 663.8725,129.6475 C660.817484,126.635818 658.455841,122.974188 656.7875,118.6625 C655.119158,114.350812 654.285,109.50836 654.285,104.135 C654.285,98.8049733 655.119158,94.0058547 656.7875,89.7375 C658.455841,85.4691453 660.817484,81.8400149 663.8725,78.85 C666.927515,75.859985 670.567479,73.5633413 674.7925,71.96 C679.017521,70.3566586 683.708307,69.555 688.865,69.555 Z M688.865,124.09 C693.50169,124.09 696.914155,122.454183 699.1025,119.1825 C701.290844,115.910817 702.385,110.938367 702.385,104.265 C702.385,97.5916333 701.290844,92.6300162 699.1025,89.38 C696.914155,86.1299837 693.50169,84.505 688.865,84.505 C684.098309,84.505 680.610011,86.1299837 678.4,89.38 C676.189989,92.6300162 675.085,97.5916333 675.085,104.265 C675.085,110.938367 676.189989,115.910817 678.4,119.1825 C680.610011,122.454183 684.098309,124.09 688.865,124.09 Z M826.815,70.595 L805.885,138 L789.505,138 C788.638329,138 787.901669,137.740003 787.295,137.22 C786.68833,136.699997 786.211668,135.833339 785.865,134.62 L776.245,101.015 C775.768331,99.4983257 775.345835,98.0033407 774.9775,96.53 C774.609164,95.0566593 774.273335,93.5616742 773.97,92.045 C773.666665,93.5616742 773.330835,95.0783257 772.9625,96.595 C772.594164,98.1116742 772.171669,99.6283257 771.695,101.145 L761.945,134.62 C761.294996,136.873345 759.865011,138 757.655,138 L742.055,138 L721.125,70.595 L737.245,70.595 C738.675007,70.595 739.877495,70.93083 740.8525,71.6025 C741.827505,72.27417 742.488331,73.1083283 742.835,74.105 L749.595,104.33 C750.158336,106.626678 750.656664,108.847489 751.09,110.9925 C751.523335,113.137511 751.913331,115.293322 752.26,117.46 C752.823336,115.293322 753.419163,113.137511 754.0475,110.9925 C754.675836,108.847489 755.358329,106.626678 756.095,104.33 L764.545,74.04 C764.891668,73.0433283 765.541662,72.20917 766.495,71.5375 C767.448338,70.86583 768.574993,70.53 769.875,70.53 L778.845,70.53 C780.275007,70.53 781.477495,70.86583 782.4525,71.5375 C783.427505,72.20917 784.088331,73.0433283 784.435,74.04 L792.495,104.33 C793.145003,106.626678 793.784163,108.858322 794.4125,111.025 C795.040836,113.191677 795.614997,115.379989 796.135,117.59 C796.481668,115.423322 796.893331,113.256677 797.37,111.09 C797.846669,108.923322 798.38833,106.670012 798.995,104.33 L806.145,74.105 C806.491668,73.1083283 807.141662,72.27417 808.095,71.6025 C809.048338,70.93083 810.174993,70.595 811.475,70.595 L826.815,70.595 Z" id="voiceflow"></path>
        </g>
    </g>
</svg>