<?xml version="1.0" encoding="UTF-8"?>
<svg width="12px" height="22px" viewBox="0 0 12 22" version="1.1" xmlns="http://www.w3.org/2000/svg" xmlns:xlink="http://www.w3.org/1999/xlink">
    <!-- Generator: Sketch 52.1 (67048) - http://www.bohemiancoding.com/sketch -->
    <title>Path</title>
    <desc>Created with Sketch.</desc>
    <defs>
        <linearGradient x1="50%" y1="-2.48949813e-15%" x2="50%" y2="100%" id="linearGradient-1">
            <stop stop-color="#30D0C1" stop-opacity="0.85" offset="0%"></stop>
            <stop stop-color="#30D0C1" offset="100%"></stop>
        </linearGradient>
    </defs>
    <g id="Symbols" stroke="none" stroke-width="1" fill="none" fill-rule="evenodd">
        <g id="Artboard" transform="translate(-6.000000, -1.000000)" fill="url(#linearGradient-1)">
            <g id="dollar-sign-solid-(1)" transform="translate(6.000000, 1.000000)">
                <path d="M8.71702097,9.82630208 L4.21605423,8.49592014 C3.69510901,8.34435764 3.33253113,7.85177951 3.33253113,7.30447049 C3.33253113,6.61822917 3.88264929,6.0625 4.56196186,6.0625 L7.32505533,6.0625 C7.83349787,6.0625 8.33360529,6.21827257 8.75036147,6.50455729 C9.00458274,6.67717014 9.3463228,6.63506944 9.56303602,6.4203559 L11.0133475,4.98893229 C11.3092444,4.6984375 11.2675688,4.21427951 10.9383314,3.95746528 C9.91727877,3.14913194 8.64200486,2.69865451 7.33339046,2.69444444 L7.33339046,0.673611111 C7.33339046,0.303125 7.03332601,0 6.66658057,0 L5.33296079,0 C4.96621536,0 4.66615091,0.303125 4.66615091,0.673611111 L4.66615091,2.69444444 L4.56196186,2.69444444 C1.907225,2.69444444 -0.226566645,4.99735243 0.0193195012,7.7296875 C0.194357097,9.67052951 1.66133885,11.2493056 3.51173629,11.7966146 L7.78348713,13.0596354 C8.30443236,13.215408 8.66701023,13.703776 8.66701023,14.2510851 C8.66701023,14.9373264 8.11689207,15.4930556 7.4375795,15.4930556 L4.67448603,15.4930556 C4.16604349,15.4930556 3.66593607,15.337283 3.24917989,15.0509983 C2.99495862,14.8783854 2.65321856,14.9204861 2.43650534,15.1351997 L0.986193838,16.5666233 C0.690296951,16.8571181 0.731972569,17.341276 1.06120995,17.5980903 C2.08226259,18.4064236 3.3575365,18.856901 4.66615091,18.8611111 L4.66615091,20.8819444 C4.66615091,21.2524306 4.96621536,21.5555556 5.33296079,21.5555556 L6.66658057,21.5555556 C7.03332601,21.5555556 7.33339046,21.2524306 7.33339046,20.8819444 L7.33339046,18.852691 C9.27547425,18.8148003 11.0966988,17.6486111 11.7385033,15.7919705 C12.6345291,13.1985677 11.1300393,10.5378038 8.71702097,9.82630208 Z" id="Path"></path>
            </g>
        </g>
    </g>
</svg>