<?xml version="1.0" encoding="UTF-8"?>
<svg width="20px" height="23px" viewBox="0 0 20 23" version="1.1" xmlns="http://www.w3.org/2000/svg" xmlns:xlink="http://www.w3.org/1999/xlink">
    <!-- Generator: Sketch 52.1 (67048) - http://www.bohemiancoding.com/sketch -->
    <title>Shape</title>
    <desc>Created with Sketch.</desc>
    <defs>
        <linearGradient x1="50%" y1="-2.48949813e-15%" x2="50%" y2="100%" id="linearGradient-1">
            <stop stop-color="#30D0C1" stop-opacity="0.85" offset="0%"></stop>
            <stop stop-color="#30D0C1" offset="100%"></stop>
        </linearGradient>
    </defs>
    <g id="Symbols" stroke="none" stroke-width="1" fill="none" fill-rule="evenodd">
        <g id="Artboard" transform="translate(-2.000000, 0.000000)" fill="url(#linearGradient-1)" fill-rule="nonzero">
            <g id="bell-solid" transform="translate(2.000000, 0.000000)">
                <path d="M9.95558628,22.7555556 C11.5253641,22.7555556 12.7986974,21.4822222 12.7986974,19.9111111 L7.11247517,19.9111111 C7.11247517,21.4822222 8.38580851,22.7555556 9.95558628,22.7555556 Z M19.5284752,16.1017778 C18.6698085,15.1791111 17.0631418,13.7911111 17.0631418,9.24444444 C17.0631418,5.79111111 14.6418085,3.02666667 11.3769196,2.34844444 L11.3769196,1.42222222 C11.3769196,0.636888889 10.7404752,0 9.95558628,0 C9.1706974,0 8.53425295,0.636888889 8.53425295,1.42222222 L8.53425295,2.34844444 C5.26936406,3.02666667 2.84803073,5.79111111 2.84803073,9.24444444 C2.84803073,13.7911111 1.24136406,15.1791111 0.382697395,16.1017778 C0.116030728,16.3884444 -0.00219149386,16.7311111 3.07283606e-05,17.0666667 C0.00491961725,17.7955556 0.576919617,18.4888889 1.4266974,18.4888889 L18.4844752,18.4888889 C19.334253,18.4888889 19.9066974,17.7955556 19.9111418,17.0666667 C19.9133641,16.7311111 19.7951418,16.388 19.5284752,16.1017778 Z" id="Shape"></path>
            </g>
        </g>
    </g>
</svg>