<?xml version="1.0" encoding="UTF-8"?>
<svg width="28px" height="28px" viewBox="0 0 28 28" version="1.1" xmlns="http://www.w3.org/2000/svg" xmlns:xlink="http://www.w3.org/1999/xlink">
    <!-- Generator: Sketch 52.1 (67048) - http://www.bohemiancoding.com/sketch -->
    <title>Group 3</title>
    <desc>Created with Sketch.</desc>
    <g id="Page-1" stroke="none" stroke-width="1" fill="none" fill-rule="evenodd">
        <g id="Artboard" transform="translate(-1565.000000, -15.000000)">
            <g id="Group-2" transform="translate(1492.000000, 11.000000)">
                <g id="Group-3" transform="translate(73.000000, 4.000000)">
                    <circle id="Oval-Copy" fill-opacity="0.730242301" fill="#147ADE" cx="14" cy="14" r="14"></circle>
                    <circle id="Oval" fill-opacity="0.637624547" fill="#045AB0" cx="14" cy="14" r="10"></circle>
                    <path d="M18.8534396,9.41033211 C18.8255042,9.27928363 18.7223583,9.17616352 18.591277,9.14823516 C17.8993396,9 17.3578235,9 16.8184561,9 C14.6008184,9 13.2706655,10.1858813 12.2778858,11.7498696 L10.0387594,11.7498696 C9.64766435,11.7498696 9.2909513,11.9711482 9.11689253,12.3191785 L8.05534888,14.4417342 C7.88343898,14.7854679 8.13270834,15.1872066 8.51735674,15.1872066 L10.5609357,15.1872066 C10.4341522,15.4621936 10.3052197,15.7350322 10.1741384,15.9971291 C10.1075233,16.130326 10.1333098,16.2893028 10.2386046,16.3945712 L11.6052884,17.7609127 C11.7105832,17.8661811 11.8695998,17.8919612 12.00283,17.8253628 C12.2649926,17.6943143 12.5378996,17.5675625 12.8129554,17.4408107 L12.8129554,19.4838779 C12.8129554,19.8662816 13.2169437,20.1154886 13.5586146,19.94577 L15.679553,18.8844922 C16.0298195,18.710477 16.2490046,18.351705 16.2490046,17.9628563 L16.2490046,15.7199939 C17.8090869,14.7253145 18.999563,13.391198 18.999563,11.1848573 C19.0017119,10.6434768 19.0017119,10.1020962 18.8534396,9.41033211 Z M16.5949733,12.437337 C16.0255217,12.437337 15.5635139,11.9754448 15.5635139,11.4061359 C15.5635139,10.836827 16.0255217,10.3749348 16.5949733,10.3749348 C17.1644248,10.3749348 17.6264327,10.836827 17.6264327,11.4061359 C17.6264327,11.9754448 17.1644248,12.437337 16.5949733,12.437337 Z" id="Shape" fill="#FFFFFF" fill-rule="nonzero"></path>
                </g>
            </g>
        </g>
    </g>
</svg>