<?xml version="1.0" encoding="UTF-8"?>
<svg width="512px" height="512px" viewBox="0 0 512 512" version="1.1" xmlns="http://www.w3.org/2000/svg" xmlns:xlink="http://www.w3.org/1999/xlink">
    <!-- Generator: Sketch 52.1 (67048) - http://www.bohemiancoding.com/sketch -->
    <title>rocket-solid</title>
    <desc>Created with Sketch.</desc>
    <g id="Page-1" stroke="none" stroke-width="1" fill="none" fill-rule="evenodd">
        <g id="rocket-solid" fill="#FFFFFF" fill-rule="nonzero">
            <path d="M505.075716,19.1 C503.775716,13 498.975716,8.2 492.875716,6.9 C460.675716,0 435.475716,0 410.375716,0 C307.175716,0 245.275716,55.2 199.075716,128 L94.8757159,128 C76.6757159,128 60.0757159,138.3 51.9757159,154.5 L2.57571589,253.3 C-5.42428411,269.3 6.17571589,288 24.0757159,288 L119.175716,288 C113.275716,300.8 107.275716,313.5 101.175716,325.7 C98.0757159,331.9 99.2757159,339.3 104.175716,344.2 L167.775716,407.8 C172.675716,412.7 180.075716,413.9 186.275716,410.8 C198.475716,404.7 211.175716,398.8 223.975716,392.9 L223.975716,488 C223.975716,505.8 242.775716,517.4 258.675716,509.5 L357.375716,460.1 C373.675716,452 383.875716,435.3 383.875716,417.2 L383.875716,312.8 C456.475716,266.5 511.875716,204.4 511.875716,101.7 C511.975716,76.5 511.975716,51.3 505.075716,19.1 Z M399.975716,160 C373.475716,160 351.975716,138.5 351.975716,112 C351.975716,85.5 373.475716,64 399.975716,64 C426.475716,64 447.975716,85.5 447.975716,112 C447.975716,138.5 426.475716,160 399.975716,160 Z" id="Shape"></path>
        </g>
    </g>
</svg>