<?xml version="1.0" encoding="UTF-8"?>
<svg width="22px" height="23px" viewBox="0 0 22 23" version="1.1" xmlns="http://www.w3.org/2000/svg" xmlns:xlink="http://www.w3.org/1999/xlink">
    <!-- Generator: Sketch 52.1 (67048) - http://www.bohemiancoding.com/sketch -->
    <title>Icon/System/Checkmark</title>
    <desc>Created with Sketch.</desc>
    <defs>
        <linearGradient x1="50%" y1="0%" x2="50%" y2="100%" id="linearGradient-1">
            <stop stop-color="#2FD0C1" stop-opacity="0.85" offset="0%"></stop>
            <stop stop-color="#2FD0C1" offset="100%"></stop>
        </linearGradient>
        <linearGradient x1="50%" y1="43.1857557%" x2="50%" y2="213.138199%" id="linearGradient-2">
            <stop stop-color="#FFFFFF" stop-opacity="0.85" offset="0%"></stop>
            <stop stop-color="#2FD0C1" offset="100%"></stop>
        </linearGradient>
    </defs>
    <g id="Icon/System/Checkmark" stroke="none" stroke-width="1" fill="none" fill-rule="evenodd">
        <g id="Group-17" transform="translate(0.000000, 1.000000)">
            <rect id="Rectangle-6" x="6" y="5" width="14" height="14"></rect>
            <path d="M11,0 C4.92451081,0 0,4.92539004 0,10.9994336 C0,17.07461 4.92451081,22 11,22 C17.0754892,22 22,17.07461 22,10.9994336 C22,4.92539004 17.0754892,0 11,0 L11,0 Z" id="checkocircle" fill="url(#linearGradient-1)"></path>
            <g id="done-tick" transform="translate(6.000000, 7.000000)" fill="url(#linearGradient-2)">
                <path d="M10.5866109,0.513488495 L10.2920716,0.272792669 C9.80316151,-0.126845179 9.06847301,-0.0822987437 8.63682446,0.373000815 L3.70954891,5.56974359 L2.22222862,4.35128764 C1.73383437,3.95120177 0.999033731,3.99485216 0.566869305,4.44966102 L0.306444708,4.72376667 C0.0952520451,4.94592282 -0.0144039584,5.23897351 0.00152072202,5.53831787 C0.0176024063,5.83749156 0.157919027,6.11836025 0.391832396,6.31916056 L3.11816011,8.69392506 C3.35420425,8.90477392 3.67054466,9.01473193 3.99388296,8.99841104 C4.31722126,8.98213281 4.61952103,8.84083442 4.83073613,8.60737099 L10.7126626,2.10653559 C10.9181583,1.8794085 11.020323,1.58396835 10.9966378,1.28524269 C10.9729751,0.986303678 10.825526,0.708741836 10.5866109,0.513488495 Z" id="Path"></path>
            </g>
        </g>
    </g>
</svg>