<?xml version="1.0" encoding="UTF-8"?>
<svg width="14px" height="14px" viewBox="0 0 14 14" version="1.1" xmlns="http://www.w3.org/2000/svg" xmlns:xlink="http://www.w3.org/1999/xlink">
    <!-- Generator: Sketch 52.1 (67048) - http://www.bohemiancoding.com/sketch -->
    <title>Group 17</title>
    <desc>Created with Sketch.</desc>
    <defs>
        <linearGradient x1="50%" y1="0%" x2="50%" y2="100%" id="linearGradient-1">
            <stop stop-color="#279745" stop-opacity="0.85" offset="0%"></stop>
            <stop stop-color="#279745" offset="100%"></stop>
        </linearGradient>
        <path d="M7,0 C3.13377961,0 0,3.13433912 0,6.99963957 C0,10.8656609 3.13377961,14 7,14 C10.8662204,14 14,10.8656609 14,6.99963957 C14,3.13433912 10.8662204,0 7,0 L7,0 Z M7.03393454,12.6 C3.94138086,12.6 1.4343,10.0929191 1.4343,6.99963454 C1.4343,3.90708086 3.94138086,1.4 7.03393454,1.4 C10.1272191,1.4 12.6343,3.90708086 12.6343,6.99963454 C12.6343,10.0929191 10.1272191,12.6 7.03393454,12.6 L7.03393454,12.6 Z M6.01840302,9.625 C5.87637489,9.625 5.73419911,9.56853404 5.62585283,9.45551663 L3.66264247,7.40921572 C3.44578584,7.18318089 3.44578584,6.8167678 3.66264247,6.59073298 C3.8794991,6.36469815 4.23103389,6.36469815 4.44789052,6.59073298 L6.01840302,8.22771556 L9.55212589,4.54450047 C9.76898251,4.31853405 10.1205993,4.31846564 10.3373083,4.54450047 C10.5542306,4.7705353 10.5542306,5.13703389 10.3373083,5.36298321 L6.41103525,9.45551663 C6.30260694,9.56846564 6.16049678,9.625 6.01840302,9.625 Z" id="path-2"></path>
    </defs>
    <g id="Symbols" stroke="none" stroke-width="1" fill="none" fill-rule="evenodd">
        <g id="Icon/System/Checkmark" transform="translate(-1.000000, -1.000000)">
            <g id="Group-17" transform="translate(1.000000, 1.000000)">
                <rect id="Rectangle-6" x="0" y="0" width="14" height="14"></rect>
                <g id="checkocircle">
                    <use fill="#FFFFFF" xlink:href="#path-2"></use>
                    <use fill="url(#linearGradient-1)" xlink:href="#path-2"></use>
                </g>
            </g>
        </g>
    </g>
</svg>