<?xml version="1.0" encoding="UTF-8"?>
<svg width="26px" height="21px" viewBox="0 0 26 21" version="1.1" xmlns="http://www.w3.org/2000/svg" xmlns:xlink="http://www.w3.org/1999/xlink">
    <!-- Generator: Sketch 52.1 (67048) - http://www.bohemiancoding.com/sketch -->
    <title>Shape</title>
    <desc>Created with Sketch.</desc>
    <g id="Page-1" stroke="none" stroke-width="1" fill="none" fill-rule="evenodd">
        <g id="Artboard" transform="translate(-1010.000000, -204.000000)" fill="#FED317" fill-rule="nonzero">
            <g id="Group" transform="translate(986.000000, 185.000000)">
                <path d="M49.7712084,37.70499 L38.3642024,19.731987 C38.0759169,19.2777517 37.558303,19 36.9999624,19 C36.4416219,19 35.924008,19.2777035 35.6357225,19.731987 L24.2288181,37.70499 C23.9321536,38.1724447 23.9233685,38.7554966 24.2059157,39.2307671 C24.4884629,39.7060859 25.0184675,40 25.5930072,40 L48.4069684,40 C48.9815082,40 49.5115127,39.7060376 49.79406,39.2307671 C50.0766072,38.7554483 50.0678728,38.1724447 49.7712084,37.70499 Z M37.0084937,25.2170653 C37.6636234,25.2170653 38.2179522,25.568199 38.2179522,26.1905714 C38.2179522,28.0896754 37.9827839,30.8187539 37.9827839,32.7178579 C37.9827839,33.2126198 37.4116465,33.4200289 37.0084937,33.4200289 C36.4710243,33.4200289 36.0174456,33.2125715 36.0174456,32.7178579 C36.0174456,30.8187539 35.7823281,28.0896754 35.7823281,26.1905714 C35.7823281,25.568199 36.3197975,25.2170653 37.0084937,25.2170653 Z M37.0253023,36.9789855 C36.2862311,36.9789855 35.7318515,36.4044731 35.7318515,35.750162 C35.7318515,35.0798815 36.2861803,34.5213385 37.0253023,34.5213385 C37.7139985,34.5213385 38.3019445,35.0798815 38.3019445,35.750162 C38.3019445,36.4044731 37.7139985,36.9789855 37.0253023,36.9789855 Z" id="Shape"></path>
            </g>
        </g>
    </g>
</svg>