<?xml version="1.0" encoding="UTF-8"?>
<svg viewBox="0 0 16 16" version="1.1" xmlns="http://www.w3.org/2000/svg" xmlns:xlink="http://www.w3.org/1999/xlink">
  <defs>
    <path
      d="M12,0 C14.209139,0 16,1.790861 16,4 L16,12 C16,14.209139 14.209139,16 12,16 L4,16 C1.790861,16 0,14.209139 0,12 L0,4 C0,1.790861 1.790861,0 4,0 L12,0 Z M12,1.5 L4,1.5 C2.61928813,1.5 1.5,2.61928813 1.5,4 L1.5,12 C1.5,13.3807119 2.61928813,14.5 4,14.5 L12,14.5 C13.3807119,14.5 14.5,13.3807119 14.5,12 L14.5,4 C14.5,2.61928813 13.3807119,1.5 12,1.5 Z M11.75494,7.50388 C12.1691536,7.50388 12.50494,7.83966644 12.50494,8.25388 L12.50494,11.00508 C12.50494,11.4192936 12.1691536,11.75508 11.75494,11.75508 C11.3407264,11.75508 11.00494,11.4192936 11.00494,11.00508 L11.00494,8.25388 C11.00494,7.83966644 11.3407264,7.50388 11.75494,7.50388 Z M6.82339762,4.2525 C7.25368462,4.25282012 7.63555133,4.52833592 7.7714526,4.93639954 L9.7152526,10.7678095 C9.84623822,11.1607671 9.63386801,11.585507 9.24091046,11.7164926 C8.8479529,11.8474782 8.42321303,11.635108 8.2922274,11.2421505 L7.941,10.188 L5.064,10.188 L4.71317223,11.2421516 C4.59310152,11.6023625 4.22619587,11.8108295 3.86320154,11.7421797 L3.76448844,11.7164922 C3.37153109,11.585506 3.15916154,11.1607658 3.29014777,10.7678084 L5.23389482,4.93658738 C5.36985252,4.52835438 5.75167591,4.25282014 6.18254,4.2525 L6.82339762,4.2525 Z M6.50266,5.8735 L5.564,8.688 L7.441,8.688 L6.50266,5.8735 Z M11.75494,5.15288 L11.86589,5.1619 L11.9519325,5.17731664 C12.2670142,5.25710506 12.5075734,5.52386168 12.5487074,5.85255796 L12.55494,5.9529 C12.55494,6.39471383 12.1967833,6.75292 11.75494,6.75292 C11.3132438,6.75292 10.95484,6.39496116 10.95484,5.9529 C10.95484,5.57887343 11.2114345,5.26501952 11.5579897,5.17730178 L11.6531694,5.15972662 L11.75494,5.15288 Z"
      id="path-1"></path>
  </defs>
  <g id="Icon/System/AI" stroke="none" stroke-width="1" fill="none" fill-rule="evenodd">
    <g id="Combined-Shape">
      <use fill="currentColor" xlink:href="#path-1"></use>
      <use fill-opacity="0.85" fill="currentColor" xlink:href="#path-1"></use>
    </g>
  </g>
</svg>