<svg viewBox="0 0 16 14" fill="none" xmlns="http://www.w3.org/2000/svg">
  <path fill-rule="evenodd" clip-rule="evenodd"
    d="M2.33814 1.20642C2.96292 0.480768 3.92856 0 5.25024 0C5.66446 0 6.00024 0.335786 6.00024 0.75C6.00024 1.16421 5.66446 1.5 5.25024 1.5C4.32193 1.5 3.78757 1.82193 3.47485 2.18513C3.14263 2.57099 3.00024 3.07526 3.00024 3.5V4.39004C3.00024 5.37369 2.61448 6.30724 1.94302 7C2.61448 7.69276 3.00024 8.62631 3.00024 9.60996V10.5C3.00024 10.9247 3.14263 11.429 3.47485 11.8149C3.78757 12.1781 4.32193 12.5 5.25024 12.5C5.66446 12.5 6.00024 12.8358 6.00024 13.25C6.00024 13.6642 5.66446 14 5.25024 14C3.92856 14 2.96292 13.5192 2.33814 12.7936C1.73286 12.0906 1.50024 11.2199 1.50024 10.5V9.60996C1.50024 8.8707 1.1371 8.1786 0.528782 7.75852L0.324065 7.61715C0.121293 7.47712 0.000244141 7.24642 0.000244141 7C0.000244141 6.75358 0.121293 6.52288 0.324065 6.38285L0.528782 6.24148C1.1371 5.8214 1.50024 5.12931 1.50024 4.39004V3.5C1.50024 2.78014 1.73286 1.90942 2.33814 1.20642ZM10.7502 0C12.0719 0 13.0376 0.480768 13.6624 1.20642C14.2676 1.90942 14.5002 2.78014 14.5002 3.5V4.39004C14.5002 5.12931 14.8634 5.8214 15.4717 6.24148L15.6764 6.38285C15.8792 6.52288 16.0002 6.75358 16.0002 7C16.0002 7.24642 15.8792 7.47712 15.6764 7.61715L15.4717 7.75852C14.8634 8.1786 14.5002 8.8707 14.5002 9.60996V10.5C14.5002 11.2199 14.2676 12.0906 13.6624 12.7936C13.0376 13.5192 12.0719 14 10.7502 14C10.336 14 10.0002 13.6642 10.0002 13.25C10.0002 12.8358 10.336 12.5 10.7502 12.5C11.6786 12.5 12.2129 12.1781 12.5256 11.8149C12.8579 11.429 13.0002 10.9247 13.0002 10.5V9.60996C13.0002 8.62631 13.386 7.69276 14.0575 7C13.386 6.30724 13.0002 5.37369 13.0002 4.39004V3.5C13.0002 3.07526 12.8579 2.57099 12.5256 2.18513C12.2129 1.82193 11.6786 1.5 10.7502 1.5C10.336 1.5 10.0002 1.16421 10.0002 0.75C10.0002 0.335786 10.336 0 10.7502 0Z"
    fill="currentColor" />
  <path fill-rule="evenodd" clip-rule="evenodd"
    d="M4.00024 7C4.00024 6.44771 4.44796 6 5.00024 6C5.55253 6 6.00024 6.44771 6.00024 7C6.00024 7.55229 5.55253 8 5.00024 8C4.44796 8 4.00024 7.55229 4.00024 7ZM7.00024 7C7.00024 6.44771 7.44796 6 8.00024 6C8.55253 6 9.00024 6.44771 9.00024 7C9.00024 7.55229 8.55253 8 8.00024 8C7.44796 8 7.00024 7.55229 7.00024 7ZM11.0002 6C10.448 6 10.0002 6.44771 10.0002 7C10.0002 7.55229 10.448 8 11.0002 8C11.5525 8 12.0002 7.55229 12.0002 7C12.0002 6.44771 11.5525 6 11.0002 6Z"
    fill="currentColor" />
</svg>