<svg viewBox="0 0 16 16" fill="none" xmlns="http://www.w3.org/2000/svg">
  <g>
    <path
      d="M11.6032 0.199951C13.921 0.199951 15.8 2.07898 15.8 4.39675V11.604C15.8 13.9211 13.9208 15.8 11.6032 15.8H4.39681C2.07904 15.8 0.200012 13.9209 0.200012 11.6032V4.39995C0.200012 2.08058 2.08064 0.199951 4.40001 0.199951H11.6032ZM11.6032 1.39995H4.40001C2.74338 1.39995 1.40001 2.74332 1.40001 4.39995V11.6032C1.40001 13.2582 2.74178 14.6 4.39681 14.6H11.6032C13.2581 14.6 14.6 13.2583 14.6 11.604V4.39675C14.6 2.74172 13.2582 1.39995 11.6032 1.39995ZM6.65251 4.49581L6.70401 4.49915L6.72167 4.50039L6.76561 4.50875L6.79732 4.51478L6.80401 4.51675L6.83201 4.52555L6.87028 4.53862L6.87601 4.54155L6.88563 4.54502L6.91441 4.55915L6.93964 4.57153L6.94721 4.57595L6.95821 4.5823L6.98401 4.59995L7.00443 4.61313L7.0236 4.62788L7.04161 4.64395L7.06374 4.66305L7.07441 4.67515L7.0814 4.68083L7.09601 4.69915L7.1166 4.72092L7.12081 4.72795L7.13124 4.74019L7.14881 4.76795L7.1621 4.78636L7.16721 4.79755L7.17276 4.80504L7.17921 4.81995L7.19929 4.859L9.06561 9.19995L9.07286 9.21448L9.07761 9.22795L9.47932 10.163C9.59928 10.4421 9.49105 10.7618 9.23768 10.914L9.16505 10.9512C8.86061 11.082 8.50773 10.9413 8.37686 10.6369L8.12401 10.048H5.16481L4.9109 10.6376C4.79058 10.9165 4.48389 11.0576 4.19924 10.9781L4.12232 10.9509C3.81805 10.8196 3.67779 10.4666 3.80905 10.1623L4.20161 9.25035L4.21513 9.21448L4.23441 9.17435L6.09705 4.8583L6.11121 4.82875L6.12364 4.80438L6.12801 4.79595L6.13432 4.78571L6.15201 4.75915L6.16524 4.73958L6.1799 4.72033L6.19601 4.70155L6.21516 4.68028L6.22721 4.66875L6.23285 4.66253L6.25121 4.64715L6.27303 4.62741L6.28001 4.62235L6.29221 4.61268L6.32001 4.59435L6.33847 4.58191L6.34961 4.57595L6.35706 4.57116L6.37681 4.56155L6.4111 4.54472L6.42001 4.54075L6.47121 4.52315L6.48807 4.5176L6.49201 4.51675L6.53041 4.50875L6.56611 4.50142L6.57281 4.49995L6.59201 4.49915L6.64429 4.49581H6.65251ZM11.16 7.39995C11.4914 7.39995 11.76 7.66858 11.76 7.99995V10.4C11.76 10.7313 11.4914 11 11.16 11C10.8286 11 10.56 10.7313 10.56 10.4V7.99995C10.56 7.66858 10.8286 7.39995 11.16 7.39995ZM11.16 5.65542C11.4914 5.65542 11.76 5.92405 11.76 6.25542C11.76 6.58679 11.4914 6.85542 11.16 6.85542C10.8286 6.85542 10.56 6.58679 10.56 6.25542C10.56 5.92405 10.8286 5.65542 11.16 5.65542ZM6.64721 6.61195L5.68241 8.84795H7.60801L6.64721 6.61195Z"
      fill="currentColor" />
  </g>
</svg>