<?xml version="1.0" encoding="UTF-8"?>
<svg width="16px" height="16px" viewBox="0 0 16 16" version="1.1" xmlns="http://www.w3.org/2000/svg"
  xmlns:xlink="http://www.w3.org/1999/xlink">
  <title>Icon/System/Apperance</title>
  <defs>
    <path
      d="M4.63894977,0 C5.4131191,0 6.09817041,0.381558241 6.51629928,0.966877512 C7.2006074,0.572029175 8.07093788,0.541999687 8.8068534,0.961412592 L11.0519032,2.24098509 C11.5869219,2.54596127 11.9777413,3.05233809 12.1372405,3.64733634 L12.164128,3.7699093 C12.8697884,3.84903612 13.5212295,4.25256555 13.8985133,4.89739326 L15.1845848,7.09643494 C15.4955145,7.6280468 15.5808573,8.26204782 15.4214924,8.85685929 C15.2621289,9.45178095 14.8713754,9.95821237 14.3362694,10.2632729 L6.51782597,14.7195312 C5.61971268,15.2314368 4.60369621,15.5004442 3.56998416,15.5000005 L3.5440086,15.4994465 C3.52000432,15.4998269 3.49597035,15.5000119 3.47190867,15.5000004 L3.4471805,15.4998331 C1.54104554,15.4863501 0,13.9370368 0,12.0277571 L0,2.305546 C0,1.03222298 1.03224445,0 2.30557835,0 Z M4.63894977,1.5 L2.30557835,1.5 C1.86066459,1.5 1.5,1.86065709 1.5,2.305546 L1.5,12.0277571 C1.5,13.1169628 2.38299475,13.9999218 3.44980238,14.0002581 L3.546,13.997 L3.60022193,13.995864 C4.58192092,13.9333546 5.36270156,13.1539573 5.43849313,12.1829646 L5.44452813,12.0277571 L5.44452813,2.305546 C5.44452813,1.86065709 5.08386354,1.5 4.63894977,1.5 Z M3.47114691,11.0833165 C3.72197266,11.0829401 3.96253943,11.182392 4.14045689,11.3600034 C4.28823054,11.5078369 4.38195186,11.6996201 4.40891261,11.9045817 L4.41697603,12.0289686 C4.41629621,12.5501549 3.99353293,12.9721972 3.47189568,12.9721972 C2.95074453,12.9718197 2.52830682,12.5493674 2.52808012,12.0281607 C2.5278537,11.5068236 2.95000629,11.0840726 3.47114691,11.0833165 Z M11.9784255,5.2588369 L11.9003542,5.4078642 L7.937,12.183 L13.5934457,8.96011792 C13.7803634,8.8535573 13.916891,8.6766124 13.9725855,8.46869853 C14.0282382,8.26098104 13.9984203,8.03946765 13.8897758,7.85371283 L12.603764,5.65477312 C12.4685047,5.42359725 12.2323873,5.28116084 11.9784255,5.2588369 Z M6.96976562,2.55793566 L6.944,2.6 L6.944,10.91 L10.6055666,4.65054992 C10.6390496,4.59331232 10.665044,4.53267696 10.6833562,4.47009323 C10.6845897,4.43602675 10.6919761,4.40334206 10.7014691,4.3713624 C10.7234028,4.26087161 10.71801,4.14628217 10.6883593,4.03559294 C10.6326283,3.82769333 10.4960323,3.65070859 10.3091076,3.54415607 L8.06411143,2.26461417 C7.68061108,2.04604969 7.19263106,2.17680908 6.96976562,2.55793566 Z"
      id="path-2"></path>
  </defs>
  <g id="Icon/System/Apperance" stroke="none" stroke-width="1" fill="none" fill-rule="evenodd">
    <g id="Combined-Shape" transform="translate(0.250000, 0.250000)">
      <use fill="currentColor" xlink:href="#path-2"></use>
    </g>
  </g>
</svg>