<svg viewBox="0 0 10 6" version="1.1" xmlns="http://www.w3.org/2000/svg" xmlns:xlink="http://www.w3.org/1999/xlink">
  <g stroke="none" stroke-width="1" fill="none" fill-rule="evenodd">
    <g transform="translate(-3.000000, -5.000000)">
      <g transform="translate(8.000003, 8.000000) scale(1, -1) translate(-8.000003, -8.000000) ">
        <path fill="currentColor" d="M12.7603402,5.20040797 C12.4568102,4.91855587 12.0818602,4.93613207 11.8000102,5.23966497 L8.36640016,8.253479 C8.16858016,8.466509 7.83142016,8.466509 7.63361016,8.253479 L4.20001016,5.23966497 C3.91815416,4.93613207 3.54319816,4.91855587 3.23966516,5.20040797 C2.93613196,5.48225997 2.91855626,5.85646797 3.20040816,6.16000397 L7.45041016,10.760344 C7.59232016,10.913164 7.79145016,11 8.00000016,11 C8.20856016,11 8.40769016,10.913164 8.54960016,10.760344 L12.7996002,6.16000397 C13.0814502,5.85646697 13.0638702,5.48225997 12.7603402,5.20040797 Z"></path>
      </g>
    </g>
  </g>
</svg>
