<svg width="16" height="16" viewBox="0 0 16 16" xmlns="http://www.w3.org/2000/svg" xmlns:xlink="http://www.w3.org/1999/xlink">
    <path fill="currentColor" d="M8.5 2.213c-.003-.383.126-.562.215-.631.08-.062.262-.14.617-.021l.003.001 3.246 1.064h.001c.22.073.457.249.642.5.185.253.276.524.276.742v.848c0 .356-.135.567-.27.67-.13.098-.348.167-.674.063l-3.24-1.13-.01-.004c-.428-.142-.806-.69-.806-1.243v-.859zm.056 3.414a2.48 2.48 0 0 0 .271.11l3.243 1.13.015.006c.736.24 1.482.14 2.052-.293.564-.428.863-1.113.863-1.864v-.848c0-.6-.233-1.175-.567-1.63-.335-.456-.814-.849-1.38-1.036L13.05 1.2 9.804.137C9.094-.099 8.364-.04 7.8.394 7.244.822 6.996 1.504 7 2.22V9.25a3.75 3.75 0 1 0 1.5 3.104V5.6l.056.027zM4.75 10a2.25 2.25 0 1 1 0 4.5 2.25 2.25 0 0 1 0-4.5z" />
</svg>
