<?xml version="1.0" encoding="UTF-8"?>
<svg viewBox="0 0 16 16" version="1.1" xmlns="http://www.w3.org/2000/svg" xmlns:xlink="http://www.w3.org/1999/xlink">
            <defs>
        <path d="M1.68421053,0 L14.3157895,0 C15.2459533,0 16,0.754046737 16,1.68421053 L16,9.26315789 C16,11.1234855 14.4919065,12.6315789 12.6315789,12.6315789 L3.36842105,12.6315789 C1.50809347,12.6315789 3.73969861e-16,11.1234855 0,9.26315789 L0,1.68421053 C0,0.754046737 0.754046737,0 1.68421053,0 Z M2.10526316,1.26315789 C1.64018126,1.26315789 1.26315789,1.64018126 1.26315789,2.10526316 L1.26315789,8.84210526 C1.26315789,9.30718716 1.64018126,9.68421053 2.10526316,9.68421053 L13.8947368,9.68421053 C14.3598187,9.68421053 14.7368421,9.30718716 14.7368421,8.84210526 L14.7368421,2.10526316 C14.7368421,1.64018126 14.3598187,1.26315789 13.8947368,1.26315789 L2.10526316,1.26315789 Z M7.43659107,13.8947368 L8.56340893,13.8947368 C9.02128837,13.8947368 9.4705593,14.0191777 9.86318768,14.2547547 L11.1639982,15.035241 C11.2908215,15.111335 11.3684211,15.2483905 11.3684211,15.3962907 L11.3684211,15.5789474 C11.3684211,15.8114883 11.1799094,16 10.9473684,16 L5.05263158,16 C4.82009063,16 4.63157895,15.8114883 4.63157895,15.5789474 L4.63157895,15.3962907 C4.63157895,15.2483905 4.70917846,15.111335 4.83600179,15.035241 L6.13681232,14.2547547 C6.5294407,14.0191777 6.97871163,13.8947368 7.43659107,13.8947368 Z" id="path-2"></path>
    </defs>
    <g id="Symbols" stroke="none" stroke-width="1" fill="none" fill-rule="evenodd">
        <g id="Icon/Editor/Display">
            <g id="Group-9">
                <g id="Combined-Shape">
                    <use fill="currentColor" xlink:href="#path-2"></use>
                </g>
            </g>
        </g>
    </g>
</svg>