<svg width="16" height="16" viewBox="0 0 16 16" fill="none" xmlns="http://www.w3.org/2000/svg">
  <path fill-rule="evenodd" clip-rule="evenodd"
    d="M8.05485 0.688738C8.89641 0.0169705 10.023 -0.178792 11.0421 0.169593C12.0612 0.518015 12.8319 1.36248 13.0891 2.42468C13.0967 2.45949 13.1241 2.48673 13.1513 2.49262C14.3114 2.72802 15.2783 3.52492 15.7304 4.61839C16.1826 5.71201 16.0606 6.9588 15.4004 7.95089C15.3818 7.97811 15.3818 8.01384 15.4049 8.04784C16.0606 9.03316 16.1826 10.28 15.7304 11.3736C15.2783 12.467 14.3113 13.264 13.1592 13.4977C13.1241 13.5052 13.0967 13.5325 13.086 13.581C12.8351 14.6293 12.0656 15.4765 11.046 15.8272C10.0265 16.1779 8.89837 15.9834 8.05135 15.3084C8.02152 15.2843 7.97873 15.2843 7.9454 15.3113C7.10388 15.983 5.97735 16.1788 4.95821 15.8304C3.93904 15.482 3.16838 14.6375 2.9227 13.6209L2.9079 13.5639C2.89738 13.5346 2.87205 13.5124 2.84903 13.5074C1.68912 13.2722 0.722239 12.4755 0.269904 11.3823C-0.182464 10.289 -0.0608174 9.04226 0.599541 8.04927C0.618211 8.02195 0.618211 7.98615 0.594365 7.95115C-0.0608196 6.96574 -0.18246 5.71912 0.269906 4.62577C0.722218 3.53255 1.68908 2.73594 2.84104 2.50234C2.87618 2.4948 2.90355 2.46755 2.91456 2.418C3.16675 1.37068 3.93686 0.524794 4.95625 0.175239C5.97553 -0.17428 7.10286 0.0208229 7.94892 0.695608C7.97874 0.719717 8.02151 0.719717 8.04364 0.700129L8.05485 0.688738ZM6.91084 1.73747C6.47461 1.45126 5.92727 1.37995 5.42805 1.55114C4.87904 1.7394 4.46442 2.19481 4.33208 2.74376C4.2025 3.33578 3.73877 3.7974 3.13815 3.92619L2.98205 3.9641C2.36643 4.13871 1.86062 4.58568 1.61395 5.18186C1.34679 5.82759 1.41862 6.56377 1.80044 7.13813L1.88222 7.27193C2.15486 7.7737 2.128 8.39066 1.8056 8.86232L1.71543 9.01088C1.40901 9.56635 1.36905 10.2343 1.61395 10.8262C1.88117 11.4721 2.45256 11.9428 3.14613 12.0835L3.28643 12.1206C3.74543 12.2654 4.11436 12.6204 4.29128 13.117L4.37246 13.3993C4.54147 13.8922 4.92976 14.2835 5.42869 14.4541C5.97776 14.6418 6.58472 14.5363 7.03446 14.1773L7.15018 14.0923C7.31582 13.9821 7.49777 13.9074 7.68542 13.8681L7.68552 2.1364C7.49858 2.09751 7.31763 2.02341 7.15323 1.91418L6.91084 1.73747ZM10.5715 1.54593C10.0225 1.35824 9.41554 1.46371 8.96228 1.82552L9 1.797V14.202L9.08929 14.2664C9.47737 14.5207 9.95324 14.6051 10.4049 14.5L10.5729 14.4517C11.122 14.2629 11.5363 13.8067 11.6682 13.2562C11.7978 12.6642 12.2615 12.2026 12.8621 12.0738L13.0182 12.0359C13.6338 11.8612 14.1397 11.4141 14.3862 10.8178C14.6533 10.1719 14.5812 9.4356 14.1985 8.86041L14.1171 8.72681C13.8454 8.2258 13.8723 7.61013 14.194 7.13832L14.2842 6.98976C14.5909 6.43426 14.631 5.76624 14.3862 5.17417C14.1191 4.52818 13.5477 4.05725 12.8541 3.91646L12.7198 3.88128C12.1921 3.71762 11.7881 3.28337 11.6718 2.75147C11.5354 2.18825 11.1204 1.73358 10.5715 1.54593ZM12.3573 9C12.7123 9 13 9.28787 13 9.64297C13 9.96579 12.7622 10.233 12.4523 10.279L12.3573 10.2859C11.8047 10.2859 11.3499 10.7038 11.2917 11.2403L11.2854 11.357C11.2854 11.7121 10.9976 12 10.6427 12C10.2877 12 10 11.7121 10 11.357C10 10.0552 11.0555 9 12.3573 9ZM3.6427 9C4.94449 9 6 10.0552 6 11.357C6 11.7121 5.71225 12 5.3573 12C5.03461 12 4.76747 11.7621 4.72156 11.452L4.71459 11.357C4.71459 10.805 4.29663 10.3504 3.75951 10.2922L3.6427 10.2859C3.28775 10.2859 3 9.99807 3 9.64297C3 9.28787 3.28775 9 3.6427 9ZM5.3573 4C5.71225 4 6 4.28786 6 4.64296C6 5.94482 4.9445 7 3.6427 7C3.28775 7 3 6.71214 3 6.35704C3 6.03422 3.23781 5.76697 3.54773 5.72105L3.6427 5.71408C4.19532 5.71408 4.65012 5.29624 4.70831 4.75965L4.71459 4.64296C4.71459 4.28786 5.00234 4 5.3573 4ZM10.6427 4C10.9654 4 11.2325 4.2379 11.2784 4.54795L11.2854 4.64296C11.2854 5.195 11.7033 5.64963 12.2405 5.70779L12.3573 5.71408C12.7123 5.71408 13 6.00194 13 6.35704C13 6.71214 12.7123 7 12.3573 7C11.0555 7 10 5.94483 10 4.64296C10 4.28786 10.2877 4 10.6427 4Z"
    fill="currentColor" />
</svg>