<svg viewBox="0 0 17 16" xmlns="http://www.w3.org/2000/svg" xmlns:xlink="http://www.w3.org/1999/xlink">
  <path
    d="M0 5.75A4.75 4.75 0 0 1 4.75 1h6.5a4.75 4.75 0 0 1 2.733 8.635c-.257.182-.604.125-.823-.101-.347-.359-.213-.967.17-1.287A3.25 3.25 0 0 0 11.25 2.5h-6.5a3.25 3.25 0 0 0-1.333 6.215c.33.148.583.453.583.814 0 .479-.432.848-.881.683A4.752 4.752 0 0 1 0 5.75zm5.5 1.76c0-1.357 1.662-2.022 2.608-1.044l4.983 5.153c.398.398.519.995.304 1.515-.217.524-.73.866-1.3.866H9.94a1 1 0 0 0-.698.284l-1.354 1.318a1.41 1.41 0 0 1-1.527.289 1.396 1.396 0 0 1-.86-1.287V7.509zm1.51-.004v6.846l1.686-1.64a.758.758 0 0 1 .528-.213h2.622L7.024 7.512a.018.018 0 0 0-.013-.006z"
    fill="currentColor"
  />
</svg>
