<?xml version="1.0" encoding="UTF-8"?>
<svg width="16px" height="16px" viewBox="0 0 16 16" version="1.1" xmlns="http://www.w3.org/2000/svg" xmlns:xlink="http://www.w3.org/1999/xlink">
    <path fill="currentColor" d="M1.5,2.75 C1.5,2.05963 2.05963,1.5 2.75,1.5 L3.25,1.5 C3.66422,1.5 4,1.16418 4,0.75 C4,0.335815 3.66422,0 3.25,0 L2.75,0 C1.23123,0 0,1.2312 0,2.75 L0,3.25 C0,3.66418 0.335785,4 0.75,4 C1.16422,4 1.5,3.66418 1.5,3.25 L1.5,2.75 Z M12.75,0 C12.3358,0 12,0.335815 12,0.75 C12,1.16418 12.3358,1.5 12.75,1.5 L13.25,1.5 C13.9404,1.5 14.5,2.05963 14.5,2.75 L14.5,3.25 C14.5,3.66418 14.8358,4 15.25,4 C15.6642,4 16,3.66418 16,3.25 L16,2.75 C16,1.2312 14.7688,0 13.25,0 L12.75,0 Z M1.5,12.75 C1.5,12.3358 1.16422,12 0.75,12 C0.335785,12 0,12.3358 0,12.75 L0,13.25 C0,14.7688 1.23123,16 2.75,16 L3.25,16 C3.66422,16 4,15.6642 4,15.25 C4,14.8358 3.66422,14.5 3.25,14.5 L2.75,14.5 C2.05963,14.5 1.5,13.9404 1.5,13.25 L1.5,12.75 Z M16,12.75 C16,12.3358 15.6642,12 15.25,12 C14.8358,12 14.5,12.3358 14.5,12.75 L14.5,13.25 C14.5,13.9404 13.9404,14.5 13.25,14.5 L12.75,14.5 C12.3358,14.5 12,14.8358 12,15.25 C12,15.6642 12.3358,16 12.75,16 L13.25,16 C14.7688,16 16,14.7688 16,13.25 L16,12.75 Z M7.07101,3.43143 C7.24696,3.05644 7.69357,2.89508 8.06856,3.07102 C9.82649,3.89582 11,5.82265 11,8 C11,10.1774 9.82649,12.1042 8.06856,12.929 C7.69357,13.1049 7.24696,12.9436 7.07101,12.5686 C6.89507,12.1936 7.05644,11.747 7.43143,11.571 C8.60803,11.019 9.49999,9.65869 9.49999,8 C9.49999,6.34132 8.60803,4.98103 7.43143,4.42898 C7.05644,4.25304 6.89507,3.80642 7.07101,3.43143 Z M5.04959,5.48178 C5.19773,5.09496 5.63139,4.90147 6.01821,5.04961 C7.19067,5.49861 7.99999,6.66299 7.99999,8 C7.99999,9.33702 7.19067,10.5014 6.01821,10.9504 C5.63139,11.0985 5.19773,10.905 5.04959,10.5182 C4.90146,10.1314 5.09495,9.69774 5.48177,9.54961 C6.05971,9.32828 6.49999,8.73088 6.49999,8 C6.49999,7.26913 6.05971,6.67173 5.48177,6.4504 C5.09495,6.30227 4.90146,5.8686 5.04959,5.48178 Z" ></path>
</svg>