<?xml version="1.0" encoding="UTF-8"?>
<svg viewBox="0 0 16 16" version="1.1" xmlns="http://www.w3.org/2000/svg" xmlns:xlink="http://www.w3.org/1999/xlink">
  <path d="M11.5,10 L11.5,6 C11.5,5.03778 11.4986,4.4164 11.4559,3.94549 C11.4151,3.4952 11.3462,3.33173 11.299,3.25 C11.1674,3.02197 10.978,2.83261 10.75,2.70096 C10.6683,2.65378 10.5048,2.58493 10.0545,2.54412 C9.5836,2.50144 8.96222,2.5 8,2.5 C7.03778,2.5 6.4164,2.50144 5.94549,2.54412 C5.4952,2.58493 5.33173,2.65378 5.25,2.70096 C5.02197,2.83261 4.83261,3.02197 4.70096,3.25 C4.65378,3.33173 4.58493,3.4952 4.54412,3.94549 C4.50144,4.4164 4.5,5.03778 4.5,6 L4.5,10 C4.5,10.96222 4.50144,11.5836 4.54412,12.0545 C4.58493,12.5048 4.65378,12.6683 4.70096,12.75 C4.83261,12.978 5.02197,13.1674 5.25,13.299 C5.33173,13.3462 5.4952,13.4151 5.94549,13.4559 C6.4164,13.4986 7.03778,13.5 8,13.5 C8.96222,13.5 9.5836,13.4986 10.0545,13.4559 C10.5048,13.4151 10.6683,13.3462 10.75,13.299 C10.978,13.1674 11.1674,12.978 11.299,12.75 C11.3462,12.6683 11.4151,12.5048 11.4559,12.0545 C11.4986,11.5836 11.5,10.96222 11.5,10 Z M3.40192,2.5 C3,3.19615 3,4.13077 3,6 L3,10 C3,11.8692 3,12.8038 3.40192,13.5 C3.66523,13.9561 4.04394,14.3348 4.5,14.5981 C5.19615,15 6.13077,15 8,15 C9.86923,15 10.8038,15 11.5,14.5981 C11.9561,14.3348 12.3348,13.9561 12.5981,13.5 C13,12.8038 13,11.8692 13,10 L13,6 C13,4.13077 13,3.19615 12.5981,2.5 C12.3348,2.04394 11.9561,1.665229 11.5,1.401924 C10.8038,1 9.86923,1 8,1 C6.13077,1 5.19615,1 4.5,1.401924 C4.04394,1.665229 3.66523,2.04394 3.40192,2.5 Z M14.5,3 C15.3284,3 16,3.67157 16,4.5 L16,11.5 C16,12.3284 15.3284,13 14.5,13 L14.5,3 Z M1.5,3 C0.671573,3 0,3.67157 0,4.5 L0,11.5 C0,12.3284 0.671573,13 1.5,13 L1.5,3 Z" fill="currentColor" stroke="none" stroke-width="1" fill-rule="evenodd"></path>
</svg>
