<?xml version="1.0" encoding="UTF-8"?>
<svg viewBox="0 0 16 16" version="1.1" xmlns="http://www.w3.org/2000/svg" xmlns:xlink="http://www.w3.org/1999/xlink">
  <path
    d="M15.6558737,6.79576635 C16.0370865,9.22850191 15.2558523,11.7089876 13.4828137,13.4803983 C10.9965564,15.9659172 7.18663617,16.4407136 4.19691762,14.7551373 C3.41707022,15.2534425 2.38493117,15.1958023 1.66279962,14.5828618 L1.53358118,14.4638396 L1.41429982,14.3346863 C0.698611619,13.4936599 0.738372074,12.2302323 1.53358118,11.4361393 C2.3700612,10.6008334 3.72559189,10.6008334 4.5620719,11.4361393 C5.13248506,12.0057518 5.31419214,12.8168543 5.10707307,13.5404415 C7.48775784,14.7881011 10.4644877,14.3768225 12.4224759,12.4194159 C13.8523845,10.9908202 14.4817865,8.99241447 14.1739578,7.0279845 C14.1098325,6.61876472 14.3895869,6.23504275 14.7988067,6.17091748 C15.2080265,6.10679221 15.5917484,6.38654658 15.6558737,6.79576635 Z M2.5934962,12.4975441 C2.34321396,12.747475 2.34321396,13.1525039 2.5934962,13.4024348 C2.84442385,13.6530103 3.25086998,13.6530103 3.50215688,13.4024348 C3.75243913,13.1525039 3.75243913,12.747475 3.50215688,12.4975441 C3.25129244,12.2470318 2.84436065,12.2470318 2.5934962,12.4975441 Z M10.1803572,5.81920401 C11.3847955,7.02368523 11.3847955,8.97647427 10.1803662,10.1808334 C8.97598285,11.3853521 7.02320992,11.3853521 5.81875998,10.1808696 C4.6143286,8.97646729 4.6143286,7.02369221 5.81875545,5.81918138 C7.0232169,4.61472846 8.97597587,4.61472846 10.1803572,5.81920401 Z M11.8031094,1.24494223 L11.8458764,1.21671784 C12.6693887,0.719710811 13.7554108,0.826212317 14.4664188,1.53622236 C15.303481,2.37210968 15.303481,3.72803539 14.4664188,4.56392271 C13.6299388,5.39922864 12.2744081,5.39922864 11.4379281,4.56392271 C10.8672517,3.99404733 10.6856402,3.18245911 10.8930937,2.45873883 C8.51152934,1.21212031 5.53527215,1.62333615 3.57764955,3.57974297 C2.14750693,5.00924839 1.51824027,7.00703308 1.82604218,8.97129192 C1.89016745,9.3805117 1.61041308,9.76423367 1.20119331,9.82835894 C0.791973531,9.89248421 0.408251554,9.61272984 0.344126283,9.20351007 C-0.0370524718,6.77099192 0.744017543,4.29126464 2.51727232,2.51879993 C5.00364533,0.0339710883 8.81357013,-0.440560268 11.8031094,1.24494223 Z M6.87943223,6.87982494 C6.26077118,7.49852913 6.26077118,8.50157538 6.87942092,9.12021019 C7.49808717,9.73889319 8.5010556,9.73889319 9.1196917,9.12018757 C9.70195542,8.53795777 9.73620623,7.61520976 9.22242337,6.99284984 L9.11966681,6.87983399 L9.00665831,6.77707256 C8.38439453,6.26332199 7.46168914,6.29757216 6.87943223,6.87982494 Z M12.4978431,2.59762716 C12.2475609,2.84755811 12.2475609,3.25258696 12.4978431,3.5025179 C12.7487076,3.75303024 13.1556394,3.75303024 13.4065038,3.5025179 C13.6317578,3.27758005 13.6542832,2.9270129 13.47408,2.67694919 L13.405,2.596 L13.3268746,2.52998883 C13.0758137,2.34961995 12.7236211,2.37216606 12.4978431,2.59762716 Z"
    fill="currentColor"></path>

</svg>