<?xml version="1.0" encoding="UTF-8"?>
<svg viewBox="0 0 16 16" version="1.1" xmlns="http://www.w3.org/2000/svg" xmlns:xlink="http://www.w3.org/1999/xlink">
  <defs>
    <path
      d="M4.98429362,2.80261703 C5.39850718,2.80261703 5.73429362,3.13840355 5.73429362,3.55261711 C5.73429362,3.96683067 5.39850718,4.30261703 4.98429362,4.30261703 L3.09975836,4.30261703 C2.92383479,4.30256902 2.75610419,4.37045302 2.63414522,4.48966155 C2.51552912,4.60559951 2.44991972,4.76048327 2.44996555,4.92104181 L2.449,10.486 L4.12457866,10.4860189 C4.55191668,10.4858943 4.95575437,10.6719563 5.23064969,10.9917773 L5.32748532,11.1178777 L5.595,11.511 L9.004,11.511 L9.27259986,11.1176965 C9.51286566,10.7656786 9.89593615,10.5402562 10.3156123,10.4946067 L10.4744994,10.4860189 L12.149,10.486 L12.1499668,9.22810872 C12.1499668,8.81389516 12.4857532,8.47810872 12.8999668,8.47810872 C13.3141803,8.47810872 13.6499668,8.81389516 13.6499668,9.22810872 L13.6500994,10.6927952 C14.068713,10.9434895 14.3499545,11.3978751 14.3499545,11.9202205 L14.3499545,13.1315969 C14.3499545,13.697086 14.1207536,14.2383184 13.7142419,14.6357682 C13.3109938,15.0298172 12.7664185,15.2502063 12.199979,15.2500044 L2.40026402,15.2500044 C1.83354463,15.2502063 1.28895683,15.0298075 0.885661526,14.6356704 C0.479230608,14.2383631 0.25,13.6971149 0.25,13.1315969 L0.25,11.9199427 C0.250193304,11.3981697 0.530920223,10.9442208 0.948924522,10.6934342 L0.949965546,4.92125628 C0.949803896,4.35568285 1.17912863,3.81431722 1.58565687,3.41696766 C1.98885494,3.02286257 2.53342908,2.8024623 3.09996327,2.80261703 L4.98429362,2.80261703 Z M4.104,11.986 L1.75,11.986 L1.75,13.1315969 C1.75,13.260053 1.79199754,13.3849068 1.8694796,13.4890309 L1.93414273,13.5629696 C2.05612455,13.6821814 2.22386457,13.750067 2.3999965,13.7500043 L12.2002465,13.7500043 C12.3761159,13.750067 12.5438706,13.6821768 12.6657465,13.5630813 C12.784331,13.4471402 12.8499545,13.2921776 12.8499545,13.1315969 L12.849,11.986 L10.495,11.986 L10.2273739,12.3799599 C9.98713994,12.7319311 9.6041476,12.9572789 9.1843969,13.0030109 L9.02547436,13.0116374 L5.57449415,13.0116374 C5.09378637,13.0116374 4.64289984,12.7759276 4.37251293,12.3797786 L4.104,11.986 Z M13.6000245,0.75 C14.7836395,0.75 15.75,1.69457677 15.75,2.86842356 L15.75,5.60527753 C15.75,6.77912432 14.7836395,7.72370109 13.6000245,7.72370109 L12.204,7.723 L10.7879265,8.85159522 C10.4968966,9.08308031 10.1108442,9.15045275 9.76240725,9.03879389 L9.63376571,8.98850058 C9.24863338,8.80955886 9.00002187,8.42501574 9.00002187,7.99933312 L9,7.723 L8.70004023,7.72370109 C7.56783556,7.72370109 6.63443829,6.85949095 6.55541358,5.75703095 L6.54999475,5.60527753 L6.54999475,2.86842356 C6.54999475,1.69456025 7.51637171,0.75 8.70004023,0.75 Z M13.6000245,2.25 L8.70004023,2.25 C8.33722956,2.25 8.04999475,2.53075026 8.04999475,2.86842356 L8.04999475,5.60527753 C8.04999475,5.94295083 8.33722956,6.22370109 8.70004023,6.22370109 L9.75002187,6.22370109 C10.1642354,6.22370109 10.5000219,6.55948753 10.5000219,6.97370109 L10.5,7.162 L11.4757502,6.38690424 C11.581952,6.30236842 11.7085747,6.24863989 11.8418488,6.23052992 L11.9428364,6.22370109 L13.6000245,6.22370109 C13.9627704,6.22370109 14.25,5.94294619 14.25,5.60527753 L14.25,2.86842356 C14.25,2.5307549 13.9627704,2.25 13.6000245,2.25 Z"
      id="path-1"></path>
  </defs>
  <g id="Icon/System/Chat_Widget" stroke="none" stroke-width="1" fill="none" fill-rule="evenodd">
    <g id="Chat-Widget">
      <use fill="currentColor" xlink:href="#path-1"></use>
    </g>
  </g>
</svg>