<?xml version="1.0" encoding="UTF-8"?>
<svg viewBox="0 0 16 13" version="1.1" xmlns="http://www.w3.org/2000/svg" xmlns:xlink="http://www.w3.org/1999/xlink">
     <path fill="currentColor" d="M-1.42108547e-14,11.8059728 C-1.42108547e-14,11.287611 0.419805332,10.8678057 0.938167113,10.8678057 L2.80321625,10.8678057 C3.09286688,10.8678057 3.37048009,10.7526978 3.57511638,10.5480615 L9.58480275,4.53837511 C10.1468002,3.97637765 10.9081676,3.6596428 11.7033902,3.65663344 L12.097616,3.65512877 C12.3398693,3.65437643 12.5354775,3.45801587 12.5354775,3.21576261 L12.5354775,2.27308146 C12.5354775,2.04737967 12.7942822,1.91948199 12.973339,2.05640774 L15.8149245,4.22314494 C16.0616918,4.41122977 16.0616918,4.78288538 15.8149245,4.97097021 L12.973339,7.13770741 C12.7942822,7.27463316 12.5354775,7.14673548 12.5354775,6.92103369 L12.5354775,5.98587593 C12.5354775,5.74287034 12.3391169,5.54575744 12.0961113,5.54575744 L11.7079043,5.54575744 C11.4182536,5.54575744 11.1406404,5.66086535 10.9360041,5.86625398 L4.91804204,11.8834637 C4.35303522,12.4492229 3.58564913,12.7659577 2.78516011,12.7652054 L0.936662435,12.7629484 C0.419052993,12.7621961 -1.42108547e-14,12.3235822 -1.42108547e-14,11.8059728 Z M8.49767245,9.43911334 C8.86406169,9.0727241 9.4576574,9.0727241 9.82329431,9.43911334 L10.9360041,10.5510708 C11.1406404,10.7564595 11.4182536,10.870815 11.7079043,10.870815 L12.0961113,10.870815 C12.3391169,10.870815 12.5354775,10.6744545 12.5354775,10.4314489 L12.5354775,9.49629113 C12.5354775,9.27058934 12.7942822,9.14269166 12.973339,9.27961741 L15.8149245,11.4463546 C16.0616918,11.6344394 16.0616918,12.0060951 15.8149245,12.1941799 L12.973339,14.3609171 C12.7942822,14.4978428 12.5354775,14.3699451 12.5354775,14.1442434 L12.5354775,13.2015622 C12.5354775,12.959309 12.3398693,12.7629484 12.097616,12.7621961 L11.7033902,12.7606914 C10.9081676,12.757682 10.1468002,12.4409472 9.58480275,11.8789497 L8.48413034,10.7782773 C8.1177411,10.4118881 8.13128321,9.80475024 8.49767245,9.43911334 Z"></path>
</svg>