<?xml version="1.0" encoding="UTF-8"?>
<svg width="16px" height="16px" viewBox="0 0 16 16" version="1.1" xmlns="http://www.w3.org/2000/svg" xmlns:xlink="http://www.w3.org/1999/xlink">
    <path fill="currentColor" d="M13.2619,1.18057557 C13.5763,0.91100657 14.0498,0.94742357 14.3194,1.26191057 L15.8148,3.00651057 C15.9301,3.13840057 16,3.31104057 16,3.5 C16,3.68822057 15.9307,3.86024057 15.8162,3.99192057 L14.3194,5.73811057 C14.0498,6.05260057 13.5763,6.08902057 13.2619,5.81945057 C12.9474,5.54988057 12.9109,5.07641057 13.1805,4.76191057 L13.6193,4.25000057 L10.7697,4.25000057 C9.9508,4.25000057 9.19654,4.69494057 8.80043,5.41170057 L5.26243,11.8138006 C4.60225,13.0084006 3.34515,13.7499006 1.98027,13.7499006 L0.75,13.7499006 C0.335786,13.7499006 0,13.4142006 0,12.9999006 C0,12.5857006 0.335786,12.2499006 0.75,12.2499006 L1.98027,12.2499006 C2.7992,12.2499006 3.55346,11.8050006 3.94957,11.0882006 L7.48757,4.68617057 C8.14775,3.49157057 9.40485,2.75000057 10.7697,2.75000057 L13.6193,2.75000057 L13.1805,2.23811057 C12.9109,1.92362057 12.9474,1.45014057 13.2619,1.18057557 Z M8.18989,10.5012006 C8.46535,10.1919006 8.93943,10.1644306 9.24877,10.4399006 L10.6458,11.6839006 C11.0579,12.0508006 11.5904,12.2535006 12.1421,12.2535006 L13.6174,12.2535006 L13.1805,11.7381006 C12.9109,11.4236006 12.9474,10.9501006 13.2619,10.6806006 C13.5763,10.4110006 14.0498,10.4474006 14.3194,10.7619006 L15.8194,12.5119006 C15.9392,12.6516006 15.9994,12.8244006 16.0000015,12.9973006 L16.0000015,13.0035006 C16.0000015,13.2112006 15.9156,13.3991006 15.7793,13.5349006 L14.3194,15.2381006 C14.0498,15.5526006 13.5763,15.5890006 13.2619,15.3195006 C12.9474,15.0499006 12.9109,14.5764006 13.1805,14.2619006 L13.6114,13.7535006 L12.1421,13.7535006 C11.2226,13.7535006 10.335,13.4157006 9.64829,12.8041006 L8.25124,11.5601006 C7.9419,11.2847006 7.91443,10.8106006 8.18989,10.5012006 Z"></path>
</svg>