<?xml version="1.0" encoding="UTF-8"?>
<svg width="16px" height="16px" viewBox="0 0 16 16" version="1.1" xmlns="http://www.w3.org/2000/svg" xmlns:xlink="http://www.w3.org/1999/xlink">
    <path d="M10.25,13.5 C10.66421,13.5 11,13.8358 11,14.25 C11,14.6642 10.66421,15 10.25,15 L5.75,15 C5.33579,15 5,14.6642 5,14.25 C5,13.8358 5.33579,13.5 5.75,13.5 Z M12.7765,4.10222 C13.8117,4.37962 14.6204,5.18827 14.8978,6.22354 C15,6.60504 15,7.07003 15,8 C15,8.92997 15,9.39496 14.8978,9.77646 C14.6204,10.81173 13.8117,11.6204 12.7765,11.8978 C12.395,12 11.93,12 11,12 L5,12 C4.07003,12 3.60504,12 3.22354,11.8978 C2.18827,11.6204 1.379624,10.81173 1.102223,9.77646 C1.01703717,9.45854333 1.00283953,9.0826475 1.00047325,8.42800282 L1.00047325,7.57199718 C1.00283953,6.9173525 1.01703717,6.54145667 1.102223,6.22354 C1.379624,5.18827 2.18827,4.37962 3.22354,4.10222 C3.54145667,4.01703667 3.9173525,4.00283944 4.57199718,4.00047324 L11.4280162,4.00047324 C12.0826806,4.00283944 12.4585833,4.01703667 12.7765,4.10222 Z M11.3485182,5.50062811 L4.65147193,5.50062811 C3.91989797,5.50361609 3.73660625,5.51765875 3.61177,5.55111 C3.09413,5.68981 2.68981,6.09413 2.55111,6.61177 C2.51765875,6.73660625 2.50361609,6.91989797 2.50062811,7.65147193 L2.50062811,8.34852807 C2.50361609,9.08010203 2.51765875,9.26339375 2.55111,9.38823 C2.68981,9.90587 3.09413,10.31019 3.61177,10.44889 C3.75444,10.48712 3.97346,10.5 5,10.5 L11,10.5 C12.0265,10.5 12.2456,10.48712 12.3882,10.44889 C12.9059,10.31019 13.3102,9.90587 13.4489,9.38823 C13.4871,9.24556 13.5,9.02654 13.5,8 C13.5,6.97346 13.4871,6.75444 13.4489,6.61177 C13.3102,6.09413 12.9059,5.68981 12.3882,5.55111 C12.263425,5.51765875 12.0800797,5.50361609 11.3485182,5.50062811 Z M10.25,1 C10.66421,1 11,1.335786 11,1.75 C11,2.16421 10.66421,2.5 10.25,2.5 L5.75,2.5 C5.33579,2.5 5,2.16421 5,1.75 C5,1.335786 5.33579,1 5.75,1 Z" fill="currentColor"></path>
</svg>