<svg viewBox="0 0 16 16" version="1.1" xmlns="http://www.w3.org/2000/svg" xmlns:xlink="http://www.w3.org/1999/xlink">
  <path fill="currentColor"
    d="M12.6666667,0.25 C14.369647,0.25 15.75,1.63034959 15.75,3.33333873 L15.75,3.33333873 L15.75,10.3333225 C15.75,12.0363573 14.3696661,13.4166613 12.6666667,13.4166613 L12.6666667,13.4166613 L10.562,13.416 L9.3000005,15.0999985 C8.68095291,15.9253972 7.47233517,15.9647019 6.79708926,15.2178476 L6.79708926,15.2178476 L6.69994303,15.0999232 L5.437,13.416 L3.33333333,13.4166613 C1.69114426,13.4166613 0.349006052,12.1331943 0.255233667,10.5145079 L0.255233667,10.5145079 L0.25,10.3333225 L0.25,3.33333873 C0.25,1.6303448 1.6303416,0.25 3.33333333,0.25 L3.33333333,0.25 Z M12.6666667,1.75 L3.33333333,1.75 C2.45876951,1.75 1.75,2.45877115 1.75,3.33333873 L1.75,3.33333873 L1.75,10.3333225 C1.75,11.2079293 2.4587439,11.9166613 3.33333333,11.9166613 L3.33333333,11.9166613 L5.81288889,11.9166613 C6.04899028,11.9166613 6.27130894,12.0278382 6.41294586,12.2167372 L6.41294586,12.2167372 L7.9000005,14.1999999 C7.95000053,14.2666667 8.04999947,14.2666667 8.09994068,14.2000783 L8.09994068,14.2000783 L9.58703558,12.2167404 C9.72867234,12.0278395 9.95099213,11.9166613 10.1870949,11.9166613 L10.1870949,11.9166613 L12.6666667,11.9166613 C13.5412463,11.9166613 14.25,11.2079229 14.25,10.3333225 L14.25,10.3333225 L14.25,3.33333873 C14.25,2.45877755 13.5412207,1.75 12.6666667,1.75 L12.6666667,1.75 Z M8.75,7.41694692 C9.16421356,7.41694692 9.5,7.75273336 9.5,8.16694692 C9.5,8.58116048 9.16421356,8.91694692 8.75,8.91694692 L5.25,8.91694692 C4.83578644,8.91694692 4.5,8.58116048 4.5,8.16694692 C4.5,7.75273336 4.83578644,7.41694692 5.25,7.41694692 L8.75,7.41694692 Z M10.75,4.5 C11.1642136,4.5 11.5,4.83578644 11.5,5.25 C11.5,5.66421356 11.1642136,6 10.75,6 L5.25,6 C4.83578644,6 4.5,5.66421356 4.5,5.25 C4.5,4.83578644 4.83578644,4.5 5.25,4.5 L10.75,4.5 Z">
  </path>
</svg>