<svg width="16px" height="16px" viewBox="0 0 16 16" version="1.1" xmlns="http://www.w3.org/2000/svg" xmlns:xlink="http://www.w3.org/1999/xlink" id="copy-svg">
    <path fill="currentColor" fill-rule="evenodd" d="M10,1.5 C11.069,1.5 11.8142,1.50091 12.3887,1.55935 C12.9507,1.61652 13.2655,1.72246 13.5,1.87919 C13.7457,2.04335 13.9566,2.25429 14.1208,2.49997 C14.2775,2.73453 14.3835,3.04934 14.4407,3.61129 C14.4991,4.18578 14.5,4.93105 14.5,6 L14.5,6.5 C14.5,7.32852 14.4994,7.90607 14.4637,8.35614 C14.4286,8.79781 14.3631,9.05219 14.268,9.24515 C14.0489,9.68937 13.6894,10.0489 13.2451,10.268 C13.0522,10.3631 12.7978,10.4286 12.3561,10.4637 C12.2457,10.4725 12.1276,10.4791 12,10.4842 L12,8.425 C12,7.03853 11.7273,5.87289 10.9272,5.0728 C10.1271,4.2727 8.96147,4 7.575,4 L5.51584,4 C5.52089,3.8724 5.52754,3.75429 5.53632,3.64386 C5.57141,3.20219 5.63688,2.94781 5.73204,2.75485 C5.9511,2.31063 6.31063,1.9511 6.75485,1.73204 C6.94781,1.63688 7.20219,1.57141 7.64386,1.53632 C8.09393,1.50055 8.67148,1.5 9.5,1.5 L10,1.5 Z M4.01458,4.00849 C4.02058,3.83654 4.02906,3.67566 4.04103,3.52504 C4.08328,2.99338 4.1725,2.52582 4.38673,2.09142 C4.75184,1.35105 5.35105,0.751839 6.09142,0.386728 C6.52582,0.172504 6.99338,0.0832784 7.52504,0.0410303 C8.04153,-8.8817842e-16 8.67876,-8.8817842e-16 9.4688,-8.8817842e-16 L9.46881,-8.8817842e-16 L9.5,-8.8817842e-16 L10,-8.8817842e-16 L10.0405,-8.8817842e-16 L10.0405,-8.8817842e-16 C11.0595,-8.8817842e-16 11.8812,-8.8817842e-16 12.5405,0.0670505 C13.2211,0.136282 13.8113,0.283128 14.3334,0.63199 C14.7429,0.905584 15.0944,1.25715 15.368,1.66661 C15.7169,2.18872 15.8637,2.77892 15.933,3.45948 C16,4.1188 16,4.94053 16,5.95952 L16,5.95953 L16,6 L16,6.5 L16,6.53117 C16,7.32122 16,7.95846 15.959,8.47496 C15.9167,9.00662 15.8275,9.47418 15.6133,9.90858 C15.2482,10.649 14.649,11.2482 13.9086,11.6133 C13.4742,11.8275 13.0066,11.9167 12.475,11.959 C12.3243,11.9709 12.1635,11.9794 11.9915,11.9854 C11.94,13.1916 11.647,14.2074 10.9272,14.9272 C10.1271,15.7273 8.96147,16 7.575,16 L4.425,16 C3.03853,16 1.87289,15.7273 1.0728,14.9272 C0.272701,14.1271 0,12.9615 0,11.575 L0,8.425 C0,7.03853 0.272701,5.87289 1.0728,5.0728 C1.79263,4.35296 2.80835,4.06002 4.01458,4.00849 Z M4.425,5.5 C3.18647,5.5 2.51461,5.7523 2.13346,6.13346 C1.7523,6.51461 1.5,7.18647 1.5,8.425 L1.5,11.575 C1.5,12.8135 1.7523,13.4854 2.13346,13.8665 C2.51461,14.2477 3.18647,14.5 4.425,14.5 L7.575,14.5 C8.81353,14.5 9.48539,14.2477 9.86654,13.8665 C10.2477,13.4854 10.5,12.8135 10.5,11.575 L10.5,10.5 L10.5,8.425 C10.5,7.18647 10.2477,6.51461 9.86654,6.13346 C9.48539,5.7523 8.81353,5.5 7.575,5.5 L5.5,5.5 L4.425,5.5 Z"></path>
</svg>