<svg width="16" height="16" viewBox="0 0 16 16" fill="none" xmlns="http://www.w3.org/2000/svg">
<path fill-rule="evenodd" clip-rule="evenodd" d="M0.727273 6.5H15.2727C15.6744 6.5 16 6.83579 16 7.25V9.5C16 11.9853 14.0463 14 11.6364 14H4.36364C1.95367 14 0 11.9853 0 9.5V7.25C0 6.83579 0.325611 6.5 0.727273 6.5ZM10.1818 9.5C9.78016 9.5 9.45455 9.83579 9.45455 10.25C9.45455 10.6642 9.78016 11 10.1818 11H12.3636C12.7653 11 13.0909 10.6642 13.0909 10.25C13.0909 9.83579 12.7653 9.5 12.3636 9.5H10.1818ZM1.45455 2H14.5455C15.3488 2 16 2.67157 16 3.5V4.25C16 4.66421 15.6744 5 15.2727 5H0.727273C0.325611 5 0 4.66421 0 4.25V3.5C0 2.67157 0.651222 2 1.45455 2Z" fill="white"/>
<path fill-rule="evenodd" clip-rule="evenodd" d="M0.727273 6.5H15.2727C15.6744 6.5 16 6.83579 16 7.25V9.5C16 11.9853 14.0463 14 11.6364 14H4.36364C1.95367 14 0 11.9853 0 9.5V7.25C0 6.83579 0.325611 6.5 0.727273 6.5ZM10.1818 9.5C9.78016 9.5 9.45455 9.83579 9.45455 10.25C9.45455 10.6642 9.78016 11 10.1818 11H12.3636C12.7653 11 13.0909 10.6642 13.0909 10.25C13.0909 9.83579 12.7653 9.5 12.3636 9.5H10.1818ZM1.45455 2H14.5455C15.3488 2 16 2.67157 16 3.5V4.25C16 4.66421 15.6744 5 15.2727 5H0.727273C0.325611 5 0 4.66421 0 4.25V3.5C0 2.67157 0.651222 2 1.45455 2Z" fill="url(#paint0_linear)"/>
<defs>
<linearGradient id="paint0_linear" x1="0" y1="2" x2="0" y2="14" gradientUnits="userSpaceOnUse">
<stop stop-color="#6E849A" stop-opacity="0.85"/>
<stop offset="1" stop-color="#6E849A"/>
</linearGradient>
</defs>
</svg>
