<svg viewBox="0 0 16 16" version="1.1" xmlns="http://www.w3.org/2000/svg" xmlns:xlink="http://www.w3.org/1999/xlink">
  <path fill="currentColor" transform="translate(0.249970, 0.249997)"
    d="M13.2299808,2.26980271 C16.0717458,5.11141749 16.2698691,9.65383938 13.6862816,12.7320441 C11.2763544,15.6034378 7.19195323,16.312083 3.98246252,14.5227769 L3.74922014,14.3873892 L3.62702965,14.3100035 L1.46953875,15.0442983 C0.956550621,15.2186059 0.459860124,14.8133477 0.477549087,14.3121835 L0.488092853,14.2108152 L0.511339629,14.1138436 L1.19602965,11.8850035 L1.11280863,11.7510774 C-0.751936996,8.6631997 -0.231665253,4.6834656 2.36255841,2.17871738 L2.56619947,1.98899358 L2.76772071,1.81393276 C5.84585047,-0.76974186 10.3882977,-0.571816319 13.2299808,2.26980271 Z M3.73208093,2.96284937 C1.24973366,5.04644386 0.771947401,8.68184356 2.63162133,11.336146 C2.74223595,11.4940257 2.78697979,11.6870806 2.75949432,11.8750102 L2.73428465,11.9868304 L2.37602965,13.1510035 L3.49248002,12.7726979 C3.64338693,12.7214214 3.8045637,12.7201556 3.95326257,12.7656534 L4.06209168,12.8084942 L4.16410897,12.868567 C6.81842811,14.728133 10.4538409,14.250173 12.5373297,11.7677261 C14.6208572,9.28531567 14.4610816,5.62210278 12.1693326,3.33047484 C9.87767431,1.03886821 6.21443063,0.87925172 3.73208093,2.96284937 Z M8.54926212,5.08747578 C8.91294466,5.19658069 9.1324295,5.55700356 9.0748063,5.92191073 L9.05212058,6.02135659 L7.88545237,9.91024545 C7.76642883,10.30699 7.34831615,10.5321274 6.95157156,10.4131039 C6.58788901,10.303999 6.36840418,9.94357613 6.42602738,9.57866896 L6.4487131,9.4792231 L7.61538131,5.59033424 C7.73440484,5.19358965 8.15251753,4.96845225 8.54926212,5.08747578 Z M5.54369244,6.05169153 C5.81076312,6.31715154 5.83622927,6.73374011 5.61926385,7.02800916 L5.54690044,7.11234685 L4.91802965,7.74300349 L5.55992933,8.38803838 C5.82548697,8.65501198 5.84858507,9.07173855 5.6299507,9.36476976 L5.55710914,9.44869481 C5.29013554,9.71425245 4.87340897,9.73735055 4.58037777,9.51871618 L4.49645272,9.44587462 L3.32978451,8.27298574 C3.06529346,8.00708442 3.04117742,7.5923723 3.25748584,7.29933457 L3.32959115,7.21534396 L4.48303712,6.05489953 C4.77504314,5.76112178 5.2499147,5.75968551 5.54369244,6.05169153 Z M10.9336964,5.98187713 L11.0176193,6.05472124 L12.1710653,7.2143879 C12.4355489,7.48029796 12.4596517,7.89501216 12.2433328,8.18804332 L12.1712245,8.27203169 L11.0045562,9.44569834 C10.7125402,9.73946611 10.2376686,9.74088614 9.94390081,9.44887009 C9.67683921,9.18340095 9.6513873,8.76681151 9.86836278,8.47254987 L9.94072907,8.38821466 L10.5810296,7.74300349 L9.95411051,7.11252514 C9.68856098,6.84554346 9.66547555,6.42881619 9.88411884,6.13579164 L9.95696295,6.0518688 C10.2239446,5.78631927 10.6406719,5.76323384 10.9336964,5.98187713 Z">
  </path>
</svg>