<?xml version="1.0" encoding="UTF-8"?>
<svg viewBox="0 0 48 43" version="1.1" xmlns="http://www.w3.org/2000/svg" xmlns:xlink="http://www.w3.org/1999/xlink">
            <defs>
        <linearGradient x1="50%" y1="0%" x2="50%" y2="100%" id="linearGradient-1">
            <stop stop-color="currentColor" stop-opacity="0.736667799" offset="0%"></stop>
            <stop stop-color="currentColor" offset="100%"></stop>
        </linearGradient>
        <linearGradient x1="50%" y1="0%" x2="50%" y2="100%" id="linearGradient-2">
            <stop stop-color="currentColor" stop-opacity="0.690245697" offset="0%"></stop>
            <stop stop-color="currentColor" offset="100%"></stop>
        </linearGradient>
    </defs>
    <g id="Misc" stroke="none" stroke-width="1" fill="none" fill-rule="evenodd">
        <g id="Artboard" transform="translate(-1522.000000, -374.000000)">
            <g id="Group-4" transform="translate(1456.000000, 310.000000)">
                <g id="Group-2">
                    <g id="Group-6">
                        <g id="Group-5">
                            <g id="Group-8" transform="translate(66.000000, 64.000000)">
                                <path d="M11.7285191,25.0994408 L18.209678,27.8916835 C18.3772446,27.9635455 18.5555987,28 18.7400144,28 C18.9802171,28 19.2143583,27.9367995 19.4178834,27.8168709 C19.782297,27.6010946 20,27.2334087 20,26.8332659 L20,26.8026175 C20,26.3503153 19.7138731,25.9349435 19.2709672,25.7443902 L15.2174176,23.9995241 L19.2709672,22.2544676 C19.7138731,22.063724 20,21.6484474 20,21.1963355 L20,21.1659726 C20,20.7652588 19.782297,20.3973825 19.4178834,20.1823676 C19.2164131,20.0631053 18.9816555,20 18.7392952,20 C18.5565233,20 18.3732378,20.0372159 18.2091643,20.1078406 L11.7284164,22.8997977 C11.2859214,23.0905413 11,23.5060083 11,23.9579298 L11,24.0414039 C10.9998973,24.4926591 11.2856132,24.9079358 11.7285191,25.0994408 Z" id="Path" fill="url(#linearGradient-1)"></path>
                                <path d="M21.2130337,31.5077668 C21.4210109,31.8159263 21.7555278,32 22.1078506,32 L22.1364125,32 C22.6201559,32 23.0439738,31.6647334 23.1913926,31.1665308 L26.947364,18.5660454 C27.0551036,18.2023995 26.9953587,17.8009799 26.7872912,17.4922332 C26.5793141,17.1839758 26.2447971,17 25.8923839,17 L25.8639124,17 C25.3799882,17 24.9557185,17.3351687 24.8082996,17.8333714 L21.0519667,30.4348354 C20.9450406,30.7989705 21.0052374,31.199803 21.2130337,31.5077668 Z" id="Path" fill="url(#linearGradient-1)"></path>
                                <path d="M28,21.1962403 C28,21.6478763 28.2859149,22.0632481 28.7289134,22.2549435 L32.7823705,23.9995241 L28.7289134,25.7441999 C28.2861203,25.9349435 28,26.3503153 28,26.8024271 L28,26.8330756 C28,27.2333135 28.2174926,27.6009994 28.5823088,27.8168709 C28.7851101,27.9366092 29.0193487,28 29.2598541,28 C29.4440601,28 29.6223075,27.9635455 29.7910003,27.8913028 L36.2716003,25.0991553 C36.7140851,24.9079358 37,24.4926591 37,24.0412136 L37,23.9577394 C37,23.505818 36.7140851,23.090351 36.2711893,22.8996074 L29.7905894,20.1076502 C29.6271361,20.0372159 29.4440601,20 29.2612924,20 C29.0193487,20 28.7842882,20.0629149 28.5828225,20.1819869 C28.2180062,20.3973825 28.0003082,20.7651636 28.0003082,21.1658775 L28.0003082,21.1961452 L28,21.1961452 L28,21.1962403 Z" id="Path" fill="url(#linearGradient-1)"></path>
                                <path d="M45.1158509,0 L2.88451623,0 C1.29367518,0 0,1.27606145 0,2.84455615 L0,40.1555645 C0,41.7240592 1.29367518,43 2.88451623,43 L45.1159733,43 C46.7063247,43 47.9999999,41.7240592 47.9999999,40.1555645 L47.9999999,2.84455615 C48.0003671,1.27618214 46.7062024,0 45.1158509,0 Z M36.4187309,4.77657087 C36.4187309,4.19653197 36.8955671,3.7262008 37.4836569,3.7262008 L38.5488277,3.7262008 C39.1372846,3.7262008 39.6137536,4.19641128 39.6137536,4.77657087 L39.6137536,5.96694201 C39.6137536,6.54698091 39.1369175,7.01719139 38.5488277,7.01719139 L37.4836569,7.01719139 C36.8955671,7.01719139 36.4187309,6.54698091 36.4187309,5.96694201 L36.4187309,4.77657087 Z M31.4659255,4.77657087 C31.4659255,4.19653197 31.9430064,3.7262008 32.5310962,3.7262008 L33.5960222,3.7262008 C34.184112,3.7262008 34.661193,4.19641128 34.661193,4.77657087 L34.661193,5.96694201 C34.661193,6.54698091 34.184112,7.01719139 33.5960222,7.01719139 L32.5310962,7.01719139 C31.9430064,7.01719139 31.4659255,6.54698091 31.4659255,5.96694201 L31.4659255,4.77657087 Z M44.5385315,39.5865085 L3.46146843,39.5865085 L3.46146843,10.1722844 L44.5385315,10.1722844 L44.5385315,39.5865085 Z M44.5665591,5.96694201 C44.5665591,6.54698091 44.0897229,7.01719139 43.5016331,7.01719139 L42.4364623,7.01719139 C41.8478829,7.01719139 41.3714139,6.54698091 41.3714139,5.96694201 L41.3714139,4.77657087 C41.3714139,4.19653197 41.8482501,3.7262008 42.4364623,3.7262008 L43.5016331,3.7262008 C44.0898453,3.7262008 44.5665591,4.19641128 44.5665591,4.77657087 L44.5665591,5.96694201 Z" id="Shape" fill="url(#linearGradient-2)" fill-rule="nonzero"></path>
                            </g>
                        </g>
                    </g>
                </g>
            </g>
        </g>
    </g>
</svg>