<svg viewBox="0 0 16 16" version="1.1" xmlns="http://www.w3.org/2000/svg"
  xmlns:xlink="http://www.w3.org/1999/xlink">
  <g stroke="none" stroke-width="1" fill="none" fill-rule="evenodd">
    <mask id="mask-2" fill="white">
      <rect x="0" y="0" width="16" height="16"></rect>
    </mask>
    <g opacity="0.9" mask="url(#mask-2)">
      <g transform="translate(1.500000, 0.000000)" id="Clipped">
        <mask id="mask-4" fill="white">
          <path
            d="M12.4325177,3.15951251 L7.06108521,0.147117307 C6.71262291,-0.0490391025 6.28280776,-0.0490391025 5.93434546,0.147117307 L0.561999146,3.15951251 C0.21412637,3.35617844 -3.24653993e-16,3.71776024 -3.24653993e-16,4.10887881 L-3.24653993e-16,10.1381097 C0.000306906342,10.5284715 0.21442322,10.8891559 0.561999146,11.0848117 L3.24954303,12.5945616 L3.24954303,15.6726754 C3.25000828,15.7898434 3.3146361,15.897906 3.41916372,15.9562941 C3.52369135,16.0146822 3.65230226,16.0145608 3.75671299,15.9559755 L12.4380006,11.087476 C12.78599,10.8922216 13.0002574,10.5312827 13,10.1407739 L13,4.10799072 C12.9979004,3.71624076 12.7818084,3.3550689 12.4325177,3.15951251 L12.4325177,3.15951251 Z"
            id="path-3"></path>
        </mask>
        <g id="Group" mask="url(#mask-4)">
          <g transform="translate(0.000000, -0.168154)">
            <polygon id="Path" fill="currentColor" fill-rule="nonzero"
              points="12.9945168 3.6456021 6.49908606 7.2912042 0 3.6456021 0 10.9368063 3.24954303 12.7582752 3.24954303 16.4047654 12.9945168 10.9368063">
            </polygon>
            <g id="Group" stroke-width="1" opacity="0.8" fill="none" fill-rule="evenodd">
              <polygon id="Path" fill="currentColor" fill-rule="nonzero"
                points="6.49908606 7.2912042 0 3.6456021 6.49908606 0 12.9945168 3.6456021"></polygon>
              <polygon id="Path" fill="currentColor" fill-rule="nonzero"
                points="6.38394478 7.18019317 0.0411218888 3.62162372 2.43490495e-16 3.6456021 6.49908606 7.2912042 12.9945168 3.6456021 12.841909 3.55768137">
              </polygon>
              <polygon id="Path" fill="currentColor" fill-rule="nonzero"
                points="6.49908606 7.3364967 6.49908606 7.2912042 0.0411218888 3.66691622 2.43490495e-16 3.6908946">
              </polygon>
            </g>
          </g>
        </g>
      </g>
    </g>
  </g>
</svg>
