<?xml version="1.0" encoding="UTF-8"?>
<svg width="18px" height="18px" viewBox="0 0 16 16" fill="none" xmlns="http://www.w3.org/2000/svg">
  <path
    d="M8.64935 0.147853L13.6364 3.06684C13.9745 3.25197 14.1862 3.60412 14.1905 3.98834V10.3947C14.1851 10.7786 13.9736 11.1302 13.6364 11.3162L5.69039 15.9623C5.5618 16.038 5.39588 15.9961 5.31913 15.8685C5.29537 15.8282 5.28204 15.7827 5.28035 15.736V12.9164L2.55411 11.3162C2.21683 11.1302 2.0054 10.7786 2 10.3947V3.98834C2.00424 3.60412 2.216 3.25197 2.55411 3.06684L7.54113 0.147853C7.88401 -0.0492842 8.30647 -0.0492842 8.64935 0.147853V0.147853Z"
    fill="#AECBFA" />
  <path
    d="M5.09406 5.98987C4.92886 5.98987 4.79437 6.12132 4.78945 6.28532L4.78931 6.29464L4.7894 9.43135L4.79039 9.46413C4.80159 9.65547 4.90652 9.82964 5.0715 9.92879L5.08311 9.93559L6.61725 10.8111V12.0399L6.61809 12.0626C6.62972 12.2203 6.76135 12.3447 6.92201 12.3447C6.97152 12.3447 7.02021 12.3326 7.06391 12.3096L7.07473 12.3036L11.1451 9.94667L11.1731 9.92963C11.334 9.82551 11.4338 9.6483 11.4386 9.45588L11.4388 9.44243V6.2952C11.4388 6.24196 11.4248 6.18964 11.3983 6.14347C11.3162 6.00036 11.1355 5.94911 10.9909 6.02612L10.9823 6.0309L8.27542 7.58488L8.25222 7.59795C8.16115 7.64416 8.05245 7.64176 7.96321 7.59075L7.95337 7.58488L5.24581 6.03033C5.19963 6.00382 5.14731 5.98987 5.09406 5.98987V5.98987Z"
    fill="#669DF6" />
  <path
    d="M8.32628 2.46795C8.21334 2.40319 8.07544 2.40073 7.96054 2.46071L7.9495 2.4667L4.96503 4.15179C4.9174 4.17868 4.87788 4.2179 4.85063 4.26533C4.76841 4.40841 4.81517 4.59027 4.95456 4.67637L4.96304 4.68142L7.94698 6.396C8.06159 6.46186 8.20184 6.46346 8.31764 6.40098L8.32876 6.39473L11.2669 4.68039C11.3129 4.65351 11.3512 4.61502 11.3777 4.56875C11.4598 4.42559 11.4128 4.24378 11.2734 4.15781L11.2649 4.15277L8.32628 2.46795Z"
    fill="#185ABC" />
</svg>