<svg viewBox="0 0 16 16" version="1.1" xmlns="http://www.w3.org/2000/svg" xmlns:xlink="http://www.w3.org/1999/xlink">
  <path fill="currentColor" fill-rule="evenodd"
    transform="translate(8.000000, 8.000013) scale(-1, 1) translate(-8.000000, -8.000013) "
    d="M12.7039975,1.22140076 C12.9957975,0.927640765 13.4706975,0.925990765 13.7645975,1.21774076 L15.7765975,3.21487076 C15.9144975,3.35082076 16,3.53978076 16,3.74871076 C16,3.95764076 15.9144975,4.14661076 15.7765975,4.28255076 L13.7645975,6.27970076 C13.4706975,6.57140076 12.9957975,6.56980076 12.7039975,6.27600076 C12.4120975,5.98225076 12.4136975,5.50760076 12.7075975,5.21586076 L12.9997975,4.92579076 C13.1581975,4.76857076 13.0468975,4.49836076 12.8236975,4.49836076 L11.2221975,4.49836076 C10.3088975,4.49836076 9.5,5.25411076 9.5,6.18300076 L9.5,9.40720076 C9.5,11.1890008 8.1050975,12.4946008 6.3888975,12.4946008 L5.9589175,12.4946008 C5.8596475,13.0901008 5.5804475,13.6614008 5.1213175,14.1208008 C3.9497475,15.2931008 2.0502475,15.2931008 0.8786775,14.1208008 C-0.2928925,12.9485008 -0.2928925,11.0478008 0.8786775,9.87550076 C1.6776575,9.07600076 2.8151975,8.82170076 3.8295275,9.11270076 C4.3025275,9.24840076 4.7487375,9.50270076 5.1213175,9.87550076 C5.4482275,10.2026008 5.6839175,10.5864008 5.8283975,10.9953008 L6.3888975,10.9953008 C7.3422975,10.9953008 8,10.2968008 8,9.40720076 L8,6.18300076 C8,4.44060076 9.4659975,2.99906076 11.2221975,2.99906076 L12.8236975,2.99906076 C13.0468975,2.99906076 13.1581975,2.72886076 12.9997975,2.57163076 L12.7075975,2.28156076 C12.4136975,1.98982076 12.4120975,1.51517076 12.7039975,1.22140076 Z M4.0600775,13.0612008 C4.6466375,12.4743008 4.6466375,11.5220008 4.0600775,10.9351008 C3.4744275,10.3490008 2.5255675,10.3490008 1.9399175,10.9351008 C1.3533575,11.5220008 1.3533575,12.4743008 1.9399175,13.0612008 C2.5255675,13.6472008 3.4744275,13.6472008 4.0600775,13.0612008 Z">
  </path>
</svg>