<svg viewBox="0 0 18 13" fill="none" xmlns="http://www.w3.org/2000/svg">
  <path
    d="M11.6775 10.8281L12.3131 11.7101C12.5707 12.0678 13.008 12.2407 13.4359 12.1544C14.5191 11.936 16.2782 11.3307 17 10.0499C17 6.52758 15.4848 2.80101 14.8182 2.17892C14.0113 1.52397 12.9027 1.1894 12.1219 1.02435C11.5707 0.90785 11.0147 1.21852 10.8336 1.76033C10.7582 1.98587 10.6962 2.21215 10.6802 2.38205M7.3199 2.38299C7.30384 2.21309 7.24186 1.98681 7.16643 1.76127C6.98533 1.21946 6.42933 0.908787 5.87818 1.02529C5.09777 1.19033 3.98876 1.5249 3.18183 2.17986C2.51531 2.80157 1.00003 6.52852 1.00003 10.0508C1.72182 11.3316 3.48093 11.9369 4.56417 12.1553C4.9921 12.2416 5.42898 12.0687 5.687 11.711L6.32254 10.829M3.73222 9.58801C3.73222 9.58801 5.47752 11.0775 9.00021 11.0775C12.5229 11.0775 14.2682 9.58801 14.2682 9.58801M13.6678 3.60235C11.8818 2.54151 9.77166 2.48475 9.00021 2.48475C8.22876 2.48475 6.11865 2.54151 4.33266 3.60235"
    stroke="currentColor" stroke-width="1.5" stroke-miterlimit="10" stroke-linecap="round" stroke-linejoin="round" />
  <path
    d="M6.58614 8.98684C7.30071 8.98684 7.87999 8.32481 7.87999 7.50816C7.87999 6.69151 7.30071 6.02948 6.58614 6.02948C5.87157 6.02948 5.2923 6.69151 5.2923 7.50816C5.2923 8.32481 5.87157 8.98684 6.58614 8.98684Z"
    fill="currentColor" />
  <path
    d="M11.4068 9.01671C12.1286 9.01671 12.7137 8.348 12.7137 7.5231C12.7137 6.6982 12.1286 6.02948 11.4068 6.02948C10.685 6.02948 10.0999 6.6982 10.0999 7.5231C10.0999 8.348 10.685 9.01671 11.4068 9.01671Z"
    fill="currentColor" />
</svg>