<svg viewBox="0 0 16 16" version="1.1" xmlns="http://www.w3.org/2000/svg" xmlns:xlink="http://www.w3.org/1999/xlink">
  <path fill="currentColor"
    d="M13.4450923,1.25 L2.55490768,1.25 C1.28194232,1.25 0.25,2.28194232 0.25,3.55490768 L0.25,10.6876741 C0.25,11.9606394 1.28194232,12.9925818 2.55490768,12.9925818 L13.4450923,12.9925818 C14.7180577,12.9925818 15.75,11.9606394 15.75,10.6876741 L15.75,3.55490768 C15.75,2.28194232 14.7180577,1.25 13.4450923,1.25 Z M2.55490768,2.75 L13.4450923,2.75 C13.8896306,2.75 14.25,3.11036944 14.25,3.55490768 L14.25,10.6876741 C14.25,11.1322123 13.8896306,11.4925818 13.4450923,11.4925818 L2.55490768,11.4925818 C2.11036944,11.4925818 1.75,11.1322123 1.75,10.6876741 L1.75,3.55490768 C1.75,3.11036944 2.11036944,2.75 2.55490768,2.75 Z M11.5000428,13.8562181 C11.9142563,13.8562181 12.2500428,14.1920046 12.2500428,14.6062181 C12.2500428,14.9859139 11.9678889,15.2997091 11.6018133,15.3493715 L11.5000428,15.3562181 L4.50001166,15.3562181 C4.0857981,15.3562181 3.75001166,15.0204317 3.75001166,14.6062181 C3.75001166,14.2265224 4.03216554,13.9127272 4.3982411,13.8630647 L4.50001166,13.8562181 L11.5000428,13.8562181 Z"
    id="path-2"></path>
</svg>