<svg viewBox="0 0 16 16" version="1.1" xmlns="http://www.w3.org/2000/svg" xmlns:xlink="http://www.w3.org/1999/xlink">
    <g id="Icon/System/Import_Model" stroke="none" stroke-width="1" fill="none" fill-rule="evenodd">
        <path d="M8,14.5 C11.5899,14.5 14.5,11.5899 14.5,8 C14.5,4.41015 11.5899,1.5 8,1.5 C4.41015,1.5 1.5,4.41015 1.5,8 C1.5,11.5899 4.41015,14.5 8,14.5 Z M8,0 C12.4183,0 16,3.58172 16,8 C16,12.4183 12.4183,16 8,16 C3.58172,16 0,12.4183 0,8 C0,3.58172 3.58172,0 8,0 Z M8,4.25 C7.58579,4.25 7.25,4.5858 7.25,5 L7.25,5 L7.25,9.187 L6.0303047,7.96790445 L5.9461747,7.89528445 C5.6525747,7.67743445 5.2358747,7.70163445 4.9696747,7.96790445 C4.6767747,8.26079445 4.6767747,8.73567445 4.9696747,9.02856445 L4.9696747,9.02856445 L7.45480391,11.5150398 C7.59152945,11.6597212 7.7852202,11.75 8,11.75 C8.21477556,11.75 8.408467,11.659719 8.54519446,11.5150369 L11.0303047,9.02856445 L11.1029247,8.94444445 C11.3207747,8.65083445 11.2965747,8.23417445 11.0303047,7.96790445 L11.0303047,7.96790445 L10.9461847,7.89528445 C10.6525747,7.67743445 10.2359147,7.70163445 9.9696447,7.96790445 L9.9696447,7.96790445 L8.75,9.186 L8.75,5 L8.74315,4.8982 C8.69349,4.5322 8.3797,4.25 8,4.25 Z" id="path-2"></path>
        <g id="Shape">
            <use fill="currentColor" xlink:href="#path-2"></use>
        </g>
    </g>
</svg>
