<?xml version="1.0" encoding="UTF-8"?>
<svg width="18px" height="18px" viewBox="0 0 24 24" version="1.1" xmlns="http://www.w3.org/2000/svg" xmlns:xlink="http://www.w3.org/1999/xlink">
    <title>Group 19</title>
    <defs>
        <linearGradient x1="50%" y1="0%" x2="50%" y2="100%" id="linearGradient-1">
            <stop stop-color="#6E849A" stop-opacity="0.85" offset="0%"></stop>
            <stop stop-color="#6E849A" offset="100%"></stop>
        </linearGradient>
        <path d="M12,2 C16.9704662,2.00023298 20.999767,6.02953376 21,11 C21,15.9705627 16.9705627,20 12,20 C7.02943725,20 3,15.9705627 3,11 C3.00023298,6.02953376 7.02953376,2.00023298 12,2 Z M12,5 C8.6862915,5 6,7.6862915 6,11 C6,12.5912989 6.63214104,14.1174224 7.75735931,15.2426407 C8.88257758,16.367859 10.4087011,17 12,17 C13.5912989,17 15.1174224,16.367859 16.2426407,15.2426407 C17.367859,14.1174224 18,12.5912989 18,11 C18,7.6862915 15.3137085,5 12,5 Z M12,6 C14.7614237,6 17,8.23857625 17,11 C17,13.7614237 14.7614237,16 12,16 C9.23857625,16 7,13.7614237 7,11 C7,8.23857625 9.23857625,6 12,6 Z" id="path-2"></path>
    </defs>
    <g id="Icons" stroke="none" stroke-width="1" fill="none" fill-rule="evenodd">
        <g id="Group-19">
            <rect id="Rectangle-6" fill-rule="nonzero" x="0" y="0" width="24" height="24"></rect>
            <g id="Combined-Shape">
                <use fill="#FFFFFF" xlink:href="#path-2"></use>
                <use fill="url(#linearGradient-1)" xlink:href="#path-2"></use>
            </g>
        </g>
    </g>
</svg>