<?xml version="1.0" encoding="UTF-8"?>
<svg width="16px" height="16px" viewBox="0 0 16 16" version="1.1" 
  xmlns="http://www.w3.org/2000/svg" 
  xmlns:xlink="http://www.w3.org/1999/xlink">
  <!-- Generator: Sketch 62 (91390) - https://sketch.com -->
  <title>Icon/Editor/Else</title>
  <desc>Created with Sketch.</desc>
  <defs>
    <linearGradient x1="50%" y1="0%" x2="50%" y2="100%" id="linearGradient-1">
      <stop stop-color="currentColor" stop-opacity="0.724213089" offset="0%"></stop>
      <stop stop-color="currentColor" offset="100%"></stop>
    </linearGradient>
    <path d="M-5.68434189e-14,11.8059728 C-5.68434189e-14,12.3235822 0.419052993,12.7621961 0.936662435,12.7629484 L2.78516011,12.7652054 C3.58564913,12.7659577 4.35303522,12.4492229 4.91804204,11.8834637 L10.9360041,5.86625398 C11.1406404,5.66086535 11.4182536,5.54575744 11.7079043,5.54575744 L12.0961113,5.54575744 C12.3391169,5.54575744 12.5354775,5.74287034 12.5354775,5.98587593 L12.5354775,6.92103369 C12.5354775,7.14673548 12.7942822,7.27463316 12.973339,7.13770741 L15.8149245,4.97097021 C16.0616918,4.78288538 16.0616918,4.41122977 15.8149245,4.22314494 L12.973339,2.05640774 C12.7942822,1.91948199 12.5354775,2.04737967 12.5354775,2.27308146 L12.5354775,3.21576261 C12.5354775,3.45801587 12.3398693,3.65437643 12.097616,3.65512877 L11.7033902,3.65663344 C10.9081676,3.6596428 10.1468002,3.97637765 9.58480275,4.53837511 L3.57511638,10.5480615 C3.37048009,10.7526978 3.09286688,10.8678057 2.80321625,10.8678057 L0.938167113,10.8678057 C0.419805332,10.8678057 -5.68434189e-14,11.287611 -5.68434189e-14,11.8059728 Z" id="path-2"></path>
    <linearGradient x1="50%" y1="0%" x2="50%" y2="100%" id="linearGradient-3">
      <stop stop-color="currentColor" stop-opacity="0.724213089" offset="0%"></stop>
      <stop stop-color="currentColor" offset="100%"></stop>
    </linearGradient>
    <path d="M8.23408679,-0.788226228 L8.34398906,-0.781604055 C9.14322522,-0.733445999 9.76373439,-0.0660519038 9.75365109,0.734570328 L9.57905033,14.5980101 C9.5690261,15.3939425 8.93903535,16.0434422 8.14377857,16.077728 L8.05662175,16.0814856 C7.26745843,16.1155087 6.60013399,15.5033466 6.5661109,14.7141833 C6.56505187,14.6896192 6.56462643,14.665032 6.56483501,14.640446 L6.68344345,0.659436306 C6.69029652,-0.148372157 7.35071018,-0.797674791 8.15851865,-0.790821717 C8.18372619,-0.790607867 8.20892399,-0.789742415 8.23408679,-0.788226228 Z" id="path-4"></path>
  </defs>
  <g id="Icon/Editor/Else" stroke="none" stroke-width="1" fill="none" fill-rule="evenodd">
    <g id="Group">
      <rect id="Rectangle" x="0" y="0" width="16" height="16"></rect>
      <g id="shuffle">
        <use fill="#FFFFFF" xlink:href="#path-2"></use>
        <use fill="url(#linearGradient-1)" xlink:href="#path-2"></use>
      </g>
      <g id="Rectangle" transform="translate(8.161861, 7.632739) rotate(-45.000000) translate(-8.161861, -7.632739) ">
        <use fill="#FFFFFF" xlink:href="#path-4"></use>
        <use stroke="#FFFFFF" stroke-width="1" fill="url(#linearGradient-3)" xlink:href="#path-4"></use>
      </g>
    </g>
  </g>
</svg>