<?xml version="1.0" encoding="UTF-8"?>
<svg viewBox="0 0 16 16" version="1.1" xmlns="http://www.w3.org/2000/svg" xmlns:xlink="http://www.w3.org/1999/xlink">
  <g transform="translate(0.250000, 1.250000)" stroke="none" stroke-width="1" fill="none" fill-rule="evenodd">
    <path fill="currentColor" d="M12.7658889,0 C14.2809604,0 15.5,1.25420881 15.4994007,2.8215814 L15.4985293,2.74426971 C15.4995049,2.75992912 15.5,2.77571874 15.5,2.791624 L15.5,10.35 C15.5,12.0851589 14.12446,13.5 12.4166667,13.5 L3.08333333,13.5 C1.37553998,13.5 0,12.0851589 0,10.35 L0,2.790824 C0,2.73728619 0.00560964894,2.68505859 0.0162732362,2.6346969 L0.0190372979,2.5848318 C0.122956794,1.13577901 1.30657889,0 2.74578556,0 Z M1.5,5.302 L1.5,10.35 C1.5,11.2660411 2.21357113,12 3.08333333,12 L12.4166667,12 C13.2864289,12 14,11.2660411 14,10.35 L14,5.309 L10.8031547,7.53963729 C9.0323132,8.77423648 6.72568687,8.81996238 4.91510146,7.67677021 L4.70844783,7.53958715 L1.5,5.302 Z M12.7658889,1.5 L2.74578556,1.5 C2.10348001,1.5 1.56353144,2.01812336 1.5166379,2.66525721 L1.51167444,2.7908 C1.51167444,3.22401008 1.71903295,3.62632369 2.06178995,3.86521285 L5.56638613,6.3091637 C6.88987184,7.23187893 8.62179609,7.23187893 9.94521783,6.30921285 L13.4506552,3.86467609 C13.7629091,3.64750473 13.9641823,3.29245154 13.9938718,2.92978064 L14,2.7916 C14,2.07323858 13.4428356,1.5 12.7658889,1.5 Z"></path>
  </g>
</svg>
