<?xml version="1.0" encoding="UTF-8"?>
<svg width="16px" height="16px" viewBox="0 0 16 16" version="1.1" 
  xmlns="http://www.w3.org/2000/svg" 
  xmlns:xlink="http://www.w3.org/1999/xlink">
  <!-- Generator: Sketch 62 (91390) - https://sketch.com -->
  <title>Icon/System/Exit-fullscreen</title>
  <desc>Created with Sketch.</desc>
  <defs>
    <linearGradient x1="50%" y1="0%" x2="50%" y2="100%" id="linearGradient-1">
      <stop stop-color="#6E849A" stop-opacity="0.85" offset="0%"></stop>
      <stop stop-color="#6E849A" offset="100%"></stop>
    </linearGradient>
    <path d="M3.48250265,12 C3.76785886,12 4,12.2323651 4,12.5179967 L4,14.8848789 C4,15.185178 3.63674925,15.3357136 3.42466018,15.1234199 L2.80921623,14.5066101 C2.67733539,14.3753739 2.46447508,14.3753739 2.33259424,14.5066101 L1.01301456,15.8274631 C0.78318712,16.0575123 0.410681577,16.0575123 0.180854141,15.8274631 L0.172370577,15.8189713 C-0.0574568592,15.5889221 -0.0574568592,15.2160571 0.172370577,14.9860079 L1.49195026,13.6651549 C1.6238311,13.5339187 1.6238311,13.3200811 1.49195026,13.1888449 L0.879591247,12.575895 C0.667502169,12.3636013 0.817892606,12 1.11790225,12 L3.48250265,12 Z M14.8820978,12 C15.1821074,12 15.3324978,12.3636013 15.1204088,12.575895 L15.1204088,12.575895 L14.5080497,13.1888449 C14.3761689,13.3200811 14.3761689,13.5339187 14.5080497,13.6651549 L14.5080497,13.6651549 L15.8276294,14.9860079 C16.0574569,15.2160571 16.0574569,15.5889221 15.8276294,15.8189713 L15.8276294,15.8189713 L15.8191459,15.8274631 C15.5893184,16.0575123 15.2168129,16.0575123 14.9869854,15.8274631 L14.9869854,15.8274631 L13.6674058,14.5066101 C13.5355249,14.3753739 13.3226646,14.3753739 13.1907838,14.5066101 L13.1907838,14.5066101 L12.5753398,15.1234199 C12.3632507,15.3357136 12,15.185178 12,14.8848789 L12,14.8848789 L12,12.5179967 C12,12.2323651 12.2321411,12 12.5174973,12 L12.5174973,12 Z M10.2241317,4.8 C10.7631399,4.8 11.2,5.36321988 11.2,6.05813382 L11.2,9.94186618 C11.2,10.6367801 10.7631399,11.2 10.2241317,11.2 L5.7758683,11.2 C5.23686007,11.2 4.8,10.6367801 4.8,9.94186618 L4.8,6.05813382 C4.8,5.36321988 5.23686007,4.8 5.7758683,4.8 L10.2241317,4.8 Z M0.180854141,0.17253691 C0.410681577,-0.0575123034 0.78318712,-0.0575123034 1.01301456,0.17253691 L1.01301456,0.17253691 L2.33259424,1.49338994 C2.46447508,1.62462607 2.67733539,1.62462607 2.80921623,1.49338994 L2.80921623,1.49338994 L3.42466018,0.876580141 C3.63674925,0.664286404 4,0.814821963 4,1.1151211 L4,1.1151211 L4,3.48200328 C4,3.76763485 3.76785886,4 3.48250265,4 L3.48250265,4 L1.11790225,4 C0.817892606,4 0.667502169,3.63639873 0.879591247,3.42410499 L0.879591247,3.42410499 L1.49195026,2.81115507 C1.6238311,2.67991894 1.6238311,2.46608125 1.49195026,2.33484512 L1.49195026,2.33484512 L0.172370577,1.01399209 C-0.0574568592,0.783942874 -0.0574568592,0.411077873 0.172370577,0.18102866 L0.172370577,0.18102866 Z M15.8191459,0.17253691 L15.8276294,0.18102866 C16.0574569,0.411077873 16.0574569,0.783942874 15.8276294,1.01399209 L14.5080497,2.33484512 C14.3761689,2.46608125 14.3761689,2.67991894 14.5080497,2.81115507 L15.1204088,3.42410499 C15.3324978,3.63639873 15.1821074,4 14.8820978,4 L12.5174973,4 C12.2321411,4 12,3.76763485 12,3.48200328 L12,1.1151211 C12,0.814821963 12.3632507,0.664286404 12.5753398,0.876580141 L13.1907838,1.49338994 C13.3226646,1.62462607 13.5355249,1.62462607 13.6674058,1.49338994 L14.9869854,0.17253691 C15.2168129,-0.0575123034 15.5893184,-0.0575123034 15.8191459,0.17253691 Z" id="path-2"></path>
  </defs>
  <g id="Icon/System/Exit-fullscreen" stroke="none" stroke-width="1" fill="none" fill-rule="evenodd">
    <g id="Group-4">
      <rect id="Rectangle" x="0" y="0" width="16" height="16"></rect>
      <g id="exitfullscreen">
        <use fill="#FFFFFF" xlink:href="#path-2"></use>
        <use fill="url(#linearGradient-1)" xlink:href="#path-2"></use>
      </g>
    </g>
  </g>
</svg> 