<svg viewBox="0 0 16 16" version="1.1" xmlns="http://www.w3.org/2000/svg" xmlns:xlink="http://www.w3.org/1999/xlink">
    <g stroke="none" stroke-width="1" fill="none" fill-rule="evenodd" transform="translate(0 -0.5px)">
       <path fill="currentColor" d="M14.0744606,5.5369351 C14.6537971,6.20996702 15.1591822,6.93490025 15.5673167,7.68387688 C15.8108944,8.13186359 15.8108944,8.67403011 15.5673167,9.12201683 L15.5590367,9.13499996 L15.4079742,9.40565636 C13.7292905,12.3052916 10.958873,14.4195363 8.26083892,14.5488449 L8.00000389,14.5551219 C7.2659061,14.5551219 6.52113127,14.4065233 5.78347932,14.1232242 C5.3968024,13.9747189 5.20372615,13.5408679 5.35223147,13.154191 C5.50073678,12.7675141 5.93458771,12.5744378 6.32126464,12.7229432 C6.79789636,12.9059961 7.2689498,13.0146405 7.72688053,13.0457705 L8.00000389,13.0551219 C10.2367839,13.0551219 12.7774746,11.1068226 14.2498481,8.40488652 C13.893753,7.74752973 13.4490685,7.10966659 12.9376247,6.51550762 C12.6673994,6.20157906 12.7028278,5.72802876 13.0167564,5.45780342 C13.330685,5.18757808 13.8042353,5.22300654 14.0744606,5.5369351 Z M8,2.25 C9.29306347,2.25 10.6084474,2.7064821 11.8450459,3.53125995 L12.9163254,2.46761893 C13.2103514,2.17586284 13.6852215,2.17770291 13.9769776,2.47172886 C14.2422104,2.73902517 14.2648018,3.15577952 14.0458112,3.44854465 L13.9728677,3.53238107 L12.4500367,5.04199996 L12.439454,5.05384298 L10.2699764,7.20653395 L10.2600367,7.21499996 L3.08368237,14.337503 C2.78965643,14.6292591 2.31478626,14.627419 2.02303016,14.333393 C1.75779735,14.0660967 1.735206,13.6493424 1.95419653,13.3565773 L2.02714009,13.2727408 L2.96382207,12.3439442 C1.96592526,11.4432826 1.0893464,10.3267083 0.43268327,9.12201683 C0.189105577,8.67403011 0.189105577,8.13186359 0.432976661,7.6833378 C2.1435317,4.54342022 5.13396793,2.25 8,2.25 Z M8,3.75 C5.83765017,3.75 3.39146796,5.57074368 1.90119393,8.13275357 L1.74995255,8.4028597 C2.34023117,9.48716716 3.13505537,10.4911898 4.03053581,11.2856299 L5.26728286,10.0584906 C4.51443675,8.83291069 4.67185802,7.21006574 5.73955203,6.15060561 C6.80641593,5.09201221 8.43807458,4.93754147 9.66974911,5.68719874 L10.7527938,4.61322638 C9.83079193,4.05036146 8.88988961,3.75 8,3.75 Z M6.79608782,7.21537419 C6.32486885,7.68295919 6.18954739,8.35670099 6.39012265,8.94268869 L8.54191456,6.80814573 C7.94877854,6.61169456 7.26768023,6.74743764 6.79608782,7.21537419 Z"></path>
    </g>
</svg>