<svg width="16" height="16" viewBox="0 0 16 16" fill="none" xmlns="http://www.w3.org/2000/svg">
	<g transform="translate(0 0)" fill-rule="evenodd">
		<path d="M8.642 5.849C8.264 6.026 8 6.419 8 6.875 8 7.496 8.488 8 9.091 8a1.09 1.09 0 0 0 .995-.663c.062.209.096.432.096.663 0 1.243-.977 2.25-2.182 2.25S5.818 9.243 5.818 8 6.795 5.75 8 5.75a2.12 2.12 0 0 1 .642.099zM8 2c4.364 0 8 3.75 8 6s-3.636 6-8 6-8-3.75-8-6 3.636-6 8-6zm0 9.75c2.008 0 3.636-1.679 3.636-3.75S10.008 4.25 8 4.25 4.364 5.929 4.364 8 5.992 11.75 8 11.75z" fill="currentColor"/>
	</g>
</svg>