<svg viewBox="0 0 16 16" version="1.1" xmlns="http://www.w3.org/2000/svg" xmlns:xlink="http://www.w3.org/1999/xlink">
    <g stroke="none" stroke-width="1" fill="none" fill-rule="evenodd" transform="translate(0 0)">
       <path fill="currentColor" d="M8,1.75 C10.8699657,1.75 13.8601714,4.08460373 15.5699726,7.27974381 C15.8100091,7.72917986 15.8100091,8.27160586 15.569644,8.72165649 C13.8599658,11.9156534 10.8697768,14.25 8,14.25 C5.13003432,14.25 2.13982859,11.9153963 0.430027371,8.72025619 C0.189990876,8.27082014 0.189990876,7.72839414 0.430355973,7.27834351 C2.14003424,4.08434656 5.13022316,1.75 8,1.75 Z M8,3.25 C5.76715026,3.25 3.22622937,5.23361712 1.75314428,7.98561334 C1.74895191,7.993463 1.74895191,8.00575129 1.75285775,8.01306498 C3.22613136,10.7662007 5.76702,12.75 8,12.75 C10.2328497,12.75 12.7737706,10.7663829 14.2468557,8.01438666 C14.2510481,8.006537 14.2510481,7.99424871 14.2471422,7.98693502 C12.7738686,5.23379932 10.23298,3.25 8,3.25 Z M10.1829501,5.80560324 C11.3835517,7.01834003 11.3835517,8.98156145 10.1829569,10.1943742 C8.97818941,11.4114021 7.02172054,11.4114021 5.81702859,10.1943674 C4.61646611,8.98155624 4.61646611,7.01834523 5.81702409,5.80562143 C7.02172581,4.58860803 8.97818415,4.58860803 10.1829501,5.80560324 Z M6.88304023,6.86089846 C6.2611289,7.48911191 6.2611289,8.51082948 6.8830695,9.1391154 C7.50078035,9.76315504 8.49916969,9.76315504 9.11694074,9.1390972 C9.70229949,8.5477815 9.73673235,7.60795659 9.22025436,6.97569075 L9.11695875,6.86090528 L9.00413261,6.75724657 C8.38303333,6.23900988 7.46443774,6.27355924 6.88304023,6.86089846 Z"></path>
    </g>
</svg>