<svg version="1.1" viewBox="0 0 16 16" xmlns="http://www.w3.org/2000/svg">
  <g fill="none" fill-rule="evenodd">
    <path fill="currentColor" d="m4 6.5c-0.82843 0-1.5-0.67157-1.5-1.5s0.67157-1.5 1.5-1.5 1.5 0.67157 1.5 1.5-0.67157 1.5-1.5 1.5zm-3-1.5c0-1.6569 1.3431-3 3-3s3 1.3431 3 3c0 1.6569-1.3431 3-3 3s-3-1.3431-3-3zm11 7.5c-0.8284 0-1.5-0.6716-1.5-1.5s0.6716-1.5 1.5-1.5 1.5 0.6716 1.5 1.5-0.6716 1.5-1.5 1.5zm-3-1.5c0-1.6569 1.3431-3 3-3s3 1.3431 3 3-1.3431 3-3 3-3-1.3431-3-3zm-1-6.25c0-0.41422 0.3358-0.75 0.75-0.75h5.5c0.4142 0 0.75 0.33578 0.75 0.75s-0.3358 0.75-0.75 0.75h-5.5c-0.4142 0-0.75-0.33578-0.75-0.75zm-6.25 5.25c-0.41418 0-0.75 0.3358-0.75 0.75s0.33582 0.75 0.75 0.75h5.5c0.4142 0 0.75-0.3358 0.75-0.75s-0.3358-0.75-0.75-0.75h-5.5z"/>
  </g>
</svg>
