<?xml version="1.0" encoding="UTF-8"?>
<svg width="18px" height="18px" viewBox="0 0 24 24" version="1.1" xmlns="http://www.w3.org/2000/svg" xmlns:xlink="http://www.w3.org/1999/xlink">
    <title>Group 17</title>
    <defs>
        <linearGradient x1="50%" y1="0%" x2="50%" y2="100%" id="linearGradient-1">
            <stop stop-color="#6E849A" stop-opacity="0.85" offset="0%"></stop>
            <stop stop-color="#6E849A" offset="100%"></stop>
        </linearGradient>
        <path d="M19,2 C19.5522847,2 20,2.44771525 20,3 L20,21 C20,21.5522847 19.5522847,22 19,22 L5,22 C4.44771525,22 4,21.5522847 4,21 L4,3 C4,2.44771525 4.44771525,2 5,2 L19,2 Z M18,3 L6,3 C5.44771525,3 5,3.44771525 5,4 L5,4 L5,20 C5,20.5522847 5.44771525,21 6,21 L6,21 L18,21 C18.5522847,21 19,20.5522847 19,20 L19,20 L19,4 C19,3.44771525 18.5522847,3 18,3 L18,3 Z M17,4 C17.5522847,4 18,4.44771525 18,5 L18,19 C18,19.5522847 17.5522847,20 17,20 L7,20 C6.44771525,20 6,19.5522847 6,19 L6,5 C6,4.44771525 6.44771525,4 7,4 L17,4 Z M11.94375,8.3 C12.5947949,8.3 13.1107403,8.45136567 13.4916016,8.75410156 C13.8724628,9.05683745 14.0628906,9.47512754 14.0628906,10.0089844 C14.0628906,10.3605486 13.9538422,10.6811834 13.7357422,10.9708984 C13.5176421,11.2606134 13.1693383,11.5242827 12.6908203,11.7619141 C13.2702503,12.0386082 13.68203,12.3291326 13.9261719,12.6334961 C14.1703137,12.9378596 14.2923828,13.2902324 14.2923828,13.690625 C14.2923828,14.2830759 14.0856792,14.7558902 13.6722656,15.109082 C13.2588521,15.4622739 12.6924515,15.6388672 11.9730469,15.6388672 C11.2113243,15.6388672 10.6253927,15.4720394 10.2152344,15.1383789 C9.80507607,14.8047184 9.6,14.3319041 9.6,13.7199219 C9.6,12.9028605 10.0980419,12.2664736 11.0941406,11.8107422 C10.6449196,11.5568347 10.3226572,11.2825861 10.1273438,10.9879883 C9.93203027,10.6933905 9.834375,10.3638039 9.834375,9.99921875 C9.834375,9.48163804 10.0256166,9.06904451 10.4081055,8.76142578 C10.7905944,8.45380706 11.3024708,8.3 11.94375,8.3 Z M10.400781,13.7394527 C10.400781,14.1300796 10.5366846,14.4344386 10.8084958,14.6525386 C11.0803071,14.8706387 11.4619765,14.9796871 11.9535154,14.9796871 C12.4385438,14.9796871 12.8161442,14.8657559 13.0863279,14.6378902 C13.3565115,14.4100245 13.4916013,14.0975276 13.4916013,13.7003902 C13.4916013,13.3846334 13.3646495,13.1038745 13.1107419,12.858105 C12.8568344,12.6123356 12.4141305,12.3738939 11.7826169,12.142773 C11.2975885,12.3511074 10.9460295,12.5814111 10.7279294,12.833691 C10.5098294,13.0859709 10.400781,13.3878884 10.400781,13.7394527 Z M11.9339839,8.95918 C11.5270809,8.95918 11.2080736,9.05683527 10.9769527,9.25214875 C10.7458317,9.44746223 10.630273,9.70787629 10.630273,10.0333987 C10.630273,10.3328794 10.7263007,10.5900383 10.9183589,10.8048831 C11.1104172,11.0197279 11.4652313,11.2345696 11.9828121,11.4494144 C12.4483092,11.2541009 12.7778957,11.0441421 12.9715816,10.8195316 C13.1652675,10.5949211 13.2621089,10.3328794 13.2621089,10.0333987 C13.2621089,9.70462106 13.1441088,9.44339321 12.908105,9.24970734 C12.6721012,9.05602148 12.3473975,8.95918 11.9339839,8.95918 Z" id="path-2"></path>
    </defs>
    <g id="Icons" stroke="none" stroke-width="1" fill="none" fill-rule="evenodd">
        <g id="Group-17">
            <rect id="Rectangle-6" fill-rule="nonzero" x="0" y="0" width="24" height="24"></rect>
            <g id="Combined-Shape">
                <use fill="#FFFFFF" xlink:href="#path-2"></use>
                <use fill="url(#linearGradient-1)" xlink:href="#path-2"></use>
            </g>
        </g>
    </g>
</svg>