<?xml version="1.0" encoding="UTF-8"?>
<svg width="18px" height="18px" viewBox="0 0 24 24" version="1.1" xmlns="http://www.w3.org/2000/svg" xmlns:xlink="http://www.w3.org/1999/xlink">
    <title>Group 19 Copy</title>
    <defs>
        <linearGradient x1="50%" y1="0%" x2="50%" y2="100%" id="linearGradient-1">
            <stop stop-color="#6E849A" stop-opacity="0.85" offset="0%"></stop>
            <stop stop-color="#6E849A" offset="100%"></stop>
        </linearGradient>
        <path d="M3,16 L21,16 C21.5522847,16 22,15.5522847 22,15 L22,5 C22,4.44771525 21.5522847,4 21,4 L3,4 C2.44771525,4 2,4.44771525 2,5 L2,15 C2,15.5522847 2.44771525,16 3,16 Z M10.6018544,18.9785532 L13.8657351,18.9785532 C14.2418058,18.9785532 14.5466713,18.6736877 14.5466713,18.297617 C14.5466713,17.9215464 14.2418058,17.6166809 13.8657351,17.6166809 L10.6018544,17.6166809 C10.2257837,17.6166809 9.9209182,17.9215464 9.9209182,18.297617 C9.9209182,18.6736877 10.2257837,18.9785532 10.6018544,18.9785532 Z M22.3530839,3 C22.7102549,3.00027575 22.9997324,3.29851649 23,3.6665 L23,3.6665 L23,16.6665 C22.9997324,17.0344835 22.7102549,17.3327243 22.3530839,17.333 L22.3530839,17.333 L15.5587664,17.333 L15.5587664,18.6665 L17.8237007,18.6665 C18.1807289,18.6675996 18.4698173,18.9656628 18.4706168,19.3335 C18.4695508,19.7011419 18.1805401,19.9989017 17.8237007,20 L17.8237007,20 L6.1762993,20 C5.81927109,19.9989004 5.53018274,19.7008372 5.52938322,19.333 C5.53044921,18.9653581 5.8194599,18.6675983 6.1762993,18.6665 L6.1762993,18.6665 L8.44123357,18.6665 L8.44123357,17.333 L1.64691609,17.333 C1.28974512,17.3327243 1.00026764,17.0344835 1,16.6665 L1,16.6665 L1,3.6665 C1.00026764,3.29851649 1.28974512,3.00027575 1.64691609,3 L1.64691609,3 Z M20.5,5 L3.5,5 C3.22385763,5 3,5.22385763 3,5.5 L3,14.670213 C3,14.9463554 3.22385763,15.170213 3.5,15.170213 L20.5,15.170213 C20.7761424,15.170213 21,14.9463554 21,14.670213 L21,5.5 C21,5.22385763 20.7761424,5 20.5,5 Z" id="path-2"></path>
    </defs>
    <g id="Icons" stroke="none" stroke-width="1" fill="none" fill-rule="evenodd">
        <g id="Group-19-Copy">
            <rect id="Rectangle-6" fill-rule="nonzero" x="0" y="0" width="24" height="24"></rect>
            <g id="Path_5599">
                <use fill="#FFFFFF" xlink:href="#path-2"></use>
                <use fill="url(#linearGradient-1)" xlink:href="#path-2"></use>
            </g>
        </g>
    </g>
</svg>