<svg viewBox="0 0 16 16" version="1.1" xmlns="http://www.w3.org/2000/svg">
  <g stroke="none" stroke-width="1" fill="none" fill-rule="evenodd">
    <path
      d="M0.5,4.01527077 C0.5,2.83568 1.562225,2 2.71354063,2 L6.09007812,2 C6.54249688,2 6.99073437,2.19633754 7.2744875,2.56257385 L8.33569062,3.93416 C8.33569062,3.93416 8.34028437,3.93824923 8.34862812,3.94212615 C8.36085312,3.94782154 8.37846875,3.95252 8.39950625,3.95252 L13.2864687,3.95252 C14.438,3.95252 15.5,4.78907692 15.5,5.96779077 L15.5,11.9847385 C15.5,13.1643385 14.4378125,14 13.2864687,14 L2.71354063,14 C1.562225,14 0.5,13.1643385 0.5,11.9847385 L0.5,4.01527077 Z M2.79487077,3.5 C2.28513846,3.5 2,3.84347971 2,4.12376247 L2,11.8762016 C2,12.1564485 2.28513846,12.5 2.79487077,12.5 L13.2051385,12.5 C13.7148615,12.5 14,12.1564485 14,11.8762016 L14,6.02311046 C14,5.7432677 13.7145846,5.399348 13.2051385,5.399348 L8.39336,5.399348 C7.94870462,5.399348 7.50604308,5.20890407 7.22615692,4.85109324 L6.18216615,3.5179947 C6.18216615,3.5179947 6.17770769,3.513945 6.16916,3.51001202 C6.15726154,3.50453459 6.14010154,3.5 6.11946154,3.5 L2.79487077,3.5 Z"
      fill="currentColor"></path>
  </g>
</svg>