<svg version="1.1" viewBox="0 0 16.0 16.0" xmlns="http://www.w3.org/2000/svg" xmlns:xlink="http://www.w3.org/1999/xlink">
  <g transform="translate(0.5 1.9999505747486968)">
    <path fill="currentColor" d="M5.66308805,0.000332078072 C6.16575143,0.00282340895 6.58193714,0.0226294579 6.9721,0.163404425 C7.14771,0.226768425 7.31641,0.307849425 7.4756,0.405394425 C7.8882,0.658231425 8.19436,1.04158943 8.58254,1.52763943 L8.65023,1.61234943 L8.72849,1.71015943 C9.16806,2.25961943 9.26317,2.35576943 9.36703,2.41134943 C9.38615,2.42157943 9.4057,2.43097943 9.42563,2.43951943 C9.53379,2.48583943 9.66953,2.50008943 10.377,2.50008943 L10.7756659,2.50028359 C11.4598653,2.50148289 12.0412286,2.50998085 12.519,2.56956943 C13.105,2.64266943 13.6392,2.80288943 14.0839,3.20089943 C14.1596,3.26861943 14.2315,3.34047943 14.2992,3.41614943 C14.6967,3.86030943 14.8572,4.39271943 14.9305,4.97718943 C15,5.53239943 15,6.22759943 15,7.06100943 L15,7.30217943 C15,8.20064943 15,8.94985943 14.9201,9.54462943 C14.8357,10.1724494 14.65,10.7392494 14.1945,11.1946494 C13.7391,11.6501494 13.1723,11.8358494 12.5445,11.9202494 C11.9497,12.0001494 11.2004,12.0001494 10.302,12.0001494 L5.69795,12.0001494 C4.79949,12.0001494 4.05029,12.0001494 3.45552,11.9202494 C2.82772,11.8358494 2.26092,11.6501494 1.80545,11.1946494 C1.34998,10.7392494 1.16431,10.1724494 1.07991,9.54461943 C1.06798,9.45590943 1.05784,9.36376943 1.0492,9.26819943 C1.01126,8.84814943 1.35656,8.50004943 1.77832,8.50004943 C2.18518,8.50004943 2.5085,8.82527943 2.55258,9.22974943 C2.55687,9.26910943 2.56151,9.30741943 2.56653,9.34474943 C2.62857,9.80621943 2.7358,10.0037494 2.86611,10.1340494 C2.99643,10.2643494 3.19393,10.3715494 3.65539,10.4336494 C4.090126,10.4920594 4.6581232,10.4991964 5.47014586,10.5000397 L10.5298598,10.5000397 C11.341874,10.4991964 11.9099,10.4920594 12.3446,10.4336494 C12.8061,10.3715494 13.0036,10.2643494 13.1339,10.1340494 C13.2642,10.0037494 13.3714,9.80621943 13.4335,9.34475943 C13.4984,8.86171943 13.5,8.21416943 13.5,7.25014943 L13.5,7.10907943 C13.5,6.21505943 13.4986,5.61462943 13.4421,5.16370943 C13.3879,4.73138943 13.2936,4.54182943 13.1814,4.41647943 C13.1507,4.38208943 13.118,4.34941943 13.0836,4.31863943 C12.9588,4.20696943 12.7687,4.11234943 12.3333,4.05802943 C11.9805778,4.01403054 11.5366914,4.00342424 10.9340288,4.00088312 L10.0425793,4.00003036 C9.60097367,3.99751228 9.20216714,3.97559514 8.83507,3.81836943 C8.77528,3.79275943 8.71662,3.76456943 8.65927,3.73387943 C8.24851,3.51405943 7.95565,3.14680943 7.62529,2.73251943 L7.5572,2.64722943 L7.47894,2.54940943 C6.98985,1.93805943 6.85205,1.78251943 6.69187,1.68435943 C6.61951,1.64002943 6.54283,1.60316943 6.463,1.57436943 C6.29988308,1.51551404 6.1104968,1.50209108 5.46653786,1.50037427 L4.83705137,1.50072526 C4.34066198,1.50250473 3.97467778,1.50993165 3.68053,1.54073943 C3.31554,1.57897943 3.1479,1.64644943 3.03699,1.72347943 C2.91458,1.80848943 2.80837,1.91470943 2.72335,2.03710943 C2.64633,2.14801943 2.57885,2.31565943 2.54061,2.68064943 C2.5234,2.84495943 2.51348,3.03167943 2.50777,3.25101943 C2.49699,3.66473943 2.16501,4.00004943 1.75114,4.00004943 C1.3365,4.00004943 0.99731,3.66356943 1.0074,3.24904943 C1.01386,2.98315943 1.026,2.74171943 1.04878,2.52434943 C1.09987,2.03665943 1.21105,1.58502943 1.49134,1.18145943 C1.67837,0.912163425 1.91205,0.678485425 2.18135,0.491458425 C2.58492,0.211173425 3.03655,0.0999956254 3.52425,0.0489064254 C3.92335286,0.0070289967 4.40358061,0.00104650689 4.96738924,0.000191865485 L5.66308805,0.000332078072 Z M5.32617,3.76992943 L6.82617,5.76992943 C7.05795,6.04806943 7.05795,6.45206943 6.82617,6.73020943 L5.32617,8.73020943 C5.061,9.04841943 4.58807,9.09140943 4.26986,8.82623943 C3.95166,8.56105943 3.90866,8.08813943 4.17384,7.76992943 L4.64873,7.00005943 L0.749999,7.00005943 C0.335786,7.00005943 0,6.66426943 0,6.25005943 C0,5.83583943 0.335786,5.50005943 0.75,5.50005943 L4.64871,5.50005943 L4.17384,4.73020943 C3.90866,4.41199943 3.95166,3.93907943 4.26986,3.67389943 C4.58807,3.40872943 5.06099,3.45171943 5.32617,3.76992943 Z"></path>
  </g>
</svg>
