<svg viewBox="0 0 180 252" version="1.1" xmlns="http://www.w3.org/2000/svg" xmlns:xlink="http://www.w3.org/1999/xlink" stroke="none" stroke-width="1" fill="none" fill-rule="evenodd">
  <path d="M180,236.78 C180,244.774 173.517,251.258 165.523,251.258 L14.477,251.258 C6.483,251.258 0,244.774 0,236.78 L0,15.28 C0,7.286 6.483,0.803 14.477,0.803 L111.595,0.803 L180,70.867 L180,236.78" fill="currentColor" />
  <path d="M119.135,69.089 L180,127.238 L179.821,70.777 L179.719,70.774 L125.951,70.774 C123.501,70.774 121.194,70.165 119.171,69.09 L119.135,69.089" fill="#FFFFFF" fill-opacity="0.3" />
  <path d="M180,70.774 L125.951,70.774 C117.957,70.774 111.474,64.291 111.474,56.297 L111.474,0.742 L180,70.774"  fill="#000000" fill-opacity="0.2" />
  <path d="M43.191,204.931 L136.809,204.931 L136.809,123.859 L43.191,123.859 L43.191,204.931 Z M95.789,149.918 L125.227,149.918 L125.227,135.441 L95.789,135.441 L95.789,149.918 Z M95.789,172.117 L125.227,172.117 L125.227,158.604 L95.789,158.604 L95.789,172.117 Z M95.789,193.349 L125.227,193.349 L125.227,180.803 L95.789,180.803 L95.789,193.349 Z M54.773,193.349 L84.208,193.349 L84.208,180.803 L54.773,180.803 L54.773,193.349 Z M54.773,172.117 L84.208,172.117 L84.208,158.604 L54.773,158.604 L54.773,172.117 Z M54.773,149.918 L84.208,149.918 L84.208,135.441 L54.773,135.441 L54.773,149.918 Z" fill="#FFFFFF" />
</svg>
