<svg viewBox="0 0 16 16" version="1.1" xmlns="http://www.w3.org/2000/svg" xmlns:xlink="http://www.w3.org/1999/xlink">
    <g id="Icon/System/IF_2" stroke="none" stroke-width="1" fill="none" fill-rule="evenodd">
        <use fill="currentColor" xlink:href="#path-1"></use>
        <path d="M2.06555414,9.25885414 C2.53624414,9.86118414 3.25107414,10.5797441 4.33591414,11.6645441 C5.42075414,12.7494441 6.13932414,13.4642441 6.74164414,13.9349441 C7.31567414,14.3835441 7.62414414,14.4787441 7.85772414,14.4954441 C7.95262414,14.5022441 8.04788414,14.5022441 8.14277414,14.4954441 C8.37636414,14.4787441 8.68483414,14.3835441 9.25885414,13.9349441 C9.86118414,13.4642441 10.5797441,12.7494441 11.6645441,11.6645441 C12.7494441,10.5797441 13.4642441,9.86118414 13.9349441,9.25885414 C14.3835441,8.68483414 14.4787441,8.37636414 14.4954441,8.14277414 C14.5022441,8.04788414 14.5022441,7.95262414 14.4954441,7.85772414 C14.4787441,7.62414414 14.3835441,7.31567414 13.9349441,6.74164414 C13.4642441,6.13932414 12.7494441,5.42075414 11.6645441,4.33591414 C10.5797441,3.25107414 9.86118414,2.53624414 9.25885414,2.06555414 C8.68483414,1.61696414 8.37636414,1.52177414 8.14277414,1.50508414 C8.04788414,1.49830414 7.95262414,1.49830414 7.85772414,1.50508414 C7.62414414,1.52177414 7.31567414,1.61696414 6.74164414,2.06555414 C6.13932414,2.53624414 5.42075414,3.25107414 4.33591414,4.33591414 C3.25107414,5.42075414 2.53624414,6.13932414 2.06555414,6.74164414 C1.61696414,7.31567414 1.52177414,7.62414414 1.50508414,7.85772414 C1.49830414,7.95262414 1.49830414,8.04788414 1.50508414,8.14277414 C1.52177414,8.37636414 1.61696414,8.68483414 2.06555414,9.25885414 Z M7.75083414,0.0088985025 C6.44856414,0.101938142 5.39079414,1.15971414 3.27525414,3.27525414 C1.15971414,5.39079414 0.101938142,6.44856414 0.0088985025,7.75083414 C-0.0029661675,7.91690414 -0.0029661675,8.08360414 0.0088985025,8.24967414 C0.101938142,9.55193414 1.15971414,10.6097441 3.27525414,12.7252441 C5.39079414,14.8408441 6.44856414,15.8985441 7.75083414,15.9916441 C7.91690414,16.0034441 8.08360414,16.0034441 8.24967414,15.9916441 C9.55193414,15.8985441 10.6097441,14.8408441 12.7252441,12.7252441 C14.8408441,10.6097441 15.8985441,9.55193414 15.9916441,8.24967414 C16.0034441,8.08360414 16.0034441,7.91690414 15.9916441,7.75083414 C15.8985441,6.44856414 14.8408441,5.39079414 12.7252441,3.27525414 C10.6097441,1.15971414 9.55193414,0.101938142 8.24967414,0.0088985025 C8.08360414,-0.0029661675 7.91690414,-0.0029661675 7.75083414,0.0088985025 Z M5.00024414,5.75024414 C5.00024414,5.33603414 5.33603414,5.00024414 5.75024414,5.00024414 C6.16445414,5.00024414 6.50024414,5.33603414 6.50024414,5.75024414 L6.50024414,10.2502441 C6.50024414,10.6644441 6.16445414,11.0002441 5.75024414,11.0002441 C5.33603414,11.0002441 5.00024414,10.6644441 5.00024414,10.2502441 L5.00024414,5.75024414 Z M10.7502441,5.00024414 C10.4951441,5.00024414 10.2426441,5.00024414 10.0000941,5.00024414 C9.05738414,5.00024414 8.58603414,5.00024414 8.29313414,5.29313414 C8.00024414,5.58603414 8.00024414,6.05737414 8.00024414,7.00006414 C8.00024414,7.32779414 8.00024414,7.66873414 8.00024414,8.00024414 L8.00024414,8.25024414 L8.00024414,10.2502441 C8.00024414,10.6644441 8.33603414,11.0002441 8.75024414,11.0002441 C9.16445414,11.0002441 9.50024414,10.6644441 9.50024414,10.2502441 L9.50024414,9.00024414 L10.2502441,9.00024414 C10.6644441,9.00024414 11.0002441,8.66445414 11.0002441,8.25024414 C11.0002441,7.83603414 10.6644441,7.50024414 10.2502441,7.50024414 L9.50024414,7.50024414 C9.50024414,7.02884414 9.50024414,6.79313414 9.64669414,6.64669414 C9.79313414,6.50024414 10.0288441,6.50024414 10.5002441,6.50024414 L10.7502441,6.50024414 C11.1644441,6.50024414 11.5002441,6.16445414 11.5002441,5.75024414 C11.5002441,5.33603414 11.1644441,5.00024414 10.7502441,5.00024414 Z" id="path-1"></path>
    </g>
</svg>