<?xml version="1.0" encoding="UTF-8"?>
<svg viewBox="0 0 24 24" version="1.1" xmlns="http://www.w3.org/2000/svg" xmlns:xlink="http://www.w3.org/1999/xlink">
  <defs>
    <path
      d="M21.4120186,5.47755144 L20.4290186,0.996551439 C20.2810186,0.321551439 19.6140186,-0.104448561 18.9400186,0.0435514386 L1.47301861,3.87555144 C0.799018609,4.02355144 0.372018609,4.68955144 0.520018609,5.36355144 L2.63501861,15.0075514 L2.15301861,18.9055514 C2.06801861,19.5905514 2.55401861,20.2145514 3.23901861,20.2995514 L20.9860186,22.4995514 C21.6710186,22.5845514 22.2950186,22.0975514 22.3800186,21.4125514 L24.0930186,7.59055144 C24.1790186,6.90455144 23.6920186,6.28055144 23.0070186,6.19655144 L22.0730186,6.07955144 C21.7470186,6.03955144 21.4830186,5.79855144 21.4120186,5.47755144 L21.4120186,5.47755144 Z M19.2140186,5.72555144 L9.68601861,4.54455144 C9.38901861,4.50755144 9.36801861,4.08455144 9.66101861,4.01855144 L18.1840186,2.10155144 C18.5340186,2.02355144 18.8820186,2.24355144 18.9610186,2.59355144 L19.5750186,5.32655144 C19.6250186,5.54955144 19.4400186,5.75355144 19.2140186,5.72555144 L19.2140186,5.72555144 Z M2.46001861,6.20255144 C2.39301861,5.90555144 2.58001861,5.61155144 2.87701861,5.54455144 L3.37101861,5.43355144 C3.59701861,5.38255144 3.80501861,5.57155144 3.77701861,5.80155144 L3.50401861,8.00355144 C3.46001861,8.36055144 2.95101861,8.38455144 2.87201861,8.03355144 L2.46001861,6.20255144 L2.46001861,6.20255144 Z M20.0990186,20.6085514 L4.61701861,18.7715514 C4.26101861,18.7285514 4.00601861,18.4055514 4.04901861,18.0495514 L5.40501861,6.61755144 C5.44701861,6.26055144 5.77101861,6.00655144 6.12701861,6.04855144 L21.6090186,7.88555144 C21.9650186,7.92755144 22.2200186,8.25155144 22.1770186,8.60755144 L20.8210186,20.0395514 C20.7790186,20.3955514 20.4560186,20.6505514 20.0990186,20.6085514 L20.0990186,20.6085514 Z M18.9140186,17.6535514 C19.1060186,17.9485514 18.8650186,18.3345514 18.5150186,18.2925514 L6.45201861,16.8325514 C6.02201861,16.7795514 5.84601861,16.2515514 6.15901861,15.9515514 L11.1170186,11.2105514 C11.4620186,10.8815514 12.0210186,10.9465514 12.2800186,11.3465514 L13.6930186,13.5295514 C13.9160186,13.8735514 14.3950186,13.9295514 14.6910186,13.6465514 L15.2140186,13.1465514 C15.4650186,12.9065514 15.8710186,12.9545514 16.0600186,13.2455514 L18.9140186,17.6535514 Z M20.0770186,10.7735514 C20.0770186,11.5005514 19.4880186,12.0895514 18.7610186,12.0895514 C18.0340186,12.0895514 17.4450186,11.5005514 17.4450186,10.7735514 C17.4450186,10.0465514 18.0340186,9.45655144 18.7610186,9.45655144 C19.4880186,9.45655144 20.0770186,10.0465514 20.0770186,10.7735514 Z"
      id="path-1"></path>
  </defs>
  <g id="Artboard" stroke="none" stroke-width="1" fill="none" fill-rule="evenodd">
    <rect id="Rectangle" x="0" y="0" width="24" height="24"></rect>
    <g id="photos">
      <use fill="currentColor" xlink:href="#path-1"></use>
      <use fill="currentColor" xlink:href="#path-1"></use>
    </g>
  </g>
</svg>
