<svg viewBox="0 0 16 16" version="1.1" xmlns="http://www.w3.org/2000/svg" xmlns:xlink="http://www.w3.org/1999/xlink">
    <g stroke="none" stroke-width="1" fill="none" fill-rule="evenodd">
        <path d="M8,0 C12.4183,0 16,3.58172 16,8 C16,12.4183 12.4183,16 8,16 C3.58172,16 0,12.4183 0,8 C0,3.58172 3.58172,0 8,0 Z M8,1.5 C4.41015,1.5 1.5,4.41015 1.5,8 C1.5,11.5899 4.41015,14.5 8,14.5 C11.5899,14.5 14.5,11.5899 14.5,8 C14.5,4.41015 11.5899,1.5 8,1.5 Z M9.85252,10.9702 C10.2037,10.7506 10.6665,10.8573 10.8861,11.2085 C11.1057,11.5597 10.999,12.0224 10.6478,12.242 C9.8795,12.7224 8.97102,13 8.00001,13 C7.029,13 6.12051,12.7224 5.35222,12.242 C5.00101,12.0224 4.89433,11.5597 5.11394,11.2085 C5.33355,10.8573 5.79629,10.7506 6.14749,10.9702 C6.68429,11.3059 7.31833,11.5 8.00001,11.5 C8.68168,11.5 9.31573,11.3059 9.85252,10.9702 Z M7.9998,2.99999 C8.41401,2.99999 8.7498,3.33577 8.7498,3.74999 L8.7498,7.29576 L9.69254,6.24827 C9.96963,5.94039 10.4438,5.91543 10.7517,6.19252 C11.0596,6.46962 11.0846,6.94383 10.8075,7.25172 L8.56448,9.74393 C8.55358,9.75636 8.5422,9.7685 8.53035,9.78034 C8.38503,9.92591 8.19289,9.99999 8.00001,9.99999 C7.88928,9.99999 7.7783,9.97569 7.6758,9.92652 C7.60103,9.89072 7.53116,9.84193 7.46966,9.78034 C7.45781,9.7685 7.44643,9.75635 7.43552,9.74392 L5.19254,7.25172 C4.91544,6.94383 4.9404,6.46962 5.24828,6.19252 C5.55617,5.91543 6.03038,5.94039 6.30748,6.24827 L7.2498,7.29529 L7.2498,3.74999 C7.2498,3.33577 7.58559,2.99999 7.9998,2.99999 Z" fill="currentColor"></path>
    </g>
</svg>