<svg viewBox="0 0 16 16" version="1.1" xmlns="http://www.w3.org/2000/svg" xmlns:xlink="http://www.w3.org/1999/xlink">
	<defs>
		<path d="M2.7502679,15.2729843 L2.75031562,3.23617998 C2.75031562,2.95571725 2.63895354,2.68602256 2.43933983,2.48306441 C1.85355339,1.91502908 1.85355339,0.994061833 2.43933983,0.4260265 C2.73223305,0.142008833 3.11611652,0 3.5,0 C3.88388348,0 4.26776695,0.142008833 4.56066017,0.4260265 C5.14644661,0.994061833 5.14644661,1.91502908 4.56066017,2.48306441 C4.36104646,2.68602256 4.24968438,2.95571725 4.24968438,3.23617998 L4.2497321,15.2729843 C4.24973369,15.6745024 3.91406849,16 3.5,16 C3.08593439,16 2.7502679,15.6745052 2.7502679,15.2729871 L2.7502679,15.2729843 Z M6.125,3.27272727 L13.625,3.27272727 C13.8321068,3.27272727 14,3.43553282 14,3.63636364 C14,3.87304757 13.9249225,4.10400348 13.7849516,4.29790252 L11.6760677,7.21930011 C11.4952997,7.46971477 11.4952997,7.8030125 11.6760677,8.05342716 L13.7849516,10.9748248 C13.9249225,11.1687238 14,11.3996797 14,11.6363636 C14,11.8371945 13.8321068,12 13.625,12 L6.125,12 C5.71078644,12 5.375,11.6743889 5.375,11.2727273 L5.375,4 C5.375,3.59833836 5.71078644,3.27272727 6.125,3.27272727 Z" id="path-2">
		</path>
		<path d="M2.7502679,15.2729843 L2.75031562,3.23617998 C2.75031562,2.95571725 2.63895354,2.68602256 2.43933983,2.48306441 C1.85355339,1.91502908 1.85355339,0.994061833 2.43933983,0.4260265 C2.73223305,0.142008833 3.11611652,0 3.5,0 C3.88388348,0 4.26776695,0.142008833 4.56066017,0.4260265 C5.14644661,0.994061833 5.14644661,1.91502908 4.56066017,2.48306441 C4.36104646,2.68602256 4.24968438,2.95571725 4.24968438,3.23617998 L4.2497321,15.2729843 C4.24973369,15.6745024 3.91406849,16 3.5,16 C3.08593439,16 2.7502679,15.6745052 2.7502679,15.2729871 L2.7502679,15.2729843 Z M6.125,3.27272727 L13.625,3.27272727 C13.8321068,3.27272727 14,3.43553282 14,3.63636364 C14,3.87304757 13.9249225,4.10400348 13.7849516,4.29790252 L11.6760677,7.21930011 C11.4952997,7.46971477 11.4952997,7.8030125 11.6760677,8.05342716 L13.7849516,10.9748248 C13.9249225,11.1687238 14,11.3996797 14,11.6363636 C14,11.8371945 13.8321068,12 13.625,12 L6.125,12 C5.71078644,12 5.375,11.6743889 5.375,11.2727273 L5.375,4 C5.375,3.59833836 5.71078644,3.27272727 6.125,3.27272727 Z" id="path-3">
		</path>
	</defs>
	<g id="Icon/Editor/Start" stroke="none" stroke-width="1" fill="none" fill-rule="evenodd">
		<g id="Combined-Shape">
			<use fill="currentColor" xlink:href="#path-2">
			</use>
		</g>
		<g id="Combined-Shape">
			<use fill="currentColor" xlink:href="#path-3">
			</use>
		</g>
	</g>
</svg>
