<?xml version="1.0" encoding="UTF-8"?>
<svg version="1.1" xmlns="http://www.w3.org/2000/svg" xmlns:xlink="http://www.w3.org/1999/xlink">
  <path fill="currentColor" d="M8,0 C12.3352956,0 15.8645573,3.44746363 15.9961936,7.75079949 L16,8 C16,12.3352956 12.5525364,15.8645573 8.24920051,15.9961936 L8,16 C3.6647044,16 0.135442744,12.5525364 0.00380641738,8.24920051 L0,8 C0,3.6647044 3.44746363,0.135442744 7.75079949,0.00380641738 L8,0 Z M8.0229091,1.49982505 L7.79666209,1.50310513 C4.3712966,1.60788489 1.62450372,4.35891903 1.50395203,7.74524425 L1.49982505,7.9770909 L1.50310513,8.20333791 C1.60788489,11.6287034 4.35891903,14.3754963 7.74524425,14.496048 L7.9770909,14.500175 L8.20333791,14.4968949 C11.6287034,14.3921151 14.3754963,11.641081 14.496048,8.25475575 L14.500175,8.0229091 L14.4968949,7.79666209 C14.3921151,4.3712966 11.641081,1.62450372 8.23334023,1.50411557 L8.0229091,1.49982505 Z M8.14747976,6.75 C8.52717552,6.75 8.84097072,7.03215388 8.89063314,7.39822944 L8.89747976,7.5 L8.89747976,11.9444444 C8.89747976,12.358658 8.56169332,12.6944444 8.14747976,12.6944444 C7.76778399,12.6944444 7.45398879,12.4122906 7.40432637,12.046215 L7.39747976,11.9444444 L7.397,8.25 L7.25859087,8.25 C6.8788951,8.25 6.56509991,7.96784612 6.51543748,7.60177056 L6.50859087,7.5 C6.50859087,7.12030423 6.79074475,6.80650904 7.15682031,6.75684662 L7.25859087,6.75 L8.14747976,6.75 Z M7.99911406,3.52777778 L8.11255037,3.53431099 C8.59633646,3.59040782 8.97222518,4.0009103 8.97222518,4.5 C8.97222518,5.03688223 8.53688118,5.47222222 8,5.47222222 C7.46312073,5.47222222 7.02777437,5.03687823 7.02780042,4.50543464 C7.02416949,4.00436603 7.40056841,3.59087377 7.88542292,3.53435992 L7.99911406,3.52777778 Z" id="path-2"></path>
</svg>