<svg xmlns="http://www.w3.org/2000/svg" viewBox="0 0 16 16">
	<g fill="none" fill-rule="evenodd">
		<path fill-rule="nonzero" d="M0 0H16V16H0z" transform="translate(-880 -299) translate(766 283) translate(98) translate(16 16)" />
		<g transform="translate(-880 -299) translate(766 283) translate(98) translate(16 16) translate(1)">
			<path fill="currentColor" d="M11.63 13c.097 0 .194.023.281.066l1.74.87c.312.156.438.534.282.846-.06.121-.16.22-.281.281l-1.74.87c-.312.156-.69.03-.846-.281-.043-.088-.066-.184-.066-.282V15L.5 15c-.276 0-.5-.224-.5-.5s.224-.5.5-.5l10.5-.001v-.37c0-.347.282-.629.63-.629zM7.168 0c.508 0 .96.32 1.13.798l3.653 10.268c.129.364-.061.764-.425.894-.075.026-.154.04-.234.04h-.115c-.522 0-.984-.337-1.143-.834l-.739-2.308c-.079-.248-.31-.417-.571-.417H5.242c-.262 0-.494.17-.573.42l-.72 2.298c-.157.5-.62.841-1.145.841h-.102c-.383 0-.693-.31-.693-.694 0-.079.013-.158.04-.232L5.703.798C5.873.32 6.326 0 6.833 0h.335zm-.246 2.52c-.096.028-.17.103-.196.2-.125.46-.242.847-.35 1.163l-.768 2.326c-.104.315.066.654.381.758.06.02.124.03.188.03h1.665c.331 0 .6-.268.6-.6 0-.063-.01-.127-.03-.187l-.81-2.466c-.067-.187-.156-.466-.267-.837l-.057-.193c-.045-.152-.204-.24-.356-.194z" />
		</g>
	</g>
</svg>
