<?xml version="1.0" encoding="UTF-8"?>
<svg width="16px" height="16px" viewBox="0 0 16 16" version="1.1" xmlns="http://www.w3.org/2000/svg" xmlns:xlink="http://www.w3.org/1999/xlink">
    <path d="M1.75,3 C1.335785,3 1,3.335815 1,3.75 C1,4.16418 1.335785,4.5 1.75,4.5 L2.25,4.5 C2.66422,4.5 3,4.16418 3,3.75 C3,3.335815 2.66422,3 2.25,3 L1.75,3 Z M1.75,7 C1.335785,7 1,7.33582 1,7.75 C1,8.16418 1.335785,8.5 1.75,8.5 L2.25,8.5 C2.66422,8.5 3,8.16418 3,7.75 C3,7.33582 2.66422,7 2.25,7 L1.75,7 Z M1,11.75 C1,11.33582 1.335785,11 1.75,11 L2.25,11 C2.66422,11 3,11.33582 3,11.75 C3,12.16418 2.66422,12.5 2.25,12.5 L1.75,12.5 C1.335785,12.5 1,12.16418 1,11.75 Z M5.75,3 C5.33578,3 5,3.335815 5,3.75 C5,4.16418 5.33578,4.5 5.75,4.5 L14.25,4.5 C14.6642,4.5 15,4.16418 15,3.75 C15,3.335815 14.6642,3 14.25,3 L5.75,3 Z M5,7.75 C5,7.33582 5.33578,7 5.75,7 L14.25,7 C14.6642,7 15,7.33582 15,7.75 C15,8.16418 14.6642,8.5 14.25,8.5 L5.75,8.5 C5.33578,8.5 5,8.16418 5,7.75 Z M5.75,11 C5.33578,11 5,11.33582 5,11.75 C5,12.16418 5.33578,12.5 5.75,12.5 L14.25,12.5 C14.6642,12.5 15,12.16418 15,11.75 C15,11.33582 14.6642,11 14.25,11 L5.75,11 Z" fill="currentColor"></path>
</svg>