<?xml version="1.0" encoding="UTF-8"?>
<svg viewBox="0 0 16 16" version="1.1" xmlns="http://www.w3.org/2000/svg" xmlns:xlink="http://www.w3.org/1999/xlink">

  <path
    d="M11,6.18181818 L11,4.36363636 C11,2.75698982 9.65685425,1.45454545 8,1.45454545 C6.34314575,1.45454545 5,2.75698982 5,4.36363636 L5,6.18181818 L11,6.18181818 Z M3.5,6.18181818 L3.5,4.36363636 C3.5,1.95366655 5.51471863,-4.03717464e-16 8,0 C10.4852814,3.22973971e-16 12.5,1.95366655 12.5,4.36363636 L12.5,6.18181818 C13.3284271,6.18181818 14,6.83304036 14,7.63636364 L14,11.6363636 C14,14.0463335 11.9852814,16 9.5,16 L6.5,16 C4.01471863,16 2,14.0463335 2,11.6363636 L2,7.63636364 C2,6.83304036 2.67157288,6.18181818 3.5,6.18181818 Z M8.75,12.3636364 L8.74999885,11.4426632 C8.74999885,11.2313285 8.84479817,11.0304454 9.00972433,10.8922959 C9.02889437,10.8762383 9.04587298,10.8610399 9.06066017,10.8467008 C9.64644661,10.2786654 9.64644661,9.3576982 9.06066017,8.78966286 C8.47487373,8.22162753 7.52512627,8.22162753 6.93933983,8.78966286 C6.35355339,9.3576982 6.35355339,10.2786654 6.93933983,10.8467008 C6.95412728,10.8610401 6.97110624,10.8762388 6.9902767,10.8922968 C7.15520088,11.0304474 7.25,11.2313297 7.25,11.4426638 L7.25,12.3636364 C7.25,12.765298 7.58578644,13.0909091 8,13.0909091 C8.41421356,13.0909091 8.75,12.765298 8.75,12.3636364 Z"
    fill="currentColor"></path>

</svg>
