<svg viewBox="0 0 16 16" version="1.1" xmlns="http://www.w3.org/2000/svg" xmlns:xlink="http://www.w3.org/1999/xlink">
  <path fill="currentColor"
    d="M14,1.75 C14,2.16421 13.6642,2.5 13.25,2.5 L8.75,2.5 C8.61193,2.5 8.5,2.61193 8.5,2.75 L8.5,14.25 C8.5,14.6642 8.16421,15 7.75,15 C7.33579,15 7,14.6642 7,14.25 L7,2.75 C7,2.61193 6.88807,2.5 6.75,2.5 L2.25,2.5 C1.835786,2.5 1.5,2.16421 1.5,1.75 C1.5,1.335786 1.835786,1 2.25,1 L7,1 L8.5,1 L13.25,1 C13.6642,1 14,1.335786 14,1.75 Z">
  </path>
</svg>