<svg viewBox="0 0 16 16" version="1.1" xmlns="http://www.w3.org/2000/svg"
  xmlns:xlink="http://www.w3.org/1999/xlink">
  <path fill="currentColor"
    d="M11.1127308,0.25 C13.6738239,0.25 15.75,2.32617614 15.75,4.88726919 L15.75,11.1127308 C15.75,13.6738239 13.6738239,15.75 11.1127308,15.75 L4.88726919,15.75 C2.32617614,15.75 0.25,13.6738239 0.25,11.1127308 L0.25,4.88726919 C0.25,2.32617614 2.32617614,0.25 4.88726919,0.25 Z M11.1127308,1.75 L4.88726919,1.75 C3.15460326,1.75 1.75,3.15460326 1.75,4.88726919 L1.75,11.1127308 C1.75,12.8453967 3.15460326,14.25 4.88726919,14.25 L11.1127308,14.25 C12.8453967,14.25 14.25,12.8453967 14.25,11.1127308 L14.25,4.88726919 C14.25,3.15460326 12.8453967,1.75 11.1127308,1.75 Z M8.00002332,4.13887852 C8.37971909,4.13887852 8.69351428,4.4210324 8.74317671,4.78710797 L8.75002332,4.88887852 L8.75002332,10.3333178 C8.75002332,10.7475313 8.41423689,11.0833178 8.00002332,11.0833178 C7.62032756,11.0833178 7.30653236,10.8011639 7.25686994,10.4350883 L7.25002332,10.3333178 L7.25002332,4.88887852 C7.25002332,4.47466496 7.58580976,4.13887852 8.00002332,4.13887852 Z M4.88890185,6.38541691 C5.26859761,6.38541691 5.58239281,6.66757079 5.63205523,7.03364635 L5.63890185,7.13541691 L5.63890185,10.3333178 C5.63890185,10.7475313 5.30311541,11.0833178 4.88890185,11.0833178 C4.50920608,11.0833178 4.19541089,10.8011639 4.14574846,10.4350883 L4.13890185,10.3333178 L4.13890185,7.13541691 C4.13890185,6.72120335 4.47468828,6.38541691 4.88890185,6.38541691 Z M11.1111603,7.45200583 C11.4908561,7.45200583 11.8046513,7.73415971 11.8543137,8.10023527 L11.8611603,8.20200583 L11.8611603,10.3333955 C11.8611603,10.7476091 11.5253739,11.0833955 11.1111603,11.0833955 C10.7314646,11.0833955 10.4176694,10.8012416 10.368007,10.4351661 L10.3611603,10.3333955 L10.3611603,8.20200583 C10.3611603,7.78779227 10.6969468,7.45200583 11.1111603,7.45200583 Z"
  ></path>
</svg>
