<svg xmlns="http://www.w3.org/2000/svg" xmlns:xlink="http://www.w3.org/1999/xlink" viewBox="0 0 10 8"
  xmlns:v="https://vecta.io/nano">
  <g transform="matrix(-1 0 0 1 10 -1)" fill-rule="evenodd">
    <path fill="currentColor"
      d="M2.427 4.375h6.948c.345 0 .625.28.625.625s-.28.625-.625.625H2.427l1.875 2.514c.124.185.078.414-.091.527a.5.5 0 0 1-.613-.044L.286 5.641C.263 5.621.242 5.6.221 5.577c-.319-.354-.29-.899.064-1.218l3.312-2.98a.5.5 0 0 1 .613-.044c.179.133.213.364.091.527L2.427 4.375z" />
  </g>
</svg>
