<svg viewBox="0 0 64 64" version="1.1" width="48px" height="64px" xmlns="http://www.w3.org/2000/svg" xmlns:xlink="http://www.w3.org/1999/xlink"><defs><clipPath id="i0"><path d="M21.993125,0 C34.14025,0 43.988125,9.847 43.989125,21.993125 C43.988125,34.14025 34.14025,43.988125 21.994125,43.988125 C9.848,43.988125 -0.000875,34.13925 0,21.993125 C0.001,9.846 9.847875,-0.001 21.993125,0 Z"></path></clipPath><clipPath id="i1"><path d="M19.994625,0 C31.0365,0 39.99025,8.95262533 39.9882503,19.9936253 C39.99025,31.0355003 31.0365,39.9882503 19.994625,39.9892503 C8.953625,39.9872503 0.001,31.0355003 0,19.9936253 C0.000875,8.95262533 8.953625,-0.00199966504 19.994625,0 Z"></path></clipPath><clipPath id="i2"><path d="M8.27897154,0 C8.95406806,0 9.60151438,0.272969995 10.0788797,0.758859703 L12.8302112,3.55932211 C13.3075765,4.04521182 13.5757576,4.70421969 13.5757576,5.3913715 L13.5757576,13.8181818 C13.5757576,16.680021 11.2964799,19 8.48484848,19 L5.09090909,19 C2.27927764,19 0,16.680021 0,13.8181818 L0,1.72727273 C0,0.773326341 0.759759212,0 1.6969697,0 L8.27897154,0 Z"></path></clipPath><clipPath id="i3"><path d="M15.5757576,-2 L15.5757576,21 L-2,21 L-2,-2 L15.5757576,-2 Z M8.27897154,0 L1.6969697,0 C0.759759212,0 0,0.773326341 0,1.72727273 L0,13.8181818 C0,16.680021 2.27927764,19 5.09090909,19 L8.48484848,19 C11.2964799,19 13.5757576,16.680021 13.5757576,13.8181818 L13.5757576,5.3913715 C13.5757576,4.70421969 13.3075765,4.04521182 12.8302112,3.55932211 L10.0788797,0.758859703 C9.60151438,0.272969995 8.95406806,0 8.27897154,0 Z"></path></clipPath><clipPath id="i4"><path d="M7.84848485,0 C8.19993878,0 8.48484848,0.289997378 8.48484848,0.647727273 C8.48484848,1.00545717 8.19993878,1.29545455 7.84848485,1.29545455 L0.636363636,1.29545455 C0.284909705,1.29545455 0,1.00545717 0,0.647727273 C0,0.289997378 0.284909705,0 0.636363636,0 Z"></path></clipPath><clipPath id="i5"><path d="M7.84848485,0 C8.19993878,0 8.48484848,0.289997378 8.48484848,0.647727273 C8.48484848,1.00545717 8.19993878,1.29545455 7.84848485,1.29545455 L0.636363636,1.29545455 C0.284909705,1.29545455 0,1.00545717 0,0.647727273 C0,0.289997378 0.284909705,0 0.636363636,0 Z"></path></clipPath><clipPath id="i6"><path d="M4.45454545,0 C4.80599939,0 5.09090909,0.289997378 5.09090909,0.647727273 C5.09090909,1.00545717 4.80599939,1.29545455 4.45454545,1.29545455 L0.636363636,1.29545455 C0.284909705,1.29545455 0,1.00545717 0,0.647727273 C0,0.289997378 0.284909705,0 0.636363636,0 Z"></path></clipPath><clipPath id="i7"><path d="M19.9945,0 C20.50125,0 20.997125,0.0391252944 21.494125,0.0761252944 C11.157125,0.844500294 3.000125,9.45937529 2.999125,19.9927503 C3.000125,30.5290003 11.156125,39.1438753 21.495125,39.9122503 C20.99725,39.9503753 20.501375,39.9893753 19.994625,39.9893753 C8.953625,39.9873753 0.001,31.0356253 0,19.9937503 C0.000875,8.95275029 8.953625,-0.0018747056 19.9945,0 Z"></path></clipPath><clipPath id="i8"><path d="M3.533375,0 L9.145,5.61275 L5.61275,9.147 L0,3.53325 L3.533375,0 Z"></path></clipPath><clipPath id="i9"><path d="M3.533375,0 L4.13475,0.6015 C3.088125,1.903875 1.904875,3.089125 0.6025,4.13575 L0,3.533375 L3.533375,0 Z"></path></clipPath><clipPath id="i10"><path d="M4.949,0 L21.058875,16.110875 C21.111625,16.15775 21.173125,16.193875 21.224875,16.245625 C22.5995,17.61925 22.5995,19.848125 21.224875,21.22275 C19.85025,22.597375 17.621375,22.597375 16.24575,21.22175 C16.198875,21.174875 16.167625,21.12125 16.124625,21.072375 L0,4.947875 L4.949,0 Z"></path></clipPath><clipPath id="i11"><path d="M0.706875,0 L16.8315,16.124625 C16.874375,16.173375 16.905625,16.227125 16.9525,16.273875 C18.208,17.5285 20.164625,17.62525 21.542125,16.59225 C21.4435,16.726 21.346,16.860625 21.224875,16.98175 C19.85025,18.356375 17.621375,18.356375 16.24575,16.98075 C16.198875,16.933875 16.167625,16.88025 16.124625,16.831375 L0,0.706875 L0.706875,0 Z"></path></clipPath><clipPath id="i12"><path d="M0.706875,0 L16.831375,16.1255 C16.88025,16.1685 16.934875,16.19975 16.98175,16.247625 C18.356375,17.62225 18.356375,19.851125 16.98175,21.22575 C16.860625,21.346875 16.725875,21.444375 16.59225,21.543 C17.626,20.164375 17.528375,18.207875 16.274875,16.95425 C16.228125,16.907375 16.173375,16.875125 16.124625,16.83225 L0,0.70675 L0.706875,0 Z"></path></clipPath><clipPath id="i13"><path d="M0.7615,0 L5.0075,4.247 L4.3035,4.950875 L0,0.646375 C0.25975,0.438375 0.511625,0.219625 0.7615,0 Z"></path></clipPath><clipPath id="i14"><path d="M0.64625,0 L4.950875,4.302625 L4.245875,5.0065 L0,0.760625 C0.219625,0.510625 0.43825,0.258625 0.64625,0 Z"></path></clipPath><clipPath id="i15"><path d="M4.99807707,0 L4.99807707,0.999615414 L0,0.999615414 L0,0 L4.99807707,0 Z"></path></clipPath><clipPath id="i16"><path d="M22.4834688,0 C28.4915938,0 34.1403438,2.34025 38.3893438,6.589125 C42.6390938,10.838 44.9793441,16.486875 44.9793441,22.495 C44.9803437,28.503125 42.6400937,34.152 38.3913437,38.400875 C34.1414688,42.649625 28.4925938,44.99 22.4834688,44.99 C16.4753438,44.99 10.8263438,42.649625 6.57759375,38.400875 C-2.19253125,29.63075 -2.19253125,15.35925 6.57759375,6.589125 C10.8264688,2.340125 16.4753438,0 22.4834688,0 Z M22.4834688,0.99975 C16.7417188,0.99975 11.3438438,3.2365 7.28434375,7.295875 C-1.09615625,15.6765 -1.09615625,29.3135 7.28434375,37.694125 C11.3438438,41.7535 16.7417188,43.99025 22.4834688,43.99025 C28.2250938,43.99025 33.6239688,41.753375 37.6843438,37.694125 C41.7438438,33.633625 43.9804688,28.236625 43.9794691,22.495 C43.9794691,16.753375 41.7427188,11.355375 37.6823438,7.295875 C33.6229688,3.236375 28.2250938,0.99975 22.4834688,0.99975 Z"></path></clipPath><clipPath id="i17"><path d="M20.4865,0 C25.9605,0 31.1065,2.13125 34.977625,6.001375 C42.966625,13.992375 42.966625,26.99375 34.979625,34.98575 C31.1075,38.855625 25.9605,40.987 20.4855,40.987 C15.011375,40.987 9.86425,38.855625 5.99325,34.985625 C-1.99775,26.995625 -1.99775,13.99325 5.99325,6.00325 C9.86425,2.132125 15.011375,0 20.4865,0 Z M20.4865,0.99975 C15.278875,0.99975 10.38275,3.0275 6.700125,6.710125 C-0.900375,14.310625 -0.900375,26.678375 6.700125,34.278875 C10.38175,37.9595 15.277875,39.987375 20.4855,39.987375 C25.693,39.987375 30.590125,37.9595 34.272625,34.278875 C41.87025,26.677375 41.86925,14.30875 34.270625,6.70825 C30.58925,3.027375 25.693,0.99975 20.4865,0.99975 Z"></path></clipPath><clipPath id="i18"><path d="M0.8531875,0.1464375 L5.4085625,4.7018125 C5.6038125,4.8970625 5.6038125,5.2134375 5.4085625,5.4086875 C5.3109375,5.5064375 5.1831875,5.5550625 5.0551875,5.5550625 C4.9273125,5.5550625 4.7994375,5.5063125 4.7018125,5.4086875 L0.1464375,0.8533125 C-0.0488125,0.6580625 -0.0488125,0.3416875 0.1464375,0.1464375 C0.3416875,-0.0488125 0.6580625,-0.0488125 0.8531875,0.1464375 Z"></path></clipPath><clipPath id="i19"><path d="M0.8531875,0.146390629 L5.4085625,4.70376563 C5.6038125,4.89901563 5.6038125,5.21539063 5.4085625,5.41064063 C5.3110625,5.50826563 5.1830625,5.55701563 5.0551875,5.55701563 C4.9274375,5.55701563 4.7994375,5.50814063 4.7018125,5.41064063 L0.1464375,0.853265629 C-0.0488125,0.658015629 -0.0488125,0.341515629 0.1464375,0.146390629 C0.3416875,-0.0487343712 0.6580625,-0.0488593712 0.8531875,0.146390629 Z"></path></clipPath><clipPath id="i20"><path d="M5.8011875,0.1464375 C5.9964375,0.3416875 5.9964375,0.6581875 5.8011875,0.8533125 L0.8533125,5.8011875 C0.7556875,5.8988125 0.6278125,5.9476875 0.4998125,5.9476875 C0.3720625,5.9476875 0.2440625,5.8988125 0.1464375,5.8011875 C-0.0488125,5.6059375 -0.0488125,5.2895625 0.1464375,5.0944375 L5.0943125,0.1464375 C5.2895625,-0.0488125 5.6059375,-0.0488125 5.8011875,0.1464375 Z"></path></clipPath><clipPath id="i21"><path d="M0.8533125,0.1464375 L17.0989375,16.3931875 C17.2941875,16.5884375 17.2941875,16.9048125 17.0989375,17.0999375 C17.0013125,17.1975625 16.8734375,17.2464375 16.7455625,17.2464375 C16.6176875,17.2464375 16.4896875,17.1975625 16.3921875,17.0999375 L0.1464375,0.8533125 C-0.0488125,0.6580625 -0.0488125,0.3416875 0.1464375,0.1464375 C0.3416875,-0.0488125 0.6580625,-0.0488125 0.8533125,0.1464375 Z"></path></clipPath><clipPath id="i22"><path d="M0.8533125,0.1464375 L17.1653125,16.4574375 C17.3605625,16.6526875 17.3605625,16.9690625 17.1653125,17.1641875 C17.0676875,17.2619375 16.9398125,17.3106875 16.8119375,17.3106875 C16.6840625,17.3106875 16.5560625,17.2618125 16.4585625,17.1641875 L0.1464375,0.8531875 C-0.0488125,0.6579375 -0.0488125,0.3415625 0.1464375,0.1464375 C0.3416875,-0.0488125 0.6580625,-0.0488125 0.8533125,0.1464375 Z"></path></clipPath><clipPath id="i23"><path d="M5.8010625,0.1464375 C6.5576875,0.9030625 6.9735625,1.9076875 6.9735625,2.9756875 C6.9735625,4.0438125 6.5576875,5.0474375 5.8010625,5.8030625 C5.0484375,6.5576875 4.0456875,6.9736875 2.9775625,6.9746875 C1.9066875,6.9745625 0.9020625,6.5575625 0.1464375,5.8009375 C-0.0488125,5.6056875 -0.0488125,5.2893125 0.1464375,5.0941875 C0.3416875,4.8989375 0.6579375,4.8989375 0.8531875,5.0941875 C1.4204375,5.6623125 2.1740625,5.9748125 2.9755625,5.9748125 C3.7781875,5.9738125 4.5289375,5.6623125 5.0931875,5.0961875 C5.6614375,4.5289375 5.9738125,3.7761875 5.9738125,2.9755625 C5.9738125,2.1740625 5.6614375,1.4204375 5.0941875,0.8531875 C4.8989375,0.6579375 4.8989375,0.3415625 5.0941875,0.1464375 C5.2894375,-0.0488125 5.6059375,-0.0488125 5.8010625,0.1464375 Z"></path></clipPath></defs><g transform="translate(0.5388749999999938 0.5533749999999564)"><g clip-path="url(#i0)"><polygon points="0,0 43.989125,0 43.989125,43.988125 0,43.988125 0,0" stroke="none" fill="#FFFFFF"></polygon></g><g transform="translate(1.9995000000000118 1.9994996650427765)"><g clip-path="url(#i1)"><polygon points="0,-3.34844984e-07 39.9882507,-3.34844984e-07 39.9882507,39.9892503 0,39.9892503 0,-3.34844984e-07" stroke="none" fill="#5C9EFF"></polygon></g></g><g transform="translate(15.16112500000008 12.44662500000004)"><g clip-path="url(#i2)"><polygon points="0,0 13.5757576,0 13.5757576,19 0,19 0,0" stroke="none" fill="#D7E9FF"></polygon></g><g clip-path="url(#i2)"><path d="M1.6969697,0 L8.27897154,0 C8.95406806,0 9.60151438,0.272969995 10.0788797,0.758859703 L12.8302112,3.55932211 C13.3075765,4.04521182 13.5757576,4.70421969 13.5757576,5.3913715 L13.5757576,13.8181818 C13.5757576,16.680021 11.2964799,19 8.48484848,19 L5.09090909,19 C2.27927764,19 0,16.680021 0,13.8181818 L0,1.72727273 C0,0.773326341 0.759759212,0 1.6969697,0 Z" stroke="#106FFF" stroke-width="2.4" fill="none" stroke-miterlimit="5"></path></g><g clip-path="url(#i3)"><path d="M1.6969697,0 L8.27897154,0 C8.95406806,0 9.60151438,0.272969995 10.0788797,0.758859703 L12.8302112,3.55932211 C13.3075765,4.04521182 13.5757576,4.70421969 13.5757576,5.3913715 L13.5757576,13.8181818 C13.5757576,16.680021 11.2964799,19 8.48484848,19 L5.09090909,19 C2.27927764,19 0,16.680021 0,13.8181818 L0,1.72727273 C0,0.773326341 0.759759212,0 1.6969697,0 Z" stroke="#94C1FF" stroke-width="2" fill="none" stroke-miterlimit="5"></path></g><g transform="translate(2.545454545454504 6.909090909090992)"><g clip-path="url(#i4)"><polygon points="0,0 8.48484848,0 8.48484848,1.29545455 0,1.29545455 0,0" stroke="none" fill="#106FFF"></polygon></g></g><g transform="translate(2.545454545454504 9.5)"><g clip-path="url(#i5)"><polygon points="0,0 8.48484848,0 8.48484848,1.29545455 0,1.29545455 0,0" stroke="none" fill="#5C9EFF"></polygon></g></g><g transform="translate(2.5454545454545046 12.09090909090878)"><g clip-path="url(#i6)"><polygon points="0,0 5.09090909,0 5.09090909,1.29545455 0,1.29545455 0,0" stroke="none" fill="#5C9EFF"></polygon></g></g></g><g transform="translate(1.9995000000000118 1.9993747056005304)"><g clip-path="url(#i7)"><polygon points="0,-2.94307089e-07 21.495125,-2.94307089e-07 21.495125,39.9893753 0,39.9893753 0,-2.94307089e-07" stroke="none" fill="#93C1FF"></polygon></g></g><g transform="translate(35.78325000000007 35.77549999999997)"><g clip-path="url(#i8)"><polygon points="0,0 9.145,0 9.145,9.147 0,9.147 0,0" stroke="none" fill="#D7E9FF"></polygon></g></g><g transform="translate(35.78312500000004 35.77549999999998)"><g clip-path="url(#i9)"><polygon points="0,0 4.13475,0 4.13475,4.13575 0,4.13575 0,0" stroke="none" fill="#93C1FF"></polygon></g></g><g transform="translate(40.6891250000001 40.68150000000014)"><g clip-path="url(#i10)"><polygon points="0,0 22.2558438,0 22.2558438,22.2535938 0,22.2535938 0,0" stroke="none" fill="#93C1FF"></polygon></g></g><g transform="translate(40.6891250000001 44.92250000000013)"><g clip-path="url(#i11)"><polygon points="0,0 21.542125,0 21.542125,18.0125938 0,18.0125938 0,0" stroke="none" fill="#D7E9FF"></polygon></g></g><g transform="translate(44.92637500000001 40.68450000000007)"><g clip-path="url(#i12)"><polygon points="0,0 18.0127188,0 18.0127188,21.543 0,21.543 0,0" stroke="none" fill="#5C9EFF"></polygon></g></g><g transform="translate(36.385625 39.26487500000007)"><g clip-path="url(#i13)"><polygon points="0,0 5.0075,0 5.0075,4.950875 0,4.950875 0,0" stroke="none" fill="#FFFFFF"></polygon></g></g><g transform="translate(39.27262500000006 36.37887500000011)"><g clip-path="url(#i14)"><polygon points="0,0 4.950875,0 4.950875,5.0065 0,5.0065 0,0" stroke="none" fill="#93C1FF"></polygon></g></g><g transform="translate(40.68859299999999 44.21460510000011) rotate(-44.99999999999999)"><g clip-path="url(#i15)"><polygon points="-2.84217094e-14,0 4.99807707,0 4.99807707,0.999615414 -2.84217094e-14,0.999615414 -2.84217094e-14,0" stroke="none" fill="#93C1FF"></polygon></g></g></g><g transform="translate(0.017281249999999915 0.01150000000000162)"><g clip-path="url(#i16)"><polygon points="0,0 44.9793444,0 44.9793444,44.99 0,44.99 0,0" stroke="none" fill="#116EFF"></polygon></g></g><g transform="translate(2.0113749999999975 2.0129999999999946)"><g clip-path="url(#i17)"><polygon points="0,0 40.969625,0 40.969625,40.987 0,40.987 0,0" stroke="none" fill="#116EFF"></polygon></g></g><g transform="translate(36.8484375 40.3864375)"><g clip-path="url(#i18)"><polygon points="-2.84217094e-14,2.84217094e-14 5.555,2.84217094e-14 5.555,5.5550625 -2.84217094e-14,5.5550625 -2.84217094e-14,2.84217094e-14" stroke="none" fill="#116EFF"></polygon></g></g><g transform="translate(40.3826875 36.852234371247604)"><g clip-path="url(#i19)"><polygon points="-2.84217094e-14,-7.10542736e-15 5.555,-7.10542736e-15 5.555,5.55701563 -2.84217094e-14,5.55701563 -2.84217094e-14,-7.10542736e-15" stroke="none" fill="#116EFF"></polygon></g></g><g transform="translate(40.6969375 40.7026875)"><g clip-path="url(#i20)"><polygon points="-2.84217094e-14,-2.84217094e-14 5.947625,-2.84217094e-14 5.947625,5.9476875 -2.84217094e-14,5.9476875 -2.84217094e-14,-2.84217094e-14" stroke="none" fill="#116EFF"></polygon></g></g><g transform="translate(45.6448125 40.7026875)"><g clip-path="url(#i21)"><polygon points="-2.84217094e-14,2.84217094e-14 17.245375,2.84217094e-14 17.245375,17.2464375 -2.84217094e-14,17.2464375 -2.84217094e-14,2.84217094e-14" stroke="none" fill="#116EFF"></polygon></g></g><g transform="translate(40.6969375 45.6506875)"><g clip-path="url(#i22)"><polygon points="-2.83939539e-14,-2.84217094e-14 17.31175,-2.84217094e-14 17.31175,17.3106875 -2.83939539e-14,17.3106875 -2.83939539e-14,-2.84217094e-14" stroke="none" fill="#116EFF"></polygon></g></g><g transform="translate(57.00906250000001 57.01393750000001)"><g clip-path="url(#i23)"><polygon points="-2.84217094e-14,-2.84217094e-14 6.9735625,-2.84217094e-14 6.9735625,6.9746875 -2.84217094e-14,6.9746875 -2.84217094e-14,-2.84217094e-14" stroke="none" fill="#116EFF"></polygon></g></g></svg>