<svg width="16" height="16" viewBox="0 0 16 16" xmlns="http://www.w3.org/2000/svg" xmlns:xlink="http://www.w3.org/1999/xlink">
	<path fill="currentColor" d="M0 7.357C0 3.21 3.668 0 8 0s8 3.21 8 7.357-3.668 7.357-8 7.357c-.47 0-.922-.064-1.33-.137l-.906.645-.04.03c-.312.22-.61.433-.866.564-.266.136-.713.303-1.181.06-.47-.242-.592-.703-.635-1C3 14.592 3 14.225 3 13.843V13.017c-1.744-1.32-3-3.336-3-5.66zm8-5.854c-3.646 0-6.5 2.673-6.5 5.854 0 1.865 1.074 3.56 2.673 4.654.205.14.327.373.327.622V13.793c0 .194 0 .35.002.48a16.406 16.406 0 0 0 .393-.276l1.165-.83a.748.748 0 0 1 .576-.125c.486.093.926.169 1.364.169 3.646 0 6.5-2.673 6.5-5.854S11.646 1.503 8 1.503zM5.5 5.51A2.502 2.502 0 0 1 8 3.007c1.38 0 2.5 1.12 2.5 2.504 0 1.097-.717 1.674-1.197 1.998-.208.14-.343.25-.43.365a.603.603 0 0 0-.123.394.75.75 0 1 1-1.5 0c0-1.12.737-1.685 1.216-2.006.1-.068.183-.13.252-.19a1.06 1.06 0 0 0 .159-.168A.614.614 0 0 0 9 5.511a1 1 0 1 0-2 0 .75.75 0 1 1-1.5 0zM8 11.525a.75.75 0 1 0-.002-1.502A.75.75 0 0 0 8 11.525z" />
</svg>
