<?xml version="1.0" encoding="UTF-8"?>
<svg width="48px" height="64px" viewBox="0 0 64 64" version="1.1" xmlns="http://www.w3.org/2000/svg" xmlns:xlink="http://www.w3.org/1999/xlink">
    <defs>
        <path d="M1.63251747,14.1917718 C-1.05058253,10.3620718 -0.361072528,5.11671181 3.22062747,2.11050181 C6.80232747,-0.895698193 12.0877475,-0.665278193 15.3942475,2.64122181 C18.7007475,5.94771181 18.9311475,11.2331718 15.9249475,14.8148718 C12.9187475,18.3965718 7.67344747,19.0860718 3.84370747,16.4029718 L1.00077747,17.0346718 L1.63251747,14.1917718 Z" id="path-1"></path>
    </defs>
    <g id="Icon/Large/No-Match" stroke="none" stroke-width="1" fill="none" fill-rule="evenodd">
        <rect id="Rectangle" x="0" y="0" width="64" height="64"></rect>
        <g id="24.-footprint,-magnifier,-search,-law,-police,-court,-jurisprudence" transform="translate(0.017281, 0.011500)">
            <g id="Group" transform="translate(0.521594, 0.541875)">
                <path d="M43.989125,21.993125 C43.988125,34.14025 34.14025,43.988125 21.994125,43.988125 C9.848,43.988125 -0.000875,34.13925 0,21.993125 C0.001,9.846 9.847875,-0.001 21.993125,0 C34.14025,0 43.988125,9.847 43.989125,21.993125 Z" id="Shape" fill="#FFFFFF" fill-rule="nonzero"></path>
                <path d="M41.9877503,21.993125 C41.98975,33.035 33.036,41.98775 21.994125,41.98875 C10.953125,41.98675 2.0005,33.035 1.9995,21.993125 C2.000375,10.952125 10.953125,1.9975 21.994125,1.99949967 C33.036,1.99949967 41.98975,10.952125 41.9877503,21.993125 Z" id="Shape" fill="#5C9EFF" fill-rule="nonzero"></path>
                <g id="message-question-checkmark" transform="translate(13.461125, 12.446625)">
                    <g id="Path">
                        <path stroke="#116FFF" stroke-width="1.2" d="M9.06264331,0.60013093 L9.38450613,0.608029998 C11.4216767,0.696842297 13.426736,1.52223849 14.969984,3.06548652 C16.5132295,4.60872732 17.33862,6.61379088 17.427429,8.65096688 C17.5162382,10.6881491 16.8684616,12.7574444 15.4653712,14.4291392 C14.0622838,16.1008304 12.1366678,17.097582 10.1149586,17.3633392 C8.01302191,17.6396424 5.80721463,17.1257841 3.97677955,15.7587697 L1.79101413,16.2444475 L2.27672334,14.0587023 C0.909705113,12.2282879 0.395849155,10.0224736 0.672155083,7.92052447 C0.937914791,5.89880381 1.93466874,3.97317025 3.60636003,2.57007812 C5.27805246,1.16698971 7.34733488,0.519217671 9.38450613,0.608029998 Z" stroke-linejoin="square" fill="#D7E9FF" fill-rule="evenodd"></path>
                        <path stroke="#94C1FF" stroke-width="1" d="M9.10316615,-0.499603758 L9.43241612,-0.490926158 C11.7358031,-0.390507915 14.0028827,0.542750213 15.7478003,2.28766788 C17.4927171,4.03257941 18.4259707,6.29966439 18.5263852,8.60305881 C18.6267999,10.9064576 17.8943723,13.2461657 16.3079277,15.1363156 C14.7214847,17.0264637 12.5442286,18.1534705 10.2583222,18.4539569 C8.04131555,18.7453862 5.72210919,18.2593688 3.74056824,16.9380839 L0.342246921,17.6931921 L1.09740247,14.2949084 C-0.223879597,12.3133871 -0.70989434,9.99417721 -0.418462507,7.77716034 C-0.117973551,5.49124299 1.00903586,3.31396967 2.89918367,1.72752154 C4.78933235,0.14107797 7.12902802,-0.59134445 9.43241612,-0.490926158 Z"></path>
                    </g>
                    <path d="M8.86257228,4.28083948 C10.4468364,4.193095 11.8049758,5.40030963 11.9050475,7.03053181 C11.9050475,7.90003402 11.520247,8.4803669 10.7286045,9.15580355 L10.5527316,9.30213568 L10.1200443,9.65277722 L9.97537963,9.77956461 L9.85829505,9.89390473 L9.78849925,9.97375132 L9.7576153,10.020442 C9.75524524,10.0255351 9.75414747,10.0293024 9.75414747,10.0317718 C9.75414747,10.4459854 9.41836103,10.7817718 9.00414747,10.7817718 C8.58993391,10.7817718 8.25414747,10.4459854 8.25414747,10.0317718 C8.25414747,9.45690203 8.53988707,9.03872392 9.06925285,8.57778763 L9.60646337,8.13827293 C10.193314,7.66113924 10.4050475,7.37371146 10.4064976,7.07714894 C10.3619052,6.36111041 9.78131067,5.80524677 9.0181039,5.77789235 L8.87294892,5.77904678 C8.23132939,5.7524193 7.65670241,6.15552071 7.45648896,6.75435649 L7.41942893,6.88558911 C7.32580711,7.28908363 6.92281469,7.54028509 6.51932017,7.44666327 C6.11582565,7.35304145 5.86462419,6.95004903 5.95824601,6.54655451 C6.27677049,5.17376682 7.52715211,4.22190448 8.86257228,4.28083948 Z" id="Path" fill="#116FFF" fill-rule="nonzero"></path>
                    <path d="M9.00414747,11.9078718 C9.23592376,11.9078718 9.45868517,11.9997493 9.62307756,12.1641417 C9.73267248,12.2737366 9.81003858,12.4092734 9.84943877,12.5561284 L9.87264757,12.6823784 L9.87934668,12.7841588 C9.87864694,13.2669789 9.48700523,13.6579718 9.00424747,13.6579718 C8.52103391,13.6579718 8.12924747,13.2661854 8.12924747,12.7829718 C8.12924747,12.300214 8.52024041,11.9085723 9.00414747,11.9078718 Z" id="Path" fill="#116FFF" fill-rule="nonzero"></path>
                </g>
                <path d="M4.998625,21.992125 C4.999625,11.45875 13.156625,2.843875 23.493625,2.0755 C22.996625,2.0385 22.50075,1.99937471 21.994,1.99937471 C10.953125,1.9975 2.000375,10.952125 1.9995,21.993125 C2.0005,33.035 10.953125,41.98675 21.994125,41.98875 C22.500875,41.98875 22.99675,41.94975 23.494625,41.911625 C13.155625,41.14325 4.999625,32.528375 4.998625,21.992125 Z" id="Shape" fill="#94C1FF" fill-rule="nonzero"></path>
                <polygon id="Shape" fill="#D7E9FF" fill-rule="nonzero" points="39.316625 35.7755 35.78325 39.30875 41.396 44.9225 44.92825 41.38825"></polygon>
                <path d="M36.385625,39.91125 C37.688,38.864625 38.87125,37.679375 39.917875,36.377 L39.3165,35.7755 L35.783125,39.308875 L36.385625,39.91125 Z" id="Shape" fill="#94C1FF" fill-rule="nonzero"></path>
                <path d="M61.748,56.792375 L45.638125,40.6815 L40.689125,45.629375 L56.81375,61.753875 C56.85675,61.80275 56.888,61.856375 56.934875,61.90325 C58.3105,63.278875 60.539375,63.278875 61.914,61.90425 C63.288625,60.529625 63.288625,58.30075 61.914,56.927125 C61.86225,56.875375 61.80075,56.83925 61.748,56.792375 Z" id="Shape" fill="#94C1FF" fill-rule="nonzero"></path>
                <path d="M57.641625,61.196375 C57.59475,61.149625 57.5635,61.095875 57.520625,61.047125 L41.396,44.9225 L40.689125,45.629375 L56.81375,61.753875 C56.85675,61.80275 56.888,61.856375 56.934875,61.90325 C58.3105,63.278875 60.539375,63.278875 61.914,61.90425 C62.035125,61.783125 62.132625,61.6485 62.23125,61.51475 C60.85375,62.54775 58.897125,62.451 57.641625,61.196375 Z" id="Shape" fill="#D7E9FF" fill-rule="nonzero"></path>
                <path d="M61.20125,57.63875 C61.1545,57.591875 61.09975,57.559625 61.051,57.51675 L44.926375,41.39125 L45.63325,40.6845 L61.75775,56.81 C61.806625,56.853 61.86125,56.88425 61.908125,56.932125 C63.28275,58.30675 63.28275,60.535625 61.908125,61.91025 C61.787,62.031375 61.65225,62.128875 61.518625,62.2275 C62.552375,60.848875 62.45475,58.892375 61.20125,57.63875 Z" id="Shape" fill="#5C9EFF" fill-rule="nonzero"></path>
                <path d="M36.385625,39.91125 L40.689125,44.21575 L41.393125,43.511875 L37.147125,39.264875 C36.89725,39.4845 36.645375,39.70325 36.385625,39.91125 Z" id="Shape" fill="#FFFFFF" fill-rule="nonzero"></path>
                <path d="M39.918875,36.378875 L44.2235,40.6815 L43.5185,41.385375 L39.272625,37.1395 C39.49225,36.8895 39.710875,36.6375 39.918875,36.378875 Z" id="Shape" fill="#94C1FF" fill-rule="nonzero"></path>
                <polygon id="Rectangle-path" fill="#94C1FF" fill-rule="nonzero" transform="translate(42.809098, 42.800935) rotate(-45.000000) translate(-42.809098, -42.800935) " points="40.310059 42.3011277 45.308136 42.3011277 45.308136 43.3007431 40.310059 43.3007431"></polygon>
            </g>
            <g id="_x32_4._footprint_x2C__magnifier_x2C__search_x2C__law_x2C__police_x2C__court_x2C__jurisprudence" fill="#116FFF" fill-rule="nonzero">
                <path d="M22.4834688,44.99 C16.4753438,44.99 10.8263438,42.649625 6.57759375,38.400875 C-2.19253125,29.63075 -2.19253125,15.35925 6.57759375,6.589125 C10.8264688,2.340125 16.4753438,0 22.4834688,0 C28.4915938,0 34.1403438,2.34025 38.3893438,6.589125 C42.6390938,10.838 44.9793441,16.486875 44.9793441,22.495 C44.9803437,28.503125 42.6400937,34.152 38.3913437,38.400875 C34.1414688,42.649625 28.4925938,44.99 22.4834688,44.99 Z M22.4834688,0.99975 C16.7417188,0.99975 11.3438438,3.2365 7.28434375,7.295875 C-1.09615625,15.6765 -1.09615625,29.3135 7.28434375,37.694125 C11.3438438,41.7535 16.7417188,43.99025 22.4834688,43.99025 C28.2250938,43.99025 33.6239688,41.753375 37.6843438,37.694125 C41.7438438,33.633625 43.9804688,28.236625 43.9794691,22.495 C43.9794691,16.753375 41.7427188,11.355375 37.6823438,7.295875 C33.6229688,3.236375 28.2250938,0.99975 22.4834688,0.99975 Z" id="Shape"></path>
                <path d="M22.4795938,42.9885 C17.0054688,42.9885 11.8583438,40.857125 7.98734375,36.987125 C-0.00365625,28.997125 -0.00365625,15.99475 7.98734375,8.00475 C11.8583438,4.133625 17.0054688,2.0015 22.4805938,2.0015 C27.9545938,2.0015 33.1005938,4.13275 36.9717188,8.002875 C44.9607188,15.993875 44.9607188,28.99525 36.9737188,36.98725 C33.1015938,40.857125 27.9545938,42.9885 22.4795938,42.9885 Z M22.4805938,3.00125 C17.2729688,3.00125 12.3768438,5.029 8.69421875,8.711625 C1.09371875,16.312125 1.09371875,28.679875 8.69421875,36.280375 C12.3758438,39.961 17.2719688,41.988875 22.4795938,41.988875 C27.6870938,41.988875 32.5842188,39.961 36.2667188,36.280375 C43.8643438,28.678875 43.8633438,16.31025 36.2647188,8.70975 C32.5833438,5.028875 27.6870938,3.00125 22.4805938,3.00125 Z" id="Shape"></path>
                <path d="M41.8863438,45.93 C41.7584688,45.93 41.6305938,45.88125 41.5329688,45.783625 L36.9775938,41.22825 C36.7823438,41.033 36.7823438,40.716625 36.9775938,40.521375 C37.1728438,40.326125 37.4892188,40.326125 37.6843438,40.521375 L42.2397188,45.07675 C42.4349688,45.272 42.4349688,45.588375 42.2397188,45.783625 C42.1420938,45.881375 42.0143438,45.93 41.8863438,45.93 Z" id="Shape"></path>
                <path d="M45.4205937,42.39775 C45.2928437,42.39775 45.1648437,42.348875 45.0672187,42.251375 L40.5118437,37.694 C40.3165937,37.49875 40.3165937,37.18225 40.5118437,36.987125 C40.7070937,36.792 41.0234687,36.791875 41.2185937,36.987125 L45.7739687,41.5445 C45.9692187,41.73975 45.9692187,42.056125 45.7739687,42.251375 C45.6764687,42.349 45.5484687,42.39775 45.4205937,42.39775 Z" id="Shape"></path>
                <path d="M41.1794687,46.638875 C41.0517187,46.638875 40.9237187,46.59 40.8260937,46.492375 C40.6308437,46.297125 40.6308437,45.98075 40.8260937,45.785625 L45.7739687,40.837625 C45.9692187,40.642375 46.2855937,40.642375 46.4808437,40.837625 C46.6760937,41.032875 46.6760937,41.349375 46.4808437,41.5445 L41.5329687,46.492375 C41.4353437,46.59 41.3074687,46.638875 41.1794687,46.638875 Z" id="Shape"></path>
                <path d="M62.3730937,57.937625 C62.2452187,57.937625 62.1172187,57.88875 62.0197187,57.791125 L45.7739687,41.5445 C45.5787187,41.34925 45.5787187,41.032875 45.7739687,40.837625 C45.9692187,40.642375 46.2855937,40.642375 46.4808437,40.837625 L62.7264687,57.084375 C62.9217187,57.279625 62.9217187,57.596 62.7264687,57.791125 C62.6288437,57.88875 62.5009687,57.937625 62.3730937,57.937625 Z" id="Shape"></path>
                <path d="M57.4915937,62.949875 C57.3637187,62.949875 57.2357187,62.901 57.1382187,62.803375 L40.8260937,46.492375 C40.6308437,46.297125 40.6308437,45.98075 40.8260937,45.785625 C41.0213437,45.590375 41.3377187,45.590375 41.5329687,45.785625 L57.8449687,62.096625 C58.0402187,62.291875 58.0402187,62.60825 57.8449687,62.803375 C57.7473437,62.901125 57.6194687,62.949875 57.4915937,62.949875 Z" id="Shape"></path>
                <path d="M59.9674688,63.977 C58.8984687,63.977 57.8938438,63.56 57.1382188,62.803375 C56.9429688,62.608125 56.9429688,62.29175 57.1382188,62.096625 C57.3334688,61.901375 57.6497187,61.901375 57.8449687,62.096625 C58.4122188,62.66475 59.1658438,62.97725 59.9673437,62.97725 C59.9683437,62.97725 59.9683437,62.97725 59.9693438,62.97725 C60.7699687,62.97625 61.5207188,62.66475 62.0849688,62.098625 C62.6532188,61.531375 62.9655937,60.778625 62.9655937,59.978 C62.9655937,59.1765 62.6532188,58.422875 62.0859688,57.855625 C61.8907188,57.660375 61.8907188,57.344 62.0859688,57.148875 C62.2812188,56.953625 62.5977188,56.953625 62.7928438,57.148875 C63.5494688,57.9055 63.9653438,58.910125 63.9653438,59.978125 C63.9653438,61.04625 63.5494688,62.049875 62.7928438,62.8055 C62.0402188,63.560125 61.0374688,63.976125 59.9693438,63.977125 C59.9684688,63.977 59.9684688,63.977 59.9674688,63.977 Z" id="Shape"></path>
            </g>
        </g>
    </g>
</svg>
