<?xml version="1.0" encoding="UTF-8"?>
<svg viewBox="0 0 16 16" version="1.1" xmlns="http://www.w3.org/2000/svg" xmlns:xlink="http://www.w3.org/1999/xlink">

  <path fill="currentColor"
    d="M8,0.5 C5.09660888,0.5 2.74548792,2.86984158 2.74548792,5.79054054 L2.74548792,8.81756757 C2.74548792,9.33816424 2.51184313,9.82978119 2.1107315,10.1546123 L1.87898425,10.3422855 C0.643804495,11.3425924 1.34495884,13.3513514 2.93598735,13.3513514 L13.0640127,13.3513514 C14.6550412,13.3513514 15.3561955,11.3425924 14.1210258,10.3422937 L13.8892655,10.1546099 C13.4884924,9.82963065 13.2545121,9.33760343 13.2545121,8.81756757 L13.2545121,5.79054054 C13.2545121,2.86984158 10.9033911,0.5 8,0.5 Z M8,2 C10.0722893,2 11.7545121,3.69561735 11.7545121,5.79054054 L11.7545121,8.81756757 C11.7545121,9.78934925 12.1921402,10.7096189 12.9448871,11.3200065 L13.1770108,11.5079847 C13.3172699,11.6215732 13.2370661,11.8513514 13.0640127,11.8513514 L2.93598735,11.8513514 C2.76293386,11.8513514 2.68273013,11.6215732 2.82299928,11.5079766 L3.05473948,11.320309 C3.80813237,10.710191 4.24548792,9.78994192 4.24548792,8.81756757 L4.24548792,5.79054054 C4.24548792,3.69561735 5.9277107,2 8,2 Z M9.12500635,14.1216216 C9.53922221,14.1216216 9.87500865,14.4574081 9.87500865,14.8716216 C9.87500865,15.2858352 9.53922221,15.6216216 9.12500635,15.6216216 L6.87500635,15.6216216 C6.46079279,15.6216216 6.12500635,15.2858352 6.12500635,14.8716216 C6.12500635,14.4574081 6.46079279,14.1216216 6.87500635,14.1216216 L9.12500635,14.1216216 Z">
  </path>

</svg>
