<?xml version="1.0" encoding="UTF-8"?>
<svg width="16px" height="16px" viewBox="0 0 16 16" version="1.1" xmlns="http://www.w3.org/2000/svg" xmlns:xlink="http://www.w3.org/1999/xlink">
    <g id="Icon/Channel/Nuance_Lrg" stroke="none" stroke-width="1" fill="none" fill-rule="evenodd">
        <g id="Nuance_Communications_logo" transform="translate(0.015386, 3.500000)" fill-rule="nonzero">
            <g id="g3268">
                <path d="M9.14332216,4.17375847 L9.14332216,3.98550895 C9.14332216,3.98550895 6.66011451,0 2.0317149,0 L0.607784151,0 C0.272102545,0 0,0.242846499 0,0.541315887 L0,4.32042899 C0,4.61929276 0.272102545,4.86229728 0.607784151,4.86229728 L4.57761601,4.86229728 L4.57816765,2.33741835 C6.6034566,2.33741835 9.14332216,4.17375847 9.14332216,4.17375847 Z" id="path11" fill="#7FC31C"></path>
                <path d="M6.84161571,4.99626522 L6.84161571,5.18514601 C6.84161571,5.18514601 9.32474272,9.17002367 13.9526592,9.17002367 L15.3765902,9.17002367 C15.7123533,9.17002367 15.9846143,8.92701874 15.9846143,8.62847154 L15.9846143,4.84927917 C15.9846143,4.5501787 15.7123533,4.30780545 15.3765902,4.30780545 L11.4067577,4.30780545 L11.4063334,6.83268458 C9.38107899,6.83268458 6.84161571,4.99626522 6.84161571,4.99626522 Z" id="path13" fill="#469C23"></path>
            </g>
        </g>
    </g>
</svg>