<?xml version="1.0" encoding="UTF-8"?>
<svg viewBox="0 0 16 16" version="1.1" xmlns="http://www.w3.org/2000/svg" xmlns:xlink="http://www.w3.org/1999/xlink">

  <path fill="currentColor"
    d="M9.55551496,0.25 C10.8288165,0.25 11.8610377,1.28223184 11.8610377,2.55554605 L11.861,3.361 L13.4443995,3.3611232 C14.6646466,3.3611232 15.6634853,4.30913463 15.7446033,5.50882555 L15.7499223,5.66667703 L15.7499223,11.8888768 C15.7499223,14.0213335 14.0212557,15.75 11.8887991,15.75 L4.11109211,15.75 C1.97866058,15.75 0.25,14.0213275 0.25,11.8888768 L0.25,5.66667703 C0.25,4.39335715 1.28222682,3.3611232 2.55554605,3.3611232 L4.138,3.361 L4.13886125,2.55554605 C4.13886125,1.28222649 5.17108774,0.25 6.4444073,0.25 L9.55551496,0.25 Z M1.75010436,8.52486841 L1.75,11.8888768 C1.75,13.1929027 2.80709002,14.25 4.11109211,14.25 L11.8887991,14.25 C13.1928286,14.25 14.2499223,13.1929063 14.2499223,11.8888768 L14.2498712,8.5248673 C13.6897373,8.91207321 13.0102329,9.13887291 12.2777575,9.13887291 L10.305,9.138 L10.3055305,9.16682864 C10.3055305,9.75380249 9.8614166,10.237048 9.29088197,10.2988719 L9.16680531,10.3055538 L6.83315582,10.3055538 C6.20425526,10.3055538 5.69443062,9.79572919 5.69443062,9.16682864 L5.694,9.138 L3.72220365,9.13887291 C2.98972976,9.13887291 2.31023147,8.91207381 1.75010436,8.52486841 Z M8.805,7.972 L7.194,7.972 L7.194,8.805 L8.805,8.805 L8.805,7.972 Z M13.5454407,4.86739964 L13.4443995,4.8611232 L2.55554605,4.8611232 C2.11065626,4.8611232 1.75,5.22178195 1.75,5.66667703 C1.75,6.75591565 2.63297119,7.63887291 3.72220365,7.63887291 L5.694,7.638 L5.69443062,7.61095605 C5.69443062,7.0239822 6.13854453,6.5407367 6.70907916,6.47891274 L6.83315582,6.47223086 L9.16680531,6.47223086 C9.79570587,6.47223086 10.3055305,6.98205549 10.3055305,7.61095605 L10.305,7.638 L12.2777575,7.63887291 C13.3670007,7.63887291 14.25,6.75590493 14.25,5.66669258 L14.2436459,5.56563044 C14.1939387,5.16843166 13.8550472,4.8611232 13.4443995,4.8611232 Z M9.55551496,1.75 L6.4444073,1.75 C5.99951486,1.75 5.63886125,2.11065362 5.63886125,2.55554605 L5.638,3.361 L10.361,3.361 L10.3610377,2.55554605 C10.3610377,2.11065548 10.0003859,1.75 9.55551496,1.75 Z">
  </path>

</svg>
