<svg xmlns="http://www.w3.org/2000/svg" xmlns:xlink="http://www.w3.org/1999/xlink" viewBox="0 0 16 16">
    <g fill="none" fill-rule="evenodd" opacity=".8">
        <g transform="translate(-511.000000, -420.000000) translate(197.000000, 118.000000) translate(1.000000, 284.000000) translate(313.000000, 18.000000)">
            <path id="x7554h3jma" d="M14.609 8c0 3.644-2.965 6.609-6.609 6.609S1.391 11.644 1.391 8 4.356 1.391 8 1.391 14.609 4.356 14.609 8M16 8c0-4.411-3.589-8-8-8S0 3.589 0 8s3.589 8 8 8 8-3.589 8-8m-3.658.407l-3.237.236c-.247.018-.444.215-.462.462l-.236 3.237c-.016.213-.193.378-.407.378-.214 0-.391-.165-.407-.378l-.236-3.237c-.018-.247-.215-.444-.462-.462l-3.237-.236C3.445 8.39 3.28 8.214 3.28 8c0-.214.165-.391.378-.407l3.237-.236c.247-.018.444-.215.462-.462l.236-3.237c.016-.213.193-.378.407-.378.214 0 .391.165.407.378l.236 3.237c.018.247.215.444.462.462l3.237.236c.213.016.378.193.378.407 0 .214-.165.391-.378.407z" fill="currentColor"/>
        </g>
    </g>
</svg>