<svg viewBox="0 0 16 16" version="1.1" xmlns="http://www.w3.org/2000/svg" xmlns:xlink="http://www.w3.org/1999/xlink">
  <g stroke="none" stroke-width="1" fill="none" fill-rule="evenodd">
    <path fill="currentColor" d="M13.5,6.96998017 C13.9142136,6.96998017 14.25,7.30576661 14.25,7.71998017 C14.25,10.9663124 11.8508427,13.6478865 8.75068866,14.0247486 L8.75001178,15.0981317 C8.75001178,15.5123453 8.41422534,15.8481317 8.00001178,15.8481317 C7.62031602,15.8481317 7.30652082,15.5659778 7.2568584,15.1999023 L7.25001178,15.0981317 L7.25033227,14.0248701 C4.14968159,13.6484636 1.75,10.9666631 1.75,7.71998017 C1.75,7.30576661 2.08578644,6.96998017 2.5,6.96998017 C2.91421356,6.96998017 3.25,7.30576661 3.25,7.71998017 C3.25,10.4015773 5.37971984,12.5700569 8.00001178,12.5700569 C10.6202883,12.5700569 12.75,10.401577 12.75,7.71998017 C12.75,7.30576661 13.0857864,6.96998017 13.5,6.96998017 Z M8.00025799,0.25000004 C9.75712052,0.250576771 11.1756953,1.69493956 11.1763087,3.47039914 L11.1763087,7.5878552 C11.1765126,8.43932696 10.8441384,9.25671384 10.2509338,9.86060073 C9.71623692,10.4050202 9.00727141,10.7374708 8.22220593,10.8001417 L7.99974315,10.8084501 C6.24287684,10.8078208 4.82428502,9.36344379 4.82372287,7.58803491 L4.82372287,3.47016165 C4.82426008,1.77373933 6.12346201,0.367646817 7.81558082,0.255718565 L8.00025799,0.25000004 Z M8.009,1.749 L7.89019053,1.75365682 C7.01505335,1.81175664 6.32401129,2.55965352 6.32372283,3.47039914 L6.32372283,7.58779742 C6.32402464,8.54090956 7.07753841,9.30811966 7.96995633,9.30905257 L8.13188916,9.30316904 C8.52652611,9.27135773 8.89850417,9.09692848 9.18080607,8.80949338 C9.49771058,8.48688214 9.67641866,8.04739664 9.67630867,7.58803491 L9.67630867,3.47065825 C9.67597936,2.51749762 8.92248231,1.75030286 7.99976558,1.74999996 L8.009,1.749 Z" id="path-1"></path>
  </g>
</svg>
