<svg xmlns="http://www.w3.org/2000/svg" xmlns:xlink="http://www.w3.org/1999/xlink" viewBox="0 0 16 16">
    <g fill="none" fill-rule="evenodd">
        <g transform="translate(-959.000000, -418.000000) translate(645.000000, 118.000000) translate(1.000000, 282.000000) translate(32.000000, 17.000000) translate(281.000000, 1.000000)">
            <path id="ao819u3rha" d="M14.609 8c0 3.644-2.965 6.609-6.609 6.609S1.391 11.644 1.391 8 4.356 1.391 8 1.391 14.609 4.356 14.609 8M16 8c0-4.411-3.589-8-8-8S0 3.589 0 8s3.589 8 8 8 8-3.589 8-8m-3.78.56c-1.407.16-2.813.24-4.22.24-1.407 0-2.813-.08-4.22-.24-.285-.032-.5-.273-.5-.56 0-.287.215-.528.5-.56C5.187 7.28 6.593 7.2 8 7.2c1.407 0 2.813.08 4.22.24.285.032.5.273.5.56 0 .287-.215.528-.5.56z" fill="currentColor"/>
        </g>
    </g>
</svg>