<?xml version="1.0" encoding="UTF-8"?>
<svg viewBox="0 0 16 16" version="1.1" xmlns="http://www.w3.org/2000/svg" xmlns:xlink="http://www.w3.org/1999/xlink">

  <path fill="currentColor" d="M10.9507613,0.25 C13.6013076,0.25 15.75,2.39869237 15.75,5.04923874 L15.75,5.04923874 L15.75,10.9507613 C15.75,13.6013076 13.6013076,15.75 10.9507613,15.75 L10.9507613,15.75 L5.04923874,15.75 C2.39869237,15.75 0.25,13.6013076 0.25,10.9507613 L0.25,10.9507613 L0.25,5.04923874 C0.25,2.39869237 2.39869237,0.25 5.04923874,0.25 L5.04923874,0.25 Z M10.9507613,1.75 L5.04923874,1.75 C3.2271195,1.75 1.75,3.2271195 1.75,5.04923874 L1.75,5.04923874 L1.75,10.9507613 C1.75,12.7728805 3.2271195,14.25 5.04923874,14.25 L5.04923874,14.25 L10.9507613,14.25 C12.7728805,14.25 14.25,12.7728805 14.25,10.9507613 L14.25,10.9507613 L14.25,5.04923874 C14.25,3.2271195 12.7728805,1.75 10.9507613,1.75 L10.9507613,1.75 Z M8.00690876,4.03136933 C8.34631502,4.20158176 8.50032767,4.5944664 8.38061374,4.94396068 L8.34111151,5.0380016 L7.215,7.28278684 L10.001664,7.28317684 C10.5247232,7.28317684 10.8761059,7.79952291 10.7118992,8.27500525 L10.6720814,8.36939177 L9.00139142,11.7007718 C8.81570505,12.0710331 8.36502039,12.2206606 7.99475907,12.0349743 C7.65535286,11.8647618 7.5013403,11.4718771 7.62105432,11.1223828 L7.66055658,11.0283419 L8.786,8.78278684 L6,8.78317684 C5.47694086,8.78317684 5.12555821,8.2668309 5.28976476,7.79134859 L5.32958249,7.69696208 L7.00027649,4.36557208 C7.18596278,3.99531071 7.6366474,3.84568305 8.00690876,4.03136933 Z"></path>

</svg> 
