<svg xmlns="http://www.w3.org/2000/svg" xmlns:xlink="http://www.w3.org/1999/xlink" viewBox="0 0 16 16" version="1.1">
  <g stroke="none" stroke-width="1" fill="none" fill-rule="evenodd">
    <path fill="currentColor" d="M4.5,2 C5.05228475,2 5.5,2.44771525 5.5,3 L5.5,13 C5.5,13.5522847 5.05228475,14 4.5,14 C3.94771525,14 3.5,13.5522847 3.5,13 L3.5,3 C3.5,2.44771525 3.94771525,2 4.5,2 Z M11.5,2 C12.0522847,2 12.5,2.44771525 12.5,3 L12.5,13 C12.5,13.5522847 12.0522847,14 11.5,14 C10.9477153,14 10.5,13.5522847 10.5,13 L10.5,3 C10.5,2.44771525 10.9477153,2 11.5,2 Z" />
  </g>
</svg>
