<?xml version="1.0" encoding="UTF-8"?>
<svg width="16px" height="16px" viewBox="0 0 16 16" version="1.1" xmlns="http://www.w3.org/2000/svg"
  xmlns:xlink="http://www.w3.org/1999/xlink">
  <path
    d="M1.67335369,2.1685893 C2.5682034,1.27403607 4.01874493,1.27403607 4.91336859,2.16836342 L5.8184865,3.07241082 C6.57935336,3.83302559 6.54684097,5.03940931 5.75297048,5.83301678 L5.203,6.382 L5.29977871,6.58919095 C5.66783815,7.33414243 6.16069423,8.04896876 6.76234309,8.70007743 L7.02680673,8.97512499 C7.84086363,9.78821662 8.76775368,10.4257289 9.73538612,10.8529765 L9.621,10.799 L10.2354286,10.1847526 C10.9379115,9.48130198 12.0538427,9.44222139 12.8029537,10.0671292 L12.9311831,10.1842996 L13.8353042,11.0881211 C14.7302912,11.9828116 14.7302912,13.4333009 13.8353042,14.3279914 L13.3335286,14.8296007 C12.5874392,15.5754429 11.5135234,15.8913241 10.4518787,15.6910801 C8.21229079,15.2678157 5.88585665,13.9783828 3.95408197,12.0472482 C2.02229052,10.1160968 0.732382202,7.79033602 0.308901437,5.55111325 C0.108601722,4.4898765 0.424648251,3.41611048 1.1712145,2.6697919 Z M3.85311022,3.22942519 C3.54400672,2.9204241 3.04294161,2.9204241 2.73383811,3.22942519 L2.23129169,3.73103458 C1.84120939,4.12098763 1.67319795,4.69180543 1.78282633,5.27264365 C2.14813771,7.20428617 3.28913338,9.26155098 5.01456639,10.9864123 C6.74004113,12.7113154 8.79803179,13.8519627 10.7301686,14.2171213 C11.3116792,14.3268039 11.8828922,14.1587875 12.2730442,13.7687648 L12.7748198,13.2671555 C13.083786,12.9582916 13.083786,12.4578209 12.7748198,12.148957 L11.8706987,11.2451355 C11.7119722,11.0864616 11.4548218,11.0864616 11.2966592,11.244842 L10.6003544,11.9416868 C10.2156425,12.3262712 9.63209591,12.446878 9.1297414,12.2252718 C7.99158233,11.72273 6.9109681,10.9794868 5.96654006,10.0361785 C5.02268266,9.09260153 4.2795821,8.01228487 3.7774004,6.87375515 C3.55570018,6.37157393 3.67641276,5.78791753 4.06121993,5.40323785 L4.69248606,4.77218088 C4.91274557,4.55199435 4.91967524,4.29486631 4.75822813,4.13347259 Z M15,6.54514388 C15.4142136,6.54514388 15.75,6.88093032 15.75,7.29514388 C15.75,7.70935744 15.4142136,8.04514388 15,8.04514388 L13.2040903,8.04514388 C12.7898767,8.04514388 12.4540903,7.70935744 12.4540903,7.29514388 C12.4540903,6.88093032 12.7898767,6.54514388 13.2040903,6.54514388 L15,6.54514388 Z M13.7284867,2.28207446 C14.0204397,2.57590495 14.0189176,3.05077625 13.7250871,3.34272918 L12.4533056,4.60638417 C12.1594751,4.89833711 11.6846038,4.89681505 11.3926508,4.60298456 C11.1006979,4.30915407 11.10222,3.83428277 11.3960505,3.54232983 L12.667832,2.27867485 C12.9616625,1.98672191 13.4365338,1.98824397 13.7284867,2.28207446 Z M8.71046205,0.25 C9.12467561,0.25 9.46046205,0.585786438 9.46046205,1 L9.46046205,2.80301992 C9.46046205,3.21723348 9.12467561,3.55301992 8.71046205,3.55301992 C8.29624849,3.55301992 7.96046205,3.21723348 7.96046205,2.80301992 L7.96046205,1 C7.96046205,0.585786438 8.29624849,0.25 8.71046205,0.25 Z"
    fill="currentColor"></path>
</svg>