<?xml version="1.0" encoding="UTF-8"?>
<svg viewBox="0 0 10 16" version="1.1" xmlns="http://www.w3.org/2000/svg" xmlns:xlink="http://www.w3.org/1999/xlink" stroke="none">
  <path d="M8.487529,1.08382636 L6.13572626,5.54170919 C6.00687594,5.7859472 6.10041615,6.08839505 6.34465416,6.21724537 C6.38333731,6.23765307 6.42453088,6.25289709 6.46718018,6.26258713 L9.34056357,6.91542782 C9.71702409,7.05270765 9.91121703,7.46999776 9.77430563,7.84747136 C9.74488097,7.92859707 9.70128704,8.00382225 9.64556437,8.06962581 L3.762081,15.3717739 C3.42461628,15.7702899 2.92956066,16 2.408172,16 C2.07947222,16 1.813009,15.7328191 1.813009,15.4032348 C1.813009,15.3399747 1.82303986,15.2771171 1.842727,15.2170158 L3.75712268,9.93262379 C3.85117986,9.67299356 3.71695637,9.38627326 3.45732614,9.29221608 C3.45468966,9.29126096 3.4520452,9.29032803 3.44939303,9.28941739 L0.456117563,8.26166371 C0.0925041047,8.11582692 -0.0899914712,7.70690331 0.0438432048,7.33786752 L2.44457143,0.718098477 C2.60091995,0.286983 3.00954594,-3.22973971e-16 3.46704906,0 L7.855357,0 C8.25594064,0 8.580678,0.325611091 8.580678,0.727272727 C8.580678,0.852172259 8.54859806,0.97496698 8.487529,1.08382636 Z" fill="currentColor" />
</svg>
