<svg width="16" height="16" viewBox="0 0 16 16" xmlns="http://www.w3.org/2000/svg" xmlns:xlink="http://www.w3.org/1999/xlink">
    <path d="m14.022 8.627.112.097 1.168 1.119c.56.535.595 1.394.106 1.97l-.105.112-2.516 2.41a1.5 1.5 0 0 1-.895.408l-.145.007H9.842a.75.75 0 0 1-.743-.648L9.092 14v-1.825c0-.344.124-.674.346-.934l.101-.107 2.515-2.41a1.51 1.51 0 0 1 1.968-.097zM10.579 1.25c1.57 0 2.865 1.187 2.955 2.698l.005.17v2.117a.75.75 0 0 1-1.493.102l-.007-.102V4.118c0-.704-.573-1.295-1.318-1.362l-.142-.006H3.21c-.765 0-1.383.549-1.453 1.237l-.007.13v6.354c0 .704.573 1.294 1.319 1.36l.141.007h3.685a.75.75 0 0 1 .101 1.493l-.101.007H3.21c-1.57 0-2.864-1.187-2.955-2.698l-.005-.17V4.119c0-1.535 1.239-2.776 2.787-2.863l.173-.005h7.369zm2.517 8.557h-.004l-2.501 2.396v1.046l1.159.001 2.471-2.366-1.125-1.077zM6.895 8.31a.75.75 0 0 1 .101 1.493l-.101.007H3.947a.75.75 0 0 1-.101-1.493l.101-.007h2.948zm2.947-3.53a.75.75 0 0 1 .102 1.494l-.102.006H3.947a.75.75 0 0 1-.101-1.493l.101-.007h5.895z" fill="currentColor" />
</svg>
