<?xml version="1.0" encoding="UTF-8"?>
<svg width="16px" height="16px" viewBox="0 0 16 16" version="1.1" xmlns="http://www.w3.org/2000/svg" xmlns:xlink="http://www.w3.org/1999/xlink">
    <path d="M14.75,13.4553163 C15.1642136,13.4553163 15.5,13.7911028 15.5,14.2053163 C15.5,14.6195299 15.1642136,14.9553163 14.75,14.9553163 L11.25,14.9553163 C10.8357864,14.9553163 10.5,14.6195299 10.5,14.2053163 C10.5,13.7911028 10.8357864,13.4553163 11.25,13.4553163 L14.75,13.4553163 Z M13.7046769,1 C14.8285481,1 15.75,1.88988994 15.75,3.0009432 C15.75,3.66938736 15.5006123,4.31154523 15.0538448,4.81045957 L14.9139451,4.95571961 L13.905622,5.92949241 C13.6076686,6.21723644 13.132867,6.20896009 12.845123,5.91100666 C12.5835375,5.6401399 12.566597,5.22311763 12.7895355,4.93334762 L12.8636087,4.85050759 L13.8719226,3.87674365 C14.1150024,3.64198503 14.25,3.32726907 14.25,3.0009432 C14.25,2.76031863 14.0616294,2.5516641 13.804212,2.5082671 L13.7046769,2.5 L2.24076615,2.5 C1.963981,2.5 1.75,2.70664451 1.75,2.9482256 C1.75,3.24125602 1.86683253,3.52319645 2.03819813,3.70968915 L2.11479765,3.78352491 L4.66182013,5.5183914 C5.39796401,6.12773621 5.88085521,6.61205496 6.20891101,7.16412571 L6.34306889,7.4096493 C6.6025378,7.91080939 6.7189938,8.48411217 6.75562932,9.19962619 L6.76711489,9.52217941 L6.77012376,9.91719338 L6.76905325,10.2351254 L6.82830755,11.8992894 C6.82830755,12.0298077 6.84488729,12.1598763 6.87771039,12.2866532 C7.05305152,12.9639576 7.35130597,13.3168868 7.80766889,13.4233876 L7.89632718,13.4360454 L8.03678493,13.4432425 L8.24090794,13.445521 C8.6551215,13.445521 8.99090794,13.7813075 8.99090794,14.195521 C8.99090794,14.6097346 8.6551215,14.945521 8.24090794,14.945521 L7.92865627,14.9410254 C7.74821279,14.9342564 7.61356279,14.9183935 7.46677569,14.884138 C6.40546043,14.6364604 5.72951272,13.8366008 5.42558578,12.6625976 C5.37713894,12.475475 5.34664336,12.2844722 5.33462715,12.1034189 L5.26953599,10.2620303 L5.26905481,9.66699289 L5.26516655,9.46286901 L5.25759167,9.27632822 C5.23474002,8.83002149 5.17460405,8.48629023 5.0681465,8.22385393 L5.01101575,8.09931185 L4.98061421,8.04059345 C4.79627956,7.68456424 4.46149713,7.31987094 3.95856453,6.88356206 L3.76204819,6.71646629 L1.21502476,4.98159901 C0.603878968,4.47571996 0.25,3.73268522 0.25,2.9482256 C0.25,1.91546115 1.06734198,1.07919848 2.09290626,1.00530841 L2.24076615,1 L13.7046769,1 Z M14.75,10.4553163 C15.1642136,10.4553163 15.5,10.7911028 15.5,11.2053163 C15.5,11.6195299 15.1642136,11.9553163 14.75,11.9553163 L10.25,11.9553163 C9.83578644,11.9553163 9.5,11.6195299 9.5,11.2053163 C9.5,10.7911028 9.83578644,10.4553163 10.25,10.4553163 L14.75,10.4553163 Z M14.75,7.45531632 C15.1642136,7.45531632 15.5,7.79110276 15.5,8.20531632 C15.5,8.61952988 15.1642136,8.95531632 14.75,8.95531632 L9.25,8.95531632 C8.83578644,8.95531632 8.5,8.61952988 8.5,8.20531632 C8.5,7.79110276 8.83578644,7.45531632 9.25,7.45531632 L14.75,7.45531632 Z" fill="currentColor"></path>
</svg>