<?xml version="1.0" encoding="UTF-8"?>
<svg width="15px" height="16px" viewBox="0 0 15 16" version="1.1" xmlns="http://www.w3.org/2000/svg" xmlns:xlink="http://www.w3.org/1999/xlink">
  <path d="M14.5387588,7.04593119 C15.1494772,6.86234097 15.8035753,7.24737045 15.9167028,7.87548696 C16.0817158,8.79683785 16.0094163,9.80063434 15.6292058,10.8239798 C14.8781413,12.846022 12.8690649,14.1277537 10.7111366,14.1277537 L10.7111366,14.1277537 L6.46247598,14.1277537 C6.15966853,14.1277537 5.91470071,14.3725406 5.91470071,14.6751245 L5.91470071,14.6751245 L5.91470071,15.7061195 C5.91470071,15.9475067 5.63826133,16.0860493 5.44432847,15.940707 L5.44432847,15.940707 L2.22317175,13.5234359 C1.9254678,13.2998978 1.9254678,12.8528216 2.22402233,12.6301335 L2.22402233,12.6301335 L5.44517906,10.2222119 C5.63826133,10.0777196 5.91470071,10.2154122 5.91470071,10.4576493 L5.91470071,10.4576493 L5.91470071,11.4410469 C5.91470071,11.7436308 6.15966853,11.9892677 6.46247598,11.9892677 L6.46247598,11.9892677 L10.700079,11.9892677 C11.7726638,11.9892677 12.8120759,11.4682454 13.3555983,10.5434947 C13.8319246,9.73518783 13.9365462,8.9685287 13.8115106,8.28346521 C13.7119924,7.73949421 14.0088458,7.20572267 14.5387588,7.04593119 Z M11.0852993,0.293880473 C11.0852993,0.0524933413 11.3617387,-0.0860492733 11.5556715,0.0592929788 L11.5556715,0.0592929788 L14.7768282,2.47656412 C15.0745322,2.7001022 15.0745322,3.14717837 14.7759777,3.3698665 L14.7759777,3.3698665 L11.5548209,5.77778814 C11.3617387,5.92228043 11.0852993,5.78458777 11.0852993,5.54235069 L11.0852993,5.54235069 L11.0852993,4.55895311 C11.0852993,4.25636924 10.8403315,4.01073233 10.537524,4.01073233 L10.537524,4.01073233 L6.29992096,4.01073233 C5.22733617,4.01073233 4.1879241,4.53175456 3.64440175,5.45650526 C3.16807543,6.26481217 3.06345376,7.0314713 3.18848941,7.71653479 C3.28800759,8.26050579 2.99115422,8.79427733 2.4612412,8.95406881 C1.85052281,9.13765903 1.19642471,8.75262955 1.08329721,8.12451304 C0.918284162,7.20316215 0.990583692,6.19936566 1.37079416,5.17602022 C2.1218587,3.15397801 4.13093506,1.87224633 6.28886339,1.87224633 L6.28886339,1.87224633 L10.537524,1.87224633 C10.8403315,1.87224633 11.0852993,1.62745938 11.0852993,1.32487551 L11.0852993,1.32487551 Z" fill="currentColor" />
</svg>
