<svg viewBox="0 0 16 16" version="1.1" xmlns="http://www.w3.org/2000/svg" xmlns:xlink="http://www.w3.org/1999/xlink">
  <title>Icon/System/Refresh_Data</title>
  <defs>
    <path d="M0.781951465,5.98147539 C0.389351584,5.98147539 0.0643287883,5.69214451 0.00847836164,5.31507732 L0,5.19952667 L0,2.79064406 C0,2.3587857 0.350091596,2.00869534 0.781951465,2.00869534 C1.17455135,2.00869534 1.49957414,2.29802622 1.55542457,2.67509341 L1.56390293,2.79064406 L1.56248631,3.25092326 C3.49150605,0.633755476 6.88462499,-0.610819043 10.1396188,0.292664969 C14.0165379,1.368767 16.4907979,5.15723808 15.9177589,9.13983412 C15.3448071,13.1224861 11.9028981,16.0596611 7.87981189,15.9990798 C3.8567641,15.9384985 0.504861867,12.8989467 0.0520864095,8.90081287 C0.00349049904,8.4716974 0.311963776,8.08443594 0.741080758,8.0358402 C1.17019774,7.98724446 1.55746056,8.29571666 1.60605647,8.72483213 C1.97031478,11.9413349 4.66688563,14.386623 7.90335932,14.4353596 C11.1398801,14.4840965 13.9088543,12.1211747 14.369795,8.91712418 C14.8308073,5.71310892 12.8402757,2.66530014 9.7213427,1.7995895 C7.00602265,1.04590197 4.17121015,2.15032989 2.65406683,4.41731923 L3.19072029,4.41757795 C3.58332017,4.41757795 3.90834297,4.70690883 3.9641934,5.08397602 L3.97267176,5.19952667 C3.97267176,5.59212518 3.68333986,5.91714683 3.30627135,5.97299706 L3.19072029,5.98147539 L0.781951465,5.98147539 Z" id="path-1"></path>
  </defs>
  <g id="Icon/System/Refresh_Data" stroke="none" stroke-width="1" fill="none" fill-rule="evenodd">
    <g id="Combined-Shape">
      <use fill="currentColor" xlink:href="#path-1"></use>
    </g>
  </g>
</svg>
