<svg viewBox="0 0 16 16" version="1.1" xmlns="http://www.w3.org/2000/svg" xmlns:xlink="http://www.w3.org/1999/xlink">
	<g id="Icon/Skill-Category/Productivity" stroke="none" stroke-width="1" fill="none" fill-rule="evenodd">
		<g id="Group-21">
			<path fill="currentColor" d="M2.01950738,3.4156472 C2.01950738,3.76743599 1.87758504,4.08559297 1.64874375,4.31832514 C0.531020433,5.42548451 0,6.79698995 0,8.20549039 C0,9.97183335 0.696030619,10.9908774 1.65892956,12.1034178 C1.88165936,12.3348047 2.01950738,12.6482532 2.01950738,12.9939883 L2.02222359,12.9939883 L2.02222359,15.0973221 C2.05549725,15.600454 2.47990617,16 2.99734552,16 L8.00129638,16 C8.53571208,16 8.96962775,15.5742212 8.97913451,15.047547 L8.97913451,12.9939883 C8.97913451,12.6590154 9.10747577,12.3543112 9.31730354,12.1256148 C10.3637262,11.1045529 11,9.69537983 11,8.20549039 C11,6.36381217 10.3100809,5.33467861 9.32341503,4.28940177 C9.1129082,4.05936015 8.97913451,3.74927481 8.97913451,3.4156472 L8.97913451,0.831378484 C8.91122909,0.361205701 8.50379653,0 8.01080314,0 L2.99734552,0 C2.47990617,0 2.05549725,0.397528062 2.02222359,0.902005297 L2.01950738,3.4156472 L2.01950738,3.4156472 Z M5.49966047,12.4592424 C3.13315637,12.4592424 1.20532132,10.5617354 1.20532132,8.20549039 C1.20532132,5.8606802 3.11889623,3.95039307 5.49966047,3.95039307 C7.86005309,3.95039307 9.79603679,5.84184639 9.79603679,8.20549039 C9.79603679,10.5375205 7.88993148,12.4592424 5.49966047,12.4592424 L5.49966047,12.4592424 Z M5.99197481,7.54092572 L5.99197481,6.01135074 C5.99197481,5.74902258 5.77739367,5.53714214 5.51324156,5.53714214 C5.25316378,5.53714214 5.04265695,5.74095094 5.0345083,5.9958801 L5.0345083,8.47454492 C5.04129885,8.60638164 5.1458732,8.71265817 5.27693067,8.72274772 L8.48682017,8.72274772 C8.72516822,8.6965149 8.91122909,8.5001051 8.91122909,8.25661075 C8.91122909,8.00571741 8.71498241,7.80056333 8.4671276,7.7850927 L6.22964381,7.78240215 C6.1006235,7.76894943 6.00012346,7.66939925 5.99197481,7.54092572" id="path-2">
			</path>
		</g>
	</g>
</svg>
