<?xml version="1.0" encoding="UTF-8"?>
<svg viewBox="0 0 16 16" version="1.1" xmlns="http://www.w3.org/2000/svg" xmlns:xlink="http://www.w3.org/1999/xlink">

  <path fill="currentColor"
    d="M8,0.25 C11.0886056,0.25 13.6171724,2.63408801 13.7955028,5.64579203 C14.9006265,5.81326455 15.75,6.75841193 15.75,7.90410959 L15.75,10.2054795 C15.75,11.4696976 14.7158045,12.489726 13.4444444,12.489726 L13.416,12.489 L13.4166667,12.5068493 C13.4166667,13.7710674 12.3824711,14.7910959 11.1111111,14.7910959 L10.033614,14.791953 C9.75306218,15.3599712 9.16429749,15.75 8.48611111,15.75 L7.51388889,15.75 C6.56530665,15.75 5.79166667,14.9869578 5.79166667,14.0410959 C5.79166667,13.095234 6.56530665,12.3321918 7.51388889,12.3321918 L8.48611111,12.3321918 C9.16469689,12.3321918 9.75375562,12.7226801 10.0341093,13.2912425 L11.1111111,13.2910959 C11.55864,13.2910959 11.9166667,12.9379737 11.9166667,12.5068493 L11.9162905,12.2942544 C11.4528437,12.0342095 11.1388889,11.540648 11.1388889,10.9726027 L11.1388889,7.1369863 C11.1388889,6.42594395 11.6308064,5.83160587 12.2920849,5.6658785 C12.1271833,3.47793045 10.2706373,1.75 8,1.75 C5.72936266,1.75 3.87281673,3.47793045 3.70656128,5.66615616 C4.36919361,5.83160587 4.86111111,6.42594395 4.86111111,7.1369863 L4.86111111,10.9726027 C4.86111111,11.8126017 4.17458224,12.489726 3.33333333,12.489726 L2.55555556,12.489726 C1.28419553,12.489726 0.25,11.4696976 0.25,10.2054795 L0.25,7.90410959 C0.25,6.75841193 1.09937348,5.81326455 2.20489564,5.64611902 C2.38282763,2.63408801 4.91139437,0.25 8,0.25 Z M8.48611111,13.8321918 L7.51388889,13.8321918 C7.3891378,13.8321918 7.29166667,13.9283277 7.29166667,14.0410959 C7.29166667,14.1538641 7.3891378,14.25 7.51388889,14.25 L8.48611111,14.25 C8.6108622,14.25 8.70833333,14.1538641 8.70833333,14.0410959 C8.70833333,13.9283277 8.6108622,13.8321918 8.48611111,13.8321918 Z M13.4444444,7.11986301 L12.6666667,7.11986301 C12.6492489,7.11986301 12.6388889,7.13008112 12.6388889,7.1369863 L12.6388889,10.9726027 C12.6388889,10.9795079 12.6492489,10.989726 12.6666667,10.989726 L13.4444444,10.989726 C13.8919733,10.989726 14.25,10.6366038 14.25,10.2054795 L14.25,7.90410959 C14.25,7.47298523 13.8919733,7.11986301 13.4444444,7.11986301 Z M3.33333333,7.11986301 L2.55555556,7.11986301 C2.10802669,7.11986301 1.75,7.47298523 1.75,7.90410959 L1.75,10.2054795 C1.75,10.6366038 2.10802669,10.989726 2.55555556,10.989726 L3.33333333,10.989726 C3.35075109,10.989726 3.36111111,10.9795079 3.36111111,10.9726027 L3.36111111,7.1369863 C3.36111111,7.13008112 3.35075109,7.11986301 3.33333333,7.11986301 Z">
  </path>

</svg>
