<?xml version="1.0" encoding="UTF-8"?>
<svg width="16px" height="16px" viewBox="0 0 16 16" version="1.1" xmlns="http://www.w3.org/2000/svg" xmlns:xlink="http://www.w3.org/1999/xlink">
    <defs>
        <rect id="path-1" x="0" y="0" width="16" height="16"></rect>
    </defs>
    <g id="Icon/Channel/Salesforce" stroke="none" stroke-width="1" fill="none" fill-rule="evenodd">
        <mask id="mask-2" fill="white">
            <use xlink:href="#path-1"></use>
        </mask>
        <g id="Rectangle"></g>
        <g id="Salesforce-logo" mask="url(#mask-2)">
            <g transform="translate(0.000000, 2.500000)">
                <path d="M6.65977,1.19833267 C7.17648788,0.669658 7.8941516,0.341877433 8.68714668,0.341877433 C9.74208435,0.341877433 10.6642776,0.919897 11.1558352,1.779877 C11.5828498,1.59307867 12.0529055,1.487343 12.5516678,1.487343 C14.457051,1.487343 16,3.016981 16,4.90611 C16,6.79525 14.457051,8.32491 12.5516678,8.32491 C12.3184318,8.32491 12.0924004,8.30023333 11.8734989,8.25792 C11.4429007,9.01571 10.6176154,9.52677 9.6739203,9.52677 C9.27919592,9.52677 8.90242713,9.43862333 8.57232048,9.27652 C8.13455495,10.2880433 7.11190748,11 5.92418802,11 C4.6862601,11 3.62771638,10.23165 3.22583216,9.14961667 C3.05000922,9.18489 2.86342038,9.20601 2.67683155,9.20601 C1.19488676,9.20601 0,8.02178667 0,6.55559667 C0,5.57579 0.538238458,4.71933 1.33482839,4.26114333 C1.1697676,3.89106667 1.08006057,3.47869133 1.08006057,3.04870133 C1.08006057,1.36398533 2.47230205,0 4.18749781,0 C5.19577334,0 6.08926001,0.468761333 6.65977,1.19833267 Z" id="Path" fill="#139CD8" fill-rule="nonzero"></path>
                <path d="M2.31799222,5.70617667 C2.30723007,5.73085333 2.32158334,5.73789333 2.32517073,5.74141333 C2.35387727,5.76257 2.38617121,5.77668667 2.41487776,5.79428667 C2.57634743,5.87887667 2.73064233,5.90355333 2.892112,5.90355333 C3.21864246,5.90355333 3.42317195,5.73085333 3.42317195,5.45596333 L3.42317195,5.44888667 C3.42317195,5.19511667 3.19352703,5.09996667 2.97823164,5.03301333 L2.9495251,5.02597333 C2.78805169,4.9731 2.6481138,4.93078667 2.6481138,4.82504 L2.6481138,4.818 C2.6481138,4.72637 2.73064233,4.66293667 2.85623068,4.66293667 C2.9961723,4.66293667 3.16482048,4.70873333 3.27246817,4.76868333 C3.27246817,4.76868333 3.3047621,4.78980333 3.31552426,4.75808667 C3.32270276,4.74048667 3.37652474,4.59594667 3.38370325,4.58186667 C3.39087802,4.56423 3.38011586,4.55367 3.36934997,4.54663 C3.24734901,4.4726 3.07511345,4.42324667 2.8992905,4.42324667 L2.86699657,4.42324667 C2.56558154,4.42324667 2.35746466,4.60302333 2.35746466,4.85679333 L2.35746466,4.86383333 C2.35746466,5.13168333 2.58711332,5.21979333 2.80599609,5.27970667 L2.8418774,5.29030333 C2.99975969,5.33962 3.13611393,5.37841333 3.13611393,5.48768 L3.13611393,5.49472 C3.13611393,5.59339 3.0464069,5.66742 2.90646527,5.66742 C2.85264329,5.66742 2.67322923,5.66742 2.48305301,5.54759333 C2.46152497,5.53347667 2.44717169,5.52643667 2.4292273,5.51232 C2.41846514,5.50528 2.39693336,5.49824 2.38617121,5.52643667 L2.31799222,5.70617667 Z" id="Path" fill="#FFFFFF" fill-rule="nonzero"></path>
                <path d="M7.12265844,5.70617667 C7.11187015,5.73085333 7.12624209,5.73789333 7.12982574,5.74141333 C7.15853229,5.76257 7.19082249,5.77668667 7.21952904,5.79428667 C7.38098004,5.87887667 7.53530108,5.90355333 7.69675208,5.90355333 C8.02331241,5.90355333 8.2278419,5.73085333 8.2278419,5.45596333 L8.2278419,5.44888667 C8.2278419,5.19511667 7.99818951,5.09996667 7.78287173,5.03301333 L7.75416518,5.02597333 C7.59271417,4.9731 7.45276508,4.93078667 7.45276508,4.82504 L7.45276508,4.818 C7.45276508,4.72637 7.53530108,4.66293667 7.66087823,4.66293667 C7.80082732,4.66293667 7.96948296,4.70873333 8.07710452,4.76868333 C8.07710452,4.76868333 8.10939472,4.78980333 8.12018301,4.75808667 C8.12735031,4.74048667 8.18117976,4.59594667 8.18834706,4.58186667 C8.19551437,4.56423 8.18476341,4.55367 8.17401245,4.54663 C8.05198162,4.4726 7.87977966,4.42324667 7.70395672,4.42324667 L7.67162919,4.42324667 C7.37022909,4.42324667 7.16211594,4.60302333 7.16211594,4.85679333 L7.16211594,4.86383333 C7.16211594,5.13168333 7.39535198,5.21979333 7.61063244,5.27970667 L7.64654362,5.29030333 C7.80441097,5.33962 7.94077641,5.37841333 7.94077641,5.48768 L7.94077641,5.49472 C7.94077641,5.59339 7.85107311,5.66742 7.71112402,5.66742 C7.65729458,5.66742 7.47788798,5.66742 7.28769309,5.54759333 C7.26619118,5.53347667 7.25181924,5.52643667 7.23386365,5.51232 C7.22669634,5.5088 7.20157345,5.49824 7.19082249,5.52643667 L7.12265844,5.70617667 Z" id="Path" fill="#FFFFFF" fill-rule="nonzero"></path>
                <path d="M10.6750285,4.87439333 C10.6499056,4.78628333 10.6068271,4.70521333 10.549414,4.64178 C10.4920009,4.57482667 10.4238369,4.52195333 10.3377172,4.48319667 C10.2551812,4.44440333 10.154727,4.42680333 10.0434844,4.42680333 C9.93224191,4.42680333 9.83178765,4.44792333 9.74925166,4.48319667 C9.66671566,4.52195333 9.59496795,4.57482667 9.53755486,4.64178 C9.48014176,4.70873333 9.44064692,4.78628333 9.41194038,4.87439333 C9.38681748,4.96250333 9.37248287,5.06121 9.37248287,5.1634 C9.37248287,5.26562667 9.38681748,5.36429667 9.41194038,5.45240667 C9.43706327,5.54051667 9.48014176,5.62158667 9.53755486,5.68505667 C9.59496795,5.75201 9.66313201,5.80488333 9.74925166,5.84012 C9.83178765,5.87887667 9.93224191,5.89651333 10.0434844,5.89651333 C10.154727,5.89651333 10.2515976,5.87887667 10.3377172,5.84012 C10.4202532,5.80136333 10.4920009,5.74849 10.549414,5.68505667 C10.6068271,5.61806667 10.646322,5.54051667 10.6750285,5.45240667 C10.7001514,5.36429667 10.714486,5.26562667 10.714486,5.1634 C10.7180697,5.06121 10.7037351,4.96250333 10.6750285,4.87439333 Z M10.4022976,5.1634 C10.4022976,5.3185 10.3735911,5.44184667 10.3125943,5.52995667 C10.2551812,5.61454667 10.1690616,5.65686 10.0470681,5.65686 C9.9250746,5.65686 9.83895495,5.61454667 9.78154186,5.52995667 C9.72412876,5.44184667 9.69542221,5.3185 9.69542221,5.1634 C9.69542221,5.00833667 9.72412876,4.88499 9.78154186,4.8004 C9.83895495,4.71581 9.9250746,4.67349667 10.0470681,4.67349667 C10.1690616,4.67349667 10.2551812,4.71581 10.3125943,4.8004 C10.3735911,4.88499 10.4022976,5.00833667 10.4022976,5.1634 Z" id="Shape" fill="#FFFFFF" fill-rule="nonzero"></path>
                <path d="M12.924853,5.61454667 C12.9176857,5.58987 12.8889791,5.59691 12.8889791,5.59691 C12.8494843,5.61102667 12.8064431,5.62510667 12.759781,5.63218333 C12.7131562,5.63922333 12.6629104,5.64274333 12.6090809,5.64274333 C12.4763365,5.64274333 12.3722612,5.60398667 12.2969299,5.52643667 C12.2215612,5.44888667 12.1784827,5.32554 12.1784827,5.15988 C12.1784827,5.00833667 12.2179775,4.89203 12.2825579,4.80392 C12.350722,4.71581 12.4512136,4.67349667 12.5875417,4.67349667 C12.6987842,4.67349667 12.7884875,4.68761333 12.8781908,4.71581 C12.8781908,4.71581 12.8997301,4.72637 12.9105183,4.69817333 C12.9356039,4.63122 12.9535595,4.58538667 12.9786824,4.51491333 C12.9858497,4.49375667 12.9679314,4.48671667 12.9607268,4.48319667 C12.924853,4.46908 12.842317,4.44792333 12.7777366,4.43736333 C12.7203235,4.43032333 12.6485758,4.42324667 12.5732071,4.42324667 C12.4583809,4.42324667 12.3543056,4.44440333 12.2682233,4.47964 C12.1821037,4.51843333 12.106735,4.57130667 12.0457382,4.63826 C11.9883251,4.70521333 11.941663,4.78276333 11.9129564,4.87087333 C11.8842499,4.95898333 11.8699153,5.05769 11.8699153,5.15988 C11.8699153,5.38193333 11.930912,5.56167333 12.0529055,5.69561667 C12.174899,5.82956 12.3579266,5.89651333 12.5947463,5.89651333 C12.7346954,5.89651333 12.8781908,5.86831667 12.9822661,5.82956 C12.9822661,5.82956 13.0038053,5.81896333 12.993017,5.79780667 L12.924853,5.61454667 Z" id="Path" fill="#FFFFFF" fill-rule="evenodd"></path>
                <path d="M14.3278902,4.82504 C14.306351,4.73693 14.2453542,4.65234 14.2094803,4.61358333 C14.1484836,4.55015 14.0910705,4.50783667 14.0336574,4.48319667 C13.9582887,4.45144333 13.8685854,4.43032333 13.7681312,4.43032333 C13.653305,4.43032333 13.5456461,4.44792333 13.4631101,4.49023667 C13.3769904,4.52899333 13.3052427,4.58186667 13.2478296,4.64882 C13.1904165,4.71581 13.1509217,4.79332333 13.1222151,4.88499 C13.0935086,4.9731 13.0827576,5.07177 13.0827576,5.17399667 C13.0827576,5.27970667 13.0971296,5.37841333 13.1258361,5.46652333 C13.1545427,5.55463333 13.1975838,5.63218333 13.2585806,5.69913667 C13.3195773,5.76257 13.3985297,5.81544333 13.4918166,5.85068 C13.5851036,5.88595333 13.6999298,5.90355333 13.8291279,5.90355333 C14.0982378,5.90355333 14.2381869,5.84364 14.2956,5.81192333 C14.306351,5.80488333 14.3171019,5.79780667 14.3027673,5.76961 L14.2417705,5.60398667 C14.2309823,5.57931 14.2058967,5.58987 14.2058967,5.58987 C14.1376953,5.61454667 14.0444084,5.65686 13.8255443,5.65686 C13.6820115,5.65686 13.5743526,5.61454667 13.5097722,5.55111333 C13.4415708,5.48416 13.405697,5.38545333 13.4021133,5.24799 L14.3278902,5.24799 C14.3278902,5.24799 14.3530131,5.24799 14.3565967,5.22331333 C14.3565967,5.20571333 14.3888869,5.02949333 14.3278902,4.82504 Z M13.405697,5.01537667 C13.4200689,4.92726667 13.4415708,4.85679333 13.4810657,4.8004 C13.5384788,4.71581 13.6245984,4.66645667 13.7465919,4.66645667 C13.8685854,4.66645667 13.9475378,4.71229 14.0049509,4.8004 C14.0444084,4.85679333 14.0587803,4.93078667 14.0659476,5.01537667 L13.405697,5.01537667 Z" id="Shape" fill="#FFFFFF" fill-rule="evenodd"></path>
                <path d="M6.90021068,4.82504 C6.87867144,4.73693 6.81767469,4.65234 6.78180083,4.61358333 C6.72080408,4.55015 6.66339098,4.50783667 6.60597789,4.48319667 C6.53064653,4.45144333 6.4409059,4.43032333 6.34045164,4.43032333 C6.22562545,4.43032333 6.11796656,4.44792333 6.03546789,4.49023667 C5.94934825,4.52899333 5.87756321,4.58186667 5.82015011,4.64882 C5.76273701,4.71581 5.72327951,4.79332333 5.69457296,4.88499 C5.66586641,4.9731 5.65507812,5.07177 5.65507812,5.17399667 C5.65507812,5.27970667 5.66945006,5.37841333 5.69815661,5.46652333 C5.72686316,5.55463333 5.76990432,5.63218333 5.8309384,5.69913667 C5.89193515,5.76257 5.97085016,5.81544333 6.06413711,5.85068 C6.15746139,5.88595333 6.27228759,5.90355333 6.40144839,5.90355333 C6.67055829,5.90355333 6.81050738,5.84364 6.86792048,5.81192333 C6.87867144,5.80488333 6.88945972,5.79780667 6.87508778,5.76961 L6.81409103,5.60398667 C6.80334008,5.57931 6.77821718,5.58987 6.77821718,5.58987 C6.71005312,5.61454667 6.61672884,5.65686 6.39786474,5.65686 C6.254332,5.65686 6.14667311,5.61454667 6.0820927,5.55111333 C6.01392865,5.48416 5.9780548,5.38545333 5.97443381,5.24799 L6.90021068,5.24799 C6.90021068,5.24799 6.92533358,5.24799 6.92891723,5.22331333 C6.92891723,5.20571333 6.96120743,5.02949333 6.90021068,4.82504 Z M5.9780548,5.01537667 C5.9923894,4.92726667 6.01392865,4.85679333 6.05338615,4.8004 C6.11079925,4.71581 6.1969189,4.66645667 6.3189124,4.66645667 C6.4409059,4.66645667 6.51985824,4.71229 6.57727134,4.8004 C6.61672884,4.85679333 6.63110078,4.93078667 6.63826809,5.01537667 L5.9780548,5.01537667 Z" id="Shape" fill="#FFFFFF" fill-rule="evenodd"></path>
                <path d="M4.34178151,4.96958 C4.30590766,4.96602333 4.25566187,4.96602333 4.19824877,4.96602333 C4.11933376,4.96602333 4.04038142,4.97662 3.96859638,4.99422 C3.89684867,5.01185667 3.83226827,5.04357333 3.77485517,5.08233 C3.71743461,5.12112333 3.67437479,5.17399667 3.64208085,5.23391 C3.60978692,5.29382333 3.59184626,5.36429667 3.59184626,5.44536667 C3.59184626,5.52643667 3.60619953,5.59691 3.63490608,5.65330333 C3.6636089,5.70969667 3.70308133,5.75905 3.75689958,5.79428667 C3.80714537,5.82956 3.87172578,5.85775667 3.94709447,5.87535667 C4.01884217,5.89299333 4.10137817,5.90003333 4.19108147,5.90003333 C4.28795207,5.90003333 4.38127635,5.89299333 4.4745633,5.87535667 C4.5642666,5.86127667 4.67550914,5.8366 4.70779934,5.82956 C4.74008954,5.82248333 4.77237975,5.81192333 4.77237975,5.81192333 C4.79391899,5.80488333 4.79391899,5.78372667 4.79391899,5.78372667 L4.79391899,4.95194333 C4.79391899,4.76868333 4.7436732,4.63474 4.64680259,4.55015 C4.54989466,4.46556 4.40636192,4.42324667 4.21978801,4.42324667 C4.15162396,4.42324667 4.03679776,4.43384333 3.97221736,4.44440333 C3.97221736,4.44440333 3.77127152,4.48319667 3.68514067,4.54663 C3.68514067,4.54663 3.66720001,4.55719 3.67796217,4.58186667 L3.74256497,4.75456667 C3.74973228,4.77572333 3.77485517,4.76868333 3.77485517,4.76868333 C3.77485517,4.76868333 3.78202248,4.76512667 3.78918978,4.76160667 C3.96859638,4.66645667 4.19466512,4.66997667 4.19466512,4.66997667 C4.2951567,4.66997667 4.37048806,4.69113333 4.42431751,4.72989 C4.4745633,4.76868333 4.4996862,4.82504 4.4996862,4.94842333 L4.4996862,4.98718 C4.4171502,4.97662 4.34178151,4.96958 4.34178151,4.96958 Z M3.97221736,5.61102667 C3.93630618,5.58283 3.92913887,5.57579 3.91838792,5.55815333 C3.90043232,5.52995667 3.88968137,5.4912 3.88968137,5.43832667 C3.88968137,5.35725667 3.91838792,5.30086333 3.97221736,5.26210667 C3.97221736,5.26210667 4.05113237,5.19511667 4.24132726,5.19511667 C4.37407172,5.19511667 4.49248156,5.21627333 4.49248156,5.21627333 L4.49248156,5.63218333 C4.49248156,5.63218333 4.37407172,5.65686 4.24132726,5.6639 C4.05829968,5.67446 3.97221736,5.61102667 3.97221736,5.61102667 Z" id="Shape" fill="#FFFFFF" fill-rule="nonzero"></path>
                <path d="M11.8232531,4.50079667 C11.8304204,4.47964 11.8160858,4.46908 11.8088812,4.46908 C11.7945466,4.46204 11.7155943,4.44792333 11.6545975,4.44440333 C11.5361877,4.43736333 11.4716073,4.455 11.4141942,4.48319667 C11.3567811,4.50783667 11.2922007,4.55015 11.2562895,4.59598333 L11.2562895,4.48319667 C11.2562895,4.46908 11.2455385,4.455 11.2312039,4.455 L10.9943469,4.455 C10.9800123,4.455 10.9692613,4.46556 10.9692613,4.48319667 L10.9692613,5.84364 C10.9692613,5.85775667 10.9800123,5.87183667 10.9979679,5.87183667 L11.2419549,5.87183667 C11.2562895,5.87183667 11.2706614,5.86127667 11.2706614,5.84364 L11.2706614,5.1634 C11.2706614,5.07177 11.2814124,4.98014 11.3029516,4.92374667 C11.3244909,4.86735333 11.3496138,4.82152 11.3854876,4.78980333 C11.4177778,4.75808667 11.4572353,4.73341 11.5003138,4.72285 C11.543355,4.70873333 11.5900171,4.70521333 11.625891,4.70521333 C11.6761367,4.70521333 11.7263825,4.71933 11.7263825,4.71933 C11.7443008,4.72285 11.7550891,4.70873333 11.7622564,4.69465333 C11.7694237,4.65234 11.8160858,4.52547333 11.8232531,4.50079667 Z" id="Path" fill="#FFFFFF" fill-rule="evenodd"></path>
                <path d="M9.53755486,3.86991 C9.50884831,3.85935 9.48014176,3.85583 9.44426791,3.84875333 C9.40839405,3.84171333 9.36531556,3.83819333 9.31869075,3.83819333 C9.15003511,3.83819333 9.01729066,3.88402667 8.92755003,3.97565667 C8.83426308,4.06728667 8.77326633,4.20475 8.74097613,4.38801 L8.73022517,4.45144333 L8.51849104,4.45144333 C8.51849104,4.45144333 8.49340547,4.45144333 8.48620084,4.47964 L8.45032698,4.66997667 C8.44674333,4.68761333 8.45749429,4.69817333 8.47903353,4.69817333 L8.68356303,4.69817333 L8.47544988,5.8366 C8.45749429,5.92823 8.43957603,6.00226 8.42162044,6.06217333 C8.40008119,6.11856667 8.38216293,6.16084333 8.35704003,6.19256 C8.33191714,6.22075667 8.31037789,6.24543333 8.27092039,6.25599333 C8.23863019,6.26659 8.20275633,6.27011 8.1632615,6.27011 C8.14175958,6.27011 8.10943205,6.26659 8.08793014,6.26307 C8.06639089,6.25955 8.05563994,6.25247333 8.03768434,6.24895333 C8.03768434,6.24895333 8.01256145,6.23839333 8.00539414,6.26307 C7.99822684,6.28419 7.94439739,6.42869333 7.93723009,6.44985 C7.93002545,6.46748667 7.94081374,6.48156667 7.9515647,6.48508667 C7.98027125,6.49568333 7.99822684,6.49920333 8.03768434,6.50976333 C8.08793014,6.52036 8.13455495,6.52388 8.17404978,6.52388 C8.26016943,6.52388 8.33550079,6.51328333 8.40008119,6.48864333 C8.46469892,6.46396667 8.52211202,6.42517333 8.57232048,6.37233667 C8.62614993,6.31238667 8.66202378,6.25247333 8.69431398,6.16788333 C8.72664152,6.08329333 8.75534806,5.98110333 8.77684998,5.86127667 L8.98496313,4.70169333 L9.2899842,4.70169333 C9.2899842,4.70169333 9.3151071,4.70169333 9.32227441,4.67349667 L9.35814826,4.48319667 C9.36173191,4.46556 9.35098095,4.455 9.32944171,4.455 L9.03162527,4.455 C9.03162527,4.44792333 9.0459972,4.34573333 9.08187106,4.25054667 C9.09620567,4.20827 9.12491222,4.17655333 9.14645146,4.15187667 C9.1679907,4.13072 9.19669725,4.11312 9.2254038,4.10252333 C9.25411035,4.09196333 9.28640055,4.08844333 9.32585806,4.08844333 C9.35456461,4.08844333 9.3796875,4.09196333 9.40122675,4.09548333 C9.4299333,4.10252333 9.44068425,4.10604333 9.44785156,4.10604333 C9.47655811,4.11664 9.48376274,4.10604333 9.48734639,4.09196333 L9.5590941,3.90162667 C9.5590941,3.88402667 9.54113851,3.87343 9.53755486,3.86991 Z" id="Path" fill="#FFFFFF" fill-rule="evenodd"></path>
                <path d="M5.3930982,5.84012 C5.3930982,5.8542 5.38234725,5.86831667 5.36797531,5.86831667 L5.12040465,5.86831667 C5.10607004,5.86831667 5.09528176,5.8542 5.09528176,5.84012 L5.09528176,3.89458667 C5.09528176,3.88047 5.10607004,3.86639 5.12040465,3.86639 L5.36797531,3.86639 C5.38234725,3.86639 5.3930982,3.87695 5.3930982,3.89458667 L5.3930982,5.84012 Z" id="Path" fill="#FFFFFF" fill-rule="evenodd"></path>
            </g>
        </g>
    </g>
</svg>