<?xml version="1.0" encoding="UTF-8"?>
<svg width="16px" height="16px" viewBox="0 0 16 16" version="1.1" xmlns="http://www.w3.org/2000/svg" xmlns:xlink="http://www.w3.org/1999/xlink">
    <title>Path</title>
    <g id="Chat-Widget" stroke="none" stroke-width="1" fill="none" fill-rule="evenodd">
        <g id="Btn-Send" transform="translate(-12.000000, -12.000000)" fill="currentColor" fill-rule="nonzero">
            <g id="Send-Btn">
                <path d="M27.0471239,18.5528941 L14.1379219,13.1209127 C13.5940775,12.8920476 12.9796706,12.9927267 12.5345138,13.3835276 C12.0893571,13.774392 11.9031694,14.3766286 12.0486695,14.9551928 L13.1977021,19.524636 L18.8235209,19.524636 C19.0823962,19.524636 19.2923027,19.737466 19.2923027,20.0000175 C19.2923027,20.2625374 19.0824274,20.4753991 18.8235209,20.4753991 L13.1977021,20.4753991 L12.0486695,25.0448106 C11.9031694,25.6234065 12.0893258,26.2256431 12.5345138,26.6164757 C12.9805768,27.008069 13.5950463,27.1075122 14.1379531,26.8790907 L27.0471552,21.447141 C27.6349058,21.1998323 28,20.6453208 28,20.0000175 C28,19.3547142 27.6349058,18.8001711 27.0471239,18.5528941 Z" id="Path" transform="translate(20.000000, 20.000000) scale(1, -1) translate(-20.000000, -20.000000) "></path>
            </g>
        </g>
    </g>
</svg>
