<?xml version="1.0" encoding="UTF-8"?>
<svg viewBox="0 0 16 16" version="1.1" xmlns="http://www.w3.org/2000/svg" xmlns:xlink="http://www.w3.org/1999/xlink">
    <defs>
        <path d="M6.42162007,0.105035723 C3.2311877,0.622572827 0.656956355,3.18693778 0.114304799,6.37288543 C-0.229225029,8.391908 0.221938165,10.2880491 1.19422624,11.8227216 C1.39334797,12.1375491 1.474073,12.512472 1.38437852,12.8739408 L0.738578324,15.4750805 C0.651574686,15.8221981 1.01035257,16.1128082 1.33235573,15.9567398 L3.63301894,14.8409405 C3.98551821,14.670521 4.39093723,14.6812844 4.75240595,14.832868 C6.07181163,15.384489 7.57419404,15.5854047 9.15102286,15.2956915 C12.3118561,14.7135744 14.8349616,12.1321675 15.330075,8.95608623 C16.1489856,3.70985655 11.6732314,-0.747061762 6.42162007,0.105035723 L6.42162007,0.105035723 Z M9.22546927,10.371465 L4.87797821,10.371465 C4.44296002,10.371465 4.09046075,10.0189657 4.09046075,9.58394753 C4.09046075,9.14892934 4.44296002,8.79553312 4.87797821,8.79553312 L9.22546927,8.79553312 C9.66048746,8.79553312 10.0129867,9.14892934 10.0129867,9.58394753 C10.0129867,10.0189657 9.66048746,10.371465 9.22546927,10.371465 L9.22546927,10.371465 Z M10.949397,7.20704402 L4.87797821,7.20704402 C4.44296002,7.20704402 4.09046075,6.85454475 4.09046075,6.41952656 C4.09046075,5.98450837 4.44296002,5.63200909 4.87797821,5.63200909 L10.949397,5.63200909 C11.3844152,5.63200909 11.7369145,5.98450837 11.7369145,6.41952656 C11.7369145,6.85454475 11.3844152,7.20704402 10.949397,7.20704402 L10.949397,7.20704402 Z" id="path-2"></path>
    </defs>
    <g id="Icon/Editor/Speak" stroke="none" stroke-width="1" fill="none" fill-rule="evenodd">
        <g id="Icon/System/Comment">
            <g id="Group-9">
                <rect id="Rectangle" fill-rule="nonzero" x="0" y="0" width="16" height="16"></rect>
                <g id="chatlines" transform="translate(7.713635, 8.000000) scale(-1, 1) translate(-7.713635, -8.000000) ">
                    <use fill="#FFFFFF" xlink:href="#path-2"></use>
                    <use fill="currentColor" xlink:href="#path-2"></use>
                </g>
            </g>
        </g>
    </g>
</svg>
