<?xml version="1.0" encoding="UTF-8"?>
<svg  viewBox="0 0 15 15" xmlns="http://www.w3.org/2000/svg">
<path fill="currentColor" d="M2.89291 13.8835C2.5757 13.6578 2.43266 13.2589 2.53437 12.8835L3.49379 9.38529C3.57335 9.09518 3.47187 8.78559 3.236 8.59887L0.354965 6.3182C0.0481224 6.0778 -0.0752929 5.67139 0.0461688 5.30131C0.170924 4.93005 0.511347 4.67353 0.903102 4.65556L4.62299 4.46648C4.91761 4.4515 5.17609 4.26521 5.28347 3.99045L6.60879 0.599246C6.75492 0.23715 7.10668 0 7.49764 0C7.88859 0 8.24035 0.23715 8.38648 0.599246L9.71711 3.9913C9.82471 4.2656 10.083 4.45149 10.3772 4.46645L14.0969 4.65556C14.4885 4.67379 14.8288 4.93022 14.9538 5.30131C15.0752 5.6712 14.9522 6.0774 14.6459 6.3182L11.7705 8.59504C11.5347 8.78181 11.4332 9.09144 11.5129 9.38156L12.4731 12.8797C12.5749 13.2553 12.4314 13.6545 12.1136 13.8797C11.7933 14.1071 11.367 14.1183 11.0352 13.9079L7.90716 11.9152C7.66135 11.7586 7.34707 11.7586 7.10125 11.9152L3.97323 13.9079C3.81925 14.0078 3.63973 14.0615 3.45607 14.0625C3.25426 14.0629 3.05737 14.0003 2.89291 13.8835Z"/>
</svg>
