<svg viewBox="0 0 16 16" version="1.1" xmlns="http://www.w3.org/2000/svg" xmlns:xlink="http://www.w3.org/1999/xlink">
    <g stroke="none" stroke-width="1" fill="none" fill-rule="evenodd">
        <g>
            <use fill="currentColor" xlink:href="#path-2"></use>
            <path d="M8,0 C12.4183,0 16,3.58173 16,8 C16,12.4183 12.4183,16 8,16 C3.58173,16 0,12.4183 0,8 C0,3.58173 3.58173,0 8,0 Z M8,1.5 C4.41016,1.5 1.5,4.41016 1.5,8 C1.5,11.5898 4.41016,14.5 8,14.5 C11.5898,14.5 14.5,11.5898 14.5,8 C14.5,4.41016 11.5898,1.5 8,1.5 Z M11.8571,5.17318 C12.0476,5.38033 12.0476,5.71399 11.8571,5.92113 L7.4783,10.6807 C7.0894,11.1034 6.4557,11.1069 6.0628,10.6884 C6.038,10.6619 6.0145,10.6341 5.99237,10.605 L4.12277,8.6471 C3.94674,8.4155 3.96158,8.0784 4.15715,7.8658 C4.35429,7.6515 4.66818,7.6268 4.89225,7.8078 L6.2303,8.5812 C6.5045,8.8028 6.8833,8.7963 7.1508,8.5654 L11.1316,5.12853 C11.3484,4.94135 11.6615,4.96063 11.8571,5.17318 Z" id="path-2"></path>
        </g>
    </g>
</svg>