<?xml version="1.0" encoding="UTF-8"?>
<svg width="16px" height="16px" viewBox="0 0 16 16" version="1.1" xmlns="http://www.w3.org/2000/svg" xmlns:xlink="http://www.w3.org/1999/xlink">
    <!-- Generator: Sketch 52.2 (67145) - http://www.bohemiancoding.com/sketch -->
    <title>Icon/System/Support</title>
    <desc>Created with Sketch.</desc>
    <defs>
        <linearGradient x1="50%" y1="0%" x2="50%" y2="100%" id="linearGradient-1">
            <stop stop-color="currentColor" stop-opacity="0.85" offset="0%"></stop>
            <stop stop-color="currentColor" offset="100%"></stop>
        </linearGradient>
        <path d="M8.00041804,0 C3.58175263,0 0,3.58175263 0,7.99958196 C0,12.4182474 3.58175263,16 8.00041804,16 C12.4182474,16 16,12.4182474 16,7.99958196 C16,3.58175263 12.4182474,0 8.00041804,0 L8.00041804,0 Z M9.7394576,2.73146261 L9.87406595,2.24402989 C10.0028218,1.77582693 10.5253697,1.52500392 10.9634739,1.73318702 C12.4149031,2.419606 13.5904269,3.59429378 14.277682,5.04572295 C14.4883733,5.49218791 14.2216648,6.02309662 13.7409207,6.13847521 L13.2451272,6.25803417 C12.9098605,6.33913362 12.5536918,6.18613158 12.403198,5.87594712 C11.9199457,4.88436014 11.1148038,4.08005434 10.1215447,3.59931024 C9.8004912,3.44463605 9.64498093,3.07509014 9.7394576,2.73146261 L9.7394576,2.73146261 Z M1.72566233,5.03736218 C2.41208131,3.58593301 3.58676909,2.41040916 5.03819825,1.7231541 C5.48466322,1.51162669 6.01557193,1.77917124 6.13095051,2.25991535 L6.25050948,2.75570884 C6.33077285,3.0909756 6.17860689,3.44714428 5.86842243,3.59763808 C4.87599937,4.08089042 4.07169358,4.88603229 3.59178555,5.87929142 C3.43711135,6.20034488 3.06756545,6.35585515 2.72393792,6.26137848 L2.23566912,6.12677013 C1.76830224,5.99801432 1.51747923,5.47630245 1.72566233,5.03736218 L1.72566233,5.03736218 Z M6.25301771,13.2768982 L6.11924544,13.765167 C5.99048963,14.2325338 5.46794168,14.4833568 5.02983749,14.2760098 C3.57840832,13.5887548 2.40288446,12.414067 1.71562941,10.9626378 C1.504102,10.5161729 1.77164655,9.98526415 2.25239066,9.86988556 L2.74818415,9.75032659 C3.08345091,9.67006323 3.43961959,9.82222919 3.59011339,10.1324136 C4.07252965,11.1248367 4.8785076,11.9291425 5.87176673,12.4090505 C6.19282019,12.5637247 6.34833046,12.9332706 6.25301771,13.2768982 L6.25301771,13.2768982 Z M4.18038355,8.01295919 C4.18038355,5.89601296 5.89684904,4.18038355 8.01379527,4.18038355 C10.1307415,4.18038355 11.8463709,5.89601296 11.8463709,8.01295919 C11.8463709,10.1299054 10.1307415,11.8463709 8.01379527,11.8463709 C5.89684904,11.8463709 4.18038355,10.1299054 4.18038355,8.01295919 L4.18038355,8.01295919 Z M14.2676491,10.9709986 C13.5812301,12.4224278 12.4065423,13.5979516 10.9551131,14.2852067 C10.5078121,14.4967341 9.97773946,14.2291895 9.86236087,13.7484454 L9.7428019,13.2526519 C9.66170246,12.9173852 9.8147045,12.5612165 10.124889,12.4107227 C11.117312,11.9283064 11.9207817,11.1223285 12.4015258,10.1290693 C12.5562,9.80801589 12.9257459,9.65250562 13.2693735,9.74781836 L13.7568062,9.88159064 C14.2250091,10.0103464 14.4749961,10.5328944 14.2676491,10.9709986 L14.2676491,10.9709986 Z" id="path-2"></path>
    </defs>
    <g id="Icon/System/Support" stroke="none" stroke-width="1" fill="none" fill-rule="evenodd">
        <g id="Group-24">
            <rect id="Rectangle-2" x="0" y="0" width="16" height="16"></rect>
            <g id="help">
                <use fill="currentColor" xlink:href="#path-2"></use>
                <use fill="url(#linearGradient-1)" xlink:href="#path-2"></use>
            </g>
        </g>
    </g>
</svg>