<svg viewBox="0 0 16 16" xmlns="http://www.w3.org/2000/svg" xmlns:xlink="http://www.w3.org/1999/xlink">
    <path fill="currentColor" d="M5.222 1c-1.047 0-1.571 0-1.897.342C3 1.683 3 2.233 3 3.333v9.334c0 1.1 0 1.65.325 1.991.326.342.85.342 1.897.342h4.445C11.624 15 13 13.106 13 11.062c0-1.039-.341-2.054-.906-2.822a3.655 3.655 0 0 0-.955-.913c.47-.63.75-1.453.75-2.39C11.889 2.894 10.512 1 8.556 1H5.222zm-.555 5.88V3.567c0-.385 0-.578.114-.697.113-.12.297-.12.663-.12h3.112c.804 0 1.666.848 1.666 2.187 0 1.24-.775 1.943-1.666 1.943h-3.89zm.777 6.37c-.366 0-.55 0-.663-.12-.114-.12-.114-.312-.114-.697V8.63h5c.363 0 .766.214 1.108.68.34.462.558 1.1.558 1.752 0 1.34-.862 2.188-1.666 2.188H5.444z" />
</svg>
