<svg viewBox="0 0 16 16" xmlns="http://www.w3.org/2000/svg" xmlns:xlink="http://www.w3.org/1999/xlink">
  <path stroke="none" stroke-width="1" fill-rule="evenodd" fill="currentColor" d="M9.5 3a1.5 1.5 0 1 1-3 0 1.5 1.5 0 0 1 3 0zM11 3c0 .875-.374 1.662-.972 2.21l1.431 2.686a.75.75 0 0 1-1.324.705l-1.43-2.684A3 3 0 1 1 11 3zm3.5 10a1.5 1.5 0 1 1-3 0 1.5 1.5 0 0 1 3 0zm1.5 0a3 3 0 0 1-5.959.5H7.747a.75.75 0 0 1 0-1.5h2.424A3.001 3.001 0 0 1 16 13zM5.822 7.086a.75.75 0 0 1 .31 1.015L4.8 10.6a3 3 0 1 1-1.395-.572l1.403-2.632a.75.75 0 0 1 1.014-.31zM4.5 13a1.5 1.5 0 1 1-3 0 1.5 1.5 0 0 1 3 0z"/>
</svg>
