<svg viewBox="0 0 22 22" xmlns="http://www.w3.org/2000/svg" xmlns:xlink="http://www.w3.org/1999/xlink">

  <path fill="currentColor"
    d="M9.02 1.63A.825.825 0 0 0 8.657.02C3.7 1.146 0 5.577 0 10.874c0 1.986.521 3.853 1.435 5.47.06.104.063.205.039.276L.042 20.914a.825.825 0 0 0 1.044 1.044l4.295-1.432a.346.346 0 0 1 .277.04A11.081 11.081 0 0 0 11.128 22c5.296 0 9.727-3.7 10.852-8.655a.825.825 0 1 0-1.61-.366c-.957 4.221-4.733 7.371-9.242 7.371A9.43 9.43 0 0 1 6.47 19.13a1.994 1.994 0 0 0-1.611-.168l-1.686.562c-.455.152-.683.228-.803.107-.12-.12-.044-.347.107-.803l.562-1.686a1.994 1.994 0 0 0-.168-1.61 9.43 9.43 0 0 1-1.22-4.658c0-4.51 3.15-8.286 7.37-9.243zM13.6.02a.825.825 0 1 0-.365 1.61 9.492 9.492 0 0 1 7.136 7.136.825.825 0 0 0 1.609-.366A11.142 11.142 0 0 0 13.6.02zM10.303 5.15c0-.456.369-.825.825-.825a6.549 6.549 0 0 1 6.548 6.548.825.825 0 1 1-1.65 0 4.899 4.899 0 0 0-4.898-4.898.825.825 0 0 1-.825-.825zm.825 3.754a.825.825 0 1 0 0 1.65.32.32 0 0 1 .32.32.825.825 0 1 0 1.65 0 1.97 1.97 0 0 0-1.97-1.97z" />

</svg>