<svg viewBox="0 0 16 16" xmlns="http://www.w3.org/2000/svg" xmlns:xlink="http://www.w3.org/1999/xlink">
  <path fill="currentColor" d="M6.316 2.309c.517-.314.858-.52 1.138-.652.264-.125.417-.157.546-.157.129 0 .281.032.546.157.28.133.62.338 1.138.652l2.75 1.666c.483.293.8.486 1.032.659.218.163.313.275.373.38.06.106.106.246.132.517C14 5.82 14 6.19 14 6.755v2.493c0 .565 0 .935-.029 1.223-.026.272-.072.411-.132.517-.06.106-.155.218-.373.381-.232.173-.549.366-1.032.659l-2.75 1.666c-.518.314-.859.52-1.138.652-.265.125-.417.157-.546.157-.13 0-.282-.032-.546-.157-.28-.133-.62-.338-1.138-.652l-2.75-1.666c-.483-.293-.8-.486-1.032-.659-.218-.163-.313-.275-.373-.38-.06-.107-.106-.246-.132-.518C2 10.183 2 9.813 2 9.248V6.755c0-.565 0-.936.029-1.224.026-.271.072-.41.132-.517.06-.105.155-.217.373-.38.232-.174.549-.366 1.032-.659l2.75-1.666zM8 0C7.57 0 7.19.121 6.81.302c-.357.17-.763.415-1.241.705L2.76 2.71c-.447.27-.826.5-1.123.722-.316.236-.585.495-.783.846-.198.351-.28.716-.318 1.109C.5 5.756.5 6.199.5 6.72v2.561c0 .521 0 .965.036 1.334.038.393.12.757.318 1.108.198.352.467.611.783.847.297.222.676.452 1.122.722l2.81 1.703c.479.29.885.536 1.242.705.38.18.76.302 1.189.302.43 0 .809-.122 1.189-.302.357-.17.763-.416 1.241-.705l2.81-1.703c.447-.27.826-.5 1.123-.722.316-.236.585-.495.783-.847.198-.35.28-.715.318-1.108.036-.369.036-.812.036-1.334V6.721c0-.522 0-.965-.036-1.334-.038-.393-.12-.758-.318-1.109-.198-.35-.467-.61-.783-.846-.297-.222-.676-.452-1.122-.722l-2.81-1.703C9.951.717 9.545.471 9.188.302 8.809.122 8.429 0 7.999 0zm4.136 6.397a.75.75 0 0 0-.771-1.286L8.257 6.973a.5.5 0 0 1-.514 0L4.637 5.11a.75.75 0 1 0-.771 1.286l3.141 1.884a.5.5 0 0 1 .243.428v3.545a.75.75 0 0 0 1.5 0V8.709a.5.5 0 0 1 .243-.429l3.143-1.883z"/>
</svg>
