<svg viewBox="0 0 16 16" xmlns="http://www.w3.org/2000/svg" xmlns:xlink="http://www.w3.org/1999/xlink">
    <path fill="currentColor" d="M12.667 1.875A.875.875 0 0 0 11.792 1H6.25a2.917 2.917 0 0 0-2.917 2.917v.875a.875.875 0 0 0 1.75 0v-.875c0-.645.523-1.167 1.167-1.167h5.542a.875.875 0 0 0 .875-.875zM1 8.292c0-.484.392-.875.875-.875h12.25a.875.875 0 0 1 0 1.75H1.875A.875.875 0 0 1 1 8.292zM4.208 15a.875.875 0 0 1 0-1.75h5.25c.271 0 .407 0 .52-.022.462-.092.824-.454.916-.917.023-.113.023-.248.023-.52v-.583a.875.875 0 0 1 1.75 0v.459c0 .387 0 .58-.019.743a2.917 2.917 0 0 1-2.571 2.572C9.914 15 9.72 15 9.333 15H4.208z" />
</svg>
