<svg viewBox="0 0 16 16" xmlns="http://www.w3.org/2000/svg" xmlns:xlink="http://www.w3.org/1999/xlink">
    <path fill="currentColor" fill-rule="evenodd" d="M8.4 3.5h-.8c-1.005 0-1.668.001-2.177.043-.49.04-.703.11-.831.175a2 2 0 0 0-.874.874c-.065.128-.135.34-.175.831C3.5 5.932 3.5 6.595 3.5 7.6v.8c0 1.005.001 1.668.043 2.177.04.49.11.703.175.831a2 2 0 0 0 .874.874c.128.065.34.135.831.175.509.042 1.172.043 2.177.043h.8c1.005 0 1.668-.001 2.177-.043.49-.04.703-.11.831-.175a2 2 0 0 0 .874-.874c.065-.128.135-.34.175-.831.042-.509.043-1.172.043-2.177v-.8c0-1.005-.001-1.668-.043-2.177-.04-.49-.11-.703-.175-.831a2 2 0 0 0-.874-.874c-.128-.065-.34-.135-.831-.175C10.068 3.5 9.405 3.5 8.4 3.5zm-6.019.411C2 4.66 2 5.64 2 7.6v.8c0 1.96 0 2.94.381 3.689a3.5 3.5 0 0 0 1.53 1.53C4.66 14 5.64 14 7.6 14h.8c1.96 0 2.94 0 3.689-.382a3.5 3.5 0 0 0 1.53-1.529C14 11.34 14 10.36 14 8.4v-.8c0-1.96 0-2.94-.382-3.689a3.5 3.5 0 0 0-1.529-1.53C11.34 2 10.36 2 8.4 2h-.8c-1.96 0-2.94 0-3.689.381a3.5 3.5 0 0 0-1.53 1.53z" />
</svg>
