<svg viewBox="0 0 16 16" version="1.1" xmlns="http://www.w3.org/2000/svg" xmlns:xlink="http://www.w3.org/1999/xlink">

  <path fill="currentColor"
    d="M1.5,8 C1.5,4.4098 4.4098,1.5 8,1.5 C11.5902,1.5 14.5,4.4098 14.5,8 C14.5,11.5902 11.5902,14.5 8,14.5 C4.4098,14.5 1.5,11.5902 1.5,8 Z M8,0 C3.58137,0 0,3.58137 0,8 C0,12.4186 3.58137,16 8,16 C12.4186,16 16,12.4186 16,8 C16,3.58137 12.4186,0 8,0 Z M6.75,10 C6.33579,10 6.00000081,10.3358 6.00000081,10.75 C6.00000081,11.1642 6.33579,11.5 6.75,11.5 L8.00000081,11.5 L9.25,11.5 C9.66421,11.5 10.0000008,11.1642 10.0000008,10.75 C10.0000008,10.3358 9.66421,10 9.25,10 L8.75,10 L8.75,6.00002 L9.75001,6.00002 C9.84909,6.00002 9.9294,6.00005 9.99885,6.00117 C9.99997,6.07063 10.0000008,6.25 10.0000008,6.25 C10.0000008,6.66421 10.3358,7 10.75,7 C11.1642,7 11.5000126,6.66421 11.5000126,6.25 C11.5001,6.04488 11.5002,5.78866 11.475,5.60145 C11.4455,5.38212 11.3697,5.10193 11.1339,4.86613 C10.8981,4.63033 10.6179,4.5545 10.3986,4.52501 C10.2114,4.49984 9.98957,4.49993 9.78445,4.5 L9.75001,4.5 L8.00527,4.5 C8.00351,4.5 8.00176,4.5 8.00000081,4.5 C7.99824,4.5 7.99649,4.5 7.99473,4.5 L6.25001,4.5 L6.21556,4.5 C6.01045,4.49993 5.78865,4.49984 5.60144,4.52501 C5.38211,4.5545 5.10193,4.63033 4.86613,4.86613 C4.63033,5.10193 4.55449,5.38212 4.525,5.60145 C4.49983,5.78866 4.49993,6.04488 4.50000081,6.25 C4.50000081,6.66421 4.8358,7 5.25001,7 C5.66422,7 6.00000081,6.66421 6.00000081,6.25 C6.00000081,6.15092 6.00004,6.07063 6.00116,6.00117 C6.07062,6.00005 6.15093,6.00002 6.25001,6.00002 L7.25,6.00002 L7.25,10 L6.75,10 Z">
  </path>

</svg>