<svg viewBox="0 0 16 16" xmlns="http://www.w3.org/2000/svg" xmlns:xlink="http://www.w3.org/1999/xlink">
    <path fill="currentColor" d="M3 7.281a5.003 5.003 0 1 1 5.218 5.22.75.75 0 0 0 .065 1.498 6.503 6.503 0 1 0-6.782-6.783.75.75 0 1 0 1.498.065zM7.75 4a.75.75 0 0 1 .75.75V7h2a.75.75 0 0 1 0 1.5H7.75a.75.75 0 0 1-.74-.875A.755.755 0 0 1 7 7.5V4.75A.75.75 0 0 1 7.75 4zM2.5 10.75a.75.75 0 0 0-1.5 0v3.5a.75.75 0 0 0 1.5 0v-3.5zM4.75 10a.75.75 0 0 1 .75.75v3.5a.75.75 0 0 1-1.5 0v-3.5a.75.75 0 0 1 .75-.75z" />
</svg>
