<?xml version="1.0" encoding="UTF-8"?>
<svg viewBox="0 0 16 16" version="1.1" xmlns="http://www.w3.org/2000/svg" xmlns:xlink="http://www.w3.org/1999/xlink">
  <g transform="translate(8.000000, 8.000000) scale(-1, 1) translate(-8.000000, -8.000000)" fill="currentColor">
    <path d="M8.0000311,0.25 C8.41424466,0.25 8.7500311,0.585786438 8.7500311,1 C8.7500311,1.41421356 8.41424466,1.75 8.0000311,1.75 C4.54822249,1.75 1.75,4.54822071 1.75,8.00001944 C1.75,11.4517896 4.54822504,14.25 8.0000311,14.25 C11.4517885,14.25 14.25,11.4517838 14.25,8.00001944 C14.25,7.58580587 14.5857864,7.25001944 15,7.25001944 C15.4142136,7.25001944 15.75,7.58580587 15.75,8.00001944 C15.75,12.2802104 12.2802162,15.75 8.0000311,15.75 C3.71979967,15.75 0.25,12.2802185 0.25,8.00001944 C0.25,3.71979337 3.71979558,0.25 8.0000311,0.25 Z M14.8833844,4.46334499 C14.841247,4.54270599 14.7899296,4.6080411 14.72947,4.66358027 L12.4195309,6.9745208 C12.1267833,7.26755956 11.6519096,7.2677956 11.3588708,6.975048 C11.0658321,6.6823004 11.065596,6.20742673 11.3583436,5.91438796 L12.409,4.861 L9.94452305,4.86111457 C8.64048815,4.86111457 7.58338257,5.9182219 7.58338257,7.22225246 L7.58338257,7.61113595 C7.58338257,8.02534951 7.24759613,8.36113595 6.83338257,8.36113595 C6.41916901,8.36113595 6.08338257,8.02534951 6.08338257,7.61113595 L6.08338257,7.22225246 C6.08338257,5.08979534 7.81206046,3.36111457 9.94452305,3.36111457 L12.415,3.361 L11.3628577,2.30784597 C11.0967211,2.0414495 11.0727184,1.62477405 11.2907161,1.33126891 L11.3633753,1.24718593 C11.6564114,0.954435676 12.1312851,0.954667419 12.4240353,1.24770354 L14.7528231,3.5787654 C14.8186255,3.64463203 14.8696271,3.71968837 14.9058278,3.79980039 C14.9094367,3.81000789 14.9139089,3.82041218 14.9181493,3.83093474 C14.9258293,3.84795848 14.9319073,3.86502349 14.9373487,3.8822461 C14.9418794,3.89849154 14.9466169,3.91526014 14.9507751,3.932256 C14.9546045,3.94613592 14.9575016,3.9598443 14.9600121,3.97360936 C14.9632111,3.99269315 14.9661133,4.01270137 14.9682101,4.03294874 C14.9700966,4.04976261 14.9712,4.06608893 14.9717722,4.08243039 C14.9720458,4.09153082 14.9722343,4.10130068 14.9722343,4.11111457 L14.9716619,4.1382239 C14.9711138,4.15228874 14.970172,4.1663411 14.9688366,4.18036305 L14.9722343,4.11111457 C14.9722343,4.1604257 14.9674754,4.20862535 14.9583919,4.25527928 C14.9567689,4.26089717 14.9555038,4.26691274 14.9541641,4.27291504 C14.9483817,4.30176337 14.94046,4.32971894 14.9310121,4.35696119 C14.9256009,4.372564 14.919689,4.38793282 14.9132956,4.40304841 L14.8833844,4.46334499 Z"></path>
  </g>
</svg>
