<svg viewBox="0 0 26 26" xmlns="http://www.w3.org/2000/svg" xmlns:xlink="http://www.w3.org/1999/xlink">

  <path fill="currentColor"
    d="M6.457 5.812c1.484-1.484 2.54-2.537 3.447-3.23.889-.677 1.537-.931 2.196-.931.659 0 1.307.254 2.196.932.907.692 1.963 1.745 3.447 3.229l.645.645c1.484 1.484 2.537 2.54 3.23 3.447.677.889.931 1.537.931 2.196 0 .659-.254 1.307-.931 2.196-.693.907-1.746 1.963-3.23 3.447l-.645.645c-1.484 1.484-2.54 2.537-3.447 3.23-.889.677-1.537.931-2.196.931-.659 0-1.307-.254-2.196-.931-.907-.693-1.963-1.746-3.447-3.23l-.645-.645c-1.484-1.484-2.537-2.54-3.23-3.447-.677-.889-.931-1.537-.931-2.196 0-.659.254-1.307.932-2.196.692-.907 1.745-1.963 3.229-3.447l.645-.645zM12.1 0c-1.165 0-2.162.48-3.197 1.27-1.006.767-2.139 1.9-3.57 3.33l-.732.734C3.17 6.764 2.037 7.897 1.27 8.903.48 9.938 0 10.935 0 12.1s.48 2.162 1.27 3.197c.767 1.006 1.9 2.139 3.33 3.57l.734.732c1.43 1.43 2.563 2.564 3.569 3.331 1.035.79 2.032 1.27 3.197 1.27s2.162-.48 3.197-1.27c1.006-.767 2.139-1.9 3.57-3.33l.732-.734c1.43-1.43 2.564-2.563 3.331-3.569.79-1.035 1.27-2.032 1.27-3.197s-.48-2.162-1.27-3.197c-.767-1.006-1.9-2.139-3.33-3.57l-.734-.732c-1.43-1.43-2.563-2.564-3.569-3.331C14.262.48 13.265 0 12.1 0zm4.639 13.992 1.053-1.067h-2.667a.825.825 0 0 1 0-1.65h2.667l-1.053-1.067a.832.832 0 0 1 0-1.166.808.808 0 0 1 1.152 0l1.677 1.697.026.027c.158.16.329.332.453.497.146.193.303.47.303.837s-.157.644-.303.837a5.32 5.32 0 0 1-.453.497l-.026.027-1.677 1.697a.808.808 0 0 1-1.152 0 .832.832 0 0 1 0-1.166zm-7.664-1.067H6.408l1.053 1.067a.832.832 0 0 1 0 1.166.808.808 0 0 1-1.152 0l-1.677-1.697-.026-.027a5.33 5.33 0 0 1-.453-.497 1.373 1.373 0 0 1-.303-.837c0-.367.157-.644.303-.837.124-.165.295-.338.453-.497l.026-.027L6.31 9.042a.808.808 0 0 1 1.152 0 .832.832 0 0 1 0 1.166l-1.053 1.067h2.667a.825.825 0 0 1 0 1.65z" />

</svg>