<svg viewBox="0 0 16 16" xmlns="http://www.w3.org/2000/svg" xmlns:xlink="http://www.w3.org/1999/xlink">
    <path fill="currentColor" d="M7.5 2C5.175 2 3 3.601 3 6.25 3 8.9 5.177 10.5 7.5 10.5h1.75a.75.75 0 0 0 0-1.5H7.5c-1.677 0-3-1.1-3-2.75s1.321-2.75 3-2.75h4.125c1.52 0 2.875 1.176 2.875 2.75 0 .501-.104.915-.206 1.2a2.868 2.868 0 0 1-.174.392l-.007.012a.75.75 0 0 0 1.271.797l-.634-.401.634.4.001-.001.002-.002.003-.006.008-.014a1.967 1.967 0 0 0 .1-.182c.059-.117.134-.282.208-.489.148-.412.294-.998.294-1.706C16 3.735 13.856 2 11.625 2H7.5zm-.75 3.5a.75.75 0 0 0 0 1.5H8.5c1.679 0 3 1.1 3 2.75s-1.321 2.75-3 2.75H4.375c-.904 0-1.615-.285-2.094-.738-.474-.45-.781-1.12-.781-2.012 0-.524.105-.937.205-1.212a2.538 2.538 0 0 1 .168-.37l.005-.008a.75.75 0 0 0-.212-1.034.76.76 0 0 0-1.046.218l.005-.01v.002l-.002.002-.003.006a2.842 2.842 0 0 0-.113.196c-.06.116-.137.279-.212.485-.15.412-.295 1-.295 1.725 0 1.257.443 2.338 1.25 3.101C2.052 13.61 3.154 14 4.375 14H8.5c2.325 0 4.5-1.601 4.5-4.25S10.825 5.5 8.5 5.5H6.75z" />
</svg>
