<svg viewBox="0 0 16 16" xmlns="http://www.w3.org/2000/svg">
  <path d="M9.944.667a3.166 3.166 0 0 0-3.888 0l-4.833 3.76A3.165 3.165 0 0 0 0 6.927v5.906A3.166 3.166 0 0 0 3.167 16h9.666A3.166 3.166 0 0 0 16 12.833V6.926c0-.977-.45-1.9-1.223-2.5L9.944.668zM6.976 1.851a1.666 1.666 0 0 1 2.047 0l4.834 3.76c.405.315.643.8.643 1.315v5.907c0 .92-.746 1.667-1.667 1.667H3.167c-.92 0-1.667-.746-1.667-1.667V6.926c0-.514.237-1 .643-1.315l4.833-3.76zM5.75 11a.75.75 0 0 0 0 1.5h4.5a.75.75 0 0 0 0-1.5h-4.5z" fill="currentColor" fill-rule="evenodd" />
</svg>
