<svg viewBox="0 0 16 16" xmlns="http://www.w3.org/2000/svg" xmlns:xlink="http://www.w3.org/1999/xlink">
<path fill="currentColor" d="M8.265 0c.899 0 1.682.612 1.9 1.483l.01.04a.584.584 0 0 0 .867.359l.182-.1a1.958 1.958 0 0 1 2.245.374l.376.375a1.96 1.96 0 0 1 .29 2.398l-.017.028a.585.585 0 0 0 .36.868l.19.054A1.958 1.958 0 0 1 16 7.735v.53c0 .899-.611 1.682-1.483 1.9l-.04.01a.584.584 0 0 0-.358.868l.02.034c.462.77.34 1.757-.295 2.392l-.375.375a1.958 1.958 0 0 1-2.392.295l-.034-.02a.585.585 0 0 0-.868.359l-.054.19A1.958 1.958 0 0 1 8.265 16h-.53a1.958 1.958 0 0 1-1.9-1.483l-.01-.04a.585.585 0 0 0-.867-.36l-.035.022c-.771.462-1.757.34-2.392-.295l-.375-.375a1.958 1.958 0 0 1-.295-2.392l.021-.034a.585.585 0 0 0-.36-.868l-.039-.01A1.958 1.958 0 0 1 0 8.265v-.53c0-.899.612-1.682 1.483-1.9l.04-.01a.585.585 0 0 0 .359-.868l-.021-.034a1.958 1.958 0 0 1 .295-2.392l.375-.376a1.96 1.96 0 0 1 2.398-.29l.028.017a.585.585 0 0 0 .868-.36l.01-.039A1.958 1.958 0 0 1 7.735 0h.53zm0 1.5h-.53a.458.458 0 0 0-.445.347l-.056.198a2.085 2.085 0 0 1-3.049 1.123l-.03-.018a.46.46 0 0 0-.564.066l-.375.375a.458.458 0 0 0-.069.56l.106.192A2.085 2.085 0 0 1 1.887 7.28l-.04.01a.458.458 0 0 0-.347.444v.53c0 .21.143.394.347.445l.197.056a2.085 2.085 0 0 1 1.124 3.048l-.02.035a.458.458 0 0 0 .068.56l.376.375c.148.148.379.177.558.07l.193-.107a2.085 2.085 0 0 1 2.938 1.366l.01.04a.458.458 0 0 0 .444.347h.53c.21 0 .394-.143.445-.347l.056-.197a2.085 2.085 0 0 1 3.048-1.124l.035.02c.18.109.411.08.56-.068l.375-.376a.458.458 0 0 0 .068-.56l-.105-.19a2.084 2.084 0 0 1 1.367-2.939l.039-.01a.458.458 0 0 0 .347-.444v-.53a.458.458 0 0 0-.347-.445l-.198-.056a2.085 2.085 0 0 1-1.123-3.049l.019-.03a.46.46 0 0 0-.067-.564l-.375-.375a.458.458 0 0 0-.56-.069l-.035.021a2.084 2.084 0 0 1-3.095-1.282l-.01-.039a.458.458 0 0 0-.444-.347zM8 5a3 3 0 1 1 0 6 3 3 0 0 1 0-6zm0 1.5a1.5 1.5 0 1 0 0 3 1.5 1.5 0 0 0 0-3z"/>
</svg>
