<svg viewBox="0 0 16 16" xmlns="http://www.w3.org/2000/svg" xmlns:xlink="http://www.w3.org/1999/xlink">
  <path fill="currentColor" d="M2.338 2.206C2.963 1.481 3.928 1 5.25 1a.75.75 0 0 1 0 1.5c-.928 0-1.463.322-1.775.685C3.142 3.571 3 4.075 3 4.5v.89A3.75 3.75 0 0 1 1.943 8 3.75 3.75 0 0 1 3 10.61v.89c0 .425.142.929.475 1.315.312.363.847.685 1.775.685a.75.75 0 0 1 0 1.5c-1.322 0-2.287-.48-2.912-1.206A3.557 3.557 0 0 1 1.5 11.5v-.89a2.25 2.25 0 0 0-.971-1.851l-.205-.142a.75.75 0 0 1 0-1.234l.205-.142A2.25 2.25 0 0 0 1.5 5.39V4.5c0-.72.233-1.59.838-2.294zm8.436 4.008a.75.75 0 0 1 .012 1.06L8.485 9.63a1.25 1.25 0 0 1-1.737.049L5.244 8.304a.75.75 0 1 1 1.012-1.108l1.147 1.048c.1.091.253.087.347-.01l1.964-2.008a.75.75 0 0 1 1.06-.012zM10.75 1c1.322 0 2.287.48 2.912 1.206.605.703.838 1.574.838 2.294v.89c0 .74.363 1.431.972 1.851l.204.142a.75.75 0 0 1 0 1.234l-.204.142a2.25 2.25 0 0 0-.972 1.851v.89c0 .72-.233 1.59-.838 2.294-.625.725-1.59 1.206-2.912 1.206a.75.75 0 0 1 0-1.5c.928 0 1.463-.322 1.775-.685.333-.386.475-.89.475-1.315v-.89A3.75 3.75 0 0 1 14.057 8 3.75 3.75 0 0 1 13 5.39V4.5c0-.425-.142-.929-.475-1.315-.312-.363-.847-.685-1.775-.685a.75.75 0 0 1 0-1.5z" />
</svg>
