<svg viewBox="0 0 16 16" xmlns="http://www.w3.org/2000/svg" xmlns:xlink="http://www.w3.org/1999/xlink">
  <path fill="currentColor" fill-opacity=".85" fill-rule="evenodd" d="M2.085 2.403A.747.747 0 0 1 2.747 2h10.006c.907 0 1.51.941 1.133 1.769L9.435 13.56a.746.746 0 0 1-.99.371.751.751 0 0 1-.37-.993l1.175-2.586A.25.25 0 0 0 9.023 10H2.747a.752.752 0 0 1-.613-1.178l1.858-2.68a.25.25 0 0 0 0-.284l-1.858-2.68a.752.752 0 0 1-.05-.775zM9.932 8.5a.25.25 0 0 0 .227-.147l2.046-4.5a.25.25 0 0 0-.228-.353H4.655a.25.25 0 0 0-.205.392l1.164 1.68c.179.257.179.599 0 .856L4.45 8.108a.25.25 0 0 0 .205.392h5.277z" />
</svg>
