<svg version="1.1" viewBox="0 0 16.0 16.0" xmlns="http://www.w3.org/2000/svg"
  xmlns:xlink="http://www.w3.org/1999/xlink">

  <path transform="translate(0.25 -0.25)" fill="currentColor"
    d="M9.89151995,0.586227846 L13.3915691,2.65399633 C14.6980237,3.42573029 15.5,4.84098695 15.5,6.37019731 L15.5,10.1298541 C15.5,11.6587807 14.6982898,13.0740256 13.3924155,13.846017 L9.89230448,15.9138303 C8.56891653,16.6953891 6.93194081,16.6953891 5.60841254,15.9137707 L2.10842109,13.846028 C0.801989008,13.0742584 0,11.6590319 0,10.1298541 L0,6.37019731 C0,4.84128362 0.801755202,3.42599254 2.10762608,2.6540173 L5.60771069,0.586227846 C6.93111273,-0.195409282 8.56811791,-0.195409282 9.89151995,0.586227846 Z M6.37060919,1.87773312 L2.8707784,3.94537259 C2.0231576,4.44644993 1.5,5.36994913 1.5,6.37019731 L1.5,10.1298541 C1.5,11.1302078 2.02322469,12.053514 2.87137765,12.554557 L6.37127843,14.6222461 C7.22415345,15.1259171 8.27668988,15.1259171 9.12943017,14.6223107 L12.6292569,12.5546654 C13.4768799,12.0535776 14,11.1301229 14,10.1298541 L14,6.37019731 C14,5.36980911 13.4767887,4.44649229 12.6286316,3.94547857 L9.12869593,1.87777712 C8.27586881,1.37407429 7.22336183,1.37407429 6.37060919,1.87773312 Z M9.33509934,9.70604077 C9.94032124,9.70604077 10.5206371,9.93812359 10.9643308,10.3549372 C11.2257887,10.600836 11.4294037,10.9014862 11.5598425,11.2359506 C11.7103426,11.6218555 11.5195094,12.0566977 11.1336045,12.2071979 C10.7798584,12.3451564 10.3849913,12.1963 10.2057132,11.8732875 L10.1623573,11.78096 C10.1132017,11.6549176 10.0361772,11.5411863 9.93699248,11.4479038 C9.80375676,11.3227398 9.64043106,11.2430459 9.46687462,11.2161749 L9.33509934,11.2060408 L6.16567002,11.2060408 C5.94362334,11.2060408 5.72938645,11.2916356 5.56213256,11.4487927 C5.48900747,11.5172495 5.42734848,11.5985501 5.37971257,11.6892666 L5.29322093,11.8751957 C5.11300244,12.1976844 4.71770329,12.3453895 4.36436064,12.2064009 C3.97889593,12.0547769 3.78933056,11.6193805 3.94095453,11.2339158 C4.07273044,10.8989097 4.27606474,10.5980344 4.53598827,10.3547058 C4.92998384,9.98449086 5.43291053,9.75991036 5.96494751,9.71457414 L6.16567002,9.70604077 L9.33509934,9.70604077 Z M7.77677162,3.99137888 C9.1600444,3.99137888 10.281784,5.11267289 10.281784,6.49570177 C10.281784,7.87871143 9.16003896,9 7.77677162,9 C6.39350573,9 5.27178396,7.87871288 5.27178396,6.49570177 C5.27178396,5.11267145 6.39350028,3.99137888 7.77677162,3.99137888 Z M7.77677162,5.49137888 C7.22180056,5.49137888 6.77178396,5.94122548 6.77178396,6.49570177 C6.77178396,7.05015559 7.22180274,7.5 7.77677162,7.5 C8.33174846,7.5 8.78178396,7.05014762 8.78178396,6.49570177 C8.78178396,5.94123344 8.33175064,5.49137888 7.77677162,5.49137888 Z">
  </path>

</svg>
