<svg width="16" height="16" viewBox="0 0 16 16" xmlns="http://www.w3.org/2000/svg" xmlns:xlink="http://www.w3.org/1999/xlink">
    <path fill="currentColor" d="M8 0a8 8 0 1 1 0 16A8 8 0 0 1 8 0zm0 1.5a6.5 6.5 0 1 0 0 13 6.5 6.5 0 0 0 0-13zM6.11 5.118a.587.587 0 0 1 .772.058l.057.067a.606.606 0 0 1-.057.781L5.415 7.74a.4.4 0 0 0 0 .52l1.467 1.716.057.067a.606.606 0 0 1-.057.781.587.587 0 0 1-.838 0l-2.37-2.4-.058-.067a.606.606 0 0 1 .058-.781l2.37-2.4zm3.835 0 .067.058 2.37 2.4c.21.213.23.546.057.781l-.057.067-2.37 2.4a.587.587 0 0 1-.838 0 .606.606 0 0 1-.058-.781l.058-.067L10.64 8.26a.4.4 0 0 0 0-.52L9.174 6.024a.606.606 0 0 1-.058-.781l.058-.067a.587.587 0 0 1 .771-.058z" id="qxjgoanu5a"/>
</svg>
