<svg width="16px" height="16px" viewBox="0 0 16 16" version="1.1" xmlns="http://www.w3.org/2000/svg" xmlns:xlink="http://www.w3.org/1999/xlink">
    <defs>
        <linearGradient x1="50%" y1="0%" x2="50%" y2="100%" id="linearGradient-1">
            <stop stop-color="currentColor" stop-opacity="0.85" offset="0%"></stop>
            <stop stop-color="currentColor" offset="100%"></stop>
        </linearGradient>
        <path d="M8,0 C8.41421,0 8.75,0.335786 8.75,0.75 L8.75,2.04678 C10.0269,2.20674 11.2622,2.77693 12.2426,3.75736 C13.2231,4.73779 13.7933,5.9731 13.9532,7.25 L15.25,7.25 C15.6642,7.25 16,7.58579 16,8 C16,8.41421 15.6642,8.75 15.25,8.75 L13.9532,8.75 C13.7933,10.0269 13.2231,11.2622 12.2426,12.2426 C11.2622,13.2231 10.0269,13.7933 8.75,13.9532 L8.75,15.25 C8.75,15.6642 8.41421,16 8,16 C7.58579,16 7.25,15.6642 7.25,15.25 L7.25,13.9532 C5.9731,13.7933 4.73779,13.2231 3.75736,12.2426 C2.77693,11.2622 2.20674,10.0269 2.04678,8.75 L0.75,8.75 C0.335786,8.75 0,8.41421 0,8 C0,7.58579 0.335786,7.25 0.75,7.25 L2.04678,7.25 C2.20674,5.9731 2.77693,4.73779 3.75736,3.75736 C4.73779,2.77693 5.9731,2.20674 7.25,2.04678 L7.25,0.75 C7.25,0.335786 7.58579,0 8,0 Z M12.4374,7.25 L11.75,7.25 C11.3358,7.25 11,7.58579 11,8 C11,8.41421 11.3358,8.75 11.75,8.75 L12.4374,8.75 C12.2877,9.64057 11.8692,10.4948 11.182,11.182 C10.4948,11.8692 9.64057,12.2877 8.75,12.4374 L8.75,11.75 C8.75,11.3358 8.41421,11 8,11 C7.58579,11 7.25,11.3358 7.25,11.75 L7.25,12.4374 C6.35943,12.2877 5.50524,11.8692 4.81802,11.182 C4.1308,10.4948 3.71232,9.64057 3.56258,8.75 L4.25,8.75 C4.66421,8.75 5,8.41421 5,8 C5,7.58579 4.66421,7.25 4.25,7.25 L3.56258,7.25 C3.71232,6.35943 4.1308,5.50524 4.81802,4.81802 C5.50524,4.1308 6.35943,3.71232 7.25,3.56258 L7.25,4.25 C7.25,4.66421 7.58579,5 8,5 C8.41421,5 8.75,4.66421 8.75,4.25 L8.75,3.56258 C9.64057,3.71232 10.4948,4.1308 11.182,4.81802 C11.8692,5.50524 12.2877,6.35943 12.4374,7.25 Z" id="path-2"></path>
    </defs>
    <g id="Icon/System/Target" stroke="none" stroke-width="1" fill="none" fill-rule="evenodd">
        <g id="Shape">
            <use fill="currentColor" xlink:href="#path-2"></use>
            <use fill-opacity="0.85" fill="url(#linearGradient-1)" xlink:href="#path-2"></use>
        </g>
    </g>
</svg>