<?xml version="1.0" encoding="UTF-8"?>
<svg viewBox="0 0 16 16" version="1.1" xmlns="http://www.w3.org/2000/svg" xmlns:xlink="http://www.w3.org/1999/xlink">

  <path fill="currentColor"
    d="M5.18218764,1.75 C3.42429128,1.75 1.99952708,3.17613437 1.99952708,4.935 C1.99952708,6.69386563 3.42429128,8.12 5.18218764,8.12 C6.940084,8.12 8.3648482,6.69386563 8.3648482,4.935 C8.3648482,3.17613437 6.940084,1.75 5.18218764,1.75 Z M5.18218764,3.25 C6.11133394,3.25 6.8648482,4.0042389 6.8648482,4.935 C6.8648482,5.8657611 6.11133394,6.62 5.18218764,6.62 C4.25304134,6.62 3.49952708,5.8657611 3.49952708,4.935 C3.49952708,4.0042389 4.25304134,3.25 5.18218764,3.25 Z M12.1400476,3.13 C10.7631939,3.13 9.64745318,4.24728098 9.64745318,5.625 C9.64745318,7.00271902 10.7631939,8.12 12.1400476,8.12 C13.5169013,8.12 14.6326421,7.00271902 14.6326421,5.625 C14.6326421,4.24728098 13.5169013,3.13 12.1400476,3.13 Z M12.1446079,4.64060974 C12.6925709,4.64060974 13.1372023,5.08585498 13.1372023,5.63560974 C13.1372023,6.1853645 12.6925709,6.63060974 12.1446079,6.63060974 C11.5966449,6.63060974 11.1520135,6.1853645 11.1520135,5.63560974 C11.1520135,5.08585498 11.5966449,4.64060974 12.1446079,4.64060974 Z M6.58816225,8.91219811 C8.52876349,8.91219811 10.1144241,10.4308484 10.1144241,12.3211092 L10.1144241,13 C10.1144241,13.4142136 9.77863761,13.75 9.36442405,13.75 C8.95021049,13.75 8.61442405,13.4142136 8.61442405,13 L8.61442405,12.3211092 C8.61442405,11.2741109 7.71447947,10.4121981 6.58816225,10.4121981 L3.7763036,10.4121981 C2.64996653,10.4121981 1.75,11.274117 1.75,12.3211092 L1.75,13 C1.75,13.4142136 1.41421356,13.75 1,13.75 C0.585786438,13.75 0.25,13.4142136 0.25,13 L0.25,12.3211092 C0.25,10.4308484 1.83568804,8.91219811 3.7763036,8.91219811 L6.58816225,8.91219811 Z M12.2236685,8.91219811 C14.1643259,8.91219811 15.75,10.4308351 15.75,12.3211092 L15.75,13 C15.75,13.4142136 15.4142136,13.75 15,13.75 C14.5857864,13.75 14.25,13.4142136 14.25,13 L14.25,12.3211092 C14.25,11.2741036 13.3500474,10.4121981 12.2236685,10.4121981 L11.4555736,10.4121981 C11.04136,10.4121981 10.7055736,10.0764117 10.7055736,9.66219811 C10.7055736,9.24798455 11.04136,8.91219811 11.4555736,8.91219811 L12.2236685,8.91219811 Z">
  </path>

</svg>
