<svg viewBox="0 0 16 16" version="1.1" xmlns="http://www.w3.org/2000/svg" xmlns:xlink="http://www.w3.org/1999/xlink">
  <defs>
    <path
      d="M13,0 C14.8196817,0 16,1.18031832 16,3 L16,13 C16,14.8196817 14.8196817,16 13,16 L3,16 C1.18031832,16 0,14.8196817 0,13 L0,3 C0,1.18031832 1.18031832,0 3,0 L13,0 Z M12.0500488,4.88999939 L3.94995117,4.88999939 C2.73683005,4.88999939 1.94995117,5.67687827 1.94995117,6.88999939 L1.94995117,6.88999939 L1.94995117,12.0800018 C1.94995117,13.2931229 2.73683005,14.0800018 3.94995117,14.0800018 L3.94995117,14.0800018 L12.0500488,14.0800018 C13.2631699,14.0800018 14.0500488,13.2931229 14.0500488,12.0800018 L14.0500488,12.0800018 L14.0500488,6.88999939 C14.0500488,5.67687827 13.2631699,4.88999939 12.0500488,4.88999939 L12.0500488,4.88999939 Z M5.41818173,1.78999329 L10.5818183,1.78999329 C10.9834799,1.78999329 11.309091,2.11560438 11.309091,2.51726601 C11.309091,2.91892765 10.9834799,3.24453874 10.5818183,3.24453874 L5.41818173,3.24453874 C5.01652009,3.24453874 4.690909,2.91892765 4.690909,2.51726601 C4.690909,2.11560438 5.01652009,1.78999329 5.41818173,1.78999329 Z M7.38284197,8.03619569 C7.33912605,8.47335487 6.99335487,8.81912605 6.55619569,8.86284197 L5.45924793,8.97253675 C5.19853795,8.99860774 5,9.21798971 5,9.48 C5,9.74201029 5.19853795,9.96139226 5.45924793,9.98746325 L6.55619569,10.097158 C6.99335487,10.1408739 7.33912605,10.4866451 7.38284197,10.9238043 L7.49253675,12.0207521 C7.51860774,12.281462 7.73798971,12.48 8,12.48 C8.26201029,12.48 8.48139226,12.281462 8.50746325,12.0207521 L8.61715803,10.9238043 C8.66087395,10.4866451 9.00664513,10.1408739 9.44380431,10.097158 L10.5407521,9.98746325 C10.801462,9.96139226 11,9.74201029 11,9.48 C11,9.21798971 10.801462,8.99860774 10.5407521,8.97253675 L9.44380431,8.86284197 C9.00664513,8.81912605 8.66087395,8.47335487 8.61715803,8.03619569 L8.50746325,6.93924793 C8.48139226,6.67853795 8.26201029,6.48 8,6.48 C7.73798971,6.48 7.51860774,6.67853795 7.49253675,6.93924793 L7.38284197,8.03619569 Z"
      id="path-2">
    </path>
  </defs>
  <g id="Icon/System/Template" stroke="none" stroke-width="1" fill="none" fill-rule="evenodd">
    <use fill="currentColor" xlink:href="#path-2">
    </use>
  </g>
</svg>
