<?xml version="1.0" encoding="UTF-8"?>
<svg width="14px" height="14px" viewBox="0 0 12 14" version="1.1" xmlns="http://www.w3.org/2000/svg"
  xmlns:xlink="http://www.w3.org/1999/xlink">
  <title>Icon/Visuals/Text/Text-align-left Copy 15</title>
  <defs>
    <linearGradient x1="50%" y1="0%" x2="50%" y2="100%" id="linearGradient-1">
      <stop stop-color="#6E849A" stop-opacity="0.85" offset="0%"></stop>
      <stop stop-color="#6E849A" offset="100%"></stop>
    </linearGradient>
    <path
      d="M8.9,2.8 L8.9,14.1 C8.9,14.5970563 8.49705627,15 8,15 C7.50294373,15 7.1,14.5970563 7.1,14.1 L7.1,2.8 L7.1,2.8 L2.79938556,2.63134845 C2.35291876,2.61383995 2,2.24680997 2,1.8 C2,1.3581722 2.3581722,1 2.8,1 L13.2,1 C13.6418278,1 14,1.3581722 14,1.8 C14,2.24680997 13.6470812,2.61383995 13.2006144,2.63134845 L8.9,2.8 L8.9,2.8 Z"
      id="path-2"></path>
  </defs>
  <g id="Chat-Widget" stroke="none" stroke-width="1" fill="none" fill-rule="evenodd">
    <g id="Input/Prototype/Voice-Active" transform="translate(-35.000000, -89.000000)">
      <g id="Input" transform="translate(0.000000, 69.000000)">
        <g id="Controls" transform="translate(25.000000, 11.000000)">
          <g id="Group" transform="translate(8.000000, 8.000000)">
            <g id="Group-3-Copy"
              transform="translate(8.000000, 8.000000) scale(-1, 1) translate(-8.000000, -8.000000) ">
              <rect id="Rectangle" fill-rule="nonzero" x="0" y="0" width="16" height="16"></rect>
              <g id="T">
                <use fill="#FFFFFF" xlink:href="#path-2"></use>
                <use fill="currentColor" xlink:href="#path-2"></use>
              </g>
            </g>
          </g>
        </g>
      </g>
    </g>
  </g>
</svg>
