<svg viewBox="0 0 16 16" version="1.1" xmlns="http://www.w3.org/2000/svg" xmlns:xlink="http://www.w3.org/1999/xlink">
	<g stroke="none" stroke-width="1" fill="none" fill-rule="evenodd">
		<path d="M13.3333333,0 C14.8062222,0 16,1.19377778 16,2.66666667 L16,13.3333333 C16,14.8062222 14.8062222,16 13.3333333,16 L2.66666667,16 C1.19377778,16 0,14.8062222 0,13.3333333 L0,2.66666667 C0,1.19377778 1.19377778,0 2.66666667,0 L13.3333333,0 Z M11.35,3.5 L4.65,3.5 C4.29101491,3.5 4,3.79101491 4,4.15 L4,4.15 L4,5.85 C4,6.20898509 4.29101491,6.5 4.65,6.5 C5.00898509,6.5 5.3,6.20898509 5.3,5.85 L5.3,5.85 L5.3,4.8 L7.351,4.8 L7.351,11 L6.15553774,11 C5.82918766,11 5.55901128,11.2405082 5.51258541,11.5539478 L5.50553774,11.65 C5.50553774,12.0089851 5.79655265,12.3 6.15553774,12.3 L6.15553774,12.3 L9.85553774,12.3 C10.2145228,12.3 10.5055377,12.0089851 10.5055377,11.65 C10.5055377,11.2910149 10.2145228,11 9.85553774,11 L9.85553774,11 L8.651,11 L8.651,4.8 L10.693,4.8 L10.693203,5.85 C10.693203,6.17635008 10.9337112,6.44652646 11.2471508,6.49295233 L11.343203,6.5 C11.7021881,6.5 11.993203,6.20898509 11.993203,5.85 L11.993203,5.85 L11.993,4.234 L12,4.15 C12,3.82364992 11.7594918,3.55347354 11.4460522,3.50704767 L11.35,3.5 Z" fill="currentColor">
		</path>
	</g>
</svg>
