<?xml version="1.0" encoding="UTF-8"?>
<svg width="12px" height="16px" viewBox="0 0 12 16" version="1.1" xmlns="http://www.w3.org/2000/svg" xmlns:xlink="http://www.w3.org/1999/xlink">
    <!-- Generator: Sketch 52.2 (67145) - http://www.bohemiancoding.com/sketch -->
    <title>Combined Shape</title>
    <desc>Created with Sketch.</desc>
    <defs>
        <linearGradient x1="50%" y1="0%" x2="50%" y2="100%" id="linearGradient-1">
            <stop stop-color="currentColor" stop-opacity="0.85" offset="0%"></stop>
            <stop stop-color="currentColor" offset="100%"></stop>
        </linearGradient>
        <path d="M5,6.18181818 L12.5,6.18181818 C13.3284271,6.18181818 14,6.83304036 14,7.63636364 L14,11.6363636 C14,14.0463335 11.9852814,16 9.5,16 L6.5,16 C4.01471863,16 2,14.0463335 2,11.6363636 L2,7.63636364 C2,6.83304036 2.67157288,6.18181818 3.5,6.18181818 L3.5,4.36363636 C3.5,1.95366655 5.51471863,3.22973971e-16 8,0 C10.4852814,-4.03717464e-16 12.5,1.95366655 12.5,4.36363636 C12.5,4.765298 12.1642136,5.09090909 11.75,5.09090909 C11.3357864,5.09090909 11,4.765298 11,4.36363636 C11,2.75698982 9.65685425,1.45454545 8,1.45454545 C6.34314575,1.45454545 5,2.75698982 5,4.36363636 L5,6.18181818 Z M7.25,12.3636364 C7.25,12.765298 7.58578644,13.0909091 8,13.0909091 C8.41421356,13.0909091 8.75,12.765298 8.75,12.3636364 L8.75,11.4426638 C8.75,11.2313297 8.84479912,11.0304474 9.0097233,10.8922968 C9.02889376,10.8762388 9.04587272,10.8610401 9.06066017,10.8467008 C9.64644661,10.2786654 9.64644661,9.3576982 9.06066017,8.78966286 C8.47487373,8.22162753 7.52512627,8.22162753 6.93933983,8.78966286 C6.35355339,9.3576982 6.35355339,10.2786654 6.93933983,10.8467008 C6.95412702,10.8610399 6.97110563,10.8762383 6.99027567,10.8922959 C7.15520183,11.0304454 7.25000115,11.2313285 7.25000115,11.4426632 L7.25,12.3636364 Z" id="path-2"></path>
    </defs>
    <g id="Symbols" stroke="none" stroke-width="1" fill="none" fill-rule="evenodd">
        <g id="Icon/System/Unlocked" transform="translate(-2.000000, 0.000000)">
            <g id="Group-8">
                <g id="Combined-Shape">
                    <use fill="currentColor" xlink:href="#path-2"></use>
                    <use fill="url(#linearGradient-1)" xlink:href="#path-2"></use>
                </g>
            </g>
        </g>
    </g>
</svg>