<svg viewBox="0 0 16 16" xmlns="http://www.w3.org/2000/svg" xmlns:xlink="http://www.w3.org/1999/xlink">
  <defs>
    <path d="M6.463 2.52A4.572 4.572 0 0 0 1.74 5.494c-.685 1.871.159 3.91 1.934 5.14a.75.75 0 1 1-.854 1.232C.623 10.345-.642 7.636.333 4.978a6.072 6.072 0 0 1 6.27-3.95 6.068 6.068 0 0 1 5.282 4.412 4.38 4.38 0 0 1 4.052 3.625c.366 2.123-.952 4.192-2.943 4.893a.75.75 0 0 1-.499-1.414c1.346-.475 2.198-1.868 1.964-3.225a2.88 2.88 0 0 0-2.842-2.387c-.078 0-.151.005-.264.013h-.015a.75.75 0 0 1-.793-.625A4.565 4.565 0 0 0 6.463 2.52zm1.255 4.7a.75.75 0 0 1 1.06 0l2.5 2.5a.75.75 0 0 1-1.06 1.06l-1.22-1.22v4.69a.75.75 0 0 1-1.5 0V9.56l-1.22 1.22a.75.75 0 0 1-1.06-1.06l2.5-2.5z" id="sqtlg3u2ba"/>
  </defs>
  <g fill="none" fill-rule="evenodd">
    <use fill="currentColor" xlink:href="#sqtlg3u2ba"/>
  </g>
</svg>
