<?xml version="1.0" encoding="UTF-8"?>
<svg width="16px" height="16px" viewBox="0 0 16 16" version="1.1" xmlns="http://www.w3.org/2000/svg" xmlns:xlink="http://www.w3.org/1999/xlink">
    <title>Icon/System/Export_Model</title>
    <defs>
        <linearGradient x1="50%" y1="0%" x2="50%" y2="100%" id="linearGradient-1">
            <stop stop-color="#6E849A" stop-opacity="1" offset="0%"></stop>
            <stop stop-color="#6E849A" offset="100%"></stop>
        </linearGradient>
        <path d="M8,14.5 C11.5899,14.5 14.5,11.5899 14.5,8 C14.5,4.41015 11.5899,1.5 8,1.5 C4.41015,1.5 1.5,4.41015 1.5,8 C1.5,11.5899 4.41015,14.5 8,14.5 Z M8,16 C12.4183,16 16,12.4183 16,8 C16,3.58172 12.4183,0 8,0 C3.58172,0 0,3.58172 0,8 C0,12.4183 3.58172,16 8,16 Z M10.7517,6.80746 C10.4438,7.08456 9.96963,7.0596 9.69254,6.75171 L8.7498,5.70423 L8.7498,9.25 C8.7498,9.66421 8.41401,10 7.9998,10 C7.58559,10 7.2498,9.66421 7.2498,9.25 L7.2498,5.70469 L6.30748,6.75171 C6.03038,7.0596 5.55617,7.08456 5.24828,6.80746 C4.9404,6.53037 4.91544,6.05615 5.19254,5.74827 L7.43552,3.25606 C7.44643,3.24363 7.45781,3.23148 7.46966,3.21965 C7.53116,3.15805 7.60103,3.10926 7.6758,3.07347 C7.7783,3.02429 7.88928,2.99997997 8.00001,2.99997997 C8.19289,3.00005 8.38503,3.07408 8.53035,3.21965 C8.5422,3.23148 8.55358,3.24362 8.56448,3.25605 L10.8075,5.74827 C11.0846,6.05615 11.0596,6.53037 10.7517,6.80746 Z M6.14749,10.9702 C5.79629,10.7506 5.33355,10.8573 5.11394,11.2085 C4.89433,11.5597 5.00101,12.0224 5.35222,12.242 C6.12051,12.7224 7.029,13 8.00001,13 C8.97102,13 9.8795,12.7224 10.6478,12.242 C10.999,12.0224 11.1057,11.5597 10.8861,11.2085 C10.6665,10.8573 10.2037,10.7506 9.85252,10.9702 C9.31573,11.3059 8.68168,11.5 8.00001,11.5 C7.31833,11.5 6.68429,11.3059 6.14749,10.9702 Z" id="path-2"></path>
    </defs>
    <g id="Icon/System/Export_Model" stroke="none" stroke-width="1" fill="none" fill-rule="evenodd">
        <g id="Shape">
            <use fill="#FFFFFF" xlink:href="#path-2"></use>
            <use fill-opacity="1" fill="url(#linearGradient-1)" xlink:href="#path-2"></use>
        </g>
    </g>
</svg>