<svg viewBox="0 0 16 16" version="1.1" xmlns="http://www.w3.org/2000/svg" xmlns:xlink="http://www.w3.org/1999/xlink">
  <g stroke="none" stroke-width="1" fill="none" fill-rule="evenodd">
    <path d="M8.01788889,10.4552222 C9.95985402,10.4552222 11.7892691,11.2105892 13.1844001,12.5416989 C13.4921092,12.8352876 13.4943797,13.3257258 13.189402,13.6221509 C11.794727,14.9777146 9.94496603,15.75 7.98211111,15.75 C6.04014598,15.75 4.21073092,14.994633 2.81559992,13.6635233 C2.50789075,13.3699346 2.50562027,12.8794964 2.81059797,12.5830713 C4.20527298,11.2275077 6.05503397,10.4552222 8.01788889,10.4552222 Z M8.01788889,11.9552222 C6.8196315,11.9552222 5.6743018,12.315691 4.70152395,12.9714364 L4.497,13.115 L4.75106278,13.2903358 C5.62737936,13.8590989 6.63496953,14.1915142 7.69251281,14.2429669 L7.98211111,14.25 C9.1803685,14.25 10.3256982,13.8895312 11.298476,13.2337858 L11.502,13.089 L11.2489372,12.9148864 C10.3726206,12.3461233 9.36503047,12.0137081 8.30748719,11.9622553 L8.01788889,11.9552222 Z M8,0.25 C12.2828802,0.25 15.75,3.71711977 15.75,8 C15.75,9.20984598 15.457608,10.3844328 14.9092684,11.467716 C14.7222007,11.8372814 14.2709604,11.985225 13.9013951,11.7981573 C13.5318297,11.6110896 13.3838861,11.1598493 13.5709538,10.790284 C14.0151479,9.91274755 14.25,8.969308 14.25,8 C14.25,4.5455469 11.4544531,1.75 8,1.75 C4.5455469,1.75 1.75,4.5455469 1.75,8 C1.75,8.96759529 1.98470368,9.91061364 2.42848999,10.7938212 C2.61446326,11.1639385 2.46518503,11.6147389 2.09506773,11.8007122 C1.72495043,11.9866855 1.27414995,11.8374073 1.08817668,11.46729 C0.541826278,10.3799631 0.25,9.20743124 0.25,8 C0.25,3.71711977 3.71711977,0.25 8,0.25 Z M10.1802233,4.26419201 C11.3843689,5.46830676 11.3843689,7.42053574 10.1802301,8.62467453 C8.9760894,9.82881521 7.02381282,9.82881521 5.81974757,8.62466774 C4.61564116,7.4205305 4.61564116,5.468312 5.81974304,4.26421012 C7.02381805,3.06008372 8.97608417,3.06008372 10.1802233,4.26419201 Z M6.88041453,5.32485897 C6.26208551,5.943188 6.26208551,6.9456695 6.88043264,7.56403247 C7.49872052,8.18236257 8.50122171,8.18236257 9.11956991,7.56401436 C9.73792001,6.94566426 9.73792001,5.94319324 9.1195767,5.32486576 L9.00662471,5.2221667 C8.38461384,4.70867138 7.46234465,4.74290402 6.88041453,5.32485897 Z" fill="currentColor"></path>
  </g>
</svg>
