<?xml version="1.0" encoding="UTF-8"?>
<svg viewBox="0 0 16 16" version="1.1" xmlns="http://www.w3.org/2000/svg" xmlns:xlink="http://www.w3.org/1999/xlink">

  <path fill="currentColor"
    d="M13.1333772,5.1688122 C13.8682837,5.1688122 14.5703148,5.47194451 15.0665696,6.00561098 C15.5671792,6.54381006 15.811457,7.26614189 15.7367955,7.9925841 L15.1767813,13.441411 C15.041457,14.7562687 13.912868,15.75 12.5733739,15.75 L3.42663717,15.75 C2.0871088,15.75 0.958474379,14.7562432 0.823218936,13.4413059 L0.263221377,7.99264031 C0.188506126,7.26621378 0.432787287,6.54386355 0.933370597,6.00564536 C1.4297468,5.47193047 2.1317598,5.1688122 2.86663383,5.1688122 Z M13.1333772,6.6688122 L2.86663383,6.6688122 C2.54671945,6.6688122 2.24315578,6.79988626 2.03174657,7.0271982 C1.82461142,7.2499062 1.72502913,7.54437546 1.75535548,7.83922642 L2.31535246,13.2878864 C2.37109525,13.8298111 2.84831423,14.25 3.42663717,14.25 L12.5733739,14.25 C13.1516729,14.25 13.628884,13.829812 13.6846523,13.2879482 L14.2446556,7.83922642 C14.2749598,7.54437212 14.1753766,7.24990366 13.9681769,7.02714576 C13.7568428,6.79987969 13.4533006,6.6688122 13.1333772,6.6688122 Z M9.94439808,8.00670135 C10.3586116,8.00670135 10.6943981,8.34248779 10.6943981,8.75670135 C10.6943981,9.17091491 10.3586116,9.50670135 9.94439808,9.50670135 L6.05547305,9.50670135 C5.64125949,9.50670135 5.30547305,9.17091491 5.30547305,8.75670135 C5.30547305,8.34248779 5.64125949,8.00670135 6.05547305,8.00670135 L9.94439808,8.00670135 Z M12.6665912,2.89854929 C13.0808047,2.89854929 13.4165912,3.23433573 13.4165912,3.64854929 C13.4165912,4.06276285 13.0808047,4.39854929 12.6665912,4.39854929 L3.33323331,4.39854929 C2.91901975,4.39854929 2.58323331,4.06276285 2.58323331,3.64854929 C2.58323331,3.23433573 2.91901975,2.89854929 3.33323331,2.89854929 L12.6665912,2.89854929 Z M11.1110523,0.628225861 C11.5252658,0.628225861 11.8610523,0.964012299 11.8610523,1.37822586 C11.8610523,1.79243942 11.5252658,2.12822586 11.1110523,2.12822586 L4.88881109,2.12822586 C4.47459753,2.12822586 4.13881109,1.79243942 4.13881109,1.37822586 C4.13881109,0.964012299 4.47459753,0.628225861 4.88881109,0.628225861 L11.1110523,0.628225861 Z">
  </path>
</svg>