<?xml version="1.0" encoding="UTF-8"?>
<svg viewBox="0 0 16 16" version="1.1" xmlns="http://www.w3.org/2000/svg" xmlns:xlink="http://www.w3.org/1999/xlink">

  <path fill="currentColor"
    d="M10.375,0 C13.2054593,0 15.5,2.29454066 15.5,5.125 L15.5,10.375 C15.5,13.2054593 13.2054593,15.5 10.375,15.5 L5.125,15.5 C2.29454066,15.5 0,13.2054593 0,10.375 L0,5.125 C0,2.29454066 2.29454066,0 5.125,0 Z M10.375,1.5 L5.125,1.5 C3.12296778,1.5 1.5,3.12296778 1.5,5.125 L1.5,10.375 C1.5,12.3770322 3.12296778,14 5.125,14 L10.375,14 C12.3770322,14 14,12.3770322 14,10.375 L14,5.125 C14,3.12296778 12.3770322,1.5 10.375,1.5 Z M5.71088947,4.58731571 C6.22031223,4.29888655 6.8454449,4.30676415 7.34749248,4.60789521 L10.2619154,6.35663647 C10.7513785,6.65028181 11.0508875,7.17922956 11.0508875,7.75 C11.0508875,8.32083558 10.7513977,8.84979418 10.2619582,9.14342538 L7.34758432,10.8921197 C6.84552814,11.1933534 6.22035004,11.2012136 5.71088947,10.912763 C5.20145744,10.6243286 4.88651625,10.0841689 4.88651625,9.498775 L4.88651625,6.0013125 C4.88651625,5.41590692 5.20146124,4.87573171 5.71088947,4.58731571 Z M6.57593252,5.89424479 C6.53722681,5.87102887 6.48913443,5.87042284 6.44991977,5.89262572 C6.41073757,5.91480897 6.38651625,5.95635195 6.38651625,6.0013125 L6.38651625,9.498775 C6.38651625,9.54372579 6.41073796,9.58526876 6.44993553,9.60746196 C6.4891555,9.62966784 6.53720158,9.62906377 6.57582933,9.60588712 L9.49023458,7.85717397 C9.52786017,7.83460111 9.5508875,7.79393027 9.5508875,7.75 C9.5508875,7.70615551 9.5278587,7.6654855 9.49018899,7.64288618 Z">
  </path>


</svg>
