<svg viewBox="0 0 20 24" version="1.1" xmlns="http://www.w3.org/2000/svg" xmlns:xlink="http://www.w3.org/1999/xlink">
	<g id="Onboarding" stroke="none" stroke-width="1" fill="none" fill-rule="evenodd">
		<g transform="translate(-711.000000, -338.000000)" fill="currentColor">
			<g transform="translate(16.000000, 16.000000)">
				<g id="Group" transform="translate(506.000000, 308.000000)">
					<g id="Group-3">
						<g id="Group-8" transform="translate(189.000000, 14.000000)">
							<path d="M14.1360356,0.816235439 C15.1420543,1.38508462 16.6238301,3.40314483 16.0418359,7.75077788 C15.0884739,14.6853203 11.2768734,20.3774239 10.005724,20.3774239 C9.26668365,20.3774239 9.31749268,19.2939017 10.2708547,15.2541695 C11.5410803,9.97561025 13.2889107,2.47221862 6.40567378,2.47221862 C-0.900663686,2.47221862 -1.80136909,10.1309151 2.91093682,11.0627443 C2.22270551,7.49163548 4.39363648,4.1282018 6.4583304,4.1282018 C8.68191799,4.1282018 7.72947977,8.31962707 6.82785057,12.822565 C5.76917529,18.048754 4.55160635,24 8.78723124,24 C14.6644495,24 19.058968,13.3914142 19.8534364,7.74716614 C20.8622264,0.608560339 16.4141274,-1.30566231 14.1360356,0.816235439 Z" id="Path">
							</path>
						</g>
					</g>
				</g>
			</g>
		</g>
	</g>
</svg>
