<svg version="1.0" xmlns="http://www.w3.org/2000/svg" width="24" height="24" viewBox="0 0 200 200">

  <g transform="translate(0,200) scale(0.1,-0.1)" fill="#000000" stroke="none">
    <path d="M0 1000 l0 -1000 1000 0 1000 0 0 1000 0 1000 -1000 0 -1000 0 0
-1000z m1030 343 l0 -176 50 83 c94 157 151 207 214 189 42 -12 91 -67 113
-128 15 -44 21 -51 44 -51 41 0 144 -57 175 -97 76 -99 70 -238 -14 -326 -32
-34 -103 -72 -152 -81 -32 -6 -38 -13 -68 -77 -36 -76 -74 -109 -127 -109 -38
0 -125 89 -175 178 -62 111 -59 115 -60 -80 l0 -178 -34 0 c-30 0 -34 4 -40
31 -3 17 -6 97 -6 178 l0 146 -45 -79 c-84 -147 -145 -204 -209 -192 -42 8
-78 47 -111 117 -24 53 -29 58 -72 68 -87 22 -146 68 -185 144 -25 50 -28 146
-5 198 35 79 115 143 197 157 40 7 43 10 62 60 22 60 73 117 111 124 59 11
133 -55 213 -192 l44 -75 0 141 c0 78 3 156 6 173 6 27 10 31 40 31 l34 0 0
-177z" />
    <path d="M703 1352 c-14 -9 -53 -74 -53 -89 0 -7 37 -30 83 -52 45 -22 97 -49
115 -61 17 -12 32 -18 32 -13 0 5 -22 41 -48 79 -95 138 -107 150 -129 136z" />
    <path d="M1226 1316 c-42 -51 -127 -178 -122 -183 1 -2 40 19 86 47 46 27 87
50 91 50 4 0 19 4 34 10 25 10 25 10 10 47 -16 39 -42 73 -56 73 -4 0 -24 -20
-43 -44z" />
    <path d="M463 1141 c-93 -67 -97 -181 -9 -259 20 -17 41 -32 46 -32 4 0 14 -2
22 -5 10 -4 13 26 13 160 0 187 -1 188 -72 136z" />
    <path d="M1453 1087 c4 -47 4 -120 0 -165 -10 -92 -9 -94 51 -59 121 69 118
228 -6 293 -52 27 -55 22 -45 -69z" />
    <path d="M627 1153 c-10 -17 -16 -170 -9 -233 6 -57 9 -65 27 -62 26 4 268
136 272 148 3 10 -229 141 -265 151 -11 2 -22 1 -25 -4z" />
    <path d="M1218 1097 c-184 -98 -180 -82 -42 -158 135 -74 174 -92 182 -84 9 9
15 210 8 259 -4 25 -13 46 -19 46 -7 0 -64 -28 -129 -63z" />
    <path d="M1100 885 c0 -10 117 -179 139 -202 12 -13 28 -23 35 -23 12 0 73 98
64 104 -1 1 -27 13 -56 25 -30 12 -83 40 -118 62 -35 21 -64 36 -64 34z" />
    <path d="M810 844 c-30 -19 -79 -44 -107 -56 -29 -12 -53 -26 -53 -30 0 -19
42 -89 56 -95 21 -8 45 17 114 118 79 116 79 119 -10 63z" />
  </g>
</svg>
