<?xml version="1.0" encoding="UTF-8"?>
<svg width="16px" height="16px" viewBox="0 0 16 16" version="1.1" xmlns="http://www.w3.org/2000/svg" xmlns:xlink="http://www.w3.org/1999/xlink">
    <title>Icon/Channel/Watson</title>
    <g id="Icon/Channel/Watson" stroke="none" stroke-width="1" fill="none" fill-rule="evenodd">
        <g id="ibm-watson" transform="translate(0.000000, 0.500000)" fill="#000000" fill-rule="nonzero">
            <path d="M6.36613611,4.83095431 C6.39607405,4.83209782 6.42601199,4.83315405 6.45755413,4.83125284 C6.52426345,4.83328079 6.58836857,4.83387228 6.65345287,4.8388999 C6.95122812,4.85252519 7.24819086,4.89285182 7.54134104,4.94657137 C7.89899218,5.01273324 8.25260159,5.11155355 8.59498167,5.23126598 C9.04363416,5.38655202 9.47659892,5.58355891 9.89029255,5.81641405 C10.3379242,6.06804884 10.7646805,6.35851043 11.1568322,6.68798892 C11.3432933,6.84545079 11.5222959,7.01041185 11.694861,7.18735048 C11.8409048,7.33796802 11.9811569,7.49310619 12.1139505,7.65576468 C12.3411622,7.9327066 12.5450819,8.2277522 12.7214596,8.54244356 C12.8596699,8.78949434 12.9804009,9.05012816 13.0774023,9.31703596 C13.1549451,9.5382515 13.2198211,9.76409331 13.2609884,9.99618796 C13.2886971,10.1588464 13.3095724,10.3215683 13.3151767,10.48748 C13.3228018,10.6622639 13.3167392,10.8372168 13.2944264,11.0109446 C13.2805512,11.131164 13.2572175,11.2500525 13.2286754,11.366047 C13.1969249,11.4880198 13.1599244,11.6070774 13.113507,11.7248252 C13.0395476,11.9125796 12.944692,12.0888 12.8341696,12.2563171 C12.7455432,12.3894436 12.6454584,12.5123669 12.534936,12.6295021 C12.4499347,12.7181404 12.3571,12.8024271 12.2606402,12.8808201 C12.1933476,12.9365887 12.1250132,12.9879212 12.0530746,13.0334022 C11.9995541,13.0695771 11.9448707,13.1039512 11.8891139,13.1364685 C11.8489049,13.1607405 11.8061126,13.1835761 11.7633203,13.2063905 C11.4536699,13.3722388 11.1193108,13.489543 10.7785141,13.5683796 C10.7193027,13.5827993 10.6595877,13.5950035 10.5994906,13.6049672 C10.5247603,13.6178531 10.4500092,13.6307602 10.3768623,13.6406676 C10.2768986,13.655446 10.1763413,13.6657506 10.0754828,13.6715516 C9.95189763,13.6806773 9.82993749,13.6868246 9.70697733,13.6885356 C9.38867384,13.6912517 9.0706274,13.6694235 8.75558822,13.6232399 C8.36841581,13.5678726 7.98424344,13.4754108 7.61034206,13.3575996 C7.10079284,13.1957438 6.60653551,12.9803164 6.13900774,12.7215626 C5.66627156,12.4598937 5.21501486,12.1520044 4.8015504,11.7990989 C4.46200369,11.5103906 4.14539483,11.1917278 3.86272397,10.8414417 C3.64694993,10.5747241 3.45288456,10.2928813 3.28213202,9.99293479 C3.1412966,9.74442642 3.01898229,9.48679227 2.9235642,9.2168848 C2.84181299,8.99719022 2.78116626,8.76982745 2.73999898,8.5377328 C2.71229024,8.37507431 2.69141493,8.21235245 2.68418565,8.04941935 C2.67658137,7.87465653 2.68262313,7.69968247 2.70072756,7.52751797 C2.71460277,7.40727743 2.73531141,7.2869524 2.7638535,7.17093676 C2.79428465,7.04520986 2.83350949,6.92184055 2.88123024,6.80176537 C2.95518967,6.614011 3.05004525,6.43779059 3.16058855,6.27027348 C3.24921487,6.13714701 3.34927885,6.01424479 3.45980132,5.89708843 C3.5480318,5.80249301 3.64507491,5.71666426 3.7457639,5.6367081 C3.81305657,5.58093948 3.88399512,5.53104346 3.95332948,5.48414712 C4.00684975,5.44796509 4.0615331,5.41358389 4.11729025,5.38105966 C4.15749918,5.35680876 4.20029148,5.33397319 4.24308378,5.31113763 C4.5527342,5.14531047 4.88969754,5.0294427 5.23047343,4.95060615 C5.28969169,4.9361859 5.3494136,4.92398177 5.40951775,4.91401855 C5.48933108,4.89930221 5.56952941,4.88681994 5.65002132,4.87658597 C5.75210616,4.86329868 5.85256599,4.85301106 5.95142162,4.84570199 L6.20217534,4.83332304 C6.24317595,4.83275268 6.28155152,4.83074586 6.3209271,4.83315405 C6.33619816,4.82998537 6.35246924,4.83123172 6.36613611,4.83095431 L6.36613611,4.83095431 Z M6.33734401,5.41980195 C6.2937392,5.41893585 6.24853019,5.4210483 6.20332119,5.42316074 L5.95256747,5.43553969 C5.8468784,5.44293326 5.74058516,5.45776264 5.63429192,5.4725709 C5.55270737,5.48556246 5.47112283,5.49855401 5.3905383,5.51598171 C5.3320791,5.53013511 5.27099486,5.54285204 5.21513986,5.55844191 C5.16511829,5.56951113 5.1160759,5.5850165 5.06705433,5.60052187 C4.77448749,5.6905544 4.49098329,5.82046995 4.23637535,5.99742971 C4.20304152,6.02159611 4.16966602,6.04578364 4.13470717,6.07294972 C4.08647729,6.11213563 4.03824741,6.15134266 3.99262173,6.19200728 C3.93214167,6.24767028 3.87428664,6.304812 3.820015,6.3678052 C3.73440957,6.46383708 3.65926262,6.56567819 3.59032409,6.67480725 C3.50692702,6.81084889 3.43919685,6.95555157 3.38613357,7.10447915 C3.35232856,7.20487764 3.32440448,7.307214 3.30250732,7.41095309 C3.28327834,7.5100008 3.27011408,7.61016038 3.26309007,7.71085732 C3.2421731,8.00163577 3.27167353,8.29317471 3.33854953,8.5782918 C3.3837377,8.77772801 3.44680113,8.97543201 3.52413561,9.16555232 C3.61934536,9.40430118 3.73726377,9.63238218 3.87105743,9.84985869 C4.03480985,10.1187733 4.22283348,10.3740415 4.42735734,10.6112905 C4.68009841,10.9019229 4.95577886,11.1711866 5.25166124,11.4164078 C5.62514595,11.7238957 6.02898527,11.9939511 6.45372074,12.2251374 C6.88891469,12.462154 7.34921319,12.6587595 7.82157436,12.8077927 C8.16093356,12.9142179 8.50791788,12.9938571 8.85892309,13.040838 C9.13534162,13.0814474 9.4144911,13.0998618 9.6937688,13.0959095 C9.82095819,13.0926563 9.94814758,13.0894032 10.0759411,13.0787353 C10.1778722,13.070073 10.2794712,13.0577779 10.3805498,13.0418731 C10.4579051,13.0304236 10.5342604,13.014538 10.6106157,12.9986524 L10.786035,12.9561922 C10.8334524,12.9436865 10.8782655,12.9297232 10.9230787,12.9157599 C11.2130205,12.824291 11.4933163,12.7003325 11.7437159,12.524936 C11.7812789,12.4992063 11.8188628,12.4734979 11.8554259,12.4433532 C11.9036558,12.4041462 11.9518856,12.3649392 11.9975113,12.3242957 C12.0618207,12.2676934 12.1219871,12.2064258 12.1775348,12.1409774 C12.2576852,12.0488269 12.3309056,11.9507101 12.3965797,11.8474528 C12.4783726,11.7144108 12.5487278,11.5711446 12.6017911,11.422217 C12.6369583,11.3253824 12.6626878,11.227217 12.6831882,11.1261575 C12.7040176,11.0241876 12.7187875,10.9210411 12.727418,10.8172753 C12.7483558,10.5264969 12.7204595,10.2319583 12.6588128,9.94975635 C12.6136038,9.75032015 12.5505612,9.55261615 12.4732059,9.36249584 C12.3779961,9.12372585 12.2600777,8.89564485 12.1262841,8.67818946 C11.9615524,8.4048387 11.7709038,8.14811291 11.5627757,7.90501241 C11.2986051,7.59596128 11.002059,7.31555495 10.6884294,7.06056136 C10.3362367,6.77647937 9.95952275,6.52533044 9.5651419,6.30705119 C9.17011231,6.08837849 8.75649764,5.90615084 8.32929023,5.76256775 C8.04860391,5.66907085 7.76273824,5.59239044 7.47317336,5.53292354 C7.20573189,5.4818023 6.9344987,5.4440951 6.66143215,5.42863198 C6.59211863,5.42514645 6.52278426,5.42166091 6.45607494,5.41963296 C6.426137,5.41857673 6.39199066,5.41904147 6.36205271,5.41798525 C6.35521928,5.41806974 6.34678165,5.42115392 6.33734401,5.41980195 L6.33734401,5.41980195 Z" id="Shape"></path>
            <path d="M8.01532724,3.50556504 C8.06653633,3.50488906 8.12037046,3.50567066 8.16918369,3.50947307 C8.27943532,3.51247274 8.38731192,3.51992969 8.49514686,3.52740775 C8.80346393,3.55296837 9.10515591,3.6096876 9.40484785,3.68271492 C9.64523888,3.74613931 9.88152752,3.82459072 10.1123583,3.91761913 C10.3150697,4.0007862 10.5129685,4.09291005 10.7036171,4.19844795 C10.8890782,4.30109179 11.0697059,4.41265017 11.2431251,4.53766483 C11.4170241,4.66294589 11.5849391,4.7965547 11.7462993,4.93803708 C11.9392188,5.1086595 12.1198881,5.29571676 12.2855156,5.49183643 C12.451143,5.68797721 12.6041245,5.88870201 12.7422307,6.10444632 C12.8966497,6.34659622 13.0359851,6.59782965 13.1552785,6.8611674 C13.268926,7.10976027 13.3650941,7.37191506 13.4408036,7.63434446 C13.5279507,7.93213624 13.5898266,8.23913829 13.628598,8.54495737 C13.6674818,8.8543833 13.6808616,9.16655714 13.6685986,9.47823686 C13.6548948,9.81775407 13.6125873,10.1554617 13.5421384,10.4876701 C13.4712623,10.8082552 13.3746776,11.1262208 13.2519674,11.4297162 C13.1737359,11.6253041 13.0845476,11.8162002 12.9848385,12.0014714 C12.8705382,12.2137055 12.7433036,12.41851 12.6038745,12.6146939 C12.4523722,12.8268259 12.2878281,13.0317122 12.1074088,13.2220226 C11.8627593,13.4812411 11.596797,13.7170748 11.3093344,13.9235666 C10.9969965,14.1511195 10.6655332,14.3448943 10.3173822,14.5003916 C9.95918941,14.6619516 9.58693389,14.7866917 9.20299069,14.8701545 C8.80638064,14.9582436 8.40312466,15.0019712 8.00084786,14.9999318 C7.77792788,14.9983378 7.5545704,14.9849872 7.33081708,14.9598068 C7.10445956,14.9331688 6.88268544,14.8916803 6.66314051,14.8397986 C6.40420883,14.7777682 6.15040439,14.6954958 5.90400425,14.5937196 C5.6960845,14.5076584 5.48774808,14.4097676 5.28924513,14.2998781 C5.11653075,14.204261 4.94874067,14.0997702 4.78652934,13.9868133 C4.62638113,13.8749803 4.46844129,13.7527329 4.32052243,13.624444 C4.14108226,13.472897 3.97385062,13.304894 3.81668162,13.1308494 C3.64363739,12.9422078 3.48805174,12.7400465 3.34229958,12.5258866 C3.18306805,12.2926723 3.04131595,12.0459173 2.91723078,11.7915152 C2.78227044,11.5195164 2.67243548,11.2323713 2.58305915,10.9449728 C2.49066195,10.644287 2.42097341,10.3329544 2.37938946,10.0197629 C2.33518047,9.70513488 2.32151361,9.38419068 2.32853454,9.0688867 C2.33745629,8.72283091 2.37871088,8.37841185 2.4517447,8.04025132 C2.51969768,7.71927102 2.61421424,7.40466998 2.73429056,7.09978952 C2.81908349,6.8855873 2.91937664,6.67413127 3.03010745,6.46844221 C3.14563,6.25381751 3.27684028,6.04789609 3.41850905,5.84774165 C3.55624549,5.65389925 3.7064712,5.46950287 3.86820322,5.29575901 C4.11766525,5.02760488 4.39346101,4.77981474 4.69094459,4.56726023 C4.9908657,4.35022733 5.31468301,4.15805795 5.65258385,4.0026874 C5.89473328,3.89296686 6.1475287,3.79492815 6.40113663,3.72056999 C6.64627328,3.64796335 6.89598106,3.59228544 7.14854355,3.55391897 C7.33357836,3.52346179 7.52030307,3.50470926 7.70763517,3.49777011 C7.77151112,3.49248899 7.83294953,3.49168626 7.89440878,3.49088353 C7.92253419,3.48902457 7.95326382,3.48862321 7.97897253,3.49124264 C7.99222273,3.50440319 8.00247288,3.50425532 8.01532724,3.50556504 L8.01532724,3.50556504 Z M7.98438928,4.09196334 L7.89222124,4.0932058 C7.83597041,4.09690258 7.77953207,4.09468451 7.72330207,4.09838129 C7.55963298,4.10645084 7.39635972,4.1263501 7.23571151,4.14768583 C6.98849951,4.18497053 6.74451672,4.24143627 6.50636735,4.31854061 C6.29855177,4.38341389 6.09113203,4.460138 5.89196241,4.55302233 C5.58939542,4.69311987 5.29809943,4.86268607 5.02830376,5.06155191 C4.76214574,5.25487423 4.51492905,5.47368775 4.29006364,5.7149743 C4.14435315,5.87226717 4.00910114,6.03534815 3.88449513,6.21013208 C3.75749324,6.38937329 3.64092901,6.5744026 3.53740664,6.76665648 C3.43850112,6.95044595 3.35011735,7.13985889 3.27269438,7.33395437 C3.16423444,7.60470681 3.07925401,7.88847194 3.01760727,8.17933489 C2.95373132,8.48056996 2.91839746,8.79181804 2.90856398,9.09974957 C2.90050851,9.38544395 2.91555212,9.67132729 2.95354381,9.95453048 C2.99146774,10.2366107 3.05251329,10.5149951 3.13604652,10.7867927 C3.21677689,11.0462013 3.31536168,11.3038566 3.43663431,11.5508862 C3.54965682,11.7817557 3.6829713,12.0064356 3.82872346,12.2205745 C3.95521781,12.4063879 4.09489515,12.58261 4.24664633,12.7478415 C4.39033596,12.9028318 4.53906734,13.0547801 4.70002806,13.1903148 C4.96977338,13.4208649 5.26172966,13.6232869 5.57147848,13.7945172 C5.75952294,13.8985975 5.9548175,13.9892848 6.15227877,14.0695579 C6.35999018,14.1497041 6.572535,14.2209148 6.78707985,14.2758173 C6.97831185,14.3236431 7.17435643,14.3625121 7.36979683,14.3836155 C7.57827909,14.4119645 7.78876138,14.4240055 8.00386873,14.4211959 C8.36758246,14.4193792 8.73006701,14.3820734 9.08348892,14.3049479 C9.42668151,14.2279281 9.76360317,14.1184399 10.0838579,13.9706953 C10.3966542,13.8304499 10.6980129,13.6548421 10.9754337,13.4543919 C11.2323651,13.2664052 11.471998,13.0552364 11.6914026,12.8234671 C11.8445299,12.6586962 11.9871987,12.4880949 12.1166172,12.3043753 C12.24864,12.1221133 12.3700168,11.9281483 12.4757267,11.7255012 C12.5647906,11.5600543 12.6458126,11.3843831 12.7165845,11.2088175 C12.8274611,10.9336078 12.9150458,10.6512792 12.9769008,10.3663311 C13.0409643,10.0710109 13.0791315,9.76713523 13.0915692,9.46064016 C13.1024235,9.18228291 13.0899859,8.89682782 13.0548395,8.6220406 C13.019714,8.34723225 12.9640882,8.07271965 12.885587,7.8029178 C12.8133148,7.55485123 12.7227169,7.31265695 12.6145621,7.07839042 C12.5065605,6.84450019 12.3808712,6.61825702 12.2401399,6.40107625 C12.1211173,6.21913111 11.9894487,6.04179111 11.8479466,5.87642869 C11.6931735,5.69790572 11.5283585,5.52544547 11.3513351,5.36942007 C11.2066808,5.242969 11.0554926,5.12441275 10.8984117,5.0142542 C10.7466791,4.9071018 10.5893201,4.80838262 10.4270297,4.71853262 C10.2365643,4.61306205 10.0390671,4.52120765 9.83597925,4.44363978 C9.64893481,4.36913374 9.45468192,4.30802062 9.26084571,4.25880059 C8.99969601,4.18968129 8.73175453,4.145848 8.46181303,4.1183228 C8.35897817,4.10780281 8.25633081,4.10323992 8.15370429,4.09867704 C8.10751611,4.09631109 8.06132792,4.09394515 8.01532724,4.09751519 C8.00488958,4.09172708 7.99463943,4.09196334 7.98438928,4.09196334 L7.98438928,4.09196334 Z" id="Shape"></path>
            <path d="M9.9856273,4.05245668 C10.0048984,4.05330166 10.0277529,4.05273129 10.047024,4.05355515 C10.0912747,4.05507611 10.1376504,4.05784342 10.1825261,4.06320904 C10.2985388,4.07555831 10.4129144,4.10046515 10.5236978,4.13750383 C10.6475937,4.17873808 10.7664088,4.23426501 10.8778072,4.302993 C10.9566834,4.35263552 11.0310803,4.41013635 11.1004147,4.47162971 C11.1500612,4.51810357 11.1982286,4.56721798 11.2449168,4.61895183 C11.2782923,4.65938408 11.3116678,4.69981633 11.3414182,4.74162168 C11.3635852,4.77204093 11.384273,4.80503736 11.4049609,4.83805493 C11.525671,5.02716126 11.6116098,5.23773007 11.6731732,5.45146755 C11.6824233,5.48475973 11.6916734,5.5180519 11.6987985,5.55009774 C11.7086737,5.58723457 11.7164238,5.62312506 11.7248198,5.66288133 C11.7350699,5.71417157 11.7447159,5.76161715 11.7528618,5.81168216 C11.7635287,5.87716805 11.7726955,5.94523112 11.7818623,6.01331531 C11.7926958,6.10326335 11.7977792,6.19335925 11.8014042,6.28603234 C11.8057793,6.4070756 11.808071,6.52687252 11.8046335,6.64679619 C11.7990084,6.80028665 11.7876749,6.95390387 11.7720913,7.10507064 C11.7481534,7.31052732 11.7178613,7.51228722 11.6782566,7.71556808 C11.6316483,7.94538386 11.5762025,8.17326546 11.5120458,8.39869148 C11.4414197,8.64652387 11.358731,8.8907651 11.2682297,9.13392897 C11.1626031,9.41351145 11.044893,9.68954502 10.9172661,9.96321264 C10.7875142,10.2356762 10.6493038,10.5031543 10.4984057,10.7632178 C10.3466327,11.0297453 10.1821927,11.2888371 10.0107735,11.5403874 C9.84531272,11.7814599 9.67139347,12.0175894 9.48624489,12.2436846 C9.32828422,12.4369103 9.16399011,12.626418 8.99061254,12.8071168 C8.830381,12.9746339 8.66529521,13.1357925 8.49112596,13.2881634 C8.37083251,13.3954335 8.2441848,13.4989857 8.11480788,13.5974258 C7.98543096,13.6959081 7.85332483,13.7892783 7.71634364,13.8763323 C7.59675853,13.952655 7.47654841,14.025112 7.35083821,14.0874081 C7.24314912,14.1428176 7.13335582,14.1970018 7.02018748,14.2422505 C6.84068481,14.3148342 6.6557029,14.377257 6.46632509,14.412725 C6.30701023,14.4448976 6.14161194,14.4630435 5.97815118,14.4579314 C5.88814985,14.4575089 5.79839852,14.4467777 5.71012637,14.433427 C5.62335425,14.4174569 5.53595712,14.3976421 5.45089336,14.368765 C5.32751653,14.3279102 5.21097314,14.2701137 5.10399238,14.2005296 C5.02299118,14.1496196 4.95007343,14.0895205 4.87863487,14.0268019 C4.8289883,13.9803069 4.78080009,13.9311925 4.73561192,13.8768604 C4.70327883,13.840546 4.67337167,13.8020844 4.64608976,13.761732 C4.62602696,13.7325802 4.60596416,13.7034284 4.5880264,13.6755018 C4.47156633,13.4888671 4.38475255,13.2847412 4.3231683,13.0710249 C4.313939,13.0377327 4.30468886,13.0044405 4.29754292,12.9723947 C4.2870636,12.9314132 4.27656344,12.8904317 4.26966751,12.8480771 C4.25664648,12.7916748 4.24725051,12.7339204 4.23785453,12.676145 C4.22868773,12.6080608 4.21952093,12.5399766 4.21243749,12.4731387 C4.20162483,12.3831907 4.19802061,12.2904965 4.19291637,12.2004217 C4.1885413,12.0793785 4.18985382,11.9582084 4.19329137,11.8382848 C4.19891646,11.6847943 4.21024996,11.5311771 4.22731271,11.377412 C4.2512714,11.1719342 4.2830427,10.9675549 4.32475166,10.7655204 C4.37056484,10.5414953 4.42419063,10.3185475 4.48775407,10.0979446 C4.55900513,9.85395684 4.63871465,9.61495448 4.72625761,9.37700835 C4.82655077,9.11172715 4.93532321,8.85138907 5.05465832,8.59721934 C5.18498213,8.31886303 5.32627864,8.04592607 5.47820627,7.77906826 C5.63259734,7.50784661 5.79754917,7.24294821 5.97267194,6.9849991 C6.1300701,6.75313682 6.29953095,6.52484457 6.47447105,6.30673433 C6.62880079,6.11522571 6.79002321,5.9295358 6.95781155,5.75004093 C7.1210223,5.57730607 7.2890873,5.41090855 7.46771495,5.2507005 C7.58652921,5.14604983 7.70594765,5.04524382 7.83172035,4.94815571 C7.95390966,4.8524407 8.07880735,4.76181668 8.20860094,4.67753001 C8.32097761,4.60395345 8.43397928,4.53422154 8.5518352,4.47084811 C8.66250351,4.41019973 8.77740104,4.35202291 8.8935486,4.30155653 C9.04635568,4.23505387 9.20345879,4.17919784 9.36376391,4.13437741 C9.50318264,4.09751519 9.64805979,4.0708561 9.79335361,4.05835041 C9.83127084,4.05615346 9.87064643,4.05133708 9.91066785,4.05038648 L9.96212695,4.04916126 C9.97421046,4.05273129 9.97989805,4.05258342 9.9856273,4.05245668 L9.9856273,4.05245668 Z M9.96868955,4.64178739 C9.93227234,4.6413649 9.89648014,4.64480819 9.86216714,4.64563205 C9.75056131,4.6534481 9.64083052,4.67284038 9.53447477,4.7011683 C9.3857434,4.73953036 9.24313712,4.79191906 9.10238503,4.85584174 C9.00425857,4.89944266 8.90888216,4.94811346 8.81771414,4.99927695 C8.71048764,5.05865262 8.60605944,5.1230823 8.504772,5.19235469 C8.39089531,5.26852956 8.28124785,5.34719712 8.17287124,5.43355399 C8.05939039,5.52390338 7.94653455,5.61809744 7.83790794,5.71476305 C7.68769738,5.84981185 7.54236189,5.99117686 7.40546402,6.13750613 C7.25031589,6.30100959 7.10216786,6.47211787 6.95822822,6.64565547 C6.80109712,6.83778748 6.65148602,7.0361168 6.5097424,7.2401828 C6.35147666,7.46851092 6.20130915,7.70250119 6.05952739,7.94170563 C5.92140034,8.17439176 5.79383595,8.41326737 5.67473002,8.65710723 C5.55562408,8.90094709 5.4443516,9.14588543 5.3436626,9.39701323 C5.258078,9.61170131 5.17884766,9.8301073 5.10953413,10.0508159 C5.04494984,10.2533996 4.98880317,10.4609476 4.93838576,10.6683478 C4.89244758,10.8679107 4.853697,11.0647064 4.82550908,11.2677126 C4.80336292,11.4254702 4.78692518,11.5830799 4.77832088,11.7417882 C4.76980538,11.8653697 4.76699671,11.9892876 4.76990409,12.1131354 C4.77202912,12.208449 4.77563334,12.3011432 4.78496682,12.3937107 C4.79115441,12.4670126 4.80159206,12.5427861 4.81350891,12.6159613 C4.82288405,12.6737368 4.83380087,12.7288717 4.84680107,12.785274 C4.85792623,12.8301002 4.8690514,12.8749475 4.88167658,12.9171753 C4.89090589,12.9504463 4.90228106,12.9849849 4.91301038,13.0156365 C4.92248969,13.0386199 4.93046898,13.0642017 4.93994828,13.087164 C4.94732339,13.1089011 4.95617769,13.1280187 4.96503199,13.1471364 C5.02336619,13.282333 5.10186735,13.4119106 5.20009797,13.5216734 C5.21676489,13.5418895 5.23284846,13.5582399 5.2510154,13.5758577 C5.2761616,13.6010169 5.302787,13.623599 5.32941239,13.6461388 C5.37087134,13.6773608 5.41228862,13.7085828 5.45818514,13.7319676 C5.51951938,13.7678792 5.58531202,13.7959325 5.65195884,13.8175217 C5.75691874,13.8511096 5.86867039,13.8677557 5.98004705,13.8702484 C6.1070906,13.874938 6.23459249,13.8589891 6.35871933,13.8341255 C6.43267876,13.8181554 6.50236729,13.7997349 6.57355585,13.7786949 C6.65916129,13.7521626 6.74414171,13.7217856 6.8263721,13.6862964 C6.92627612,13.6441115 7.02391351,13.5966068 7.11887644,13.5439808 C7.22954475,13.4833536 7.33596299,13.4202336 7.43967286,13.3520227 C7.54885194,13.2797334 7.65584701,13.2041083 7.76051096,13.1252514 C7.88524684,13.0302151 8.00618549,12.9301601 8.12303717,12.8253261 C8.27685195,12.6889042 8.42368746,12.5449197 8.56779377,12.3958654 C8.71996269,12.2375586 8.86515234,12.0717103 9.00398774,11.9021441 C9.16044839,11.7115379 9.30995061,11.5133692 9.45459859,11.3088631 C9.61918436,11.0742335 9.77683254,10.8320625 9.92179302,10.5824556 C10.0599201,10.3497484 10.1874845,10.1108728 10.3086946,9.86825811 C10.4299256,9.62566459 10.539073,9.37950104 10.6397828,9.12835211 C10.7283258,8.90844628 10.806952,8.68621677 10.8792239,8.46024821 C10.9461624,8.24858093 11.0067674,8.03321687 11.0538098,7.81688108 C11.0982688,7.61993756 11.1363944,7.41927614 11.1652073,7.22011455 C11.1864993,7.06884216 11.201437,6.91383073 11.2106663,6.75896717 C11.2192081,6.63505098 11.2198748,6.51003631 11.2169789,6.38639474 C11.2132819,6.29234512 11.2075512,6.19838902 11.1997911,6.10459419 C11.1936036,6.03129225 11.1816867,5.95811705 11.1697907,5.88494186 C11.1605452,5.82814307 11.1494277,5.7716739 11.1364569,5.71562916 C11.1253525,5.67080301 11.1142274,5.62595574 11.1016022,5.58372791 C11.092211,5.55056543 11.0817609,5.51772071 11.0702684,5.48524559 C11.0607891,5.46228328 11.0528098,5.43670154 11.0433305,5.41373923 C10.9818296,5.25927704 10.8980783,5.10920874 10.788035,4.98554604 C10.7713681,4.96535104 10.7510553,4.946508 10.7307842,4.92766497 C10.705638,4.90248459 10.6789918,4.87992364 10.6523664,4.8573627 C10.6104053,4.82584992 10.566709,4.7967849 10.5214894,4.77030872 C10.458051,4.73315076 10.3907583,4.70771689 10.3219865,4.68488133 C10.2517354,4.66464408 10.1806302,4.65087092 10.1065249,4.64235775 C10.0794412,4.6404143 10.0523366,4.63849197 10.0273571,4.63781599 C10.0138152,4.63684426 9.9966483,4.63724563 9.98310643,4.63629503 C9.98373144,4.64013968 9.97800219,4.64028755 9.96868955,4.64178739 L9.96868955,4.64178739 Z" id="Shape"></path>
            <path d="M10.4027585,5.21935177 C10.468072,5.21935177 10.5373438,5.22034462 10.6040115,5.22277394 C10.7831183,5.22959714 10.9625376,5.24898942 11.1408944,5.27860593 C11.3048344,5.30706061 11.4677118,5.34569728 11.6243808,5.39755788 C11.8428632,5.4674799 12.0554288,5.56319492 12.2478067,5.68985729 C12.3439991,5.84489898 12.423132,5.90209704 12.5292791,5.98430876 C12.5974259,6.04968902 12.6657395,6.1213855 12.7223653,6.1967154 C12.8126166,6.3129634 12.891347,6.43918217 12.9532646,6.57203401 C12.9997793,6.67181563 13.0380365,6.77534377 13.0676412,6.88154988 C13.0876207,6.95282387 13.1050168,7.02561883 13.1158711,7.09900527 C13.126288,7.15350642 13.1315797,7.2110495 13.138059,7.26468456 C13.141684,7.30722926 13.143934,7.34740802 13.1461841,7.38756565 C13.1566217,7.6653948 13.1187462,7.94282258 13.0453909,8.21228643 C13.0332657,8.25130335 13.0250573,8.29120749 13.0128904,8.3302244 C12.9971194,8.38094427 12.9813275,8.43166415 12.962973,8.48390498 C12.9397435,8.55171456 12.9125764,8.61867916 12.8854094,8.68564376 C12.849253,8.77436682 12.8094679,8.86152449 12.7661576,8.94689019 C12.7150318,9.05018889 12.6613227,9.15500856 12.6023218,9.25657505 C12.5245082,9.39145485 12.4426111,9.51915233 12.3541932,9.64750466 C12.2556084,9.78817257 12.1542944,9.92402409 12.0476886,10.0566436 C11.9383187,10.1907273 11.8246306,10.3211288 11.7068086,10.4476366 C11.5768691,10.5875229 11.4428255,10.7202268 11.3048443,10.8520436 C11.1402221,11.0061373 10.9698377,11.1537789 10.7940659,11.2946437 C10.6030214,11.447944 10.4053518,11.595583 10.2021821,11.7336526 C9.9772204,11.8876923 9.74680032,12.0321415 9.51229684,12.1694295 C9.26316561,12.3120606 9.00876927,12.4450228 8.74966052,12.5680273 C8.51578205,12.6762268 8.27523682,12.7787651 8.03437908,12.8687131 C7.80125062,12.9541194 7.56664297,13.0308646 7.32913945,13.0964983 C7.10232048,13.158593 6.87299859,13.210874 6.64179592,13.2531997 C6.44143878,13.287527 6.23837327,13.3170802 6.03755779,13.3325433 C5.86026349,13.3469924 5.67886497,13.3543015 5.5010915,13.3498653 C5.28940086,13.3461686 5.07739771,13.3298816 4.86889462,13.2956177 C4.68403771,13.2666349 4.50145167,13.2235832 4.32371987,13.1648783 C4.10646664,13.0910694 3.89648436,12.9938545 3.70408568,12.867171 L3.62045943,12.810832 C3.54337496,12.7538804 3.47004054,12.6914998 3.39795613,12.6252323 C3.33116348,12.5622391 3.27074591,12.4923171 3.21151587,12.4185082 C3.12263955,12.3046473 3.0452634,12.1808156 2.98336665,12.0479637 C2.93774612,11.9497532 2.90039049,11.8478101 2.87169833,11.743222 C2.85171886,11.671948 2.83434361,11.5991742 2.82346844,11.5257877 C2.81561416,11.4697445 2.80775988,11.4137223 2.80128062,11.3600873 C2.7976764,11.3175426 2.79542636,11.277385 2.7931555,11.2372273 C2.78271784,10.9593771 2.8205934,10.6819493 2.89394866,10.4124854 C2.90609467,10.3734685 2.91430313,10.3335644 2.92644914,10.2945475 C2.94222021,10.2438487 2.95801211,10.1931077 2.97638738,10.140888 C2.99959606,10.0730573 3.02676313,10.0061138 3.0539302,9.93914922 C3.08851404,9.85507379 3.12705628,9.77190672 3.16559852,9.68871852 C3.21537009,9.58301163 3.27043341,9.48057903 3.32943428,9.37903366 C3.4046854,9.2456537 3.48916582,9.11645638 3.57500043,8.98960389 C3.66341841,8.86127268 3.75714896,8.73621576 3.85223371,8.61354591 C3.96640207,8.4701107 4.08469549,8.33387893 4.20948901,8.19701344 C4.34065762,8.05324023 4.47847216,7.91512839 4.62162012,7.78026971 C4.77883079,7.63400382 4.93879149,7.49249094 5.10541896,7.35668166 C5.28616652,7.20953191 5.47194294,7.06884814 5.66240639,6.93488919 C5.88982645,6.77618749 6.12336781,6.6266987 6.36247928,6.48677562 C6.5866701,6.35552923 6.81634018,6.23385223 7.04748944,6.12085739 C7.29290975,6.00270818 7.54241345,5.89174129 7.79614638,5.79427295 C8.01879552,5.70859206 8.24554888,5.63007237 8.47259391,5.564164 C8.68659709,5.49952309 8.90349614,5.44593029 9.11931184,5.40254061 C9.28829351,5.3674106 9.46137942,5.33948404 9.63065276,5.31696534 C9.78434254,5.29719283 9.94074069,5.28221558 10.0986389,5.27589936 C10.1756192,5.27230819 10.2539745,5.27112522 10.3323298,5.26992113 C10.3494343,5.27583598 10.3638303,5.27699783 10.3768722,5.27575148 L10.4027585,5.21935177 Z M10.3800082,5.8069714 C10.3186322,5.80781638 10.2572563,5.80866136 10.1972346,5.81187228 C10.0497949,5.81842087 9.89854267,5.83039845 9.75139466,5.84953723 C9.59118395,5.86992235 9.42857737,5.89812353 9.26732498,5.92871178 C9.0645303,5.97085511 8.86583985,6.02018077 8.66606606,6.07968843 C8.44295858,6.14648403 8.22137196,6.22196179 8.00522292,6.30700895 C7.80849084,6.38390205 7.61325877,6.46947731 7.42073508,6.55984783 C7.20760692,6.66228043 6.99464543,6.77100813 6.78968406,6.88778425 C6.42531637,7.09467757 6.07468748,7.32551884 5.74004348,7.57882933 C5.43849734,7.80959314 5.15043057,8.05799588 4.87978072,8.3249248 C4.76400964,8.44058611 4.65223909,8.56029337 4.54467159,8.6838297 C4.44292008,8.80081706 4.34389777,8.92259969 4.24883386,9.04526953 C4.14578827,9.17929299 4.04965136,9.31863327 3.96080876,9.46273149 C3.89284942,9.57270553 3.82626509,9.68506663 3.76755589,9.79920219 C3.7213052,9.88691103 3.68032543,9.97789416 3.63936649,10.0688773 C3.60961605,10.1373206 3.58259481,10.2105803 3.55815695,10.282319 C3.53762702,10.3415146 3.51899886,10.4013706 3.50230196,10.4617926 L3.46630142,10.5977075 C3.45673878,10.6352246 3.45109286,10.6736077 3.44155105,10.7111248 L3.42786335,10.7957072 C3.40107129,10.9900524 3.39657122,11.1873128 3.42859253,11.382334 C3.4332801,11.4146967 3.44053021,11.4455596 3.44778031,11.4764013 C3.45928048,11.5207205 3.47213484,11.5674478 3.48757257,11.6126542 C3.50996874,11.6761121 3.53357325,11.7356621 3.56626124,11.7930995 C3.60930927,11.8746869 3.66012862,11.9518067 3.71799266,12.0233563 C3.76236831,12.0771393 3.81188988,12.1279014 3.86399482,12.1771637 C3.91337055,12.2216518 3.9678922,12.263098 4.02108048,12.3021783 C4.09937331,12.3552219 4.18149953,12.4028787 4.26602162,12.4427195 C4.36648144,12.4924043 4.47056632,12.5303861 4.57585955,12.5644599 C4.70873652,12.6047231 4.8466344,12.6356494 4.98301142,12.6579357 C5.15347228,12.6857566 5.32622485,12.6994875 5.50003992,12.7030364 C5.66733407,12.707198 5.83571157,12.7011352 6.0039224,12.6888197 C6.18380007,12.6728496 6.36355273,12.6505844 6.54178455,12.619637 C6.76032945,12.5810215 6.97599932,12.5313367 7.19014833,12.4729697 C7.41287724,12.4125261 7.63264298,12.3413688 7.84869977,12.2597393 C8.06107792,12.1801 8.27070603,12.0956654 8.47745909,12.0001617 C8.70102491,11.8979826 8.92173652,11.7847342 9.13836473,11.6643036 C9.49549503,11.464804 9.84037515,11.2437574 10.1716301,10.998798 C10.3412479,10.8740415 10.5059213,10.7425158 10.6652624,10.6045307 C10.8028543,10.4857842 10.9367549,10.3627093 11.0667683,10.2354861 C11.1876471,10.1168514 11.304562,9.99413351 11.4173152,9.86753988 C11.5249103,9.7469618 11.6282951,9.62258868 11.7272781,9.49465058 C11.8306104,9.36022621 11.9280265,9.22123207 12.0192408,9.07807585 C12.0923483,8.96507413 12.1602216,8.8486787 12.2226397,8.72926845 C12.2701404,8.63767271 12.3162452,8.54366878 12.35585,8.45027746 C12.3868088,8.37792612 12.4163925,8.30316659 12.4420387,8.22754095 C12.4625757,8.16834568 12.4812108,8.10848959 12.4979146,8.04806738 L12.5339151,7.91213136 C12.5434777,7.87461428 12.5491028,7.8362311 12.5586655,7.79873515 L12.5723532,7.71413162 C12.6017286,7.51828657 12.6034995,7.31623093 12.5701031,7.11882267 C12.5654364,7.08645997 12.5581655,7.05561823 12.5509154,7.02475537 C12.5394152,6.98043621 12.5265608,6.93370886 12.5111231,6.88850248 C12.4873727,6.82265748 12.4598307,6.76222034 12.428351,6.70087486 C12.3846004,6.61802465 12.3291829,6.53878673 12.2673903,6.46647764 C12.2190563,6.41180749 12.1681805,6.35863717 12.113513,6.31089585 C12.0615539,6.26792866 12.0070115,6.22646131 11.9512815,6.18890198 C11.8690094,6.13495006 11.7829665,6.08642714 11.694486,6.04567802 C11.5914636,5.9975142 11.4847954,5.96105335 11.3769188,5.92847941 C11.2546461,5.89478586 11.1311651,5.86497922 11.0066008,5.84535458 C10.8621229,5.8235636 10.716589,5.80970685 10.570636,5.80384498 C10.5183435,5.80255639 10.4686553,5.79974683 10.4177379,5.8008453 C10.4056402,5.80522399 10.3928494,5.80730082 10.3800082,5.8069714 L10.3800082,5.8069714 Z M7.96207645,0 C7.97465997,0 7.97780585,0 7.99038937,0.0033165432 C8.01241053,0.0066330864 8.03757757,0.0132872973 8.05959873,0.0232580514 C8.10047433,0.0398830163 8.13507901,0.0664787354 8.16339193,0.0963909976 C8.19172569,0.129619803 8.21372601,0.166186276 8.22630953,0.20940696 C8.23260129,0.229348468 8.23574717,0.245952309 8.23889305,0.265893817 L8.23889305,2.12727728 C8.23889305,2.13724804 8.23889305,2.14721879 8.23574717,2.15718955 C8.22945541,2.19041835 8.22001777,2.22366828 8.20428837,2.25358054 C8.19170485,2.28017626 8.17282957,2.30343431 8.15395429,2.32337582 C8.12249549,2.35328808 8.08791165,2.37656726 8.04701521,2.39319222 C8.00611877,2.40647952 7.96207645,2.41313373 7.92118001,2.40979607 C7.89286709,2.40647952 7.86455417,2.39982531 7.83938713,2.38985456 C7.80792833,2.37654614 7.77961541,2.35994229 7.7544692,2.33668424 C7.72613545,2.3100674 7.70413512,2.28017626 7.68840572,2.24360979 C7.6758222,2.21701407 7.66638456,2.19041835 7.66323868,2.16050609 C7.66323868,2.15053533 7.6600928,2.14056458 7.6600928,2.13059383 L7.6600928,0.299143747 L7.6600928,0.269231485 C7.66321785,0.245952309 7.66638456,0.222694258 7.6758222,0.199436206 C7.6915516,0.159532065 7.71357276,0.119649049 7.74503156,0.0897367868 C7.77649036,0.0598245245 7.81107421,0.0365664731 7.85197065,0.0199415082 C7.87399181,0.0132872973 7.89915885,0.0066330864 7.92118001,0.0033165432 L7.94949293,0.0033165432 C7.95261797,0 7.95578469,0 7.96207645,0 L7.96207645,0 Z M12.4298302,1.21748822 C12.4342053,1.21619963 12.439622,1.21938943 12.4439971,1.21810083 C12.4538097,1.22000204 12.4608932,1.2203189 12.4707058,1.22222011 C12.4974146,1.22633938 12.5235816,1.2378311 12.5453736,1.25056916 C12.5851659,1.2700248 12.6183747,1.30099329 12.6455834,1.3361233 C12.6711671,1.37412623 12.6907508,1.41629069 12.6988759,1.45942688 C12.7026676,1.48467063 12.7048135,1.51278731 12.6998759,1.54060825 C12.6965633,1.56553514 12.6916258,1.59335608 12.6796048,1.62086015 C12.674688,1.62950006 12.6741255,1.63685138 12.6692088,1.64547017 L12.662667,1.65698301 L11.7660912,3.23155942 L11.7595494,3.24307226 C11.7546327,3.25171218 11.751341,3.25745803 11.7437159,3.26451361 C11.7262156,3.28880676 11.7016736,3.31282529 11.6749232,3.32788705 C11.6455385,3.34830756 11.6125915,3.36287473 11.5778384,3.37081199 C11.5445671,3.37820556 11.5074832,3.3795364 11.4709618,3.37351592 C11.4317113,3.36588998 11.393044,3.35091273 11.3576268,3.33016849 C11.3238347,3.30657245 11.2960634,3.27879376 11.2715839,3.24524808 C11.2563337,3.22099718 11.2438126,3.19830949 11.2373125,3.1714814 C11.2280624,3.14302673 11.222104,3.10884732 11.2243332,3.07944205 C11.2243748,3.04108 11.2325833,3.0075132 11.2451668,2.97265781 C11.2500836,2.9640179 11.2506461,2.95666658 11.2555628,2.94802667 L11.2621254,2.93651382 L12.1586804,1.36195853 L12.1718056,1.33893285 C12.1827016,1.32613142 12.1952642,1.31045705 12.2061811,1.29765562 C12.2247438,1.27779861 12.2471192,1.26404657 12.2694945,1.25027341 C12.2918698,1.23650025 12.3180369,1.22881094 12.3442248,1.22110051 C12.3573083,1.21725585 12.3687668,1.21628413 12.3845796,1.21402381 C12.3960381,1.21305208 12.3987464,1.21465754 12.4102049,1.21366469 C12.4227468,1.21717135 12.427101,1.21588276 12.4298302,1.2174671 L12.4298302,1.21748822 Z M3.49059345,1.21611513 C3.50205195,1.21708686 3.50476033,1.21550252 3.51786469,1.21934718 C3.52932319,1.2203189 3.54511509,1.22257922 3.55821945,1.22642388 C3.58438651,1.23413431 3.60784519,1.24342908 3.63186638,1.26007517 C3.65422088,1.27384833 3.67551286,1.29209988 3.69407563,1.31193577 C3.7033466,1.32186427 3.71261758,1.33179278 3.71920101,1.34328449 L3.73230537,1.36631018 L4.62886033,2.94088659 C4.63052703,2.94375952 4.63377707,2.9495265 4.63542293,2.95239943 C4.64033967,2.96103934 4.64361055,2.9667852 4.64581892,2.97703058 C4.65840244,3.01188597 4.66661089,3.04545276 4.66665256,3.08379369 C4.66615255,3.11480443 4.66290251,3.14737837 4.6536732,3.17583305 C4.64132136,3.21520891 4.62134814,3.25169132 4.59492233,3.2831454 C4.56879694,3.31379702 4.53500478,3.33743531 4.49796256,3.35526437 C4.47452471,3.36515063 4.4467118,3.37374829 4.4200239,3.37786756 C4.38350253,3.38388804 4.34914785,3.38097286 4.31314732,3.37518476 C4.27839277,3.36724104 4.24544562,3.35266666 4.21606254,3.33223869 C4.19116926,3.31341367 4.168131,3.29219028 4.14726986,3.26886525 C4.14235312,3.26022534 4.13635303,3.25606382 4.13143629,3.24742391 L4.12489452,3.23591107 L3.22831872,1.66135577 L3.22177696,1.64984293 C3.21686022,1.64120302 3.21356851,1.63543604 3.21136014,1.62521179 C3.19935996,1.59770772 3.19115151,1.56416205 3.19165151,1.53315131 C3.1912175,1.50640809 3.19300859,1.47967539 3.19700576,1.45323741 C3.20783925,1.40851689 3.22742288,1.36635243 3.25465245,1.33122242 C3.28188202,1.29609241 3.31944508,1.26641252 3.35923733,1.24695687 C3.38267518,1.23709174 3.41046726,1.22849408 3.43715516,1.22435368 C3.44698863,1.22245247 3.45407207,1.22215673 3.46388472,1.22025553 C3.46825978,1.221523 3.47367653,1.21835433 3.4780516,1.21962179 C3.47913495,1.2151434 3.48351001,1.21645312 3.49059345,1.21611513 L3.49059345,1.21611513 Z M0.306358711,4.5076892 C0.318025551,4.50716109 0.320858926,4.50882992 0.330942409,4.51104799 C0.345442625,4.51216759 0.358380316,4.51605449 0.371297175,4.51992027 C0.384214033,4.5238283 0.397151725,4.5277152 0.408526894,4.53434829 L0.431235564,4.54765671 L1.98411277,5.45672754 L1.9954671,5.46338175 C2.00398806,5.46836713 2.00967565,5.47168367 2.01661325,5.47943636 C2.044697,5.50324364 2.06836402,5.5281494 2.08732263,5.56133596 C2.10911462,5.59619135 2.12051062,5.63601099 2.12748989,5.67692911 C2.13163579,5.71619952 2.12978159,5.75931458 2.11942727,5.79744426 C2.11253134,5.82285701 2.10121867,5.84938936 2.08578094,5.86981673 C2.07013988,5.89750826 2.04876735,5.92143488 2.02313418,5.93995 C1.99448792,5.96369391 1.96329996,5.97858667 1.92927862,5.99181059 C1.89525854,6.00255768 1.85953259,6.00664398 1.82400623,6.00385155 C1.79316878,6.00016181 1.76275578,5.99345523 1.73319238,5.98382554 C1.72467142,5.97884016 1.71742131,5.97829093 1.70890035,5.97330555 L1.69754602,5.96665134 L0.144668813,5.05758051 C0.141835437,5.05589055 0.136147853,5.05259513 0.133314478,5.0509263 C0.124793518,5.04594092 0.119105934,5.04262438 0.112168331,5.0348717 C0.0882096419,5.01712713 0.0645217905,4.9922425 0.0496674035,4.96513979 C0.0304171179,4.93913556 0.0199794631,4.91091325 0.011125165,4.87994477 C0.00352088556,4.85341242 0.000333338278,4.82576048 0,4.79977737 C0.00152085589,4.76384463 0.00747927762,4.72681342 0.0219378254,4.69476758 C0.0335629979,4.66105292 0.0552716533,4.62957744 0.0782511608,4.60251698 C0.0973735375,4.58304245 0.11860589,4.56582228 0.141543766,4.5511845 C0.175877609,4.53075713 0.214315679,4.51643473 0.255295454,4.51096349 C0.264108085,4.50874542 0.271358192,4.50931578 0.283025032,4.50876655 C0.287441764,4.50766807 0.290275139,4.50933691 0.297525247,4.50990727 C0.296275228,4.50547113 0.300671127,4.50437266 0.306358711,4.5076892 L0.306358711,4.5076892 Z M15.7178373,4.50589362 C15.7222541,4.50699209 15.7266708,4.50809056 15.7295042,4.50642173 C15.7383376,4.5086398 15.7455877,4.50806944 15.7572338,4.50859755 C15.7865467,4.51354068 15.8190055,4.52401842 15.8457767,4.53779158 C15.8785481,4.55545165 15.9056318,4.57642825 15.9301738,4.60623489 C15.9515908,4.63052804 15.9673202,4.65817999 15.9801954,4.68745851 C15.9899455,4.71122355 15.9984248,4.73940361 15.9980707,4.76538672 C16.0021541,4.7924683 15.9989665,4.82009912 15.995779,4.84777219 C15.9913206,4.87981802 15.9808829,4.90804032 15.9660494,4.93514303 C15.9486741,4.97109689 15.920882,5.00210763 15.8899649,5.02756263 C15.8814439,5.032548 15.8773397,5.03863185 15.8688187,5.04361723 L15.8574644,5.05027144 L14.3045872,5.95934227 L14.2932329,5.96599648 C14.2847119,5.97098186 14.2790452,5.9742984 14.2689408,5.97651647 C14.2418154,5.98872642 14.2087316,5.99704947 14.1781478,5.99654248 C14.1426215,5.99933491 14.1068955,5.99524861 14.0728754,5.98450152 C14.0386704,5.97329508 14.0068319,5.95570635 13.978999,5.93264093 C13.9577349,5.91554261 13.9387866,5.89567639 13.922644,5.87355576 C13.899352,5.8393341 13.8817476,5.80173253 13.8742267,5.76195514 C13.8667265,5.72215662 13.8664349,5.68178774 13.8762683,5.63922192 C13.8822893,5.60990114 13.8939769,5.57728494 13.9104147,5.55292842 C13.9293733,5.51974186 13.9530403,5.4948361 13.9811241,5.47102881 C13.9896242,5.46604344 13.9937284,5.45995959 14.0022494,5.45497421 L14.0136037,5.44832 L15.5665018,4.53924917 L15.5892104,4.52594075 C15.6106691,4.51706847 15.6292527,4.50988614 15.6522739,4.50376005 C15.6649894,4.50016006 15.6781915,4.49864812 15.6913786,4.49928166 C15.6957745,4.50038013 15.6986287,4.49873242 15.7058788,4.49816206 C15.7090039,4.50369667 15.7134206,4.50479514 15.7178373,4.50589362 L15.7178373,4.50589362 Z" id="Shape"></path>
        </g>
    </g>
</svg>