<svg viewBox="0 0 16 16" version="1.1" xmlns="http://www.w3.org/2000/svg" xmlns:xlink="http://www.w3.org/1999/xlink">
  <path
    d="M0.25,6.0556046 C0.25,5.34665136 1.14275846,5.03348195 1.58564539,5.58707553 L3.361,7.807 L3.36111111,6.0556046 C3.36111111,5.67590883 3.64326499,5.36211364 4.00934055,5.31245121 L4.11111111,5.3056046 C4.52532467,5.3056046 4.86111111,5.64139104 4.86111111,6.0556046 L4.86111111,9.94438763 C4.86111111,10.6533409 3.96835265,10.9665103 3.52546573,10.4129167 L1.75,8.193 L1.75,9.94438763 C1.75,10.3240834 1.46784612,10.6378786 1.10177056,10.687541 L1,10.6943876 C0.585786438,10.6943876 0.25,10.3586012 0.25,9.94438763 L0.25,6.0556046 Z M9.16666667,5.30873896 C9.58088023,5.30873896 9.91666667,5.64452539 9.91666667,6.05873896 C9.91666667,6.47295252 9.58088023,6.80873896 9.16666667,6.80873896 L7.194,6.808 L7.194,7.249 L8.77777778,7.24999611 C9.19199134,7.24999611 9.52777778,7.58578255 9.52777778,7.99999611 C9.52777778,8.41420967 9.19199134,8.74999611 8.77777778,8.74999611 L7.194,8.749 L7.194,9.194 L9.16666667,9.19438763 C9.54636243,9.19438763 9.86015763,9.47654151 9.90982005,9.84261707 L9.91666667,9.94438763 C9.91666667,10.3586012 9.58088023,10.6943876 9.16666667,10.6943876 L6.44444444,10.6943876 C6.03023088,10.6943876 5.69444444,10.3586012 5.69444444,9.94438763 L5.69444444,6.05873896 C5.69444444,5.64452539 6.03023088,5.30873896 6.44444444,5.30873896 L9.16666667,5.30873896 Z M14.9726831,5.30601272 L15.0746298,5.30932691 C15.4867876,5.35054381 15.7874946,5.71807661 15.7462777,6.1302344 L15.3573888,10.0190174 C15.3190477,10.4024179 14.9964239,10.6943876 14.6111111,10.6943876 L14.4446667,10.6943876 C14.1803032,10.6943876 13.9354649,10.555208 13.8002286,10.3280535 L13.055,9.076 L12.3108825,10.3280535 C12.1949657,10.5227574 11.9985249,10.6528266 11.778285,10.6860157 L11.6664444,10.6943876 L11.5,10.6943876 C11.1146872,10.6943876 10.7920634,10.4024179 10.7537223,10.0190174 L10.3648334,6.1302344 C10.3236165,5.71807661 10.6243235,5.35054381 11.0364813,5.30932691 C11.4486391,5.26811001 11.8161719,5.56881701 11.8573888,5.9809748 L12.043,7.844 L12.4111175,7.22745188 C12.6825268,6.77156948 13.3167443,6.74117732 13.6365281,7.1362754 L13.6999937,7.22745188 L14.067,7.844 L14.2537223,5.9809748 C14.2880697,5.63750997 14.5490254,5.37144153 14.8735738,5.31614511 L14.9726831,5.30601272 Z M2.51985269,2.52002355 C5.54663314,-0.506674516 10.4532424,-0.506674516 13.4800229,2.52002355 C13.7019369,2.74193153 13.9088075,2.98278746 14.1259398,3.26505167 C14.3784945,3.59336395 14.317081,4.06424975 13.9887687,4.31680453 C13.6604564,4.56935932 13.1895706,4.50794573 12.9370158,4.17963345 C12.7567764,3.94532859 12.59099,3.75230638 12.4193771,3.58069816 C9.97837981,1.13976728 6.02149574,1.13976728 3.58049842,3.58069816 C3.41081956,3.7503724 3.24699566,3.94130222 3.06189914,4.18087951 C2.80865618,4.50866126 2.33764258,4.56908688 2.00986083,4.31584392 C1.68207908,4.06260096 1.62165345,3.59158736 1.87489641,3.26380561 C2.09612035,2.97746728 2.29990283,2.73996742 2.51985269,2.52002355 Z M12.9379764,11.8191205 C13.1912194,11.4913387 13.662233,11.4309131 13.9900147,11.6841561 C14.3177965,11.937399 14.3782221,12.4084126 14.1249791,12.7361944 C13.9037552,13.0225327 13.6999727,13.2600326 13.4800229,13.4799765 C10.4532424,16.5066745 5.54663314,16.5066745 2.51985269,13.4799765 C2.29793866,13.2580685 2.09106802,13.0172125 1.8739358,12.7349483 C1.62138102,12.406636 1.6827946,11.9357503 2.01110689,11.6831955 C2.33941917,11.4306407 2.81030497,11.4920543 3.06285975,11.8203666 C3.24309917,12.0546714 3.40888553,12.2476936 3.58049842,12.4193018 C6.02149574,14.8602327 9.97837981,14.8602327 12.4193771,12.4193018 C12.589056,12.2496276 12.7528799,12.0586978 12.9379764,11.8191205 Z"
    fill="currentColor"></path>
</svg>
