<?xml version="1.0" encoding="UTF-8"?>
<svg viewBox="0 0 16 16" version="1.1" xmlns="http://www.w3.org/2000/svg" xmlns:xlink="http://www.w3.org/1999/xlink">
  <mask>
    <polygon points="0 0 16 0 16 16 0 16"></polygon>	
  </mask>
  <path d="M10,8.00348 C9.99964,8.59796 9.89092,9.16704 9.69276,9.69244 C9.16752,9.89056 8.59816,9.99956 8.00344,10 L7.99656,10 C7.40212,9.99956 6.83292,9.89088 6.30768,9.6928 C6.10952,9.16748 6.0004,8.59812 6,8.00348 L6,7.99656 C6.0004,7.40208 6.10928,6.83296 6.30712,6.30764 C6.83264,6.10944 7.40188,6.00036 7.99656,6 L8.00344,6 C8.59816,6.00036 9.16752,6.10944 9.69276,6.30764 C9.89092,6.83296 9.99964,7.40208 10,7.99656 L10,8.00348 Z M15.8888,6.66668 L11.21896,6.66668 L14.52096,3.36464 C14.26144,3.00012 13.97208,2.65832 13.65648,2.34276 L13.65632,2.3426 C13.341,2.02736 12.99948,1.73832 12.63536,1.47904 L9.33332,4.78104 L9.33332,0.11124 C8.901,0.03868 8.45716,0.00024 8.00424,0 L7.99572,0 C7.54284,0.00024 7.099,0.03868 6.66668,0.11124 L6.66668,4.78108 L3.36464,1.47904 C3.00032,1.73844 2.65868,2.02764 2.34328,2.34304 L2.34212,2.34416 C2.02708,2.65932 1.73824,3.00068 1.47908,3.36464 L4.78112,6.66668 L0.1112,6.66668 C0.1112,6.66668 0.00016,7.54376 0,7.99708 L0,8.0028 C0.00016,8.4562 0.03864,8.9006 0.11124,9.33332 L4.78104,9.33332 L1.47908,12.63532 C1.998,13.364 2.63596,14.00204 3.36468,14.52096 L6.66668,11.219 L6.66668,15.88876 C7.09852,15.9612 7.54192,15.99968 7.99432,16 L8.00576,16 C8.45812,15.99968 8.90148,15.9612 9.33332,15.8888 L9.33332,11.21892 L12.6354,14.52092 C12.9996,14.2616 13.34112,13.97252 13.65648,13.65724 L13.65728,13.65648 C13.97252,13.34112 14.2616,12.99956 14.52092,12.6354 L11.21892,9.33332 L15.88876,9.33332 C15.9612,8.90148 15.99968,8.45808 16,8.00568 L16,7.99424 C15.99968,7.54188 15.9612,7.09852 15.8888,6.66668 L15.8888,6.66668 Z" fill="currentColor"></path>
</svg>
