<?xml version="1.0" encoding="UTF-8"?>
<svg width="64px" height="43px" viewBox="0 0 64 43" version="1.1" xmlns="http://www.w3.org/2000/svg" xmlns:xlink="http://www.w3.org/1999/xlink">
    <!-- Generator: Sketch 52.2 (67145) - http://www.bohemiancoding.com/sketch -->
    <title>Icon/Large/Visuals-Templates/2</title>
    <desc>Created with Sketch.</desc>
    <g id="Icon/Large/Visuals-Templates/2" stroke="none" stroke-width="1" fill="none" fill-rule="evenodd">
        <g id="Group">
            <path d="M4,0 L60,0 C62.209139,-4.05812251e-16 64,1.790861 64,4 L64,39 C64,41.209139 62.209139,43 60,43 L4,43 C1.790861,43 2.705415e-16,41.209139 0,39 L0,4 C-2.705415e-16,1.790861 1.790861,4.05812251e-16 4,0 Z M4,1 C2.34314575,1 1,2.34314575 1,4 L1,39 C1,40.6568542 2.34314575,42 4,42 L60,42 C61.6568542,42 63,40.6568542 63,39 L63,4 C63,2.34314575 61.6568542,1 60,1 L4,1 Z" id="Combined-Shape" fill="#116FFF" fill-rule="nonzero"></path>
            <path d="M5,3 L59,3 C60.1045695,3 61,3.8954305 61,5 L61,38 C61,39.1045695 60.1045695,40 59,40 L5,40 C3.8954305,40 3,39.1045695 3,38 L3,5 C3,3.8954305 3.8954305,3 5,3 Z M5,4 C4.44771525,4 4,4.44771525 4,5 L4,38 C4,38.5522847 4.44771525,39 5,39 L59,39 C59.5522847,39 60,38.5522847 60,38 L60,5 C60,4.44771525 59.5522847,4 59,4 L5,4 Z" id="Combined-Shape" fill="#116FFF" fill-rule="nonzero"></path>
            <rect id="Rectangle-Copy" fill="#D7E9FF" fill-rule="nonzero" x="4" y="4" width="56" height="35" rx="1"></rect>
            <g id="Group-3" transform="translate(9.000000, 18.000000)" fill-rule="nonzero">
                <g id="Group-2" transform="translate(1.000000, 1.000000)">
                    <rect id="Rectangle-Copy-5" fill="#94C1FF" x="0" y="0" width="20" height="14" rx="2"></rect>
                    <path d="M5,1.875 C5.83008252,1.875 6.5,2.54491748 6.5,3.375 C6.5,4.20508252 5.83008252,4.875 5,4.875 C4.16991748,4.875 3.5,4.20508252 3.5,3.375 C3.5,2.54491748 4.16991748,1.875 5,1.875 Z" id="Shape" fill="#FFFFFF"></path>
                    <path d="M5,5.75 C3.89697424,5.75 3,4.85352588 3,3.75 C3,2.64647412 3.89697424,1.75 5,1.75 C6.10302576,1.75 7,2.64647412 7,3.75 C7,4.85352588 6.10315079,5.75 5,5.75 Z M5,2.75 C4.44873718,2.75 4,3.19923731 4,3.75 C4,4.30076269 4.44873718,4.75 5,4.75 C5.55126282,4.75 6,4.30076269 6,3.75 C6,3.19923731 5.55138785,2.75 5,2.75 Z" id="Shape" fill="#116FFF"></path>
                    <path d="M14.6345029,4 L19.0124674,12.393775 C19.1401694,12.6386153 19.0452101,12.9406206 18.8003697,13.0683227 C18.7289822,13.1055564 18.6496588,13.125 18.5691447,13.125 L9,13.125 L14.6345029,4 Z" id="Shape" fill="#D7E9FF"></path>
                    <path d="M7.45687273,6.625 L11.6845183,12.3272142 C11.8489808,12.54904 11.8024787,12.8621885 11.580653,13.0266511 C11.4945065,13.0905204 11.3901075,13.125 11.2828671,13.125 L3,13.125 L7.45687273,6.625 Z" id="Shape-Copy" fill="#D7E9FF"></path>
                    <path d="M20.6666667,0 C19.5620972,2.02906125e-16 18.6666667,0.8954305 18.6666667,2 L18.6666667,11 C18.6666667,12.1045695 19.5620972,13 20.6666667,13 L20,13 C18.8954305,13 18,12.1045695 18,11 L18,2 C18,0.8954305 18.8954305,2.02906125e-16 20,0 L20.6666667,0 Z" id="Combined-Shape-Copy" fill="#5C9EFF" transform="translate(19.000000, 6.500000) scale(-1, 1) translate(-19.000000, -6.500000) "></path>
                    <path d="M8.78344558,12.9991571 C8.68688454,12.9991571 8.5893886,12.9703761 8.50177582,12.9092719 C8.25149173,12.7374718 8.17483054,12.374389 8.33082404,12.0977966 L13.6722658,3.65173994 C13.7697617,3.47993979 13.9408471,3.375 14.1250209,3.375 C14.3090612,3.375 14.4801465,3.47993979 14.577776,3.65173994 L19.9186835,12.0954351 C20.0750777,12.3720274 19.9990843,12.736291 19.7490673,12.9092719 C19.4993174,13.0834336 19.1695675,12.9991571 19.0131733,12.7224171 L14.1250209,5.07883247 L9.23726913,12.7202032 C9.13590007,12.8999735 8.96174295,12.9991571 8.78344558,12.9991571 Z" id="Shape" fill="#116FFF"></path>
                    <path d="M3.33473826,13.375 C3.2186585,13.375 3.1014077,13.3359902 2.9992341,13.253803 C2.73457811,13.0415833 2.67046344,12.6274798 2.85636671,12.325571 L6.96541437,6.65890431 C7.07519976,6.48052638 7.2523202,6.42968034 7.44554249,6.375 C7.63642269,6.375 7.81529969,6.48186005 7.92449956,6.66157164 L10.270795,9.82276819 C10.4561127,10.1248437 10.3902415,10.5391139 10.125,10.75 C9.85975849,10.9610528 9.49512461,10.8867008 9.31053877,10.5832917 L7.44276126,8.20579103 L3.81442723,13.0912624 C3.70054318,13.2759752 3.51873857,13.375 3.33473826,13.375 Z" id="Shape" fill="#116FFF"></path>
                    <path d="M2.66666667,0 C1.56209717,2.02906125e-16 0.666666667,0.8954305 0.666666667,2 L0.666666667,11 C0.666666667,12.1045695 1.56209717,13 2.66666667,13 L2,13 C0.8954305,13 1.3527075e-16,12.1045695 0,11 L-2.22044605e-16,2 C-3.57315355e-16,0.8954305 0.8954305,2.02906125e-16 2,0 L2.66666667,0 Z" id="Combined-Shape" fill="#FFFFFF"></path>
                </g>
                <path d="M3,0 L19,0 C20.6568542,-3.04359188e-16 22,1.34314575 22,3 L22,12 C22,13.6568542 20.6568542,15 19,15 L3,15 C1.34314575,15 2.02906125e-16,13.6568542 0,12 L0,3 C-2.02906125e-16,1.34314575 1.34314575,3.04359188e-16 3,0 Z M3,1 C1.8954305,1 1,1.8954305 1,3 L1,12 C1,13.1045695 1.8954305,14 3,14 L19,14 C20.1045695,14 21,13.1045695 21,12 L21,3 C21,1.8954305 20.1045695,1 19,1 L3,1 Z" id="Combined-Shape" fill="#116FFF"></path>
            </g>
            <rect id="Rectangle-Copy-5" fill="#116FFF" fill-rule="nonzero" x="35" y="19" width="7" height="1" rx="0.5"></rect>
            <rect id="Rectangle-Copy-7" fill="#94C1FF" fill-rule="nonzero" x="35" y="27" width="12" height="1" rx="0.5"></rect>
            <rect id="Rectangle-Copy-6" fill="#116FFF" fill-rule="nonzero" x="35" y="23" width="5" height="1" rx="0.5"></rect>
            <rect id="Rectangle-Copy-12" fill="#116FFF" fill-rule="nonzero" x="54" y="23" width="1" height="1" rx="0.5"></rect>
            <rect id="Rectangle-Copy-9" fill="#116FFF" fill-rule="nonzero" x="44" y="19" width="5" height="1" rx="0.5"></rect>
            <rect id="Rectangle-Copy-13" fill="#94C1FF" fill-rule="nonzero" x="49" y="27" width="6" height="1" rx="0.5"></rect>
            <rect id="Rectangle-Copy-14" fill="#94C1FF" fill-rule="nonzero" x="35" y="31" width="5" height="1" rx="0.5"></rect>
            <rect id="Rectangle-Copy-16" fill="#94C1FF" fill-rule="nonzero" x="53" y="31" width="2" height="1" rx="0.5"></rect>
            <rect id="Rectangle-Copy-15" fill="#94C1FF" fill-rule="nonzero" x="42" y="31" width="9" height="1" rx="0.5"></rect>
            <rect id="Rectangle-Copy-11" fill="#116FFF" fill-rule="nonzero" x="42" y="23" width="10" height="1" rx="0.5"></rect>
            <rect id="Rectangle-Copy-10" fill="#116FFF" fill-rule="nonzero" x="51" y="19" width="4" height="1" rx="0.5"></rect>
            <rect id="Rectangle" fill="#5C9EFF" fill-rule="nonzero" x="9" y="10" width="16" height="1" rx="0.5"></rect>
            <rect id="Rectangle-Copy-4" fill="#5C9EFF" fill-rule="nonzero" x="27" y="10" width="8" height="1" rx="0.5"></rect>
            <path d="M55,10.5 C55,11.1997583 54.7168042,11.8167875 54.2677336,12.2660665 C53.8167875,12.7168042 53.1997583,13 52.5002084,13 C51.1167375,13 50,11.8834709 50,10.5 C50,9.11652913 51.1167375,8 52.5002084,8 C53.8836793,8 55,9.11673752 55,10.5 Z" id="Shape" fill="#5C9EFF"></path>
            <path d="M6,4 C5.44771525,4 5,4.44771525 5,5 L5,38 C5,38.5522847 5.44771525,39 6,39 L5,39 C4.44771525,39 4,38.5522847 4,38 L4,5 C4,4.44771525 4.44771525,4 5,4 L6,4 Z" id="Combined-Shape" fill="#FFFFFF" fill-rule="nonzero"></path>
        </g>
    </g>
</svg>