<?xml version="1.0" encoding="UTF-8"?>
<svg width="64px" height="43px" viewBox="0 0 64 43" version="1.1" xmlns="http://www.w3.org/2000/svg" xmlns:xlink="http://www.w3.org/1999/xlink">
    <!-- Generator: Sketch 52.2 (67145) - http://www.bohemiancoding.com/sketch -->
    <title>Icon/Large/Visuals-Templates/5_Spot</title>
    <desc>Created with Sketch.</desc>
    <g id="Icon/Large/Visuals-Templates/5_Spot" stroke="none" stroke-width="1" fill="none" fill-rule="evenodd">
        <g id="Group-5" transform="translate(11.000000, 0.000000)" fill-rule="nonzero">
            <circle id="Oval" fill="#FFFFFF" cx="21.5" cy="21.5" r="21.5"></circle>
            <path d="M21.5,43 C9.62587788,43 0,33.3741221 0,21.5 C0,9.62587788 9.62587788,0 21.5,0 C33.3741221,0 43,9.62587788 43,21.5 C43,33.3741221 33.3741221,43 21.5,43 Z M21.5,42 C32.8218374,42 42,32.8218374 42,21.5 C42,10.1781626 32.8218374,1 21.5,1 C10.1781626,1 1,10.1781626 1,21.5 C1,32.8218374 10.1781626,42 21.5,42 Z" id="Combined-Shape" fill="#116FFF"></path>
            <g id="Group-3" transform="translate(24.000000, 8.000000)">
                <circle id="Oval" fill="#FFFFFF" cx="14" cy="14" r="14"></circle>
                <path d="M14,28 C6.2680135,28 0,21.7319865 0,14 C0,6.2680135 6.2680135,0 14,0 C21.7319865,0 28,6.2680135 28,14 C28,21.7319865 21.7319865,28 14,28 Z M14,27 C21.1797017,27 27,21.1797017 27,14 C27,6.82029825 21.1797017,1 14,1 C6.82029825,1 1,6.82029825 1,14 C1,21.1797017 6.82029825,27 14,27 Z" id="Combined-Shape" fill="#116FFF"></path>
                <path d="M14,26 C7.372583,26 2,20.627417 2,14 C2,7.372583 7.372583,2 14,2 C20.627417,2 26,7.372583 26,14 C26,20.627417 20.627417,26 14,26 Z M14,25 C20.0751322,25 25,20.0751322 25,14 C25,7.92486775 20.0751322,3 14,3 C7.92486775,3 3,7.92486775 3,14 C3,20.0751322 7.92486775,25 14,25 Z" id="Combined-Shape" fill="#116FFF"></path>
                <circle id="Oval-7" fill="#D7E9FF" cx="14" cy="14" r="11.3953488"></circle>
                <g id="Group-2" transform="translate(8.813953, 13.023256)">
                    <path d="M2.10212336,0.469220246 C2.52513811,0.469220246 2.86653185,0.82846464 2.86653185,1.27359781 C2.86653185,1.71873098 2.52513811,2.07797538 2.10212336,2.07797538 C1.6791086,2.07797538 1.33771486,1.71873098 1.33771486,1.27359781 C1.33771486,0.82846464 1.6791086,0.469220246 2.10212336,0.469220246 Z" id="Shape" fill="#FFFFFF"></path>
                    <polygon id="Shape" fill="#D7E9FF" points="6.06572295 7.37957397 5.54160938 8.5129959 2.75328615 8.5129959 4.71057178 4.75923393"></polygon>
                    <polygon id="Shape" fill="#D7E9FF" points="8.45449949 3.1504788 11.1617796 8.58002736 5.74721941 8.58002736 6.25611226 7.55538413"></polygon>
                    <path d="M1.50475226,2.53160691 C1.50475226,3.01469717 1.90209663,3.40457481 2.39443879,3.40457481 C2.88678095,3.40457481 3.28412533,3.01469717 3.28412533,2.53160691 C3.28412533,2.04851665 2.88678095,1.65863901 2.39443879,1.65863901 C1.90209663,1.65863901 1.50475226,2.04858941 1.50475226,2.53160691 Z M0.318503539,0.53625171 L12.1809907,0.53625171 L12.1809907,8.58002736 L11.5878701,8.58002736 L8.32568237,3.90341361 L5.95318494,7.33293036 L4.8991152,5.46228486 L2.60075831,8.58002736 L0.318503539,8.58002736 L0.318503539,0.53625171 Z" id="Shape" fill="#94C1FF"></path>
                    <rect id="Rectangle-path" fill="#5C9EFF" x="11.3953488" y="0.651162791" width="1" height="7.81395349"></rect>
                    <rect id="Rectangle-path" fill="#D7E9FF" x="0.325581395" y="0.651162791" width="1" height="7.81395349"></rect>
                    <path d="M5.70056276,8.57957535 C5.65135471,8.57957535 5.60167023,8.56414149 5.55702226,8.53137426 C5.42947607,8.43924616 5.39040909,8.24454239 5.46990426,8.09621924 L8.19193323,3.56700692 C8.24161769,3.47487879 8.32880378,3.41860465 8.42265979,3.41860465 C8.51644777,3.41860465 8.60363381,3.47487879 8.65338635,3.56700692 L11.3751431,8.09495289 C11.4548424,8.24327598 11.4161158,8.43861296 11.2887057,8.53137426 C11.1614317,8.62476877 10.9933893,8.57957535 10.9136899,8.43117305 L8.42265979,4.33228773 L5.93183381,8.42998585 C5.88017557,8.52638798 5.79142411,8.57957535 5.70056276,8.57957535 Z" id="Shape" fill="#116FFF"></path>
                    <path d="M2.92387066,8.78112175 C2.86471576,8.78112175 2.80496409,8.76020268 2.75289584,8.71612965 C2.61802565,8.60232648 2.58535245,8.38026277 2.68008981,8.21836366 L4.77408376,5.17960395 C4.83003102,5.08394849 4.9202926,5.05668219 5.01875977,5.02735978 C5.1160334,5.02735978 5.20719014,5.08466364 5.26283901,5.18103429 L6.45852445,6.87623137 C6.5529634,7.03821988 6.51939506,7.26037298 6.38422649,7.37346101 C6.24905792,7.48663844 6.06323843,7.44676705 5.96917244,7.2840634 L5.01734244,6.00912459 L3.16832288,8.62896698 C3.11028692,8.72801953 3.01763826,8.78112175 2.92387066,8.78112175 Z" id="Shape" fill="#116FFF"></path>
                    <path d="M12.0775211,8.84815321 L0.29457189,8.84815321 C0.131780222,8.84815321 0,8.72420666 0,8.57109213 L0,0.813312784 C0,0.660198262 0.131780222,0.53625171 0.29457189,0.53625171 L12.0775211,0.53625171 C12.2403128,0.53625171 12.372093,0.660198262 12.372093,0.813312784 L12.372093,8.57109213 C12.372093,8.72420666 12.2403128,8.84815321 12.0775211,8.84815321 Z M0.589143779,8.29403109 L11.7829493,8.29403109 L11.7829493,1.09037386 L0.589143779,1.09037386 L0.589143779,8.29403109 Z" id="Shape" fill="#116FFF"></path>
                    <path d="M2.27906977,3.54309166 C1.74038277,3.54309166 1.30232558,3.10527871 1.30232558,2.56634747 C1.30232558,2.02741623 1.74038277,1.58960328 2.27906977,1.58960328 C2.81775677,1.58960328 3.25581395,2.02741623 3.25581395,2.56634747 C3.25581395,3.10527871 2.81781783,3.54309166 2.27906977,3.54309166 Z M2.27906977,2.07797538 C2.00984839,2.07797538 1.79069767,2.29737034 1.79069767,2.56634747 C1.79069767,2.8353246 2.00984839,3.05471956 2.27906977,3.05471956 C2.54829114,3.05471956 2.76744186,2.8353246 2.76744186,2.56634747 C2.76744186,2.29737034 2.54835221,2.07797538 2.27906977,2.07797538 Z" id="Shape" fill="#116FFF"></path>
                </g>
                <path d="M25.9977547,14.2726462 C25.8571324,20.7744947 20.6930585,26.0006966 14.3432154,26.0006966 C14.2868046,26.0006966 14.2304873,26.0002841 14.1742664,25.999462 C14.1163919,26.0002841 14.0584182,26.0006966 14.0003483,26.0006966 C7.37273894,26.0006966 2,20.6279576 2,14.0003483 C2,7.37273894 7.37273894,2 14.0003483,2 C14.0584182,2 14.1163919,2.00041246 14.1742664,2.00123462 C14.2304873,2.00041246 14.2868046,2 14.3432154,2 C20.6930585,2 25.8571324,7.22620189 25.9977547,13.7280504 C25.8542075,7.28397464 20.6310025,2.09295797 14.1742664,2.00123462 C7.81390697,2.09424634 2.68573419,7.43080889 2.68573419,14.0003483 C2.68573419,20.5698877 7.81390697,25.9064502 14.1742664,25.999462 C20.6310025,25.9077386 25.8542075,20.7167219 25.9976686,14.2726247 Z" id="Combined-Shape" fill="#FFFFFF"></path>
                <g id="Group" transform="translate(13.069767, 10.418605)" fill="#5C9EFF">
                    <path d="M3.16688152,1.302 L0.243606279,1.302 C0.108919198,1.302 0,1.01093023 0,0.651 C0,0.291232558 0.108919198,0 0.243606279,0 L3.16688152,0 L5.61679792,0 C5.75148495,0 5.86046512,0.291232558 5.86046512,0.651 C5.86046512,1.01093023 5.75148495,1.302 5.61679792,1.302 L3.16688152,1.302 Z" id="Combined-Shape"></path>
                </g>
                <path d="M17.627907,6.18604651 C17.627907,6.64170306 17.4435004,7.04348955 17.1510823,7.3360433 C16.857443,7.62954692 16.4556566,7.81395349 16.0001357,7.81395349 C15.0992709,7.81395349 14.372093,7.08691126 14.372093,6.18604651 C14.372093,5.28518176 15.0992709,4.55813953 16.0001357,4.55813953 C16.9010005,4.55813953 17.627907,5.28531745 17.627907,6.18604651 Z" id="Shape" fill="#5C9EFF"></path>
            </g>
            <path d="M21.5,40 C11.2827321,40 3,31.7172679 3,21.5 C3,11.2827321 11.2827321,3 21.5,3 C31.7172679,3 40,11.2827321 40,21.5 C40,31.7172679 31.7172679,40 21.5,40 Z M21.5,39 C31.1649831,39 39,31.1649831 39,21.5 C39,11.8350169 31.1649831,4 21.5,4 C11.8350169,4 4,11.8350169 4,21.5 C4,31.1649831 11.8350169,39 21.5,39 Z" id="Combined-Shape" fill="#116FFF"></path>
            <circle id="Oval-7" fill="#D7E9FF" cx="21.5" cy="21.5" r="17.5"></circle>
            <g id="Group" transform="translate(10.000000, 19.000000)" fill="#116FFF">
                <rect id="Rectangle" x="3" y="3" width="17" height="1" rx="0.5"></rect>
                <rect id="Rectangle-Copy-2" x="0" y="0" width="23" height="1" rx="0.5"></rect>
                <g id="Group-3" transform="translate(2.000000, 9.000000)">
                    <rect id="Rectangle-Copy-5" x="0" y="0" width="5.7" height="1" rx="0.5"></rect>
                    <rect id="Rectangle-Copy-6" x="7.6" y="0" width="11.4" height="1" rx="0.5"></rect>
                </g>
                <g id="Group-4" transform="translate(2.000000, 6.000000)">
                    <rect id="Rectangle-Copy-3" x="0" y="0" width="15" height="1" rx="0.5"></rect>
                    <rect id="Rectangle-Copy-4" x="16" y="0" width="3" height="1" rx="0.5"></rect>
                </g>
            </g>
            <path d="M38.9989842,21.6933124 C38.8983026,31.2692409 31.3261646,39 22,39 C21.9177366,39 21.8356097,38.9993985 21.7536232,38.9981996 C21.6692253,38.9993985 21.5846829,39 21.5,39 C11.8350169,39 4,31.1649831 4,21.5 C4,11.8350169 11.8350169,4 21.5,4 C21.5846829,4 21.6692253,4.00060149 21.7536232,4.00180043 C21.8356097,4.00060149 21.9177366,4 22,4 C31.3261646,4 38.8983026,11.7307591 38.9989842,21.3066876 C38.8962296,11.8152295 31.2373797,4.13652515 21.7536232,4.00180043 C12.4783683,4.13743859 5,11.9196998 5,21.5 C5,31.0803002 12.4783683,38.8625614 21.7536232,38.9981996 C31.2373797,38.8634749 38.8962296,31.1847705 38.9989544,21.6933052 Z" id="Combined-Shape" fill="#FFFFFF"></path>
            <path d="M24,9.5 C24,10.1997583 23.7168042,10.8167875 23.2677336,11.2660665 C22.8167875,11.7168042 22.1997583,12 21.5002084,12 C20.1167375,12 19,10.8834709 19,9.5 C19,8.11652913 20.1167375,7 21.5002084,7 C22.8836793,7 24,8.11673752 24,9.5 Z" id="Shape" fill="#5C9EFF"></path>
        </g>
    </g>
</svg>