<?xml version="1.0" encoding="UTF-8"?>
<svg width="64px" height="43px" viewBox="0 0 64 43" version="1.1" xmlns="http://www.w3.org/2000/svg" xmlns:xlink="http://www.w3.org/1999/xlink">
    <!-- Generator: Sketch 52.2 (67145) - http://www.bohemiancoding.com/sketch -->
    <title>Icon/Large/Visuals-Templates/7</title>
    <desc>Created with Sketch.</desc>
    <g id="Icon/Large/Visuals-Templates/7" stroke="none" stroke-width="1" fill="none" fill-rule="evenodd">
        <g id="Group">
            <path d="M4,0 L60,0 C62.209139,-4.05812251e-16 64,1.790861 64,4 L64,39 C64,41.209139 62.209139,43 60,43 L4,43 C1.790861,43 2.705415e-16,41.209139 0,39 L0,4 C-2.705415e-16,1.790861 1.790861,4.05812251e-16 4,0 Z M4,1 C2.34314575,1 1,2.34314575 1,4 L1,39 C1,40.6568542 2.34314575,42 4,42 L60,42 C61.6568542,42 63,40.6568542 63,39 L63,4 C63,2.34314575 61.6568542,1 60,1 L4,1 Z" id="Combined-Shape" fill="#116FFF" fill-rule="nonzero"></path>
            <path d="M5,3 L59,3 C60.1045695,3 61,3.8954305 61,5 L61,38 C61,39.1045695 60.1045695,40 59,40 L5,40 C3.8954305,40 3,39.1045695 3,38 L3,5 C3,3.8954305 3.8954305,3 5,3 Z M5,4 C4.44771525,4 4,4.44771525 4,5 L4,38 C4,38.5522847 4.44771525,39 5,39 L59,39 C59.5522847,39 60,38.5522847 60,38 L60,5 C60,4.44771525 59.5522847,4 59,4 L5,4 Z" id="Combined-Shape" fill="#116FFF" fill-rule="nonzero"></path>
            <rect id="Rectangle-Copy" fill="#D7E9FF" fill-rule="nonzero" x="4" y="4" width="56" height="35" rx="1"></rect>
            <g id="Group-2" transform="translate(9.000000, 18.000000)" fill-rule="nonzero">
                <rect id="Rectangle-Copy-6" fill="#116FFF" x="0" y="11" width="12" height="1" rx="0.5"></rect>
                <rect id="Rectangle-Copy-7" fill="#116FFF" x="0" y="14" width="3.69230769" height="1" rx="0.5"></rect>
                <rect id="Rectangle-Copy-8" fill="#116FFF" x="5.53846154" y="14" width="6.46153846" height="1" rx="0.5"></rect>
                <rect id="Rectangle-Copy-9" fill="#94C1FF" x="0" y="17" width="7.38461538" height="1" rx="0.5"></rect>
                <rect id="Rectangle-Copy-10" fill="#94C1FF" x="9.23076923" y="17" width="2.76923077" height="1" rx="0.5"></rect>
                <path d="M2,0 L10,0 C11.1045695,-2.02906125e-16 12,0.8954305 12,2 L12,7 C12,8.1045695 11.1045695,9 10,9 L2,9 C0.8954305,9 1.3527075e-16,8.1045695 0,7 L0,2 C-1.3527075e-16,0.8954305 0.8954305,2.02906125e-16 2,0 Z M1.92307692,1 C1.37079217,1 0.923076923,1.44771525 0.923076923,2 L0.923076923,7 C0.923076923,7.55228475 1.37079217,8 1.92307692,8 L10.0769231,8 C10.6292078,8 11.0769231,7.55228475 11.0769231,7 L11.0769231,2 C11.0769231,1.44771525 10.6292078,1 10.0769231,1 L1.92307692,1 Z" id="Combined-Shape" fill="#116FFF"></path>
                <rect id="Rectangle-Copy-5" fill="#94C1FF" x="0.923076923" y="1" width="10.1538462" height="7" rx="1"></rect>
                <path d="M2.42307692,1 C1.87079217,1 1.42307692,1.44771525 1.42307692,2 L1.42307692,7 C1.42307692,7.55228475 1.87079217,8 2.42307692,8 L1.92307692,8 C1.37079217,8 0.923076923,7.55228475 0.923076923,7 L0.923076923,2 C0.923076923,1.44771525 1.37079217,1 1.92307692,1 L2.42307692,1 Z" id="Combined-Shape" fill="#FFFFFF"></path>
                <path d="M11.6538462,1 C11.1015614,1 10.6538462,1.44771525 10.6538462,2 L10.6538462,7 C10.6538462,7.55228475 11.1015614,8 11.6538462,8 L11.1538462,8 C10.6015614,8 10.1538462,7.55228475 10.1538462,7 L10.1538462,2 C10.1538462,1.44771525 10.6015614,1 11.1538462,1 L11.6538462,1 Z" id="Combined-Shape-Copy" fill="#5C9EFF" transform="translate(10.653846, 4.500000) scale(-1, 1) translate(-10.653846, -4.500000) "></path>
            </g>
            <g id="Group-2-Copy" transform="translate(26.000000, 18.000000)" fill-rule="nonzero">
                <rect id="Rectangle-Copy-6" fill="#116FFF" x="0" y="11" width="12" height="1" rx="0.5"></rect>
                <rect id="Rectangle-Copy-7" fill="#116FFF" x="0" y="14" width="3.69230769" height="1" rx="0.5"></rect>
                <rect id="Rectangle-Copy-8" fill="#116FFF" x="5.53846154" y="14" width="6.46153846" height="1" rx="0.5"></rect>
                <rect id="Rectangle-Copy-9" fill="#94C1FF" x="0" y="17" width="7.38461538" height="1" rx="0.5"></rect>
                <rect id="Rectangle-Copy-10" fill="#94C1FF" x="9.23076923" y="17" width="2.76923077" height="1" rx="0.5"></rect>
                <path d="M2,0 L10,0 C11.1045695,-2.02906125e-16 12,0.8954305 12,2 L12,7 C12,8.1045695 11.1045695,9 10,9 L2,9 C0.8954305,9 1.3527075e-16,8.1045695 0,7 L0,2 C-1.3527075e-16,0.8954305 0.8954305,2.02906125e-16 2,0 Z M1.92307692,1 C1.37079217,1 0.923076923,1.44771525 0.923076923,2 L0.923076923,7 C0.923076923,7.55228475 1.37079217,8 1.92307692,8 L10.0769231,8 C10.6292078,8 11.0769231,7.55228475 11.0769231,7 L11.0769231,2 C11.0769231,1.44771525 10.6292078,1 10.0769231,1 L1.92307692,1 Z" id="Combined-Shape" fill="#116FFF"></path>
                <rect id="Rectangle-Copy-5" fill="#94C1FF" x="0.923076923" y="1" width="10.1538462" height="7" rx="1"></rect>
                <path d="M2.42307692,1 C1.87079217,1 1.42307692,1.44771525 1.42307692,2 L1.42307692,7 C1.42307692,7.55228475 1.87079217,8 2.42307692,8 L1.92307692,8 C1.37079217,8 0.923076923,7.55228475 0.923076923,7 L0.923076923,2 C0.923076923,1.44771525 1.37079217,1 1.92307692,1 L2.42307692,1 Z" id="Combined-Shape" fill="#FFFFFF"></path>
                <path d="M11.6538462,1 C11.1015614,1 10.6538462,1.44771525 10.6538462,2 L10.6538462,7 C10.6538462,7.55228475 11.1015614,8 11.6538462,8 L11.1538462,8 C10.6015614,8 10.1538462,7.55228475 10.1538462,7 L10.1538462,2 C10.1538462,1.44771525 10.6015614,1 11.1538462,1 L11.6538462,1 Z" id="Combined-Shape-Copy" fill="#5C9EFF" transform="translate(10.653846, 4.500000) scale(-1, 1) translate(-10.653846, -4.500000) "></path>
            </g>
            <g id="Group-2-Copy-2" transform="translate(43.000000, 18.000000)" fill-rule="nonzero">
                <rect id="Rectangle-Copy-6" fill="#116FFF" x="0" y="11" width="12" height="1" rx="0.5"></rect>
                <rect id="Rectangle-Copy-7" fill="#116FFF" x="0" y="14" width="3.69230769" height="1" rx="0.5"></rect>
                <rect id="Rectangle-Copy-8" fill="#116FFF" x="5.53846154" y="14" width="6.46153846" height="1" rx="0.5"></rect>
                <rect id="Rectangle-Copy-9" fill="#94C1FF" x="0" y="17" width="7.38461538" height="1" rx="0.5"></rect>
                <rect id="Rectangle-Copy-10" fill="#94C1FF" x="9.23076923" y="17" width="2.76923077" height="1" rx="0.5"></rect>
                <path d="M2,0 L10,0 C11.1045695,-2.02906125e-16 12,0.8954305 12,2 L12,7 C12,8.1045695 11.1045695,9 10,9 L2,9 C0.8954305,9 1.3527075e-16,8.1045695 0,7 L0,2 C-1.3527075e-16,0.8954305 0.8954305,2.02906125e-16 2,0 Z M1.92307692,1 C1.37079217,1 0.923076923,1.44771525 0.923076923,2 L0.923076923,7 C0.923076923,7.55228475 1.37079217,8 1.92307692,8 L10.0769231,8 C10.6292078,8 11.0769231,7.55228475 11.0769231,7 L11.0769231,2 C11.0769231,1.44771525 10.6292078,1 10.0769231,1 L1.92307692,1 Z" id="Combined-Shape" fill="#116FFF"></path>
                <rect id="Rectangle-Copy-5" fill="#94C1FF" x="0.923076923" y="1" width="10.1538462" height="7" rx="1"></rect>
                <path d="M2.42307692,1 C1.87079217,1 1.42307692,1.44771525 1.42307692,2 L1.42307692,7 C1.42307692,7.55228475 1.87079217,8 2.42307692,8 L1.92307692,8 C1.37079217,8 0.923076923,7.55228475 0.923076923,7 L0.923076923,2 C0.923076923,1.44771525 1.37079217,1 1.92307692,1 L2.42307692,1 Z" id="Combined-Shape" fill="#FFFFFF"></path>
                <path d="M11.6538462,1 C11.1015614,1 10.6538462,1.44771525 10.6538462,2 L10.6538462,7 C10.6538462,7.55228475 11.1015614,8 11.6538462,8 L11.1538462,8 C10.6015614,8 10.1538462,7.55228475 10.1538462,7 L10.1538462,2 C10.1538462,1.44771525 10.6015614,1 11.1538462,1 L11.6538462,1 Z" id="Combined-Shape-Copy" fill="#5C9EFF" transform="translate(10.653846, 4.500000) scale(-1, 1) translate(-10.653846, -4.500000) "></path>
            </g>
            <rect id="Rectangle" fill="#5C9EFF" fill-rule="nonzero" x="9" y="10" width="16" height="1" rx="0.5"></rect>
            <rect id="Rectangle-Copy-4" fill="#5C9EFF" fill-rule="nonzero" x="27" y="10" width="8" height="1" rx="0.5"></rect>
            <path d="M55,10.5 C55,11.1997583 54.7168042,11.8167875 54.2677336,12.2660665 C53.8167875,12.7168042 53.1997583,13 52.5002084,13 C51.1167375,13 50,11.8834709 50,10.5 C50,9.11652913 51.1167375,8 52.5002084,8 C53.8836793,8 55,9.11673752 55,10.5 Z" id="Shape" fill="#5C9EFF"></path>
            <path d="M6,4 C5.44771525,4 5,4.44771525 5,5 L5,38 C5,38.5522847 5.44771525,39 6,39 L5,39 C4.44771525,39 4,38.5522847 4,38 L4,5 C4,4.44771525 4.44771525,4 5,4 L6,4 Z" id="Combined-Shape" fill="#FFFFFF" fill-rule="nonzero"></path>
        </g>
    </g>
</svg>