<?xml version="1.0" encoding="UTF-8"?>
<svg width="64px" height="43px" viewBox="0 0 64 43" version="1.1" xmlns="http://www.w3.org/2000/svg" xmlns:xlink="http://www.w3.org/1999/xlink">
    <!-- Generator: Sketch 52.2 (67145) - http://www.bohemiancoding.com/sketch -->
    <title>Icon/Large/Visuals-Templates/1_Spot</title>
    <desc>Created with Sketch.</desc>
    <g id="Icon/Large/Visuals-Templates/1_Spot" stroke="none" stroke-width="1" fill="none" fill-rule="evenodd">
        <path d="M32.5,43 C20.6258779,43 11,33.3741221 11,21.5 C11,9.62587788 20.6258779,0 32.5,0 C44.3741221,0 54,9.62587788 54,21.5 C54,33.3741221 44.3741221,43 32.5,43 Z M32.5,42 C43.8218374,42 53,32.8218374 53,21.5 C53,10.1781626 43.8218374,1 32.5,1 C21.1781626,1 12,10.1781626 12,21.5 C12,32.8218374 21.1781626,42 32.5,42 Z" id="Combined-Shape" fill="#116FFF" fill-rule="nonzero"></path>
        <path d="M32.5,40 C22.2827321,40 14,31.7172679 14,21.5 C14,11.2827321 22.2827321,3 32.5,3 C42.7172679,3 51,11.2827321 51,21.5 C51,31.7172679 42.7172679,40 32.5,40 Z M32.5,39 C42.1649831,39 50,31.1649831 50,21.5 C50,11.8350169 42.1649831,4 32.5,4 C22.8350169,4 15,11.8350169 15,21.5 C15,31.1649831 22.8350169,39 32.5,39 Z" id="Combined-Shape" fill="#116FFF" fill-rule="nonzero"></path>
        <circle id="Oval-7" fill="#D7E9FF" fill-rule="nonzero" cx="32.5" cy="21.5" r="17.5"></circle>
        <path d="M49.9989842,21.6933124 C49.8983026,31.2692409 42.3261646,39 33,39 C32.9177366,39 32.8356097,38.9993985 32.7536232,38.9981996 C32.6692253,38.9993985 32.5846829,39 32.5,39 C22.8350169,39 15,31.1649831 15,21.5 C15,11.8350169 22.8350169,4 32.5,4 C32.5846829,4 32.6692253,4.00060149 32.7536232,4.00180043 C32.8356097,4.00060149 32.9177366,4 33,4 C42.3261646,4 49.8983026,11.7307591 49.9989842,21.3066876 C49.8962296,11.8152295 42.2373797,4.13652515 32.7536232,4.00180043 C23.4783683,4.13743859 16,11.9196998 16,21.5 C16,31.0803002 23.4783683,38.8625614 32.7536232,38.9981996 C42.2373797,38.8634749 49.8962296,31.1847705 49.9989544,21.6933052 Z" id="Combined-Shape" fill="#FFFFFF" fill-rule="nonzero"></path>
        <g id="Group" transform="translate(28.000000, 16.000000)" fill="#5C9EFF" fill-rule="nonzero">
            <path d="M4.86342519,0.99975 L0.374109642,0.99975 C0.167268768,0.99975 0,0.77625 0,0.499875 C0,0.223625 0.167268768,0 0.374109642,0 L4.86342519,0 L8.62579681,0 C8.8326376,0 9,0.223625 9,0.499875 C9,0.77625 8.8326376,0.99975 8.62579681,0.99975 L4.86342519,0.99975 Z" id="Combined-Shape"></path>
        </g>
        <path d="M35,9.5 C35,10.1997583 34.7168042,10.8167875 34.2677336,11.2660665 C33.8167875,11.7168042 33.1997583,12 32.5002084,12 C31.1167375,12 30,10.8834709 30,9.5 C30,8.11652913 31.1167375,7 32.5002084,7 C33.8836793,7 35,8.11673752 35,9.5 Z" id="Shape" fill="#5C9EFF" fill-rule="nonzero"></path>
        <g id="Group-5" transform="translate(18.000000, 21.000000)" fill="#116FFF" fill-rule="nonzero">
            <g id="Group-6">
                <rect id="Rectangle" x="7" y="0" width="15" height="1" rx="0.5"></rect>
                <rect id="Rectangle-Copy-2" x="9" y="12" width="11" height="1" rx="0.5"></rect>
                <g id="Group-2" transform="translate(0.000000, 3.000000)">
                    <rect id="Rectangle-Copy" x="0" y="0" width="18" height="1" rx="0.5"></rect>
                    <rect id="Rectangle-Copy-7" x="20" y="0" width="9" height="1" rx="0.5"></rect>
                </g>
                <g id="Group-4" transform="translate(6.000000, 9.000000)">
                    <rect id="Rectangle-Copy-5" x="0" y="0" width="5.1" height="1" rx="0.5"></rect>
                    <rect id="Rectangle-Copy-6" x="6.8" y="0" width="10.2" height="1" rx="0.5"></rect>
                </g>
                <g id="Group-3" transform="translate(3.000000, 6.000000)">
                    <rect id="Rectangle-Copy-3" x="0" y="0" width="19.1666667" height="1" rx="0.5"></rect>
                    <rect id="Rectangle-Copy-4" x="20.4444444" y="0" width="2.55555556" height="1" rx="0.5"></rect>
                </g>
            </g>
        </g>
    </g>
</svg>