<?xml version="1.0" encoding="UTF-8"?>
<svg width="64px" height="43px" viewBox="0 0 64 43" version="1.1" xmlns="http://www.w3.org/2000/svg" xmlns:xlink="http://www.w3.org/1999/xlink">
    <!-- Generator: Sketch 52.2 (67145) - http://www.bohemiancoding.com/sketch -->
    <title>Icon/Large/Visuals-Templates/4_unselected</title>
    <desc>Created with Sketch.</desc>
    <g id="Icon/Large/Visuals-Templates/4_unselected" stroke="none" stroke-width="1" fill="none" fill-rule="evenodd">
        <g id="Group">
            <path d="M4,0 L60,0 C62.209139,-4.05812251e-16 64,1.790861 64,4 L64,39 C64,41.209139 62.209139,43 60,43 L4,43 C1.790861,43 2.705415e-16,41.209139 0,39 L0,4 C-2.705415e-16,1.790861 1.790861,4.05812251e-16 4,0 Z M4,1 C2.34314575,1 1,2.34314575 1,4 L1,39 C1,40.6568542 2.34314575,42 4,42 L60,42 C61.6568542,42 63,40.6568542 63,39 L63,4 C63,2.34314575 61.6568542,1 60,1 L4,1 Z" id="Combined-Shape" fill="#7E97B2" fill-rule="nonzero"></path>
            <path d="M5,3 L59,3 C60.1045695,3 61,3.8954305 61,5 L61,38 C61,39.1045695 60.1045695,40 59,40 L5,40 C3.8954305,40 3,39.1045695 3,38 L3,5 C3,3.8954305 3.8954305,3 5,3 Z M5,4 C4.44771525,4 4,4.44771525 4,5 L4,38 C4,38.5522847 4.44771525,39 5,39 L59,39 C59.5522847,39 60,38.5522847 60,38 L60,5 C60,4.44771525 59.5522847,4 59,4 L5,4 Z" id="Combined-Shape" fill="#7E97B2" fill-rule="nonzero"></path>
            <rect id="Rectangle-Copy" fill="#EAF3F9" fill-rule="nonzero" x="4" y="4" width="56" height="35" rx="1"></rect>
            <rect id="Rectangle-Copy-5" fill="#CFDEE9" fill-rule="nonzero" x="12" y="17" width="40" height="18" rx="2"></rect>
            <g id="Group-3" transform="translate(11.000000, 16.000000)" fill-rule="nonzero">
                <g id="Group-2" transform="translate(10.000000, 4.000000)">
                    <path d="M2,1 C3.10677669,1 4,1.66991748 4,2.5 C4,3.33008252 3.10677669,4 2,4 C0.893223306,4 0,3.33008252 0,2.5 C0,1.66991748 0.893223306,1 2,1 Z" id="Shape" fill="#FFFFFF"></path>
                    <path d="M2.5,5 C1.1212178,5 0,3.87940735 0,2.5 C0,1.12059265 1.1212178,0 2.5,0 C3.8787822,0 5,1.12059265 5,2.5 C5,3.87940735 3.87893848,5 2.5,5 Z M2.5,1.25 C1.81092148,1.25 1.25,1.81154664 1.25,2.5 C1.25,3.18845336 1.81092148,3.75 2.5,3.75 C3.18907852,3.75 3.75,3.18845336 3.75,2.5 C3.75,1.81154664 3.18923481,1.25 2.5,1.25 Z" id="Shape" fill="#7E97B2"></path>
                </g>
                <path d="M27.97775,8.5 L34.8451138,18.3388232 C35.0031649,18.5652619 34.9477258,18.8769524 34.7212871,19.0350035 C34.6373551,19.0935869 34.5374656,19.125 34.4351103,19.125 L20.2354909,19.125 L27.97775,8.5 Z" id="Shape" fill="#EAF3F9"></path>
                <path d="M18.6,11.3088235 L24.9744772,18.5164586 C25.1574177,18.7233098 25.1380342,19.0392983 24.9311831,19.2222388 C24.8414699,19.3015816 24.7262573,19.3460867 24.6065023,19.3476585 L13,19.5 L18.6,11.3088235 Z" id="Shape-Copy" fill="#EAF3F9"></path>
                <path d="M20.7150441,19.2238943 C20.5856112,19.2238943 20.4549252,19.1861427 20.3374867,19.105993 C20.0019996,18.8806448 19.8992409,18.4043933 20.1083386,18.0415904 L27.2681435,6.96299655 C27.3988295,6.73764829 27.6281567,6.6 27.875028,6.6 C28.1217203,6.6 28.3510474,6.73764829 28.4819125,6.96299655 L35.6410013,18.0384928 C35.850636,18.4012957 35.7487725,18.879096 35.4136434,19.105993 C35.0788723,19.3344389 34.636867,19.2238943 34.4272323,18.8608978 L27.875028,8.83489714 L21.3233608,18.8579938 C21.1874831,19.0937964 20.9540384,19.2238943 20.7150441,19.2238943 Z" id="Shape" fill="#7E97B2"></path>
                <path d="M12.5599267,19.3648857 C12.3981828,19.3648857 12.3966106,19.4267146 12.2542434,19.3093043 C11.8854754,19.0061333 11.9579425,18.532114 12.2169775,18.1008157 L17.9424671,10.0055776 C18.0954405,9.75075197 18.3422377,9.67811477 18.6114709,9.6 C18.8774407,9.6 19.1266854,9.75265721 19.278843,10.0093881 L22.5481382,14.5253831 C22.8063574,14.9569196 22.8909087,15.3060294 22.5213249,15.6072952 C22.151741,15.9087992 21.7024439,15.7216804 21.4452445,15.2882387 L18.5191031,11.6566948 L13.2283188,18.9595464 C13.0696343,19.2234219 12.8163102,19.3648857 12.5599267,19.3648857 Z" id="Shape" fill="#7E97B2"></path>
                <path d="M3.66666667,1 C2.56209717,1 1.66666667,1.8954305 1.66666667,3 L1.66666667,17 C1.66666667,18.1045695 2.56209717,19 3.66666667,19 L3,19 C1.8954305,19 1,18.1045695 1,17 L1,3 C1,1.8954305 1.8954305,1 3,1 L3.66666667,1 Z" id="Combined-Shape" fill="#FFFFFF"></path>
                <path d="M41.6666667,1 C40.5620972,1 39.6666667,1.8954305 39.6666667,3 L39.6666667,17 C39.6666667,18.1045695 40.5620972,19 41.6666667,19 L41,19 C39.8954305,19 39,18.1045695 39,17 L39,3 C39,1.8954305 39.8954305,1 41,1 L41.6666667,1 Z" id="Combined-Shape" fill="#B7CCDB" transform="translate(40.000000, 10.000000) scale(-1, 1) translate(-40.000000, -10.000000) "></path>
                <path d="M3,0 L39,0 C40.6568542,-3.04359188e-16 42,1.34314575 42,3 L42,17 C42,18.6568542 40.6568542,20 39,20 L3,20 C1.34314575,20 2.02906125e-16,18.6568542 0,17 L0,3 C-2.02906125e-16,1.34314575 1.34314575,3.04359188e-16 3,0 Z M3,1 C1.8954305,1 1,1.8954305 1,3 L1,17 C1,18.1045695 1.8954305,19 3,19 L39,19 C40.1045695,19 41,18.1045695 41,17 L41,3 C41,1.8954305 40.1045695,1 39,1 L3,1 Z" id="Combined-Shape" fill="#7E97B2"></path>
            </g>
            <rect id="Rectangle" fill="#B7CCDB" fill-rule="nonzero" x="9" y="10" width="16" height="1" rx="0.5"></rect>
            <rect id="Rectangle-Copy-4" fill="#B7CCDB" fill-rule="nonzero" x="27" y="10" width="8" height="1" rx="0.5"></rect>
            <path d="M55,10.5 C55,11.1997583 54.7168042,11.8167875 54.2677336,12.2660665 C53.8167875,12.7168042 53.1997583,13 52.5002084,13 C51.1167375,13 50,11.8834709 50,10.5 C50,9.11652913 51.1167375,8 52.5002084,8 C53.8836793,8 55,9.11673752 55,10.5 Z" id="Shape" fill="#B7CCDB"></path>
            <path d="M6,4 C5.44771525,4 5,4.44771525 5,5 L5,38 C5,38.5522847 5.44771525,39 6,39 L5,39 C4.44771525,39 4,38.5522847 4,38 L4,5 C4,4.44771525 4.44771525,4 5,4 L6,4 Z" id="Combined-Shape" fill="#FFFFFF" fill-rule="nonzero"></path>
        </g>
    </g>
</svg>