<?xml version="1.0" encoding="UTF-8"?>
<svg width="64px" height="43px" viewBox="0 0 64 43" version="1.1" xmlns="http://www.w3.org/2000/svg" xmlns:xlink="http://www.w3.org/1999/xlink">
    <!-- Generator: Sketch 52.2 (67145) - http://www.bohemiancoding.com/sketch -->
    <title>Icon/Large/Visuals-Templates/5</title>
    <desc>Created with Sketch.</desc>
    <g id="Icon/Large/Visuals-Templates/5" stroke="none" stroke-width="1" fill="none" fill-rule="evenodd">
        <g id="Group">
            <path d="M4,0 L60,0 C62.209139,-4.05812251e-16 64,1.790861 64,4 L64,39 C64,41.209139 62.209139,43 60,43 L4,43 C1.790861,43 2.705415e-16,41.209139 0,39 L0,4 C-2.705415e-16,1.790861 1.790861,4.05812251e-16 4,0 Z M4,1 C2.34314575,1 1,2.34314575 1,4 L1,39 C1,40.6568542 2.34314575,42 4,42 L60,42 C61.6568542,42 63,40.6568542 63,39 L63,4 C63,2.34314575 61.6568542,1 60,1 L4,1 Z" id="Combined-Shape" fill="#116FFF" fill-rule="nonzero"></path>
            <rect id="Rectangle-Copy" fill="#D7E9FF" fill-rule="nonzero" x="35" y="4" width="25" height="35" rx="1"></rect>
            <rect id="Rectangle-Copy-5" fill="#116FFF" fill-rule="nonzero" x="56" y="19" width="5" height="1" rx="0.5"></rect>
            <rect id="Rectangle-Copy-7" fill="#94C1FF" fill-rule="nonzero" x="56" y="27" width="5" height="1" rx="0.5"></rect>
            <rect id="Rectangle-Copy-6" fill="#116FFF" fill-rule="nonzero" x="56" y="23" width="5" height="1" rx="0.5"></rect>
            <rect id="Rectangle-Copy-14" fill="#94C1FF" fill-rule="nonzero" x="56" y="31" width="5" height="1" rx="0.5"></rect>
            <rect id="Rectangle-Copy-18" fill="#94C1FF" fill-rule="nonzero" x="51" y="35" width="4" height="1" rx="0.5"></rect>
            <rect id="Rectangle-Copy-20" fill="#94C1FF" fill-rule="nonzero" x="57" y="35" width="3" height="1" rx="0.5"></rect>
            <rect id="Rectangle-Copy-19" fill="#94C1FF" fill-rule="nonzero" x="41" y="35" width="8" height="1" rx="0.5"></rect>
            <rect id="Rectangle-Copy-17" fill="#94C1FF" fill-rule="nonzero" x="41" y="31" width="12" height="1" rx="0.5"></rect>
            <g id="Group-4" transform="translate(40.000000, 10.000000)" fill-rule="nonzero">
                <g id="Group-3" transform="translate(0.000000, 9.000000)">
                    <rect id="Rectangle-Copy-5" fill="#94C1FF" x="1" y="1" width="11" height="7" rx="1.2"></rect>
                    <g id="Group-2" transform="translate(0.590909, 0.600000)">
                        <path d="M2.29090909,4.54525306e-13 C1.62816739,4.5464705e-13 1.09090909,0.5372583 1.09090909,1.2 L1.09090909,6.8 C1.09090909,7.4627417 1.62816739,8 2.29090909,8 L1.60909091,8 C0.946349209,8 0.409090909,7.4627417 0.409090909,6.8 L0.409090909,1.2 C0.409090909,0.5372583 0.946349209,3.4378828e-16 1.60909091,2.22044605e-16 L2.29090909,0 Z" id="Combined-Shape" fill="#FFFFFF"></path>
                        <path d="M11.7909091,4.54525306e-13 C11.1281674,4.5464705e-13 10.5909091,0.5372583 10.5909091,1.2 L10.5909091,6.8 C10.5909091,7.4627417 11.1281674,8 11.7909091,8 L11.1090909,8 C10.4463492,8 9.90909091,7.4627417 9.90909091,6.8 L9.90909091,1.2 C9.90909091,0.5372583 10.4463492,3.4378828e-16 11.1090909,2.22044605e-16 L11.7909091,0 Z" id="Combined-Shape-Copy-3" fill="#5C9EFF" transform="translate(10.659091, 4.000000) scale(-1, 1) translate(-10.659091, -4.000000) "></path>
                        <path d="M2.95454545,1.125 C3.44504876,1.125 3.84090909,1.52695049 3.84090909,2.025 C3.84090909,2.52304951 3.44504876,2.925 2.95454545,2.925 C2.46404215,2.925 2.06818182,2.52304951 2.06818182,2.025 C2.06818182,1.52695049 2.46404215,1.125 2.95454545,1.125 Z" id="Shape" fill="#FFFFFF"></path>
                        <path d="M2.95454545,3.45 C2.30275751,3.45 1.77272727,2.91211553 1.77272727,2.25 C1.77272727,1.58788447 2.30275751,1.05 2.95454545,1.05 C3.6063334,1.05 4.13636364,1.58788447 4.13636364,2.25 C4.13636364,2.91211553 3.60640728,3.45 2.95454545,3.45 Z M2.95454545,1.65 C2.62879925,1.65 2.36363636,1.91954239 2.36363636,2.25 C2.36363636,2.58045761 2.62879925,2.85 2.95454545,2.85 C3.28029166,2.85 3.54545455,2.58045761 3.54545455,2.25 C3.54545455,1.91954239 3.28036555,1.65 2.95454545,1.65 Z" id="Shape" fill="#116FFF"></path>
                        <path d="M8.64766082,2.4 L11.2354928,7.43792552 C11.3111969,7.58530443 11.253093,7.76614897 11.1057141,7.84185312 C11.0633056,7.86363711 11.0163159,7.875 10.9686397,7.875 L5.31818182,7.875 L8.64766082,2.4 Z" id="Shape" fill="#D7E9FF"></path>
                        <path d="M4.40633388,3.975 L6.90577392,7.39808955 C7.00347886,7.53190063 6.97420905,7.71958145 6.84039798,7.81728639 C6.78903584,7.85478952 6.72708434,7.875 6.66348753,7.875 L1.77272727,7.875 L4.40633388,3.975 Z" id="Shape-Copy" fill="#D7E9FF"></path>
                        <path d="M12.230303,4.4408921e-16 C11.5675613,5.65832885e-16 11.030303,0.5372583 11.030303,1.2 L11.030303,6.6 C11.030303,7.2627417 11.5675613,7.8 12.230303,7.8 L11.8363636,7.8 C11.1736219,7.8 10.6363636,7.2627417 10.6363636,6.6 L10.6363636,1.2 C10.6363636,0.5372583 11.1736219,3.4378828e-16 11.8363636,2.22044605e-16 L12.230303,0 Z" id="Combined-Shape-Copy" fill="#5C9EFF" transform="translate(11.227273, 3.900000) scale(-1, 1) translate(-11.227273, -3.900000) "></path>
                        <path d="M5.19021785,7.79949423 C5.13315905,7.79949423 5.07554781,7.78222566 5.02377662,7.74556315 C4.87588148,7.64248306 4.83058168,7.42463338 4.92275966,7.25867797 L8.07906615,2.19104396 C8.13667738,2.08796387 8.23777326,2.025 8.34660325,2.025 C8.45535432,2.025 8.5564502,2.08796387 8.61414036,2.19104396 L11.7701312,7.25726106 C11.8625459,7.42321647 11.8176407,7.64177461 11.6699034,7.74556315 C11.5223239,7.85006015 11.3274717,7.79949423 11.235057,7.63345027 L8.34660325,3.04729948 L5.45838631,7.63212192 C5.39848641,7.73998408 5.29557538,7.79949423 5.19021785,7.79949423 Z" id="Shape" fill="#116FFF"></path>
                        <path d="M1.97052715,8.025 C1.90193457,8.025 1.83265001,8.00159415 1.77227469,7.95228182 C1.61588707,7.82494999 1.57800113,7.57648787 1.68785305,7.39534259 L4.11592667,3.99534259 C4.18079986,3.88831583 4.28546193,3.8578082 4.39963874,3.825 C4.51243159,3.825 4.61813163,3.88911603 4.68265883,3.99694299 L6.06910614,5.89366092 C6.17861208,6.07490623 6.13968816,6.32346837 5.98295455,6.45 C5.82622093,6.57663166 5.61075545,6.53202051 5.501682,6.34997499 L4.39799529,4.92347462 L2.25397973,7.85475744 C2.18668461,7.96558515 2.07925461,8.025 1.97052715,8.025 Z" id="Shape" fill="#116FFF"></path>
                        <path d="M1.59393939,2.22044605e-16 C0.931197694,3.4378828e-16 0.393939394,0.5372583 0.393939394,1.2 L0.393939394,6.6 C0.393939394,7.2627417 0.931197694,7.8 1.59393939,7.8 L1.2,7.8 C0.5372583,7.8 3.03207055e-16,7.2627417 2.22044605e-16,6.6 L0,1.2 C-8.11624501e-17,0.5372583 0.5372583,3.4378828e-16 1.2,2.22044605e-16 L1.59393939,0 Z" id="Combined-Shape" fill="#FFFFFF"></path>
                    </g>
                    <path d="M1.8,0 L11.2,0 C12.1941125,-1.82615513e-16 13,0.80588745 13,1.8 L13,7.2 C13,8.19411255 12.1941125,9 11.2,9 L1.8,9 C0.80588745,9 1.21743675e-16,8.19411255 0,7.2 L2.22044605e-16,1.8 C1.0030093e-16,0.80588745 0.80588745,4.04660118e-16 1.8,2.22044605e-16 Z M2.2,1 C1.5372583,1 1,1.5372583 1,2.2 L1,6.8 C1,7.4627417 1.5372583,8 2.2,8 L10.8,8 C11.4627417,8 12,7.4627417 12,6.8 L12,2.2 C12,1.5372583 11.4627417,1 10.8,1 L2.2,1 Z" id="Combined-Shape" fill="#116FFF"></path>
                </g>
                <rect id="Rectangle" fill="#5C9EFF" x="0" y="0" width="16" height="1" rx="0.5"></rect>
            </g>
            <rect id="Rectangle-Copy" fill="#D7E9FF" fill-rule="nonzero" x="4" y="4" width="25" height="35" rx="1"></rect>
            <g id="Group-2" transform="translate(3.000000, 8.000000)">
                <rect id="Rectangle-Copy-16" fill="#94C1FF" fill-rule="nonzero" x="14" y="24" width="7" height="1" rx="0.5"></rect>
                <rect id="Rectangle-Copy-15" fill="#94C1FF" fill-rule="nonzero" x="1" y="24" width="11" height="1" rx="0.5"></rect>
                <rect id="Rectangle-Copy-11" fill="#94C1FF" fill-rule="nonzero" x="1" y="20" width="5" height="1" rx="0.5"></rect>
                <rect id="Rectangle-Copy-12" fill="#94C1FF" fill-rule="nonzero" x="8" y="20" width="13" height="1" rx="0.5"></rect>
                <rect id="Rectangle-Copy-4" fill="#5C9EFF" fill-rule="nonzero" x="1" y="2" width="6" height="1" rx="0.5"></rect>
                <rect id="Rectangle-Copy-6" fill="#116FFF" fill-rule="nonzero" x="0" y="12" width="13" height="1" rx="0.5"></rect>
                <rect id="Rectangle-Copy-13" fill="#116FFF" fill-rule="nonzero" x="15" y="12" width="6" height="1" rx="0.5"></rect>
                <rect id="Rectangle-Copy-9" fill="#116FFF" fill-rule="nonzero" x="0" y="16" width="21" height="1" rx="0.5"></rect>
                <path d="M21,2.5 C21,3.19975827 20.7168042,3.81678753 20.2677336,4.26606652 C19.8167875,4.7168042 19.1997583,5 18.5002084,5 C17.1167375,5 16,3.88347087 16,2.5 C16,1.11652913 17.1167375,0 18.5002084,0 C19.8836793,0 21,1.11673752 21,2.5 Z" id="Shape" fill="#5C9EFF"></path>
            </g>
            <rect id="Rectangle" fill="#116FFF" fill-rule="nonzero" x="28" y="4" width="1" height="36"></rect>
            <rect id="Rectangle-Copy-5" fill="#116FFF" fill-rule="nonzero" x="35" y="4" width="1" height="36"></rect>
            <path d="M31.9013757,18.5 L35,18.5 L35,19.5 L31.9013757,19.5 L32.4414435,20.5109059 C32.4445409,20.5150589 32.4475282,20.5192927 32.4504026,20.523603 C32.5408147,20.659183 32.5041679,20.8423651 32.3685497,20.9327518 C32.216259,21.0342503 32.0145165,21.0196214 31.8784708,20.8972149 L30.2285043,19.512917 C30.2105146,19.4967308 30.1933889,19.4796099 30.1771981,19.4616253 C29.9221776,19.1783491 29.9451482,18.7420316 30.2285043,18.487083 L31.8784708,17.1027851 C32.0145165,16.9803786 32.216259,16.9657497 32.3685497,17.0672482 C32.3728612,17.0701217 32.3770962,17.0731082 32.3812504,17.0762047 C32.5119207,17.1736038 32.5388701,17.3584607 32.4414435,17.4890941 L31.9013757,18.5 Z" id="Combined-Shape" fill="#116FFF"></path>
            <path d="M30.9013757,27.5 L34,27.5 L34,28.5 L30.9013757,28.5 L31.4414435,29.5109059 C31.4445409,29.5150589 31.4475282,29.5192927 31.4504026,29.523603 C31.5408147,29.659183 31.5041679,29.8423651 31.3685497,29.9327518 C31.216259,30.0342503 31.0145165,30.0196214 30.8784708,29.8972149 L29.2285043,28.512917 C29.2105146,28.4967308 29.1933889,28.4796099 29.1771981,28.4616253 C28.9221776,28.1783491 28.9451482,27.7420316 29.2285043,27.487083 L30.8784708,26.1027851 C31.0145165,25.9803786 31.216259,25.9657497 31.3685497,26.0672482 C31.3728612,26.0701217 31.3770962,26.0731082 31.3812504,26.0762047 C31.5119207,26.1736038 31.5388701,26.3584607 31.4414435,26.4890941 L30.9013757,27.5 Z" id="Combined-Shape-Copy-2" fill="#116FFF" transform="translate(31.500000, 28.000000) scale(-1, 1) translate(-31.500000, -28.000000) "></path>
            <path d="M6,4 C5.44771525,4 5,4.44771525 5,5 L5,38 C5,38.5522847 5.44771525,39 6,39 L5,39 C4.44771525,39 4,38.5522847 4,38 L4,5 C4,4.44771525 4.44771525,4 5,4 L6,4 Z" id="Combined-Shape" fill="#FFFFFF" fill-rule="nonzero"></path>
            <path d="M5,3 L59,3 C60.1045695,3 61,3.8954305 61,5 L61,38 C61,39.1045695 60.1045695,40 59,40 L5,40 C3.8954305,40 3,39.1045695 3,38 L3,5 C3,3.8954305 3.8954305,3 5,3 Z M5,4 C4.44771525,4 4,4.44771525 4,5 L4,38 C4,38.5522847 4.44771525,39 5,39 L59,39 C59.5522847,39 60,38.5522847 60,38 L60,5 C60,4.44771525 59.5522847,4 59,4 L5,4 Z" id="Combined-Shape" fill="#116FFF" fill-rule="nonzero"></path>
        </g>
    </g>
</svg>