<?xml version="1.0" encoding="UTF-8"?>
<svg width="64px" height="43px" viewBox="0 0 64 43" version="1.1" xmlns="http://www.w3.org/2000/svg" xmlns:xlink="http://www.w3.org/1999/xlink">
    <!-- Generator: Sketch 52.2 (67145) - http://www.bohemiancoding.com/sketch -->
    <title>Icon/Large/Visuals-Templates/3_Spot_unselected</title>
    <desc>Created with Sketch.</desc>
    <g id="Icon/Large/Visuals-Templates/3_Spot_unselected" stroke="none" stroke-width="1" fill="none" fill-rule="evenodd">
        <path d="M32.5,43 C20.6258779,43 11,33.3741221 11,21.5 C11,9.62587788 20.6258779,0 32.5,0 C44.3741221,0 54,9.62587788 54,21.5 C54,33.3741221 44.3741221,43 32.5,43 Z M32.5,42 C43.8218374,42 53,32.8218374 53,21.5 C53,10.1781626 43.8218374,1 32.5,1 C21.1781626,1 12,10.1781626 12,21.5 C12,32.8218374 21.1781626,42 32.5,42 Z" id="Combined-Shape" fill="#7E97B2" fill-rule="nonzero"></path>
        <g id="Group-2" transform="translate(51.000000, 22.000000) scale(-1, 1) translate(-51.000000, -22.000000) translate(40.000000, 13.000000)" fill-rule="nonzero">
            <path d="M4.125,2.875 C4.95508252,2.875 5.625,3.54491748 5.625,4.375 C5.625,5.20508252 4.95508252,5.875 4.125,5.875 C3.29491748,5.875 2.625,5.20508252 2.625,4.375 C2.625,3.54491748 3.29491748,2.875 4.125,2.875 Z" id="Shape" fill="#FFFFFF"></path>
            <polygon id="Shape" fill="#EAF3F9" points="10.625 14.7613994 9.59653111 16.875 4.125 16.875 7.96578471 9.875"></polygon>
            <polygon id="Shape" fill="#EAF3F9" points="14.3125 6.875 19.625 17 9 17 9.99860125 15.0892495"></polygon>
            <path d="M2.625,4.875 C2.625,5.84342961 3.29491748,6.625 4.125,6.625 C4.95508252,6.625 5.625,5.84342961 5.625,4.875 C5.625,3.90657039 4.95508252,3.125 4.125,3.125 C3.29491748,3.125 2.625,3.90671626 2.625,4.875 Z M0.625,0.875 L20.625,0.875 L20.625,17 L19.6250063,17 L14.125,7.625 L10.125,14.5 L7.25,10.75 L3.375,17 L0.625,17 L0.625,0.875 Z" id="Shape" fill="#CFDEE9"></path>
            <rect id="Rectangle-path" fill="#EAF3F9" x="0.5" y="1" width="1" height="16"></rect>
            <path d="M8.90844558,16.9991571 C8.81188454,16.9991571 8.7143886,16.9703761 8.62677582,16.9092719 C8.37649173,16.7374718 8.29983054,16.374389 8.45582404,16.0977966 L13.7972658,7.65173994 C13.8947617,7.47993979 14.0658471,7.375 14.2500209,7.375 C14.4340612,7.375 14.6051465,7.47993979 14.702776,7.65173994 L20.0436835,16.0954351 C20.2000777,16.3720274 20.1240843,16.736291 19.8740673,16.9092719 C19.6243174,17.0834336 19.2945675,16.9991571 19.1381733,16.7224171 L14.2500209,9.07883247 L9.36226913,16.7202032 C9.26090007,16.8999735 9.08674295,16.9991571 8.90844558,16.9991571 Z" id="Shape" fill="#7E97B2"></path>
            <path d="M3.45973826,17.375 C3.3436585,17.375 3.2264077,17.3359902 3.1242341,17.253803 C2.85957811,17.0415833 2.79546344,16.6274798 2.98136671,16.325571 L7.09041437,10.6589043 C7.20019976,10.4805264 7.3773202,10.4296803 7.57054249,10.375 C7.76142269,10.375 7.94029969,10.48186 8.04949956,10.6615716 L10.395795,13.8227682 C10.5811127,14.1248437 10.5152415,14.5391139 10.25,14.75 C9.98475849,14.9610528 9.62012461,14.8867008 9.43553877,14.5832917 L7.56776126,12.205791 L3.93942723,17.0912624 C3.82554318,17.2759752 3.64373857,17.375 3.45973826,17.375 Z" id="Shape" fill="#7E97B2"></path>
            <path d="M20.625003,17.875 L0.624997023,17.875 C0.348679588,17.875 0.125,17.6140411 0.125,17.2916715 L0.125,0.958328471 C0.125,0.635958898 0.348679588,0.375 0.624997023,0.375 L20.625003,0.375 C20.9013204,0.375 21.125,0.635958898 21.125,0.958328471 L21.125,17.2916715 C21.125,17.6140411 20.9013204,17.875 20.625003,17.875 Z M1.12499405,16.7083431 L20.125006,16.7083431 L20.125006,1.54165694 L1.12499405,1.54165694 L1.12499405,16.7083431 Z" id="Shape" fill="#7E97B2"></path>
            <path d="M4.125,6.75 C3.02197424,6.75 2.125,5.85352588 2.125,4.75 C2.125,3.64647412 3.02197424,2.75 4.125,2.75 C5.22802576,2.75 6.125,3.64647412 6.125,4.75 C6.125,5.85352588 5.22815079,6.75 4.125,6.75 Z M4.125,3.75 C3.57373718,3.75 3.125,4.19923731 3.125,4.75 C3.125,5.30076269 3.57373718,5.75 4.125,5.75 C4.67626282,5.75 5.125,5.30076269 5.125,4.75 C5.125,4.19923731 4.67638785,3.75 4.125,3.75 Z" id="Shape" fill="#7E97B2"></path>
        </g>
        <path d="M32.5,40 C22.2827321,40 14,31.7172679 14,21.5 C14,11.2827321 22.2827321,3 32.5,3 C42.7172679,3 51,11.2827321 51,21.5 C51,31.7172679 42.7172679,40 32.5,40 Z M32.5,39 C42.1649831,39 50,31.1649831 50,21.5 C50,11.8350169 42.1649831,4 32.5,4 C22.8350169,4 15,11.8350169 15,21.5 C15,31.1649831 22.8350169,39 32.5,39 Z" id="Combined-Shape" fill="#7E97B2" fill-rule="nonzero"></path>
        <circle id="Oval-7" fill="#EAF3F9" fill-rule="nonzero" cx="32.5" cy="21.5" r="17.5"></circle>
        <g id="Group-6" transform="translate(20.000000, 26.000000)" fill="#7E97B2" fill-rule="nonzero">
            <rect id="Rectangle" x="6.03448276" y="0" width="12.9310345" height="1" rx="0.5"></rect>
            <g id="Group-2" transform="translate(0.000000, 3.000000)">
                <rect id="Rectangle-Copy" x="0" y="0" width="15.5172414" height="1" rx="0.5"></rect>
                <rect id="Rectangle-Copy-7" x="17.2413793" y="0" width="7.75862069" height="1" rx="0.5"></rect>
            </g>
            <g id="Group-4" transform="translate(5.172414, 9.000000)">
                <rect id="Rectangle-Copy-5" x="0" y="0" width="4.39655172" height="1" rx="0.5"></rect>
                <rect id="Rectangle-Copy-6" x="5.86206897" y="0" width="8.79310345" height="1" rx="0.5"></rect>
            </g>
            <g id="Group-3" transform="translate(2.586207, 6.000000)">
                <rect id="Rectangle-Copy-3" x="0" y="0" width="16.5229885" height="1" rx="0.5"></rect>
                <rect id="Rectangle-Copy-4" x="17.6245211" y="0" width="2.20306513" height="1" rx="0.5"></rect>
            </g>
        </g>
        <rect id="Rectangle-Copy-9" fill="#B7CCDB" fill-rule="nonzero" x="27" y="21" width="11" height="1" rx="0.5"></rect>
        <g id="Group" transform="translate(25.000000, 18.000000)" fill="#7E97B2" fill-rule="nonzero">
            <rect id="Rectangle-Copy-7" x="0" y="0" width="15" height="1" rx="0.5"></rect>
        </g>
        <path d="M49.9989842,21.6933124 C49.8983026,31.2692409 42.3261646,39 33,39 C32.9177366,39 32.8356097,38.9993985 32.7536232,38.9981996 C32.6692253,38.9993985 32.5846829,39 32.5,39 C22.8350169,39 15,31.1649831 15,21.5 C15,11.8350169 22.8350169,4 32.5,4 C32.5846829,4 32.6692253,4.00060149 32.7536232,4.00180043 C32.8356097,4.00060149 32.9177366,4 33,4 C42.3261646,4 49.8983026,11.7307591 49.9989842,21.3066876 C49.8962296,11.8152295 42.2373797,4.13652515 32.7536232,4.00180043 C23.4783683,4.13743859 16,11.9196998 16,21.5 C16,31.0803002 23.4783683,38.8625614 32.7536232,38.9981996 C42.2373797,38.8634749 49.8962296,31.1847705 49.9989544,21.6933052 Z" id="Combined-Shape" fill="#FFFFFF" fill-rule="nonzero"></path>
        <path d="M35,9.5 C35,10.1997583 34.7168042,10.8167875 34.2677336,11.2660665 C33.8167875,11.7168042 33.1997583,12 32.5002084,12 C31.1167375,12 30,10.8834709 30,9.5 C30,8.11652913 31.1167375,7 32.5002084,7 C33.8836793,7 35,8.11673752 35,9.5 Z" id="Shape" fill="#B7CCDB" fill-rule="nonzero"></path>
    </g>
</svg>