<?xml version="1.0" encoding="UTF-8"?>
<svg  viewBox="0 0 64 64" version="1.1" xmlns="http://www.w3.org/2000/svg" xmlns:xlink="http://www.w3.org/1999/xlink">
    <!-- Generator: Sketch 52.1 (67048) - http://www.bohemiancoding.com/sketch -->
    <title>Icon/Large/Initial-survey/goals-business</title>
    <desc>Created with Sketch.</desc>
    <g id="Icon/Large/Initial-survey/goals-business" stroke="none" stroke-width="1" fill="none" fill-rule="evenodd">
        <g id="Group-5" fill-rule="nonzero">
            <rect id="Rectangle-2-Copy-6" x="0" y="0" width="64" height="64"></rect>
            <g id="10-portfolio,-case,-business,-job,-work,-optimization,-setting" transform="translate(0.000000, 3.000000)">
                <g id="Group" transform="translate(0.375000, 0.500000)">
                    <path d="M28.07275,39.991875 L35.067875,39.991875 L35.067875,33.016125 L35.067875,32.82675 L38.065875,32.82675 C48.699125,32.1865 55.794125,30.068875 59.63125,28.569375 L62.11975,27.492 L62.11975,51.983625 C62.11975,54.182375 60.321125,55.981 58.122375,55.981 L5.158625,55.981 C2.960875,55.981 1.16125,54.182375 1.16125,51.983625 L1.16125,27.653625 L2.01125,27.95025 C5.28925,29.3995 12.8535,32.087125 25.074625,32.826875 L28.0725,32.826875 L28.0725,33.01625 L28.0725,39.991875 L28.07275,39.991875 Z" id="Shape" fill="#5C9EFF"></path>
                    <path d="M35.067875,29.998625 L28.07275,29.998625 L28.07275,32.82675 L25.074875,32.82675 C12.853625,32.087 5.2895,29.399375 2.0115,27.950125 C0.722375,27.380125 0.091875,27.000625 0.091875,27.000625 L0.091875,13.01025 C0.091875,10.262125 2.340375,8.013625 5.0885,8.013625 L58.052375,8.013625 C60.800625,8.013625 63.049,10.262125 63.049,13.01025 L63.049,27.00075 C63.049,27.00075 61.930625,27.6805 59.6315,28.5695 C55.794375,30.068875 48.699375,32.186625 38.066125,32.826875 L35.068125,32.826875 L35.068125,29.998625 L35.067875,29.998625 Z" id="Shape" fill="#5C9EFF"></path>
                    <g transform="translate(1.125000, 27.375000)" fill="#2287FF" id="Shape">
                        <path d="M33.942875,7.4505 L36.940875,7.4505 C47.574125,6.81025 54.669125,4.692625 58.50625,3.193625 C59.607125,2.768125 60.428625,2.393375 60.99475,2.11425 L60.99475,0.117 L60.979125,0.12375 C60.41325,0.400875 59.59725,0.77275 58.50625,1.194375 C54.669125,2.69375 47.574125,4.8115 36.940875,5.45175 L33.942875,5.45175 L33.942875,5.641125 L33.942875,7.4505 Z"></path>
                        <path d="M0.036375,2.1825 C0.2785,2.298625 0.561375,2.430375 0.886375,2.573875 C4.164375,4.023125 11.728625,6.71075 23.94975,7.4505 L26.947625,7.4505 L26.947625,5.641125 L26.947625,5.45175 L23.94975,5.45175 C11.7285,4.712 4.164375,2.024375 0.886375,0.575125 L0.036375,0.2785 L0.036375,2.1825 Z"></path>
                    </g>
                    <g transform="translate(0.000000, 8.000000)" fill="#94C1FF" id="Shape">
                        <path d="M2.090375,19.000625 L2.090375,5.01025 C2.090375,2.262125 4.338875,0.013625 7.087,0.013625 L5.088375,0.013625 C2.340375,0.013625 0.09175,2.262125 0.09175,5.01025 L0.09175,19.00075 C0.09175,19.00075 0.72225,19.380375 2.011375,19.95025 L2.090375,19.000625 Z"></path>
                        <path d="M3.16,43.983625 L3.16,22.429875 C2.7365,22.260125 2.346125,22.096125 2.011375,21.94875 C1.686375,21.805375 1.403375,21.6735 1.161375,21.557375 L1.161375,43.9835 C1.161375,46.18225 2.960875,47.980875 5.15875,47.980875 L7.157375,47.980875 C4.9595,47.981 3.16,46.182375 3.16,43.983625 Z"></path>
                    </g>
                    <g transform="translate(56.000000, 8.000000)" fill="#2287FF" id="Shape">
                        <path d="M5.190875,19.000625 L5.190875,5.01025 C5.190875,2.262125 2.942375,0.013625 0.194,0.013625 L2.19275,0.013625 C4.94075,0.013625 7.189375,2.262125 7.189375,5.01025 L7.189375,19.00075 C7.189375,19.00075 6.56,19.380375 5.270625,19.95025 L5.190875,19.000625 Z"></path>
                        <path d="M4.121125,43.983625 L4.121125,21.99275 C4.545625,21.823 4.937,21.659875 5.27075,21.5125 C5.59575,21.368125 5.878875,21.237375 6.119875,21.12025 L6.119875,43.9835 C6.119875,46.18225 4.32225,47.980875 2.1225,47.980875 L0.124,47.980875 C2.32375,47.981 4.121125,46.182375 4.121125,43.983625 Z"></path>
                    </g>
                    <path d="M41.063,4.01625 L22.07575,4.01625 L22.07575,2.01775 C22.07575,2.01775 24.01875,0.019125 31.56925,0.019125 C39.11975,0.019125 41.062875,2.01775 41.062875,2.01775 L41.063,4.01625 Z" id="Shape" fill="#94C1FF"></path>
                    <path d="M31.569375,0.019 C24.018875,0.019 22.075875,2.017625 22.075875,2.017625 L22.075875,3.016875 C22.075875,3.016875 24.018875,1.01825 31.569375,1.01825 C39.119875,1.01825 41.063,3.016875 41.063,3.016875 L41.063,2.017625 C41.063,2.01775 39.119875,0.019 31.569375,0.019 Z" id="Shape" fill="#5C9EFF"></path>
                    <path d="M56.377625,54.0505 L54.379125,54.0505 C54.10275,54.0505 53.879375,53.827125 53.879375,53.550875 C53.879375,53.27475 54.10275,53.05125 54.379125,53.05125 L56.377625,53.05125 C56.65375,53.05125 56.877375,53.27475 56.877375,53.550875 C56.8775,53.827125 56.65375,54.0505 56.377625,54.0505 Z M52.380375,54.0505 L50.381875,54.0505 C50.1055,54.0505 49.882125,53.827125 49.882125,53.550875 C49.882125,53.27475 50.1055,53.05125 50.381875,53.05125 L52.380375,53.05125 C52.6565,53.05125 52.880125,53.27475 52.880125,53.550875 C52.880125,53.827125 52.6565,54.0505 52.380375,54.0505 Z M48.383,54.0505 L46.3845,54.0505 C46.108375,54.0505 45.88475,53.827125 45.88475,53.550875 C45.88475,53.27475 46.108375,53.05125 46.3845,53.05125 L48.383,53.05125 C48.659125,53.05125 48.88275,53.27475 48.88275,53.550875 C48.88275,53.827125 48.659125,54.0505 48.383,54.0505 Z M44.38575,54.0505 L42.38725,54.0505 C42.111125,54.0505 41.8875,53.827125 41.8875,53.550875 C41.8875,53.27475 42.111125,53.05125 42.38725,53.05125 L44.38575,53.05125 C44.662125,53.05125 44.8855,53.27475 44.8855,53.550875 C44.8855,53.827125 44.662125,54.0505 44.38575,54.0505 Z M40.388625,54.0505 L38.389875,54.0505 C38.11375,54.0505 37.890125,53.827125 37.890125,53.550875 C37.890125,53.27475 38.11375,53.05125 38.389875,53.05125 L40.388625,53.05125 C40.66475,53.05125 40.888125,53.27475 40.888125,53.550875 C40.888125,53.827125 40.66475,54.0505 40.388625,54.0505 Z M36.391375,54.0505 L34.392625,54.0505 C34.1165,54.0505 33.893125,53.827125 33.893125,53.550875 C33.893125,53.27475 34.1165,53.05125 34.392625,53.05125 L36.391375,53.05125 C36.6675,53.05125 36.890875,53.27475 36.890875,53.550875 C36.890875,53.827125 36.6675,54.0505 36.391375,54.0505 Z M32.394,54.0505 L30.39525,54.0505 C30.119125,54.0505 29.895625,53.827125 29.895625,53.550875 C29.895625,53.27475 30.119125,53.05125 30.39525,53.05125 L32.394,53.05125 C32.670125,53.05125 32.8935,53.27475 32.8935,53.550875 C32.8935,53.827125 32.670125,54.0505 32.394,54.0505 Z M28.396625,54.0505 L26.398,54.0505 C26.121875,54.0505 25.89825,53.827125 25.89825,53.550875 C25.89825,53.27475 26.12175,53.05125 26.398,53.05125 L28.396625,53.05125 C28.672875,53.05125 28.896375,53.27475 28.896375,53.550875 C28.896375,53.827125 28.672875,54.0505 28.396625,54.0505 Z M24.399375,54.0505 L22.40075,54.0505 C22.1245,54.0505 21.901,53.827125 21.901,53.550875 C21.901,53.27475 22.1245,53.05125 22.40075,53.05125 L24.399375,53.05125 C24.6755,53.05125 24.899125,53.27475 24.899125,53.550875 C24.899125,53.827125 24.675625,54.0505 24.399375,54.0505 Z M20.402125,54.0505 L18.4035,54.0505 C18.127375,54.0505 17.903875,53.827125 17.903875,53.550875 C17.903875,53.27475 18.127375,53.05125 18.4035,53.05125 L20.402125,53.05125 C20.67825,53.05125 20.90175,53.27475 20.90175,53.550875 C20.90175,53.827125 20.67825,54.0505 20.402125,54.0505 Z M16.404875,54.0505 L14.40625,54.0505 C14.130125,54.0505 13.906625,53.827125 13.906625,53.550875 C13.906625,53.27475 14.130125,53.05125 14.40625,53.05125 L16.404875,53.05125 C16.681125,53.05125 16.904625,53.27475 16.904625,53.550875 C16.9045,53.827125 16.681125,54.0505 16.404875,54.0505 Z M12.407625,54.0505 L10.409,54.0505 C10.13275,54.0505 9.90925,53.827125 9.90925,53.550875 C9.90925,53.27475 10.13275,53.05125 10.409,53.05125 L12.407625,53.05125 C12.68375,53.05125 12.907375,53.27475 12.907375,53.550875 C12.90725,53.827125 12.68375,54.0505 12.407625,54.0505 Z M8.410375,54.0505 L6.411625,54.0505 C6.1355,54.0505 5.912,53.827125 5.912,53.550875 C5.912,53.27475 6.1355,53.05125 6.411625,53.05125 L8.41025,53.05125 C8.686375,53.05125 8.909875,53.27475 8.909875,53.550875 C8.91,53.827125 8.6865,54.0505 8.410375,54.0505 Z M58.339125,53.791 C58.149,53.791 57.966625,53.680625 57.8835,53.495375 C57.77025,53.2435 57.8835,52.947875 58.13525,52.834625 C58.64375,52.60625 59.068125,52.209125 59.33075,51.715375 C59.460375,51.471375 59.764875,51.37775 60.006,51.5085 C60.249875,51.63825 60.342625,51.94075 60.21275,52.18375 C59.84675,52.87375 59.2535,53.428 58.543125,53.746125 C58.47675,53.776375 58.4075,53.791 58.339125,53.791 Z M4.510625,53.55675 C4.416,53.55675 4.320375,53.5295 4.235375,53.473875 C3.5825,53.0435 3.08675,52.399375 2.838875,51.661625 C2.751,51.4 2.8915,51.117125 3.153125,51.029125 C3.41475,50.941375 3.697625,51.081875 3.7855,51.3435 C3.963125,51.8705 4.318375,52.331 4.78575,52.639375 C5.016125,52.79175 5.0795,53.102 4.92725,53.33225 C4.83175,53.47675 4.672625,53.55675 4.510625,53.55675 Z M60.118375,50.508 C59.842,50.508 59.618625,50.283625 59.618625,50.008375 L59.618625,48.00975 C59.618625,47.732625 59.842,47.510125 60.118375,47.510125 C60.3945,47.510125 60.617875,47.732625 60.617875,48.00975 L60.617875,50.008375 C60.617875,50.28375 60.3945,50.508 60.118375,50.508 Z M3.157,50.021125 C2.880875,50.021125 2.657375,49.797625 2.657375,49.5215 L2.657375,47.522875 C2.657375,47.246625 2.880875,47.02325 3.157,47.02325 C3.433125,47.02325 3.656625,47.246625 3.656625,47.522875 L3.656625,49.5215 C3.656625,49.797625 3.43325,50.021125 3.157,50.021125 Z M60.118375,46.51075 C59.842,46.51075 59.618625,46.286375 59.618625,46.011125 L59.618625,44.0125 C59.618625,43.735375 59.842,43.512875 60.118375,43.512875 C60.3945,43.512875 60.617875,43.735375 60.617875,44.0125 L60.617875,46.011125 C60.617875,46.286375 60.3945,46.51075 60.118375,46.51075 Z M3.157,46.02375 C2.880875,46.02375 2.657375,45.80025 2.657375,45.524125 L2.657375,43.5255 C2.657375,43.249375 2.880875,43.025875 3.157,43.025875 C3.433125,43.025875 3.656625,43.249375 3.656625,43.5255 L3.656625,45.524125 C3.656625,45.80025 3.43325,46.02375 3.157,46.02375 Z M60.118375,42.5135 C59.842,42.5135 59.618625,42.289 59.618625,42.013875 L59.618625,40.01525 C59.618625,39.738 59.842,39.515625 60.118375,39.515625 C60.3945,39.515625 60.617875,39.738 60.617875,40.01525 L60.617875,42.013875 C60.617875,42.289 60.3945,42.5135 60.118375,42.5135 Z M3.157,42.026625 C2.880875,42.026625 2.657375,41.803125 2.657375,41.526875 L2.657375,39.528375 C2.657375,39.252125 2.880875,39.028625 3.157,39.028625 C3.433125,39.028625 3.656625,39.252125 3.656625,39.528375 L3.656625,41.526875 C3.656625,41.803125 3.43325,42.026625 3.157,42.026625 Z M60.118375,38.51625 C59.842,38.51625 59.618625,38.29175 59.618625,38.016625 L59.618625,36.018 C59.618625,35.740875 59.842,35.518375 60.118375,35.518375 C60.3945,35.518375 60.617875,35.740875 60.617875,36.018 L60.617875,38.016625 C60.617875,38.29175 60.3945,38.51625 60.118375,38.51625 Z M3.157,38.02925 C2.880875,38.02925 2.657375,37.80575 2.657375,37.529625 L2.657375,35.531 C2.657375,35.25475 2.880875,35.03125 3.157,35.03125 C3.433125,35.03125 3.656625,35.25475 3.656625,35.531 L3.656625,37.529625 C3.656625,37.80575 3.43325,38.02925 3.157,38.02925 Z M60.118375,34.519 C59.842,34.519 59.618625,34.2945 59.618625,34.01925 L59.618625,32.02075 C59.618625,31.7435 59.842,31.521 60.118375,31.521 C60.3945,31.521 60.617875,31.7435 60.617875,32.02075 L60.617875,34.01925 C60.617875,34.2945 60.3945,34.519 60.118375,34.519 Z M3.157,34.032 C2.880875,34.032 2.657375,33.808625 2.657375,33.532375 L2.657375,31.53375 C2.657375,31.257625 2.880875,31.034125 3.157,31.034125 C3.433125,31.034125 3.656625,31.257625 3.656625,31.53375 L3.656625,33.532375 C3.656625,33.808625 3.43325,34.032 3.157,34.032 Z" id="Shape" fill="#116FFF"></path>
                    <g transform="translate(1.500000, 11.000000)" fill="#116FFF" id="Shape">
                        <path d="M0.589375,14.07025 C0.31325,14.07025 0.08975,13.84675 0.08975,13.570625 L0.08975,12.57125 C0.08975,12.295125 0.31325,12.0715 0.589375,12.0715 C0.8655,12.0715 1.089,12.295 1.089,12.57125 L1.089,13.570625 C1.089,13.846875 0.865625,14.07025 0.589375,14.07025 Z"></path>
                        <path d="M0.589375,10.872375 C0.31325,10.872375 0.08975,10.648875 0.08975,10.37275 L0.08975,8.174 C0.08975,7.897875 0.31325,7.674375 0.589375,7.674375 C0.8655,7.674375 1.089,7.897875 1.089,8.174 L1.089,10.37275 C1.089,10.64875 0.865625,10.872375 0.589375,10.872375 Z M0.589375,6.475375 C0.31325,6.475375 0.08975,6.251875 0.08975,5.975625 L0.08975,3.777 C0.08975,3.500875 0.31325,3.27725 0.589375,3.27725 C0.8655,3.27725 1.089,3.50075 1.089,3.777 L1.089,5.975625 C1.089,6.252 0.865625,6.475375 0.589375,6.475375 Z"></path>
                        <path d="M0.589375,2.0785 C0.31325,2.0785 0.08975,1.855 0.08975,1.578875 L0.08975,0.5795 C0.08975,0.303375 0.31325,0.07975 0.589375,0.07975 C0.8655,0.07975 1.089,0.30325 1.089,0.5795 L1.089,1.578875 C1.089,1.855 0.865625,2.0785 0.589375,2.0785 Z"></path>
                    </g>
                    <path d="M61.049375,25.07025 C60.77325,25.07025 60.549625,24.84675 60.549625,24.570625 L60.549625,22.572 C60.549625,22.295875 60.77325,22.072375 61.049375,22.072375 C61.3255,22.072375 61.549125,22.295875 61.549125,22.572 L61.549125,24.570625 C61.549125,24.846875 61.3255,25.07025 61.049375,25.07025 Z M61.049375,21.073 C60.77325,21.073 60.549625,20.8495 60.549625,20.57325 L60.549625,18.574625 C60.549625,18.2985 60.77325,18.074875 61.049375,18.074875 C61.3255,18.074875 61.549125,18.298375 61.549125,18.574625 L61.549125,20.57325 C61.549125,20.849625 61.3255,21.073 61.049375,21.073 Z M61.049375,17.07575 C60.77325,17.07575 60.549625,16.85225 60.549625,16.576 L60.549625,14.5775 C60.549625,14.30125 60.77325,14.07775 61.049375,14.07775 C61.3255,14.07775 61.549125,14.30125 61.549125,14.5775 L61.549125,16.576125 C61.549125,16.85225 61.3255,17.07575 61.049375,17.07575 Z M61.049375,13.0785 C60.77325,13.0785 60.549625,12.855 60.549625,12.578875 L60.549625,11.5795 C60.549625,11.303375 60.77325,11.07975 61.049375,11.07975 C61.3255,11.07975 61.549125,11.30325 61.549125,11.5795 L61.549125,12.578875 C61.549125,12.855 61.3255,13.0785 61.049375,13.0785 Z" id="Shape" fill="#116FFF"></path>
                    <path d="M34.067625,52.052 C33.7915,52.052 33.568125,51.8285 33.568125,51.55225 L33.568125,49.55375 C33.568125,49.2775 33.7915,49.054 34.067625,49.054 C34.34375,49.054 34.567375,49.2775 34.567375,49.55375 L34.567375,51.55225 C34.567375,51.8285 34.34375,52.052 34.067625,52.052 Z M34.067625,48.05475 C33.7915,48.05475 33.568125,47.83125 33.568125,47.555125 L33.568125,45.5565 C33.568125,45.280375 33.7915,45.056875 34.067625,45.056875 C34.34375,45.056875 34.567375,45.280375 34.567375,45.5565 L34.567375,47.555125 C34.567375,47.831125 34.34375,48.05475 34.067625,48.05475 Z M34.067625,44.057375 C33.7915,44.057375 33.568125,43.834 33.568125,43.55775 L33.568125,41.559125 C33.568125,41.283 33.7915,41.0595 34.067625,41.0595 C34.34375,41.0595 34.567375,41.283 34.567375,41.559125 L34.567375,43.55775 C34.567375,43.834 34.34375,44.057375 34.067625,44.057375 Z" id="Shape" fill="#116FFF"></path>
                    <path d="M29.071,52.052 C28.794875,52.052 28.57125,51.8285 28.57125,51.55225 L28.57125,49.55375 C28.57125,49.2775 28.79475,49.054 29.071,49.054 C29.34725,49.054 29.57075,49.2775 29.57075,49.55375 L29.57075,51.55225 C29.57075,51.8285 29.34725,52.052 29.071,52.052 Z M29.071,48.05475 C28.794875,48.05475 28.57125,47.83125 28.57125,47.555125 L28.57125,45.5565 C28.57125,45.280375 28.79475,45.056875 29.071,45.056875 C29.34725,45.056875 29.57075,45.280375 29.57075,45.5565 L29.57075,47.555125 C29.57075,47.831125 29.34725,48.05475 29.071,48.05475 Z M29.071,44.057375 C28.794875,44.057375 28.57125,43.834 28.57125,43.55775 L28.57125,41.559125 C28.57125,41.283 28.79475,41.0595 29.071,41.0595 C29.34725,41.0595 29.57075,41.283 29.57075,41.559125 L29.57075,43.55775 C29.57075,43.834 29.34725,44.057375 29.071,44.057375 Z" id="Shape" fill="#116FFF"></path>
                    <polygon id="Rectangle-path" fill="#FFFFFF" points="28.07275 32.58475 29.071125 32.58475 29.071125 39.58 28.07275 39.58"></polygon>
                </g>
                <path d="M32,31.497875 C32.829625,31.497875 33.499125,32.16725 33.499125,32.996875 C33.499125,33.826375 32.82975,34.49575 32,34.49575 C31.1705,34.49575 30.501125,33.826375 30.501125,32.996875 C30.501,32.167375 31.1705,31.497875 32,31.497875 Z" id="Shape" fill="#D7E9FF"></path>
                <path d="M32,34.495875 C32.829625,34.495875 33.499125,33.8265 33.499125,32.997 C33.499125,32.167375 32.82975,31.498 32,31.498 C31.1705,31.498 30.501125,32.167375 30.501125,32.997 C30.501,33.826375 31.1705,34.495875 32,34.495875 Z M32,28.5 C34.478875,28.5 36.496875,30.50825 36.496875,32.997 C36.496875,35.47575 34.47875,37.494 32,37.494 C29.5115,37.494 27.503125,35.47575 27.503125,32.997 C27.503,30.50825 29.511375,28.5 32,28.5 Z" id="Shape" fill="#94C1FF"></path>
                <path d="M28.502375,32.997 C28.502375,30.68025 30.250125,28.801125 32.49875,28.55025 C32.33275,28.53175 32.170625,28.5 32,28.5 C29.5115,28.5 27.503125,30.50825 27.503125,32.997 C27.503125,35.47575 29.5115,37.494 32,37.494 C32.17075,37.494 32.332875,37.46275 32.498875,37.44325 C30.250125,37.19125 28.502375,35.304 28.502375,32.997 Z" id="Shape" fill="#5C9EFF"></path>
                <path d="M35.4975,32.997 C35.4975,35.31375 33.74975,37.19325 31.50125,37.443125 C31.667125,37.462625 31.829125,37.493875 31.999875,37.493875 C34.4885,37.493875 36.49675,35.4855 36.49675,32.996875 C36.496875,30.518125 34.4885,28.5 32,28.5 C31.82925,28.5 31.66725,28.53175 31.501375,28.55075 C33.74975,28.8025 35.4975,30.69 35.4975,32.997 Z" id="Shape" fill="#5C9EFF"></path>
                <path d="M32,37.493875 C34.478875,37.493875 36.496875,35.475625 36.496875,32.996875 C36.496875,30.50825 34.47875,28.5 32,28.5 C29.5115,28.5 27.503125,30.50825 27.503125,32.997 C27.503,35.47575 29.511375,37.493875 32,37.493875 Z M22.366875,30.498625 C22.916375,30.498625 23.685375,29.579375 23.835625,29.2495 C23.995625,28.919625 23.805375,28.34 23.416,27.9505 L23.166125,27.700625 C22.77575,27.31075 22.77575,26.671125 23.166125,26.28125 L25.284875,24.163125 C25.67425,23.77325 26.3135,23.77325 26.703875,24.163125 L26.95375,24.413 C27.343125,24.802375 28.522,24.702875 28.872375,24.582875 C29.212,24.46275 29.50175,23.913375 29.50175,23.3635 L29.50175,23.003875 C29.50175,22.454375 29.95175,22.0045 30.501125,22.0045 L33.499125,22.0045 C34.0485,22.0045 34.498375,22.454375 34.498375,23.003875 L34.498375,23.3635 C34.498375,23.913375 35.417625,24.682875 35.747625,24.832625 C36.0775,24.99275 36.657,24.802375 37.0465,24.413 L37.29625,24.163125 C37.686625,23.77325 38.32575,23.77325 38.71525,24.163125 L40.833875,26.28125 C41.22425,26.671125 41.22425,27.310875 40.833875,27.700625 L40.584125,27.9505 C40.19475,28.339875 40.294375,29.51875 40.4145,29.869125 C40.534375,30.2195 41.083875,30.498625 41.63325,30.498625 L41.993375,30.498625 C42.542875,30.498625 42.992625,30.9485 42.992625,31.497875 L42.992625,32.6475 L42.992625,34.49575 C42.992625,35.04525 42.542875,35.495125 41.993375,35.495125 L41.63325,35.495125 C41.083875,35.495125 40.314875,36.414375 40.1645,36.74425 C40.004625,37.074125 40.19475,37.65375 40.584125,38.043125 L40.833875,38.293 C41.22425,38.682375 41.22425,39.322625 40.833875,39.712875 L38.71525,41.830625 C38.325875,42.220875 37.686625,42.220875 37.29625,41.830625 L37.0465,41.58075 C36.657125,41.191375 35.478125,41.290875 35.12775,41.411 C34.788125,41.531 34.498375,42.080375 34.498375,42.630875 L34.498375,42.99 C34.498375,43.5395 34.048375,43.989375 33.499125,43.989375 L30.501125,43.989375 C29.951625,43.989375 29.50175,43.539375 29.50175,42.99 L29.50175,42.630875 C29.50175,42.0805 28.5825,41.311375 28.252625,41.161125 C27.92275,41.001125 27.343125,41.191375 26.95375,41.58075 L26.703875,41.830625 C26.3135,42.220875 25.67425,42.220875 25.284875,41.830625 L23.166125,39.712875 C22.77575,39.322625 22.77575,38.682375 23.166125,38.293 L23.416,38.043125 C23.805375,37.653875 23.705875,36.474875 23.58575,36.1245 C23.46575,35.784875 22.916375,35.495125 22.366875,35.495125 L22.00675,35.495125 C21.45725,35.495125 21.0075,35.045125 21.0075,34.49575 L21.0075,32.6475 L21.0075,31.497875 C21.0075,30.948375 21.457375,30.498625 22.00675,30.498625 L22.366875,30.498625 Z" id="Shape" fill="#D7E9FF"></path>
                <path d="M26.284125,41.83075 L24.1655,39.713 C23.775125,39.32275 23.775125,38.6825 24.1655,38.293125 L24.415375,38.04325 C24.80475,37.654 24.70525,36.475 24.58525,36.124625 C24.465125,35.785 23.91575,35.49525 23.366375,35.49525 L23.00625,35.49525 C22.45675,35.49525 22.006875,35.04525 22.006875,34.495875 L22.006875,32.647625 L22.006875,31.498 C22.006875,30.9485 22.45675,30.49875 23.00625,30.49875 L23.366375,30.49875 C23.915875,30.49875 24.68475,29.5795 24.835125,29.249625 C24.99525,28.91975 24.804875,28.340125 24.4155,27.950625 L24.165625,27.70075 C23.77525,27.310875 23.77525,26.67125 24.165625,26.281375 L26.28425,24.16325 C26.34575,24.10175 26.421875,24.066625 26.494125,24.02425 C26.109625,23.80025 25.612875,23.835375 25.285,24.16325 L23.16625,26.281375 C22.775875,26.67125 22.775875,27.311 23.16625,27.70075 L23.416125,27.950625 C23.8055,28.34 23.995875,28.91975 23.83575,29.249625 C23.6855,29.5795 22.9165,30.49875 22.367,30.49875 L22.006875,30.49875 C21.457375,30.49875 21.007625,30.948625 21.007625,31.498 L21.007625,32.647625 L21.007625,34.495875 C21.007625,35.045375 21.4575,35.49525 22.006875,35.49525 L22.367,35.49525 C22.9165,35.49525 23.465875,35.785 23.585875,36.124625 C23.705875,36.475 23.8055,37.653875 23.416125,38.04325 L23.16625,38.293125 C22.775875,38.6825 22.775875,39.32275 23.16625,39.713 L25.285,41.83075 C25.612875,42.158625 26.109625,42.19375 26.494125,41.96925 C26.42175,41.927375 26.345625,41.89225 26.284125,41.83075 Z" id="Shape" fill="#FFFFFF"></path>
                <path d="M37.715875,41.83075 L39.8345,39.713 C40.224875,39.32275 40.224875,38.6825 39.8345,38.293125 L39.58475,38.04325 C39.195375,37.654 39.295,36.475 39.414875,36.124625 C39.535,35.785 40.08425,35.49525 40.633875,35.49525 L40.994,35.49525 C41.543375,35.49525 41.99325,35.04525 41.99325,34.495875 L41.99325,32.647625 L41.99325,31.498 C41.99325,30.9485 41.54325,30.49875 40.994,30.49875 L40.633875,30.49875 C40.084375,30.49875 39.3155,29.5795 39.165125,29.249625 C39.005,28.91975 39.195375,28.340125 39.58475,27.950625 L39.8345,27.70075 C40.224875,27.310875 40.224875,26.67125 39.8345,26.281375 L37.715875,24.16325 C37.654375,24.10175 37.578125,24.066625 37.506125,24.02425 C37.890625,23.80025 38.38725,23.835375 38.715125,24.16325 L40.83375,26.281375 C41.224125,26.67125 41.224125,27.311 40.83375,27.70075 L40.584,27.950625 C40.194625,28.34 40.004375,28.91975 40.164375,29.249625 C40.31475,29.5795 41.08375,30.49875 41.633125,30.49875 L41.99325,30.49875 C42.54275,30.49875 42.9925,30.948625 42.9925,31.498 L42.9925,32.647625 L42.9925,34.495875 C42.9925,35.045375 42.54275,35.49525 41.99325,35.49525 L41.633125,35.49525 C41.08375,35.49525 40.53425,35.785 40.414375,36.124625 C40.29425,36.475 40.194625,37.653875 40.584,38.04325 L40.83375,38.293125 C41.224125,38.6825 41.224125,39.32275 40.83375,39.713 L38.715125,41.83075 C38.38725,42.158625 37.890625,42.19375 37.506125,41.96925 C37.578125,41.927375 37.65425,41.89225 37.715875,41.83075 Z" id="Shape" fill="#94C1FF"></path>
                <g id="Group" fill="#116FFF">
                    <path d="M32,37.9935 C29.245125,37.9935 27.003375,35.75175 27.003375,32.996875 C27.003375,30.241875 29.245125,28.00025 32,28.00025 C34.755,28.00025 36.996625,30.241875 36.996625,32.996875 C36.996625,35.751875 34.754875,37.9935 32,37.9935 Z M32,28.999625 C29.7955,28.999625 28.00275,30.793375 28.00275,32.997 C28.00275,35.2005 29.7955,36.99425 32,36.99425 C34.204625,36.99425 35.997375,35.2005 35.997375,32.997 C35.997375,30.793375 34.204625,28.999625 32,28.999625 Z" id="Shape"></path>
                    <path d="M32,34.995625 C30.89825,34.995625 30.001375,34.099625 30.001375,32.997 C30.001375,31.89425 30.89825,30.998375 32,30.998375 C33.101875,30.998375 33.998625,31.89425 33.998625,32.997 C33.9985,34.099625 33.10175,34.995625 32,34.995625 Z M32,31.9975 C31.448625,31.9975 31.00075,32.4465 31.00075,32.996875 C31.00075,33.54725 31.448625,33.996125 32,33.996125 C32.551375,33.996125 32.999375,33.54725 32.999375,32.996875 C32.999375,32.4465 32.55125,31.9975 32,31.9975 Z" id="Shape"></path>
                    <path d="M33.499,44.489 L30.501,44.489 C29.674375,44.489 29.002,43.816625 29.002,42.990125 L29.002,42.631 C29,42.392875 28.328625,41.744875 28.045625,41.616125 C27.832,41.614125 27.5235,41.717625 27.306875,41.93425 L27.057,42.184125 C26.491,42.75 25.4955,42.75 24.9315,42.184125 L22.81275,40.066375 C22.52975,39.783375 22.373625,39.40575 22.373625,39.002625 C22.373625,38.600625 22.52975,38.222 22.81275,37.938875 L23.062625,37.69 C23.221625,37.531125 23.232375,36.633125 23.113375,36.286625 C23.07725,36.20575 22.768875,35.994875 22.36675,35.994875 L22.006625,35.994875 C21.180125,35.994875 20.507625,35.3225 20.507625,34.495875 L20.507625,31.498 C20.507625,30.6715 21.18,29.999125 22.006625,29.999125 L22.36675,29.999125 C22.60975,29.99625 23.249,29.333 23.38075,29.04225 C23.42075,28.949 23.3505,28.591375 23.062625,28.304 L22.81275,28.054125 C22.52975,27.771625 22.373625,27.394 22.373625,26.990875 C22.373625,26.588375 22.52975,26.210625 22.81275,25.927625 L24.9315,23.81 C25.4955,23.2445 26.491,23.244 27.057,23.8095 L27.306875,24.05975 C27.341,24.0935 27.543,24.19 28.0105,24.19 C28.331625,24.19 28.613625,24.143125 28.71025,24.109875 C28.791125,24.07425 29.002,23.765375 29.002,23.363375 L29.002,23.00375 C29.002,22.177125 29.674375,21.50475 30.501,21.50475 L33.499,21.50475 C34.325375,21.50475 34.998,22.177125 34.998,23.00375 L34.998,23.363375 C35,23.6015 35.671375,24.249 35.95425,24.377875 C36.1845,24.3925 36.47725,24.27675 36.693,24.05975 L36.94275,23.809875 C37.508875,23.243375 38.50425,23.244375 39.06825,23.809875 L41.186875,25.928 C41.470125,26.2105 41.626125,26.58825 41.626125,26.99075 C41.626125,27.393875 41.470125,27.7715 41.186875,28.0545 L40.937125,28.303875 C40.778,28.463375 40.7675,29.36025 40.886375,29.70725 C40.9205,29.792125 41.224,29.999125 41.633,29.999125 L41.993125,29.999125 C42.81975,29.999125 43.492125,30.6715 43.492125,31.498 L43.492125,34.495875 C43.492125,35.3225 42.81975,35.994875 41.993125,35.994875 L41.633,35.994875 C41.390125,35.99775 40.750875,36.660375 40.619125,36.95125 C40.579125,37.044875 40.649375,37.402 40.93725,37.689875 L41.187,37.93975 C41.47025,38.221875 41.62625,38.6005 41.62625,39.0025 C41.62625,39.405625 41.47025,39.78325 41.187,40.06625 L39.068375,42.184 C38.504375,42.749875 37.509,42.749875 36.942875,42.184 L36.693125,41.934125 C36.659,41.900875 36.457,41.803375 35.9895,41.803375 C35.6685,41.803375 35.3865,41.850125 35.28975,41.883375 C35.20875,41.9195 34.998,42.228875 34.998,42.630875 L34.998,42.99 C34.998,43.816625 34.3255,44.489 33.499,44.489 Z M27.976375,40.605 C28.157875,40.605 28.32475,40.640125 28.470125,40.712375 C28.83125,40.875375 30.001375,41.775125 30.001375,42.631 L30.001375,42.990125 C30.001375,43.265375 30.22575,43.48975 30.501125,43.48975 L33.499125,43.48975 C33.77425,43.48975 33.998625,43.265375 33.998625,42.990125 L33.998625,42.631 C33.998625,41.86 34.4125,41.133875 34.961,40.94075 C35.203875,40.856875 35.605,40.804125 35.989625,40.804125 C36.644375,40.804125 37.11875,40.946625 37.39975,41.22775 L37.6495,41.477625 C37.839,41.665875 38.17275,41.665875 38.361875,41.477625 L40.4805,39.359875 C40.57525,39.26425 40.627,39.138375 40.627,39.00275 C40.627,38.868125 40.57525,38.74125 40.4805,38.6475 L40.23075,38.396625 C39.754375,37.920375 39.424625,37.125125 39.714375,36.525875 C39.879375,36.16575 40.779125,34.99575 41.633125,34.99575 L41.99325,34.99575 C42.268375,34.99575 42.493,34.77125 42.493,34.496 L42.493,31.498125 C42.493,31.222875 42.268375,30.9985 41.99325,30.9985 L41.633125,30.9985 C40.974375,30.9985 40.1575,30.658875 39.942,30.031375 C39.82575,29.69275 39.603375,28.225 40.230875,27.5975 L40.480625,27.347625 C40.575375,27.2535 40.627125,27.126625 40.627125,26.990875 C40.627125,26.85575 40.575375,26.729375 40.480625,26.635125 L38.362,24.5165 C38.17275,24.328125 37.839,24.327625 37.649625,24.517 L37.399875,24.766375 C36.865,25.30025 36.048375,25.53625 35.53,25.282125 C35.168875,25.118625 33.99875,24.218875 33.99875,23.3635 L33.99875,23.003875 C33.99875,22.728125 33.774375,22.504125 33.49925,22.504125 L30.50125,22.504125 C30.226,22.504125 30.0015,22.728125 30.0015,23.003875 L30.0015,23.3635 C30.0015,24.1335 29.58775,24.86 29.03925,25.05375 C28.79625,25.137125 28.395125,25.189375 28.010625,25.189375 C27.35575,25.189375 26.8815,25.047375 26.6005,24.766375 L26.350625,24.5165 C26.255875,24.422375 26.13,24.370625 25.994375,24.370625 C25.85875,24.370625 25.73275,24.422375 25.638125,24.5165 L23.519375,26.634625 C23.42475,26.729375 23.373,26.85575 23.373,26.990875 C23.373,27.1265 23.42475,27.2535 23.519375,27.347125 L23.76925,27.5975 C24.2455,28.07375 24.575375,28.869125 24.2855,29.46775 C24.120625,29.828375 23.22075,30.9985 22.366875,30.9985 L22.00675,30.9985 C21.7315,30.9985 21.507125,31.222875 21.507125,31.498125 L21.507125,34.496 C21.507125,34.77125 21.7315,34.99575 22.00675,34.99575 L22.366875,34.99575 C23.135875,34.99575 23.863,35.4095 24.057125,35.957875 C24.17425,36.301375 24.39675,37.769125 23.76925,38.396625 L23.519375,38.6465 C23.42475,38.74125 23.373,38.868 23.373,39.00275 C23.373,39.138375 23.42475,39.264375 23.519375,39.359 L25.638125,41.47775 C25.8275,41.666 26.16125,41.667 26.3505,41.47775 L26.600375,41.227875 C26.98475,40.843125 27.51175,40.605 27.976375,40.605 Z" id="Shape"></path>
                    <path d="M25.00475,33.496625 C24.728625,33.496625 24.505125,33.273125 24.505125,32.997 C24.505125,28.864125 27.867125,25.502125 32,25.502125 C32.276125,25.502125 32.499875,25.725625 32.499875,26.001875 C32.499875,26.278 32.27625,26.5015 32,26.5015 C28.4185,26.5015 25.5045,29.4155 25.5045,32.997125 C25.504375,33.273125 25.281,33.496625 25.00475,33.496625 Z" id="Shape"></path>
                    <path d="M32,40.491875 C31.723875,40.491875 31.500375,40.268375 31.500375,39.99225 C31.500375,39.716 31.723875,39.4925 32,39.4925 C35.581625,39.4925 38.495625,36.5785 38.495625,32.997 C38.495625,32.72075 38.719,32.497375 38.995125,32.497375 C39.2715,32.497375 39.494875,32.72075 39.494875,32.997 C39.494875,37.129875 36.13275,40.491875 32,40.491875 Z" id="Shape"></path>
                    <path d="M58.55225,56.980625 L5.588375,56.980625 C3.108625,56.980625 1.091375,54.963375 1.091375,52.483625 L1.091375,30.498625 C1.091375,30.222375 1.314875,29.999 1.591,29.999 C1.867125,29.999 2.090625,30.222375 2.090625,30.498625 L2.090625,52.483625 C2.090625,54.412 3.659875,55.981125 5.58825,55.981125 L58.552125,55.981125 C60.480625,55.981125 62.049625,54.411875 62.049625,52.483625 L62.049625,30.498625 C62.049625,30.222375 62.27325,29.999 62.549375,29.999 C62.8255,29.999 63.048875,30.222375 63.048875,30.498625 L63.048875,52.483625 C63.049125,54.963375 61.032,56.980625 58.55225,56.980625 Z" id="Shape"></path>
                    <path d="M45.48975,33.14725 C45.243875,33.14725 45.03025,32.96575 44.996125,32.714875 C44.958,32.44075 45.150125,32.188875 45.423625,32.151875 C56.011,30.705625 61.767875,27.859375 62.979,27.207375 L62.979,13.51025 C62.979,11.0305 60.961625,9.01325 58.481875,9.01325 L5.518,9.01325 C3.03825,9.01325 1.021,11.030375 1.021,13.51025 L1.021,27.2075 C2.232,27.859375 7.988875,30.705625 18.576375,32.152 C18.84975,32.189 19.041875,32.440875 19.003875,32.715 C18.96675,32.988375 18.707125,33.17475 18.44175,33.1425 C6.2685,31.478375 0.502875,28.073 0.26375,27.928625 C0.1135,27.838375 0.02175,27.675875 0.02175,27.50075 L0.02175,13.51025 C0.02175,10.4795 2.487875,8.014 5.518,8.014 L58.481875,8.014 C61.512125,8.014 63.97825,10.479625 63.97825,13.51025 L63.97825,27.50075 C63.97825,27.675875 63.8865,27.838375 63.736,27.928625 C63.497,28.073 57.731375,31.478375 45.558,33.142375 C45.535625,33.14525 45.51225,33.14725 45.48975,33.14725 Z" id="Shape"></path>
                    <path d="M48.48875,12.01125 L15.511125,12.01125 C15.235,12.01125 15.0115,11.78775 15.0115,11.5115 C15.0115,11.23525 15.235,11.01175 15.511125,11.01175 L48.48875,11.01175 C48.764875,11.01175 48.9885,11.23525 48.9885,11.5115 C48.9885,11.78775 48.764875,12.01125 48.48875,12.01125 Z" id="Shape"></path>
                    <path d="M41.493375,5.016 L22.506375,5.016 C22.23025,5.016 22.00675,4.7925 22.00675,4.51625 L22.00675,2.51775 C22.00675,2.387875 22.0575,2.263 22.14825,2.169875 C22.23325,2.082 24.322625,0.0195 31.999875,0.0195 C39.677375,0.0195 41.76675,2.082 41.8515,2.169875 C41.942375,2.263 41.993125,2.388 41.993125,2.51775 L41.993125,4.51625 C41.993125,4.7925 41.76975,5.016 41.493375,5.016 Z M23.006,4.016625 L40.993875,4.016625 L40.993875,2.754875 C40.4365,2.35575 38.110125,1.01875 31.999875,1.01875 C25.9005,1.01875 23.572,2.350875 23.006,2.755875 L23.006,4.016625 Z" id="Shape"></path>
                    <path d="M22.506375,7.014625 C22.23025,7.014625 22.00675,6.791125 22.00675,6.514875 L22.00675,4.51625 C22.00675,4.240125 22.23025,4.016625 22.506375,4.016625 C22.782625,4.016625 23.006125,4.240125 23.006125,4.51625 L23.006125,6.515 C23.006125,6.791125 22.782625,7.014625 22.506375,7.014625 Z" id="Shape"></path>
                    <path d="M24.505125,7.014625 C24.229,7.014625 24.0055,6.791125 24.0055,6.514875 L24.0055,4.51625 C24.0055,4.240125 24.229,4.016625 24.505125,4.016625 C24.78125,4.016625 25.00475,4.240125 25.00475,4.51625 L25.00475,6.515 C25.00475,6.791125 24.78125,7.014625 24.505125,7.014625 Z" id="Shape"></path>
                    <path d="M39.494875,7.014625 C39.21875,7.014625 38.995125,6.791125 38.995125,6.514875 L38.995125,4.51625 C38.995125,4.240125 39.21875,4.016625 39.494875,4.016625 C39.771,4.016625 39.994625,4.240125 39.994625,4.51625 L39.994625,6.515 C39.994625,6.791125 39.771,7.014625 39.494875,7.014625 Z" id="Shape"></path>
                    <path d="M41.493375,7.014625 C41.21725,7.014625 40.993875,6.791125 40.993875,6.514875 L40.993875,4.51625 C40.993875,4.240125 41.21725,4.016625 41.493375,4.016625 C41.76975,4.016625 41.993125,4.240125 41.993125,4.51625 L41.993125,6.515 C41.993125,6.791125 41.76975,7.014625 41.493375,7.014625 Z" id="Shape"></path>
                </g>
            </g>
        </g>
    </g>
</svg>