<?xml version="1.0" encoding="UTF-8"?>
<svg  viewBox="0 0 64 46" version="1.1" xmlns="http://www.w3.org/2000/svg" xmlns:xlink="http://www.w3.org/1999/xlink">
            <g id="Symbols" stroke="none" stroke-width="1" fill="none" fill-rule="evenodd">
        <g id="Icon/Large/Initial-survey/team-group_inactive" transform="translate(0.000000, -9.000000)" fill-rule="nonzero">
            <g id="Group-5">
                <rect id="Rectangle-2-Copy-3" x="0" y="0" width="64" height="64"></rect>
                <g id="1" transform="translate(0.000000, 9.000000)">
                    <path d="M51.46625,1.489625 C46.499,1.489625 42.472375,5.516125 42.472375,10.483 L42.472375,23.97375 L60.460125,23.97375 L60.460125,10.483 C60.46025,5.516125 56.433625,1.489625 51.46625,1.489625 Z" id="Shape" fill="#B7CCDB"></path>
                    <path d="M60.949,22.005375 C60.559625,21.856125 59.051,20.67725 58.4615,20.47625 L51.46625,20.47625 L51.4555,20.47625 L44.460125,20.47625 C43.87075,20.67725 42.362,21.856125 41.972625,22.005375 C40.283375,22.634875 39.444,23.26425 39.444,24.953625 C39.444,26.63225 39.444,27.4715 39.444,27.4715 L63.4775,27.4715 C63.4775,27.4715 63.4775,26.63225 63.4775,24.953625 C63.4775,23.26425 62.638375,22.634875 60.949,22.005375 Z" id="Shape" fill="#CFDEE9"></path>
                    <path d="M43.971375,22.005375 C44.3605,21.856125 45.869375,20.67725 46.458875,20.47625 L44.460125,20.47625 C43.87075,20.67725 42.362,21.856125 41.972625,22.005375 C40.283375,22.634875 39.444,23.26425 39.444,24.953625 C39.444,26.63225 39.444,27.4715 39.444,27.4715 L41.44275,27.4715 C41.44275,27.4715 41.44275,26.63225 41.44275,24.953625 C41.442875,23.26425 42.282,22.634875 43.971375,22.005375 Z" id="Shape" fill="#EAF3F9"></path>
                    <path d="M60.949,22.005375 C60.559625,21.856125 59.051,20.67725 58.4615,20.47625 L56.463,20.47625 C57.052375,20.67725 58.561125,21.856125 58.9505,22.005375 C60.63975,22.634875 61.479125,23.26425 61.479125,24.953625 C61.479125,26.63225 61.479125,27.4715 61.479125,27.4715 L63.477625,27.4715 C63.477625,27.4715 63.477625,26.63225 63.477625,24.953625 C63.4775,23.26425 62.638375,22.634875 60.949,22.005375 Z" id="Shape" fill="#B7CCDB"></path>
                    <polygon id="Rectangle-path" fill="#EAF3F9" points="47.47875 18.38975 55.473375 18.38975 55.473375 21.97525 47.47875 21.97525"></polygon>
                    <polygon id="Shape" fill="#FFFFFF" points="58.461375 20.47625 55.448 18.38975 52.485125 27.471375 56.462875 23.474125 55.463625 22.474875"></polygon>
                    <polygon id="Shape" fill="#FFFFFF" points="44.465125 20.47625 47.47875 18.38975 50.441625 27.471375 46.463875 23.474125 47.463125 22.474875"></polygon>
                    <g id="Group" transform="translate(48.375000, 21.375000)" fill="#CFDEE9">
                        <polygon id="Shape" points="3.09125 1.099875 3.09125 6.096375 4.110125 6.096375 6.089125 0.11025"></polygon>
                        <polygon id="Shape" points="2.066625 6.096375 3.0855 6.096375 3.0855 1.099875 0.087375 0.11025"></polygon>
                    </g>
                    <path d="M55.972875,6.66425 C55.910375,6.636375 53.22575,6.565625 51.46625,6.52175 C49.70675,6.565625 47.021875,6.636375 46.959375,6.66425 C46.865875,6.70575 44.481625,10.843 44.481625,10.843 L44.481625,11.901875 C44.481625,16.363625 48.806875,20.464375 51.46625,20.475125 C54.125375,20.464375 58.450625,16.363625 58.450625,11.901875 L58.450625,10.843 C58.450625,10.843125 56.066625,6.70575 55.972875,6.66425 Z" id="Shape" fill="#EAF3F9"></path>
                    <path d="M55.972875,6.66425 C55.910375,6.636375 53.22575,6.565625 51.46625,6.52175 C51.156,6.5295 50.815125,6.538375 50.46675,6.547125 C52.09375,6.5895 53.9225,6.64125 53.974375,6.66425 C54.067875,6.70575 56.452125,10.843 56.452125,10.843 L56.452125,11.901875 C56.452125,15.838625 53.086125,19.49 50.46675,20.302875 C50.816125,20.411625 51.153,20.473625 51.46625,20.475125 C54.125375,20.464375 58.450625,16.363625 58.450625,11.901875 L58.450625,10.843 C58.450625,10.843125 56.066625,6.70575 55.972875,6.66425 Z" id="Shape" fill="#CFDEE9"></path>
                    <path d="M46.4805,11.902 L46.4805,10.843125 C46.4805,10.843125 48.8645,6.705875 48.95825,6.664375 C49.01,6.641375 50.838625,6.589625 52.465625,6.54725 C52.11725,6.5385 51.776625,6.52975 51.466375,6.521875 C49.706875,6.56575 47.022,6.6365 46.9595,6.664375 C46.866,6.705875 44.48175,10.843125 44.48175,10.843125 L44.48175,11.902 C44.48175,16.36375 48.807,20.4645 51.466375,20.47525 C51.779625,20.47375 52.11625,20.41175 52.465625,20.303 C49.84625,19.49 46.4805,15.83875 46.4805,11.902 Z" id="Shape" fill="#FFFFFF"></path>
                    <path d="M42.601125,11.942875 C45.323,11.18075 51.567625,8.823875 53.464875,7.73475 C56.363375,6.087875 58.117,4.53575 58.162875,4.49475 C56.516625,2.654125 54.130375,1.4895 51.466375,1.4895 C46.499125,1.4895 42.4725,5.516 42.4725,10.482875 C42.472375,10.98175 42.52325,11.466625 42.601125,11.942875 Z" id="Shape" fill="#CFDEE9"></path>
                    <path d="M43.471625,10.483 C43.471625,5.69125 47.223125,1.78575 51.94725,1.516 C51.786375,1.50725 51.629125,1.489625 51.46625,1.489625 C46.499,1.489625 42.472375,5.516125 42.472375,10.483 C42.472375,10.981625 42.523125,11.466625 42.601,11.942875 C42.88425,11.863875 43.212125,11.76375 43.562375,11.653 C43.50975,11.2695 43.471625,10.881625 43.471625,10.483 Z" id="Shape" fill="#EAF3F9"></path>
                    <path d="M60.46025,10.483 C60.46025,8.0715 59.505625,5.886 57.959,4.27225 L53.464875,7.7445 C53.464875,7.7445 55.69675,10.2115 60.404625,11.4665 C60.43975,11.14275 60.46025,10.81575 60.46025,10.483 Z" id="Shape" fill="#CFDEE9"></path>
                    <path d="M58.157,4.49975 C58.158,4.49925 58.162875,4.495375 58.162875,4.495375 C58.1375,4.466125 58.108125,4.441125 58.081875,4.412875 C58.039875,4.367 58.00175,4.31725 57.959125,4.27225 C57.95525,4.267875 57.9445,4.27125 57.938625,4.268375 C56.302875,2.5635 54.0165,1.489625 51.4665,1.489625 C51.294625,1.489625 51.126875,1.50575 50.957,1.5155 C53.308125,1.64375 55.410125,2.674375 56.939125,4.268375 C56.945,4.27125 56.95575,4.267875 56.959625,4.27225 C57.002625,4.317125 57.040625,4.367 57.082625,4.412875 C57.109,4.441125 57.13825,4.466 57.163625,4.494875 C57.163625,4.494875 57.15875,4.49925 57.15775,4.49975 C58.5835,6.089 59.46075,8.179875 59.46075,10.483 C59.46075,10.716625 59.44025,10.945 59.42175,11.173875 C59.738125,11.27625 60.063125,11.375375 60.404625,11.466625 C60.43975,11.142625 60.46025,10.81575 60.46025,10.483 C60.46025,8.179875 59.58275,6.089 58.157,4.49975 Z" id="Shape" fill="#B7CCDB"></path>
                    <path d="M52.471375,40.483 C52.471375,43.210625 52.471375,45.459125 52.471375,45.459125 L11.499375,45.459125 C11.499375,45.459125 11.499375,43.21075 11.499375,40.483 C11.499375,37.7545 12.8675,36.724875 15.596125,35.706 C16.98475,35.186875 20.493125,33.8275 22.49175,32.828125 L23.760375,31.808375 L27.488375,36.465375 L31.485625,34.46675 L32.485125,34.46675 L36.48225,36.465375 L40.20925,31.808375 L41.479,32.828125 C43.48725,33.8275 46.994625,35.186875 48.38325,35.706 C51.112,36.724875 52.471375,37.7545 52.471375,40.483 Z" id="Shape" fill="#CFDEE9"></path>
                    <path d="M17.59475,35.706 C18.983375,35.186875 22.49175,33.8275 24.490375,32.828125 L24.543125,32.786125 L23.760375,31.808375 L22.49175,32.828125 C20.493125,33.8275 16.98475,35.186875 15.596125,35.706 C12.8675,36.72475 11.499375,37.7545 11.499375,40.483 C11.499375,43.210625 11.499375,45.459125 11.499375,45.459125 L13.498,45.459125 C13.498,45.459125 13.498,43.21075 13.498,40.483 C13.497875,37.7545 14.866125,36.724875 17.59475,35.706 Z" id="Shape" fill="#EAF3F9"></path>
                    <path d="M46.370125,35.706 C44.9815,35.186875 41.473125,33.8275 39.474375,32.828125 L39.421625,32.786125 L40.204375,31.808375 L41.473125,32.828125 C43.471625,33.8275 46.98,35.186875 48.368625,35.706 C51.097375,36.72475 52.4655,37.7545 52.4655,40.483 C52.4655,43.210625 52.4655,45.459125 52.4655,45.459125 L50.46675,45.459125 C50.46675,45.459125 50.46675,43.21075 50.46675,40.483 C50.46675,37.7545 49.098625,36.724875 46.370125,35.706 Z" id="Shape" fill="#B7CCDB"></path>
                    <path d="M24.522625,27.476375 L0.539,27.476375 L0.539,26.477 C0.539,26.477 0.539,25.807625 0.539,24.148625 C0.539,22.479375 1.37825,21.84975 3.03725,21.230125 C3.855,20.92025 5.32475,20.37075 6.53475,19.791125 L7.704,18.63175 L10.551625,21.479875 L12.55025,20.490375 L14.548875,21.479875 L17.38675,18.642 L18.526625,19.780875 C19.744625,20.37075 21.2045,20.92025 22.02425,21.230125 C23.693125,21.84975 24.5225,22.47925 24.5225,24.148625 C24.5225,25.8075 24.5225,26.477 24.5225,26.477 L24.522625,27.476375 Z" id="Shape" fill="#EAF3F9"></path>
                    <path d="M2.537625,24.1485 C2.537625,22.47925 3.376875,21.849625 5.035875,21.23 C5.853625,20.920125 7.323375,20.370625 8.533375,19.791 L8.69925,19.627 L7.703875,18.6315 L6.534625,19.790875 C5.3245,20.3705 3.854875,20.92 3.037125,21.229875 C1.378125,21.8495 0.538875,22.479 0.538875,24.148375 C0.538875,25.80725 0.538875,26.47675 0.538875,26.47675 L0.538875,27.476125 L2.5375,27.476125 L2.5375,26.47675 C2.537625,26.476875 2.537625,25.8075 2.537625,24.1485 Z" id="Shape" fill="#FFFFFF"></path>
                    <path d="M22.5435,24.1485 C22.5435,22.47925 21.70425,21.849625 20.04525,21.23 C19.2275,20.920125 17.75775,20.370625 16.547625,19.791 L16.38175,19.627 L17.377125,18.6315 L18.54625,19.790875 C19.756375,20.3705 21.226125,20.92 22.043875,21.229875 C23.702875,21.8495 24.542125,22.479 24.542125,24.148375 C24.542125,25.80725 24.542125,26.47675 24.542125,26.47675 L24.542125,27.476125 L22.5435,27.476125 L22.5435,26.47675 C22.5435,26.476875 22.5435,25.8075 22.5435,24.1485 Z" id="Shape" fill="#CFDEE9"></path>
                    <polygon id="Shape" fill="#B7CCDB" points="13.571125 27.476375 11.5725 27.476375 12.072125 22.05025 13.0715 22.05025"></polygon>
                    <polygon id="Rectangle-path" fill="#B7CCDB" points="11.647625 20.691875 13.427625 20.691875 13.427625 22.05025 11.647625 22.05025"></polygon>
                    <polygon id="Shape" fill="#FFFFFF" points="10.573125 21.554625 7.57525 18.556625 8.5745 17.55725 12.587375 19.6925 12.587375 20.55525"></polygon>
                    <polygon id="Shape" fill="#FFFFFF" points="14.570375 21.554625 17.568375 18.556625 16.569125 17.55725 12.55625 19.6925 12.55625 20.55525"></polygon>
                    <path d="M6.544625,1.568125 C6.544625,1.568125 20.535125,-3.4285 19.566125,9.56275 L17.457125,6.56475 C13.09975,6.305125 8.223125,8.2535 5.555125,9.52275 C4.306,10.1225 3.54675,10.562 3.54675,10.562 C3.54675,4.31625 7.624,2.5675 7.624,2.5675 L6.544625,1.568125 Z" id="Shape" fill="#B7CCDB"></path>
                    <path d="M11.547125,0.63525 C14.95875,0.752875 18.558875,2.284 18.60875,8.201375 L19.566125,9.562875 C20.140875,1.86 15.4565,0.481 11.547125,0.63525 Z" id="Shape" fill="#97B4D0"></path>
                    <path d="M8.699375,2.80175 L7.544,1.568125 C7.544,1.568125 9.86275,0.740625 12.5465,0.63525 C9.4665,0.528875 6.544625,1.568125 6.544625,1.568125 L7.624,2.5675 C7.624,2.5675 3.54675,4.31625 3.54675,10.562 C3.54675,10.562 3.9225,10.345375 4.5685,10.013 C4.803625,4.223625 8.699375,2.80175 8.699375,2.80175 Z" id="Shape" fill="#CFDEE9"></path>
                    <path d="M19.566125,9.56275 L19.566125,10.57175 C19.566125,15.318625 15.239,19.695875 12.570875,19.695875 C9.9125,19.695875 5.575625,15.3185 5.575625,10.57175 L5.575625,9.56275 L5.555125,9.52275 C8.22325,8.253625 13.09975,6.30525 17.457125,6.56475 L19.566125,9.56275 Z" id="Shape" fill="#EAF3F9"></path>
                    <path d="M17.457125,6.56475 C16.807125,6.52625 16.1465,6.548625 15.481875,6.598875 L17.567375,9.56275 L17.567375,10.57175 C17.567375,14.760875 14.1985,18.657625 11.572375,19.516375 C11.92175,19.630625 12.2585,19.696 12.57075,19.696 C15.238875,19.696 19.566,15.318625 19.566,10.571875 L19.566,9.562875 L17.457125,6.56475 Z" id="Shape" fill="#CFDEE9"></path>
                    <path d="M7.57425,10.57175 L7.57425,9.56275 L7.55375,9.52275 C9.823625,8.442875 13.693125,6.8835 17.4805,6.598875 L17.457125,6.56475 C13.09975,6.305125 8.223125,8.2535 5.555125,9.52275 L5.575625,9.56275 L5.575625,10.57175 C5.575625,15.318625 9.9125,19.695875 12.570875,19.695875 C12.884125,19.695875 13.22175,19.6305 13.571125,19.51625 C10.950875,18.657625 7.57425,14.760875 7.57425,10.57175 Z" id="Shape" fill="#FFFFFF"></path>
                    <path d="M38.481,7.485 C38.481,7.485 45.705625,6.456 43.977375,17.47825 L40.479625,12.481625 C40.479625,12.481625 36.341875,14.48025 31.965,14.48025 C27.588125,14.48025 23.49125,12.481625 23.49125,12.481625 L19.993625,17.47825 C19.6335,13.61125 20.31275,10.693375 21.622375,8.524375 C26.56825,0.26 40.479625,2.488375 40.479625,2.488375 C37.211125,3.837625 38.481,7.485 38.481,7.485 Z" id="Shape" fill="#CFDEE9"></path>
                    <path d="M38.481,7.485 C38.481,7.485 42.550625,6.62725 42.228375,14.979875 L43.977375,17.478125 C45.705625,6.455875 38.481,7.485 38.481,7.485 Z" id="Shape" fill="#B7CCDB"></path>
                    <path d="M23.620875,8.524375 C26.608125,3.532625 32.86375,2.370875 37.35075,2.231875 C32.95225,2.09525 25.088625,2.7325 21.622125,8.524375 C20.3125,10.693375 19.63325,13.61125 19.993375,17.47825 L21.912,14.738 C22.013625,12.19125 22.640125,10.14775 23.620875,8.524375 Z" id="Shape" fill="#EAF3F9"></path>
                    <path d="M43.97725,17.47825 L43.97725,18.458 C43.97725,26.272125 36.5515,33.467375 31.98525,33.467375 C28.997,33.467375 24.75975,30.369875 22.211625,26.032875 C20.87275,23.764 19.993375,21.146 19.993375,18.457875 L19.993375,17.478125 L23.491,12.4815 C23.491,12.4815 27.58775,14.480125 31.96475,14.480125 C36.34175,14.480125 40.479375,12.4815 40.479375,12.4815 L43.97725,17.47825 Z" id="Shape" fill="#EAF3F9"></path>
                    <path d="M24.210375,26.033 C22.871375,23.764125 21.992125,21.146125 21.992125,18.458 L21.992125,17.47825 L25.040875,13.122375 C24.077625,12.767125 23.49125,12.48175 23.49125,12.48175 L19.993625,17.478375 L19.993625,18.458125 C19.993625,21.14625 20.873,23.764125 22.211875,26.033125 C24.76,30.37 28.99725,33.467625 31.9855,33.467625 C32.304625,33.467625 32.63925,33.424625 32.982875,33.35625 C30.10575,32.78325 26.486125,29.90525 24.210375,26.033 Z" id="Shape" fill="#FFFFFF"></path>
                    <path d="M39.628625,26.033 C40.9675,23.764125 41.846875,21.146125 41.846875,18.458 L41.846875,17.47825 L38.798,13.122375 C39.761125,12.767125 40.34775,12.48175 40.34775,12.48175 L43.84525,17.478375 L43.84525,18.458125 C43.84525,21.14625 42.965875,23.764125 41.627,26.033125 C39.078875,30.37 34.841625,33.467625 31.853375,33.467625 C31.53425,33.467625 31.199625,33.424625 30.856,33.35625 C33.733125,32.78325 37.35275,29.90525 39.628625,26.033 Z" id="Shape" fill="#CFDEE9"></path>
                    <polygon id="Shape" fill="#FFFFFF" points="27.488375 36.465375 23.491125 31.468625 23.491125 30.469375 25.83725 30.469375 28.523875 32.41425 31.985375 33.467375 31.98925 34.466625"></polygon>
                    <polygon id="Shape" fill="#FFFFFF" points="36.486125 36.465375 40.483375 31.468625 40.483375 30.469375 38.1375 30.469375 35.450625 32.41425 31.98925 33.467375 31.985375 34.466625"></polygon>
                    <g id="Group" fill="#7E97B2">
                        <path d="M32.0195,37.969125 C31.743375,37.969125 31.515,37.74575 31.515,37.4695 C31.515,37.193375 31.733625,36.969875 32.00875,36.969875 L32.0195,36.969875 C32.29475,36.969875 32.519375,37.193375 32.519375,37.4695 C32.51925,37.74575 32.294625,37.969125 32.0195,37.969125 Z" id="Shape"></path>
                        <path d="M32.0195,40.967125 C31.743375,40.967125 31.515,40.743625 31.515,40.467375 C31.515,40.19125 31.733625,39.96775 32.00875,39.96775 L32.0195,39.96775 C32.29475,39.96775 32.519375,40.19125 32.519375,40.467375 C32.51925,40.743625 32.294625,40.967125 32.0195,40.967125 Z" id="Shape"></path>
                        <path d="M32.0195,43.965125 C31.743375,43.965125 31.515,43.741625 31.515,43.4655 C31.515,43.18925 31.733625,42.96575 32.00875,42.96575 L32.0195,42.96575 C32.29475,42.96575 32.519375,43.18925 32.519375,43.4655 C32.51925,43.741625 32.294625,43.965125 32.0195,43.965125 Z" id="Shape"></path>
                        <path d="M51.49075,24.979 C51.214375,24.979 50.986125,24.7555 50.986125,24.479375 C50.986125,24.203125 51.204625,23.979625 51.48,23.979625 L51.49075,23.979625 C51.765875,23.979625 51.99025,24.203125 51.99025,24.479375 C51.99025,24.7555 51.765875,24.979 51.49075,24.979 Z" id="Shape"></path>
                        <g id="Shape">
                            <path d="M52.471375,45.958875 L11.499375,45.958875 C11.223125,45.958875 10.999625,45.735375 10.999625,45.459125 L10.999625,40.483 C10.999625,37.461625 12.55325,36.309125 15.4215,35.237625 C17.09025,34.614 20.41025,33.310125 22.268375,32.381125 C22.51525,32.257125 22.814875,32.357625 22.938875,32.6045 C23.06175,32.8515 22.962375,33.151 22.715375,33.274875 C20.381,34.442125 16.236375,35.999625 15.770875,36.17425 C13.215,37.12775 11.999,38.01675 11.999,40.482875 L11.999,44.959375 L51.97175,44.959375 L51.97175,40.482875 C51.97175,38.013875 50.758875,37.125875 48.20875,36.17425 C46.525125,35.544875 43.16725,34.226375 41.256375,33.274875 C41.0095,33.152 40.909,32.852375 41.032,32.6055 C41.153875,32.35775 41.455625,32.256125 41.701375,32.381125 C43.576125,33.313 46.893,34.615875 48.558125,35.237625 C51.420375,36.30625 52.971,37.45875 52.971,40.483 L52.971,45.459125 C52.971,45.735375 52.7475,45.958875 52.471375,45.958875 Z"></path>
                            <path d="M31.985375,33.967 C28.7405,33.967 24.353875,30.6645 21.781375,26.28575 C20.285375,23.750875 19.493875,21.043625 19.493875,18.458 C19.493875,18.181875 19.717375,17.958375 19.9935,17.958375 C20.26975,17.958375 20.49325,18.181875 20.49325,18.458 C20.49325,20.865125 21.235875,23.396625 22.642125,25.779125 C25.010625,29.810625 29.11425,32.967625 31.985375,32.967625 C36.308625,32.967625 43.477625,25.94025 43.477625,18.458 C43.477625,18.181875 43.701,17.958375 43.977375,17.958375 C44.2535,17.958375 44.476875,18.181875 44.476875,18.458 C44.47675,26.718 36.691125,33.967 31.985375,33.967 Z"></path>
                            <path d="M19.9935,17.977875 C19.950625,17.977875 19.907625,17.9725 19.86575,17.96125 C19.66275,17.9075 19.515375,17.733375 19.495875,17.5245 C19.151375,13.819 19.722375,10.704 21.194875,8.26625 C24.434875,2.852 31.219375,1.715 36.340875,1.715 C38.7835,1.715 40.487375,1.983375 40.558625,1.995125 C40.779125,2.03025 40.95,2.208375 40.976375,2.430375 C41.00175,2.652375 40.87675,2.865125 40.67,2.950625 C38.413625,3.881625 38.656625,6.087625 38.854875,6.961 C39.790625,6.935125 41.688875,7.141 43.102875,8.79525 C44.64,10.592875 45.100375,13.54 44.471,17.555875 C44.43875,17.756875 44.288625,17.918875 44.090375,17.96525 C43.8875,18.011625 43.685375,17.932 43.568375,17.76475 L40.307875,13.10825 C39.162125,13.607875 35.67525,14.98 31.964875,14.98 C28.258375,14.98 24.80275,13.61075 23.662,13.10925 L20.4025,17.76475 C20.30775,17.90025 20.153625,17.977875 19.9935,17.977875 Z M40.4795,11.981875 C40.63775,11.981875 40.79275,12.0575 40.888375,12.195125 L43.648125,16.13725 C43.962625,13.074375 43.525375,10.8265 42.343375,9.445 C41.237625,8.152 39.7455,7.95925 38.95425,7.95925 C38.716,7.95925 38.565875,7.97775 38.55025,7.97975 C38.311,8.015375 38.087625,7.873875 38.0085,7.649375 C37.6045,6.486125 37.425,4.255125 39,2.825 C38.305125,2.767 37.388875,2.71425 36.340875,2.71425 C32.360125,2.71425 25.20975,3.50275 22.05075,8.780875 C20.878625,10.722375 20.32725,13.152 20.405375,16.019125 L23.08225,12.195 C23.22275,11.992 23.48825,11.925125 23.70975,12.032 C23.74975,12.0515 27.76075,13.980375 31.964875,13.980375 C36.17875,13.980375 40.222,12.051 40.262,12.0315 C40.33225,11.998 40.4065,11.981875 40.4795,11.981875 Z"></path>
                            <path d="M51.461375,20.975875 C49.815875,20.975875 47.65425,19.613125 46.08025,17.585125 C45.91125,17.367 45.951375,17.05325 46.168875,16.884 C46.386625,16.71475 46.700875,16.75375 46.8705,16.972375 C48.241875,18.741125 50.13,19.97675 51.461375,19.97675 C53.905,19.97675 57.957,16.06575 57.957,11.902625 C57.957,11.626375 58.180375,11.402875 58.4565,11.402875 C58.732625,11.402875 58.95625,11.626375 58.95625,11.902625 C58.95625,16.735125 54.284625,20.975875 51.461375,20.975875 Z"></path>
                            <path d="M63.483375,27.971125 L43.4775,27.971125 C43.201375,27.971125 42.97775,27.747625 42.97775,27.4715 C42.97775,27.19525 43.201375,26.971875 43.4775,26.971875 L62.983875,26.971875 L62.983875,24.953625 C62.983875,23.65125 62.5105,23.117875 60.78025,22.473875 C60.514625,22.371375 60.18475,22.262125 59.816875,22.14 L59.275375,21.959125 C59.014875,21.87025 58.87425,21.586375 58.963125,21.32525 C59.053,21.06325 59.335875,20.925625 59.597375,21.0125 L60.13225,21.191625 C60.5165,21.319375 60.861,21.434 61.1345,21.539 C62.937,22.210875 63.983125,22.98575 63.983125,24.953625 L63.983125,27.4715 C63.983125,27.7475 63.7595,27.971125 63.483375,27.971125 Z"></path>
                            <path d="M12.508375,27.971125 L0.5165,27.971125 C0.240375,27.971125 0.016875,27.747625 0.016875,27.4715 L0.016875,24.14375 C0.016875,22.203125 1.05125,21.432625 2.838125,20.75825 C3.616875,20.473375 5.095375,19.912125 6.29675,19.336375 C6.542625,19.218375 6.84425,19.32125 6.96325,19.570625 C7.08225,19.8195 6.976875,20.118125 6.728,20.237125 C5.489625,20.831 3.978,21.405375 3.1865,21.695125 C1.4835,22.337875 1.016125,22.864625 1.016125,24.14375 L1.016125,26.971875 L12.508375,26.971875 C12.7845,26.971875 13.008,27.19525 13.008,27.4715 C13.008,27.7475 12.7845,27.971125 12.508375,27.971125 Z"></path>
                            <path d="M20.493125,27.971125 L12.508375,27.971125 C12.23225,27.971125 12.00875,27.747625 12.00875,27.4715 C12.00875,27.19525 12.23225,26.971875 12.508375,26.971875 L20.493125,26.971875 C20.76925,26.971875 20.992875,27.19525 20.992875,27.4715 C20.992875,27.7475 20.769375,27.971125 20.493125,27.971125 Z"></path>
                            <path d="M12.537625,20.116625 C9.714375,20.116625 5.04275,15.623625 5.04275,10.503 C5.04275,10.226875 5.26625,10.00325 5.542375,10.00325 C5.8185,10.00325 6.042,10.22675 6.042,10.503 C6.042,14.944875 10.094,19.11725 12.537625,19.11725 C13.854125,19.11725 15.726875,17.816375 17.092125,15.953875 C17.256125,15.731875 17.567375,15.683125 17.790875,15.846125 C18.013375,16.009125 18.06125,16.321875 17.89825,16.544375 C16.332,18.681 14.178125,20.116625 12.537625,20.116625 Z"></path>
                            <path d="M10.52925,21.97525 C10.3995,21.97525 10.271625,21.925 10.176,21.82875 L7.178125,18.830875 C6.982875,18.635625 6.982875,18.3195 7.178125,18.124375 C7.373375,17.92925 7.6895,17.929125 7.884625,18.124375 L10.62975,20.869125 L12.28875,20.047375 C12.478125,19.9445 12.71525,19.966 12.87725,20.119625 C13.077375,20.309875 13.09,20.62125 12.89975,20.82075 C12.85975,20.86325 12.802125,20.908125 12.7495,20.933875 L10.749875,21.9235 C10.6795,21.958125 10.604375,21.97525 10.52925,21.97525 Z"></path>
                            <path d="M14.5265,21.97525 C14.45125,21.97525 14.37525,21.958125 14.305,21.9235 L12.306375,20.934375 L12.74075,20.033625 L14.427,20.868625 L17.17125,18.124375 C17.3665,17.929125 17.682625,17.929125 17.87775,18.124375 C18.072875,18.319625 18.073,18.63575 17.87775,18.830875 L14.879875,21.82875 C14.784125,21.924875 14.65625,21.97525 14.5265,21.97525 Z"></path>
                            <path d="M3.5145,10.982625 C3.428625,10.982625 3.34275,10.960125 3.264625,10.91575 C3.1105,10.827 3.01475,10.661625 3.01475,10.483 C3.01475,5.45375 5.529625,3.192 6.7505,2.390875 L6.17275,1.855625 C6.044875,1.737 5.987375,1.559875 6.022375,1.389125 C6.0575,1.217875 6.1795,1.077375 6.3445,1.018875 C6.61575,0.92175 13.043,-1.32325 17.04525,1.336625 C18.892625,2.56525 19.9075,4.624375 20.06175,7.457875 C20.077375,7.733625 19.865625,7.96925 19.590375,7.983875 C19.287875,8.02825 19.08,7.78775 19.064375,7.5125 C18.92775,5.01075 18.063125,3.213125 16.491875,2.169 C13.678375,0.29875 9.28975,1.2175 7.48925,1.71325 L7.931375,2.122125 C8.055375,2.236875 8.112875,2.406625 8.084625,2.5735 C8.055375,2.740375 7.944,2.880875 7.788875,2.94775 C7.6445,3.011125 4.37525,4.50575 4.0415,9.62575 C6.151375,8.517625 12.132625,5.671375 17.45425,5.987125 C17.628,5.996875 17.784125,6.096875 17.866,6.251 L18.932625,8.24425 C19.065375,8.486375 18.976625,8.78975 18.7345,8.9225 C18.4965,9.05475 18.189,8.967375 18.05625,8.7245 L17.117375,6.97175 C11.034625,6.75025 3.838375,10.872875 3.76525,10.915375 C3.688125,10.96025 3.601375,10.982625 3.5145,10.982625 Z"></path>
                            <path d="M12.508375,22.9745 C12.380625,22.9745 12.25275,22.925625 12.155125,22.828125 L11.15575,21.82875 C10.960625,21.633625 10.960625,21.317375 11.15575,21.12225 C11.351,20.927 11.667125,20.927 11.862375,21.12225 L12.861625,22.121625 C13.056875,22.316875 13.056875,22.633 12.861625,22.828125 C12.764,22.925625 12.636125,22.9745 12.508375,22.9745 Z"></path>
                            <path d="M12.508375,22.9745 C12.380625,22.9745 12.25275,22.925625 12.155125,22.828125 C11.959875,22.632875 11.959875,22.31675 12.155125,22.121625 L13.1545,21.12225 C13.349625,20.927 13.665875,20.927 13.861,21.12225 C14.056125,21.3175 14.05625,21.63375 13.861,21.82875 L12.861625,22.828125 C12.764,22.925625 12.636125,22.9745 12.508375,22.9745 Z"></path>
                            <path d="M11.51,26.97175 C11.4915,26.97175 11.473,26.97075 11.453375,26.968875 C11.179125,26.938625 10.982,26.691625 11.01225,26.4165 L11.511875,21.92 C11.542125,21.64525 11.77825,21.445125 12.06425,21.478375 C12.3385,21.509125 12.535625,21.756125 12.505375,22.03025 L12.00575,26.527625 C11.9775,26.7825 11.76075,26.97175 11.51,26.97175 Z"></path>
                            <path d="M13.50675,26.97175 C13.256,26.97175 13.03925,26.782375 13.011,26.527625 L12.511375,22.03025 C12.481125,21.756125 12.67825,21.509125 12.9525,21.478375 C13.232625,21.446125 13.474625,21.64525 13.504875,21.92 L14.004625,26.4165 C14.034875,26.691625 13.83775,26.938625 13.5635,26.968875 C13.54375,26.970875 13.52525,26.97175 13.50675,26.97175 Z"></path>
                            <path d="M60.466125,20.336625 C60.18975,20.336625 59.966375,20.113125 59.966375,19.836875 L59.966375,10.482875 C59.966375,10.206625 60.18975,9.983125 60.466125,9.983125 C60.74225,9.983125 60.965625,10.206625 60.965625,10.482875 L60.965625,19.836875 C60.965625,20.113125 60.74225,20.336625 60.466125,20.336625 Z"></path>
                            <path d="M43.417,6.985375 C43.34175,6.985375 43.265875,6.96875 43.194625,6.93325 C42.9475,6.81075 42.84725,6.51075 42.969,6.26375 C44.58525,3.010625 47.84275,0.9895 51.472125,0.9895 C51.74825,0.9895 51.971625,1.213 51.971625,1.48925 C51.971625,1.765375 51.74825,1.988875 51.472125,1.988875 C48.22525,1.988875 45.31025,3.79725 43.865,6.707875 C43.777125,6.883875 43.600625,6.985375 43.417,6.985375 Z"></path>
                            <path d="M60.466125,10.982625 C60.18975,10.982625 59.966375,10.759125 59.966375,10.483 C59.966375,8.381375 59.19925,6.371 57.80575,4.82125 C56.1915,3.02075 53.882625,1.98875 51.47225,1.98875 C51.195875,1.98875 50.9725,1.76525 50.9725,1.489125 C50.9725,1.212875 51.195875,0.989375 51.47225,0.989375 C54.166625,0.989375 56.745875,2.142375 58.549375,4.15325 C60.108,5.886375 60.965625,8.1345 60.965625,10.483 C60.965625,10.759125 60.74225,10.982625 60.466125,10.982625 Z"></path>
                            <path d="M46.475625,11.20275 C46.256875,11.20275 46.056,11.058375 45.994375,10.837875 C45.920125,10.571875 46.075375,10.29625 46.34075,10.222 C48.657625,9.575 50.972375,8.59225 53.221875,7.301625 C56.074375,5.681125 57.827125,4.1295 57.844625,4.11425 C58.050375,3.93025 58.366625,3.947875 58.55025,4.15475 C58.733625,4.360625 58.716,4.676375 58.51025,4.859875 C58.436,4.92575 56.66775,6.4935 53.7175,8.169125 C51.397875,9.50025 49.006125,10.51525 46.610125,11.18425 C46.565125,11.196875 46.51925,11.20275 46.475625,11.20275 Z"></path>
                            <path d="M60.466125,11.981875 C60.424125,11.981875 60.381125,11.9765 60.339125,11.96525 C55.503375,10.69325 53.195625,8.186125 53.099875,8.08025 C52.9155,7.87575 52.931125,7.560625 53.135,7.375125 C53.338875,7.192125 53.65525,7.205375 53.840625,7.40925 C53.862125,7.433125 56.06575,9.8075 60.592875,10.999125 C60.86025,11.069375 61.019375,11.342625 60.949125,11.6095 C60.890375,11.833625 60.6875,11.981875 60.466125,11.981875 Z"></path>
                            <path d="M58.4565,12.402125 C58.180375,12.402125 57.957,12.178625 57.957,11.9025 L57.957,10.843125 C57.957,10.567 58.180375,10.3435 58.4565,10.3435 C58.732625,10.3435 58.95625,10.567 58.95625,10.843125 L58.95625,11.9025 C58.95625,12.178625 58.732625,12.402125 58.4565,12.402125 Z"></path>
                            <path d="M53.49025,26.97175 C53.36325,26.97175 53.235625,26.922875 53.138,26.82625 C52.942875,26.632125 52.941,26.315875 53.136,26.11975 L55.76325,23.475125 L55.116,22.828125 C55.00975,22.722125 54.957125,22.574375 54.97175,22.4255 C54.987375,22.27675 55.0675,22.141875 55.19225,22.059 L57.581375,20.465875 L56.182,19.486625 C55.956375,19.3285 55.90075,19.01675 56.059875,18.79075 C56.217875,18.563875 56.529375,18.51025 56.755625,18.667875 L58.754125,20.06675 C58.888875,20.1615 58.969,20.316625 58.967,20.482 C58.965,20.646875 58.882,20.800125 58.744375,20.891875 L56.253875,22.552375 L56.822,23.120875 C57.017125,23.315625 57.017125,23.63075 56.823,23.8265 L53.8445,26.824375 C53.746875,26.923 53.619125,26.97175 53.49025,26.97175 Z"></path>
                            <path d="M49.452875,26.97175 C49.32425,26.97175 49.19625,26.922875 49.098625,26.82425 L46.121375,23.826375 C45.927,23.63075 45.927,23.3155 46.122375,23.12075 L46.68825,22.55475 L46.20025,22.23275 C45.97,22.0805 45.9065,21.77075 46.058875,21.540375 C46.21,21.309 46.52025,21.247125 46.75075,21.398375 L47.75,22.0575 C47.875,22.140375 47.95675,22.275125 47.971375,22.4245 C47.987,22.57375 47.9345,22.722125 47.828125,22.828125 L47.181125,23.475125 L49.807125,26.11975 C50.002375,26.315875 50.0005,26.63225 49.805125,26.82625 C49.70775,26.923 49.579875,26.97175 49.452875,26.97175 Z"></path>
                            <path d="M51.472125,22.9745 C49.292,22.9745 48.167625,21.875625 48.12075,21.82875 C47.925625,21.633625 47.925625,21.317375 48.12075,21.12225 C48.315875,20.929 48.63125,20.9275 48.824375,21.119375 C48.8605,21.1545 49.728125,21.975375 51.472125,21.975375 C53.218,21.975375 54.085375,21.162875 54.1215,21.12825 C54.31975,20.938875 54.634875,20.943375 54.826125,21.1385 C55.0175,21.335125 55.0165,21.647875 54.82125,21.841125 C54.774375,21.887375 53.651375,22.9745 51.472125,22.9745 Z"></path>
                            <path d="M23.491125,31.968375 C23.214875,31.968375 22.991375,31.744875 22.991375,31.468625 L22.991375,30.469375 C22.991375,30.19325 23.214875,29.96975 23.491125,29.96975 C23.76725,29.96975 23.99075,30.19325 23.99075,30.469375 L23.99075,31.468625 C23.99075,31.744875 23.76725,31.968375 23.491125,31.968375 Z"></path>
                            <path d="M27.488375,36.965 C27.342,36.965 27.196625,36.9005 27.098,36.777625 L23.09975,31.779125 C22.928,31.563375 22.964125,31.24925 23.18075,31.0775 C23.396375,30.90575 23.711625,30.940875 23.882375,31.158375 L27.878625,36.153 C28.050375,36.36875 28.01625,36.683 27.800625,36.855625 C27.708875,36.928875 27.59875,36.965 27.488375,36.965 Z"></path>
                            <path d="M27.488375,36.965 C27.305875,36.965 27.12925,36.8635 27.041375,36.688875 C26.9185,36.441875 27.017875,36.14225 27.264875,36.018375 L31.262125,34.01975 C31.509,33.896875 31.808625,33.99625 31.932625,34.24325 C32.0555,34.49025 31.956,34.78975 31.709125,34.913625 L27.71175,36.91225 C27.63975,36.948375 27.5635,36.965 27.488375,36.965 Z"></path>
                            <path d="M40.4795,31.968375 C40.203375,31.968375 39.98,31.744875 39.98,31.468625 L39.98,30.469375 C39.98,30.19325 40.203375,29.96975 40.4795,29.96975 C40.755875,29.96975 40.97925,30.19325 40.97925,30.469375 L40.97925,31.468625 C40.97925,31.744875 40.755875,31.968375 40.4795,31.968375 Z"></path>
                            <path d="M36.482125,36.965 C36.372,36.965 36.262625,36.928875 36.169875,36.855625 C35.95425,36.683 35.920125,36.368625 36.092,36.153 L40.088125,31.157375 C40.261,30.940875 40.576125,30.906625 40.79075,31.077375 C41.006625,31.250125 41.04275,31.564375 40.870875,31.78 L36.872625,36.7775 C36.774125,36.9005 36.628625,36.965 36.482125,36.965 Z"></path>
                            <path d="M36.482125,36.965 C36.407125,36.965 36.331,36.948375 36.25875,36.91225 L32.261375,34.913625 C32.0145,34.78975 31.915,34.490125 32.037875,34.24325 C32.162,33.99725 32.4615,33.89775 32.708375,34.01975 L36.70575,36.018375 C36.952625,36.14225 37.052125,36.442 36.929125,36.688875 C36.84125,36.863375 36.66475,36.965 36.482125,36.965 Z"></path>
                        </g>
                    </g>
                </g>
            </g>
        </g>
    </g>
</svg>