<?xml version="1.0" encoding="UTF-8"?>
<svg  viewBox="0 0 65 69" version="1.1" xmlns="http://www.w3.org/2000/svg" xmlns:xlink="http://www.w3.org/1999/xlink">
    <!-- Generator: Sketch 52.1 (67048) - http://www.bohemiancoding.com/sketch -->
    <title>Artboard</title>
    <desc>Created with Sketch.</desc>
    <g id="Artboard" stroke="none" stroke-width="1" fill="none" fill-rule="evenodd">
        <g id="Icon/Large/Receipt" transform="translate(1.000000, 3.000000)">
            <g id="Group-11">
                <rect id="Rectangle-3" x="0" y="0" width="64" height="64"></rect>
                <g id="16-check,-list,-cashbox,-purchase,-shop,-shopping,-commerce-copy" transform="translate(5.000000, 0.000000)" fill-rule="nonzero">
                    <path d="M54.49575,16.5025 L54.49575,27.00075 C54.49575,28.3805 53.37575,29.500375 51.996125,29.500375 C50.6165,29.500375 49.4965,28.3805 49.4965,27.00075 L49.4965,16.5025 L54.49575,16.5025 Z" id="Shape" fill="#FFFFFF"></path>
                    <path d="M49.4965,27.00075 C49.4965,28.3805 50.6165,29.500375 51.996125,29.500375 L44.497375,29.500375 L44.497375,3.024125 C44.497375,1.63475 45.61725,0.5245 46.996875,0.5245 C48.376625,0.5245 49.4965,1.634625 49.4965,3.024125 L49.4965,16.5025 L49.4965,27.00075 Z" id="Shape" fill="#D7E9FF"></path>
                    <path d="M46.996875,2.52425 C48.376625,2.52425 49.4965,3.634375 49.4965,5.023875 L49.4965,3.024125 C49.4965,1.63475 48.376625,0.5245 46.996875,0.5245 C45.61725,0.5245 44.497375,1.634625 44.497375,3.024125 L44.497375,5.023875 C44.497375,3.6345 45.61725,2.52425 46.996875,2.52425 Z" id="Shape" fill="#94C1FF"></path>
                    <path d="M51.996125,27.50075 C50.6165,27.50075 49.4965,26.390625 49.4965,25.001125 L49.4965,27.000875 C49.4965,28.390375 50.6165,29.5005 51.996125,29.5005 C53.37575,29.5005 54.49575,28.390375 54.49575,27.000875 L54.49575,25.001125 C54.49575,26.390625 53.37575,27.50075 51.996125,27.50075 Z" id="Shape" fill="#D7E9FF"></path>
                    <polygon id="Shape" fill="#94C1FF" points="36.4985 28.500625 39.498 28.500625 39.498 30.50025 5.5035 30.50025 5.5035 28.500625 8.503 28.500625 12.5025 28.500625 16.501875 28.500625 20.501125 28.500625 24.5005 28.500625 28.499875 28.500625 32.49925 28.500625"></polygon>
                    <polygon id="Shape-Copy-8" fill="#94C1FF" points="36.995 5 39.9945 5 39.9945 6.999625 6 6.999625 6 5 8.9995 5 12.999 5 16.998375 5 20.997625 5 24.997 5 28.996375 5 32.99575 5"></polygon>
                    <polygon id="Rectangle-path" fill="#D7E9FF" points="5.5035 28.500625 6.503375 28.500625 6.503375 30.50025 5.5035 30.50025"></polygon>
                    <polygon id="Rectangle-path" fill="#5C9EFF" points="38.49825 28.500625 39.498 28.500625 39.498 30.50025 38.49825 30.50025"></polygon>
                    <g id="Group" fill="#116FFF">
                        <path d="M44.497375,63.994875 C44.444625,63.994875 44.391875,63.987125 44.339125,63.9695 L41.497875,63.022375 L38.656625,63.9695 C38.554125,64.00275 38.44275,64.00275 38.34025,63.9695 L35.499,63.022375 L32.65775,63.9695 C32.55525,64.00275 32.443875,64.00275 32.341375,63.9695 L29.500125,63.022375 L26.65875,63.9695 C26.55625,64.00275 26.445,64.00275 26.3425,63.9695 L23.501125,63.022375 L20.659875,63.9695 C20.557375,64.00275 20.446,64.00275 20.343625,63.9695 L17.50225,63.022375 L14.661,63.9695 C14.5585,64.00275 14.447125,64.00275 14.34475,63.9695 L11.48325,63.0155 L7.625,63.98025 C7.545875,63.99975 7.462,63.99975 7.382875,63.98025 L3.524625,63.0155 L0.66325,63.9695 C0.510875,64.017375 0.343,63.993875 0.212625,63.900125 C0.08225,63.806375 0.005125,63.656 0.005125,63.494875 L0.005125,3.004625 C0.005125,1.350625 1.35075,0.005125 3.004625,0.005125 L46.9975,0.005125 C47.273875,0.005125 47.4975,0.22875 47.4975,0.505125 C47.4975,0.7815 47.273875,1.005125 46.9975,1.005125 L3.003875,1.005125 C1.901125,1.005125 1.00425,1.9025 1.00425,3.00475 L1.00425,62.80175 L3.345625,62.020625 C3.436,61.991375 3.532625,61.987375 3.624875,62.009875 L7.503125,62.9795 L11.38125,62.009875 C11.473,61.987375 11.57075,61.991375 11.6605,62.020625 L14.50175,62.96775 L17.343125,62.020625 C17.4455,61.987375 17.556875,61.987375 17.659375,62.020625 L20.500625,62.96775 L23.342,62.020625 C23.444375,61.987375 23.55575,61.987375 23.65825,62.020625 L26.4995,62.96775 L29.340875,62.020625 C29.443375,61.987375 29.55475,61.987375 29.65725,62.020625 L32.4985,62.96775 L35.33975,62.020625 C35.44225,61.987375 35.553625,61.987375 35.656125,62.020625 L38.497375,62.96775 L41.338625,62.020625 C41.441125,61.987375 41.5525,61.987375 41.655,62.020625 L44.6545,63.0205 C44.916125,63.108375 45.05775,63.3915 44.97075,63.65325 C44.9015,63.862 44.70625,63.994875 44.497375,63.994875 Z" id="Shape"></path>
                        <path d="M44.497375,63.994875 C44.221,63.994875 43.997375,63.77125 43.997375,63.494875 L43.997375,3.024125 C43.997375,2.747875 44.221,2.52425 44.497375,2.52425 C44.77375,2.52425 44.99725,2.747875 44.99725,3.024125 L44.99725,63.494875 C44.99725,63.77125 44.773625,63.994875 44.497375,63.994875 Z" id="Shape"></path>
                        <path d="M49.4965,3.524125 C49.22025,3.524125 48.996625,3.3005 48.996625,3.024125 C48.996625,1.921875 48.10025,1.0245 46.996875,1.0245 C45.893625,1.0245 44.99725,1.921875 44.99725,3.024125 C44.99725,3.3005 44.77375,3.524125 44.497375,3.524125 C44.221,3.524125 43.997375,3.3005 43.997375,3.024125 C43.997375,1.370125 45.343,0.024625 46.996875,0.024625 C48.650875,0.024625 49.996375,1.370125 49.996375,3.024125 C49.996375,3.3005 49.772875,3.524125 49.4965,3.524125 Z" id="Shape"></path>
                        <path d="M51.996125,30.000375 C50.342125,30.000375 48.996625,28.654875 48.996625,27.00075 C48.996625,26.7245 49.22025,26.50075 49.4965,26.50075 C49.772875,26.50075 49.996375,26.724375 49.996375,27.00075 C49.996375,28.103125 50.892875,29.0005 51.996125,29.0005 C53.099375,29.0005 53.99575,28.103125 53.99575,27.00075 C53.99575,26.7245 54.219375,26.50075 54.49575,26.50075 C54.772,26.50075 54.995625,26.724375 54.995625,27.00075 C54.995625,28.654875 53.650125,30.000375 51.996125,30.000375 Z" id="Shape"></path>
                        <path d="M54.49575,27.50075 C54.219375,27.50075 53.99575,27.277125 53.99575,27.00075 L53.99575,16.5025 C53.99575,16.22625 54.219375,16.0025 54.49575,16.0025 C54.772,16.0025 54.995625,16.226125 54.995625,16.5025 L54.995625,27.00075 C54.995625,27.277125 54.772,27.50075 54.49575,27.50075 Z" id="Shape"></path>
                        <path d="M49.4965,27.50075 C49.22025,27.50075 48.996625,27.277125 48.996625,27.00075 L48.996625,3.024125 C48.996625,2.747875 49.22025,2.52425 49.4965,2.52425 C49.772875,2.52425 49.996375,2.747875 49.996375,3.024125 L49.996375,27.00075 C49.996375,27.277125 49.772875,27.50075 49.4965,27.50075 Z" id="Shape"></path>
                        <path d="M39.498,31.000125 L5.5035,31.000125 C5.22725,31.000125 5.003625,30.776625 5.003625,30.50025 L5.003625,28.500625 C5.003625,28.22425 5.22725,28.000625 5.5035,28.000625 L39.498,28.000625 C39.774375,28.000625 39.998,28.22425 39.998,28.500625 L39.998,30.50025 C39.998,30.776625 39.774375,31.000125 39.498,31.000125 Z M6.0035,30.000375 L38.998125,30.000375 L38.998125,29.0005 L6.0035,29.0005 L6.0035,30.000375 Z" id="Shape"></path>
                        <path d="M21.501,35.999375 L5.5035,35.999375 C5.22725,35.999375 5.003625,35.77575 5.003625,35.4995 C5.003625,35.223125 5.22725,34.9995 5.5035,34.9995 L21.500875,34.9995 C21.77725,34.9995 22.00075,35.223125 22.00075,35.4995 C22.000875,35.77575 21.777375,35.999375 21.501,35.999375 Z" id="Shape"></path>
                        <path d="M39.498,35.999375 L36.4985,35.999375 C36.22225,35.999375 35.998625,35.77575 35.998625,35.4995 C35.998625,35.223125 36.22225,34.9995 36.4985,34.9995 L39.498,34.9995 C39.774375,34.9995 39.998,35.223125 39.998,35.4995 C39.998,35.77575 39.774375,35.999375 39.498,35.999375 Z" id="Shape"></path>
                        <path d="M24.5005,39.99875 L5.5035,39.99875 C5.22725,39.99875 5.003625,39.775125 5.003625,39.49875 C5.003625,39.222375 5.22725,38.998875 5.5035,38.998875 L24.5005,38.998875 C24.776875,38.998875 25.000375,39.222375 25.000375,39.49875 C25.000375,39.775125 24.776875,39.99875 24.5005,39.99875 Z" id="Shape"></path>
                        <path d="M39.498,39.99875 L36.4985,39.99875 C36.22225,39.99875 35.998625,39.775125 35.998625,39.49875 C35.998625,39.222375 36.22225,38.998875 36.4985,38.998875 L39.498,38.998875 C39.774375,38.998875 39.998,39.222375 39.998,39.49875 C39.998,39.775125 39.774375,39.99875 39.498,39.99875 Z" id="Shape"></path>
                        <path d="M20.501125,43.998 L5.5035,43.998 C5.22725,43.998 5.003625,43.774375 5.003625,43.498125 C5.003625,43.22175 5.22725,42.99825 5.5035,42.99825 L20.501,42.99825 C20.777375,42.99825 21.001,43.22175 21.001,43.498125 C21.001125,43.774375 20.7775,43.998 20.501125,43.998 Z" id="Shape"></path>
                        <path d="M39.498,43.998 L36.4985,43.998 C36.22225,43.998 35.998625,43.774375 35.998625,43.498125 C35.998625,43.22175 36.22225,42.99825 36.4985,42.99825 L39.498,42.99825 C39.774375,42.99825 39.998,43.22175 39.998,43.498125 C39.998,43.774375 39.774375,43.998 39.498,43.998 Z" id="Shape"></path>
                        <path d="M39.498,49.997125 L5.5035,49.997125 C5.22725,49.997125 5.003625,49.7735 5.003625,49.49725 C5.003625,49.220875 5.22725,48.997375 5.5035,48.997375 L39.498,48.997375 C39.774375,48.997375 39.998,49.220875 39.998,49.49725 C39.998,49.7735 39.774375,49.997125 39.498,49.997125 Z" id="Shape"></path>
                        <path d="M39.498,31.000125 L5.5035,31.000125 C5.22725,31.000125 5.003625,30.776625 5.003625,30.50025 L5.003625,28.500625 C5.003625,28.22425 5.22725,28.000625 5.5035,28.000625 L39.498,28.000625 C39.774375,28.000625 39.998,28.22425 39.998,28.500625 L39.998,30.50025 C39.998,30.776625 39.774375,31.000125 39.498,31.000125 Z M6.0035,30.000375 L38.998125,30.000375 L38.998125,29.0005 L6.0035,29.0005 L6.0035,30.000375 Z" id="Shape-Copy-6"></path>
                        <path d="M39.494375,6.9995 L5.499875,6.9995 C5.223625,6.9995 5,6.776 5,6.499625 L5,4.5 C5,4.223625 5.223625,4 5.499875,4 L39.494375,4 C39.77075,4 39.994375,4.223625 39.994375,4.5 L39.994375,6.499625 C39.994375,6.776 39.77075,6.9995 39.494375,6.9995 Z M5.999875,5.99975 L38.9945,5.99975 L38.9945,4.999875 L5.999875,4.999875 L5.999875,5.99975 Z" id="Shape-Copy-7"></path>
                        <path d="M21.501,35.999375 L5.5035,35.999375 C5.22725,35.999375 5.003625,35.77575 5.003625,35.4995 C5.003625,35.223125 5.22725,34.9995 5.5035,34.9995 L21.500875,34.9995 C21.77725,34.9995 22.00075,35.223125 22.00075,35.4995 C22.000875,35.77575 21.777375,35.999375 21.501,35.999375 Z" id="Shape-Copy-5"></path>
                        <path d="M39.498,35.999375 L36.4985,35.999375 C36.22225,35.999375 35.998625,35.77575 35.998625,35.4995 C35.998625,35.223125 36.22225,34.9995 36.4985,34.9995 L39.498,34.9995 C39.774375,34.9995 39.998,35.223125 39.998,35.4995 C39.998,35.77575 39.774375,35.999375 39.498,35.999375 Z" id="Shape-Copy-4"></path>
                        <path d="M39.498,39.99875 L36.4985,39.99875 C36.22225,39.99875 35.998625,39.775125 35.998625,39.49875 C35.998625,39.222375 36.22225,38.998875 36.4985,38.998875 L39.498,38.998875 C39.774375,38.998875 39.998,39.222375 39.998,39.49875 C39.998,39.775125 39.774375,39.99875 39.498,39.99875 Z" id="Shape-Copy-3"></path>
                        <path d="M20.501125,43.998 L5.5035,43.998 C5.22725,43.998 5.003625,43.774375 5.003625,43.498125 C5.003625,43.22175 5.22725,42.99825 5.5035,42.99825 L20.501,42.99825 C20.777375,42.99825 21.001,43.22175 21.001,43.498125 C21.001125,43.774375 20.7775,43.998 20.501125,43.998 Z" id="Shape-Copy-2"></path>
                        <path d="M24.496875,15.999875 L5.499875,15.999875 C5.223625,15.999875 5,15.77625 5,15.499875 C5,15.2235 5.223625,15 5.499875,15 L24.496875,15 C24.77325,15 24.99675,15.2235 24.99675,15.499875 C24.99675,15.77625 24.77325,15.999875 24.496875,15.999875 Z" id="Shape-Copy-14"></path>
                        <path d="M39.499375,19.99975 L36.499875,19.99975 C36.223625,19.99975 36,19.776125 36,19.499875 C36,19.2235 36.223625,19 36.499875,19 L39.499375,19 C39.77575,19 39.999375,19.2235 39.999375,19.499875 C39.999375,19.776125 39.77575,19.99975 39.499375,19.99975 Z" id="Shape-Copy-13"></path>
                        <path d="M21.497375,11.999875 L5.499875,11.999875 C5.223625,11.999875 5,11.77625 5,11.5 C5,11.223625 5.223625,11 5.499875,11 L21.49725,11 C21.773625,11 21.997125,11.223625 21.997125,11.5 C21.99725,11.77625 21.77375,11.999875 21.497375,11.999875 Z" id="Shape-Copy-12"></path>
                        <path d="M39.499375,11.999875 L36.499875,11.999875 C36.223625,11.999875 36,11.77625 36,11.5 C36,11.223625 36.223625,11 36.499875,11 L39.499375,11 C39.77575,11 39.999375,11.223625 39.999375,11.5 C39.999375,11.77625 39.77575,11.999875 39.499375,11.999875 Z" id="Shape-Copy-11"></path>
                        <path d="M39.499375,15.999875 L36.499875,15.999875 C36.223625,15.999875 36,15.77625 36,15.499875 C36,15.2235 36.223625,15 36.499875,15 L39.499375,15 C39.77575,15 39.999375,15.2235 39.999375,15.499875 C39.999375,15.77625 39.77575,15.999875 39.499375,15.999875 Z" id="Shape-Copy-10"></path>
                        <path d="M20.4975,19.99975 L5.499875,19.99975 C5.223625,19.99975 5,19.776125 5,19.499875 C5,19.2235 5.223625,19 5.499875,19 L20.497375,19 C20.77375,19 20.997375,19.2235 20.997375,19.499875 C20.9975,19.776125 20.773875,19.99975 20.4975,19.99975 Z" id="Shape-Copy-9"></path>
                        <path d="M39.498,49.997125 L5.5035,49.997125 C5.22725,49.997125 5.003625,49.7735 5.003625,49.49725 C5.003625,49.220875 5.22725,48.997375 5.5035,48.997375 L39.498,48.997375 C39.774375,48.997375 39.998,49.220875 39.998,49.49725 C39.998,49.7735 39.774375,49.997125 39.498,49.997125 Z" id="Shape-Copy"></path>
                        <path d="M13.502375,55.996125 L5.503625,55.996125 C5.227375,55.996125 5.00375,55.772625 5.00375,55.49625 C5.00375,55.22 5.227375,54.996375 5.503625,54.996375 L13.502375,54.996375 C13.778625,54.996375 14.00225,55.22 14.00225,55.49625 C14.00225,55.772625 13.778625,55.996125 13.502375,55.996125 Z" id="Shape"></path>
                        <path d="M34.498875,55.996125 L31.499375,55.996125 C31.223,55.996125 30.9995,55.772625 30.9995,55.49625 C30.9995,55.22 31.223,54.996375 31.499375,54.996375 L34.498875,54.996375 C34.77525,54.996375 34.99875,55.22 34.99875,55.49625 C34.99875,55.772625 34.77525,55.996125 34.498875,55.996125 Z" id="Shape"></path>
                        <path d="M39.498,56.996 L37.498375,56.996 C37.222125,56.996 36.9985,56.772375 36.9985,56.496125 C36.9985,56.21975 37.222125,55.996125 37.498375,55.996125 L38.564625,55.996125 L37.0825,53.77375 C36.981,53.6205 36.971125,53.42325 37.057125,53.26025 C37.145,53.098125 37.313875,52.996625 37.498375,52.996625 L39.498,52.996625 C39.774375,52.996625 39.998,53.22025 39.998,53.496625 C39.998,53.772875 39.774375,53.9965 39.498,53.9965 L38.431875,53.9965 L39.914,56.21875 C40.0155,56.372125 40.025375,56.569375 39.939375,56.732375 C39.8515,56.894375 39.682625,56.996 39.498,56.996 Z" id="Shape"></path>
                        <path d="M38.49825,53.9965 C38.221875,53.9965 37.99825,53.772875 37.99825,53.496625 L37.99825,52.996625 C37.99825,52.720375 38.221875,52.49675 38.49825,52.49675 C38.774625,52.49675 38.998125,52.720375 38.998125,52.996625 L38.998125,53.496625 C38.998125,53.772875 38.774625,53.9965 38.49825,53.9965 Z" id="Shape"></path>
                        <path d="M38.49825,57.495875 C38.221875,57.495875 37.99825,57.272375 37.99825,56.996 L37.99825,56.496125 C37.99825,56.21975 38.221875,55.996125 38.49825,55.996125 C38.774625,55.996125 38.998125,56.21975 38.998125,56.496125 L38.998125,56.996 C38.998125,57.272375 38.774625,57.495875 38.49825,57.495875 Z" id="Shape"></path>
                        <path d="M8.503,30.000375 C8.22675,30.000375 8.003125,29.77675 8.003125,29.500375 L8.003125,28.500625 C8.003125,28.22425 8.22675,28.000625 8.503,28.000625 C8.779375,28.000625 9.003,28.22425 9.003,28.500625 L9.003,29.500375 C9.003,29.77675 8.779375,30.000375 8.503,30.000375 Z" id="Shape"></path>
                        <path d="M12.5025,30.000375 C12.226125,30.000375 12.002625,29.77675 12.002625,29.500375 L12.002625,28.500625 C12.002625,28.22425 12.226125,28.000625 12.5025,28.000625 C12.778875,28.000625 13.002375,28.22425 13.002375,28.500625 L13.002375,29.500375 C13.002375,29.77675 12.77875,30.000375 12.5025,30.000375 Z" id="Shape"></path>
                        <path d="M16.501875,30.000375 C16.2255,30.000375 16.001875,29.77675 16.001875,29.500375 L16.001875,28.500625 C16.001875,28.22425 16.2255,28.000625 16.501875,28.000625 C16.778125,28.000625 17.00175,28.22425 17.00175,28.500625 L17.00175,29.500375 C17.00175,29.77675 16.778125,30.000375 16.501875,30.000375 Z" id="Shape"></path>
                        <path d="M20.501125,30.000375 C20.224875,30.000375 20.00125,29.77675 20.00125,29.500375 L20.00125,28.500625 C20.00125,28.22425 20.224875,28.000625 20.501125,28.000625 C20.7775,28.000625 21.001125,28.22425 21.001125,28.500625 L21.001125,29.500375 C21.001125,29.77675 20.7775,30.000375 20.501125,30.000375 Z" id="Shape"></path>
                        <path d="M24.5005,30.000375 C24.224125,30.000375 24.000625,29.77675 24.000625,29.500375 L24.000625,28.500625 C24.000625,28.22425 24.224125,28.000625 24.5005,28.000625 C24.776875,28.000625 25.000375,28.22425 25.000375,28.500625 L25.000375,29.500375 C25.000375,29.77675 24.776875,30.000375 24.5005,30.000375 Z" id="Shape"></path>
                        <path d="M28.499875,30.000375 C28.2235,30.000375 28,29.77675 28,29.500375 L28,28.500625 C28,28.22425 28.2235,28.000625 28.499875,28.000625 C28.776125,28.000625 28.99975,28.22425 28.99975,28.500625 L28.99975,29.500375 C28.99975,29.77675 28.776125,30.000375 28.499875,30.000375 Z" id="Shape"></path>
                        <path d="M32.49925,30.000375 C32.222875,30.000375 31.99925,29.77675 31.99925,29.500375 L31.99925,28.500625 C31.99925,28.22425 32.222875,28.000625 32.49925,28.000625 C32.7755,28.000625 32.999125,28.22425 32.999125,28.500625 L32.999125,29.500375 C32.999125,29.77675 32.7755,30.000375 32.49925,30.000375 Z" id="Shape"></path>
                        <path d="M36.4985,30.000375 C36.22225,30.000375 35.998625,29.77675 35.998625,29.500375 L35.998625,28.500625 C35.998625,28.22425 36.22225,28.000625 36.4985,28.000625 C36.774875,28.000625 36.9985,28.22425 36.9985,28.500625 L36.9985,29.500375 C36.9985,29.77675 36.774875,30.000375 36.4985,30.000375 Z" id="Shape"></path>
                        <path d="M8.499875,6.000625 C8.223625,6.000625 8,5.777 8,5.500625 L8,4.500875 C8,4.2245 8.223625,4.000875 8.499875,4.000875 C8.77625,4.000875 8.999875,4.2245 8.999875,4.500875 L8.999875,5.500625 C8.999875,5.777 8.77625,6.000625 8.499875,6.000625 Z" id="Shape-Copy-22"></path>
                        <path d="M12.499875,6.000625 C12.2235,6.000625 12,5.777 12,5.500625 L12,4.500875 C12,4.2245 12.2235,4.000875 12.499875,4.000875 C12.77625,4.000875 12.99975,4.2245 12.99975,4.500875 L12.99975,5.500625 C12.99975,5.777 12.776125,6.000625 12.499875,6.000625 Z" id="Shape-Copy-21"></path>
                        <path d="M16.5,6.000625 C16.223625,6.000625 16,5.777 16,5.500625 L16,4.500875 C16,4.2245 16.223625,4.000875 16.5,4.000875 C16.77625,4.000875 16.999875,4.2245 16.999875,4.500875 L16.999875,5.500625 C16.999875,5.777 16.77625,6.000625 16.5,6.000625 Z" id="Shape-Copy-20"></path>
                        <path d="M20.499875,6.000625 C20.223625,6.000625 20,5.777 20,5.500625 L20,4.500875 C20,4.2245 20.223625,4.000875 20.499875,4.000875 C20.77625,4.000875 20.999875,4.2245 20.999875,4.500875 L20.999875,5.500625 C20.999875,5.777 20.77625,6.000625 20.499875,6.000625 Z" id="Shape-Copy-19"></path>
                        <path d="M24.499875,6.000625 C24.2235,6.000625 24,5.777 24,5.500625 L24,4.500875 C24,4.2245 24.2235,4.000875 24.499875,4.000875 C24.77625,4.000875 24.99975,4.2245 24.99975,4.500875 L24.99975,5.500625 C24.99975,5.777 24.77625,6.000625 24.499875,6.000625 Z" id="Shape-Copy-18"></path>
                        <path d="M28.499875,6.000625 C28.2235,6.000625 28,5.777 28,5.500625 L28,4.500875 C28,4.2245 28.2235,4.000875 28.499875,4.000875 C28.776125,4.000875 28.99975,4.2245 28.99975,4.500875 L28.99975,5.500625 C28.99975,5.777 28.776125,6.000625 28.499875,6.000625 Z" id="Shape-Copy-17"></path>
                        <path d="M32.5,6.000625 C32.223625,6.000625 32,5.777 32,5.500625 L32,4.500875 C32,4.2245 32.223625,4.000875 32.5,4.000875 C32.77625,4.000875 32.999875,4.2245 32.999875,4.500875 L32.999875,5.500625 C32.999875,5.777 32.77625,6.000625 32.5,6.000625 Z" id="Shape-Copy-16"></path>
                        <path d="M36.499875,6.000625 C36.223625,6.000625 36,5.777 36,5.500625 L36,4.500875 C36,4.2245 36.223625,4.000875 36.499875,4.000875 C36.77625,4.000875 36.999875,4.2245 36.999875,4.500875 L36.999875,5.500625 C36.999875,5.777 36.77625,6.000625 36.499875,6.000625 Z" id="Shape-Copy-15"></path>
                        <path d="M51.996125,30.000375 L44.497375,30.000375 C44.221,30.000375 43.997375,29.77675 43.997375,29.500375 C43.997375,29.224125 44.221,29.0005 44.497375,29.0005 L51.996125,29.0005 C52.2725,29.0005 52.496,29.224125 52.496,29.500375 C52.496,29.77675 52.2725,30.000375 51.996125,30.000375 Z" id="Shape"></path>
                        <path d="M54.49575,17.0025 L49.4965,17.0025 C49.22025,17.0025 48.996625,16.778875 48.996625,16.5025 C48.996625,16.226125 49.22025,16.0025 49.4965,16.0025 L54.49575,16.0025 C54.772,16.0025 54.995625,16.226125 54.995625,16.5025 C54.995625,16.778875 54.772,17.0025 54.49575,17.0025 Z" id="Shape"></path>
                    </g>
                </g>
            </g>
        </g>
    </g>
</svg>