<?xml version="1.0" encoding="UTF-8"?>
<svg viewBox="0 0 64 52" version="1.1" xmlns="http://www.w3.org/2000/svg" xmlns:xlink="http://www.w3.org/1999/xlink">
            <g id="Symbols" stroke="none" stroke-width="1" fill="none" fill-rule="evenodd">
        <g id="Icon/Large/Initial-survey/team-me_inactive" transform="translate(0.000000, -6.000000)" fill-rule="nonzero">
            <g id="Group-5">
                <rect id="Rectangle-2-Copy" x="0" y="0" width="64" height="64"></rect>
                <g id="1" transform="translate(0.000000, 6.000000)">
                    <path d="M43.483375,16.887875 C43.48725,16.758 43.502875,16.632125 43.502875,16.501375 C43.502875,9.875 38.1315,4.50375 31.506125,4.50375 C24.87975,4.50375 19.5085,9.875125 19.5085,16.501375 L19.5085,28.49075 L31.3705,28.49075 C31.416375,28.49075 31.46025,28.4985 31.506125,28.4985 C31.552,28.4985 31.595875,28.49075 31.64175,28.49075 L43.483375,28.49075 L43.483375,16.887875 Z" id="Shape" fill="#B7CCDB"></path>
                    <g id="Group" transform="translate(19.500000, 4.500000)" fill="#CFDEE9">
                        <path d="M13.005625,0.054375 C12.6755,0.027 12.343875,0.003625 12.006125,0.003625 C5.37975,0.003625 0.0085,5.375 0.0085,12.00125 L0.0085,23.990625 L2.007125,23.990625 L2.007125,12.00125 C2.007125,5.712625 6.847625,0.56275 13.005625,0.054375 Z" id="Shape"></path>
                        <path d="M12.1205,24.02175 C12.2050622,24.02175 12.2859378,23.99075 12.3705,23.99075 L11.8705,23.99075 C11.9550622,23.99075 12.0359378,24.02175 12.1205,24.02175 Z" id="Shape"></path>
                    </g>
                    <g id="Group" transform="translate(30.500000, 4.500000)" fill="#97B4D0">
                        <path d="M0.055625,0.054375 C0.3855,0.027 0.717375,0.003625 1.055,0.003625 C7.681375,0.003625 13.05275,5.375 13.05275,12.00125 L13.05275,23.990625 L11.054,23.990625 L11.054,12.00125 C11.054,5.712625 6.213625,0.56275 0.055625,0.054375 Z" id="Shape"></path>
                        <path d="M1.169375,24.02175 C1.08481279,24.02175 1.0037068,23.99075 0.919375,23.99075 L1.419375,23.99075 C1.33481279,23.99075 1.25393721,24.02175 1.169375,24.02175 Z" id="Shape"></path>
                    </g>
                    <polygon id="Rectangle-path" fill="#EAF3F9" points="48.48875 17.500625 62.47925 17.500625 62.47925 27.493375 48.48875 27.493375"></polygon>
                    <rect id="Rectangle-path" fill="#B7CCDB" x="8.515875" y="33.48925" width="46.968" height="17.98775"></rect>
                    <polygon id="Rectangle-path" fill="#CFDEE9" points="0.521375 29.492 63.4785 29.492 63.4785 33.489375 0.521375 33.489375"></polygon>
                    <polygon id="Shape" fill="#FFFFFF" points="31.510125 20.506375 29.511375 21.496 26.5135 18.498 27.4035 17.282"></polygon>
                    <polygon id="Shape" fill="#FFFFFF" points="31.551125 20.506375 33.548875 21.496 36.546625 18.498 35.65875 17.282"></polygon>
                    <path d="M35.4575,3.5385 C35.4575,3.5385 39.505625,2.9695 38.48675,9.50425 L36.488,6.50625 C36.488,6.50625 34.118625,7.505625 31.51975,7.505625 C28.931625,7.505625 26.493875,6.50625 26.493875,6.50625 L24.505,9.4945 L24.49525,9.50425 C23.466625,-1.48825 36.49775,0.700625 36.49775,0.700625 C34.557875,1.49 35.4575,3.5385 35.4575,3.5385 Z" id="Shape" fill="#CFDEE9"></path>
                    <path d="M35.4575,3.5385 C35.4575,3.5385 37.93825,3.057375 37.626,8.213 L38.486875,9.504125 C39.505625,2.9695 35.4575,3.5385 35.4575,3.5385 Z" id="Shape" fill="#B7CCDB"></path>
                    <path d="M34.462125,0.52975 C30.840625,0.432125 23.724375,1.2715 24.49525,9.504125 L24.505,9.494375 L25.44975,8.077375 C25.5825,1.810125 30.93425,0.623375 34.462125,0.52975 Z" id="Shape" fill="#EAF3F9"></path>
                    <path d="M38.516125,10.513125 C38.516125,15.26 34.189,19.63775 31.519875,19.63775 C28.8635,19.63775 24.524625,15.26 24.524625,10.513125 L24.524625,9.504125 L24.505125,9.494375 L26.494,6.506125 C26.494,6.506125 28.93175,7.5055 31.519875,7.5055 C34.11875,7.5055 36.488125,6.506125 36.488125,6.506125 L38.486875,9.504125 L38.516125,9.504125 L38.516125,10.513125 Z" id="Shape" fill="#EAF3F9"></path>
                    <path d="M38.486875,9.504125 L36.488125,6.506125 C36.488125,6.506125 35.832375,6.779375 34.844875,7.039 L36.488125,9.504125 L36.517375,9.504125 L36.517375,10.513125 C36.517375,14.70275 33.14875,18.599375 30.5225,19.45825 C30.871875,19.5725 31.207625,19.637875 31.519875,19.637875 C34.189,19.637875 38.516125,15.260125 38.516125,10.51325 L38.516125,9.50425 L38.486875,9.50425 L38.486875,9.504125 Z" id="Shape" fill="#CFDEE9"></path>
                    <path d="M26.52325,10.513125 L26.52325,9.504125 L26.50375,9.494375 L28.14325,7.033125 C27.151625,6.7755 26.494,6.506125 26.494,6.506125 L24.505125,9.494375 L24.524625,9.504125 L24.524625,10.513125 C24.524625,15.26 28.8635,19.63775 31.519875,19.63775 C31.834125,19.63775 32.171625,19.5725 32.52225,19.458125 C29.90175,18.5995 26.52325,14.70275 26.52325,10.513125 Z" id="Shape" fill="#FFFFFF"></path>
                    <path d="M43.483375,29.49 L19.49875,29.49 L19.49875,28.49075 C19.49875,28.49075 19.49875,25.823125 19.49875,24.164125 C19.49875,22.49525 20.338,21.866875 21.997,21.246125 C22.81675,20.93675 24.286375,20.387375 25.494625,19.807625 L26.66375,18.648375 L29.511375,21.496 L31.51,20.506375 L33.50975,21.496 L36.347625,18.658125 L37.4875,19.798 C38.70525,20.387375 40.16525,20.936875 40.985,21.246125 C42.65375,21.866875 43.48325,22.49525 43.48325,24.164125 C43.48325,25.823125 43.48325,28.49075 43.48325,28.49075 L43.483375,29.49 Z" id="Shape" fill="#CFDEE9"></path>
                    <path d="M21.497375,24.164 C21.497375,22.495125 22.336625,21.86675 23.995625,21.246 C24.815375,20.936625 26.285,20.38725 27.49325,19.8075 L27.659125,19.6435 L26.66375,18.648125 L25.494625,19.807375 C24.286375,20.387125 22.81675,20.9365 21.997,21.245875 C20.338,21.866625 19.49875,22.495 19.49875,24.163875 C19.49875,25.822875 19.49875,28.4905 19.49875,28.4905 L19.49875,29.48975 L21.497375,29.48975 L21.497375,28.4905 C21.497375,28.49075 21.497375,25.823125 21.497375,24.164 Z" id="Shape" fill="#EAF3F9"></path>
                    <path d="M41.504125,24.164 C41.504125,22.495125 40.665,21.86675 39.005875,21.246 C38.18825,20.936625 36.7185,20.38725 35.508375,19.8075 L35.342625,19.6435 L36.338,18.648125 L37.50725,19.807375 C38.71725,20.387125 40.187,20.9365 41.00475,21.245875 C42.663625,21.866625 43.503,22.495 43.503,24.163875 C43.503,25.822875 43.503,28.4905 43.503,28.4905 L43.503,29.48975 L41.50425,29.48975 L41.50425,28.4905 C41.504125,28.49075 41.504125,25.823125 41.504125,24.164 Z" id="Shape" fill="#B7CCDB"></path>
                    <polygon id="Shape" fill="#B7CCDB" points="32.549375 29.49 30.55175 29.49 31.051375 21.995625 32.05075 21.995625"></polygon>
                    <polygon id="Rectangle-path" fill="#B7CCDB" points="30.625875 20.63725 32.407 20.63725 32.407 21.995625 30.625875 21.995625"></polygon>
                    <rect id="Rectangle-path" fill="#CFDEE9" x="2.520125" y="33.48925" width="5.995875" height="17.98775"></rect>
                    <polygon id="Rectangle-path" fill="#CFDEE9" points="55.483875 33.48925 61.48 33.48925 61.48 51.477 55.483875 51.477"></polygon>
                    <polygon id="Rectangle-path" fill="#CFDEE9" points="11.513875 36.487125 51.48675 36.487125 51.48675 49.478375 11.513875 49.478375"></polygon>
                    <rect id="Rectangle-path" fill="#EAF3F9" x="2.520125" y="34.4885" width="1" height="16.9885"></rect>
                    <rect id="Rectangle-path" fill="#EAF3F9" x="11.513875" y="36.487125" width="1" height="12.99125"></rect>
                    <rect id="Rectangle-path" fill="#B7CCDB" x="50.48725" y="36.487125" width="1" height="12.99125"></rect>
                    <rect id="Rectangle-path" fill="#97B4D0" x="54.484625" y="34.4885" width="1" height="16.9885"></rect>
                    <rect id="Rectangle-path" fill="#B7CCDB" x="60.48075" y="34.4885" width="1" height="16.9885"></rect>
                    <rect id="Rectangle-path" fill="#97B4D0" x="8.515875" y="34.4885" width="1" height="16.9885"></rect>
                    <rect id="Rectangle-path" fill="#EAF3F9" x="55.483875" y="34.4885" width="1" height="16.9885"></rect>
                    <rect id="Rectangle-path" fill="#B7CCDB" x="7.516625" y="34.4885" width="1" height="16.9885"></rect>
                    <rect id="Rectangle-path" fill="#B7CCDB" x="2.520125" y="33.48925" width="5.995875" height="1"></rect>
                    <polygon id="Rectangle-path" fill="#B7CCDB" points="55.483875 33.48925 61.48 33.48925 61.48 34.48925 55.483875 34.48925"></polygon>
                    <rect id="Rectangle-path" fill="#97B4D0" x="8.515875" y="33.48925" width="46.968" height="1"></rect>
                    <path d="M56.483375,22.49725 C56.483375,23.049625 56.036375,23.496625 55.483875,23.496625 C54.931625,23.496625 54.484625,23.049625 54.484625,22.49725 C54.484625,21.945 54.931625,21.498 55.483875,21.498 C56.036375,21.497875 56.483375,21.944875 56.483375,22.49725 Z" id="Shape" fill="#FFFFFF"></path>
                    <path d="M14.511875,23.496625 L0.521375,23.496625 L0.521375,27.4935 L14.511875,27.4935 C14.511875,27.4935 13.5125,26.494625 13.5125,25.495375 C13.512625,24.495875 14.511875,23.496625 14.511875,23.496625 Z" id="Shape" fill="#FFFFFF"></path>
                    <path d="M2.520125,21.497875 L12.51325,21.497875 L12.51325,19.49925 L2.520125,19.49925 C2.520125,19.49925 3.519375,19.49925 3.519375,20.498625 C3.519375,21.498 2.520125,21.497875 2.520125,21.497875 Z" id="Shape" fill="#FFFFFF"></path>
                    <polygon id="Rectangle-path" fill="#EAF3F9" points="0.521375 23.496625 1.521375 23.496625 1.521375 27.4935 0.521375 27.4935"></polygon>
                    <rect id="Rectangle-path" fill="#EAF3F9" x="11.513875" y="19.49925" width="1" height="1.998625"></rect>
                    <g id="_x32_4_boss_x2C__director_x2C__table_x2C__business_x2C__job_x2C__work_x2C__office" fill="#7E97B2">
                        <g id="Group" transform="translate(19.000000, 0.000000)">
                            <g id="Shape" transform="translate(0.000000, 19.250000)">
                                <path d="M0.5085,9.74225 C0.232375,9.74225 0.008875,9.51975 0.008875,9.242625 L0.008875,4.914 C0.008875,2.966125 1.04425,2.198 2.832125,1.529625 C3.430375,1.306125 5.020125,0.711875 6.28875,0.10575 C6.5395,-0.01425 6.83525,0.091125 6.95525,0.340875 C7.07425,0.59075 6.968875,0.888375 6.72,1.0075 C5.547,1.567625 4.138875,2.108375 3.181375,2.4665 C1.4755,3.10375 1.008,3.62975 1.008,4.914 L1.008,9.242625 C1.008125,9.51975 0.784625,9.74225 0.5085,9.74225 Z"></path>
                                <path d="M24.49225,9.74225 C24.216125,9.74225 23.9925,9.51975 23.9925,9.242625 L23.9925,4.914 C23.9925,3.62975 23.52525,3.10375 21.819125,2.4665 C20.861875,2.108375 19.452625,1.56675 18.278625,1.004625 C18.029875,0.8855 17.924375,0.586875 18.0435,0.338 C18.162625,0.088125 18.464125,-0.01625 18.71,0.102875 C19.848875,0.648375 21.22975,1.178375 22.1685,1.529625 C23.956375,2.198125 24.992,2.966125 24.992,4.914 L24.992,9.242625 C24.992,9.51975 24.76825,9.74225 24.49225,9.74225 Z"></path>
                            </g>
                            <path d="M12.530625,20.1355 C9.707375,20.1355 5.03575,15.6415 5.03575,10.52 C5.03575,10.243875 5.25925,10.020375 5.535375,10.020375 C5.8115,10.020375 6.035,10.243875 6.035,10.52 C6.035,14.96325 10.087,19.13625 12.530625,19.13625 C14.974125,19.13625 19.026125,14.963375 19.026125,10.52 C19.026125,10.243875 19.24975,10.020375 19.525875,10.020375 C19.802,10.020375 20.025375,10.243875 20.025375,10.52 C20.025375,15.6415 15.35375,20.1355 12.530625,20.1355 Z" id="Shape"></path>
                            <path d="M5.505125,10.00575 C5.464125,10.00575 5.423125,10.000875 5.383125,9.990125 C5.17725,9.938375 5.026875,9.76375 5.007375,9.552875 C4.742875,6.729625 5.35475,4.47925 6.8265,2.864125 C8.964625,0.516125 12.432,0.02325 14.963375,0.02325 C16.474125,0.02325 17.54275,0.198875 17.587625,0.20675 C17.807375,0.24375 17.976,0.422375 18.0015,0.643875 C18.025875,0.865375 17.900875,1.07725 17.695125,1.162125 C17.268625,1.336875 16.995375,1.58575 16.85875,1.923375 C16.70175,2.31275 16.75725,2.747 16.8265,3.031 C17.337,3.0515 18.363625,3.2155 19.145375,4.127875 C20.095875,5.239375 20.37975,7.074125 19.989375,9.583125 C19.957375,9.786125 19.804125,9.95 19.603125,9.994 C19.399,10.038 19.19425,9.954 19.079875,9.783125 L17.30275,7.118 C16.507375,7.405875 14.601625,8.007 12.530625,8.007 C10.452875,8.007 8.504125,7.402 7.699,7.115 L5.920875,9.783125 C5.827125,9.92475 5.669,10.00575 5.505125,10.00575 Z M17.496875,6.008375 C17.66,6.008375 17.818125,6.0885 17.912625,6.230875 L19.14525,8.08025 C19.222375,6.583125 18.964625,5.455125 18.386,4.77775 C17.826875,4.125875 17.094,4.02825 16.7065,4.02825 C16.608875,4.02825 16.546375,4.035125 16.533625,4.036 C16.31225,4.06625 16.098375,3.944375 16.00875,3.74225 C15.98825,3.695375 15.512875,2.58875 15.932625,1.549375 C16.002875,1.37375 16.0935,1.21275 16.202875,1.064375 C15.84575,1.04 15.426,1.022375 14.963375,1.022375 C12.633,1.022375 9.4575,1.458625 7.56525,3.53625 C6.559,4.641 6.020375,6.114625 5.954,7.93175 L7.088,6.23075 C7.21975,6.032625 7.4745,5.954625 7.693125,6.045375 C7.716625,6.055125 10.0705,7.007625 12.530625,7.007625 C14.988875,7.007625 17.280375,6.057125 17.30275,6.04725 C17.36625,6.021125 17.431625,6.008375 17.496875,6.008375 Z" id="Shape"></path>
                            <path d="M19.525875,11.019625 C19.24975,11.019625 19.026125,10.796125 19.026125,10.52 L19.026125,9.506125 C19.026125,9.229875 19.24975,9.006375 19.525875,9.006375 C19.802,9.006375 20.025375,9.229875 20.025375,9.506125 L20.025375,10.52 C20.025375,10.79625 19.802,11.019625 19.525875,11.019625 Z" id="Shape"></path>
                            <path d="M5.535375,11.019625 C5.25925,11.019625 5.03575,10.796125 5.03575,10.52 L5.03575,9.506125 C5.03575,9.229875 5.25925,9.006375 5.535375,9.006375 C5.8115,9.006375 6.035,9.229875 6.035,9.506125 L6.035,10.52 C6.035,10.79625 5.8115,11.019625 5.535375,11.019625 Z" id="Shape"></path>
                            <path d="M10.51725,21.9975 C10.3875,21.9975 10.259625,21.94675 10.164,21.851125 L7.166125,18.85325 C6.970875,18.658 6.970875,18.341875 7.166125,18.146625 C7.361375,17.9515 7.6775,17.9515 7.872625,18.146625 L10.616875,20.890875 L12.308125,20.050625 C12.553125,19.929625 12.854625,20.028125 12.978625,20.276125 C13.100625,20.523875 13,20.823625 12.75325,20.9465 L10.74,21.945875 C10.6685,21.981 10.5925,21.9975 10.51725,21.9975 Z" id="Shape"></path>
                            <path d="M14.513625,21.9975 C14.438375,21.9975 14.36225,21.980875 14.291,21.94575 L12.27775,20.946375 C12.030875,20.8235 11.930375,20.52375 12.052375,20.276 C12.176375,20.028125 12.474,19.929625 12.722875,20.0505 L14.414125,20.89075 L17.15825,18.1465 C17.3535,17.951375 17.66975,17.951375 17.86475,18.1465 C18.06,18.34175 18.06,18.657875 17.86475,18.853125 L14.867,21.851 C14.77125,21.946875 14.64325,21.9975 14.513625,21.9975 Z" id="Shape"></path>
                            <path d="M12.554,22.996875 C12.426125,22.996875 12.29825,22.948125 12.20075,22.8505 L11.201375,21.851125 C11.00625,21.655875 11.00625,21.33975 11.201375,21.144625 C11.396625,20.949375 11.71275,20.949375 11.908,21.144625 L12.907375,22.143875 C13.102625,22.339125 13.102625,22.65525 12.907375,22.8505 C12.809625,22.948125 12.681875,22.996875 12.554,22.996875 Z" id="Shape"></path>
                            <path d="M12.554,22.996875 C12.426125,22.996875 12.29825,22.948125 12.20075,22.8505 C12.0055,22.65525 12.0055,22.339125 12.20075,22.143875 L13.2,21.144625 C13.39525,20.949375 13.7115,20.949375 13.9065,21.144625 C14.10175,21.339875 14.10175,21.656 13.9065,21.851125 L12.90725,22.8505 C12.809625,22.948125 12.681875,22.996875 12.554,22.996875 Z" id="Shape"></path>
                            <path d="M11.555625,28.99225 C11.542,28.99225 11.529375,28.99225 11.516625,28.99025 C11.241375,28.97075 11.0355,28.730625 11.057,28.4555 L11.556625,21.959375 C11.577125,21.68325 11.844625,21.45775 12.0925,21.49975 C12.36775,21.52025 12.573625,21.76025 12.552125,22.0355 L12.052375,28.531625 C12.032875,28.79325 11.81325,28.99225 11.555625,28.99225 Z" id="Shape"></path>
                            <path d="M13.55225,28.99225 C13.29375,28.99225 13.075125,28.793125 13.055625,28.531625 L12.556,22.0355 C12.5345,21.76025 12.7405,21.52025 13.015625,21.49975 C13.2635,21.453875 13.529875,21.68225 13.551375,21.959375 L14.051125,28.4555 C14.072625,28.730625 13.86675,28.97075 13.591375,28.99025 C13.578625,28.99225 13.565875,28.99225 13.55225,28.99225 Z" id="Shape"></path>
                        </g>
                        <path d="M63.4785,29.99175 L0.521375,29.99175 C0.24525,29.99175 0.02175,29.76925 0.02175,29.492 C0.02175,29.216875 0.24525,28.992375 0.521375,28.992375 L63.4785,28.992375 C63.754625,28.992375 63.97825,29.216875 63.97825,29.492 C63.97825,29.769125 63.754625,29.99175 63.4785,29.99175 Z" id="Shape"></path>
                        <path d="M0.521375,33.988875 C0.24525,33.988875 0.02175,33.766375 0.02175,33.48925 L0.02175,29.491875 C0.02175,29.21675 0.24525,28.99225 0.521375,28.99225 C0.7975,28.99225 1.021,29.21675 1.021,29.491875 L1.021,33.48925 C1.021,33.766375 0.7975,33.988875 0.521375,33.988875 Z" id="Shape"></path>
                        <path d="M63.4785,33.988875 L0.521375,33.988875 C0.24525,33.988875 0.02175,33.766375 0.02175,33.48925 C0.02175,33.214125 0.24525,32.989625 0.521375,32.989625 L63.4785,32.989625 C63.754625,32.989625 63.97825,33.214125 63.97825,33.48925 C63.97825,33.766375 63.754625,33.988875 63.4785,33.988875 Z" id="Shape"></path>
                        <path d="M63.4785,33.988875 C63.202375,33.988875 62.979,33.766375 62.979,33.48925 L62.979,29.491875 C62.979,29.21675 63.202375,28.99225 63.4785,28.99225 C63.754625,28.99225 63.97825,29.21675 63.97825,29.491875 L63.97825,33.48925 C63.97825,33.766375 63.754625,33.988875 63.4785,33.988875 Z" id="Shape"></path>
                        <path d="M55.483875,51.976625 C55.20775,51.976625 54.984375,51.754125 54.984375,51.477 L54.984375,33.48925 C54.984375,33.214125 55.20775,32.989625 55.483875,32.989625 C55.76025,32.989625 55.983625,33.214125 55.983625,33.48925 L55.983625,51.477 C55.983625,51.754125 55.76025,51.976625 55.483875,51.976625 Z" id="Shape"></path>
                        <path d="M61.48,51.976625 C61.203875,51.976625 60.98025,51.754125 60.98025,51.477 L60.98025,33.48925 C60.98025,33.214125 61.203875,32.989625 61.48,32.989625 C61.756125,32.989625 61.9795,33.214125 61.9795,33.48925 L61.9795,51.477 C61.9795,51.754125 61.756125,51.976625 61.48,51.976625 Z" id="Shape"></path>
                        <path d="M2.520125,51.976625 C2.243875,51.976625 2.020375,51.754125 2.020375,51.477 L2.020375,33.48925 C2.020375,33.214125 2.243875,32.989625 2.520125,32.989625 C2.79625,32.989625 3.01975,33.214125 3.01975,33.48925 L3.01975,51.477 C3.01975,51.754125 2.79625,51.976625 2.520125,51.976625 Z" id="Shape"></path>
                        <path d="M8.515875,51.976625 C8.23975,51.976625 8.01625,51.754125 8.01625,51.477 L8.01625,33.48925 C8.01625,33.214125 8.23975,32.989625 8.515875,32.989625 C8.792125,32.989625 9.015625,33.214125 9.015625,33.48925 L9.015625,51.477 C9.015625,51.754125 8.792125,51.976625 8.515875,51.976625 Z" id="Shape"></path>
                        <path d="M51.486875,36.986875 L11.513875,36.986875 C11.23775,36.986875 11.014125,36.7645 11.014125,36.48725 C11.014125,36.212125 11.237625,35.987625 11.513875,35.987625 L51.48675,35.987625 C51.762875,35.987625 51.98625,36.212125 51.98625,36.48725 C51.986375,36.764375 51.763,36.986875 51.486875,36.986875 Z" id="Shape"></path>
                        <path d="M51.486875,49.978 L11.513875,49.978 C11.23775,49.978 11.014125,49.7555 11.014125,49.478375 C11.014125,49.203125 11.237625,48.97875 11.513875,48.97875 L51.48675,48.97875 C51.762875,48.97875 51.98625,49.203125 51.98625,49.478375 C51.986375,49.7555 51.763,49.978 51.486875,49.978 Z" id="Shape"></path>
                        <path d="M11.513875,49.978 C11.23775,49.978 11.014125,49.7555 11.014125,49.478375 L11.014125,36.487125 C11.014125,36.212 11.237625,35.9875 11.513875,35.9875 C11.790125,35.9875 12.013625,36.212 12.013625,36.487125 L12.013625,49.478375 C12.013625,49.7555 11.790125,49.978 11.513875,49.978 Z" id="Shape"></path>
                        <path d="M51.486875,49.978 C51.2105,49.978 50.987125,49.7555 50.987125,49.478375 L50.987125,36.487125 C50.987125,36.212 51.2105,35.9875 51.486875,35.9875 C51.763,35.9875 51.986375,36.212 51.986375,36.487125 L51.986375,49.478375 C51.986375,49.7555 51.763,49.978 51.486875,49.978 Z" id="Shape"></path>
                        <path d="M4.518625,51.976625 C4.2425,51.976625 4.019,51.754125 4.019,51.477 L4.019,44.48175 C4.019,44.2065 4.2425,43.982125 4.518625,43.982125 C4.79475,43.982125 5.018375,44.2065 5.018375,44.48175 L5.018375,51.477 C5.018375,51.754125 4.794875,51.976625 4.518625,51.976625 Z" id="Shape"></path>
                        <path d="M7.516625,40.984125 C6.9145,40.984125 6.017625,40.585875 6.017625,39.485125 L6.017625,34.4885 C6.017625,34.213375 6.241125,33.988875 6.517375,33.988875 C6.793625,33.988875 7.017125,34.213375 7.017125,34.4885 L7.017125,39.485125 C7.017125,39.88725 7.29225,39.979 7.522625,39.984875 C7.795875,39.992625 8.016375,40.217 8.0125,40.490375 C8.0095,40.765625 7.789875,40.984125 7.516625,40.984125 Z" id="Shape"></path>
                        <path d="M59.48125,51.976625 C59.205125,51.976625 58.98175,51.754125 58.98175,51.477 L58.98175,46.480375 C58.98175,45.3815 59.8785,44.981375 60.48075,44.981375 C60.756875,44.981375 60.98025,45.205875 60.98025,45.481 C60.98025,45.75825 60.756875,45.980625 60.48075,45.980625 C60.256125,45.9865 59.981,46.07825 59.981,46.480375 L59.981,51.477 C59.981,51.754125 59.757625,51.976625 59.48125,51.976625 Z" id="Shape"></path>
                        <path d="M18.509125,48.97875 C18.233,48.97875 18.009375,48.75625 18.009375,48.479 C18.003625,48.254625 17.911875,47.979375 17.50975,47.979375 L12.513125,47.979375 C12.237,47.979375 12.0135,47.756875 12.0135,47.47975 C12.0135,47.204625 12.237,46.980125 12.513125,46.980125 L17.50975,46.980125 C18.609625,46.980125 19.00875,47.878 19.00875,48.479 C19.008875,48.75625 18.785375,48.97875 18.509125,48.97875 Z" id="Shape"></path>
                        <path d="M50.48725,38.985625 L35.4975,38.985625 C34.397625,38.985625 33.9985,38.089625 33.9985,37.486625 C33.9985,37.211375 34.222125,36.986875 34.49825,36.986875 C34.774375,36.986875 34.998,37.211375 34.998,37.486625 C35.003875,37.711 35.095375,37.98625 35.4975,37.98625 L50.48725,37.98625 C50.763625,37.98625 50.987,38.21075 50.987,38.485875 C50.987,38.763 50.763625,38.985625 50.48725,38.985625 Z" id="Shape"></path>
                        <path d="M57.482625,42.98275 C57.2065,42.98275 56.982875,42.76025 56.982875,42.483125 L56.982875,35.487875 C56.982875,35.212625 57.2065,34.98825 57.482625,34.98825 C57.75875,34.98825 57.982375,35.212625 57.982375,35.487875 L57.982375,42.483125 C57.982375,42.76025 57.75875,42.98275 57.482625,42.98275 Z" id="Shape"></path>
                        <path d="M24.505125,42.98275 L11.513875,42.98275 C11.23775,42.98275 11.014125,42.76025 11.014125,42.483125 C11.014125,42.208 11.237625,41.9835 11.513875,41.9835 L24.505,41.9835 C24.781125,41.9835 25.004625,42.208 25.004625,42.483125 C25.00475,42.76025 24.78125,42.98275 24.505125,42.98275 Z" id="Shape"></path>
                        <path d="M51.486875,44.9815 L42.493,44.9815 C42.216625,44.9815 41.99325,44.759 41.99325,44.481875 C41.99325,44.206625 42.216625,43.98225 42.493,43.98225 L51.486875,43.98225 C51.763,43.98225 51.986375,44.206625 51.986375,44.481875 C51.986375,44.758875 51.763,44.9815 51.486875,44.9815 Z" id="Shape"></path>
                        <g id="Group" transform="translate(39.875000, 8.000000)">
                            <path d="M3.61725,12.993375 C3.341125,12.993375 3.1175,12.769875 3.1175,12.493625 L3.1175,8.50125 C3.1175,8.225 3.341125,8.0015 3.61725,8.0015 C3.893375,8.0015 4.117,8.225 4.117,8.50125 L4.117,12.493625 C4.117,12.769875 3.89325,12.993375 3.61725,12.993375 Z" id="Shape"></path>
                            <path d="M3.61725,9.001 C3.341125,9.001 3.1175,8.7775 3.1175,8.501375 C3.1175,5.69375 2.09675,2.992375 0.2425,0.89425 C0.060125,0.687375 0.079625,0.372125 0.2865,0.188625 C0.490625,0.007125 0.80675,0.02375 0.992125,0.232625 C3.0075,2.51325 4.117125,5.44975 4.117125,8.501375 C4.117,8.7775 3.89325,9.001 3.61725,9.001 Z" id="Shape"></path>
                        </g>
                        <g id="Group" transform="translate(19.000000, 8.000000)">
                            <path d="M0.5085,12.993375 C0.232375,12.993375 0.008875,12.769875 0.008875,12.493625 L0.008875,8.50125 C0.008875,8.225 0.232375,8.0015 0.5085,8.0015 C0.784625,8.0015 1.008125,8.225 1.008125,8.50125 L1.008125,12.493625 C1.008125,12.769875 0.784625,12.993375 0.5085,12.993375 Z" id="Shape"></path>
                            <path d="M0.5085,9.001 C0.232375,9.001 0.008875,8.7775 0.008875,8.501375 C0.008875,5.44975 1.118375,2.51325 3.133625,0.232625 C3.318125,0.02375 3.633375,0.007125 3.83925,0.188625 C4.046125,0.372125 4.065625,0.687375 3.883125,0.89425 C2.029,2.9925 1.008125,5.69375 1.008125,8.501375 C1.008125,8.7775 0.784625,9.001 0.5085,9.001 Z" id="Shape"></path>
                        </g>
                        <path d="M14.511875,27.993 L0.521375,27.993 C0.24525,27.993 0.02175,27.7705 0.02175,27.493375 L0.02175,23.4965 C0.02175,23.22025 0.24525,22.99675 0.521375,22.99675 L14.511875,22.99675 C14.713875,22.99675 14.895375,23.11875 14.9725,23.305125 C15.050625,23.4905 15.007625,23.706125 14.866125,23.84875 C14.628,24.08875 14.01225,24.85 14.01225,25.495125 C14.01225,26.140125 14.628,26.901375 14.866125,27.142 C15.007625,27.2845 15.050625,27.499125 14.9725,27.6845 C14.8955,27.872 14.713875,27.993 14.511875,27.993 Z M1.021,26.994125 L13.495875,26.994125 C13.242125,26.577375 13.01275,26.048625 13.01275,25.49525 C13.01275,24.941875 13.242125,24.413 13.495875,23.99625 L1.021,23.99625 L1.021,26.994125 Z" id="Shape"></path>
                        <path d="M15.511125,23.99625 L14.511875,23.99625 C14.23575,23.99625 14.01225,23.77275 14.01225,23.496625 C14.01225,23.220375 14.23575,22.996875 14.511875,22.996875 L15.511125,22.996875 C15.787375,22.996875 16.010875,23.220375 16.010875,23.496625 C16.010875,23.77275 15.787375,23.99625 15.511125,23.99625 Z" id="Shape"></path>
                        <path d="M15.511125,27.993 L14.511875,27.993 C14.23575,27.993 14.01225,27.7705 14.01225,27.493375 C14.01225,27.218125 14.23575,26.994125 14.511875,26.994125 L15.511125,26.994125 C15.787375,26.994125 16.010875,27.218125 16.010875,27.493375 C16.010875,27.7705 15.787375,27.993 15.511125,27.993 Z" id="Shape"></path>
                        <path d="M12.51425,21.9975 L2.521,21.9975 C2.24475,21.9975 2.02125,21.774 2.02125,21.497875 C2.02125,21.22175 2.24475,20.99825 2.521,20.99825 C2.745375,20.992375 3.020625,20.900625 3.020625,20.4985 C3.020625,20.096375 2.746375,20.004625 2.516125,19.99875 C2.24275,19.995875 2.021375,19.773375 2.021375,19.499125 C2.021375,19.226875 2.239,19.005375 2.510375,18.9995 L2.511375,18.9995 C2.512375,18.9995 2.512375,18.9995 2.513375,18.9995 L2.514375,18.9995 C2.515375,18.9995 2.515375,18.9995 2.515375,18.9995 L2.516375,18.9995 C2.517375,18.9995 2.517375,18.9995 2.518375,18.9995 C2.518375,18.9995 2.518375,18.9995 2.519375,18.9995 C2.520375,18.9995 2.520375,18.9995 2.521375,18.9995 L12.5145,18.9995 C12.790625,18.9995 13.014125,19.223 13.014125,19.499125 L13.014125,21.49775 C13.013875,21.774125 12.790375,21.9975 12.51425,21.9975 Z M3.94875,20.99825 L12.0145,20.99825 L12.0145,19.998875 L3.94875,19.998875 C3.994625,20.14625 4.02,20.312125 4.02,20.498625 C4.02,20.685125 3.994625,20.850875 3.94875,20.99825 Z" id="Shape"></path>
                        <path d="M62.47925,27.993 L48.48875,27.993 C48.212625,27.993 47.989,27.7705 47.989,27.493375 L47.989,17.500625 C47.989,17.2245 48.212625,17.001 48.48875,17.001 L62.47925,17.001 C62.755375,17.001 62.979,17.2245 62.979,17.500625 L62.979,27.493375 C62.979,27.7705 62.755375,27.993 62.47925,27.993 Z M48.9885,26.994125 L61.9795,26.994125 L61.9795,18.00025 L48.9885,18.00025 L48.9885,26.994125 Z" id="Shape"></path>
                        <path d="M63.4785,27.993 L47.4895,27.993 C47.213375,27.993 46.98975,27.7705 46.98975,27.493375 C46.98975,27.218125 47.213375,26.994125 47.4895,26.994125 L63.4785,26.994125 C63.754625,26.994125 63.97825,27.218125 63.97825,27.493375 C63.97825,27.7705 63.754625,27.993 63.4785,27.993 Z" id="Shape"></path>
                        <path d="M55.483875,23.99625 C55.083,23.99625 54.70625,23.840125 54.424,23.557125 C54.141,23.274125 53.985,22.897375 53.985,22.49725 C53.985,22.097125 54.141,21.7205 54.424,21.437375 C54.990125,20.871375 55.97775,20.871375 56.543875,21.437375 C57.127375,22.023 57.127375,22.9735 56.543875,23.557125 C56.26075,23.840125 55.884,23.99625 55.483875,23.99625 Z M55.483875,21.9975 C55.350375,21.9975 55.225375,22.04925 55.130625,22.143875 C55.036125,22.238625 54.984375,22.3635 54.984375,22.497125 C54.984375,22.630875 55.036125,22.75575 55.130625,22.8505 C55.319125,23.037875 55.647,23.03975 55.837125,22.8505 C56.0315,22.65625 56.0315,22.339125 55.837125,22.143875 C55.742625,22.049375 55.617625,21.9975 55.483875,21.9975 Z" id="Shape"></path>
                        <path d="M56.190625,22.290375 C56.06275,22.290375 55.93475,22.241625 55.837125,22.144 C55.642,21.948875 55.642,21.632625 55.837125,21.4375 L56.190625,21.08425 C56.38575,20.889 56.701875,20.889 56.897125,21.08425 C57.09225,21.2795 57.09225,21.595625 56.897125,21.79075 L56.543875,22.144 C56.44625,22.241625 56.318375,22.290375 56.190625,22.290375 Z" id="Shape"></path>
                        <path d="M49.488,31.99025 L15.511125,31.99025 C15.235,31.99025 15.0115,31.767875 15.0115,31.490625 C15.0115,31.2155 15.235,30.991 15.511125,30.991 L49.488,30.991 C49.764125,30.991 49.98775,31.2155 49.98775,31.490625 C49.98775,31.767875 49.764125,31.99025 49.488,31.99025 Z" id="Shape"></path>
                    </g>
                </g>
            </g>
        </g>
    </g>
</svg>