<?xml version="1.0" encoding="UTF-8"?>
<svg viewBox="0 0 64 64" version="1.1" xmlns="http://www.w3.org/2000/svg" xmlns:xlink="http://www.w3.org/1999/xlink">
    <!-- Generator: Sketch 52.2 (67145) - http://www.bohemiancoding.com/sketch -->
    <title>Icon/Large/500</title>
    <desc>Created with Sketch.</desc>
    <g id="Icon/Large/500" stroke="none" stroke-width="1" fill="none" fill-rule="evenodd">
        <g id="Group-2">
            <rect id="Rectangle" x="0" y="0" width="64" height="64"></rect>
            <g id="19-data,-repository,-folder,-file,-cloud,-server,-seo" transform="translate(0.000000, 3.000000)" fill-rule="nonzero">
                <polygon id="Rectangle-path" fill="#D7E9FF" points="0.514375 54.4885 23.503875 54.4885 23.503875 57.48725 0.514375 57.48725"></polygon>
                <polygon id="Rectangle-path" fill="#D7E9FF" points="40.496125 54.4885 63.485625 54.4885 63.485625 57.48725 40.496125 57.48725"></polygon>
                <polygon id="Rectangle-path" fill="#5C9EFF" points="23.503875 53.489 40.496125 53.489 40.496125 58.48675 23.503875 58.48675"></polygon>
                <polygon id="Rectangle-path" fill="#5C9EFF" points="29.501125 44.493125 34.457875 44.493125 34.457875 53.489 29.501125 53.489"></polygon>
                <g id="Group" opacity="0.2" transform="translate(29.500000, 44.375000)" fill="#FFFFFF">
                    <polygon id="Rectangle-path" points="0.001125 0.118125 1.00075 0.118125 1.00075 9.114 0.001125 9.114"></polygon>
                </g>
                <g id="Group" opacity="0.2" transform="translate(23.500000, 53.375000)" fill="#FFFFFF">
                    <polygon id="Rectangle-path" points="0.003875 0.114 7.00075 0.114 7.00075 1.1135 0.003875 1.1135"></polygon>
                </g>
                <polygon id="Rectangle-path" fill="#FFFFFF" points="0.514375 54.4885 23.503875 54.4885 23.503875 55.488 0.514375 55.488"></polygon>
                <polygon id="Rectangle-path" fill="#94C1FF" points="0.514375 56.4875 23.503875 56.4875 23.503875 57.48725 0.514375 57.48725"></polygon>
                <polygon id="Rectangle-path" fill="#FFFFFF" points="40.496125 54.4885 63.485625 54.4885 63.485625 55.488 40.496125 55.488"></polygon>
                <polygon id="Rectangle-path" fill="#94C1FF" points="40.496125 56.4875 63.485625 56.4875 63.485625 57.48725 40.496125 57.48725"></polygon>
                <polygon id="Rectangle-path" fill="#2287FF" points="23.503875 57.48725 40.496125 57.48725 40.496125 58.48675 23.503875 58.48675"></polygon>
                <path d="M53.4805,12.828 L51.491125,12.828 L51.491125,15.5065 L51.491125,17.505625 L51.491125,25.502 L30.50075,25.502 L12.508875,25.502 L12.508875,18.25525 L10.50975,20.0045 C8.69025,21.374 7.511125,23.542875 7.511125,26.00175 C7.511125,26.241875 7.520875,26.482 7.551125,26.721125 C3.522625,27.621125 0.51425,31.199625 0.51425,35.497375 C0.51425,40.464875 4.54275,44.49325 9.510125,44.49325 L46.993,44.49325 C51.5505,44.49325 55.668625,42.644375 58.6575,39.665375 C59.21775,39.106 59.737125,38.50575 60.217375,37.86625 C62.276,35.11775 63.4855,31.69925 63.4855,28.00075 C63.485625,21.19425 59.367375,15.346375 53.4805,12.828 Z" id="Shape" fill="#D7E9FF"></path>
                <path d="M2.5135,35.497375 C2.5135,31.1995 5.521875,27.621125 9.55025,26.721125 C9.52,26.482 9.51025,26.241875 9.51025,26.00175 C9.51025,23.542875 10.6895,21.374 12.508875,20.0045 L12.508875,18.25525 L10.50975,20.0045 C8.69025,21.374 7.511125,23.542875 7.511125,26.00175 C7.511125,26.241875 7.520875,26.482 7.551125,26.721125 C3.522625,27.621125 0.51425,31.199625 0.51425,35.497375 C0.51425,40.464875 4.54275,44.49325 9.510125,44.49325 L11.50925,44.49325 C6.541875,44.493125 2.5135,40.464875 2.5135,35.497375 Z" id="Shape" fill="#FFFFFF"></path>
                <polygon id="Shape" fill="#2287FF" points="12.508875 5.510125 51.491125 5.510125 45.493875 0.512375 18.50625 0.512375"></polygon>
                <polygon id="Rectangle-path" fill="#5C9EFF" points="12.508875 5.510125 51.491 5.510125 51.491 15.5055 12.508875 15.5055"></polygon>
                <rect id="Rectangle-path" fill="#5C9EFF" x="12.508875" y="15.505375" width="38.982125" height="9.9955"></rect>
                <rect id="Rectangle-path" fill="#5C9EFF" x="12.508875" y="25.500875" width="38.982125" height="9.995375"></rect>
                <polygon id="Shape" fill="#2287FF" points="18.548125 33.497375 15.5495 33.497375 19.50575 27.5 22.504375 27.5"></polygon>
                <polygon id="Shape" fill="#2287FF" points="24.503375 33.497375 21.504875 33.497375 25.461 27.5 28.459625 27.5"></polygon>
                <polygon id="Shape" fill="#2287FF" points="30.45875 33.497375 27.460125 33.497375 31.41725 27.5 34.415875 27.5"></polygon>
                <polygon id="Shape" fill="#2287FF" points="18.548125 23.50175 15.5495 23.50175 19.50575 17.504625 22.504375 17.504625"></polygon>
                <polygon id="Shape" fill="#2287FF" points="24.503375 23.50175 21.504875 23.50175 25.461 17.504625 28.459625 17.504625"></polygon>
                <polygon id="Shape" fill="#2287FF" points="30.45875 23.50175 27.460125 23.50175 31.41725 17.504625 34.415875 17.504625"></polygon>
                <polygon id="Shape" fill="#2287FF" points="18.548125 13.506375 15.5495 13.506375 19.50575 7.509125 22.504375 7.509125"></polygon>
                <polygon id="Shape" fill="#2287FF" points="24.503375 13.506375 21.504875 13.506375 25.461 7.509125 28.459625 7.509125"></polygon>
                <polygon id="Shape" fill="#5C9EFF" points="27.460125 7.509125 23.503875 13.506375 24.503375 13.506375 28.459625 7.509125"></polygon>
                <polygon id="Shape" fill="#5C9EFF" points="21.504875 7.509125 17.548625 13.506375 18.548125 13.506375 22.504375 7.509125"></polygon>
                <polygon id="Shape" fill="#2287FF" points="30.45875 13.506375 27.460125 13.506375 31.41725 7.509125 34.415875 7.509125"></polygon>
                <polygon id="Shape" fill="#5C9EFF" points="33.416375 7.509125 29.459125 13.506375 30.45875 13.506375 34.415875 7.509125"></polygon>
                <polygon id="Shape" fill="#5C9EFF" points="27.460125 17.504625 23.503875 23.50175 24.503375 23.50175 28.459625 17.504625"></polygon>
                <polygon id="Shape" fill="#5C9EFF" points="21.504875 17.504625 17.548625 23.50175 18.548125 23.50175 22.504375 17.504625"></polygon>
                <polygon id="Shape" fill="#5C9EFF" points="33.416375 17.504625 29.459125 23.50175 30.45875 23.50175 34.415875 17.504625"></polygon>
                <polygon id="Shape" fill="#5C9EFF" points="27.460125 27.5 23.503875 33.497375 24.503375 33.497375 28.459625 27.5"></polygon>
                <polygon id="Shape" fill="#5C9EFF" points="21.504875 27.5 17.548625 33.497375 18.548125 33.497375 22.504375 27.5"></polygon>
                <polygon id="Shape" fill="#5C9EFF" points="33.416375 27.5 29.459125 33.497375 30.45875 33.497375 34.415875 27.5"></polygon>
                <circle id="Oval" fill="#D7E9FF" cx="44.494375" cy="10.50775" r="1.999125"></circle>
                <path d="M43.49475,10.50775 C43.49475,9.5775 44.133,8.8025 44.994,8.578875 C44.833,8.537875 44.668,8.508625 44.49425,8.508625 C43.39025,8.508625 42.49525,9.40375 42.49525,10.50775 C42.49525,11.61175 43.39025,12.506875 44.49425,12.506875 C44.668,12.506875 44.833,12.477625 44.994,12.436625 C44.133,12.213 43.49475,11.438 43.49475,10.50775 Z" id="Shape" fill="#FFFFFF"></path>
                <path d="M45.493875,10.50775 C45.493875,11.438 44.8555,12.213 43.9945,12.436625 C44.1555,12.477625 44.3205,12.506875 44.49425,12.506875 C45.59825,12.506875 46.493375,11.61175 46.493375,10.50775 C46.493375,9.40375 45.59825,8.508625 44.49425,8.508625 C44.3205,8.508625 44.1555,8.537875 43.9945,8.578875 C44.8555,8.8025 45.493875,9.5775 45.493875,10.50775 Z" id="Shape" fill="#94C1FF"></path>
                <circle id="Oval" fill="#D7E9FF" cx="44.494375" cy="20.503125" r="1.999125"></circle>
                <path d="M43.49475,20.503125 C43.49475,19.572875 44.133,18.797875 44.994,18.574375 C44.833,18.533375 44.668,18.504125 44.49425,18.504125 C43.39025,18.504125 42.49525,19.39925 42.49525,20.50325 C42.49525,21.60725 43.39025,22.502375 44.49425,22.502375 C44.668,22.502375 44.833,22.473125 44.994,22.432125 C44.133,22.208375 43.49475,21.433375 43.49475,20.503125 Z" id="Shape" fill="#FFFFFF"></path>
                <path d="M45.493875,20.503125 C45.493875,21.433375 44.8555,22.208375 43.9945,22.431875 C44.1555,22.472875 44.3205,22.502125 44.49425,22.502125 C45.59825,22.502125 46.493375,21.607 46.493375,20.503 C46.493375,19.399 45.59825,18.503875 44.49425,18.503875 C44.3205,18.503875 44.1555,18.533125 43.9945,18.574125 C44.8555,18.797875 45.493875,19.572875 45.493875,20.503125 Z" id="Shape" fill="#94C1FF"></path>
                <circle id="Oval" fill="#D7E9FF" cx="44.494375" cy="30.4985" r="1.999125"></circle>
                <path d="M43.49475,30.4985 C43.49475,29.568375 44.133,28.79325 44.994,28.56975 C44.833,28.52875 44.668,28.4995 44.49425,28.4995 C43.39025,28.4995 42.49525,29.394625 42.49525,30.4985 C42.49525,31.6025 43.39025,32.4975 44.49425,32.4975 C44.668,32.4975 44.833,32.4685 44.994,32.427375 C44.133,32.203875 43.49475,31.42875 43.49475,30.4985 Z" id="Shape" fill="#FFFFFF"></path>
                <path d="M45.493875,30.4985 C45.493875,31.428625 44.8555,32.203875 43.9945,32.4275 C44.1555,32.4685 44.3205,32.497625 44.49425,32.497625 C45.59825,32.497625 46.493375,31.602625 46.493375,30.498625 C46.493375,29.394625 45.59825,28.499625 44.49425,28.499625 C44.3205,28.499625 44.1555,28.528875 43.9945,28.569875 C44.8555,28.793375 45.493875,29.568375 45.493875,30.4985 Z" id="Shape" fill="#94C1FF"></path>
                <g id="Group" opacity="0.3" transform="translate(12.500000, 5.500000)" fill="#FFFFFF">
                    <polygon id="Rectangle-path" points="0.008875 0.010125 1.008375 0.010125 1.008375 10.0055 0.008875 10.0055"></polygon>
                </g>
                <g id="Group" opacity="0.3" transform="translate(12.500000, 26.500000)" fill="#FFFFFF">
                    <polygon id="Rectangle-path" points="0.008875 0.000375 1.008375 0.000375 1.008375 8.99625 0.008875 8.99625"></polygon>
                </g>
                <polygon id="Rectangle-path" fill="#2287FF" points="12.508875 25.500875 50.4915 25.500875 50.4915 26.500375 12.508875 26.500375"></polygon>
                <g id="Group" opacity="0.3" transform="translate(12.500000, 16.500000)" fill="#FFFFFF">
                    <polygon id="Rectangle-path" points="0.008875 0.005 1.008375 0.005 1.008375 9.000875 0.008875 9.000875"></polygon>
                </g>
                <polygon id="Rectangle-path" fill="#2287FF" points="12.508875 15.505375 50.4915 15.505375 50.4915 16.505 12.508875 16.505"></polygon>
                <polygon id="Rectangle-path" fill="#2287FF" points="50.491625 5.511 51.491125 5.511 51.491125 15.506375 50.491625 15.506375"></polygon>
                <polygon id="Rectangle-path" fill="#2287FF" points="50.491625 15.506375 51.491125 15.506375 51.491125 25.501875 50.491625 25.501875"></polygon>
                <polygon id="Rectangle-path" fill="#2287FF" points="50.491625 25.501875 51.491125 25.501875 51.491125 35.49725 50.491625 35.49725"></polygon>
                <path d="M58.479125,39.827375 C58.38825,34.661625 54.179375,30.4995 48.992125,30.4995 C43.7495,30.4995 39.4965,34.7515 39.4965,39.995125 C39.4965,41.622375 39.907375,43.153875 40.62975,44.493125 L46.993,44.493125 C51.46375,44.493125 55.505875,42.70675 58.479125,39.827375 Z" id="Shape" fill="#D7E9FF"></path>
                <path d="M34.938125,41.036625 C33.214375,34.9585 27.634875,30.4985 21.005,30.4985 C14.37525,30.4985 8.79575,34.9585 7.072,41.036625 L34.938125,41.036625 Z" id="Shape" fill="#E6E9ED"></path>
                <path d="M44.386,40.702875 C43.76225,36.62575 40.248125,33.49825 35.998125,33.49825 C31.747125,33.49825 28.234125,36.62575 27.610375,40.702875 L44.386,40.702875 Z" id="Shape" fill="#D7E9FF"></path>
                <path d="M34.938125,41.036625 C33.214375,34.9585 27.634875,30.4985 21.005,30.4985 C14.37525,30.4985 8.79575,34.9585 7.072,41.036625 L34.938125,41.036625 Z" id="Shape" fill="#D7E9FF"></path>
                <path d="M53.4805,12.828 L51.491125,12.828 L51.491125,12.832875 C57.37325,15.35325 61.486625,21.19825 61.486625,28.00075 C61.486625,31.69925 60.277125,35.11775 58.2185,37.86625 C57.73825,38.505625 57.219,39.106 56.658625,39.665375 C53.66975,42.644375 49.5515,44.49325 44.994,44.49325 L46.993125,44.49325 C51.550625,44.49325 55.66875,42.644375 58.657625,39.665375 C59.217875,39.106 59.73725,38.50575 60.2175,37.86625 C62.276125,35.11775 63.485625,31.69925 63.485625,28.00075 C63.485625,21.19425 59.367375,15.346375 53.4805,12.828 Z" id="Shape" fill="#94C1FF"></path>
                <g id="Group" fill="#116FFF">
                    <path d="M51.491125,16.00625 L12.508875,16.00625 C12.232625,16.00625 12.009125,15.782625 12.009125,15.506375 L12.009125,5.511 C12.009125,5.23475 12.232625,5.011125 12.508875,5.011125 L51.491,5.011125 C51.76725,5.011125 51.99075,5.23475 51.99075,5.511 L51.99075,15.506375 C51.990875,15.782625 51.767375,16.00625 51.491125,16.00625 Z M13.008625,15.006625 L50.99125,15.006625 L50.99125,6.01075 L13.008625,6.01075 L13.008625,15.006625 Z" id="Shape"></path>
                    <path d="M18.50625,14.007125 L15.507625,14.007125 C15.323125,14.007125 15.15425,13.905625 15.067375,13.743625 C14.9795,13.580625 14.98925,13.383375 15.09175,13.23025 L19.089875,7.232875 C19.182625,7.094375 19.33875,7.010375 19.50575,7.010375 L22.504375,7.010375 C22.688875,7.010375 22.857625,7.111875 22.9445,7.273875 C23.032375,7.436875 23.022625,7.634125 22.920125,7.78725 L18.922,13.784625 C18.82925,13.923125 18.673125,14.007125 18.50625,14.007125 Z M16.441625,13.007625 L18.23875,13.007625 L21.570125,8.009875 L19.773125,8.009875 L16.441625,13.007625 Z" id="Shape"></path>
                    <path d="M24.503375,14.007125 L21.50475,14.007125 C21.32025,14.007125 21.151375,13.905625 21.0645,13.743625 C20.976625,13.580625 20.986375,13.383375 21.088875,13.23025 L25.087,7.232875 C25.17975,7.094375 25.335875,7.010375 25.502875,7.010375 L28.5015,7.010375 C28.686,7.010375 28.854875,7.111875 28.94175,7.273875 C29.029625,7.436875 29.019875,7.634125 28.917375,7.78725 L24.91925,13.784625 C24.8265,13.923125 24.670375,14.007125 24.503375,14.007125 Z M22.439,13.007625 L24.236,13.007625 L27.5675,8.009875 L25.7705,8.009875 L22.439,13.007625 Z" id="Shape"></path>
                    <path d="M30.50075,14.007125 L27.502125,14.007125 C27.317625,14.007125 27.14875,13.905625 27.061875,13.743625 C26.974,13.580625 26.98375,13.383375 27.08625,13.23025 L31.084375,7.232875 C31.177125,7.094375 31.33325,7.010375 31.50025,7.010375 L34.498875,7.010375 C34.683375,7.010375 34.852125,7.111875 34.939,7.273875 C35.026875,7.436875 35.017125,7.634125 34.914625,7.78725 L30.9165,13.784625 C30.82375,13.923125 30.667625,14.007125 30.50075,14.007125 Z M28.43625,13.007625 L30.23325,13.007625 L33.564625,8.009875 L31.767625,8.009875 L28.43625,13.007625 Z" id="Shape"></path>
                    <path d="M44.49425,13.007625 C43.116,13.007625 41.995375,11.887125 41.995375,10.50875 C41.995375,9.130375 43.116,8.009875 44.49425,8.009875 C45.8725,8.009875 46.993125,9.1305 46.993125,10.50875 C46.993125,11.887 45.8725,13.007625 44.49425,13.007625 Z M44.49425,9.009375 C43.6675,9.009375 42.995,9.681875 42.995,10.50875 C42.995,11.335625 43.6675,12.008 44.49425,12.008 C45.321,12.008 45.993625,11.3355 45.993625,10.50875 C45.993625,9.682 45.321,9.009375 44.49425,9.009375 Z" id="Shape"></path>
                    <path d="M51.491125,26.001625 L12.508875,26.001625 C12.232625,26.001625 12.009125,25.778125 12.009125,25.501875 L12.009125,16.506 C12.009125,16.22975 12.232625,16.00625 12.508875,16.00625 C12.785125,16.00625 13.008625,16.22975 13.008625,16.506 L13.008625,25.002125 L50.99125,25.002125 L50.99125,16.506 C50.99125,16.22975 51.21475,16.00625 51.491,16.00625 C51.76725,16.00625 51.99075,16.22975 51.99075,16.506 L51.99075,25.501875 C51.990875,25.778125 51.767375,26.001625 51.491125,26.001625 Z" id="Shape"></path>
                    <path d="M18.50625,24.002625 L15.507625,24.002625 C15.323125,24.002625 15.15425,23.901125 15.067375,23.739125 C14.9795,23.576125 14.98925,23.379 15.09175,23.225625 L19.089875,17.228375 C19.182625,17.08975 19.33875,17.005875 19.50575,17.005875 L22.504375,17.005875 C22.688875,17.005875 22.857625,17.107375 22.9445,17.269375 C23.032375,17.432375 23.022625,17.6295 22.920125,17.78275 L18.922,23.78 C18.82925,23.918625 18.673125,24.002625 18.50625,24.002625 Z M16.441625,23.003 L18.23875,23.003 L21.570125,18.005375 L19.773125,18.005375 L16.441625,23.003 Z" id="Shape"></path>
                    <path d="M24.503375,24.002625 L21.50475,24.002625 C21.32025,24.002625 21.151375,23.901125 21.0645,23.739125 C20.976625,23.576125 20.986375,23.379 21.088875,23.225625 L25.087,17.228375 C25.17975,17.08975 25.335875,17.005875 25.502875,17.005875 L28.5015,17.005875 C28.686,17.005875 28.854875,17.107375 28.94175,17.269375 C29.029625,17.432375 29.019875,17.6295 28.917375,17.78275 L24.91925,23.78 C24.8265,23.918625 24.670375,24.002625 24.503375,24.002625 Z M22.439,23.003 L24.236,23.003 L27.5675,18.005375 L25.7705,18.005375 L22.439,23.003 Z" id="Shape"></path>
                    <path d="M30.50075,24.002625 L27.502125,24.002625 C27.317625,24.002625 27.14875,23.901125 27.061875,23.739125 C26.974,23.576125 26.98375,23.379 27.08625,23.225625 L31.084375,17.228375 C31.177125,17.08975 31.33325,17.005875 31.50025,17.005875 L34.498875,17.005875 C34.683375,17.005875 34.852125,17.107375 34.939,17.269375 C35.026875,17.432375 35.017125,17.6295 34.914625,17.78275 L30.9165,23.78 C30.82375,23.918625 30.667625,24.002625 30.50075,24.002625 Z M28.43625,23.003 L30.23325,23.003 L33.564625,18.005375 L31.767625,18.005375 L28.43625,23.003 Z" id="Shape"></path>
                    <path d="M44.49425,23.003 C43.116,23.003 41.995375,21.882375 41.995375,20.504125 C41.995375,19.125875 43.116,18.00525 44.49425,18.00525 C45.8725,18.00525 46.993125,19.125875 46.993125,20.504125 C46.993125,21.882375 45.8725,23.003 44.49425,23.003 Z M44.49425,19.004875 C43.6675,19.004875 42.995,19.677375 42.995,20.50425 C42.995,21.331125 43.6675,22.003625 44.49425,22.003625 C45.321,22.003625 45.993625,21.331125 45.993625,20.50425 C45.993625,19.677375 45.321,19.004875 44.49425,19.004875 Z" id="Shape"></path>
                    <path d="M12.508875,31.99875 C12.232625,31.99875 12.009125,31.775375 12.009125,31.499 L12.009125,26.501375 C12.009125,26.225125 12.232625,26.001625 12.508875,26.001625 C12.785125,26.001625 13.008625,26.225125 13.008625,26.501375 L13.008625,31.499 C13.008625,31.775375 12.785125,31.99875 12.508875,31.99875 Z" id="Shape"></path>
                    <path d="M51.491125,29.99975 C51.214875,29.99975 50.991375,29.776375 50.991375,29.5 L50.991375,26.501375 C50.991375,26.225125 51.214875,26.001625 51.491125,26.001625 C51.767375,26.001625 51.990875,26.225125 51.990875,26.501375 L51.990875,29.5 C51.990875,29.776375 51.767375,29.99975 51.491125,29.99975 Z" id="Shape"></path>
                    <path d="M21.504875,29.5 C21.40925,29.5 21.3125,29.472625 21.227625,29.416 C20.99825,29.26275 20.93575,28.952375 21.089,28.723 L21.57025,28.000625 L19.77325,28.000625 L18.922,29.277375 C18.767875,29.50775 18.457375,29.567375 18.229,29.416 C17.999625,29.26275 17.937125,28.952375 18.090375,28.723 L19.09,27.223625 C19.18275,27.085125 19.338875,27.001125 19.505875,27.001125 L22.5045,27.001125 C22.689,27.001125 22.85775,27.102625 22.944625,27.264625 C23.0325,27.427625 23.02275,27.624875 22.92025,27.778 L21.92075,29.277375 C21.824,29.421875 21.665875,29.5 21.504875,29.5 Z" id="Shape"></path>
                    <path d="M27.172125,29.99975 C27.0765,29.99975 26.980875,29.972375 26.894875,29.91575 C26.6655,29.763625 26.603,29.453125 26.756375,29.222875 L27.5695,28.00075 L25.7705,28.00075 L24.91925,29.2775 C24.765,29.507875 24.454625,29.5675 24.22625,29.416125 C23.996875,29.262875 23.934375,28.9525 24.08775,28.723125 L25.08725,27.22375 C25.18,27.08525 25.336125,27.00125 25.503125,27.00125 L28.50175,27.00125 C28.68625,27.00125 28.855125,27.10275 28.942,27.26475 C29.028875,27.42675 29.020125,27.624 28.917625,27.778125 L27.588125,29.777375 C27.49225,29.921625 27.33325,29.99975 27.172125,29.99975 Z" id="Shape"></path>
                    <path d="M31.17025,32.9985 C31.074625,32.9985 30.978,32.971125 30.893,32.9145 C30.663625,32.761125 30.601125,32.451875 30.7545,32.221375 L33.565625,28.000625 L31.767625,28.000625 L29.916875,30.77675 C29.762625,31.007 29.45125,31.0675 29.223875,30.915125 C28.9945,30.762 28.932,30.4515 29.08525,30.22225 L31.084375,27.2235 C31.177125,27.085 31.33325,27.001 31.50025,27.001 L34.498875,27.001 C34.683375,27.001 34.852125,27.1025 34.939,27.2645 C35.025875,27.4275 35.017125,27.62475 34.914625,27.777875 L31.586125,32.775625 C31.4905,32.920375 31.331375,32.9985 31.17025,32.9985 Z" id="Shape"></path>
                    <path d="M42.49525,30.99925 C42.219,30.99925 41.995375,30.775875 41.995375,30.4995 C41.995375,29.12125 43.116,28.00075 44.49425,28.00075 C45.390375,28.00075 46.219125,28.481 46.65825,29.253125 C46.794875,29.49325 46.711,29.797875 46.470875,29.934375 C46.23075,30.072125 45.92525,29.987125 45.7895,29.747125 C45.527875,29.28625 45.031125,29.000375 44.49425,29.000375 C43.6675,29.000375 42.995,29.672875 42.995,30.499625 C42.995,30.775875 42.7715,30.99925 42.49525,30.99925 Z" id="Shape"></path>
                    <path d="M12.508875,6.01075 C12.366375,6.01075 12.223875,5.94925 12.12525,5.831125 C11.9485,5.61925 11.976875,5.304 12.188625,5.127375 L18.186,0.12975 C18.396875,-0.047 18.713125,-0.018625 18.88975,0.19325 C19.0665,0.405 19.03825,0.720375 18.826375,0.897 L12.829125,5.894625 C12.735375,5.97275 12.62225,6.01075 12.508875,6.01075 Z" id="Shape"></path>
                    <path d="M51.491125,6.01075 C51.377875,6.01075 51.264625,5.972625 51.170875,5.8945 L45.17375,0.896875 C44.962,0.72025 44.933625,0.404875 45.11025,0.193125 C45.287875,-0.01775 45.603125,-0.046125 45.814,0.129625 L51.811375,5.12725 C52.023125,5.304 52.0515,5.61925 51.874875,5.831 C51.776125,5.94925 51.6335,6.01075 51.491125,6.01075 Z" id="Shape"></path>
                    <path d="M45.493875,1.013 L18.50625,1.013 C18.23,1.013 18.006375,0.7895 18.006375,0.51325 C18.006375,0.237 18.23,0.013375 18.50625,0.013375 L45.493875,0.013375 C45.77,0.013375 45.993625,0.237 45.993625,0.51325 C45.993625,0.7895 45.77,1.013 45.493875,1.013 Z" id="Shape"></path>
                    <path d="M22.504375,54.98825 L0.514375,54.98825 C0.238125,54.98825 0.014625,54.764875 0.014625,54.4885 C0.014625,54.212375 0.238125,53.98875 0.514375,53.98875 L22.504375,53.98875 C22.7805,53.98875 23.004125,54.212375 23.004125,54.4885 C23.004125,54.764875 22.780625,54.98825 22.504375,54.98825 Z" id="Shape"></path>
                    <path d="M22.504375,57.987 L0.514375,57.987 C0.238125,57.987 0.014625,57.763375 0.014625,57.48725 C0.014625,57.210875 0.238125,56.9875 0.514375,56.9875 L22.504375,56.9875 C22.7805,56.9875 23.004125,57.210875 23.004125,57.48725 C23.004125,57.763375 22.780625,57.987 22.504375,57.987 Z" id="Shape"></path>
                    <path d="M63.485625,57.987 L41.495625,57.987 C41.2195,57.987 40.995875,57.763375 40.995875,57.48725 C40.995875,57.210875 41.2195,56.9875 41.495625,56.9875 L63.485625,56.9875 C63.761875,56.9875 63.985375,57.210875 63.985375,57.48725 C63.985375,57.763375 63.761875,57.987 63.485625,57.987 Z" id="Shape"></path>
                    <path d="M63.485625,54.98825 L41.495625,54.98825 C41.2195,54.98825 40.995875,54.764875 40.995875,54.4885 C40.995875,54.212375 41.2195,53.98875 41.495625,53.98875 L63.485625,53.98875 C63.761875,53.98875 63.985375,54.212375 63.985375,54.4885 C63.985375,54.764875 63.761875,54.98825 63.485625,54.98825 Z" id="Shape"></path>
                    <path d="M40.496125,58.986625 L23.503875,58.986625 C23.227625,58.986625 23.004125,58.763 23.004125,58.486875 L23.004125,53.489125 C23.004125,53.213 23.227625,52.989375 23.503875,52.989375 L29.00125,52.989375 L29.00125,46.49225 C29.00125,46.216125 29.224875,45.9925 29.501125,45.9925 C29.77725,45.9925 30.000875,46.216125 30.000875,46.49225 L30.000875,53.489125 C30.000875,53.7655 29.77725,53.988875 29.501125,53.988875 L24.003625,53.988875 L24.003625,57.987125 L39.99625,57.987125 L39.99625,53.98875 L34.498875,53.98875 C34.222625,53.98875 33.999,53.765375 33.999,53.489 L33.999,46.492125 C33.999,46.216 34.222625,45.992375 34.498875,45.992375 C34.775125,45.992375 34.998625,46.216 34.998625,46.492125 L34.998625,52.98925 L40.496,52.98925 C40.77225,52.98925 40.99575,53.212875 40.99575,53.489 L40.99575,58.48675 C40.995875,58.763 40.772375,58.986625 40.496125,58.986625 Z" id="Shape"></path>
                    <path d="M46.993125,44.992875 L9.51025,44.992875 C4.274375,44.992875 0.014625,40.733125 0.014625,35.49725 C0.014625,31.16625 2.872625,27.459875 7.01825,26.337375 C7.013375,26.226 7.011375,26.11375 7.011375,26.0015 C7.011375,23.4665 8.17675,21.1345 10.209125,19.605 C10.42775,19.442 10.741125,19.482 10.909,19.703625 C11.075,19.92425 11.031125,20.2375 10.810375,20.4035 C9.030875,21.74275 8.010875,23.78275 8.010875,26.0015 C8.010875,26.221125 8.019625,26.43975 8.047,26.658375 C8.07925,26.914125 7.91125,27.15225 7.660375,27.208875 C3.747125,28.0825 1.014,31.491 1.014,35.497125 C1.014,40.1815 4.82575,43.99325 9.510125,43.99325 L46.993,43.99325 C51.258625,43.99325 55.275375,42.330875 58.30525,39.310875 C58.841125,38.776 59.349625,38.188375 59.81825,37.5665 C61.8905,34.799125 62.98575,31.491 62.98575,28.000625 C62.98575,21.583625 59.177875,15.808875 53.284125,13.287625 C53.030375,13.17925 52.91225,12.8855 53.020625,12.631625 C53.129,12.376875 53.42475,12.25875 53.676625,12.368125 C59.939375,15.047625 63.985375,21.183375 63.985375,28.000625 C63.985375,31.708875 62.820875,35.22375 60.617875,38.165875 C60.120875,38.82675 59.580125,39.45025 59.011125,40.018375 C55.792875,43.226125 51.52525,44.992875 46.993125,44.992875 Z" id="Shape"></path>
                    <path d="M32.749625,36.996625 C32.5955,36.996625 32.443125,36.925375 32.345625,36.790625 C29.715,33.164375 25.47575,30.999375 21.005,30.999375 C16.534375,30.999375 12.295125,33.164375 9.6645,36.790625 C9.5015,37.01425 9.189125,37.062125 8.966625,36.901 C8.743,36.739125 8.69425,36.426625 8.856375,36.20325 C11.673375,32.31925 16.21525,29.999875 21.005,29.999875 C25.79475,29.999875 30.336625,32.31925 33.15375,36.20325 C33.31575,36.426625 33.266875,36.739125 33.043375,36.901 C32.954625,36.965375 32.852125,36.996625 32.749625,36.996625 Z" id="Shape"></path>
                    <path d="M42.47575,36.996625 C42.334125,36.996625 42.193625,36.937 42.095,36.819875 C40.57325,35.026875 38.351625,33.998125 35.99825,33.998125 C35.176375,33.998125 34.375875,34.118 33.6185,34.35525 C33.353,34.43925 33.07475,34.29075 32.99175,34.027375 C32.90975,33.76375 33.05625,33.483625 33.31975,33.400625 C34.174875,33.134 35.07575,32.9985 35.99825,32.9985 C38.6455,32.9985 41.145375,34.156 42.856375,36.17375 C43.035125,36.3835 43.00975,36.699875 42.798875,36.877375 C42.705125,36.9575 42.589875,36.996625 42.47575,36.996625 Z" id="Shape"></path>
                    <path d="M57.81825,36.996625 C57.619125,36.996625 57.43175,36.8775 57.353625,36.6805 C55.987,33.229875 52.70525,30.999375 48.992125,30.999375 C46.51,30.999375 44.118375,32.035 42.43075,33.84 C42.243375,34.042125 41.927125,34.051875 41.724125,33.8635 C41.523,33.675 41.51225,33.358875 41.700625,33.15675 C43.576625,31.150875 46.234625,30 48.992125,30 C53.11725,30 56.764,32.47825 58.282875,36.3135 C58.384375,36.569375 58.2585,36.860125 58.001625,36.96175 C57.94225,36.985875 57.87975,36.996625 57.81825,36.996625 Z" id="Shape"></path>
                </g>
            </g>
        </g>
    </g>
</svg>
