<?xml version="1.0" encoding="UTF-8"?>
<svg width="16px" height="16px" viewBox="0 0 16 16" version="1.1" 
  xmlns="http://www.w3.org/2000/svg" 
  xmlns:xlink="http://www.w3.org/1999/xlink">
  <!-- Generator: Sketch 63 (92445) - https://sketch.com -->
  <title>Icon/Editor/Account_Linking</title>
  <desc>Created with Sketch.</desc>
  <defs>
    <linearGradient x1="50%" y1="0%" x2="50%" y2="100%" id="linearGradient-1">
      <stop stop-color="currentColor" stop-opacity="0.85" offset="0%"></stop>
      <stop stop-color="currentColor" offset="100%"></stop>
    </linearGradient>
    <path d="M6.15083561,7.68750901 C6.53525796,8.06401409 6.53525796,8.67444944 6.15083561,9.05095452 C5.76641326,9.4274596 5.14314149,9.4274596 4.75871914,9.05095452 C3.08042695,7.40722716 3.08042695,4.74221855 4.75871914,3.09849118 L6.66364724,1.23279552 C8.34193942,-0.410931841 11.0629887,-0.410931841 12.7412809,1.23279552 C14.419573,2.87652289 14.419573,5.5415315 12.7412809,7.18525886 C12.3568585,7.56176394 11.7335867,7.56176394 11.3491644,7.18525886 C10.964742,6.80875378 10.964742,6.19831843 11.3491644,5.82181335 C12.2586119,4.93109615 12.2586119,3.48695823 11.3491644,2.59624103 C10.4397169,1.70552383 8.9652112,1.70552383 8.05576371,2.59624103 L6.15083561,4.46193669 C5.24138813,5.35265389 5.24138813,6.79679181 6.15083561,7.68750901 Z M7.84916439,6.31249099 C7.46474204,5.93598591 7.46474204,5.32555056 7.84916439,4.94904548 C8.23358674,4.5725404 8.85685851,4.5725404 9.24128086,4.94904548 C10.919573,6.59277284 10.919573,9.25778145 9.24128086,10.9015088 L7.33635276,12.7672045 C5.65806058,14.4109318 2.93701132,14.4109318 1.25871914,12.7672045 C-0.419573046,11.1234771 -0.419573046,8.4584685 1.25871914,6.81474114 C1.64314149,6.43823606 2.26641326,6.43823606 2.65083561,6.81474114 C3.03525796,7.19124622 3.03525796,7.80168157 2.65083561,8.17818665 C1.74138813,9.06890385 1.74138813,10.5130418 2.65083561,11.403759 C3.5602831,12.2944762 5.0347888,12.2944762 5.94423629,11.403759 L7.84916439,9.53806331 C8.75861187,8.64734611 8.75861187,7.20320819 7.84916439,6.31249099 Z" id="path-2"></path>
  </defs>
  <g id="Icon/Editor/Account_Linking" stroke="none" stroke-width="1" fill="none" fill-rule="evenodd">
    <g id="Icon/System/Link_system" transform="translate(1.000000, 1.000000)">
      <g id="Group-9">
        <g id="Combined-Shape">
          <use fill="#FFFFFF" xlink:href="#path-2"></use>
          <use fill="url(#linearGradient-1)" xlink:href="#path-2"></use>
        </g>
      </g>
    </g>
  </g>
</svg>