<?xml version="1.0" encoding="UTF-8"?>
<svg viewBox="0 0 17 17" version="1.1" xmlns="http://www.w3.org/2000/svg" xmlns:xlink="http://www.w3.org/1999/xlink">
    <title>Shape</title>
        <defs>
        <linearGradient x1="50%" y1="1.02285043%" x2="50%" y2="100%" id="linearGradient-1">
            <stop stop-color="currentColor" stop-opacity="0.85" offset="0%"></stop>
            <stop stop-color="currentColor" offset="100%"></stop>
        </linearGradient>
    </defs>
    <g id="Symbols" stroke="none" stroke-width="1" fill="none" fill-rule="evenodd">
        <g id="Artboard" fill="url(#linearGradient-1)" fill-rule="nonzero">
            <g id="globe-americas-solid">
                <path d="M8.5,0 C3.80546371,0 0,3.80546371 0,8.5 C0,13.1945363 3.80546371,17 8.5,17 C13.1945363,17 17,13.1945363 17,8.5 C17,3.80546371 13.1945363,0 8.5,0 Z M11.3204234,12.2564516 C11.186754,12.3894355 11.0465726,12.5289315 10.9327823,12.6430645 C10.8303024,12.7458871 10.7579839,12.8727016 10.7213105,13.0101411 C10.6695565,13.2041331 10.6277419,13.4001815 10.5578226,13.5883468 L9.96179435,15.1940927 C9.49018145,15.2969153 9.00211694,15.3548387 8.5,15.3548387 L8.5,14.4164113 C8.55792339,13.983871 8.23814516,13.173629 7.724375,12.6598589 C7.51872984,12.4542137 7.40322581,12.1752218 7.40322581,11.8842339 L7.40322581,10.7871169 C7.40322581,10.3881653 7.18832661,10.0214315 6.83907258,9.82846774 C6.34655242,9.5559879 5.6459879,9.17520161 5.16614919,8.93356855 C4.77268145,8.73546371 4.40868952,8.48320565 4.08137097,8.18810484 L4.05395161,8.16342742 C3.81988059,7.95213961 3.61205893,7.7134784 3.43495968,7.45258065 C3.11346774,6.980625 2.58975806,6.20431452 2.24941532,5.69979839 C2.95100806,4.14032258 4.21538306,2.88794355 5.7865121,2.20760081 L6.60943548,2.61923387 C6.9741129,2.80157258 7.40322581,2.53663306 7.40322581,2.12877016 L7.40322581,1.74147177 C7.67707661,1.69725806 7.95572581,1.66915323 8.23917339,1.65852823 L9.20913306,2.6284879 C9.42334677,2.84270161 9.42334677,3.18989919 9.20913306,3.4041129 L9.0483871,3.56451613 L8.69399194,3.91891129 C8.58705645,4.02584677 8.58705645,4.19961694 8.69399194,4.30655242 L8.8547379,4.46729839 C8.96167339,4.57423387 8.96167339,4.74800403 8.8547379,4.85493952 L8.58054435,5.12913306 C8.52906198,5.18051569 8.45928898,5.20936177 8.38655242,5.20933468 L8.07842742,5.20933468 C8.0071371,5.20933468 7.93858871,5.23709677 7.88717742,5.2871371 L7.54717742,5.61788306 C7.46166213,5.70115666 7.43977038,5.83015171 7.49302419,5.93697581 L8.02735887,7.0059879 C8.11852823,7.18832661 7.9858871,7.40288306 7.78229839,7.40288306 L7.58899194,7.40288306 C7.52284274,7.40288306 7.45909274,7.37889113 7.40939516,7.33570565 L7.09133065,7.05945565 C6.94489739,6.93242082 6.74232012,6.89203564 6.55836694,6.95320565 L5.49004032,7.30931452 C5.32276882,7.36508935 5.20996713,7.52165864 5.21002016,7.69798387 C5.21002016,7.85324597 5.2977621,7.99479839 5.43657258,8.064375 L5.81633065,8.25425403 C6.13885081,8.41568548 6.49461694,8.49965726 6.85518145,8.49965726 C7.21574597,8.49965726 7.62943548,9.435 7.95195565,9.59643145 L10.2397581,9.59643145 C10.530746,9.59643145 10.8093952,9.71193548 11.0153831,9.91758065 L11.4845968,10.3867944 C11.6806172,10.5828898 11.790713,10.8488209 11.7906653,11.1260887 C11.7905231,11.5504279 11.6212943,11.9572184 11.3204234,12.2564516 Z M14.2923387,9.12550403 C14.0938911,9.07580645 13.9208065,8.95413306 13.8073589,8.78379032 L13.1911089,7.85941532 C13.0067144,7.58323898 13.0067144,7.22321263 13.1911089,6.94703629 L13.8625403,5.94006048 C13.9420565,5.82112903 14.0510484,5.72447581 14.1792339,5.66072581 L14.6241129,5.43828629 C15.0875,6.36094758 15.3548387,7.39877016 15.3548387,8.5 C15.3548387,8.79715726 15.3294758,9.08814516 15.2924597,9.3753629 L14.2923387,9.12550403 Z" id="Shape"></path>
            </g>
        </g>
    </g>
</svg>