<?xml version="1.0" encoding="UTF-8"?>
<svg viewBox="0 0 6 10" version="1.1" xmlns="http://www.w3.org/2000/svg" xmlns:xlink="http://www.w3.org/1999/xlink">
            <g id="Symbols" stroke="none" stroke-width="1" fill="none" fill-rule="evenodd">
        <g id="Icon/System/Caret-right" transform="translate(-5.000000, -3.000000)" fill="currentColor">
            <g id="Group-17">
                <path d="M5.22534333,12.8879197 C4.99285498,12.7372752 4.93003196,12.4319716 5.0850242,12.2060049 C5.0899516,12.1988212 5.09507281,12.1917648 5.10038249,12.1848431 L7.91510004,8.51559087 C8.14975444,8.20969653 8.14975444,7.79030347 7.91510004,7.48440913 L5.10038249,3.8151569 C4.93336558,3.59743446 4.97956453,3.28933962 5.20357073,3.12700782 C5.21069218,3.12184708 5.21795223,3.11686953 5.22534333,3.11208035 C5.48641313,2.94291612 5.83225749,2.96729759 6.06547855,3.17130851 L10.6082784,7.14513834 C11.0940317,7.57005269 11.1334098,8.29724844 10.6962318,8.7693755 C10.6684763,8.7993499 10.6391179,8.8278847 10.6082784,8.85486166 L6.06547855,12.8286915 C5.83225749,13.0327024 5.48641313,13.0570839 5.22534333,12.8879197 Z" id="Combined-Shape"></path>
            </g>
        </g>
    </g>
</svg>