<?xml version="1.0" encoding="UTF-8"?>
<svg viewBox="0 0 16 16" version="1.1" xmlns="http://www.w3.org/2000/svg" xmlns:xlink="http://www.w3.org/1999/xlink">
    <!-- Generator: Sketch 63 (92445) - https://sketch.com -->
    <title>Icon/Editor/User_Info</title>
    <desc>Created with Sketch.</desc>
    <defs>
        <path d="M13.9226218,5.09437906 C14.4148451,5.09437906 14.8137865,5.58280837 14.8137865,6.18472567 L14.8137865,14.9096534 C14.8137865,15.512289 14.4148451,16 13.9226218,16 L12.0697443,16 C11.577521,16 11.1785795,15.512289 11.1785795,14.9096534 L11.1785795,6.18472567 C11.1785795,5.58280837 11.577521,5.09437906 12.0697443,5.09437906 L13.9226218,5.09437906 Z M3.74426947,11.6326623 C4.23669145,11.6326623 4.63520698,12.0163865 4.63520698,12.4905316 L4.63520698,15.1370414 C4.63520698,15.6111866 4.23669145,15.9949107 3.74426947,15.9949107 L1.89093751,15.9949107 C1.39910244,15.9949107 1,15.6111866 1,15.1370414 L1,12.4905316 C1,12.0163865 1.39910244,11.6326623 1.89093751,11.6326623 L3.74426947,11.6326623 Z M8.83355924,0 C9.32539431,0 9.72449675,0.480242815 9.72449675,1.07207146 L9.72449675,14.9228392 C9.72449675,15.5153741 9.32539431,15.9949107 8.83355924,15.9949107 L6.98022728,15.9949107 C6.48839221,15.9949107 6.08928977,15.5153741 6.08928977,14.9228392 L6.08928977,1.07207146 C6.08928977,0.480242815 6.48839221,0 6.98022728,0 L8.83355924,0 Z" id="path-2"></path>
    </defs>
    <g id="Icon/Editor/User_Info" stroke="none" stroke-width="1" fill="none" fill-rule="evenodd">
        <g id="Icon/System/Info">
            <g id="Group-9">
                <rect id="Rectangle-2" fill-rule="nonzero" x="0" y="0" width="16" height="16"></rect>
                <g id="barchart">
                    <use fill="#FFFFFF" xlink:href="#path-2"></use>
                    <use fill="currentColor" xlink:href="#path-2"></use>
                </g>
            </g>
        </g>
    </g>
</svg>