<?xml version="1.0" encoding="UTF-8"?>
<svg viewBox="0 0 1218 747" version="1.1" xmlns="http://www.w3.org/2000/svg" xmlns:xlink="http://www.w3.org/1999/xlink">
    <!-- Generator: Sketch 52.1 (67048) - http://www.bohemiancoding.com/sketch -->
    <title>Group 2</title>
    <desc>Created with Sketch.</desc>
    <defs>
        <linearGradient x1="50%" y1="-104.289511%" x2="50%" y2="100%" id="linearGradient-1">
            <stop stop-color="currentColor" offset="0%"></stop>
            <stop stop-color="currentColor" offset="100%"></stop>
        </linearGradient>
        <linearGradient x1="50%" y1="32.1187137%" x2="67.2859088%" y2="115.977968%" id="linearGradient-2">
            <stop stop-color="currentColor" offset="0%"></stop>
            <stop stop-color="currentColor" offset="100%"></stop>
        </linearGradient>
        <linearGradient x1="60.7312459%" y1="0%" x2="50%" y2="100%" id="linearGradient-3">
            <stop stop-color="currentColor" offset="0%"></stop>
            <stop stop-color="currentColor" offset="100%"></stop>
        </linearGradient>
        <linearGradient x1="157.419759%" y1="-39.6921362%" x2="118.835577%" y2="115.937591%" id="linearGradient-4">
            <stop stop-color="currentColor" offset="0%"></stop>
            <stop stop-color="currentColor" offset="100%"></stop>
        </linearGradient>
        <linearGradient x1="149.379226%" y1="-86.5655478%" x2="157.419759%" y2="219.657969%" id="linearGradient-5">
            <stop stop-color="currentColor" offset="0%"></stop>
            <stop stop-color="currentColor" offset="100%"></stop>
        </linearGradient>
        <linearGradient x1="50%" y1="19.6859798%" x2="-33.8124944%" y2="294.476483%" id="linearGradient-6">
            <stop stop-color="currentColor" offset="0%"></stop>
            <stop stop-color="currentColor" offset="100%"></stop>
        </linearGradient>
        <linearGradient x1="50%" y1="-10.8772052%" x2="50%" y2="100%" id="linearGradient-7">
            <stop stop-color="currentColor" offset="0%"></stop>
            <stop stop-color="currentColor" offset="100%"></stop>
        </linearGradient>
        <linearGradient x1="45.8146591%" y1="15.1595137%" x2="75.9412525%" y2="70.6858623%" id="linearGradient-8">
            <stop stop-color="currentColor" offset="0%"></stop>
            <stop stop-color="currentColor" offset="100%"></stop>
        </linearGradient>
        <linearGradient x1="62.2459026%" y1="-19.1290149%" x2="-33.8124944%" y2="294.476483%" id="linearGradient-9">
            <stop stop-color="currentColor" offset="0%"></stop>
            <stop stop-color="currentColor" offset="100%"></stop>
        </linearGradient>
        <linearGradient x1="83.2804773%" y1="11.2557844%" x2="111.028592%" y2="953.538449%" id="linearGradient-10">
            <stop stop-color="currentColor" offset="0%"></stop>
            <stop stop-color="currentColor" offset="100%"></stop>
        </linearGradient>
        <linearGradient x1="50%" y1="-142.327103%" x2="50%" y2="170.164832%" id="linearGradient-11">
            <stop stop-color="currentColor" offset="0%"></stop>
            <stop stop-color="currentColor" offset="100%"></stop>
        </linearGradient>
        <linearGradient x1="83.2804773%" y1="11.2557844%" x2="59.8890922%" y2="97.3099621%" id="linearGradient-12">
            <stop stop-color="currentColor" offset="0%"></stop>
            <stop stop-color="currentColor" offset="100%"></stop>
        </linearGradient>
        <path d="M20,25 L23,25 L23,14 C23,10.6862915 25.6862915,8 29,8 C32.3137085,8 35,10.6862915 35,14 L35,31 C35,34.3137085 32.3137085,37 29,37 C28.6592878,37 28.3252085,36.9716012 28,36.9170416 C27.6747915,36.9716012 27.3407122,37 27,37 L20,37 L20,53 L0,53 L0,10 C0,4.4771525 4.4771525,1.01453063e-15 10,0 C15.5228475,-1.01453063e-15 20,4.4771525 20,10 L20,25 Z" id="path-13"></path>
        <linearGradient x1="83.2804773%" y1="11.2557844%" x2="50%" y2="152.078318%" id="linearGradient-15">
            <stop stop-color="currentColor" offset="0%"></stop>
            <stop stop-color="currentColor" offset="100%"></stop>
        </linearGradient>
        <linearGradient x1="50%" y1="0%" x2="50%" y2="100%" id="linearGradient-16">
            <stop stop-color="currentColor" offset="0%"></stop>
            <stop stop-color="currentColor" offset="100%"></stop>
        </linearGradient>
        <linearGradient x1="69.4657764%" y1="75.602262%" x2="69.4657764%" y2="14.0380158%" id="linearGradient-17">
            <stop stop-color="currentColor" offset="0%"></stop>
            <stop stop-color="currentColor" offset="100%"></stop>
        </linearGradient>
        <linearGradient x1="85.0973284%" y1="109.304399%" x2="4.85382204%" y2="-47.1761978%" id="linearGradient-18">
            <stop stop-color="currentColor" offset="0%"></stop>
            <stop stop-color="currentColor" offset="100%"></stop>
        </linearGradient>
        <linearGradient x1="-8.77133659%" y1="109.673401%" x2="17.3111424%" y2="15.4296073%" id="linearGradient-19">
            <stop stop-color="currentColor" offset="0%"></stop>
            <stop stop-color="currentColor" offset="100%"></stop>
        </linearGradient>
        <linearGradient x1="100%" y1="50%" x2="0%" y2="50%" id="linearGradient-20">
            <stop stop-color="currentColor" offset="0%"></stop>
            <stop stop-color="currentColor" offset="100%"></stop>
        </linearGradient>
        <linearGradient x1="60.7312459%" y1="0%" x2="52.0812714%" y2="50%" id="linearGradient-21">
            <stop stop-color="currentColor" offset="0%"></stop>
            <stop stop-color="currentColor" offset="100%"></stop>
        </linearGradient>
        <linearGradient x1="50%" y1="27.7727484%" x2="55.2277926%" y2="103.623291%" id="linearGradient-22">
            <stop stop-color="currentColor" offset="0%"></stop>
            <stop stop-color="currentColor" offset="100%"></stop>
        </linearGradient>
        <path d="M161.477616,35.5599257 C154.438402,54.0618188 149.662282,67.1899742 147.149257,74.9443919 C143.377179,86.5838586 141.913161,96.1832587 142.757203,103.742592 C145.288475,126.412955 152.330923,133.837937 146.229848,188.066913 C143.844589,209.268116 130.452119,239.114348 127.867819,262.754131 C123.84193,299.580787 133.741561,312.32075 131.261754,318.411621 C127.867819,326.747768 91.645048,319.087117 73.5179769,338 C67.6801593,326.747768 89.8589052,287.07286 89.8589052,281.012684 C89.8589052,274.952509 90.6141307,229.44052 109.240975,196.05539 C121.658871,173.798637 126.403668,141.24171 123.475365,98.3846068 C92.2667319,92.3926435 69.4404238,84.5792385 54.9964408,74.9443919 C40.5524578,65.3095452 22.2203109,44.5228416 0,12.584281 C3.31519883,4.19476034 7.11696179,-2.74138439e-14 11.4052889,-2.84217094e-14 C17.8377795,-2.84217094e-14 61.4199951,39.4961717 95.11561,44.2873995 C109.240975,46.2959053 120.583895,37.9605352 131.261754,35.5599257 C148.249116,31.7408061 160.620007,31.8856958 162.679051,31.1823468 C164.914592,30.4187084 166.021469,30.9897592 165.999685,32.8954993 L161.477616,35.5599257 Z" id="path-23"></path>
    </defs>
    <g id="Illustration" stroke="none" stroke-width="1" fill="none" fill-rule="evenodd">
        <g id="CRM-2" transform="translate(-97.000000, -139.000000)">
            <g id="Group-2" transform="translate(83.000000, 139.000000)">
                <g id="leaves" transform="translate(964.000000, 255.000000)" fill-rule="nonzero">
                    <g id="Leaves" transform="translate(164.885148, 160.759527) scale(-1, 1) rotate(-16.000000) translate(-164.885148, -160.759527) translate(100.385148, 12.259527)">
                        <path d="M88.3256479,0.341888272 C105.147242,2.07920635 99.3499231,41.3858883 103.966023,48.6532632 C108.582122,55.8680771 121.561922,58.0560608 119.748786,73.7817935 C117.93565,89.5075261 105.415762,88.9807837 103.923019,102.044268 C102.430276,115.107751 130.588835,113.401778 128.184722,134.022763 C125.78061,154.643748 104.07211,160.896055 102.645687,173.317908 C101.219265,185.739761 111.970295,190.614015 108.787424,218.106341 C105.604554,245.598666 83.6950157,251.232622 50.9735594,253.635115 C18.2521032,256.037609 -2.04892237,246.761459 1.13394846,217.117734 C4.3168193,187.47401 39.057309,188.326846 43.3466578,172.06074 C47.6360065,155.850399 25.6341847,147.029664 27.6999065,128.009265 C29.7656283,108.988866 62.8629003,109.863671 64.5507628,94.670965 C66.2386253,79.4782584 40.3326866,71.1905153 42.0544174,55.4064735 C43.7761482,39.6224317 50.3532628,37.2737963 62.7629716,31.8413231 C75.1726803,26.5108171 71.5040542,-1.39542981 88.3256479,0.341888272 Z" id="Leaf" fill="url(#linearGradient-1)"></path>
                        <path d="M54.0366287,239.479194 C53.346351,239.696707 52.7407172,239.230273 52.683908,238.43709 C52.6270987,237.643744 53.1406264,236.825087 53.8309042,236.608864 C70.4087919,231.465005 79.4221234,221.045959 81.2387709,205.023584 C81.3302768,204.216525 81.9610077,203.540402 82.6475479,203.51342 C83.334088,203.486439 83.8164586,204.117666 83.7249528,204.923305 C81.74175,222.383896 71.7230179,233.961674 54.0366287,239.479194 Z" id="leaves-base" fill="#98BBE9"></path>
                        <path d="M63.5890239,173.686457 C62.9017891,173.629831 62.5074637,172.930407 62.7082737,172.124422 C62.9090836,171.318561 63.6289861,170.712453 64.316221,170.770468 C75.4509235,171.701121 84.9436574,164.927226 93.0350531,150.260678 C93.4391075,149.531778 94.2458102,149.191041 94.836874,149.499071 C95.4279377,149.806826 95.5795388,150.646011 95.1754843,151.373993 C86.4882158,167.106153 75.8791856,174.687827 63.5890239,173.686457 Z" id="leaves-base" fill="#98BBE9"></path>
                        <path d="M86.2054403,85.8997332 C85.7371982,85.8305536 85.4663462,85.3404467 85.6004754,84.8051284 C85.7346045,84.2698657 86.2229228,83.8926142 86.6911649,83.9624339 C92.3398521,84.8021676 97.1260696,81.6952402 101.212706,74.4768164 C101.485447,73.9962708 102.03369,73.7960881 102.437241,74.0294428 C102.840792,74.2626693 102.946835,74.8407478 102.674094,75.3208702 C98.1852378,83.2446283 92.6413904,86.8473291 86.2054403,85.8997332 Z" id="leaves-base" fill="#98BBE9"></path>
                        <path d="M85.5969286,75.4096684 C86.0760985,75.3852908 86.454169,74.9258507 86.4413727,74.3834006 C86.4285764,73.8408949 86.029759,73.4202855 85.5505891,73.4440229 C79.7700727,73.7329264 75.7340339,70.1472769 73.324964,62.4479903 C73.1641834,61.9329322 72.6677736,61.6691025 72.2162018,61.8589632 C71.76463,62.0489519 71.5288971,62.6210534 71.6896777,63.1365346 C74.3358563,71.5987375 79.0107761,75.7480088 85.5969286,75.4096684 Z" id="leaves-base" fill="#98BBE9"></path>
                        <path d="M68.2859585,154.021288 C68.984279,153.951349 69.5321234,153.246403 69.5096031,152.446574 C69.4870828,151.64662 68.9027259,151.053568 68.2044054,151.122127 C57.8555811,152.145728 50.5850106,145.945006 46.2199123,132.122283 C45.9819174,131.365429 45.256462,131.003222 44.5995624,131.313816 C43.9426628,131.624682 43.6030735,132.491421 43.8410685,133.249186 C48.5571461,148.196544 56.7630366,155.184679 68.2859585,154.021288 Z" id="leaves-base" fill="#98BBE9"></path>
                        <path d="M48.695763,223.598078 C49.3940835,223.49433 49.9419279,222.760971 49.9194076,221.959902 C49.8968873,221.158707 49.3125304,220.592057 48.6142099,220.694425 C38.2653856,222.219061 30.9948151,216.350481 26.6297168,202.69845 C26.3917218,201.950903 25.6662664,201.622608 25.0093669,201.965729 C24.3524673,202.309121 24.012878,203.194684 24.250873,203.943142 C28.9669505,218.706084 37.1728411,225.319348 48.695763,223.598078 Z" id="leaves-base" fill="#98BBE9"></path>
                        <path d="M48.9428912,294.362403 C48.8216932,295.448295 47.9720659,296.406186 47.0451954,296.501912 C46.118325,296.597638 44.2065129,295.922118 44.3277109,294.832736 C46.4049444,288.07613 48.1031753,278.834022 49.4224035,267.097313 C51.4012459,249.492609 45.7307342,220.63169 49.6658237,201.002604 C53.6009132,181.421326 75.0503264,144.36174 82.749908,115.292311 C89.0147922,91.772944 84.7339134,70.2115211 84.047341,55.9489675 C83.3607686,41.6413787 86.3934584,24.8029865 86.6957325,24.829048 C87.0573802,24.8602286 84.0242769,42.1325493 84.9762344,56.0088555 C85.928192,69.8373706 89.5566306,88.1074561 86.4307484,108.240097 C80.6118233,145.781833 56.4730146,178.886218 53.7023911,203.802872 C50.9317677,228.719527 56.3333029,243.837333 54.9555983,265.667227 C54.0371285,280.202297 52.0328928,289.759777 48.9428912,294.362403 Z" id="leaves-base" fill="#8FAFDA"></path>
                    </g>
                    <g id="Leaves" transform="translate(102.000000, 174.500000) rotate(-17.000000) translate(-102.000000, -174.500000) translate(43.000000, 22.000000)">
                        <path d="M63.2152961,0 C80.0368898,0 78.7103844,41.1243441 84.1070815,48.3045944 C89.5037786,55.4848448 102.636444,56.8909709 102.636444,73.5689277 C102.636444,90.2468844 90.1165566,90.2468844 90.1165566,103.977737 C90.1165566,117.70859 118,115.177964 118,137.291965 C118,159.405966 96.9978091,165.902883 96.9978091,179.023689 C96.9978091,192.144494 108.348675,197.662027 108.348675,226.939358 C108.348675,256.216689 86.9091536,260.540094 54.1876974,260.540094 C21.4662412,260.540094 0,249.82197 0,220.544639 C0,191.267308 34.9358122,193.063963 37.4413604,176.655845 C39.9469086,160.247727 16.9736249,151.311829 16.9736249,132.310485 C16.9736249,113.309142 50.0708969,113.309142 50.0708969,97.7835013 C50.0708969,82.2578607 23.3990954,75.2131455 23.3990954,59.3759701 C23.3990954,43.5387948 29.6682721,40.7062579 41.3801924,34.2877174 C53.0921126,27.8691769 46.3937025,0 63.2152961,0 Z" id="Leaf" fill="url(#linearGradient-2)"></path>
                        <path d="M55.6842002,246.130182 C55.0134108,246.309445 54.3510973,245.788081 54.2048815,244.965684 C54.0586657,244.143287 54.4839166,243.331281 55.1547059,243.152018 C71.2645541,238.846801 79.1490383,228.463208 79.1490383,211.75295 C79.1490383,210.911242 79.705589,210.228903 80.3921292,210.228903 C81.0786694,210.228903 81.6352201,210.911242 81.6352201,211.75295 C81.6352201,229.99525 72.8712536,241.537091 55.6842002,246.130182 Z" id="Leaves-base" fill="#5ACE87"></path>
                        <path d="M63.9791046,184.099327 C63.3222093,184.360384 62.6159618,183.923322 62.4016566,183.123123 C62.1873514,182.322924 62.5461416,181.462607 63.2030369,181.201551 C73.8461721,176.971867 79.1330001,166.617961 79.1330001,149.762373 C79.1330001,148.920667 79.6931412,148.238329 80.3841101,148.238329 C81.0750791,148.238329 81.6352201,148.920667 81.6352201,149.762373 C81.6352201,167.859253 75.7266885,179.430725 63.9791046,184.099327 Z" id="Leaves-base" fill="#5ACE87" transform="translate(71.987421, 166.206612) rotate(25.000000) translate(-71.987421, -166.206612) "></path>
                        <path d="M73.848923,90.6888174 C73.4004249,90.8650332 72.9182315,90.5700123 72.7719137,90.0298698 C72.6255959,89.4897274 72.8705614,88.9090042 73.3190595,88.7327884 C78.7295626,86.6069905 81.4110956,81.414949 81.4110956,72.9018742 C81.4110956,72.3337141 81.7935342,71.8731293 82.2652962,71.8731293 C82.7370582,71.8731293 83.1194969,72.3337141 83.1194969,72.9018742 C83.1194969,82.2528341 80.0134931,88.266745 73.848923,90.6888174 Z" id="Leaves-base" fill="#5ACE87" transform="translate(77.924528, 81.306478) rotate(25.000000) translate(-77.924528, -81.306478) "></path>
                        <path d="M57.5218789,79.907848 C57.0733809,80.0840638 56.5911874,79.7890429 56.4448697,79.2489004 C56.2985519,78.708758 56.5435174,78.1280348 56.9920154,77.951819 C62.4025186,75.8260211 65.0840516,70.6339796 65.0840516,62.1209048 C65.0840516,61.5527447 65.4664902,61.0921599 65.9382522,61.0921599 C66.4100142,61.0921599 66.7924528,61.5527447 66.7924528,62.1209048 C66.7924528,71.4718647 63.6864491,77.4857756 57.5218789,79.907848 Z" id="Leaves-base" fill="#5ACE87" transform="translate(61.597484, 70.525508) scale(-1, 1) rotate(25.000000) translate(-61.597484, -70.525508) "></path>
                        <path d="M40.2195278,163.435864 C39.5670997,163.696707 38.8656549,163.260003 38.6528071,162.460459 C38.4399593,161.660915 38.7963095,160.801302 39.4487377,160.540459 C49.117456,156.674874 53.9173118,147.218053 53.9173118,131.792843 C53.9173118,130.951826 54.4736436,130.270047 55.1599137,130.270047 C55.8461839,130.270047 56.4025157,130.951826 56.4025157,131.792843 C56.4025157,148.458329 50.9851842,159.13172 40.2195278,163.435864 Z" id="Leaves-base" fill="#5ACE87" transform="translate(47.496855, 146.890708) scale(-1, 1) rotate(25.000000) translate(-47.496855, -146.890708) "></path>
                        <path d="M28.345314,234.410579 C27.6928858,234.671422 26.9914411,234.234719 26.7785932,233.435174 C26.5657454,232.63563 26.9220957,231.776017 27.5745238,231.515174 C37.2432421,227.649589 42.0430979,218.192768 42.0430979,202.767558 C42.0430979,201.926541 42.5994298,201.244762 43.2856999,201.244762 C43.97197,201.244762 44.5283019,201.926541 44.5283019,202.767558 C44.5283019,219.433044 39.1109703,230.106435 28.345314,234.410579 Z" id="Leaves-base" fill="#5ACE87" transform="translate(35.622642, 217.865423) scale(-1, 1) rotate(25.000000) translate(-35.622642, -217.865423) "></path>
                        <path d="M56.7234428,302.543811 C56.7234428,303.658639 55.9720659,304.562386 55.0451954,304.562386 C54.118325,304.562386 52.1082625,303.658639 52.1082625,302.543811 C53.4483042,295.762823 54.1242007,286.358979 54.1359521,274.332279 C54.1535793,256.292228 45.2176624,226.255714 46.9865114,206.329759 C48.7553605,186.403805 66.0864142,148.521471 70.5087983,118.376484 C74.1071398,93.848548 67.4314304,71.8199291 65.1575208,57.2189608 C62.8836112,42.6179925 64.017885,25.1555953 64.3201591,25.1555953 C64.6818067,25.1555953 63.5962591,43.0699991 66.0864142,57.2189608 C68.5765693,71.3679226 74.2342487,90.0336993 73.385821,110.982645 C71.8064469,149.979747 51.3522515,183.872309 51.3522515,209.357622 C51.3522515,234.842935 58.4878327,250.79339 59.5594227,273.322991 C60.273816,288.342725 59.3284894,298.082998 56.7234428,302.543811 Z" id="Leaves-base" fill="#42B16D"></path>
                    </g>
                    <g id="Leaves" transform="translate(196.000000, 201.000000) scale(-1, 1) rotate(-28.000000) translate(-196.000000, -201.000000) translate(137.000000, 71.000000)">
                        <path d="M63.2152961,0 C80.0368898,0 78.7103844,35.1071897 84.1070815,41.2368537 C89.5037786,47.3665177 102.636444,48.5669049 102.636444,62.8046078 C102.636444,77.0423108 90.1165566,77.0423108 90.1165566,88.7641187 C90.1165566,100.485927 118,98.3255714 118,117.203938 C118,136.082304 96.9978091,141.628618 96.9978091,152.829638 C96.9978091,164.030658 108.348675,168.740886 108.348675,193.734472 C108.348675,218.728058 86.9091536,222.418879 54.1876974,222.418879 C21.4662412,222.418879 0,213.26899 0,188.275404 C0,163.281818 34.9358122,164.815594 37.4413604,150.808248 C39.9469086,136.800902 16.9736249,129.17247 16.9736249,112.951329 C16.9736249,96.7301883 50.0708969,96.7301883 50.0708969,83.4761991 C50.0708969,70.2222099 23.3990954,64.2082501 23.3990954,50.6883087 C23.3990954,37.1683674 29.6682721,34.7502763 41.3801924,29.2708717 C53.0921126,23.7914671 46.3937025,0 63.2152961,0 Z" id="Leaf" fill="url(#linearGradient-3)"></path>
                        <path d="M55.6842002,210.11737 C55.0134108,210.270403 54.3510973,209.825324 54.2048815,209.123256 C54.0586657,208.421189 54.4839166,207.727993 55.1547059,207.574959 C71.2645541,203.899664 79.1490383,195.035359 79.1490383,180.770081 C79.1490383,180.051528 79.705589,179.469027 80.3921292,179.469027 C81.0786694,179.469027 81.6352201,180.051528 81.6352201,180.770081 C81.6352201,196.343238 72.8712536,206.196322 55.6842002,210.11737 Z" id="Leaves-base" fill="#D2DEF8"></path>
                        <path d="M63.9791046,157.162628 C63.3222093,157.385488 62.6159618,157.012376 62.4016566,156.329259 C62.1873514,155.646142 62.5461416,154.911703 63.2030369,154.688843 C73.8461721,151.07803 79.1330001,142.239068 79.1330001,127.849724 C79.1330001,127.131173 79.6931412,126.548673 80.3841101,126.548673 C81.0750791,126.548673 81.6352201,127.131173 81.6352201,127.849724 C81.6352201,143.298739 75.7266885,153.177118 63.9791046,157.162628 Z" id="Leaves-base" fill="#D2DEF8" transform="translate(71.987421, 141.887906) rotate(25.000000) translate(-71.987421, -141.887906) "></path>
                        <path d="M73.848923,77.4195818 C73.4004249,77.5700144 72.9182315,77.3181598 72.7719137,76.8570489 C72.6255959,76.395938 72.8705614,75.900184 73.3190595,75.7497514 C78.7295626,73.934992 81.4110956,69.5026298 81.4110956,62.2351551 C81.4110956,61.7501259 81.7935342,61.3569322 82.2652962,61.3569322 C82.7370582,61.3569322 83.1194969,61.7501259 83.1194969,62.2351551 C83.1194969,70.2179188 80.0134931,75.3518976 73.848923,77.4195818 Z" id="Leaves-base" fill="#D2DEF8" transform="translate(77.924528, 69.410029) rotate(25.000000) translate(-77.924528, -69.410029) "></path>
                        <path d="M57.5218789,68.216042 C57.0733809,68.3664746 56.5911874,68.11462 56.4448697,67.6535091 C56.2985519,67.1923981 56.5435174,66.6966442 56.9920154,66.5462116 C62.4025186,64.7314522 65.0840516,60.29909 65.0840516,53.0316153 C65.0840516,52.5465861 65.4664902,52.1533923 65.9382522,52.1533923 C66.4100142,52.1533923 66.7924528,52.5465861 66.7924528,53.0316153 C66.7924528,61.014379 63.6864491,66.1483578 57.5218789,68.216042 Z" id="Leaves-base" fill="#D2DEF8" transform="translate(61.597484, 60.206490) scale(-1, 1) rotate(25.000000) translate(-61.597484, -60.206490) "></path>
                        <path d="M40.2195278,139.522563 C39.5670997,139.745241 38.8656549,139.372434 38.6528071,138.689876 C38.4399593,138.007318 38.7963095,137.27348 39.4487377,137.050802 C49.117456,133.750815 53.9173118,125.677679 53.9173118,112.509426 C53.9173118,111.791463 54.4736436,111.20944 55.1599137,111.20944 C55.8461839,111.20944 56.4025157,111.791463 56.4025157,112.509426 C56.4025157,126.736483 50.9851842,135.848185 40.2195278,139.522563 Z" id="Leaves-base" fill="#D2DEF8" transform="translate(47.496855, 125.398230) scale(-1, 1) rotate(25.000000) translate(-47.496855, -125.398230) "></path>
                        <path d="M28.345314,200.112534 C27.6928858,200.335211 26.9914411,199.962404 26.7785932,199.279846 C26.5657454,198.597288 26.9220957,197.86345 27.5745238,197.640773 C37.2432421,194.340785 42.0430979,186.267649 42.0430979,173.099397 C42.0430979,172.381434 42.5994298,171.79941 43.2856999,171.79941 C43.97197,171.79941 44.5283019,172.381434 44.5283019,173.099397 C44.5283019,187.326454 39.1109703,196.438155 28.345314,200.112534 Z" id="Leaves-base" fill="#D2DEF8" transform="translate(35.622642, 185.988201) scale(-1, 1) rotate(25.000000) translate(-35.622642, -185.988201) "></path>
                        <path d="M56.7234428,258.276775 C56.7234428,259.228486 55.9720659,260 55.0451954,260 C54.118325,260 52.1082625,259.228486 52.1082625,258.276775 C53.4483042,252.487955 54.1242007,244.460045 54.1359521,234.193045 C54.1535793,218.792545 45.2176624,193.150856 46.9865114,176.14039 C48.7553605,159.129924 66.0864142,126.790386 70.5087983,101.056097 C74.1071398,80.1169929 67.4314304,61.311516 65.1575208,48.8469047 C62.8836112,36.3822934 64.017885,21.4749263 64.3201591,21.4749263 C64.6818067,21.4749263 63.5962591,36.768164 66.0864142,48.8469047 C68.5765693,60.9256453 74.2342487,76.8603181 73.385821,94.7440955 C71.8064469,128.035293 51.3522515,156.968826 51.3522515,178.725227 C51.3522515,200.481628 58.4878327,214.098275 59.5594227,233.331432 C60.273816,246.153537 59.3284894,254.468652 56.7234428,258.276775 Z" id="Leaves-base" fill="#D2DEF8"></path>
                    </g>
                    <g id="vase" transform="translate(89.000000, 297.000000)">
                        <polygon id="Vase-base" fill="url(#linearGradient-4)" points="1.99411232 2.03857442 101.699728 2.03857442 79.5429247 67.272956 24.1509159 67.272956"></polygon>
                        <rect id="Vase-base" fill="url(#linearGradient-5)" x="0" y="0" width="101.699728" height="20.3857442"></rect>
                    </g>
                </g>
                <g id="Window" transform="translate(283.000000, 0.000000)" fill-rule="nonzero">
                    <path d="M20,0 L733,0 C744.045695,-2.02906125e-15 753,8.954305 753,20 L753,535 C753,537.209139 751.209139,539 749,539 L4,539 C1.790861,539 2.705415e-16,537.209139 0,535 L0,20 C-1.3527075e-15,8.954305 8.954305,2.02906125e-15 20,0 Z" id="Rectangle" fill="url(#linearGradient-6)"></path>
                    <rect id="Rectangle-2" fill="url(#linearGradient-4)" x="50" y="129" width="181" height="183"></rect>
                    <circle id="Chart-base" fill="url(#linearGradient-2)" cx="131" cy="409" r="81"></circle>
                    <path d="M131,328 C166.886813,328 197.322782,351.337834 207.958827,383.66442 L131,413 L131,328 Z" id="Chart-base" fill="url(#linearGradient-7)"></path>
                    <g id="Chart-bar-" transform="translate(395.000000, 137.000000)">
                        <path d="M4,50 L36,50 C38.209139,50 40,51.790861 40,54 L40,106 C40,108.209139 38.209139,110 36,110 L4,110 C1.790861,110 2.705415e-16,108.209139 0,106 L0,54 C-2.705415e-16,51.790861 1.790861,50 4,50 Z" id="Chart-bar-base" fill="url(#linearGradient-2)"></path>
                        <path d="M104,30 L136,30 C138.209139,30 140,31.790861 140,34 L140,106 C140,108.209139 138.209139,110 136,110 L104,110 C101.790861,110 100,108.209139 100,106 L100,34 C100,31.790861 101.790861,30 104,30 Z" id="Chart-bar-base" fill="url(#linearGradient-8)"></path>
                        <path d="M154,80 L186,80 C188.209139,80 190,81.790861 190,84 L190,106 C190,108.209139 188.209139,110 186,110 L154,110 C151.790861,110 150,108.209139 150,106 L150,84 C150,81.790861 151.790861,80 154,80 Z" id="Chart-bar-base" fill="url(#linearGradient-2)"></path>
                        <path d="M205,50 L237,50 C239.209139,50 241,51.790861 241,54 L241,106 C241,108.209139 239.209139,110 237,110 L205,110 C202.790861,110 201,108.209139 201,106 L201,54 C201,51.790861 202.790861,50 205,50 Z" id="Chart-bar-base" fill="url(#linearGradient-2)"></path>
                        <path d="M255,20 L287,20 C289.209139,20 291,21.790861 291,24 L291,106 C291,108.209139 289.209139,110 287,110 L255,110 C252.790861,110 251,108.209139 251,106 L251,24 C251,21.790861 252.790861,20 255,20 Z" id="Chart-bar-base" fill="url(#linearGradient-8)"></path>
                        <path d="M54,0 L86,0 C88.209139,-4.05812251e-16 90,1.790861 90,4 L90,106 C90,108.209139 88.209139,110 86,110 L54,110 C51.790861,110 50,108.209139 50,106 L50,4 C50,1.790861 51.790861,4.05812251e-16 54,0 Z" id="Chart-bar-base" fill="url(#linearGradient-2)"></path>
                    </g>
                    <path d="M387,267 L704,267 C706.209139,267 708,268.790861 708,271 L708,490 C708,492.209139 706.209139,494 704,494 L387,494 C384.790861,494 383,492.209139 383,490 L383,271 C383,268.790861 384.790861,267 387,267 Z" id="Chart-base" fill="url(#linearGradient-9)"></path>
                    <g id="UI" transform="translate(261.000000, 147.000000)">
                        <rect id="UI-base" fill="url(#linearGradient-7)" x="0" y="0" width="58" height="58"></rect>
                        <rect id="UI-base" fill="url(#linearGradient-4)" x="0" y="88" width="58" height="58"></rect>
                        <rect id="UI-base" fill="url(#linearGradient-7)" x="0" y="176" width="58" height="58"></rect>
                        <rect id="UI-base" fill="url(#linearGradient-4)" x="0" y="264" width="58" height="58"></rect>
                    </g>
                    <path d="M20,0 L733,-7.10542736e-15 C744.045695,-9.13448861e-15 753,8.954305 753,20 L753,75 C753,77.209139 751.209139,79 749,79 L4,79 C1.790861,79 2.705415e-16,77.209139 0,75 L-3.55271368e-15,20 C-4.90542118e-15,8.954305 8.954305,-5.0763661e-15 20,-7.10542736e-15 Z" id="Titlebar-base" fill="url(#linearGradient-10)"></path>
                    <g id="Titlebar-button" transform="translate(25.000000, 27.000000)" fill="#FFFFFF">
                        <circle cx="12.5" cy="12.5" r="12.5"></circle>
                        <circle cx="51.5" cy="12.5" r="12.5"></circle>
                        <circle cx="90.5" cy="12.5" r="12.5"></circle>
                    </g>
                    <g id="Chart" transform="translate(413.000000, 304.000000)" stroke="#D1D6FC" stroke-width="2">
                        <path d="M0,1 L269.572187,1" id="Path-52"></path>
                        <path d="M0,33 L269.572187,33" id="Path-52-Copy"></path>
                        <path d="M0,65 L269.572187,65" id="Path-52-Copy-2"></path>
                        <path d="M0,97 L269.572187,97" id="Path-52-Copy-3"></path>
                        <path d="M0,129 L269.572187,129" id="Path-52-Copy-4"></path>
                        <path d="M0,161 L269.572187,161" id="Path-52-Copy-5"></path>
                    </g>
                    <path d="M406.828648,448.205462 C406.274253,449.160826 405.050351,449.485875 404.094988,448.93148 C403.139624,448.377084 402.814575,447.153183 403.368971,446.197819 L443.82609,376.479959 C446.598067,371.703142 452.717574,370.077897 457.494392,372.849874 C458.320605,373.329323 459.073859,373.924682 459.731191,374.617802 L494.171934,410.933626 C496.452185,413.338022 500.249841,413.438662 502.654237,411.158411 C502.876032,410.948068 503.081428,410.721083 503.268632,410.47944 L569.176407,325.405417 C572.558758,321.039464 578.84,320.242098 583.205953,323.624449 C584.087101,324.307084 584.847921,325.132233 585.456951,326.065773 L616.910913,374.279386 C618.721501,377.054712 622.439119,377.836786 625.214445,376.026198 C625.846175,375.614065 626.394531,375.086512 626.830776,374.471185 L682.723736,295.633666 C683.362574,294.732578 684.610931,294.519984 685.512019,295.158822 C686.413106,295.797661 686.625701,297.046018 685.986863,297.947105 L630.093903,376.784624 C629.366829,377.810169 628.452902,378.689425 627.400019,379.376313 C622.774475,382.39396 616.578445,381.090502 613.560798,376.464959 L582.106836,328.251346 C581.741418,327.691222 581.284926,327.196133 580.756237,326.786552 C578.136666,324.757141 574.367921,325.235561 572.33851,327.855132 L506.430735,412.929155 C506.118728,413.331895 505.776401,413.710202 505.406744,414.060773 C501.399417,417.861191 495.069989,417.693459 491.269571,413.686132 L456.828828,377.370308 C456.434429,376.954436 455.982477,376.597221 455.486749,376.309551 C452.620658,374.646365 448.948954,375.621512 447.285767,378.487603 L406.828648,448.205462 Z" id="Chart-base" fill="#FEBD59"></path>
                    <path d="M406.35234,448.760057 C405.49165,449.452363 404.232699,449.315861 403.540393,448.455171 C402.848087,447.594481 402.98459,446.33553 403.845279,445.643224 L487.983706,377.965508 C491.403806,375.214511 496.21802,375.015276 499.853733,377.47427 L536.290698,402.118201 C538.696138,403.745106 541.921423,403.415843 543.948492,401.336432 L578.906861,365.475393 C582.663229,361.622031 588.795414,361.432288 592.78283,365.04604 L632.623091,401.152839 C634.916132,403.230997 638.41356,403.22427 640.698589,401.137306 L685.881448,359.870876 C686.697044,359.125975 687.962077,359.183285 688.706977,359.998881 C689.451878,360.814477 689.394568,362.07951 688.578972,362.82441 L643.396113,404.090841 C639.587731,407.569113 633.758684,407.580325 629.93695,404.116729 L590.096688,368.00993 C587.704239,365.841679 584.024928,365.955525 581.771107,368.267542 L546.812738,404.128581 C543.434289,407.594267 538.058815,408.143038 534.049748,405.431529 L497.612783,380.787598 C495.431355,379.312202 492.542827,379.431743 490.490767,381.082341 L406.35234,448.760057 Z" id="Chart-base" fill="#F25267"></path>
                </g>
                <g id="Table" transform="translate(779.010183, 502.112903)" fill-rule="nonzero">
                    <path d="M43.4114053,195.649636 L43.4114053,18.1981567 L24.5593719,18.1981567 L43.4114053,195.649636 Z M21,15 L46.6130346,15 L46.6130346,208.488479 C46.6130346,209.813199 45.5379709,210.887097 44.2118126,210.887097 C42.8465257,210.887097 41.7012685,209.858064 41.55719,208.501873 L21,15 Z" id="Table-base" fill="url(#linearGradient-11)" transform="translate(33.806517, 112.943548) scale(-1, 1) translate(-33.806517, -112.943548) "></path>
                    <path d="M371.578411,195.649636 L371.578411,18.1981567 L352.726378,18.1981567 L371.578411,195.649636 Z M349.167006,15 L374.780041,15 L374.780041,208.488479 C374.780041,209.813199 373.704977,210.887097 372.378819,210.887097 C371.013532,210.887097 369.868275,209.858064 369.724196,208.501873 L349.167006,15 Z" id="Table-base" fill="url(#linearGradient-11)"></path>
                    <rect id="Table-base" fill="url(#linearGradient-12)" x="0.989816701" y="-0.112903226" width="393" height="15.9907834"></rect>
                </g>
                <g id="Cactus" transform="translate(813.000000, 421.000000)">
                    <g transform="translate(15.000000, 0.000000)">
                        <mask id="mask-14" fill="white">
                            <use xlink:href="#path-13"></use>
                        </mask>
                        <use id="Mask" fill="url(#linearGradient-2)" fill-rule="nonzero" xlink:href="#path-13"></use>
                        <path d="M0,-3 L1,-3 L1,59.7844353 L0,59.7844353 L0,-3 Z M3,-3 L4,-3 L4,59.7844353 L3,59.7844353 L3,-3 Z M6,-3 L7,-3 L7,59.7844353 L6,59.7844353 L6,-3 Z M9,-3 L10,-3 L10,59.7844353 L9,59.7844353 L9,-3 Z M12,-3 L13,-3 L13,59.7844353 L12,59.7844353 L12,-3 Z M15,-3 L16,-3 L16,59.7844353 L15,59.7844353 L15,-3 Z M18,-3 L19,-3 L19,59.7844353 L18,59.7844353 L18,-3 Z M21,-3 L22,-3 L22,59.7844353 L21,59.7844353 L21,-3 Z M24,-3 L25,-3 L25,59.7844353 L24,59.7844353 L24,-3 Z M27,-3 L28,-3 L28,59.7844353 L27,59.7844353 L27,-3 Z M30,-3 L31,-3 L31,59.7844353 L30,59.7844353 L30,-3 Z M33,-3 L34,-3 L34,59.7844353 L33,59.7844353 L33,-3 Z" id="Combined-Shape" fill="#42B16D" fill-rule="nonzero" mask="url(#mask-14)"></path>
                    </g>
                    <g id="vase" transform="translate(0.000000, 45.000000)" fill-rule="nonzero">
                        <polygon fill="url(#linearGradient-4)" points="1 1 51 1 39.8888889 33 12.1111111 33"></polygon>
                        <rect fill="url(#linearGradient-5)" x="0" y="0" width="51" height="10"></rect>
                    </g>
                </g>
                <g id="Group" transform="translate(881.000000, 356.000000)" fill-rule="nonzero">
                    <polygon id="Imac" fill="url(#linearGradient-15)" points="78.4399185 115 122.462322 115 122.462322 146 78.4399185 146"></polygon>
                    <rect id="Imac" fill="url(#linearGradient-12)" x="0" y="0" width="199.301426" height="115.93318"></rect>
                    <rect id="Imac" stroke="url(#linearGradient-16)" stroke-width="2" fill="url(#linearGradient-6)" x="8.00407332" y="7.99539171" width="183.293279" height="99.9423963"></rect>
                </g>
                <g id="Girl" transform="translate(233.500000, 410.000000) scale(-1, 1) translate(-233.500000, -410.000000) translate(0.000000, 73.000000)">
                    <path d="M115.227811,488.132584 C126.5062,504.954796 181.292955,514.577268 279.588076,517 L327,517 L296.848626,452.626321 L209.861663,413 C135.494039,446.266178 103.949421,471.310373 115.227811,488.132584 Z" id="Jacket" fill="#BF8D30" fill-rule="nonzero"></path>
                    <g id="Head" transform="translate(153.000000, 65.000000)">
                        <path d="M53.6422696,88.7947646 C45.3140954,92.5997019 41.2824822,94.16121 41.54743,93.479289 C42.4363403,91.1914171 67.5499481,82.6777579 68.5513622,76.8097776 C69.1571383,73.2601147 69.1571383,69.3156925 68.5513622,64.9765112 L90.0275045,78.5824165 C88.0862794,86.6951681 88.6578445,93.4035598 91.7421998,98.7075915 C94.826555,104.011623 100.889749,108.712739 109.931782,112.810938 C84.941806,134.468841 66.7437588,145.963089 55.3376402,147.29368 C38.2284625,149.289566 40.0451746,135.664305 53.601126,115.623984 C62.6384269,102.26377 62.6521414,93.3206965 53.6422696,88.7947646 Z" id="neck" fill="url(#linearGradient-17)"></path>
                        <path d="M91.5198327,15.1137142 C122.427882,62.6143647 127.72121,67.3544858 124.531729,82.5186079 C117.973967,113.696947 26.9637124,145.869769 15.9865662,118.807365 C5.0094199,91.7449607 30.169447,105.79345 28.9552824,82.5186079 C28.5100092,73.9829738 18.9657969,55.4206776 0.322645382,26.8317192 C46.605631,-3.28769478 77.0046935,-7.19369646 91.5198327,15.1137142 Z" id="Hair" fill="url(#linearGradient-18)" fill-rule="nonzero"></path>
                        <path d="M18.52397,22.8221759 L26.3777088,22.6866755 C40.9167324,19.5781837 55.0051028,21.7556253 68.64282,29.2190002 C82.2805371,36.6823752 87.8409453,45.2579212 85.3240447,54.9456382 L90.9852797,78.5144424 C89.035468,86.6600878 89.6025115,93.3939923 92.6864103,98.7161558 C95.7703091,104.038319 101.837043,108.752925 110.886612,112.859974 C85.8502474,134.621041 67.6217344,146.173864 56.2010724,147.518442 C39.0700795,149.53531 40.8995027,135.855923 54.4870433,115.727558 C63.5454037,102.308647 63.5660649,93.3309614 54.5490269,88.7945001 C46.02722,92.7178836 40.6291127,94.8336235 38.3547052,95.1417199 C35.2613935,95.5607469 25.9469154,82.6964232 19.4661632,67.2881981 C18.7992983,65.7027025 13.4541594,60.4514196 12.8571685,58.8237539 C11.5295724,55.2041294 14.590365,54.9607616 14.1510085,51.0344863 C13.8164505,48.0447345 11.0385239,44.0563416 11.6901363,39.1235209 C12.0974477,36.0401023 14.3753923,30.6063206 18.52397,22.8221759 Z" id="Face" fill="#F2A384" fill-rule="nonzero"></path>
                    </g>
                    <g id="Foot" transform="translate(122.000000, 327.000000)">
                        <path d="M58.9758456,303.381211 L61.9531146,321.905245 C58.3301915,326.836535 53.8568546,329.30218 48.533104,329.30218 C43.2093533,329.30218 38.4702382,328.0588 34.3157586,325.572042 L31.3332942,305.325284 L58.9758456,303.381211 Z" id="leg" fill="url(#linearGradient-19)" fill-rule="nonzero" transform="translate(46.643204, 316.341696) rotate(-360.000000) translate(-46.643204, -316.341696) "></path>
                        <path d="M151.317718,303.381211 L154.294987,321.905245 C150.672064,326.836535 146.198727,329.30218 140.874976,329.30218 C135.551226,329.30218 130.812111,328.0588 126.657631,325.572042 L123.675167,305.325284 L151.317718,303.381211 Z" id="leg" fill="url(#linearGradient-19)" fill-rule="nonzero" transform="translate(138.985077, 316.341696) rotate(-360.000000) translate(-138.985077, -316.341696) "></path>
                        <path d="M154.38765,319.364026 C156.646891,319.364026 156.646891,327.008725 156.745186,332.826983 C156.78097,334.945099 156.397901,338.171928 155.595979,342.50747 C155.267365,344.284113 153.820027,345.586499 152.105152,345.648688 C115.846863,346.963581 93.9988508,346.928067 93.9324638,345.542144 C91.0355967,336.082353 92.6136262,335.061974 109.05634,327.641209 C115.739751,324.624918 121.874626,323.184692 126.030965,320.708185 C127.452677,319.861074 130.432235,326.710083 140.260697,326.710083 C150.08916,326.710083 152.128409,319.364026 154.38765,319.364026 Z" id="Shoes" fill="url(#linearGradient-20)" fill-rule="nonzero" transform="translate(124.754333, 332.986474) rotate(-360.000000) translate(-124.754333, -332.986474) "></path>
                        <path d="M163.63397,0.759451044 C162.731363,21.0987003 162.731363,32.4468754 163.63397,34.8039763 C164.987881,38.3396276 157.048927,82.4523992 139.817109,167.142291 C141.292548,249.776139 153.579182,295.169289 152.105855,303.32174 C149.895864,315.550417 124.207567,315.55007 121.090361,306.712335 C119.012223,300.820511 110.412084,252.946869 95.2899435,163.091408 L92.6361059,92.6168146 C82.0617471,111.083051 67.271588,136.237044 48.2656286,168.078795 C51.3746216,255.720779 63.1648671,302.108378 59.0652083,307.241591 C55.4114137,311.816535 31.3332942,315.045647 29.8883842,307.242495 C15.2336722,246.784774 7.90710779,200.088953 7.90869092,167.155031 C7.91027405,134.22111 23.0024844,78.7559161 53.185322,0.759451044 L163.63397,0.759451044 Z" id="Pants" fill="url(#linearGradient-21)" fill-rule="nonzero" transform="translate(85.845301, 156.863883) rotate(-360.000000) translate(-85.845301, -156.863883) "></path>
                        <path d="M62.0457778,319.364026 C64.3050188,319.364026 64.3050188,327.008725 64.4033136,332.826983 C64.4390975,334.945099 64.0560285,338.171928 63.2541066,342.50747 C62.9254925,344.284113 61.4781543,345.586499 59.7632799,345.648688 C23.5049902,346.963581 1.65697835,346.928067 1.59059135,345.542144 C-1.30627567,336.082353 0.271753744,335.061974 16.7144677,327.641209 C23.3978784,324.624918 29.5327532,323.184692 33.6890925,320.708185 C35.1108045,319.861074 38.0903623,326.710083 47.918825,326.710083 C57.7472878,326.710083 59.7865369,319.364026 62.0457778,319.364026 Z" id="Shoes" fill="url(#linearGradient-20)" fill-rule="nonzero" transform="translate(32.412460, 332.986474) rotate(-360.000000) translate(-32.412460, -332.986474) "></path>
                        <path d="M48.2829436,168.049786 L47.918825,167.944152 L78.6327711,81.1089089 C80.6803675,82.8369734 85.3481458,86.672942 92.6361059,92.6168146 C82.0649585,111.077442 67.2805711,136.221766 48.2829436,168.049786 Z" id="Shadow" fill="url(#linearGradient-22)" fill-rule="nonzero" transform="translate(70.277465, 124.579347) rotate(-360.000000) translate(-70.277465, -124.579347) "></path>
                        <path d="M141.289221,44.1715291 L123.661272,155.749552 C122.723291,161.686602 122.667953,167.729685 123.497052,173.682916 L141.289221,301.437139" id="Texture" stroke="#1542AB" transform="translate(132.101585, 172.804334) rotate(-360.000000) translate(-132.101585, -172.804334) "></path>
                    </g>
                    <path d="M208.443632,178.348628 C202.252442,188.222023 197.960821,194.853689 205.503255,198.515981 C213.04569,202.178273 230.140563,193.387217 256.787874,172.142812 C288.99637,184.390598 292.302495,194.117643 298.900438,201.323947 C305.498381,208.530251 281.16737,343.114133 271.432126,352.018461 C257.302695,364.941925 235.956033,369.427853 210.073407,365.943125 C210.073407,365.943125 210.073407,365.943125 210.073407,365.943125 L210.073407,365.943125 C191.682489,363.467049 178.78096,346.551009 181.257036,328.160091 C181.316084,327.721511 181.383792,327.28414 181.460118,326.848235 C184.592116,308.961211 186.158231,297.89083 186.158461,293.637089 C186.158946,284.664775 181.403788,262.764714 171.892988,227.936906 L192.842983,184.431519 L208.443632,178.348628 Z" id="Body" fill="url(#linearGradient-3)" fill-rule="nonzero" transform="translate(235.956033, 269.611867) rotate(-360.000000) translate(-235.956033, -269.611867) "></path>
                    <g id="Jacket" transform="translate(251.000000, 172.000000)" fill-rule="nonzero">
                        <path d="M7.46619169,171.912784 C21.9222558,221.082936 -1.64656217,278.224193 3.88325281,305.360718 C31.4342203,308.244869 55.4915612,322.256529 76.0552756,347.395699 C84.7475466,336.206346 88.6426905,311.634317 87.7407073,273.679613 C86.3877325,216.747557 72.8192071,213.581352 70.726222,187.66495 C69.3308986,170.387349 69.3308986,148.883548 70.726222,123.153546 L58.1893857,24.9342098 L7.46619169,0.871117729 C-2.1711844,82.1187936 -2.1711844,139.132682 7.46619169,171.912784 Z" fill="url(#linearGradient-7)"></path>
                        <path d="M69.7383608,150.766419 C58.3148218,139.124184 47.0567415,122.013291 38.2812569,96.9641484 C29.790609,72.7280566 38.6498745,42.7599417 50.9191432,21.4852055 L58.1893857,24.9342098 L70.726222,123.153546 C70.1936962,132.973413 69.8644091,142.177704 69.7383608,150.766419 Z" id="Shadow" fill="#EFB84F" opacity="0.5"></path>
                    </g>
                    <g id="Hand" transform="translate(348.018482, 253.470307) scale(-1, 1) rotate(39.000000) translate(-348.018482, -253.470307) translate(290.518482, 135.970307)" fill-rule="nonzero">
                        <path d="M32.3540108,222.619016 L29.1648307,212.385957 C21.0768949,201.125714 17.1942873,195.013206 17.5170079,194.048435 C17.8397285,193.083665 20.0270844,194.307698 24.0790756,197.720537 C23.0138895,189.982991 22.8228399,185.72039 23.5059269,184.932733 C24.1890139,184.145077 26.0689251,187.097382 29.1456605,193.789648 C29.4792604,185.326483 30.1775365,180.898732 31.2404889,180.506395 C32.3034412,180.114058 33.8993451,184.218699 36.0282005,192.820318 C37.020945,185.236373 38.0341381,181.876606 39.0677797,182.741019 C40.1014212,183.605432 41.0384148,189.595949 41.8787604,200.712571 C45.971393,197.139921 48.2519589,195.990554 48.720458,197.26447 C49.188957,198.538386 47.9819103,202.978137 45.0993179,210.583725 C47.5134113,242.815104 43.2649756,246.826868 32.3540108,222.619016 Z" fill="#F2A384" transform="translate(33.158570, 209.337273) scale(-1, -1) rotate(68.000000) translate(-33.158570, -209.337273) "></path>
                        <path d="M54.9063775,67.7024074 C39.9448102,45.3300206 39.9448102,29.5171719 54.9063775,20.2638613 C66.6909875,12.9754099 72.6947959,-0.691423531 75.1154773,0.137475026 C77.3046881,0.887112577 76.0224279,15.549747 83.2279553,20.2638613 C101.416494,32.1634552 123.984489,89.0702256 111.018513,126.170819 C87.2362967,194.220796 65.6914112,195.633563 52.3845427,204.181862 C43.513297,209.880728 38.4166992,206.147045 37.0947492,192.980811 C62.0993416,156.373573 73.6263982,132.423994 71.6759188,121.132075 C69.7254395,109.840156 64.1355924,92.0302667 54.9063775,67.7024074 Z" id="Sleeve" fill="url(#linearGradient-7)"></path>
                    </g>
                    <path d="M28.7036684,156.347768 L25.5470999,146.06384 C17.5418691,134.74762 13.6989639,128.604726 14.0183845,127.635159 C14.337805,126.665592 16.5027936,127.895711 20.5133504,131.325515 C19.4590565,123.549505 19.2699605,119.265714 19.9460625,118.474142 C20.6221644,117.68257 22.4828522,120.649551 25.5281258,127.375085 C25.8583144,118.869849 26.5494501,114.420087 27.601533,114.0258 C28.653616,113.631512 30.2332006,117.756558 32.3402869,126.400937 C33.3228799,118.779291 34.3257123,115.402822 35.3487842,116.271532 C36.371856,117.140242 37.2992682,123.160539 38.1310206,134.332423 C42.1818032,130.742013 44.4390486,129.586933 44.902757,130.867181 C45.3664653,132.14743 44.1717615,136.609252 41.3186457,144.252649 C43.7080532,176.644254 39.5030608,180.675961 28.7036684,156.347768 Z" id="Hand" fill="#F2A384" fill-rule="nonzero" transform="translate(29.500000, 143.000000) rotate(-33.000000) translate(-29.500000, -143.000000) "></path>
                    <g id="Jacket" transform="translate(39.000000, 148.000000)">
                        <mask id="mask-24" fill="white">
                            <use xlink:href="#path-23"></use>
                        </mask>
                        <use fill="url(#linearGradient-7)" fill-rule="nonzero" xlink:href="#path-23"></use>
                        <path d="M122.244724,102.796172 C122.382272,94.9197856 123.637941,88.5214871 126.011731,83.6012765 C128.385522,78.6810659 129.051182,75.7816561 128.008712,74.9030471 C102.114202,87.6887971 80.437712,90.5882069 62.9792422,83.6012765 C45.5207723,76.6143461 49.917967,86.1987775 76.1708261,112.354571 L122.244724,102.796172 Z" id="Shadow" fill="#EFB84F" fill-rule="nonzero" opacity="0.5" mask="url(#mask-24)"></path>
                    </g>
                    <path d="M281.421906,132.172202 C277.883017,135.265109 330.672046,120.417699 330.305119,92.7603957 C329.938192,65.1030924 307.209459,65.7535406 300.938878,63.7200761 C294.668297,61.6866116 268.219372,20.0842642 230.586063,32.8728949 C211.879262,39.2298797 210.384894,55.1071302 193.116529,74.061951 C186.265369,81.5822068 174.343514,77.5025151 167.323002,85.3442702 C160.302491,93.1860253 156.577617,105.415864 152.379781,112.277621 C146.72317,121.523882 122.72038,127.297325 124.695523,145.910835 C126.670666,164.524344 147.349284,171.017889 176.65801,175.071728 C190.203049,176.945212 189.208398,161.029878 195.649074,156.492884 C203.144719,151.212741 213.715876,152.881656 217.298038,148.198586 C223.958194,139.49156 219.898328,137.476745 222.869379,132.018237 C224.85008,128.379232 227.762189,125.010517 231.605708,121.912091 C225.222144,118.967461 224.054013,113.754071 228.101314,106.271921 C234.172265,95.0486968 244.532494,100.70739 244.532494,110.595016 L249.97026,104.240517 C256.547361,108.14474 263.130214,110.269658 269.71882,110.615271 C276.307425,110.960885 281.840782,110.722628 286.318889,109.9005 C286.858257,121.536875 285.225929,128.960776 281.421906,132.172202 Z" id="Face" fill="url(#linearGradient-18)" fill-rule="nonzero" transform="translate(227.443677, 102.829906) scale(-1, 1) rotate(-19.000000) translate(-227.443677, -102.829906) "></path>
                </g>
            </g>
        </g>
    </g>
</svg>