<?xml version="1.0" encoding="UTF-8"?>
<svg viewBox="0 0 17 17" version="1.1" xmlns="http://www.w3.org/2000/svg" xmlns:xlink="http://www.w3.org/1999/xlink">
    <title>Shape</title>
        <defs>
        <linearGradient x1="50%" y1="-2.48949813e-15%" x2="50%" y2="100%" id="linearGradient-1">
            <stop stop-color="currentColor" stop-opacity="0.85" offset="0%"></stop>
            <stop stop-color="currentColor" offset="100%"></stop>
        </linearGradient>
    </defs>
    <g id="Symbols" stroke="none" stroke-width="1" fill="none" fill-rule="evenodd">
        <g id="poll-h-solid" fill="url(#linearGradient-1)" fill-rule="nonzero">
            <path d="M17,15.1785714 L17,1.82142857 C17,0.815848214 16.1841518,0 15.1785714,0 L1.82142857,0 C0.815848214,0 0,0.815848214 0,1.82142857 L0,15.1785714 C0,16.1841518 0.815848214,17 1.82142857,17 L15.1785714,17 C16.1841518,17 17,16.1841518 17,15.1785714 Z M4.25,6.07142857 C3.91455357,6.07142857 3.64285714,5.79973214 3.64285714,5.46428571 L3.64285714,4.25 C3.64285714,3.91455357 3.91455357,3.64285714 4.25,3.64285714 L9.10714286,3.64285714 C9.44258929,3.64285714 9.71428571,3.91455357 9.71428571,4.25 L9.71428571,5.46428571 C9.71428571,5.79973214 9.44258929,6.07142857 9.10714286,6.07142857 L4.25,6.07142857 Z M4.25,9.71428571 C3.91455357,9.71428571 3.64285714,9.44258929 3.64285714,9.10714286 L3.64285714,7.89285714 C3.64285714,7.55741071 3.91455357,7.28571429 4.25,7.28571429 L12.75,7.28571429 C13.0854464,7.28571429 13.3571429,7.55741071 13.3571429,7.89285714 L13.3571429,9.10714286 C13.3571429,9.44258929 13.0854464,9.71428571 12.75,9.71428571 L4.25,9.71428571 Z M4.25,13.3571429 C3.91455357,13.3571429 3.64285714,13.0854464 3.64285714,12.75 L3.64285714,11.5357143 C3.64285714,11.2002679 3.91455357,10.9285714 4.25,10.9285714 L6.67857143,10.9285714 C7.01401786,10.9285714 7.28571429,11.2002679 7.28571429,11.5357143 L7.28571429,12.75 C7.28571429,13.0854464 7.01401786,13.3571429 6.67857143,13.3571429 L4.25,13.3571429 Z" id="Shape"></path>
        </g>
    </g>
</svg>