<?xml version="1.0" encoding="UTF-8"?>
<svg viewBox="0 0 16 16" version="1.1" xmlns="http://www.w3.org/2000/svg" xmlns:xlink="http://www.w3.org/1999/xlink">
            <defs>
        <linearGradient x1="50%" y1="0%" x2="50%" y2="100%" id="linearGradient-1">
            <stop stop-color="currentColor" stop-opacity="0.85" offset="0%"></stop>
            <stop stop-color="currentColor" offset="100%"></stop>
        </linearGradient>
        <path d="M16,7.38936327 C16,6.99267479 15.6782107,6.67088553 15.2808287,6.67088553 L15.083178,6.67088553 C14.6226865,6.67088553 14.2211434,6.37336916 14.0720385,5.93784405 C13.9825755,5.67500325 13.8757748,5.41979108 13.7537168,5.17359456 C13.5477439,4.75818127 13.6191756,4.26093364 13.9472064,3.93290278 L14.0886828,3.79142647 C14.3688613,3.51055438 14.3688613,3.05561094 14.0886828,2.77473885 L13.2252612,1.91201075 C12.9443891,1.63113866 12.4894456,1.63113866 12.2085735,1.91201075 L12.0566946,2.06319622 C11.7307442,2.38984006 11.2355771,2.46265875 10.8208574,2.25945993 C10.5774349,2.14017598 10.3256903,2.03545577 10.066317,1.94737983 C9.62871137,1.7989684 9.32911447,1.39673183 9.32911447,0.934853279 L9.32911447,0.719171254 C9.32911447,0.321789259 9.00732521,0 8.61063673,0 L7.38936327,0 C6.99267479,0 6.67088553,0.321789259 6.67088553,0.719171254 L6.67088553,0.95635213 C6.67088553,1.41545663 6.37475619,1.81630619 5.94061809,1.96679814 C5.68748645,2.05418057 5.44128993,2.15751376 5.20341554,2.27541069 C4.78730874,2.48138356 4.29006112,2.40995189 3.96203025,2.08192103 L3.79142647,1.91201075 C3.51055438,1.63113866 3.05561094,1.63113866 2.77473885,1.91201075 L1.91201075,2.77473885 C1.63113866,3.05561094 1.63113866,3.51055438 1.91201075,3.79142647 L2.0923237,3.97243292 C2.41896754,4.29907676 2.49109271,4.79424386 2.28789389,5.20896363 C2.17346452,5.44406398 2.07221187,5.68679294 1.98621646,5.93645702 C1.83711153,6.37267565 1.43556846,6.67088553 0.974383425,6.67088553 L0.719171254,6.67088553 C0.322482771,6.67088553 0,6.99267479 0,7.38936327 L0,8.61063673 C0,9.00732521 0.322482771,9.32911447 0.719171254,9.32911447 L0.974383425,9.32911447 C1.43556846,9.32911447 1.83711153,9.62732435 1.98621646,10.063543 C2.07221187,10.3132071 2.17346452,10.555936 2.28789389,10.7910364 C2.49109271,11.2057561 2.41896754,11.7009232 2.0923237,12.0275671 L1.91201075,12.2085735 C1.63113866,12.4894456 1.63113866,12.9443891 1.91201075,13.2252612 L2.77473885,14.0886828 C3.05561094,14.3688613 3.51055438,14.3688613 3.79142647,14.0886828 L3.96203025,13.918079 C4.29006112,13.5900481 4.78730874,13.5186164 5.20341554,13.7245893 C5.44128993,13.8424862 5.68748645,13.9458194 5.94061809,14.0332019 C6.37475619,14.1836938 6.67088553,14.5845434 6.67088553,15.0436479 L6.67088553,15.2808287 C6.67088553,15.6782107 6.99267479,16 7.38936327,16 L8.61063673,16 C9.00732521,16 9.32911447,15.6782107 9.32911447,15.2808287 L9.32911447,15.0651467 C9.32911447,14.6032682 9.62871137,14.2010316 10.066317,14.0526202 C10.3256903,13.9645442 10.5774349,13.859824 10.8208574,13.7405401 C11.2355771,13.5373413 11.7307442,13.6101599 12.0566946,13.9368038 L12.2085735,14.0886828 C12.4894456,14.3688613 12.9443891,14.3688613 13.2252612,14.0886828 L14.0886828,13.2252612 C14.3688613,12.9443891 14.3688613,12.4894456 14.0886828,12.2085735 L13.9472064,12.0670972 C13.6191756,11.7390664 13.5477439,11.2418187 13.7537168,10.8264054 C13.8757748,10.5802089 13.9825755,10.3249967 14.0720385,10.062156 C14.2211434,9.62663084 14.6226865,9.32911447 15.083178,9.32911447 L15.2808287,9.32911447 C15.6782107,9.32911447 16,9.00732521 16,8.61063673 L16,7.38936327 Z M5.07620745,7.3134488 C5.32088829,6.21037118 6.21100296,5.32075997 7.31357712,5.07607913 C9.50211132,4.59124857 11.4087087,6.497846 10.9238782,8.6863802 C10.6791973,9.78895436 9.78958614,10.679069 8.68650851,10.9237499 C6.49797432,11.4085804 4.59087344,9.501983 5.07620745,7.3134488 Z" id="path-2"></path>
    </defs>
    <g id="Symbols" stroke="none" stroke-width="1" fill="none" fill-rule="evenodd">
        <g id="Icon/Header-buttons/Gear">
            <g id="Group-7">
                <g id="settings">
                    <use fill="currentColor" xlink:href="#path-2"></use>
                    <use fill="url(#linearGradient-1)" xlink:href="#path-2"></use>
                </g>
            </g>
        </g>
    </g>
</svg>