<?xml version="1.0" encoding="UTF-8"?>
<svg width="16px" height="16px" viewBox="0 0 16 16" version="1.1" xmlns="http://www.w3.org/2000/svg" xmlns:xlink="http://www.w3.org/1999/xlink">
    <!-- Generator: Sketch 57.1 (83088) - https://sketch.com -->
    <title>Icon/System/Community</title>
    <desc>Created with Sketch.</desc>
    <defs>
        <linearGradient x1="50%" y1="0%" x2="50%" y2="100%" id="linearGradient-1">
            <stop stop-color="currentColor" stop-opacity="0.85" offset="0%"></stop>
            <stop stop-color="currentColor" offset="100%"></stop>
        </linearGradient>
        <path d="M8.51065344,2.14652373 C8.51065344,3.33223611 7.54913038,4.29375917 6.36412971,4.29375917 C5.17841733,4.29375917 4.21689427,3.33223611 4.21689427,2.14652373 C4.21689427,0.960811352 5.17841733,0 6.36412971,0 C7.54913038,0 8.51065344,0.960811352 8.51065344,2.14652373 L8.51065344,2.14652373 Z M2.94221787,6.09866109 L3.30874961,10.1725012 C3.3372181,10.4863663 3.59414617,10.7304835 3.90872292,10.7432943 L4.17988524,10.75397 C4.39695743,10.7632223 4.57203861,10.9340332 4.58556114,11.1511054 L4.91366042,15.4284952 C4.93857035,15.7509008 5.20759753,16 5.53142654,16 L7.21177884,16 C7.53560785,16 7.80534674,15.7509008 7.82954495,15.4277835 L8.1555091,11.1475468 C8.17045505,10.931898 8.34482452,10.7625106 8.56047329,10.75397 L8.83021218,10.7425826 C9.13980695,10.7297718 9.39246475,10.4892131 9.42022152,10.1803301 L9.78461812,6.09866109 C9.78461812,5.55562475 9.34406832,5.11436324 8.80032027,5.11436324 L3.92722744,5.11436324 C3.38347938,5.11436324 2.94221787,5.55562475 2.94221787,6.09866109 L2.94221787,6.09866109 Z M10.6386727,6.09866109 L10.2707175,10.2557715 C10.2159157,10.8649971 9.79102353,11.364619 9.22734754,11.5347182 C9.09069881,11.5759975 8.96614919,11.7190516 8.95405009,11.8613941 L8.74978871,14.1402963 C8.7255905,14.4100351 8.93839242,14.6420533 9.20884302,14.6420533 L10.4664383,14.6420533 C10.7504115,14.6420533 10.9866999,14.4235577 11.0080512,14.1395845 L11.2941595,10.3838797 C11.307682,10.1945643 11.4607001,10.0465282 11.6500156,10.0386993 L11.886304,10.0287354 C12.158178,10.017348 12.3795205,9.80596949 12.4037187,9.53480717 L12.7239891,5.95347182 C12.7239891,5.47662471 12.3368178,5.09016503 11.8599706,5.09016503 L10.8536097,5.09016503 C10.6301321,5.09016503 10.4735554,5.30866065 10.5440149,5.52075086 C10.6052222,5.70223744 10.6386727,5.89653485 10.6386727,6.09866109 L10.6386727,6.09866109 Z M9.46648281,0.621324674 C9.2365998,0.654775143 9.09781593,0.893910413 9.18037454,1.11098261 C9.52341978,2.00845158 9.40598728,2.95004671 8.91277078,3.72581291 C8.78750945,3.92295716 8.88572572,4.1834438 9.10564477,4.26173213 C10.3924203,4.71722788 11.745385,3.68738045 11.6087363,2.29598327 C11.5069614,1.25546017 10.5447267,0.464748009 9.46648281,0.621324674 L9.46648281,0.621324674 Z M2.17926249,5.52075086 C2.2504337,5.30866065 2.09314532,5.09016503 1.86966772,5.09016503 L0.864018505,5.09016503 C0.386459677,5.09016503 0,5.47662471 0,5.95347182 L0.319558738,9.53480717 C0.34375695,9.80596949 0.565099417,10.017348 0.837685156,10.0287354 L1.07397358,10.0386993 C1.263289,10.0465282 1.4163071,10.1945643 1.42911792,10.3838797 L1.71522619,14.1395845 C1.73657755,14.4235577 1.97286598,14.6420533 2.25755082,14.6420533 L3.51443441,14.6420533 C3.78559673,14.6420533 3.99768694,14.4100351 3.97348872,14.1402963 L3.76993906,11.8613941 C3.75712824,11.7190516 3.63257862,11.5759975 3.4959299,11.5347182 C2.9322539,11.364619 2.50736177,10.8649971 2.45255994,10.2557715 L2.08460478,6.09866109 C2.08460478,5.89653485 2.11805525,5.70223744 2.17926249,5.52075086 L2.17926249,5.52075086 Z M1.11454117,2.29598327 C0.978604155,3.68738045 2.33156888,4.71722788 3.61763267,4.26173213 C3.83826342,4.1834438 3.93576798,3.92295716 3.81050665,3.72581291 C3.31729016,2.95004671 3.19985766,2.00845158 3.5429029,1.11098261 C3.62617321,0.893910413 3.48667764,0.654775143 3.25750634,0.621324674 C2.17926249,0.464748009 1.216316,1.25546017 1.11454117,2.29598327 L1.11454117,2.29598327 Z" id="path-2"></path>
    </defs>
    <g id="Icon/System/Community" stroke="none" stroke-width="1" fill="none" fill-rule="evenodd">
        <g id="Group-24">
            <rect id="Rectangle-2-Copy-3" x="0" y="0" width="16" height="16"></rect>
            <g id="Group-6" transform="translate(2.000000, 0.000000)">
                <g id="group">
                    <use fill="currentColor" xlink:href="#path-2"></use>
                    <use fill="url(#linearGradient-1)" xlink:href="#path-2"></use>
                </g>
            </g>
        </g>
    </g>
</svg>