<svg xmlns="http://www.w3.org/2000/svg" xmlns:xlink="http://www.w3.org/1999/xlink" viewBox="0 0 16 14">
	<g fill="none" fill-rule="evenodd" transform="rotate(90 8.5 7.5)">
		<path d="M5.98 9.532l.57 5.212C6.628 15.458 7.254 16 8 16s1.372-.542 1.45-1.256l.57-5.212C10.115 8.66 10.866 8 11.76 8h2.432c.446 0 .808-.365.808-.814 0-.21-.08-.41-.223-.562L8.877.38C8.416-.109 7.65-.128 7.164.337l-.041.042-5.9 6.245c-.308.326-.295.841.028 1.151.15.145.35.225.557.225H4.24c.894 0 1.645.66 1.74 1.532z" fill="currentColor" />
	</g>
</svg>
