<svg width="80" height="80" viewBox="0 0 80 80" fill="none" xmlns="http://www.w3.org/2000/svg">
<path fill-rule="evenodd" clip-rule="evenodd" d="M6.89142 40.0011C6.89142 21.7142 21.715 6.89125 40.0013 6.89125C58.2863 6.89125 73.1111 21.7144 73.1111 40.0011C73.1111 58.2875 58.2863 73.1098 40.0013 73.1098C21.715 73.1098 6.89142 58.2873 6.89142 40.0011ZM19.3856 40.0011C19.3856 51.3852 28.6209 60.6155 40.0013 60.6155C51.3803 60.6155 60.6167 51.3852 60.6167 40.0011C60.6167 28.6159 51.3803 19.3856 40.0013 19.3856C28.6209 19.3856 19.3856 28.6159 19.3856 40.0011Z" fill="#D7E9FF"/>
<path fill-rule="evenodd" clip-rule="evenodd" d="M6.89142 40.0011C6.89142 21.7142 21.715 6.89125 40.0013 6.89125C58.2863 6.89125 73.1111 21.7144 73.1111 40.0011C73.1111 58.2875 58.2863 73.1098 40.0013 73.1098C21.715 73.1098 6.89142 58.2873 6.89142 40.0011ZM8.1408 40.0013C8.1408 57.5687 22.4336 71.8603 40.0013 71.8603C57.5688 71.8603 71.8616 57.5689 71.8616 40.0013C71.8616 22.4336 57.5689 8.14078 40.0013 8.14078C22.4336 8.14078 8.1408 22.4338 8.1408 40.0013Z" fill="white"/>
<path fill-rule="evenodd" clip-rule="evenodd" d="M18.1361 40.0012C18.1361 27.945 27.945 18.1362 40.0013 18.1362C52.0574 18.1362 61.8663 27.945 61.8663 40.0012C61.8663 52.0575 52.0574 61.865 40.0013 61.865C27.9449 61.865 18.1361 52.0575 18.1361 40.0012ZM19.3856 40.0011C19.3856 51.3852 28.621 60.6155 40.0013 60.6155C51.3803 60.6155 60.6167 51.3852 60.6167 40.0011C60.6167 28.6159 51.3803 19.3856 40.0013 19.3856C28.621 19.3856 19.3856 28.6159 19.3856 40.0011Z" fill="#94C1FF"/>
<path d="M35.627 78.1077C16.9808 78.1077 1.89252 63.0194 1.89252 44.3731V41.8742H4.39142V44.3731C4.39142 61.6381 18.3622 75.6087 35.6272 75.6087H38.1261V78.1077H35.627V78.1077Z" fill="#D7E9FF"/>
<path d="M44.3743 1.89235C63.0205 1.89235 78.1087 16.9806 78.1087 35.6269V38.1258H75.6099V35.6269C75.6099 18.3619 61.6393 4.39126 44.3743 4.39126H41.8754V1.89235H44.3743Z" fill="#D7E9FF"/>
<path d="M78.1088 44.373C78.1088 63.0192 63.0206 78.1075 44.3744 78.1075H41.8755V75.6086H44.3744C61.6394 75.6086 75.61 61.638 75.61 44.373V41.8741H78.1088V44.373Z" fill="#D7E9FF"/>
<path d="M35.6283 1.89359C16.9821 1.89359 1.8938 16.9819 1.8938 35.6281V38.127H4.39271V35.6281C4.39271 18.3631 18.3635 4.3925 35.6285 4.3925H38.1274V1.89359H35.6283Z" fill="#D7E9FF"/>
<path d="M40 0.642975C38.62 0.642975 37.5011 1.76188 37.5011 3.14188V6.41188H42.4988V3.14188C42.4988 1.76188 41.38 0.642975 40 0.642975Z" fill="#5C9EFF"/>
<path d="M40 79.357C41.38 79.357 42.4988 78.2381 42.4988 76.8583V73.5881H37.5011V76.8583C37.5011 78.2381 38.62 79.357 40 79.357Z" fill="#5C9EFF"/>
<path d="M79.357 40C79.357 38.62 78.2381 37.5011 76.8581 37.5011H73.5881V42.4988H76.8581C78.2381 42.4988 79.357 41.38 79.357 40Z" fill="#5C9EFF"/>
<path d="M0.643005 40C0.643005 41.38 1.76191 42.4988 3.14176 42.4988H6.41176V37.5011H3.14176C1.76191 37.5011 0.643005 38.62 0.643005 40Z" fill="#5C9EFF"/>
<path d="M26.8517 8.25672L32.5889 22.1067C37.1692 20.213 42.4708 20.0617 47.4099 22.1067L53.1483 8.25563C44.3828 4.62438 34.9755 4.89157 26.8517 8.25672Z" fill="#94C1FF"/>
<path d="M53.1494 71.7372L47.4122 57.8872C42.8319 59.7809 37.5303 59.9322 32.5913 57.8872L26.8528 71.7383C35.6185 75.3695 45.0258 75.1023 53.1494 71.7372Z" fill="#94C1FF"/>
<path d="M8.26032 53.1458L22.1102 47.4088C20.2164 42.8284 20.0652 37.5267 22.1102 32.5877L8.25907 26.8494C4.62797 35.6148 4.89516 45.0222 8.26032 53.1458Z" fill="#94C1FF"/>
<path d="M71.741 26.8481L57.891 32.5852C59.7847 37.1656 59.936 42.4672 57.891 47.4063L71.7421 53.1445C75.3733 44.3791 75.1061 34.9717 71.741 26.8481Z" fill="#94C1FF"/>
<path d="M31.6359 19.8066L32.5889 22.1066C32.9684 21.9497 33.3589 21.8234 33.748 21.6911C33.9286 21.6289 34.1042 21.5537 34.2884 21.497C34.7961 21.3403 35.3122 21.2139 35.8319 21.0987C35.927 21.078 36.0175 21.0475 36.1125 21.028C37.3839 20.7662 38.6858 20.6356 39.9987 20.635C40 20.635 40 20.635 40.0012 20.635C40.0086 20.635 40.0159 20.6362 40.0233 20.6362C40.6565 20.6369 41.2922 20.6692 41.9278 20.7327C42.0839 20.7486 42.2353 20.7791 42.3915 20.7986C42.8636 20.8572 43.3359 20.9198 43.8069 21.0152C44.0814 21.0702 44.3462 21.1475 44.6159 21.2141C44.9625 21.2994 45.3101 21.3758 45.6555 21.4819C45.9983 21.5867 46.3301 21.718 46.6645 21.8412C46.9134 21.9322 47.1634 22.0047 47.41 22.1067L48.3631 19.8055C45.785 18.7342 42.9628 18.1362 40.0014 18.1362C37.0387 18.1362 34.2153 18.7347 31.6359 19.8066Z" fill="#5C9EFF"/>
<path d="M21.4672 45.598C21.1988 44.7097 21.0085 43.7899 20.8693 42.8539C20.8266 42.5683 20.768 42.2864 20.7388 41.9984C20.7266 41.8813 20.7279 41.7617 20.718 41.6445C20.6729 41.1114 20.6388 40.5781 20.6375 40.0406C20.6375 40.0272 20.635 40.0144 20.635 40.0009C20.635 39.8631 20.6533 39.7289 20.6558 39.5916C20.6655 39.0975 20.6827 38.6027 20.7314 38.1074C20.7558 37.8511 20.8033 37.6022 20.8388 37.3489C20.89 36.9725 20.9364 36.5961 21.011 36.2208C21.0818 35.8689 21.178 35.5278 21.266 35.1831C21.3368 34.9109 21.3941 34.6377 21.4771 34.3663C21.6029 33.9544 21.7566 33.5559 21.9079 33.1564C21.9799 32.9674 22.0324 32.7752 22.1104 32.5872L19.8079 31.6331C18.7354 34.2131 18.1363 37.0378 18.1363 40.0009C18.1363 42.9622 18.7343 45.7856 19.8055 48.3627L22.1104 47.4086C22.0433 47.2475 21.9957 47.0792 21.9335 46.9156C21.7749 46.5008 21.615 46.0884 21.4832 45.6614C21.4769 45.6408 21.4733 45.6188 21.4672 45.598Z" fill="#5C9EFF"/>
<path d="M48.3678 60.1947L47.4124 57.8872C47.376 57.9019 47.338 57.9116 47.3027 57.9263C45.3175 58.7389 43.1675 59.2134 40.92 59.3197C40.6431 59.3344 40.3674 59.3613 40.0891 59.3624C40.0586 59.3624 40.0305 59.3659 40.0013 59.3659C39.6963 59.3659 39.3985 59.3342 39.097 59.3208C38.7847 59.3061 38.4722 59.3025 38.1599 59.2731C37.7402 59.2341 37.3314 59.1633 36.9202 59.0975C36.7055 59.0633 36.4906 59.0414 36.2772 58.9999C35.7586 58.8974 35.2511 58.7656 34.7472 58.6228C34.6399 58.5924 34.5313 58.5716 34.4227 58.5386C33.8125 58.3556 33.216 58.1434 32.6316 57.9017C32.6181 57.8969 32.6047 57.892 32.5913 57.887L31.6347 60.1945C34.2141 61.2669 37.0388 61.8647 40.0013 61.8647C42.965 61.865 45.7885 61.267 48.3678 60.1947Z" fill="#5C9EFF"/>
<path d="M60.1933 31.6309L57.891 32.585C57.9886 32.8198 58.0605 33.0639 58.1483 33.3025C58.2741 33.6411 58.4083 33.9761 58.5144 34.3231C58.5486 34.4361 58.5705 34.5525 58.6022 34.6659C58.8316 35.4645 59.0036 36.285 59.1294 37.1222C59.1732 37.4137 59.2318 37.7023 59.2624 37.9964C59.2794 38.1592 59.2783 38.327 59.2905 38.4912C59.3296 38.9737 59.3626 39.4577 59.3651 39.9444C59.3651 39.9633 59.3676 39.9822 59.3676 40.0011C59.3676 40.1989 59.3444 40.3903 59.3382 40.5867C59.3247 41.0137 59.3151 41.4397 59.2722 41.8691C59.2405 42.2072 59.1807 42.5364 59.1308 42.8697C59.0869 43.1623 59.0552 43.4528 58.9966 43.7456C58.9076 44.202 58.7866 44.6484 58.666 45.0939C58.6196 45.2598 58.5866 45.427 58.5366 45.5928C58.3683 46.1517 58.1693 46.6983 57.9522 47.2339C57.9291 47.2912 57.9144 47.3498 57.8911 47.4061L60.1972 48.3614C61.2685 45.7833 61.8665 42.9622 61.8665 40.0009C61.8661 37.0369 61.2671 34.2117 60.1933 31.6309Z" fill="#5C9EFF"/>
<path d="M52.1941 69.4311C48.4361 70.9941 44.3182 71.8603 40.0013 71.8603C35.6844 71.8603 31.5665 70.9941 27.8083 69.4311L26.853 71.7384C27.9438 72.19 29.0433 72.5803 30.1499 72.9134C30.1755 72.922 30.2012 72.9281 30.2268 72.9355C30.7393 73.0881 31.2518 73.227 31.7666 73.3553C31.8727 73.3822 31.9815 73.4053 32.0876 73.4298C32.5194 73.5323 32.9515 73.6286 33.3833 73.7141C33.581 73.7531 33.781 73.7861 33.9812 73.8214C34.3229 73.8825 34.6657 73.9422 35.0085 73.9936C35.3038 74.0363 35.6002 74.0717 35.8979 74.1059C36.1504 74.1377 36.403 74.1694 36.6557 74.195C37.0388 74.2327 37.4243 74.2583 37.8099 74.2828C37.9857 74.2938 38.1626 74.3097 38.3383 74.3183C38.7862 74.3403 39.2376 74.3488 39.6902 74.3525C39.8146 74.3538 39.9379 74.3598 40.0622 74.3586C40.5088 74.3573 40.9518 74.3427 41.3946 74.3256C41.5362 74.3195 41.6802 74.3183 41.8216 74.3109C42.1413 74.2939 42.4574 74.2645 42.7746 74.2389C46.3571 73.9448 49.8601 73.1006 53.1494 71.7377L52.1941 69.4311Z" fill="#D7E9FF"/>
<path d="M10.569 52.1894C9.00725 48.4325 8.14084 44.3169 8.14084 40.0013C8.14084 35.6838 9.0085 31.5658 10.5715 27.8072L8.26303 26.8513C8.20193 26.9977 8.14709 27.1472 8.0885 27.2947C7.94209 27.662 7.79568 28.0292 7.66272 28.3989C7.60162 28.5691 7.54678 28.7424 7.48818 28.9144C7.36256 29.2834 7.23803 29.6527 7.12459 30.023C7.05865 30.2383 7.00021 30.4567 6.93912 30.6739C6.84881 30.9955 6.75725 31.3163 6.67553 31.6384C6.6035 31.927 6.54006 32.2186 6.47412 32.5097C6.41803 32.7592 6.36068 33.0081 6.31068 33.2577C6.23506 33.6347 6.16912 34.0155 6.10693 34.3967C6.08006 34.5602 6.04959 34.7231 6.02396 34.8866C5.95318 35.3625 5.89334 35.842 5.84084 36.3239C5.8335 36.3959 5.82381 36.468 5.81646 36.5399C5.70193 37.6783 5.64209 38.8331 5.64209 40.0014C5.64209 41.6608 5.76646 43.2909 5.996 44.888C6.40475 47.7091 7.15631 50.4642 8.23615 53.0838C8.24475 53.1045 8.25209 53.1253 8.26053 53.1458L10.569 52.1894Z" fill="#D7E9FF"/>
<path d="M27.8094 10.57C31.5675 9.00766 35.6843 8.14079 40.0011 8.14079C44.3168 8.14079 48.4324 9.00704 52.1891 10.5689L53.1457 8.26094C52.9407 8.17563 52.7321 8.09688 52.5258 8.01579C52.2318 7.90047 51.9389 7.78282 51.6436 7.67657C51.3983 7.58751 51.1482 7.50751 50.8993 7.42407C50.6089 7.32641 50.3185 7.22751 50.0269 7.13782C49.7316 7.04751 49.4313 6.96579 49.1338 6.88344C48.8958 6.81766 48.6578 6.74938 48.4188 6.68891C48.0405 6.59313 47.6586 6.50704 47.2755 6.42422C47.1207 6.39063 46.9657 6.35407 46.8094 6.32235C46.33 6.22532 45.8468 6.13938 45.36 6.06251C45.3027 6.05329 45.2453 6.04235 45.1878 6.03376C43.4955 5.77641 41.7643 5.64204 40.0011 5.64204C37.6402 5.64204 35.3328 5.88188 33.1036 6.33813C32.9328 6.37297 32.7644 6.41751 32.5949 6.45469C32.2288 6.53516 31.8639 6.61563 31.5028 6.70782C31.171 6.79266 30.8416 6.89016 30.5121 6.98532C30.3108 7.04329 30.1058 7.09579 29.9057 7.15797C29.5872 7.25563 29.2736 7.3661 28.9588 7.47282C28.7439 7.5461 28.5268 7.61438 28.3133 7.69188C28.0607 7.78344 27.8118 7.88454 27.5616 7.98219C27.3249 8.07438 27.0882 8.16454 26.8539 8.26157L27.8094 10.57Z" fill="#D7E9FF"/>
<path d="M74.0139 35.1664C73.6186 32.4089 72.8925 29.7167 71.8566 27.1483C71.8163 27.0489 71.7798 26.9481 71.7383 26.8494L69.4297 27.8053C70.9941 31.5639 71.8614 35.6827 71.8614 40.0013C71.8614 44.3169 70.9952 48.4313 69.4333 52.1881L71.7419 53.1445C71.7431 53.1433 71.7431 53.1409 71.7431 53.1397C71.9677 52.5992 72.1761 52.0552 72.3714 51.5097C72.38 51.4841 72.3884 51.4572 72.397 51.4316C72.5788 50.9191 72.747 50.4042 72.9033 49.888C72.9302 49.8002 72.9533 49.7111 72.9789 49.622C73.1108 49.1755 73.2339 48.7277 73.3463 48.2798C73.3888 48.103 73.4278 47.9236 73.4694 47.7455C73.5524 47.3867 73.6342 47.028 73.705 46.6692C73.76 46.3911 73.8074 46.1105 73.855 45.8297C73.9002 45.5711 73.9466 45.31 73.9856 45.0502C74.043 44.6622 74.0905 44.2705 74.1356 43.8788C74.1527 43.7214 74.1747 43.5652 74.1906 43.4078C74.2394 42.9136 74.2761 42.4158 74.3042 41.9155C74.3078 41.8544 74.3128 41.7923 74.3164 41.73C74.3445 41.1577 74.3603 40.5811 74.3603 40.0011C74.3605 38.3602 74.2372 36.7472 74.0139 35.1664Z" fill="#D7E9FF"/>
<path d="M25.6341 70.4635C25.5425 70.4635 25.4499 70.4427 25.3633 70.4013C18.5145 67.0983 12.9214 61.5089 9.61127 54.6625C9.46127 54.3514 9.59174 53.978 9.90158 53.8278C10.2127 53.6803 10.5874 53.807 10.7361 54.1183C13.9231 60.7119 19.3113 66.0952 25.905 69.2761C26.2161 69.425 26.3467 69.7985 26.1966 70.1108C26.0891 70.3328 25.8658 70.4635 25.6341 70.4635Z" fill="#116FFF"/>
<path d="M54.3844 70.4536C54.1525 70.4536 53.9292 70.323 53.8217 70.1009C53.6717 69.7898 53.8024 69.4164 54.1121 69.2663C60.7022 66.0817 66.0841 60.7009 69.2675 54.1122C69.4175 53.7998 69.7922 53.6717 70.1021 53.8205C70.4121 53.9706 70.5425 54.3441 70.3925 54.6539C67.0872 61.4966 61.4988 67.0848 54.6563 70.3914C54.5685 70.433 54.4758 70.4536 54.3844 70.4536Z" fill="#116FFF"/>
<path d="M69.7789 26.1355C69.5481 26.1355 69.325 26.0067 69.2175 25.7847C66.0256 19.2367 60.6545 13.8881 54.0938 10.7237C53.7828 10.5742 53.6522 10.2009 53.8024 9.88969C53.9524 9.57859 54.3306 9.44938 54.6356 9.59875C61.4488 12.8839 67.0263 18.4381 70.3402 25.2367C70.4914 25.5473 70.3633 25.9212 70.0522 26.072C69.9642 26.1155 69.8716 26.1355 69.7789 26.1355Z" fill="#116FFF"/>
<path d="M10.1698 26.2403C10.0784 26.2403 9.98561 26.2202 9.8978 26.1781C9.58796 26.0281 9.45733 25.6547 9.60749 25.3442C12.9153 18.4967 18.5097 12.9055 25.3595 9.6C25.6706 9.4525 26.0453 9.58047 26.1941 9.89094C26.3442 10.2016 26.2136 10.5748 25.9037 10.725C19.3053 13.9089 13.9183 19.2934 10.7325 25.887C10.625 26.1105 10.4017 26.2403 10.1698 26.2403Z" fill="#116FFF"/>
<path d="M58.251 31.0319C58.0265 31.0319 57.8105 30.9105 57.6983 30.6981C55.8023 27.1 52.8969 24.1947 49.294 22.298C48.989 22.1375 48.8718 21.7594 49.0329 21.4544C49.1951 21.1486 49.5708 21.0328 49.8771 21.1927C53.7035 23.2077 56.7904 26.2934 58.8037 30.1163C58.9648 30.4213 58.8476 30.7989 58.5426 30.9599C58.4499 31.0088 58.3498 31.0319 58.251 31.0319Z" fill="#116FFF"/>
<path d="M21.7454 31.0356C21.6466 31.0356 21.5477 31.0125 21.4538 30.9636C21.1486 30.8031 21.0316 30.425 21.1927 30.12C23.2072 26.293 26.2941 23.2059 30.1205 21.1928C30.4232 21.033 30.8013 21.1489 30.9636 21.4545C31.1247 21.7602 31.0075 22.1378 30.7013 22.2981C27.1007 24.1936 24.1941 27.0995 22.2982 30.7019C22.1858 30.9142 21.9699 31.0356 21.7454 31.0356Z" fill="#116FFF"/>
<path d="M30.4108 58.8769C30.3121 58.8769 30.2132 58.8537 30.1193 58.8048C26.2966 56.7903 23.2096 53.7045 21.195 49.8781C21.0341 49.5731 21.1511 49.1961 21.4561 49.035C21.7588 48.8753 22.1394 48.9911 22.3005 49.2973C24.1979 52.8967 27.103 55.8031 30.7024 57.6992C31.0074 57.8602 31.1246 58.2384 30.9635 58.5434C30.8513 58.7561 30.6354 58.8769 30.4108 58.8769Z" fill="#116FFF"/>
<path d="M49.5879 58.8758C49.3646 58.8758 49.1474 58.7538 49.0352 58.5413C48.8741 58.2363 48.9913 57.8592 49.2963 57.6981C52.8957 55.802 55.801 52.8967 57.6982 49.2974C57.8604 48.9911 58.2411 48.8777 58.5424 49.0363C58.8474 49.1972 58.9646 49.5755 58.8035 49.8805C56.7879 53.7045 53.701 56.7891 49.8794 58.8034C49.7869 58.8525 49.6868 58.8758 49.5879 58.8758Z" fill="#116FFF"/>
<path d="M42.4988 3.76656C42.1535 3.76656 41.8741 3.48703 41.8741 3.14172C41.8741 2.10828 41.0335 1.2675 40 1.2675C38.9666 1.2675 38.1258 2.10828 38.1258 3.14172C38.1258 3.48703 37.8463 3.76656 37.501 3.76656C37.1557 3.76656 36.8763 3.48703 36.8763 3.14172C36.8763 1.41953 38.2771 0.0181274 39.9999 0.0181274C41.7227 0.0181274 43.1235 1.41953 43.1235 3.14172C43.1236 3.48719 42.8441 3.76656 42.4988 3.76656Z" fill="#116FFF"/>
<path d="M3.14175 43.1236C1.41894 43.1236 0.0183105 41.7216 0.0183105 39.9987C0.0183105 38.2766 1.41894 36.8752 3.14175 36.8752C3.48706 36.8752 3.76659 37.1545 3.76659 37.4998C3.76659 37.8452 3.48706 38.1247 3.14175 38.1247C2.10831 38.1247 1.26769 38.9653 1.26769 39.9987C1.26769 41.0328 2.10831 41.8741 3.14175 41.8741C3.48706 41.8741 3.76659 42.1536 3.76659 42.4987C3.76659 42.8442 3.48706 43.1236 3.14175 43.1236Z" fill="#116FFF"/>
<path d="M1.89239 36.2517C1.54708 36.2517 1.2677 35.9723 1.2677 35.627C1.2677 16.6813 16.6818 1.26781 35.6269 1.26781C35.9722 1.26781 36.2516 1.54735 36.2516 1.8925C36.2516 2.23781 35.9722 2.51735 35.6269 2.51735C17.3699 2.51735 2.51708 17.3702 2.51708 35.6272C2.51708 35.9723 2.2377 36.2517 1.89239 36.2517Z" fill="#116FFF"/>
<path d="M4.39129 36.2517C4.04613 36.2517 3.7666 35.9723 3.7666 35.627C3.7666 18.0594 18.0594 3.76672 35.6271 3.76672C35.9724 3.76672 36.2518 4.0461 36.2518 4.39141C36.2518 4.73672 35.9724 5.0161 35.6271 5.0161C18.7475 5.0161 5.01613 18.7483 5.01613 35.627C5.01613 35.9723 4.7366 36.2517 4.39129 36.2517Z" fill="#116FFF"/>
<path d="M27.5424 6.08125C27.2666 6.08125 27.0141 5.89688 26.9385 5.61812L26.2917 3.20344C26.2027 2.87031 26.4003 2.5275 26.7345 2.43844C27.0664 2.34937 27.4092 2.54703 27.4995 2.88016L28.1463 5.29484C28.2353 5.62797 28.0378 5.97078 27.7035 6.05984C27.6497 6.07453 27.596 6.08125 27.5424 6.08125Z" fill="#116FFF"/>
<path d="M20.0092 9.20234C19.7933 9.20234 19.5833 9.09016 19.4686 8.88984L18.2192 6.72422C18.0461 6.42531 18.1485 6.04344 18.4474 5.87078C18.7463 5.6975 19.1281 5.80062 19.3002 6.09953L20.5496 8.26516C20.7228 8.56406 20.6203 8.94594 20.3214 9.11875C20.2227 9.17547 20.1153 9.20234 20.0092 9.20234Z" fill="#116FFF"/>
<path d="M13.5399 14.1659C13.3802 14.1659 13.2202 14.105 13.0981 13.983L11.3314 12.2148C11.0874 11.9708 11.0874 11.5748 11.3314 11.3314C11.5755 11.0873 11.9708 11.0873 12.2147 11.3314L13.9816 13.0994C14.2256 13.3434 14.2256 13.7394 13.9816 13.9827C13.8595 14.1048 13.6999 14.1659 13.5399 14.1659Z" fill="#116FFF"/>
<path d="M8.57645 20.635C8.4702 20.635 8.36301 20.6081 8.2641 20.5514L6.09957 19.3008C5.80051 19.1283 5.69817 18.7456 5.87145 18.4474C6.04473 18.1478 6.42535 18.0477 6.72426 18.2184L8.88879 19.4691C9.1877 19.6417 9.2902 20.0242 9.11692 20.3225C9.00098 20.5234 8.79113 20.635 8.57645 20.635Z" fill="#116FFF"/>
<path d="M5.45643 28.1683C5.40268 28.1683 5.34909 28.1616 5.29409 28.1469L2.8794 27.4991C2.54628 27.4094 2.34878 27.0672 2.43768 26.7341C2.52799 26.4009 2.86831 26.2052 3.20393 26.2924L5.61862 26.9402C5.95174 27.0299 6.14924 27.3722 6.06034 27.7052C5.98487 27.9847 5.73221 28.1683 5.45643 28.1683Z" fill="#116FFF"/>
<path d="M76.8581 43.1236C76.5128 43.1236 76.2335 42.8442 76.2335 42.4988C76.2335 42.1536 76.5128 41.8741 76.8581 41.8741C77.8916 41.8741 78.7322 41.0334 78.7322 40C78.7322 38.9666 77.8916 38.1259 76.8581 38.1259C76.5128 38.1259 76.2335 37.8464 76.2335 37.5011C76.2335 37.1558 76.5128 36.8764 76.8581 36.8764C78.581 36.8764 79.9817 38.2777 79.9817 40C79.9817 41.7228 78.581 43.1236 76.8581 43.1236Z" fill="#116FFF"/>
<path d="M78.1075 36.2517C77.7624 36.2517 77.4828 35.9724 77.4828 35.627C77.4828 17.37 62.63 2.51719 44.3732 2.51719C44.0278 2.51719 43.7485 2.23766 43.7485 1.89235C43.7485 1.54719 44.0278 1.26766 44.3732 1.26766C63.3183 1.26766 78.7322 16.6811 78.7322 35.6269C78.7322 35.9724 78.453 36.2517 78.1075 36.2517Z" fill="#116FFF"/>
<path d="M75.6088 36.2517C75.2635 36.2517 74.9841 35.9723 74.9841 35.627C74.9841 18.7483 61.2525 5.0161 44.3732 5.0161C44.0278 5.0161 43.7485 4.73672 43.7485 4.39141C43.7485 4.0461 44.0278 3.76672 44.3732 3.76672C61.9408 3.76672 76.2335 18.0595 76.2335 35.627C76.2335 35.9723 75.9539 36.2517 75.6088 36.2517Z" fill="#116FFF"/>
<path d="M74.5435 28.167C74.2677 28.167 74.0152 27.9828 73.9396 27.7041C73.8505 27.3709 74.0482 27.0281 74.3825 26.9391L76.7971 26.2923C77.1266 26.2039 77.4718 26.4009 77.5621 26.7341C77.6511 27.0672 77.4535 27.41 77.1193 27.4991L74.7046 28.1458C74.651 28.1603 74.5972 28.167 74.5435 28.167Z" fill="#116FFF"/>
<path d="M71.4235 20.6339C71.2088 20.6339 70.9977 20.5217 70.883 20.3216C70.7099 20.0227 70.8122 19.6408 71.1113 19.4681L73.2758 18.2186C73.5722 18.0461 73.9566 18.1484 74.1286 18.4475C74.3019 18.7464 74.1994 19.1283 73.9005 19.3009L71.736 20.5505C71.6372 20.607 71.5297 20.6339 71.4235 20.6339Z" fill="#116FFF"/>
<path d="M66.4589 14.1647C66.2991 14.1647 66.1391 14.1038 66.0172 13.9817C65.7732 13.7377 65.7732 13.3417 66.0172 13.0984L67.7852 11.3316C68.0292 11.0875 68.4246 11.0875 68.6685 11.3316C68.9124 11.5756 68.9125 11.9716 68.6685 12.215L66.9005 13.9817C66.7785 14.1038 66.6186 14.1647 66.4589 14.1647Z" fill="#116FFF"/>
<path d="M59.9897 9.2011C59.8835 9.2011 59.7763 9.17423 59.6774 9.11751C59.3785 8.94485 59.276 8.56219 59.4491 8.26391L60.6999 6.09938C60.873 5.80032 61.2551 5.70032 61.5527 5.87063C61.8516 6.04329 61.9541 6.42579 61.781 6.72407L60.5302 8.8886C60.4143 9.08954 60.2044 9.2011 59.9897 9.2011Z" fill="#116FFF"/>
<path d="M52.4566 6.08126C52.4029 6.08126 52.3491 6.07454 52.2943 6.05985C51.9611 5.97016 51.7636 5.62782 51.8525 5.29485L52.5004 2.88016C52.5907 2.54704 52.9324 2.35063 53.2666 2.43845C53.5997 2.52813 53.7974 2.87032 53.7083 3.20345L53.0605 5.61813C52.9849 5.89751 52.7321 6.08126 52.4566 6.08126Z" fill="#116FFF"/>
<path d="M40.0013 79.9817C38.2785 79.9817 36.8777 78.5809 36.8777 76.8583C36.8777 76.5128 37.1571 76.2334 37.5024 76.2334C37.8477 76.2334 38.1272 76.5128 38.1272 76.8583C38.1272 77.8916 38.9678 78.7324 40.0014 78.7324C41.035 78.7324 41.8755 77.8916 41.8755 76.8583C41.8755 76.5128 42.1549 76.2334 42.5002 76.2334C42.8455 76.2334 43.125 76.5128 43.125 76.8583C43.1249 78.5809 41.7241 79.9817 40.0013 79.9817Z" fill="#116FFF"/>
<path d="M44.3743 78.7324C44.0289 78.7324 43.7496 78.453 43.7496 78.1077C43.7496 77.7624 44.0289 77.483 44.3743 77.483C62.6313 77.483 77.4839 62.63 77.4839 44.3731C77.4839 44.0278 77.7635 43.7484 78.1086 43.7484C78.4541 43.7484 78.7333 44.0278 78.7333 44.3731C78.7335 63.3194 63.3194 78.7324 44.3743 78.7324Z" fill="#116FFF"/>
<path d="M44.3743 76.2334C44.0289 76.2334 43.7496 75.9541 43.7496 75.6088C43.7496 75.2634 44.0289 74.9841 44.3743 74.9841C61.2536 74.9841 74.9852 61.2525 74.9852 44.3731C74.9852 44.0278 75.2646 43.7484 75.6099 43.7484C75.9552 43.7484 76.2346 44.0278 76.2346 44.3731C76.2346 61.9406 61.9419 76.2334 44.3743 76.2334Z" fill="#116FFF"/>
<path d="M53.1056 77.5828C52.8297 77.5828 52.5772 77.3986 52.5016 77.1192L51.8549 74.7033C51.7659 74.3702 51.9634 74.0273 52.2978 73.9394C52.6345 73.8466 52.9725 74.0492 53.0628 74.3811L53.7095 76.797C53.7986 77.1302 53.6009 77.473 53.2666 77.5608C53.2128 77.5755 53.158 77.5828 53.1056 77.5828Z" fill="#116FFF"/>
<path d="M61.2414 74.213C61.0255 74.213 60.8155 74.1006 60.701 73.9005L59.4514 71.7348C59.2783 71.4359 59.3808 71.0541 59.6797 70.882C59.9786 70.7088 60.3618 70.8113 60.5325 71.1102L61.7821 73.2758C61.9552 73.5747 61.8527 73.9566 61.5538 74.13C61.455 74.1861 61.3477 74.213 61.2414 74.213Z" fill="#116FFF"/>
<path d="M68.228 68.8516C68.0682 68.8516 67.9083 68.7905 67.7865 68.6684L66.0196 66.8992C65.7755 66.6552 65.7755 66.2598 66.0196 66.0159C66.2637 65.772 66.659 65.7719 66.9029 66.0159L68.6698 67.7852C68.9138 68.0292 68.9138 68.4245 68.6698 68.6684C68.5477 68.7906 68.388 68.8516 68.228 68.8516Z" fill="#116FFF"/>
<path d="M73.5894 61.865C73.4832 61.865 73.3747 61.8381 73.2771 61.781L71.1126 60.5289C70.8135 60.3569 70.7112 59.9738 70.8843 59.6761C71.0576 59.376 71.443 59.2758 71.7372 59.448L73.9018 60.6999C74.2007 60.872 74.3032 61.255 74.1299 61.5528C74.014 61.7528 73.8043 61.865 73.5894 61.865Z" fill="#116FFF"/>
<path d="M76.9594 53.7291C76.9056 53.7291 76.8519 53.7217 76.797 53.707L74.3825 53.058C74.0494 52.9689 73.8517 52.6259 73.942 52.293C74.0311 51.9598 74.3716 51.7623 74.707 51.8525L77.1217 52.5016C77.4547 52.5906 77.6524 52.9336 77.562 53.2666C77.4877 53.5461 77.2352 53.7291 76.9594 53.7291Z" fill="#116FFF"/>
<path d="M35.6283 78.7324C16.6832 78.7324 1.2691 63.3194 1.2691 44.3731C1.2691 44.0278 1.54848 43.7484 1.89379 43.7484C2.2391 43.7484 2.51848 44.0278 2.51848 44.3731C2.51848 62.6302 17.3714 77.483 35.6283 77.483C35.9736 77.483 36.253 77.7624 36.253 78.1077C36.253 78.453 35.9735 78.7324 35.6283 78.7324Z" fill="#116FFF"/>
<path d="M35.6284 76.2334C18.0607 76.2334 3.76788 61.9406 3.76788 44.3731C3.76788 44.0278 4.04741 43.7484 4.39257 43.7484C4.73788 43.7484 5.01741 44.0278 5.01741 44.3731C5.01741 61.2525 18.7488 74.9841 35.6284 74.9841C35.9737 74.9841 36.253 75.2634 36.253 75.6088C36.253 75.9541 35.9735 76.2334 35.6284 76.2334Z" fill="#116FFF"/>
<path d="M3.0432 53.7291C2.76742 53.7291 2.51476 53.5461 2.43914 53.2653C2.35008 52.9334 2.54773 52.5894 2.88086 52.5014L5.2943 51.8547C5.63101 51.7645 5.97023 51.9622 6.06055 52.2964C6.14961 52.6283 5.95195 52.9723 5.61883 53.0603L3.20539 53.707C3.15039 53.7217 3.0968 53.7291 3.0432 53.7291Z" fill="#116FFF"/>
<path d="M6.41303 61.865C6.19819 61.865 5.98725 61.7528 5.87256 61.5528C5.69944 61.2538 5.80178 60.872 6.10069 60.6986L8.26522 59.4492C8.56288 59.2783 8.946 59.3784 9.11803 59.6786C9.29131 59.9775 9.18881 60.3594 8.88991 60.5327L6.72538 61.7822C6.62663 61.8381 6.51928 61.865 6.41303 61.865Z" fill="#116FFF"/>
<path d="M11.7744 68.8516C11.6146 68.8516 11.4547 68.7905 11.3327 68.6684C11.0886 68.4244 11.0886 68.0291 11.3327 67.7852L13.0994 66.0183C13.3435 65.7742 13.7388 65.7742 13.9829 66.0183C14.2269 66.2623 14.2269 66.6577 13.9829 66.9016L12.216 68.6684C12.0941 68.7906 11.9343 68.8516 11.7744 68.8516Z" fill="#116FFF"/>
<path d="M18.761 74.213C18.6549 74.213 18.5474 74.1861 18.4486 74.13C18.1496 73.9567 18.0472 73.5747 18.2205 73.2758L19.4699 71.1113C19.6421 70.8136 20.0252 70.7109 20.3228 70.8819C20.6218 71.055 20.7243 71.437 20.551 71.7359L19.3016 73.9005C19.1868 74.1006 18.9757 74.213 18.761 74.213Z" fill="#116FFF"/>
<path d="M26.8969 77.5828C26.8444 77.5828 26.7896 77.5755 26.7358 77.5608C26.4015 77.473 26.2038 77.1302 26.293 76.797L26.9397 74.3811C27.0301 74.0492 27.3693 73.8466 27.7047 73.9394C28.0391 74.0272 28.2366 74.3702 28.1476 74.7033L27.5008 77.1192C27.4252 77.3988 27.1726 77.5828 26.8969 77.5828Z" fill="#116FFF"/>
<path d="M37.5011 5.0161C37.1558 5.0161 36.8764 4.73672 36.8764 4.39141V3.14188C36.8764 2.79672 37.1558 2.51719 37.5011 2.51719C37.8464 2.51719 38.1259 2.79672 38.1259 3.14188V4.39141C38.1258 4.73656 37.8464 5.0161 37.5011 5.0161Z" fill="#116FFF"/>
<path d="M42.4988 5.0161C42.1535 5.0161 41.8741 4.73672 41.8741 4.39141V3.14188C41.8741 2.79672 42.1535 2.51719 42.4988 2.51719C42.8441 2.51719 43.1236 2.79672 43.1236 3.14188V4.39141C43.1236 4.73656 42.8441 5.0161 42.4988 5.0161Z" fill="#116FFF"/>
<path d="M4.39252 43.1236H3.1419C2.79674 43.1236 2.51721 42.8442 2.51721 42.4988C2.51721 42.1536 2.79674 41.8741 3.1419 41.8741H4.39252C4.73784 41.8741 5.01737 42.1536 5.01737 42.4988C5.01721 42.8442 4.73784 43.1236 4.39252 43.1236Z" fill="#116FFF"/>
<path d="M4.39252 38.1247H3.1419C2.79674 38.1247 2.51721 37.8452 2.51721 37.4998C2.51721 37.1545 2.79674 36.8752 3.1419 36.8752H4.39252C4.73784 36.8752 5.01737 37.1545 5.01737 37.4998C5.01737 37.8452 4.73784 38.1247 4.39252 38.1247Z" fill="#116FFF"/>
<path d="M76.8582 38.1259H75.6088C75.2635 38.1259 74.9841 37.8464 74.9841 37.5011C74.9841 37.1558 75.2635 36.8764 75.6088 36.8764H76.8582C77.2035 36.8764 77.4829 37.1558 77.4829 37.5011C77.4829 37.8464 77.2035 38.1259 76.8582 38.1259Z" fill="#116FFF"/>
<path d="M76.8582 43.1236H75.61C75.2647 43.1236 74.9854 42.8442 74.9854 42.4988C74.9854 42.1536 75.2647 41.8741 75.61 41.8741H76.8582C77.2035 41.8741 77.4828 42.1536 77.4828 42.4988C77.4828 42.8442 77.2035 43.1236 76.8582 43.1236Z" fill="#116FFF"/>
<path d="M42.5001 77.483C42.1547 77.483 41.8754 77.2034 41.8754 76.8583V75.6088C41.8754 75.2634 42.1547 74.9841 42.5001 74.9841C42.8454 74.9841 43.1249 75.2634 43.1249 75.6088V76.8583C43.1249 77.2034 42.8454 77.483 42.5001 77.483Z" fill="#116FFF"/>
<path d="M37.5024 77.483C37.1571 77.483 36.8777 77.2034 36.8777 76.8583V75.6088C36.8777 75.2634 37.1571 74.9841 37.5024 74.9841C37.8477 74.9841 38.1272 75.2634 38.1272 75.6088V76.8583C38.1271 77.2034 37.8477 77.483 37.5024 77.483Z" fill="#116FFF"/>
<path d="M26.8529 8.88141C26.6077 8.88141 26.3758 8.73625 26.2758 8.49578C26.144 8.17672 26.2954 7.81125 26.6138 7.67953C35.2476 4.10328 44.7572 4.10203 53.3885 7.67828C53.7071 7.81 53.8583 8.17547 53.7266 8.49453C53.5935 8.81359 53.2251 8.96422 52.9102 8.8325C44.5876 5.38375 35.4169 5.385 27.0919 8.83375C27.0141 8.86625 26.9322 8.88141 26.8529 8.88141Z" fill="#116FFF"/>
<path d="M39.9988 75.0023C35.4635 75.0023 30.9294 74.108 26.6138 72.3205C26.2954 72.1888 26.144 71.8225 26.2758 71.5042C26.4088 71.1844 26.7749 71.0356 27.0921 71.1661C35.4147 74.6155 44.5829 74.6155 52.9104 71.1661C53.2301 71.0344 53.5949 71.1869 53.7268 71.5042C53.8585 71.8238 53.7072 72.1888 53.3886 72.3205C49.0719 74.108 44.5341 75.0023 39.9988 75.0023Z" fill="#116FFF"/>
<path d="M32.5901 22.7313C32.3449 22.7313 32.1118 22.5859 32.013 22.345C31.8811 22.0266 32.0326 21.6611 32.351 21.5294C37.2877 19.4881 42.7208 19.4881 47.6504 21.5294C47.9688 21.6611 48.1201 22.0266 47.9883 22.3456C47.8552 22.6641 47.4916 22.8166 47.1719 22.6836C42.5513 20.7698 37.4547 20.7711 32.8291 22.6836C32.7511 22.7161 32.6694 22.7313 32.5901 22.7313Z" fill="#116FFF"/>
<path d="M39.9927 59.9994C37.4035 59.9994 34.8143 59.4894 32.351 58.4694C32.0326 58.3375 31.8811 57.9727 32.013 57.653C32.146 57.3358 32.5096 57.1819 32.8293 57.315C37.4513 59.2294 42.5465 59.2245 47.1733 57.3102C47.493 57.1783 47.8579 57.3309 47.9897 57.6481C48.1215 57.9678 47.9702 58.3327 47.6518 58.4645C45.1819 59.4883 42.5868 59.9994 39.9927 59.9994Z" fill="#116FFF"/>
<path d="M47.4112 22.7313C47.3307 22.7313 47.2502 22.7159 47.1721 22.6836C46.8537 22.5517 46.7024 22.1864 46.8341 21.8673L52.5726 8.01625C52.7057 7.69657 53.0729 7.54766 53.3888 7.67828C53.7074 7.81 53.8587 8.17547 53.7269 8.49453L47.9885 22.3456C47.8882 22.5861 47.6565 22.7313 47.4112 22.7313Z" fill="#116FFF"/>
<path d="M26.8529 72.368C26.7736 72.368 26.6919 72.3533 26.6138 72.3203C26.2954 72.1886 26.144 71.8236 26.2758 71.5041L32.013 57.653C32.146 57.3358 32.5096 57.1819 32.8293 57.315C33.1477 57.4469 33.2991 57.8116 33.1672 58.1314L27.4302 71.9824C27.3301 72.2228 27.0982 72.368 26.8529 72.368Z" fill="#116FFF"/>
<path d="M32.5901 22.7312C32.3449 22.7312 32.113 22.5859 32.013 22.3456L26.2758 8.49578C26.144 8.17672 26.2954 7.81125 26.6138 7.67953C26.936 7.54844 27.2983 7.69969 27.4301 8.0175L33.1671 21.8673C33.299 22.1864 33.1476 22.5517 32.8291 22.6836C32.7511 22.7161 32.6694 22.7312 32.5901 22.7312Z" fill="#116FFF"/>
<path d="M53.1494 72.368C52.9042 72.368 52.6724 72.2227 52.5724 71.9823L46.8339 58.1302C46.7022 57.8116 46.8535 57.4456 47.1719 57.3137C47.4928 57.1831 47.8564 57.3333 47.9883 57.6517L53.7267 71.5041C53.8585 71.8236 53.7072 72.1886 53.3886 72.3203C53.3107 72.3534 53.2288 72.368 53.1494 72.368Z" fill="#116FFF"/>
<path d="M8.25801 53.773C8.01286 53.773 7.78098 53.6277 7.68098 53.3873C4.10473 44.7536 4.10348 35.2437 7.67973 26.6112C7.8127 26.2922 8.17864 26.1416 8.49598 26.2733C8.81442 26.4052 8.96583 26.7706 8.83395 27.0897C5.38583 35.4134 5.38583 44.5828 8.8352 52.9091C8.96708 53.2287 8.81567 53.5936 8.49723 53.7255C8.41895 53.7584 8.33723 53.773 8.25801 53.773Z" fill="#116FFF"/>
<path d="M71.7446 53.773C71.6639 53.773 71.5835 53.7583 71.5053 53.7253C71.1869 53.5934 71.0357 53.2273 71.1674 52.9089C74.6155 44.5862 74.6155 35.417 71.1674 27.0895C71.0357 26.7705 71.1869 26.405 71.5053 26.2731C71.8275 26.1427 72.1899 26.2939 72.3217 26.6111C75.898 35.2472 75.898 44.7559 72.3217 53.3872C72.2216 53.6278 71.9897 53.773 71.7446 53.773Z" fill="#116FFF"/>
<path d="M22.1078 48.0359C21.8625 48.0359 21.6295 47.8906 21.5306 47.6503C19.4894 42.7136 19.4894 37.2803 21.5306 32.3509C21.6638 32.0331 22.0274 31.8823 22.347 32.013C22.6655 32.1447 22.8167 32.5101 22.685 32.8292C20.7717 37.4506 20.7717 42.5439 22.685 47.1719C22.8167 47.4917 22.6655 47.8564 22.347 47.9883C22.2689 48.0212 22.187 48.0359 22.1078 48.0359Z" fill="#116FFF"/>
<path d="M57.8935 48.0359C57.8141 48.0359 57.7325 48.0212 57.6544 47.9883C57.336 47.8564 57.1846 47.4917 57.3164 47.1719C59.2296 42.55 59.2283 37.4548 57.3116 32.8267C57.1797 32.5077 57.3311 32.1422 57.6496 32.0105C57.9718 31.8805 58.3341 32.0312 58.466 32.3484C60.5108 37.2845 60.5121 42.7184 58.4707 47.6503C58.3705 47.8906 58.1386 48.0359 57.8935 48.0359Z" fill="#116FFF"/>
<path d="M22.1078 33.2148C22.0274 33.2148 21.9467 33.1995 21.8686 33.1672L8.01767 27.4277C7.69924 27.2958 7.54783 26.9297 7.67971 26.6112C7.81267 26.2922 8.17861 26.1416 8.49596 26.2733L22.3471 32.0128C22.6655 32.1445 22.8167 32.5106 22.685 32.8291C22.5849 33.0697 22.3531 33.2148 22.1078 33.2148Z" fill="#116FFF"/>
<path d="M71.7445 53.773C71.6639 53.773 71.5835 53.7583 71.5053 53.7253L57.6544 47.9881C57.336 47.8562 57.1845 47.4916 57.3164 47.1717C57.4494 46.8522 57.8153 46.7033 58.1327 46.8339L71.9838 52.5709C72.3022 52.7028 72.4536 53.0676 72.3217 53.3873C72.2216 53.6278 71.9897 53.773 71.7445 53.773Z" fill="#116FFF"/>
<path d="M8.25802 53.773C8.01286 53.773 7.78099 53.6277 7.68099 53.3873C7.54911 53.0677 7.70052 52.7028 8.01896 52.5709L21.8688 46.8339C22.1897 46.7033 22.5533 46.8547 22.6852 47.1717C22.8169 47.4916 22.6657 47.8563 22.3472 47.9881L8.49724 53.7253C8.41896 53.7584 8.33724 53.773 8.25802 53.773Z" fill="#116FFF"/>
<path d="M57.8922 33.2148C57.6471 33.2148 57.415 33.0697 57.3152 32.8292C57.1833 32.5108 57.3347 32.1447 57.6532 32.013L71.5054 26.2734C71.8275 26.143 72.1899 26.2942 72.3218 26.6114C72.4536 26.9298 72.3022 27.2959 71.9838 27.4278L58.1313 33.1672C58.0532 33.1995 57.9716 33.2148 57.8922 33.2148Z" fill="#116FFF"/>
</svg>
