<svg xmlns="http://www.w3.org/2000/svg" xmlns:xlink="http://www.w3.org/1999/xlink" viewBox="0 0 16 16">
    <g fill="none" fill-rule="evenodd">
                        <path d="M0 0H16V16H0z" transform="translate(-24 -237) translate(0 74) translate(24 35) translate(0 128)"/>
                        <g transform="translate(-24 -237) translate(0 74) translate(24 35) translate(0 128)">
        <path d="M13 0c1.82 0 3 1.18 3 3v10c0 1.82-1.18 3-3 3H3c-1.82 0-3-1.18-3-3V3c0-1.82 1.18-3 3-3h10zm-.95 4.14h-8.1c-1.213 0-2 .787-2 2v5.89c0 1.213.787 2 2 2h8.1c1.213 0 2-.787 2-2V6.14c0-1.213-.787-2-2-2zm-7.245 6.397c-.205.196-.537.196-.742 0-.205-.196-.205-.515 0-.71l1.19-1.14c.107-.102.107-.269 0-.371l-1.19-1.139c-.205-.196-.205-.514 0-.71.205-.196.537-.196.742 0l1.933 1.849c.107.102.107.27 0 .371l-1.933 1.85m7.122-2.04c0 .401-.218.728-.486.728H8.759c-.269 0-.486-.327-.486-.728 0-.402.217-.727.486-.727h2.682c.268 0 .486.325.486.727" fill="currentColor"/>
        </g>
    </g>
</svg>