<?xml version="1.0" encoding="UTF-8"?>
<svg viewBox="0 0 23 17" version="1.1" xmlns="http://www.w3.org/2000/svg" xmlns:xlink="http://www.w3.org/1999/xlink">
    <!-- Generator: Sketch 52.1 (67048) - http://www.bohemiancoding.com/sketch -->
    <title>Shape</title>
    <desc>Created with Sketch.</desc>
    <defs>
        <linearGradient x1="50%" y1="-2.48949813e-15%" x2="50%" y2="100%" id="linearGradient-1">
            <stop stop-color="currentColor" stop-opacity="0.85" offset="0%"></stop>
            <stop stop-color="currentColor" offset="100%"></stop>
        </linearGradient>
    </defs>
    <g id="Symbols" stroke="none" stroke-width="1" fill="none" fill-rule="evenodd">
        <g id="image-solid" fill="url(#linearGradient-1)" fill-rule="nonzero">
            <path d="M20.84375,17 L2.15625,17 C0.965371094,17 0,16.0486198 0,14.875 L0,2.125 C0,0.951380208 0.965371094,0 2.15625,0 L20.84375,0 C22.0346289,0 23,0.951380208 23,2.125 L23,14.875 C23,16.0486198 22.0346289,17 20.84375,17 Z M5.5,2 C4.11928571,2 3,3.11928571 3,4.5 C3,5.88071429 4.11928571,7 5.5,7 C6.88071429,7 8,5.88071429 8,4.5 C8,3.11928571 6.88071429,2 5.5,2 Z M3,14 L20,14 L20,9.03520424 L16.125638,5.15579263 C15.9181849,4.94806912 15.5818151,4.94806912 15.3743177,5.15579263 L9.375,11.1629739 L6.91730469,8.70207531 C6.70985156,8.49435181 6.37348177,8.49435181 6.16598438,8.70207531 L3,11.8722304 L3,14 Z" id="Shape"></path>
        </g>
    </g>
</svg>