<?xml version="1.0" encoding="UTF-8"?>
<svg viewBox="0 0 288 512" version="1.1" xmlns="http://www.w3.org/2000/svg" xmlns:xlink="http://www.w3.org/1999/xlink">
    <title>Path</title>
        <g id="Page-1" stroke="none" stroke-width="1" fill="none" fill-rule="evenodd">
        <g id="dollar-sign-solid" fill="#545D6D">
            <path d="M209.2,233.4 L101.2,201.8 C88.7,198.2 80,186.5 80,173.5 C80,157.2 93.2,144 109.5,144 L175.8,144 C188,144 200,147.7 210,154.5 C216.1,158.6 224.3,157.6 229.5,152.5 L264.3,118.5 C271.4,111.6 270.4,100.1 262.5,94 C238,74.8 207.4,64.1 176,64 L176,16 C176,7.2 168.8,0 160,0 L128,0 C119.2,0 112,7.2 112,16 L112,64 L109.5,64 C45.8,64 -5.4,118.7 0.5,183.6 C4.7,229.7 39.9,267.2 84.3,280.2 L186.8,310.2 C199.3,313.9 208,325.5 208,338.5 C208,354.8 194.8,368 178.5,368 L112.2,368 C100,368 88,364.3 78,357.5 C71.9,353.4 63.7,354.4 58.5,359.5 L23.7,393.5 C16.6,400.4 17.6,411.9 25.5,418 C50,437.2 80.6,447.9 112,448 L112,496 C112,504.8 119.2,512 128,512 L160,512 C168.8,512 176,504.8 176,496 L176,447.8 C222.6,446.9 266.3,419.2 281.7,375.1 C303.2,313.5 267.1,250.3 209.2,233.4 Z" id="Path"></path>
        </g>
    </g>
</svg>