<svg xmlns="http://www.w3.org/2000/svg" xmlns:xlink="http://www.w3.org/1999/xlink" width="16" height="16"
  viewBox="0 0 16 16">
  <g fill="none" fill-rule="evenodd">
    <g transform="translate(-1095 -29) translate(-1) translate(1017 16) translate(66) translate(13 13)">
      <path id="lukxxdeh2a" fill='currentColor'
        d="M6.542 4.766l.411-3.84C7.01.399 7.461 0 8 0c.539 0 .99.4 1.047.926l.411 3.84c.069.642.61 1.129 1.256 1.129h1.756c.322 0 .583.268.583.6 0 .154-.058.302-.161.413L8.633 11.51c-.333.36-.886.374-1.236.031l-.03-.03-4.259-4.603c-.222-.24-.213-.62.02-.848.109-.106.253-.165.402-.165h1.756c.646 0 1.187-.487 1.256-1.129zm-4.654 6.156l.479 1.914c.094.375.43.638.817.638h9.632c.387 0 .723-.263.817-.638l.479-1.914c.12-.48.551-.817 1.046-.817.465 0 .842.377.842.842v2.948C16 15.057 15.057 16 13.895 16H2.105C.943 16 0 15.057 0 13.895v-2.948c0-.465.377-.842.842-.842.495 0 .926.337 1.046.817z" />
    </g>
  </g>
</svg>