<?xml version="1.0" encoding="UTF-8"?>
<svg viewBox="0 0 16 16" version="1.1" xmlns="http://www.w3.org/2000/svg" xmlns:xlink="http://www.w3.org/1999/xlink">
    <!-- Generator: Sketch 52.1 (67048) - http://www.bohemiancoding.com/sketch -->
    <title>Combined Shape</title>
    <desc>Created with Sketch.</desc>
    <defs>
        <linearGradient x1="50%" y1="0%" x2="50%" y2="100%" id="linearGradient-1">
            <stop stop-color="currentColor" stop-opacity="0.85" offset="0%"></stop>
            <stop stop-color="currentColor" offset="100%"></stop>
        </linearGradient>
        <path d="M6.54197296,4.7661471 L6.95345652,0.925633884 C7.00983311,0.399452357 7.46146336,0 8,0 C8.53853664,0 8.99016689,0.399452357 9.04654348,0.925633884 L9.45802704,4.7661471 C9.52679781,5.40800762 10.0684623,5.89473684 10.7139965,5.89473684 L12.4696357,5.89473684 C12.7916154,5.89473684 13.0526316,6.16335392 13.0526316,6.49470989 C13.0526316,6.64876889 12.9950463,6.79692443 12.8918051,6.9084844 L8.6332547,11.5101742 C8.30017221,11.8700953 7.74663796,11.8839893 7.39690135,11.5412073 C7.38660606,11.5311167 7.37655142,11.5207693 7.36674639,11.5101742 L3.10819596,6.9084844 C2.88614097,6.66853698 2.89514152,6.288768 3.12829927,6.06024665 C3.23670247,5.95399906 3.38066573,5.89473684 3.5303654,5.89473684 L5.2860035,5.89473684 C5.93153766,5.89473684 6.47320219,5.40800762 6.54197296,4.7661471 Z M1.88845105,10.9222253 L2.36684961,12.8358195 C2.46056897,13.2106969 2.79739685,13.4736842 3.18381171,13.4736842 L12.8161883,13.4736842 C13.2026031,13.4736842 13.539431,13.2106969 13.6331504,12.8358195 L14.1115489,10.9222253 C14.2315825,10.442091 14.6629837,10.1052632 15.1578947,10.1052632 C15.6229766,10.1052632 16,10.4822865 16,10.9473684 L16,13.8947368 C16,15.0574416 15.0574416,16 13.8947368,16 L2.10526316,16 C0.942558421,16 0,15.0574416 0,13.8947368 L7.47939722e-16,10.9473684 C7.47939722e-16,10.4822865 0.377023369,10.1052632 0.842105263,10.1052632 C1.33701629,10.1052632 1.7684175,10.442091 1.88845105,10.9222253 Z" id="path-2"></path>
    </defs>
    <g id="Symbols" stroke="none" stroke-width="1" fill="none" fill-rule="evenodd">
        <g id="Icon/System/Download">
            <g id="Group-8">
                <g id="Combined-Shape">
                    <use fill="currentColor" xlink:href="#path-2"></use>
                    <use fill="url(#linearGradient-1)" xlink:href="#path-2"></use>
                </g>
            </g>
        </g>
    </g>
</svg>