<?xml version="1.0" encoding="UTF-8"?>
<svg viewBox="0 0 16 4" version="1.1" xmlns="http://www.w3.org/2000/svg" xmlns:xlink="http://www.w3.org/1999/xlink">
    <defs>
        <path d="M14,10 C15.1045695,10 16,9.1045695 16,8 C16,6.8954305 15.1045695,6 14,6 C12.8954305,6 12,6.8954305 12,8 C12,9.1045695 12.8954305,10 14,10 L14,10 L14,10 L14,10 Z M8,10 C9.1045695,10 10,9.1045695 10,8 C10,6.8954305 9.1045695,6 8,6 C6.8954305,6 6,6.8954305 6,8 C6,9.1045695 6.8954305,10 8,10 L8,10 L8,10 L8,10 Z M2,10 C3.1045695,10 4,9.1045695 4,8 C4,6.8954305 3.1045695,6 2,6 C0.8954305,6 0,6.8954305 0,8 C0,9.1045695 0.8954305,10 2,10 L2,10 L2,10 L2,10 Z" id="path-2"></path>
    </defs>
    <g id="Symbols" stroke="none" stroke-width="1" fill="none" fill-rule="evenodd">
        <g id="Icon/System/More" transform="translate(0.000000, -6.000000)">
            <g id="Group-34">
                <g id="Dots-HR-Icon">
                    <use fill="currentColor" xlink:href="#path-2"></use>
                </g>
            </g>
        </g>
    </g>
</svg>