<?xml version="1.0" encoding="UTF-8"?>
<svg  viewBox="0 0 200 191" version="1.1" xmlns="http://www.w3.org/2000/svg" xmlns:xlink="http://www.w3.org/1999/xlink">
    <!-- Generator: Sketch 52.1 (67048) - http://www.bohemiancoding.com/sketch -->
    <title>Artwork</title>
    <desc>Created with Sketch.</desc>
    <defs>
        <filter x="-21.5%" y="-221.9%" width="143.0%" height="543.9%" filterUnits="objectBoundingBox" id="filter-1">
            <feGaussianBlur stdDeviation="10.7319322" in="SourceGraphic"></feGaussianBlur>
        </filter>
        <filter x="-29.8%" y="-72.3%" width="158.8%" height="244.7%" filterUnits="objectBoundingBox" id="filter-2">
            <feOffset dx="0" dy="4" in="SourceAlpha" result="shadowOffsetOuter1"></feOffset>
            <feGaussianBlur stdDeviation="5" in="shadowOffsetOuter1" result="shadowBlurOuter1"></feGaussianBlur>
            <feColorMatrix values="0 0 0 0 0.191214161   0 0 0 0 0.288182386   0 0 0 0 0.613201531  0 0 0 0.15455163 0" type="matrix" in="shadowBlurOuter1" result="shadowMatrixOuter1"></feColorMatrix>
            <feMerge>
                <feMergeNode in="shadowMatrixOuter1"></feMergeNode>
                <feMergeNode in="SourceGraphic"></feMergeNode>
            </feMerge>
        </filter>
        <path d="M1.09803123,0 L112.388583,0 C112.940868,-1.01453063e-16 113.388583,0.44771525 113.388583,1 L113.388583,45.8815146 C113.388583,46.4337993 112.940868,46.8815146 112.388583,46.8815146 L1.09803123,46.8815146 C0.545746481,46.8815146 0.0980312304,46.4337993 0.0980312304,45.8815146 L0.0980312304,1 C0.0980312304,0.44771525 0.545746481,1.01453063e-16 1.09803123,0 Z" id="path-3"></path>
        <filter x="-23.8%" y="-57.7%" width="146.8%" height="215.4%" filterUnits="objectBoundingBox" id="filter-5">
            <feOffset dx="0" dy="-4" in="SourceAlpha" result="shadowOffsetOuter1"></feOffset>
            <feGaussianBlur stdDeviation="5" in="shadowOffsetOuter1" result="shadowBlurOuter1"></feGaussianBlur>
            <feColorMatrix values="0 0 0 0 0.191214161   0 0 0 0 0.288182386   0 0 0 0 0.613201531  0 0 0 0.15455163 0" type="matrix" in="shadowBlurOuter1" result="shadowMatrixOuter1"></feColorMatrix>
            <feMerge>
                <feMergeNode in="shadowMatrixOuter1"></feMergeNode>
                <feMergeNode in="SourceGraphic"></feMergeNode>
            </feMerge>
        </filter>
        <rect id="path-6" x="0.108460085" y="0" width="125.342738" height="51.8164108" rx="1"></rect>
        <filter x="-21.6%" y="-53.4%" width="143.2%" height="206.9%" filterUnits="objectBoundingBox" id="filter-8">
            <feOffset dx="0" dy="-4" in="SourceAlpha" result="shadowOffsetOuter1"></feOffset>
            <feGaussianBlur stdDeviation="5" in="shadowOffsetOuter1" result="shadowBlurOuter1"></feGaussianBlur>
            <feColorMatrix values="0 0 0 0 0.191214161   0 0 0 0 0.288182386   0 0 0 0 0.613201531  0 0 0 0.15455163 0" type="matrix" in="shadowBlurOuter1" result="shadowMatrixOuter1"></feColorMatrix>
            <feMerge>
                <feMergeNode in="shadowMatrixOuter1"></feMergeNode>
                <feMergeNode in="SourceGraphic"></feMergeNode>
            </feMerge>
        </filter>
        <rect id="path-9" x="0.119931824" y="0" width="138.600143" height="57.9850312" rx="1"></rect>
        <linearGradient x1="50%" y1="35.6730229%" x2="50%" y2="100%" id="linearGradient-11">
            <stop stop-color="currentColor" offset="0%"></stop>
            <stop stop-color="currentColor" stop-opacity="0.158486187" offset="100%"></stop>
        </linearGradient>
    </defs>
    <g id="Empty-States" stroke="none" stroke-width="1" fill="none" fill-rule="evenodd">
        <g id="5.3_No-Photos" transform="translate(-87.000000, -252.000000)">
            <g id="Artwork" transform="translate(89.000000, 265.000000)">
                <g id="box">
                    <polygon id="Rectangle-19-Copy-2" fill="#1B3554" filter="url(#filter-1)" points="22.9631902 136.985075 172.828221 136.985075 172.828221 151.492537 22.9631902 151.492537"></polygon>
                    <polygon id="Rectangle-19-Copy" fill="#D6DAE0" points="24.1717791 13.6716418 174.03681 13.6716418 174.03681 109.179104 24.1717791 109.179104"></polygon>
                    <polygon id="Rectangle-3" fill="#C1C8D4" points="24.1717791 13.6716418 24.1717791 158.746269 0 158.746269 0 71.0203577"></polygon>
                    <polygon id="Rectangle-3-Copy" fill="#C1C8D4" transform="translate(185.518405, 85.604478) scale(-1, 1) translate(-185.518405, -85.604478) " points="197 13.6716418 197 157.537313 174.03681 157.537313 174.03681 71.0203577"></polygon>
                    <g id="Group-Copy-3" filter="url(#filter-2)" transform="translate(42.300613, 0.000000)">
                        <mask id="mask-4" fill="white">
                            <use xlink:href="#path-3"></use>
                        </mask>
                        <path stroke="#FFFFFF" stroke-width="6.49677857" d="M1.09803123,-3.24838929 L112.388583,-3.24838929 C114.734903,-3.24838929 116.636972,-1.34632061 116.636972,1 L116.636972,45.8815146 C116.636972,48.2278352 114.734903,50.1299038 112.388583,50.1299038 L1.09803123,50.1299038 C-1.24828938,50.1299038 -3.15035806,48.2278352 -3.15035806,45.8815146 L-3.15035806,1 C-3.15035806,-1.34632061 -1.24828938,-3.24838929 1.09803123,-3.24838929 Z"></path>
                    </g>
                    <g id="Group-Copy-2" filter="url(#filter-5)" transform="translate(36.257669, 18.925373)">
                        <mask id="mask-7" fill="white">
                            <use xlink:href="#path-6"></use>
                        </mask>
                        <rect stroke="#FFFFFF" stroke-width="7.21864286" x="-3.50086134" y="-3.60932143" width="132.561381" height="59.0350537" rx="1"></rect>
                    </g>
                    <g id="Group" filter="url(#filter-8)" transform="translate(29.006135, 41.477612)">
                        <mask id="mask-10" fill="white">
                            <use xlink:href="#path-9"></use>
                        </mask>
                        <rect stroke="#FFFFFF" stroke-width="8.02071429" x="-3.89042532" y="-4.01035714" width="146.620857" height="66.0057454" rx="1"></rect>
                        <path d="M160.56939,52.5214443 C152.856971,62.6860181 138.822813,67.5956727 122.789024,67.5956727 C102.306893,67.5956727 85.0878439,59.5838956 80.1416182,42.8406128 C79.318246,42.8918654 78.487785,42.9178874 77.6510462,42.9178874 C56.5347027,42.9178874 39.4165241,26.3449562 39.4165241,5.90120952 C39.4165241,-14.5425372 56.5347027,-31.1154684 77.6510462,-31.1154684 C77.7017251,-31.1154684 77.7523809,-31.1153729 77.8030135,-31.1151822 C79.4593479,-48.5682832 94.450631,-62.2309368 112.699358,-62.2309368 C123.037045,-62.2309368 132.329389,-57.8464719 138.744391,-50.87222 C146.580565,-57.927639 157.009568,-62.2309368 168.458036,-62.2309368 C192.800488,-62.2309368 212.533944,-42.7757567 212.533944,-18.7765758 C212.533944,-17.6180054 212.487955,-16.4700248 212.397678,-15.3343118 C227.525369,-8.45056651 238.023625,6.63666173 238.023625,24.1413117 C238.023625,48.1404926 218.290169,67.5956727 193.947718,67.5956727 C180.607715,67.5956727 168.651882,61.7529068 160.56939,52.5214443 Z" id="cloud" fill="url(#linearGradient-11)" mask="url(#mask-10)"></path>
                        <path d="M157.302164,102.594254 L251.830536,161.423308 L0.119931824,161.423308 L94.6483037,102.594254 C113.827496,90.6582214 138.122972,90.6582214 157.302164,102.594254 Z" id="Triangle" fill="#86E074" mask="url(#mask-10)" transform="translate(125.975234, 126.848383) rotate(-3.000000) translate(-125.975234, -126.848383) "></path>
                        <path d="M62.4230356,73.6634692 L151.99595,149.139659 L-84.845673,149.139659 L4.72724186,73.6634692 C21.3950421,59.6187989 45.7552353,59.6187989 62.4230356,73.6634692 Z" id="Triangle-Copy" fill="#8EE57D" mask="url(#mask-10)"></path>
                    </g>
                    <path d="M0,70.4925373 L197,70.4925373 L197,159.969388 C197,163.300003 194.300003,166 190.969388,166 L6.03061224,166 C2.69999707,166 -7.58572306e-15,163.300003 -7.99360578e-15,159.969388 L0,70.4925373 Z" id="Rectangle-19" fill="#FFFFFF"></path>
                </g>
                <g id="face" transform="translate(59.220859, 103.134328)" fill="#1B3554" opacity="0.390738225">
                    <path d="M2.95225713,1.36309003 C5.05012978,0.454470566 7.11884804,0.000160832806 9.15841194,0.000160832806 C11.1545485,0.000160832806 13.150685,0.435329773 15.1468215,1.30566765 L15.1468189,1.30567348 C16.957914,2.09533122 18.1288344,3.88324564 18.1288344,5.85900493 L18.1288344,5.85900493 C18.1288344,6.80445022 17.3623995,7.57088506 16.4169542,7.57088506 C16.1631187,7.57088506 15.9124599,7.51443585 15.683129,7.40562514 C13.5099901,6.37454859 11.3198552,5.85900493 9.11271911,5.85900493 C6.89470733,5.85900493 4.67669555,6.37964181 2.45868377,7.42091558 L2.45866631,7.42087838 C1.59606742,7.82583636 0.568509551,7.45484512 0.163551564,6.59224623 C0.0558406501,6.36281178 -1.91004747e-16,6.11246461 -2.22044605e-16,5.85900493 L-8.8817842e-16,5.85900493 C-1.1273666e-15,3.90588522 1.16001345,2.13932399 2.95225235,1.36307899 Z" id="Rectangle-3-Copy"></path>
                    <path d="M64.5902939,1.36309003 C66.6881666,0.454470566 68.7568849,0.000160832806 70.7964487,0.000160832806 C72.7925853,0.000160832806 74.7887218,0.435329773 76.7848583,1.30566765 L76.7848557,1.30567348 C78.5959508,2.09533122 79.7668712,3.88324564 79.7668712,5.85900493 L79.7668712,5.85900493 C79.7668712,6.80445022 79.0004363,7.57088506 78.054991,7.57088506 C77.8011555,7.57088506 77.5504967,7.51443585 77.3211658,7.40562514 C75.1480269,6.37454859 72.957892,5.85900493 70.7507559,5.85900493 C68.5327441,5.85900493 66.3147324,6.37964181 64.0967206,7.42091558 L64.0967031,7.42087838 C63.2341042,7.82583636 62.2065464,7.45484512 61.8015884,6.59224623 C61.6938775,6.36281178 61.6380368,6.11246461 61.6380368,5.85900493 L61.6380368,5.85900493 C61.6380368,3.90588522 62.7980503,2.13932399 64.5902892,1.36307899 Z" id="Rectangle-3-Copy-2"></path>
                    <path d="M39.8834356,33.858077 C50.5631996,33.858077 59.2208589,27.6157044 59.2208589,16.9327039 C39.8834356,16.8697514 35.7238384,17.2416782 20.5460123,16.9327039 C20.5460123,27.6157044 29.2036716,33.858077 39.8834356,33.858077 Z" id="Oval-10"></path>
                </g>
            </g>
        </g>
    </g>
</svg>