<?xml version="1.0" encoding="UTF-8"?>
<svg viewBox="0 0 20 20" version="1.1" xmlns="http://www.w3.org/2000/svg" xmlns:xlink="http://www.w3.org/1999/xlink">
            <defs>
        <linearGradient x1="50%" y1="0%" x2="50%" y2="100%" id="linearGradient-1">
            <stop stop-color="currentColor" offset="0%"></stop>
            <stop stop-color="currentColor" offset="100%"></stop>
        </linearGradient>
        <linearGradient x1="50%" y1="0%" x2="50%" y2="100%" id="linearGradient-2">
            <stop stop-color="currentColor" offset="0%"></stop>
            <stop stop-color="currentColor" offset="100%"></stop>
        </linearGradient>
    </defs>
    <g id="Artboard" stroke="none" stroke-width="1" fill="none" fill-rule="evenodd">
        <g id="checked-(2)" fill="url(#linearGradient-1)" fill-rule="nonzero">
            <path d="M10,0 C4.48613377,0 0,4.48613377 0,10 C0,15.5138662 4.48613377,20 10,20 C15.5138662,20 20,15.5138662 20,10 C20,4.48613377 15.5138662,0 10,0 Z M10,19.0008157 C5.03670473,19.0008157 0.999184339,14.9632953 0.999184339,10 C0.999184339,5.03670473 5.03670473,0.999184339 10,0.999184339 C14.9632953,0.999184339 19.0008157,5.03670473 19.0008157,10 C19.0008157,14.9632953 14.9632953,19.0008157 10,19.0008157 Z" id="Shape"></path>
        </g>
        <path d="M10.7274278,9.895835 L13.609839,12.7791568 C13.840026,13.0091887 13.840026,13.3822733 13.609839,13.6122845 C13.3798798,13.8425442 13.0071615,13.8425442 12.7769745,13.6122845 L9.89454253,10.7289627 L7.01188279,13.6123052 C6.78217204,13.8425649 6.40895678,13.8425649 6.17901825,13.6123052 C5.94905901,13.3822733 5.94905901,13.0091887 6.17901825,12.7791775 L9.06167798,9.895835 L6.17264027,7.00588461 C5.94245324,6.77562486 5.94245324,6.40276813 6.17264027,6.17275695 C6.28760954,6.05750279 6.43840316,6 6.58919679,6 C6.73974192,6 6.89053555,6.05750279 7.00552552,6.17275695 L9.89454253,9.06268663 L12.7769745,6.17934409 C12.8921922,6.0643385 13.0427374,6.00658714 13.193531,6.00658714 C13.3440761,6.00658714 13.4948698,6.0643385 13.6098597,6.17934409 C13.8400468,6.40937598 13.8400468,6.782212 13.6098597,7.01247174 L10.7274278,9.895835 Z" id="Path" fill="url(#linearGradient-2)" transform="translate(9.891250, 9.892500) scale(-1, 1) translate(-9.891250, -9.892500) "></path>
    </g>
</svg>