<?xml version="1.0" encoding="UTF-8"?>
<svg width="16px" height="16px" viewBox="0 0 16 16" version="1.1" 
  xmlns="http://www.w3.org/2000/svg" 
  xmlns:xlink="http://www.w3.org/1999/xlink">
  <!-- Generator: Sketch 63 (92445) - https://sketch.com -->
  <title>Icon/Editor/Exit</title>
  <desc>Created with Sketch.</desc>
  <defs>
    <linearGradient x1="0%" y1="50%" x2="100%" y2="50%" id="linearGradient-1">
      <stop stop-color="currentColor" stop-opacity="0.85" offset="0%"></stop>
      <stop stop-color="currentColor" offset="100%"></stop>
    </linearGradient>
    <path d="M9.45802704,7.02332658 L9.04654348,10.8638398 C8.99016689,11.3900213 8.53853664,11.7894737 8,11.7894737 C7.46146336,11.7894737 7.00983311,11.3900213 6.95345652,10.8638398 L6.54197296,7.02332658 C6.47320219,6.38146606 5.93153766,5.89473684 5.2860035,5.89473684 L3.53036431,5.89473684 C3.20838457,5.89473684 2.94736842,5.62611976 2.94736842,5.2947638 C2.94736842,5.1407048 3.00495372,4.99254925 3.10819487,4.88098928 L7.3667453,0.279299474 C7.69982779,-0.0806216581 8.25336204,-0.0945156451 8.60309865,0.248266385 C8.61339394,0.258356946 8.62344858,0.268704385 8.63325361,0.279299474 L12.891804,4.88098928 C13.113859,5.12093671 13.1048585,5.50070568 12.8717007,5.72922704 C12.7632975,5.83547462 12.6193343,5.89473684 12.4696346,5.89473684 L10.7139965,5.89473684 C10.0684623,5.89473684 9.52679781,6.38146606 9.45802704,7.02332658 Z M2.59976309,11.1929589 L3.01836183,12.8160969 C3.10036627,13.1340733 3.39509067,13.3571429 3.73320367,13.3571429 L12.1615332,13.3571429 C12.4996462,13.3571429 12.7943706,13.1340733 12.876375,12.8160969 L13.2949737,11.1929589 C13.4000031,10.7857022 13.7774792,10.5 14.2105263,10.5 C14.617473,10.5 14.9473684,10.8197966 14.9473684,11.2142857 L14.9473684,13.7142857 C14.9473684,14.7005085 14.1226298,15.5 13.1052632,15.5 L2.78947368,15.5 C1.77210704,15.5 0.947368421,14.7005085 0.947368421,13.7142857 L0.947368421,11.2142857 C0.947368421,10.8197966 1.27726387,10.5 1.68421053,10.5 C2.11725768,10.5 2.49473373,10.7857022 2.59976309,11.1929589 L2.59976309,11.1929589 Z" id="path-2"></path>
  </defs>
  <g id="Icon/Editor/Exit" stroke="none" stroke-width="1" fill="none" fill-rule="evenodd">
    <g id="Icon/Editor/Alexa">
      <g id="Group-19-Copy">
        <rect id="Rectangle-4" x="0" y="0" width="16" height="16"></rect>
      </g>
      <g id="Icon/System/Download" transform="translate(8.000000, 7.500000) rotate(90.000000) translate(-8.000000, -7.500000) translate(0.500000, -0.500000)">
        <g id="Group-8">
          <g id="Combined-Shape">
            <use fill="#FFFFFF" xlink:href="#path-2"></use>
            <use fill="url(#linearGradient-1)" xlink:href="#path-2"></use>
          </g>
        </g>
      </g>
    </g>
  </g>
</svg>