<?xml version="1.0" encoding="UTF-8"?>
<svg viewBox="0 0 16 16" version="1.1" xmlns="http://www.w3.org/2000/svg" xmlns:xlink="http://www.w3.org/1999/xlink">
    <!-- Generator: Sketch 52.2 (67145) - http://www.bohemiancoding.com/sketch -->
    <title>Group</title>
    <desc>Created with Sketch.</desc>
    <defs>
        <linearGradient x1="50%" y1="0%" x2="50%" y2="100%" id="linearGradient-1">
            <stop stop-color="currentColor" stop-opacity="0.85" offset="0%"></stop>
            <stop stop-color="currentColor" offset="100%"></stop>
        </linearGradient>
        <path d="M8,16 C3.581722,16 0,12.418278 0,8 C0,3.581722 3.581722,0 8,0 C12.418278,0 16,3.581722 16,8 C16,12.418278 12.418278,16 8,16 Z M12.3417187,8.40686865 L9.10518055,8.64286629 C8.85771065,8.66091098 8.66091098,8.85771065 8.64286629,9.10518055 L8.40686865,12.3417187 C8.39132083,12.5549459 8.21379329,12.72 8,12.72 L8,12.72 C7.78620671,12.72 7.60867917,12.5549459 7.59313135,12.3417187 L7.35713371,9.10518055 C7.33908902,8.85771065 7.14228935,8.66091098 6.89481945,8.64286629 L3.65828133,8.40686865 C3.44505413,8.39132083 3.28,8.21379329 3.28,8 L3.28,8 C3.28,7.78620671 3.44505413,7.60867917 3.65828133,7.59313135 L6.89481945,7.35713371 C7.14228935,7.33908902 7.33908902,7.14228935 7.35713371,6.89481945 L7.59313135,3.65828133 C7.60867917,3.44505413 7.78620671,3.28 8,3.28 L8,3.28 C8.21379329,3.28 8.39132083,3.44505413 8.40686865,3.65828133 L8.64286629,6.89481945 C8.66091098,7.14228935 8.85771065,7.33908902 9.10518055,7.35713371 L12.3417187,7.59313135 C12.5549459,7.60867917 12.72,7.78620671 12.72,8 L12.72,8 C12.72,8.21379329 12.5549459,8.39132083 12.3417187,8.40686865 Z" id="path-2"></path>
    </defs>
    <g id="Symbols" stroke="none" stroke-width="1" fill="none" fill-rule="evenodd">
        <g id="Icon/System/Add">
            <g id="Group">
                <rect id="Rectangle" x="0" y="0" width="16" height="16"></rect>
                <g id="Combined-Shape">
                    <use fill="#FFFFFF" xlink:href="#path-2"></use>
                    <use fill="url(#linearGradient-1)" xlink:href="#path-2"></use>
                </g>
            </g>
        </g>
    </g>
</svg>