<?xml version="1.0" encoding="UTF-8"?>
<svg width="18px" height="18px" viewBox="0 0 24 24" version="1.1" xmlns="http://www.w3.org/2000/svg" xmlns:xlink="http://www.w3.org/1999/xlink">
    <title>Group 17</title>
    <defs>
        <linearGradient x1="50%" y1="0%" x2="50%" y2="100%" id="linearGradient-1">
            <stop stop-color="#6E849A" stop-opacity="0.85" offset="0%"></stop>
            <stop stop-color="#6E849A" offset="100%"></stop>
        </linearGradient>
        <path d="M20,2.84217094e-14 C20.5522847,2.84217094e-14 21,0.44771525 21,1 L21,23 C21,23.5522847 20.5522847,24 20,24 L4,24 C3.44771525,24 3,23.5522847 3,23 L3,1 C3,0.44771525 3.44771525,2.84217094e-14 4,2.84217094e-14 L20,2.84217094e-14 Z M19,1 L5,1 C4.44771525,1 4,1.44771525 4,2 L4,2 L4,22 C4,22.5522847 4.44771525,23 5,23 L5,23 L19,23 C19.5522847,23 20,22.5522847 20,22 L20,22 L20,2 C20,1.44771525 19.5522847,1 19,1 L19,1 Z M18,2 C18.5522847,2 19,2.44771525 19,3 L19,21 C19,21.5522847 18.5522847,22 18,22 L6,22 C5.44771525,22 5,21.5522847 5,21 L5,3 C5,2.44771525 5.44771525,2 6,2 L18,2 Z M9.87324219,15.5509769 L9.08222656,15.5509769 L9.08222656,10.4630862 C9.08222656,10.0399071 9.09524727,9.63952043 9.12128906,9.26191437 C9.05292935,9.33027409 8.97643271,9.40188796 8.89179687,9.47675812 C8.80716104,9.55162829 8.41979512,9.86900793 7.7296875,10.4289066 L7.3,9.87226594 L9.18964844,8.412305 L9.87324219,8.412305 L9.87324219,15.5509769 Z M16.4195317,11.971875 C16.4195317,13.2056051 16.2250349,14.1268199 15.8360356,14.7355469 C15.4470363,15.3442739 14.8521529,15.6486328 14.0513676,15.6486328 C13.2831346,15.6486328 12.6988306,15.3369497 12.2984379,14.7135742 C11.8980453,14.0901987 11.697852,13.1763081 11.697852,11.971875 C11.697852,10.7283792 11.891535,9.80553687 12.2789067,9.20332031 C12.6662784,8.60110376 13.2570928,8.3 14.0513676,8.3 C14.8261111,8.3 15.4144841,8.61412446 15.8165043,9.24238281 C16.2185246,9.87064116 16.4195317,10.7804628 16.4195317,11.971875 Z M12.518164,11.971875 C12.518164,13.0102917 12.6402331,13.7663062 12.8843749,14.2399414 C13.1285168,14.7135766 13.5175103,14.9503906 14.0513671,14.9503906 C14.5917344,14.9503906 14.9831693,14.7103214 15.2256835,14.2301758 C15.4681978,13.7500302 15.5894531,12.9972708 15.5894531,11.971875 C15.5894531,10.9464792 15.4681978,10.1953474 15.2256835,9.71845703 C14.9831693,9.24156663 14.5917344,9.003125 14.0513671,9.003125 C13.5175103,9.003125 13.1285168,9.23831145 12.8843749,9.70869141 C12.6402331,10.1790714 12.518164,10.9334583 12.518164,11.971875 Z" id="path-2"></path>
    </defs>
    <g id="Icons" stroke="none" stroke-width="1" fill="none" fill-rule="evenodd">
        <g id="Group-17">
            <rect id="Rectangle-6" fill-rule="nonzero" x="0" y="0" width="24" height="24"></rect>
            <g id="Combined-Shape">
                <use fill="#FFFFFF" xlink:href="#path-2"></use>
                <use fill="url(#linearGradient-1)" xlink:href="#path-2"></use>
            </g>
        </g>
    </g>
</svg>