<?xml version="1.0" encoding="UTF-8"?>
<svg viewBox="0 0 16 16" version="1.1" xmlns="http://www.w3.org/2000/svg" xmlns:xlink="http://www.w3.org/1999/xlink">
    <!-- Generator: Sketch 52.1 (67048) - http://www.bohemiancoding.com/sketch -->
    <title>Ok Circle Filled Icon</title>
    <desc>Created with Sketch.</desc>
    <defs>
        <linearGradient x1="50%" y1="0%" x2="50%" y2="100%" id="linearGradient-1">
            <stop stop-color="currentColor" stop-opacity="0.85" offset="0%"></stop>
            <stop stop-color="currentColor" offset="100%"></stop>
        </linearGradient>
        <path d="M8,16 C12.418278,16 16,12.418278 16,8 C16,3.581722 12.418278,0 8,0 C3.581722,0 0,3.581722 0,8 C0,12.418278 3.581722,16 8,16 L8,16 L8,16 L8,16 L8,16 Z M6.90833935,8.60306462 L11.0881576,4.93709435 C11.3157912,4.73744496 11.6446003,4.75800539 11.8499241,4.98472759 C12.0500253,5.20568292 12.0500253,5.56158459 11.8499241,5.78253992 L7.25221093,10.8594172 C6.84386528,11.3103198 6.17846245,11.3139751 5.7659921,10.8675815 C5.73992286,10.8393682 5.71522281,10.8096822 5.69199337,10.7786452 L4.12890688,8.69019962 C3.94407923,8.44325071 3.95965948,8.08360157 4.16500808,7.85685196 C4.37200618,7.62828095 4.70159155,7.60187658 4.93686071,7.79501583 L5.94178769,8.61998944 C6.22969193,8.85633836 6.62750735,8.84937241 6.90833935,8.60306462 Z" id="path-2"></path>
    </defs>
    <g id="Symbols" stroke="none" stroke-width="1" fill="none" fill-rule="evenodd">
        <g id="Icon/Header-buttons/Sync-success">
            <g id="Group-9">
                <g id="Ok-Circle-Filled-Icon">
                    <use fill="currentColor" xlink:href="#path-2"></use>
                    <use fill="url(#linearGradient-1)" xlink:href="#path-2"></use>
                </g>
            </g>
        </g>
    </g>
</svg>