<svg viewBox="0 0 16 16" version="1.1" xmlns="http://www.w3.org/2000/svg" xmlns:xlink="http://www.w3.org/1999/xlink">
	<path d="M12.6053737,7.70976066 L15.1474978,5.16844609 C16.2841674,4.03177655 16.2841674,2.18914132 15.1474978,1.05247179 L14.9475282,0.85250215 C13.8108587,-0.284167383 11.9682234,-0.284167383 10.8315539,0.85250215 L8.28942974,3.39381673 C7.45959622,4.22445985 7.26205536,5.44208875 7.68709204,6.4621768 C7.79152963,6.71477002 7.71866619,7.00703335 7.5251733,7.20052624 L7.20052624,7.52436371 C7.00703335,7.7178566 6.71557962,7.79152963 6.46298639,7.68628245 C5.44208875,7.26124576 4.22445985,7.45878662 3.39462632,8.28942974 L0.85250215,10.8307443 C-0.284167383,11.9674139 -0.284167383,13.8100491 0.85250215,14.9467186 L1.05247179,15.1466883 C2.18914132,16.2833578 4.03177655,16.2833578 5.16844609,15.1466883 L7.71057026,12.6053737 C8.54121338,11.773921 8.73875424,10.5546729 8.31209837,9.53296564 C8.20604159,9.28037241 8.27971462,8.98810909 8.47320751,8.7946162 L8.7946162,8.47320751 C8.98891869,8.27971462 9.28118201,8.20604159 9.53377524,8.31209837 C10.5546729,8.73794464 11.773921,8.54121338 12.6053737,7.70976066 L12.6053737,7.70976066 Z M10.9084653,6.59737894 C10.8347923,6.52370592 10.8088853,6.40550524 10.8526033,6.31159237 C11.0056166,5.98208774 10.9570409,5.58457724 10.6850175,5.31174417 C10.4121844,5.03972069 10.0146739,4.99114507 9.68516926,5.14415828 C9.59044679,5.18787633 9.47548449,5.16439812 9.40181147,5.09072509 C9.30466022,4.99276426 9.30466022,4.83408389 9.40181147,4.73693265 L12.0159895,2.12275464 C12.4904114,1.64833274 13.2595254,1.64833274 13.7331377,2.12275464 L13.8764358,2.26605272 C14.3508577,2.73966503 14.3508577,3.50877903 13.8764358,3.98320093 L11.2622578,6.59737894 C11.1651065,6.69453018 11.0064261,6.69453018 10.9084653,6.59737894 L10.9084653,6.59737894 Z M5.08748672,9.39857309 C5.16196934,9.47305571 5.18139959,9.58882761 5.13525275,9.68435966 C4.97333401,10.0162931 5.02029044,10.4227091 5.29717148,10.6995901 C5.57405252,10.9756616 5.97965896,11.0234276 6.31240196,10.8615089 C6.40712442,10.815362 6.52046754,10.8315539 6.59495016,10.9060365 C6.69048221,11.0023782 6.69695896,11.1634873 6.60142691,11.2590194 L3.98401052,13.8764358 C3.50958863,14.3508577 2.74047462,14.3508577 2.26605272,13.8764358 L2.12356424,13.7331377 C1.64914234,13.2587158 1.64914234,12.4904114 2.12356424,12.0159895 L4.74098062,9.39857309 C4.83651268,9.30304104 4.99114507,9.30304104 5.08748672,9.39857309 L5.08748672,9.39857309 Z" fill="currentColor">
	</path>
</svg>
