<?xml version="1.0" encoding="UTF-8"?>
<svg viewBox="0 0 16 16" version="1.1" xmlns="http://www.w3.org/2000/svg" xmlns:xlink="http://www.w3.org/1999/xlink">
  <path fill="currentColor" d="M14.6086957,8 C14.6086957,11.644 11.644,14.6086957 8,14.6086957 C4.356,14.6086957 1.39130435,11.644 1.39130435,8 C1.39130435,4.356 4.356,1.39130435 8,1.39130435 C11.644,1.39130435 14.6086957,4.356 14.6086957,8 M16,8 C16,3.58886957 12.4111304,0 8,0 C3.58886957,0 0,3.58886957 0,8 C0,12.4111304 3.58886957,16 8,16 C12.4111304,16 16,12.4111304 16,8 M8,4.72727273 C8.60249245,4.72727273 9.09090909,4.23885609 9.09090909,3.63636364 C9.09090909,3.03387118 8.60249245,2.54545455 8,2.54545455 C7.39750755,2.54545455 6.90909091,3.03387118 6.90909091,3.63636364 C6.90909091,4.23885609 7.39750755,4.72727273 8,4.72727273 Z M7.97237881,5.81818182 C7.92026312,5.81818182 7.86818509,5.82098274 7.81637003,5.82657246 C7.01768078,5.91273373 6.74006273,6.63004681 6.826224,7.42873606 L7.387921,12.6354993 C7.4381817,13.101401 7.53147175,13.4545455 8.00007657,13.4545455 C8.46868139,13.4545455 8.5619713,13.101401 8.612232,12.6354993 L9.173929,7.42873606 C9.17951872,7.376921 9.18232,7.32484296 9.18232,7.27272727 C9.18232,6.469404 8.8310976,5.81818182 8.02777433,5.81818182 L7.97237881,5.81818182 Z" id="path-2"></path>
</svg>
