<svg viewBox="0 0 14 16" version="1.1" xmlns="http://www.w3.org/2000/svg" xmlns:xlink="http://www.w3.org/1999/xlink">
	<path d="M14,1.07377049 L14,0.5 C14,0.223857625 13.7761424,-5.07265313e-17 13.5,0 L6,0 C5.72385763,5.07265313e-17 5.5,0.223857625 5.5,0.5 L5.5,1.07377049 C5.5,1.34991287 5.72385763,1.57377049 6,1.57377049 L8.337561,1.57377049 L8.337561,1.57377049 L3.430282,14.4262295 L0.5,14.4262295 C0.223857625,14.4262295 -3.32545583e-14,14.6500871 -2.69229083e-14,14.9262295 L-2.69229083e-14,15.5 C-2.68890907e-14,15.7761424 0.223857625,16 0.5,16 L8,16 C8.27614237,16 8.5,15.7761424 8.5,15.5 L8.5,14.9262295 C8.5,14.6500871 8.27614237,14.4262295 8,14.4262295 L5.71,14.4262295 L5.71,14.4262295 L10.62,1.57377049 L13.5,1.57377049 C13.7761424,1.57377049 14,1.34991287 14,1.07377049 Z" fill="currentColor">
	</path>
</svg>
