<?xml version="1.0" encoding="UTF-8"?>
<svg viewBox="0 0 19 16" version="1.1" xmlns="http://www.w3.org/2000/svg" xmlns:xlink="http://www.w3.org/1999/xlink">
            <defs>
        <linearGradient x1="50%" y1="1.02285043%" x2="50%" y2="100%" id="linearGradient-1">
            <stop stop-color="currentColor" stop-opacity="0.85" offset="0%"></stop>
            <stop stop-color="currentColor" offset="100%"></stop>
        </linearGradient>
    </defs>
    <g id="Symbols" stroke="none" stroke-width="1" fill="none" fill-rule="evenodd">
        <g id="sign-out-alt-solid-(1)" transform="translate(9.500000, 8.000000) scale(1, -1) translate(-9.500000, -8.000000) " fill="url(#linearGradient-1)">
            <g id="Group">
                <path d="M18.7232006,8.70777317 L12.0562032,15.7066107 C11.4609356,16.3315069 10.4291384,15.8940795 10.4291384,14.998395 L10.4291384,10.9990593 L5.03204524,10.9990593 C4.50424128,10.9990593 4.07961704,10.5533 4.07961704,9.99922533 L4.07961704,5.99988962 C4.07961704,5.44581498 4.50424128,5.00005569 5.03204524,5.00005569 L10.4291384,5.00005569 L10.4291384,1.00071998 C10.4291384,0.109201389 11.4569671,-0.332391929 12.0562032,0.292504276 L18.7232006,7.29134178 C19.0922665,7.6829434 19.0922665,8.31617155 18.7232006,8.70777317 Z" id="Shape" fill-rule="nonzero"></path>
                <rect id="Rectangle" transform="translate(1.500000, 8.000000) scale(1, -1) translate(-1.500000, -8.000000) " x="0" y="0" width="3" height="16" rx="1"></rect>
            </g>
        </g>
    </g>
</svg>