<?xml version="1.0" encoding="UTF-8"?>
<svg viewBox="0 0 23 17" version="1.1" xmlns="http://www.w3.org/2000/svg" xmlns:xlink="http://www.w3.org/1999/xlink">
    <!-- Generator: Sketch 52.1 (67048) - http://www.bohemiancoding.com/sketch -->
    <title>Artboard</title>
    <desc>Created with Sketch.</desc>
    <defs>
        <linearGradient x1="50%" y1="0%" x2="50%" y2="100%" id="linearGradient-1">
            <stop stop-color="currentColor" stop-opacity="0.85" offset="0%"></stop>
            <stop stop-color="currentColor" offset="100%"></stop>
        </linearGradient>
    </defs>
    <g id="Artboard" stroke="none" stroke-width="1" fill="none" fill-rule="evenodd">
        <g id="cloud-storage-uploading-option" fill="url(#linearGradient-1)" fill-rule="nonzero">
            <path d="M21.9993579,9.48381568 C21.332403,8.64268372 20.4800803,8.0974915 19.4416765,7.84790071 C19.7693638,7.34888829 19.9327459,6.79346209 19.9327459,6.18174898 C19.9327459,5.32848003 19.633212,4.60009105 19.0344799,3.9963283 C18.4356218,3.39277701 17.7129056,3.09087449 16.866331,3.09087449 C16.1076153,3.09087449 15.4448561,3.34042299 14.8779696,3.83951999 C14.4069978,2.68037334 13.6540302,1.75073011 12.619948,1.05054802 C11.5858658,0.35015448 10.4457992,0 9.19983217,0 C7.50689287,0 6.06133443,0.603847321 4.86340858,1.81124594 C3.66539882,3.01834853 3.06658275,4.47542252 3.06658275,6.18187585 C3.06658275,6.2864993 3.07459662,6.45958895 3.09054043,6.70097564 C2.14821909,7.14370115 1.39760113,7.80772599 0.838434806,8.69305015 C0.279478269,9.57862804 0,10.5443439 0,11.5909591 C0,13.0801305 0.525180827,14.3536695 1.57524878,15.4121256 C2.62535869,16.47092 3.88919962,17 5.36660373,17 L18.4000839,17 C19.669673,17 20.7537265,16.5470405 21.6522862,15.6416713 C22.5507201,14.736302 23,13.6436763 23,12.3635825 C22.9998741,11.2849968 22.6663547,10.3252014 21.9993579,9.48381568 Z M15.2191672,9.15801977 C15.1430985,9.23430947 15.0534774,9.2724966 14.9498007,9.2724966 L12.2664988,9.2724966 L12.2664988,13.5226446 C12.2664988,13.6271412 12.2286113,13.7177246 12.1527523,13.7941412 C12.0766835,13.8708115 11.9870625,13.9087872 11.8833858,13.9087872 L9.58302914,13.9087872 C9.47922652,13.9087872 9.38939572,13.8708538 9.31353674,13.7941412 C9.23784558,13.7177246 9.19974826,13.6271412 9.19974826,13.5226446 L9.19974826,9.2724966 L6.51640443,9.2724966 C6.40471382,9.2724966 6.31278515,9.23633935 6.24103799,9.16410941 C6.16916496,9.09162575 6.13329138,8.99901242 6.13329138,8.8864386 C6.13329138,8.78976552 6.17315091,8.69309243 6.25295389,8.59654622 L10.4576312,4.35874665 C10.5295043,4.28626298 10.621391,4.25006343 10.7331655,4.25006343 C10.8450239,4.25006343 10.9369107,4.28626298 11.0086998,4.35874665 L15.2253769,8.60859864 C15.2972919,8.68099773 15.3328718,8.77356876 15.3328718,8.88648089 C15.3328298,8.9908929 15.2949423,9.08177236 15.2191672,9.15801977 Z" id="Shape"></path>
        </g>
    </g>
</svg>