<?xml version="1.0" encoding="UTF-8"?>
<svg viewBox="0 0 16 16" version="1.1" xmlns="http://www.w3.org/2000/svg" xmlns:xlink="http://www.w3.org/1999/xlink">
            <defs>
        <linearGradient x1="50%" y1="0%" x2="50%" y2="100%" id="linearGradient-1">
            <stop stop-color="currentColor" stop-opacity="0.955899004" offset="0%"></stop>
            <stop stop-color="currentColor" offset="100%"></stop>
        </linearGradient>
        <path d="M11.9804033,6 C10.8721587,6 10.6130846,5.36334057 11.3872461,4.59241962 L12.2258427,3.75733333 C11.1351306,2.672 9.62906788,2 7.96433185,2 C4.8968707,2 2.36609859,4.28266667 1.98874953,7.23466667 C1.98874953,7.23466667 1.87341139,8 1.00337514,8 C0.449352056,8 0,7.552 0,7 C0,6.92466667 0.00866702779,6.85133333 0.0246676945,6.78 C0.615358973,2.94133333 3.94349765,0 7.96433185,0 C10.1837577,0 12.192508,0.895333333 13.6465686,2.34333333 C13.6886962,2.30138653 14.5809486,1.41296259 14.5809486,1.41296259 C15.364669,0.6326049 16,0.898260623 16,1.99791312 L16,5.50899482 C16,5.78016949 15.7711225,6 15.5068466,6 L11.9804033,6 Z M4.01959674,10 C5.12784134,10 5.38691543,10.6366594 4.61275388,11.4075804 L3.77415726,12.2426667 C4.86420268,13.3286667 6.37093212,14 8.03566815,14 C11.1031293,14 13.6339014,11.7173333 14.0112505,8.76533333 C14.0112505,8.76533333 14.1265886,8 14.9966249,8 C15.5506479,8 16,8.448 16,9 C16,9.076 15.991333,9.14933333 15.9753323,9.22 C15.384641,13.0586667 12.0565024,16 8.03566815,16 C5.81624234,16 3.80749198,15.1046667 2.35343139,13.6573333 L1.42329299,14.5832172 C0.637229978,15.3656847 0,15.1017394 0,14.0020869 L0,10.4910052 C0,10.2198305 0.228877497,10 0.493153419,10 L4.01959674,10 Z" id="path-2"></path>
    </defs>
    <g id="Symbols" stroke="none" stroke-width="1" fill="none" fill-rule="evenodd">
        <g id="Icon/Header-buttons/Sync">
            <g id="Group-2">
                <g id="Reload-#1-Icon">
                    <use fill="currentColor" xlink:href="#path-2"></use>
                    <use fill="url(#linearGradient-1)" xlink:href="#path-2"></use>
                </g>
            </g>
        </g>
    </g>
</svg>