<?xml version="1.0" encoding="UTF-8"?>
<svg viewBox="0 0 512 498" version="1.1" xmlns="http://www.w3.org/2000/svg" xmlns:xlink="http://www.w3.org/1999/xlink">
            <g id="Page-1" stroke="none" stroke-width="1" fill="none" fill-rule="evenodd">
        <g id="loader" fill="currentColor">
            <path d="M97.5883761,446.181379 C141.405621,479.72648 193.52524,497.454402 248.304385,497.452715 L248.307758,497.452715 C259.345548,497.452715 270.528373,496.710679 281.542553,495.246844 C347.406708,486.499248 405.924704,452.626976 446.311717,399.866507 C470.884924,367.768377 487.405351,329.857067 494.087051,290.230641 C495.249012,283.343195 490.606226,276.816649 483.71878,275.654687 L450.460375,270.045567 C447.148194,269.48904 443.758437,270.266492 441.024708,272.210964 C438.290979,274.155437 436.442634,277.105031 435.88442,280.413838 C430.793039,310.594479 418.1936,339.493421 399.443691,363.985679 C368.639065,404.225971 324.008954,430.062326 273.768036,436.733907 C265.345923,437.853708 256.800701,438.420354 248.373529,438.420354 C206.622181,438.420354 166.889509,424.896742 133.464146,399.30998 C93.2255398,368.505354 67.3891844,323.875243 60.7176033,273.637698 C54.0443358,223.403525 67.3352181,173.575787 98.1381575,133.335494 C134.29725,86.103196 189.29226,59.0154975 249.022811,59.0154975 C290.991711,59.0154975 330.788467,72.5003212 364.11433,98.009506 C375.160553,106.465347 385.076856,115.911132 393.839631,126.264225 L331.552428,115.268596 C328.253739,114.6834 324.852177,115.438927 322.101583,117.361476 C319.350989,119.285711 317.482407,122.221814 316.898897,125.525562 L311.035123,158.74012 C309.820882,165.619133 314.413075,172.179409 321.290403,173.39365 L470.760127,199.781474 C471.492045,199.91133 472.225649,199.973729 472.959253,199.973729 C475.536143,199.973729 478.070871,199.186158 480.212658,197.688594 C482.961565,195.764359 484.831834,192.828256 485.413658,189.524508 L511.799795,40.0547832 C513.015723,33.1757692 508.42353,26.6154936 501.544516,25.3995659 L468.329958,19.5357925 C461.440826,18.3164919 454.888982,22.9137442 453.676427,29.7927582 L442.571179,92.6972006 C430.113401,77.2459807 415.807279,63.246791 399.991786,51.1397939 C356.28922,17.6840746 304.100457,0 249.063286,0 C170.773395,0 98.6811932,35.5216158 51.2701318,97.4546652 C10.8848052,150.216821 -6.53955667,215.546373 2.20803965,281.410528 C10.9573224,347.279743 44.8312803,405.794366 97.5883761,446.181379 Z" id="Path"></path>
        </g>
    </g>
</svg>