<?xml version="1.0" encoding="UTF-8"?>
<svg width="36px" height="36px" viewBox="0 0 42 42" version="1.1" xmlns="http://www.w3.org/2000/svg" xmlns:xlink="http://www.w3.org/1999/xlink">
    <title>Logo</title>
    <defs>
        <linearGradient x1="50%" y1="0%" x2="50%" y2="100%" id="linearGradient-1">
            <stop stop-color="#132144" stop-opacity="0.85" offset="0%"></stop>
            <stop stop-color="#132144" offset="100%"></stop>
        </linearGradient>
        <path d="M24.7380624,1.42841202 C26.498595,2.42389809 29.0917027,5.95550345 28.0732128,13.5638613 C26.4048292,25.6993106 19.7345284,35.6604919 17.510017,35.6604919 C16.2166964,35.6604919 16.3056122,33.7643279 17.9739957,26.6947967 C20.1968905,17.4573179 23.2555936,4.32638259 11.2099291,4.32638259 C-1.57616145,4.32638259 -3.1523959,17.7291014 5.09413943,19.3598024 C3.88973464,13.1103621 7.68886384,7.22435316 11.3020782,7.22435316 C15.1933565,7.22435316 13.5265896,14.5593474 11.9487385,22.4394887 C10.0960568,31.5853195 7.96531111,42 15.3776547,42 C25.6627866,42 33.353194,23.4349748 34.7435137,13.5575408 C36.5088963,1.06498059 28.724723,-2.28490905 24.7380624,1.42841202 Z" id="path-2"></path>
    </defs>
    <g id="Logo" stroke="none" stroke-width="1" fill="none" fill-rule="evenodd">
        <g id="Path" transform="translate(3.000000, 0.000000)">
            <use fill="#FFFFFF" xlink:href="#path-2"></use>
            <use fill="url(#linearGradient-1)" xlink:href="#path-2"></use>
        </g>
    </g>
</svg>