<?xml version="1.0" encoding="UTF-8"?>
<svg viewBox="0 0 20 15" version="1.1" xmlns="http://www.w3.org/2000/svg" xmlns:xlink="http://www.w3.org/1999/xlink">
    <title>envelope-solid</title>
        <defs>
        <linearGradient x1="50%" y1="-2.48949813e-15%" x2="50%" y2="100%" id="linearGradient-1">
            <stop stop-color="currentColor" stop-opacity="0.85" offset="0%"></stop>
            <stop stop-color="currentColor" offset="100%"></stop>
        </linearGradient>
    </defs>
    <g id="Symbols" stroke="none" stroke-width="1" fill="none" fill-rule="evenodd">
        <g id="Artboard" fill="url(#linearGradient-1)" fill-rule="nonzero">
            <g id="envelope-solid">
                <path d="M19.6210938,4.953125 C19.7734375,4.83203125 20,4.9453125 20,5.13671875 L20,13.125 C20,14.1601562 19.1601562,15 18.125,15 L1.875,15 C0.83984375,15 0,14.1601562 0,13.125 L0,5.140625 C0,4.9453125 0.22265625,4.8359375 0.37890625,4.95703125 C1.25390625,5.63671875 2.4140625,6.5 6.3984375,9.39453125 C7.22265625,9.99609375 8.61328125,11.2617188 10,11.2539063 C11.3945312,11.265625 12.8125,9.97265625 13.6054688,9.39453125 C17.5898438,6.5 18.7460938,5.6328125 19.6210938,4.953125 Z M10,10 C10.90625,10.015625 12.2109375,8.859375 12.8671875,8.3828125 C18.0507812,4.62109375 18.4453125,4.29296875 19.640625,3.35546875 C19.8671875,3.1796875 20,2.90625 20,2.6171875 L20,1.875 C20,0.83984375 19.1601562,0 18.125,0 L1.875,0 C0.83984375,-1.11022302e-15 0,0.83984375 0,1.875 L0,2.6171875 C0,2.90625 0.1328125,3.17578125 0.359375,3.35546875 C1.5546875,4.2890625 1.94921875,4.62109375 7.1328125,8.3828125 C7.7890625,8.859375 9.09375,10.015625 10,10 Z" id="Shape"></path>
            </g>
        </g>
    </g>
</svg>