<svg viewBox="0 0 16 16" xmlns="http://www.w3.org/2000/svg" xmlns:xlink="http://www.w3.org/1999/xlink"><g fill="none" fill-rule="evenodd"><path d="M1.667 1.5C.747 1.5 0 2.309 0 3.306v9.388c0 .997.747 1.806 1.667 1.806h12.666c.92 0 1.667-.809 1.667-1.806V3.306c0-.997-.747-1.806-1.667-1.806H1.667zm.591 1C1.453 2.5 1 2.98 1 3.824v8.352c0 .843.453 1.324 1.258 1.324h11.484c.805 0 1.258-.48 1.258-1.324V3.824c0-.843-.453-1.324-1.258-1.324H2.258zm10.732 9.367H3.08c-.603 0-.897-.79-.457-1.23l3.587-4a.64.64 0 01.913 0l3.024 3.032c.26.263.673.256.926-.014l.457-.487a.635.635 0 01.94 0l.993 1.486c.42.448.12 1.213-.473 1.213zM11.898 3.9c.827 0 1.497.671 1.497 1.5a1.498 1.498 0 11-2.995 0c0-.829.67-1.5 1.498-1.5z" fill="currentColor"/></g></svg>
