<?xml version="1.0" encoding="UTF-8"?>
<svg viewBox="0 0 18 18" version="1.1"
  xmlns="http://www.w3.org/2000/svg"
  xmlns:xlink="http://www.w3.org/1999/xlink">
  <title>mobile</title>
  <defs>
    <linearGradient x1="50%" y1="0%" x2="50%" y2="100%" id="linearGradient-1">
      <stop stop-color="currentColor" stop-opacity="0.85" offset="0%"></stop>
      <stop stop-color="currentColor" offset="100%"></stop>
    </linearGradient>
  </defs>
  <g id="mobile" stroke="none" stroke-width="1" fill="none" fill-rule="evenodd">
    <path d="M13.765625,-7.10542736e-15 L12.75,-7.10542736e-15 L6.25,-7.10542736e-15 L5.234375,-7.10542736e-15 C4.0018125,-7.10542736e-15 3,0.92475 3,2.0625 L3,15.9375 C3,17.07525 4.0018125,18 5.234375,18 L13.765625,18 C14.9981875,18 16,17.07525 16,15.9375 L16,2.0625 C16,0.92475 14.9981875,-7.10542736e-15 13.765625,-7.10542736e-15 Z M14,15.3 C14,15.6864 13.664,16 13.25,16 L5.75,16 C5.336,16 5,15.6864 5,15.3 L5,2.7 C5,2.3136 5.336,2 5.75,2 L6.125,2 C6.539,2 6.875,2.3136 6.875,2.7 C6.875,3.0864 7.211,3.4 7.625,3.4 L11.375,3.4 C11.789,3.4 12.125,3.0864 12.125,2.7 C12.125,2.3136 12.461,2 12.875,2 L13.25,2 C13.664,2 14,2.3136 14,2.7 L14,15.3 Z" id="Shape" fill="url(#linearGradient-1)" fill-rule="nonzero"></path>
  </g>
</svg>
