<?xml version="1.0" encoding="UTF-8"?>
<svg viewBox="0 0 16 16" version="1.1" xmlns="http://www.w3.org/2000/svg" xmlns:xlink="http://www.w3.org/1999/xlink">
            <defs>
        <linearGradient x1="50%" y1="0%" x2="50%" y2="100%" id="linearGradient-1">
            <stop stop-color="currentColor" stop-opacity="0.85" offset="0%"></stop>
            <stop stop-color="currentColor" offset="100%"></stop>
        </linearGradient>
        <path d="M7.22455364,13.76126 C4.78990237,13.76126 2.47607746,13.4505637 1.39381844,13.2606937 C0.353848643,13.0785911 0,12.5055289 0,12.0783214 C0,11.4491612 0.251146232,11.216139 0.635201467,10.8363989 C1.0192567,10.457522 1.59577108,10.3884783 1.69588435,7.8709747 C2.01434813,1.86590431 4.82442419,1.4481903 5.47688656,1.17978316 C6.12848589,0.911376018 6.33043853,0.675764604 6.44349749,0.497114192 C6.55741949,0.318463779 6.63940881,0 7.22455364,0 C7.80883543,0 7.89082475,0.318463779 8.00474675,0.497114192 C8.11866875,0.675764604 8.31975835,0.911376018 8.97222072,1.17978316 C9.62382006,1.4481903 12.4347592,1.86590431 12.7532229,7.8709747 C12.8524732,10.3884783 13.4289875,10.457522 13.8130428,10.8363989 C14.1979611,11.216139 14.4491073,11.4491612 14.4491073,12.0783214 C14.4491073,12.5055289 14.0943956,13.0785911 13.0552889,13.2606937 C11.9721668,13.4505637 9.65834187,13.76126 7.22455364,13.76126 Z M7.22455364,16 C6.02923567,16 5.38022547,15.1041588 5.24731647,14.917741 C5.11354442,14.7313232 5.18258806,14.4680943 5.45789956,14.4680943 C5.73234802,14.4680943 6.46421058,14.5146987 7.22455364,14.5146987 C7.9848967,14.5146987 8.71589622,14.4680943 8.99034468,14.4680943 C9.26565618,14.4680943 9.33469982,14.7313232 9.20179082,14.917741 C9.06801877,15.1041588 8.41900858,16 7.22455364,16 Z" id="path-2"></path>
    </defs>
    <g id="Icon/Header-buttons/Notifications" stroke="none" stroke-width="1" fill="none" fill-rule="evenodd">
        <g id="Group-20">
            <rect id="Rectangle-2" x="0" y="0" width="16" height="16"></rect>
            <g id="Group" transform="translate(1.000000, 0.000000)">
                <g id="bell">
                    <use fill="currentColor" xlink:href="#path-2"></use>
                    <use fill="url(#linearGradient-1)" xlink:href="#path-2"></use>
                </g>
            </g>
        </g>
    </g>
</svg>