<?xml version="1.0" encoding="UTF-8"?>
<svg width="16px" height="16px" viewBox="0 0 16 16" version="1.1" xmlns="http://www.w3.org/2000/svg" xmlns:xlink="http://www.w3.org/1999/xlink">
    <!-- Generator: Sketch 59.1 (86144) - https://sketch.com -->
    <title>Icon/System/Pause</title>
    <desc>Created with Sketch.</desc>
    <defs>
        <linearGradient x1="50%" y1="0%" x2="50%" y2="100%" id="linearGradient-1">
            <stop stop-color="#6E849A" stop-opacity="0.85" offset="0%"></stop>
            <stop stop-color="#6E849A" offset="100%"></stop>
        </linearGradient>
        <path d="M3.84615385,1 C4.86575646,1 5.69230769,1.78350169 5.69230769,2.75 L5.69230769,13.25 C5.69230769,14.2164983 4.86575646,15 3.84615385,15 C2.82655123,15 2,14.2164983 2,13.25 L2,2.75 C2,1.78350169 2.82655123,1 3.84615385,1 Z M12.1538462,1 C13.1734488,1 14,1.78350169 14,2.75 L14,13.25 C14,14.2164983 13.1734488,15 12.1538462,15 C11.1342435,15 10.3076923,14.2164983 10.3076923,13.25 L10.3076923,2.75 C10.3076923,1.78350169 11.1342435,1 12.1538462,1 Z" id="path-2"></path>
    </defs>
    <g id="Icon/System/Pause" stroke="none" stroke-width="1" fill="none" fill-rule="evenodd">
        <g id="Group-4">
            <rect id="Rectangle-4" x="0" y="0" width="16" height="16"></rect>
            <g id="Combined-Shape">
                <use fill="#FFFFFF" xlink:href="#path-2"></use>
                <use fill="url(#linearGradient-1)" xlink:href="#path-2"></use>
            </g>
        </g>
    </g>
</svg>