<?xml version="1.0" encoding="UTF-8"?>
<svg  viewBox="0 0 16 16" version="1.1" xmlns="http://www.w3.org/2000/svg" xmlns:xlink="http://www.w3.org/1999/xlink">
            <defs>
        <path d="M15.3588452,8.68960788 L9.57375198,9.11143772 C9.32628208,9.1294824 9.1294824,9.32628208 9.11143772,9.57375198 L8.68960788,15.3588452 C8.66325565,15.7202472 8.36236152,16 8,16 L8,16 C7.63763848,16 7.33674435,15.7202472 7.31039212,15.3588452 L6.88856228,9.57375198 C6.8705176,9.32628208 6.67371792,9.1294824 6.42624802,9.11143772 L0.6411548,8.68960788 C0.279752769,8.66325565 4.43764871e-17,8.36236152 0,8 L0,8 C-4.43764871e-17,7.63763848 0.279752769,7.33674435 0.6411548,7.31039212 L6.42624802,6.88856228 C6.67371792,6.8705176 6.8705176,6.67371792 6.88856228,6.42624802 L7.31039212,0.6411548 C7.33674435,0.279752769 7.63763848,6.65647307e-17 8,0 L8,0 C8.36236152,-6.65647307e-17 8.66325565,0.279752769 8.68960788,0.6411548 L9.11143772,6.42624802 C9.1294824,6.67371792 9.32628208,6.8705176 9.57375198,6.88856228 L15.3588452,7.31039212 C15.7202472,7.33674435 16,7.63763848 16,8 L16,8 C16,8.36236152 15.7202472,8.66325565 15.3588452,8.68960788 Z" id="path-1"></path>
    </defs>
    <g id="Symbols" stroke="none" stroke-width="1" fill="none" fill-rule="evenodd">
        <g id="Icon/System/Plus" fill="currentColor">
            <g id="Group">
                <g id="Shape">
                    <g>
                        <use xlink:href="#path-1"></use>
                        <use xlink:href="#path-1"></use>
                    </g>
                </g>
            </g>
        </g>
    </g>
</svg>