<svg xmlns="http://www.w3.org/2000/svg" xmlns:xlink="http://www.w3.org/1999/xlink" viewBox="0 0 16 16">
    <defs>
        <path id="prefix__a" d="M7.731 8.34l-.488 4.56C7.176 13.527 6.64 14 6 14c-.64 0-1.176-.474-1.243-1.1L4.27 8.34C4.187 7.578 3.544 7 2.777 7H.692C.31 7 0 6.681 0 6.288c0-.183.068-.36.191-.492L5.248.332c.396-.428 1.053-.444 1.468-.037l.036.037 5.057 5.464c.264.285.253.736-.024 1.007-.129.127-.3.197-.477.197H9.223c-.767 0-1.41.578-1.492 1.34z"/>
    </defs>
    <g fill="none" fill-rule="evenodd">
        <path d="M0 0H16V16H0z"/>
        <g transform="rotate(90 6.5 8.5)">
            <use fill="#FFF" xlink:href="#prefix__a"/>
            <use fill="currentColor" xlink:href="#prefix__a"/>
        </g>
    </g>
</svg>
