<svg viewBox="0 0 16 16" xmlns="http://www.w3.org/2000/svg">
<path fill="currentColor" d="M11.8642 6.5C10.9861 6.5 10.5473 5.43757 11.1695 4.818C10.3515 4.004 9.222 3.5 7.9735 3.5C5.673 3.5 3.775 5.212 3.492 7.426C3.492 7.426 3.4055 8 2.753 8C2.3375 8 2.0005 7.664 2.0005 7.25C2.0005 7.1935 2.007 7.1385 2.019 7.085C2.462 4.206 4.958 2 7.9735 2C9.638 2 11.1445 2.6715 12.235 3.7575C12.8875 3.10773 14 3.56992 14 4.49079V6.07703C14 6.31063 13.8106 6.5 13.577 6.5H11.8642ZM4.13584 9.5C5.01387 9.5 5.45265 10.5624 4.8305 11.182C5.648 11.9965 6.778 12.5 8.0265 12.5C10.327 12.5 12.225 10.788 12.508 8.574C12.508 8.574 12.5945 8 13.247 8C13.6625 8 13.9995 8.336 13.9995 8.75C13.9995 8.807 13.993 8.862 13.981 8.915C13.538 11.794 11.042 14 8.0265 14C6.362 14 4.8555 13.3285 3.765 12.243C3.11238 12.8927 2 12.4304 2 11.5096V9.92297C2 9.68937 2.18937 9.5 2.42296 9.5H4.13584Z"/>
</svg>
