<?xml version="1.0" encoding="UTF-8"?>
<svg viewBox="0 0 16 16" version="1.1" xmlns="http://www.w3.org/2000/svg" xmlns:xlink="http://www.w3.org/1999/xlink">
            <defs>
        <linearGradient x1="50%" y1="0%" x2="50%" y2="100%" id="linearGradient-1">
            <stop stop-color="currentColor" stop-opacity="0.85" offset="0%"></stop>
            <stop stop-color="currentColor" offset="100%"></stop>
        </linearGradient>
    </defs>
    <g id="Symbols" stroke="none" stroke-width="1" fill="none" fill-rule="evenodd">
        <g id="left-arrow-(2)" fill="url(#linearGradient-1)">
            <g id="Group-37">
                <path d="M8,15.9452991 C12.3760684,15.9452991 15.9452991,12.3897436 15.9452991,8 C15.9452991,3.61025641 12.3897436,0.0683760684 8,0.0683760684 C3.61025641,0.0683760684 0.0683760684,3.62393162 0.0683760684,8 C0.0683760684,12.3760684 3.62393162,15.9452991 8,15.9452991 Z M8,1.17606838 C11.7606838,1.17606838 14.8239316,4.23931624 14.8239316,8 C14.8239316,11.7606838 11.7606838,14.8239316 8,14.8239316 C4.23931624,14.8239316 1.17606838,11.7606838 1.17606838,8 C1.17606838,4.23931624 4.23931624,1.17606838 8,1.17606838 Z" id="Shape" fill-rule="nonzero"></path>
                <path d="M9.14871795,12.1299145 C9.28547009,12.1299145 9.43589744,12.0752137 9.54529915,11.965812 C9.76410256,11.7470085 9.76410256,11.391453 9.54529915,11.1726496 L7.125,7.95897436 L9.54529915,4.74529915 C9.76410256,4.52649573 9.76410256,4.17094017 9.54529915,3.95213675 C9.32649573,3.73333333 8.97094017,3.73333333 8.75213675,3.95213675 L5.14188034,7.56239316 C5.03247863,7.67179487 4.97777778,7.80854701 4.97777778,7.95897436 C4.97777778,8.10940171 5.03247863,8.24615385 5.14188034,8.35555556 L8.75213675,11.965812 C8.86153846,12.0752137 8.9982906,12.1299145 9.14871795,12.1299145 Z" id="Path"></path>
            </g>
        </g>
    </g>
</svg>