<?xml version="1.0" encoding="UTF-8"?>
<svg width="14px" height="14px" viewBox="0 0 13 15" version="1.1" xmlns="http://www.w3.org/2000/svg" xmlns:xlink="http://www.w3.org/1999/xlink">
    <title>cute-rocket-launching</title>
    <g id="Symbols" stroke="none" stroke-width="1" fill="none" fill-rule="evenodd">
        <g id="cute-rocket-launching" fill="#FFFFFF" fill-rule="nonzero">
            <path d="M1.1253432,8.71715666 C2.05472897,6.96407278 2.60141725,5.83465255 3,5 C1.46822948,5.17752878 0,7.67516447 0,7.67516447 L1.01104777,9 C1.04038648,8.90203536 1.07784431,8.80689762 1.1253432,8.71715666 Z" id="Shape"></path>
            <path d="M5,12.9896054 L6.32430244,14 C6.32430244,14 8.82238102,12.5318114 9,11 C8.16542213,11.3984467 7.036115,11.9449674 5.28208259,12.8746372 C5.19335021,12.9216286 5.09875718,12.9599906 5,12.9896054 Z" id="Shape"></path>
            <path d="M3.79520823,12.3229209 C3.61189058,12.3970364 3.43172358,12.4757971 3.24388724,12.5385899 C2.74218887,12.7063555 2.22548349,12.8197061 1.70160626,12.8920382 C1.48201476,12.9223563 1.26039193,12.9480707 1.038396,12.9649094 C1.04051024,12.9374946 1.04254158,12.9100383 1.04486311,12.8826649 C1.09067179,12.3486353 1.17188375,11.8173845 1.30309143,11.2973734 C1.36631156,11.0464093 1.44698459,10.8024545 1.5335858,10.5588315 C1.58743692,10.4073655 1.65463681,10.2624111 1.72241708,10.1174566 L1.60493128,10 C1.34363522,10.1756043 1.1163744,10.3974945 0.923521911,10.6485415 C0.638015658,11.0202802 0.424020699,11.4414154 0.274406633,11.8851958 C0.113682407,12.3616999 0.0178365441,12.8663653 0.00291244779,13.3694547 C0.00079820081,13.4401278 -0.00405213049,13.5123354 0.00689220681,13.5824693 C0.0209871867,13.6730503 0.060743321,13.7587787 0.120481162,13.828249 C0.179597166,13.8969728 0.257409746,13.9488577 0.343637858,13.9766873 C0.416019725,14 0.48881615,14.0004524 0.563892646,13.9998717 C1.02040417,13.9960561 1.48400464,13.9167148 1.92099047,13.7868157 C2.72021728,13.549248 3.52707197,13.1023155 4,12.3960825 L3.88566484,12.2817779 C3.85569228,12.2958793 3.82563681,12.3096905 3.79520823,12.3229209 Z" id="Shape"></path>
            <path d="M13.8609999,0.139134428 C13.8609999,0.139134428 13.860911,0.13908999 13.8608222,0.139001115 C13.7716824,0.0499035332 13.6508594,0 13.5251039,0 C13.5219933,0 13.5188383,0 13.5157278,0 C11.9866655,0.0300843205 8.21413424,0.316085335 6.21066717,2.31969219 C5.30118395,3.22919853 5.0055919,3.70263775 4.35770675,4.74016909 C3.8911228,5.48716676 3.25234714,6.51034473 2.08490965,8.19071178 C1.95377734,8.37957199 1.9765733,8.63522206 2.1391667,8.79773071 L5.2020904,11.8607767 C5.29398523,11.9527183 5.41569698,12 5.5382086,12 C5.63236969,12 5.72697514,11.9720931 5.80909391,11.9150796 C7.49004038,10.7473458 8.51279241,10.1086872 9.25950449,9.64226914 C10.2969206,8.99441196 10.7704367,8.69872353 11.6800976,7.78912832 C13.6871196,5.78196644 13.9711137,2.01182783 14,0.48401539 C14.0024415,0.355012757 13.9522282,0.230498332 13.8609999,0.139134428 Z M10.5607254,5.56066285 C9.9748993,6.14644572 9.0252168,6.14644572 8.43939069,5.56066285 C7.85348015,4.97483778 7.85356458,4.02519916 8.43947512,3.4394163 C9.0252168,2.85359123 9.9748993,2.8535068 10.5607254,3.43928966 C11.1463826,4.02507252 11.1464671,4.97492221 10.5607254,5.56066285 Z" id="Shape"></path>
        </g>
    </g>
</svg>
