<?xml version="1.0" encoding="UTF-8"?>
<svg width="64px" height="48px" viewBox="0 0 64 48" version="1.1" xmlns="http://www.w3.org/2000/svg" xmlns:xlink="http://www.w3.org/1999/xlink">
    <!-- Generator: Sketch 57.1 (83088) - https://sketch.com -->
    <title>Icon/Large/Safe</title>
    <desc>Created with Sketch.</desc>
    <g id="Symbols" stroke="none" stroke-width="1" fill="none" fill-rule="evenodd">
        <g id="Editor/Products_None" transform="translate(-208.000000, -161.000000)">
            <g id="Group" transform="translate(52.000000, 153.000000)">
                <g id="Icon/Large/Safe" transform="translate(156.000000, 0.000000)">
                    <g id="Group-2">
                        <rect id="Rectangle-4" x="0" y="0" width="64" height="64"></rect>
                        <g id="4.-safe,-bank,-protection,-save,-finance,-money" transform="translate(0.000000, 8.000000)" fill-rule="nonzero">
                            <polygon id="Rectangle-path" fill="#5C9EFF" points="2.5305 44.478875 11.52125 44.478875 11.52125 46.47675 2.5305 46.47675"></polygon>
                            <polygon id="Rectangle-path" fill="#5C9EFF" points="52.47875 44.478875 61.4695 44.478875 61.4695 46.47675 52.47875 46.47675"></polygon>
                            <rect id="Rectangle-path" fill="#94C1FF" x="0.532625" y="3.52125" width="62.934875" height="40.957625"></rect>
                            <rect id="Rectangle-path" fill="#5C9EFF" x="10.52225" y="13.510875" width="16.982375" height="20.97825"></rect>
                            <polygon id="Shape" fill="#5C9EFF" points="27.504625 13.510875 10.52225 13.510875 4.5285 7.517125 27.504625 7.517125"></polygon>
                            <polygon id="Shape" fill="#5C9EFF" points="27.504625 34.489125 10.52225 34.489125 4.5285 40.483 27.504625 40.483"></polygon>
                            <polygon id="Shape" fill="#5C9EFF" points="10.52225 34.489125 4.5285 40.483 4.5285 7.517125 10.52225 13.510875"></polygon>
                            <polygon id="Shape" fill="#94C1FF" points="59.4715 7.517125 34.497375 0.524375 34.497375 47.47575 59.4715 40.483"></polygon>
                            <path d="M44.487,24 C44.487,26.758875 43.14475,28.99475 41.490125,28.99475 C39.8355,28.99475 38.49325,26.758875 38.49325,24 C38.49325,21.241125 39.835625,19.00525 41.49025,19.00525 C43.144875,19.00525 44.487,21.24125 44.487,24 Z" id="Shape" fill="#5C9EFF"></path>
                            <polygon id="Rectangle-path" fill="#D7E9FF" points="27.504625 0.524375 34.497375 0.524375 34.497375 47.47575 27.504625 47.47575"></polygon>
                            <path d="M51.479875,24 C51.479875,25.3765 42.1975,26.497375 41.58975,26.497375 C40.983875,26.497375 40.49125,25.3765 40.49125,24 C40.49125,22.6205 40.983875,21.502625 41.58975,21.502625 C42.1975,21.502625 51.479875,22.620625 51.479875,24 Z" id="Shape" fill="#5C9EFF"></path>
                            <path d="M42.489125,24 C42.489125,22.936125 42.78375,22.03375 43.195375,21.67375 C42.347625,21.5645 41.730125,21.502625 41.589625,21.502625 C40.98375,21.502625 40.491125,22.6205 40.491125,24 C40.491125,25.3765 40.98375,26.497375 41.589625,26.497375 C41.730125,26.497375 42.3475,26.435 43.195375,26.32575 C42.783875,25.965875 42.489125,25.062375 42.489125,24 Z" id="Shape" fill="#2287FF"></path>
                            <path d="M41.58975,21.502625 C41.45125,21.502625 41.3195,21.5675 41.1975,21.67375 C44.012,22.036625 49.481875,22.94 49.481875,24 C49.481875,25.058375 44.011875,25.962875 41.1975,26.32575 C41.3195,26.433 41.451125,26.497375 41.58975,26.497375 C42.1975,26.497375 51.479875,25.3765 51.479875,24 C51.479875,22.620625 42.1975,21.502625 41.58975,21.502625 Z" id="Shape" fill="#94C1FF"></path>
                            <path d="M32.4995,16.00825 C32.4995,17.38825 31.83025,18.506625 31.005,18.506625 C30.17975,18.506625 29.511375,17.388125 29.511375,16.00825 C29.511375,14.628875 30.17975,13.510375 31.005,13.510375 C31.83025,13.510375 32.4995,14.628875 32.4995,16.00825 Z" id="Shape" fill="#5C9EFF"></path>
                            <path d="M30.510375,16.00825 C30.510375,14.9235 30.925875,14.008875 31.5045,13.664 C31.3475,13.570375 31.180625,13.510375 31.005,13.510375 C30.179625,13.510375 29.511375,14.628875 29.511375,16.00825 C29.511375,17.38825 30.17975,18.506625 31.005,18.506625 C31.1805,18.506625 31.347375,18.446625 31.5045,18.353 C30.925875,18.008125 30.510375,17.093625 30.510375,16.00825 Z" id="Shape" fill="#2287FF"></path>
                            <path d="M32.4995,23.999625 C32.4995,25.379625 31.83025,26.4985 31.005,26.4985 C30.17975,26.4985 29.511375,25.379625 29.511375,23.999625 C29.511375,22.620125 30.17975,21.50175 31.005,21.50175 C31.83025,21.50175 32.4995,22.620125 32.4995,23.999625 Z" id="Shape" fill="#5C9EFF"></path>
                            <path d="M30.510375,24 C30.510375,22.91525 30.925875,22.000625 31.5045,21.65575 C31.3475,21.562125 31.180625,21.502125 31.005,21.502125 C30.179625,21.502125 29.511375,22.6205 29.511375,24 C29.511375,25.380375 30.17975,26.498375 31.005,26.498375 C31.1805,26.498375 31.347375,26.438875 31.5045,26.34525 C30.925875,25.999875 30.510375,25.085875 30.510375,24 Z" id="Shape" fill="#2287FF"></path>
                            <path d="M32.4995,31.990875 C32.4995,33.37125 31.83025,34.489125 31.005,34.489125 C30.17975,34.489125 29.511375,33.37125 29.511375,31.990875 C29.511375,30.6115 30.17975,29.4935 31.005,29.4935 C31.83025,29.4935 32.4995,30.6115 32.4995,31.990875 Z" id="Shape" fill="#5C9EFF"></path>
                            <path d="M30.510375,31.991875 C30.510375,30.907 30.925875,29.992 31.5045,29.647625 C31.3475,29.553875 31.180625,29.4935 31.005,29.4935 C30.179625,29.4935 29.511375,30.6125 29.511375,31.991875 C29.511375,33.37125 30.17975,34.490125 31.005,34.490125 C31.1805,34.490125 31.347375,34.42975 31.5045,34.336125 C30.925875,33.99175 30.510375,33.0765 30.510375,31.991875 Z" id="Shape" fill="#2287FF"></path>
                            <g id="Group" opacity="0.3" transform="translate(33.375000, 0.500000)" fill="#FFFFFF">
                                <g id="Rectangle-path">
                                    <polygon points="0.1235 0.024375 1.122375 0.024375 1.122375 46.97575 0.1235 46.97575"></polygon>
                                </g>
                            </g>
                            <polygon id="Rectangle-path" fill="#94C1FF" points="27.504625 0.524375 28.503625 0.524375 28.503625 47.47575 27.504625 47.47575"></polygon>
                            <polygon id="Shape" fill="#2287FF" points="4.5285 40.483 27.504625 40.483 27.504625 7.517125"></polygon>
                            <g id="safe_x2C__bank_x2C__protection_x2C__save_x2C__finance_x2C__money" fill="#116FFF">
                                <path d="M34.497375,47.97525 L27.504625,47.97525 C27.228625,47.97525 27.005125,47.751875 27.005125,47.47575 L27.005125,0.524375 C27.005125,0.248375 27.228625,0.024875 27.504625,0.024875 L34.497375,0.024875 C34.7735,0.024875 34.9968751,0.24825 34.9968751,0.524375 L34.9968751,47.47575 C34.997,47.751875 34.7735,47.97525 34.497375,47.97525 Z M28.004125,46.976375 L33.997875,46.976375 L33.997875,1.02375 L28.004125,1.02375 L28.004125,46.976375 L28.004125,46.976375 Z" id="Shape"></path>
                                <path d="M31.001125,26.997 C29.881125,26.997 29.00325,25.681 29.00325,24.000125 C29.00325,22.31975 29.881125,21.00325 31.001125,21.00325 C32.121,21.00325 32.999,22.31975 32.999,24.000125 C32.999,25.680875 32.121,26.997 31.001125,26.997 Z M31.001125,22.002125 C30.529875,22.002125 30.002125,22.856625 30.002125,24 C30.002125,25.143375 30.53,25.997875 31.001125,25.997875 C31.47225,25.997875 32,25.143375 32,24 C32,22.856625 31.47225,22.002125 31.001125,22.002125 Z" id="Shape"></path>
                                <path d="M31.001125,34.988625 C29.881125,34.988625 29.00325,33.67175 29.00325,31.990875 C29.00325,30.311 29.881125,28.994875 31.001125,28.994875 C32.121,28.994875 32.999,30.310875 32.999,31.990875 C32.999,33.67175 32.121,34.988625 31.001125,34.988625 Z M31.001125,29.993875 C30.529875,29.993875 30.002125,30.8485 30.002125,31.990875 C30.002125,33.135125 30.53,33.98975 31.001125,33.98975 C31.47225,33.98975 32,33.135125 32,31.990875 C32,30.8485 31.47225,29.993875 31.001125,29.993875 Z" id="Shape"></path>
                                <path d="M31.001125,19.00525 C29.881125,19.00525 29.00325,17.68875 29.00325,16.00825 C29.00325,14.327875 29.881125,13.011375 31.001125,13.011375 C32.121,13.011375 32.999,14.327875 32.999,16.00825 C32.999,17.68875 32.121,19.00525 31.001125,19.00525 Z M31.001125,14.010375 C30.529875,14.010375 30.002125,14.865 30.002125,16.00825 C30.002125,17.151625 30.53,18.006125 31.001125,18.006125 C31.47225,18.006125 32,17.151625 32,16.00825 C32,14.865 31.47225,14.010375 31.001125,14.010375 Z" id="Shape"></path>
                                <path d="M34.497375,47.97525 C34.390125,47.97525 34.28375,47.940125 34.196,47.87375 C34.071125,47.779125 33.997875,47.63175 33.997875,47.475625 L33.997875,0.524375 C33.997875,0.36825 34.071125,0.221 34.196,0.126375 C34.32075,0.03225 34.48375,0.001 34.632,0.043375 L59.606125,7.036125 C59.82175,7.096625 59.971,7.29325 59.971,7.517125 L59.971,40.483125 C59.971,40.7075 59.82175,40.9035 59.606125,40.964125 L34.632,47.95675 C34.588125,47.969375 34.542375,47.97525 34.497375,47.97525 Z M34.997,1.182875 L34.997,46.81725 L58.97225,40.1045 L58.97225,7.896125 L34.997,1.182875 Z" id="Shape"></path>
                                <path d="M26.50575,4.02075 L0.532625,4.02075 C0.256625,4.02075 0.033125,3.797375 0.033125,3.52125 C0.033125,3.24525 0.256625,3.02175 0.532625,3.02175 L26.50575,3.02175 C26.78175,3.02175 27.00525,3.24525 27.00525,3.52125 C27.00525,3.797375 26.78175,4.02075 26.50575,4.02075 Z" id="Shape"></path>
                                <path d="M26.50575,44.978375 L0.532625,44.978375 C0.256625,44.978375 0.033125,44.755 0.033125,44.478875 C0.033125,44.20275 0.256625,43.979375 0.532625,43.979375 L26.50575,43.979375 C26.78175,43.979375 27.00525,44.20275 27.00525,44.478875 C27.00525,44.755 26.78175,44.978375 26.50575,44.978375 Z" id="Shape"></path>
                                <path d="M0.532625,44.978375 C0.256625,44.978375 0.033125,44.755 0.033125,44.478875 L0.033125,3.52125 C0.033125,3.24525 0.256625,3.02175 0.532625,3.02175 C0.80875,3.02175 1.032125,3.24525 1.032125,3.52125 L1.032125,44.478875 C1.032125,44.755 0.80875,44.978375 0.532625,44.978375 Z" id="Shape"></path>
                                <path d="M63.4675,4.02075 L50.481,4.02075 C50.204875,4.02075 49.9815,3.797375 49.9815,3.52125 C49.9815,3.24525 50.204875,3.02175 50.481,3.02175 L63.4675,3.02175 C63.7435,3.02175 63.966875,3.24525 63.966875,3.52125 C63.966875,3.797375 63.7435,4.02075 63.4675,4.02075 Z" id="Shape"></path>
                                <path d="M63.4675,44.978375 C63.191375,44.978375 62.968,44.755 62.968,44.478875 L62.968,3.52125 C62.968,3.24525 63.191375,3.02175 63.4675,3.02175 C63.7435,3.02175 63.966875,3.24525 63.966875,3.52125 L63.966875,44.478875 C63.966875,44.755 63.7435,44.978375 63.4675,44.978375 Z" id="Shape"></path>
                                <path d="M63.4675,44.978375 L50.481,44.978375 C50.204875,44.978375 49.9815,44.755 49.9815,44.478875 C49.9815,44.20275 50.204875,43.979375 50.481,43.979375 L63.4675,43.979375 C63.7435,43.979375 63.966875,44.20275 63.966875,44.478875 C63.966875,44.755 63.7435,44.978375 63.4675,44.978375 Z" id="Shape"></path>
                                <path d="M26.50575,40.9825 L4.5285,40.9825 C4.2525,40.9825 4.029,40.759 4.029,40.483 C4.029,40.206875 4.252375,39.9835 4.5285,39.9835 L26.50575,39.9835 C26.78175,39.9835 27.00525,40.206875 27.00525,40.483 C27.00525,40.759 26.78175,40.9825 26.50575,40.9825 Z" id="Shape"></path>
                                <path d="M4.5285,40.9825 C4.2525,40.9825 4.029,40.759 4.029,40.483 L4.029,7.517125 C4.029,7.241125 4.252375,7.017625 4.5285,7.017625 C4.804625,7.017625 5.028,7.241 5.028,7.517125 L5.028,40.483125 C5.028,40.759 4.804625,40.9825 4.5285,40.9825 Z" id="Shape"></path>
                                <path d="M26.50575,8.016625 L4.5285,8.016625 C4.2525,8.016625 4.029,7.79325 4.029,7.517125 C4.029,7.241125 4.252375,7.017625 4.5285,7.017625 L26.50575,7.017625 C26.78175,7.017625 27.00525,7.241 27.00525,7.517125 C27.00525,7.79325 26.78175,8.016625 26.50575,8.016625 Z" id="Shape"></path>
                                <path d="M41.48925,29.494375 C39.52925,29.494375 37.993875,27.08075 37.993875,24 C37.993875,20.91925 39.52925,18.505625 41.48925,18.505625 C41.765375,18.505625 41.98875,18.729 41.98875,19.005125 C41.98875,19.281125 41.765375,19.504625 41.48925,19.504625 C40.136125,19.504625 38.99275,21.563 38.99275,24 C38.99275,26.437 40.136,28.49525 41.48925,28.49525 C41.765375,28.49525 41.98875,28.71875 41.98875,28.99475 C41.98875,29.271 41.765375,29.494375 41.48925,29.494375 Z" id="Shape"></path>
                                <path d="M41.58975,26.997 C40.541,26.997 39.99175,25.48975 39.99175,24.000125 C39.99175,22.510875 40.541125,21.00325 41.58975,21.00325 C41.693125,21.00325 51.979375,21.8885 51.979375,24.000125 C51.979375,26.112125 41.693125,26.997 41.58975,26.997 Z M41.58975,22.002125 C41.45125,22.022625 40.99075,22.686 40.99075,24 C40.99075,25.309125 41.45025,25.9755 41.59075,25.997875 C42.703875,25.996875 50.066375,24.9005 50.9405,23.9995 C50.06825,23.099125 42.701875,22.002625 41.58975,22.002125 Z" id="Shape"></path>
                                <path d="M43.490125,20.78075 C43.329125,20.78075 43.171125,20.703125 43.0745,20.558875 C42.619875,19.879375 42.057,19.50475 41.48925,19.50475 C41.213125,19.50475 40.98975,19.281375 40.98975,19.00525 C40.98975,18.729125 41.213125,18.50575 41.48925,18.50575 C42.401375,18.50575 43.258875,19.037375 43.905625,20.003625 C44.058875,20.232875 43.99725,20.543125 43.768,20.696375 C43.68225,20.753375 43.58575,20.78075 43.490125,20.78075 Z" id="Shape"></path>
                                <path d="M41.48925,29.494375 C41.213125,29.494375 40.98975,29.271 40.98975,28.994875 C40.98975,28.718875 41.213125,28.495375 41.48925,28.495375 C42.057,28.495375 42.619875,28.12075 43.0745,27.44175 C43.228625,27.2115 43.537875,27.151125 43.768125,27.30425 C43.997375,27.457375 44.058875,27.767625 43.90575,27.996875 C43.258875,28.96275 42.401375,29.494375 41.48925,29.494375 Z" id="Shape"></path>
                                <path d="M42.490125,24.999 C42.214125,24.999 41.99075,24.775625 41.99075,24.5 L41.98975,23.501125 C41.98975,23.225 42.213125,23.001625 42.488125,23.001125 C42.489125,23.001125 42.489125,23.001125 42.489125,23.001125 C42.76525,23.001125 42.988625,23.2245 42.988625,23.500125 L42.989625,24.499 C42.989625,24.775125 42.76625,24.9985 42.490125,24.999 L42.490125,24.999 Z" id="Shape"></path>
                                <path d="M2.5305,46.976375 C2.2545,46.976375 2.031,46.752875 2.031,46.476875 L2.031,45.477875 C2.031,45.201875 2.2545,44.9785 2.5305,44.9785 C2.806625,44.9785 3.03,45.201875 3.03,45.477875 L3.03,46.476875 C3.03,46.75275 2.806625,46.976375 2.5305,46.976375 Z" id="Shape"></path>
                                <path d="M11.52125,46.976375 L2.5305,46.976375 C2.2545,46.976375 2.031,46.752875 2.031,46.476875 C2.031,46.20075 2.2545,45.977375 2.5305,45.977375 L11.52125,45.977375 C11.79725,45.977375 12.02075,46.20075 12.02075,46.476875 C12.02075,46.75275 11.79725,46.976375 11.52125,46.976375 Z" id="Shape"></path>
                                <path d="M11.52125,46.976375 C11.245125,46.976375 11.02175,46.752875 11.02175,46.476875 L11.02175,45.477875 C11.02175,45.201875 11.245125,44.9785 11.52125,44.9785 C11.79725,44.9785 12.02075,45.201875 12.02075,45.477875 L12.02075,46.476875 C12.02075,46.75275 11.79725,46.976375 11.52125,46.976375 Z" id="Shape"></path>
                                <path d="M52.47875,46.976375 C52.20275,46.976375 51.979375,46.752875 51.979375,46.476875 L51.979375,45.477875 C51.979375,45.201875 52.20275,44.9785 52.47875,44.9785 C52.754875,44.9785 52.97825,45.201875 52.97825,45.477875 L52.97825,46.476875 C52.97825,46.75275 52.754875,46.976375 52.47875,46.976375 Z" id="Shape"></path>
                                <path d="M61.4695,46.976375 L52.47875,46.976375 C52.20275,46.976375 51.979375,46.752875 51.979375,46.476875 C51.979375,46.20075 52.20275,45.977375 52.47875,45.977375 L61.4695,45.977375 C61.745625,45.977375 61.969,46.20075 61.969,46.476875 C61.969,46.75275 61.745625,46.976375 61.4695,46.976375 Z" id="Shape"></path>
                                <path d="M61.4695,46.976375 C61.1935,46.976375 60.97,46.752875 60.97,46.476875 L60.97,45.477875 C60.97,45.201875 61.1935,44.9785 61.4695,44.9785 C61.745625,44.9785 61.969,45.201875 61.969,45.477875 L61.969,46.476875 C61.969,46.75275 61.745625,46.976375 61.4695,46.976375 Z" id="Shape"></path>
                                <path d="M6.526375,38.9845 C6.398625,38.9845 6.270875,38.93575 6.17325,38.83825 C5.978125,38.643 5.978125,38.327 6.17325,38.132 L10.169125,34.136125 C10.364375,33.940875 10.680375,33.940875 10.875375,34.136125 C11.070625,34.33125 11.070625,34.64725 10.875375,34.842375 L6.8795,38.83825 C6.782,38.93575 6.654125,38.9845 6.526375,38.9845 Z" id="Shape"></path>
                                <path d="M10.52225,14.010375 C10.3945,14.010375 10.26675,13.961625 10.169125,13.864125 L6.17325,9.86825 C5.978125,9.673125 5.978125,9.357125 6.17325,9.162 C6.368375,8.966875 6.6845,8.966875 6.8795,9.162 L10.875375,13.157875 C11.070625,13.353 11.070625,13.669 10.875375,13.864125 C10.777875,13.961625 10.65,14.010375 10.52225,14.010375 Z" id="Shape"></path>
                                <path d="M26.50575,14.010375 L10.52225,14.010375 C10.24625,14.010375 10.02275,13.787 10.02275,13.510875 C10.02275,13.23475 10.24625,13.011375 10.52225,13.011375 L26.50575,13.011375 C26.78175,13.011375 27.00525,13.23475 27.00525,13.510875 C27.00525,13.787 26.78175,14.010375 26.50575,14.010375 Z" id="Shape"></path>
                                <path d="M26.50575,34.988625 L10.52225,34.988625 C10.24625,34.988625 10.02275,34.76525 10.02275,34.489125 C10.02275,34.213125 10.24625,33.98975 10.52225,33.98975 L26.50575,33.98975 C26.78175,33.98975 27.00525,34.213125 27.00525,34.489125 C27.00525,34.76525 26.78175,34.988625 26.50575,34.988625 Z" id="Shape"></path>
                                <path d="M10.52225,32.99075 C10.24625,32.99075 10.02275,32.767375 10.02275,32.491375 L10.02275,15.508875 C10.02275,15.232875 10.24625,15.009375 10.52225,15.009375 C10.798375,15.009375 11.02175,15.23275 11.02175,15.508875 L11.02175,32.491375 C11.02175,32.767375 10.798375,32.99075 10.52225,32.99075 Z" id="Shape"></path>
                                <path d="M31.001125,10.0145 C30.725,10.0145 30.501625,9.791125 30.501625,9.515 L30.501625,4.52025 C30.501625,4.244125 30.725,4.02075 31.001125,4.02075 C31.277125,4.02075 31.500625,4.244125 31.500625,4.52025 L31.500625,9.515 C31.5005,9.791125 31.277125,10.0145 31.001125,10.0145 Z" id="Shape"></path>
                                <path d="M31.001125,43.979375 C30.725,43.979375 30.501625,43.756 30.501625,43.479875 L30.501625,38.485125 C30.501625,38.209 30.725,37.985625 31.001125,37.985625 C31.277125,37.985625 31.500625,38.209 31.500625,38.485125 L31.500625,43.479875 C31.5005,43.756 31.277125,43.979375 31.001125,43.979375 Z" id="Shape"></path>
                            </g>
                        </g>
                    </g>
                </g>
            </g>
        </g>
    </g>
</svg>