<?xml version="1.0" encoding="UTF-8"?>
<svg viewBox="0 0 15 15" version="1.1" xmlns="http://www.w3.org/2000/svg" xmlns:xlink="http://www.w3.org/1999/xlink">
    <!-- Generator: Sketch 52.1 (67048) - http://www.bohemiancoding.com/sketch -->
    <title>Shape</title>
    <desc>Created with Sketch.</desc>
    <g id="Symbols" stroke="none" stroke-width="1" fill="none" fill-rule="evenodd">
        <g id="save-solid-(3)" fill="#7A8EA2" fill-rule="nonzero">
            <path d="M14.5292746,3.27927455 L11.7207254,0.470725446 C11.4193294,0.169327184 11.010548,2.22882727e-06 10.584308,0 L1.60714286,0 C0.71953125,0 0,0.71953125 0,1.60714286 L0,13.3928571 C0,14.2804687 0.71953125,15 1.60714286,15 L13.3928571,15 C14.2804687,15 15,14.2804687 15,13.3928571 L15,4.41569196 C14.9999978,3.98945203 14.8306728,3.58067059 14.5292746,3.27927455 Z M7.5,12.8571429 C6.31654018,12.8571429 5.35714286,11.8977455 5.35714286,10.7142857 C5.35714286,9.53082589 6.31654018,8.57142857 7.5,8.57142857 C8.68345982,8.57142857 9.64285714,9.53082589 9.64285714,10.7142857 C9.64285714,11.8977455 8.68345982,12.8571429 7.5,12.8571429 Z M10.7142857,2.66116071 L10.7142857,6.02678571 C10.7142857,6.24867188 10.5343862,6.42857143 10.3125,6.42857143 L2.54464286,6.42857143 C2.3227567,6.42857143 2.14285714,6.24867188 2.14285714,6.02678571 L2.14285714,2.54464286 C2.14285714,2.3227567 2.3227567,2.14285714 2.54464286,2.14285714 L10.1959821,2.14285714 C10.3025558,2.14285714 10.4047433,2.18517857 10.4800781,2.26054687 L10.596596,2.37706473 C10.671959,2.45240198 10.7142954,2.5545995 10.7142857,2.66116071 Z" id="Shape"></path>
        </g>
    </g>
</svg>