<?xml version="1.0" encoding="UTF-8"?>
<svg width="16px" height="16px" viewBox="0 0 16 16" version="1.1" xmlns="http://www.w3.org/2000/svg" xmlns:xlink="http://www.w3.org/1999/xlink">
    <!-- Generator: Sketch 52.1 (67048) - http://www.bohemiancoding.com/sketch -->
    <title>Icon/Header-buttons/Link</title>
    <desc>Created with Sketch.</desc>
    <defs>
        <path d="M5.63695949,8.71911111 L9.18464247,10.8364444 C9.54099064,11.0488889 9.9693106,11.0453333 10.3493568,10.88 C11.9195708,10.1964444 13.679369,11.2222222 13.9593568,12.8577778 C14.2463663,14.5404444 12.974572,16 11.3666167,16 C9.97896536,16 8.83531595,14.9093333 8.74315694,13.5288889 C8.71419268,13.0942222 8.50880974,12.6924444 8.139296,12.472 L4.82596022,10.4942222 C4.46697894,10.28 4.03514815,10.2871111 3.65246884,10.4533333 C1.78471293,11.2684444 -0.320023284,9.664 0.0407134066,7.52888889 C0.321578957,5.86666667 2.10858602,4.86577778 3.66212359,5.55111111 C4.04655832,5.72177778 4.48189992,5.72711111 4.84263661,5.50933333 L8.14631764,3.51288889 C8.51144286,3.29244444 8.71507038,2.89511111 8.74403464,2.46577778 C8.83882676,1.08177778 9.98774241,0 11.3666167,0 C12.9736943,0 14.2454886,1.45866667 13.9593568,3.14044444 C13.6784913,4.79555556 11.901139,5.80088889 10.3449683,5.11911111 C9.96053356,4.95022222 9.52694736,4.94577778 9.16796608,5.16266667 L5.63432638,7.29777778 C5.39295755,7.44355556 5.26656805,7.71288889 5.26744575,7.99733333 C5.26481264,8.28177778 5.39471296,8.57422222 5.63695949,8.71911111" id="path-1"></path>
    </defs>
    <g id="Icon/Header-buttons/Link" stroke="none" stroke-width="1" fill="none" fill-rule="evenodd">
        <g id="Group-9">
            <rect id="Rectangle-5" x="0" y="0" width="16" height="16"></rect>
            <g id="Group">
                <g id="share">
                    <use fill="currentColor" xlink:href="#path-1"></use>
                    <use fill="url(#linearGradient-1)" xlink:href="#path-1"></use>
                </g>
            </g>
        </g>
    </g>
</svg>