<svg width="14" height="16" viewBox="0 0 14 16" fill="none" xmlns="http://www.w3.org/2000/svg">
<path fill-rule="evenodd" clip-rule="evenodd" d="M5.63696 8.71911L9.18464 10.8364C9.54099 11.0489 9.96931 11.0453 10.3494 10.88C11.9196 10.1964 13.6794 11.2222 13.9594 12.8578C14.2464 14.5404 12.9746 16 11.3666 16C9.97896 16 8.83532 14.9093 8.74316 13.5289C8.71419 13.0942 8.50881 12.6924 8.1393 12.472L4.82596 10.4942C4.46698 10.28 4.03515 10.2871 3.65247 10.4533C1.78471 11.2684 -0.320023 9.664 0.0407134 7.52889C0.321579 5.86667 2.10859 4.86578 3.66212 5.55111C4.04656 5.72178 4.4819 5.72711 4.84264 5.50933L8.14632 3.51289C8.51144 3.29244 8.71507 2.89511 8.74403 2.46578C8.83883 1.08178 9.98774 0 11.3666 0C12.9737 0 14.2455 1.45867 13.9594 3.14044C13.6785 4.79556 11.9011 5.80089 10.345 5.11911C9.96053 4.95022 9.52695 4.94578 9.16797 5.16267L5.63433 7.29778C5.39296 7.44356 5.26657 7.71289 5.26745 7.99733C5.26481 8.28178 5.39471 8.57422 5.63696 8.71911Z" fill="white"/>
<path fill-rule="evenodd" clip-rule="evenodd" d="M5.63696 8.71911L9.18464 10.8364C9.54099 11.0489 9.96931 11.0453 10.3494 10.88C11.9196 10.1964 13.6794 11.2222 13.9594 12.8578C14.2464 14.5404 12.9746 16 11.3666 16C9.97896 16 8.83532 14.9093 8.74316 13.5289C8.71419 13.0942 8.50881 12.6924 8.1393 12.472L4.82596 10.4942C4.46698 10.28 4.03515 10.2871 3.65247 10.4533C1.78471 11.2684 -0.320023 9.664 0.0407134 7.52889C0.321579 5.86667 2.10859 4.86578 3.66212 5.55111C4.04656 5.72178 4.4819 5.72711 4.84264 5.50933L8.14632 3.51289C8.51144 3.29244 8.71507 2.89511 8.74403 2.46578C8.83883 1.08178 9.98774 0 11.3666 0C12.9737 0 14.2455 1.45867 13.9594 3.14044C13.6785 4.79556 11.9011 5.80089 10.345 5.11911C9.96053 4.95022 9.52695 4.94578 9.16797 5.16267L5.63433 7.29778C5.39296 7.44356 5.26657 7.71289 5.26745 7.99733C5.26481 8.28178 5.39471 8.57422 5.63696 8.71911Z" fill="url(#paint0_linear)"/>
<defs>
<linearGradient id="paint0_linear" x1="0" y1="0" x2="0" y2="16" gradientUnits="userSpaceOnUse">
<stop stop-color="#5D9DF5" stop-opacity="0.85"/>
<stop offset="1" stop-color="#2C85FF"/>
</linearGradient>
</defs>
</svg>
