<?xml version="1.0" encoding="UTF-8"?>
<svg viewBox="0 0 16 16" version="1.1" xmlns="http://www.w3.org/2000/svg" xmlns:xlink="http://www.w3.org/1999/xlink">
    <defs>
        <linearGradient x1="50%" y1="0%" x2="50%" y2="100%" id="linearGradient-1">
            <stop stop-color="currentColor" stop-opacity="0.85" offset="0%"></stop>
            <stop stop-color="currentColor" offset="100%"></stop>
        </linearGradient>
        <path d="M6.42162007,0.105035723 C3.2311877,0.622572827 0.656956355,3.18693778 0.114304799,6.37288543 C-0.229225029,8.391908 0.221938165,10.2880491 1.19422624,11.8227216 C1.39334797,12.1375491 1.474073,12.512472 1.38437852,12.8739408 L0.738578324,15.4750805 C0.651574686,15.8221981 1.01035257,16.1128082 1.33235573,15.9567398 L3.63301894,14.8409405 C3.98551821,14.670521 4.39093723,14.6812844 4.75240595,14.832868 C6.07181163,15.384489 7.57419404,15.5854047 9.15102286,15.2956915 C12.3118561,14.7135744 14.8349616,12.1321675 15.330075,8.95608623 C16.1489856,3.70985655 11.6732314,-0.747061762 6.42162007,0.105035723 L6.42162007,0.105035723 Z" id="path-2"></path>
        <path d="M11.2693794,7.02551733 C11.5747386,6.92352276 11.9017876,7.13742803 11.9583514,7.48638165 C12.0408579,7.99824325 12.0047082,8.55590797 11.8146029,9.12443321 C11.4390707,10.24779 10.4345325,10.9598631 9.35556831,10.9598631 L9.35556831,10.9598631 L7.23123799,10.9598631 C7.07983427,10.9598631 6.95735036,11.0958559 6.95735036,11.263958 L6.95735036,11.263958 L6.95735036,11.8367331 C6.95735036,11.970837 6.81913067,12.0478052 6.72216424,11.9670595 L6.72216424,11.9670595 L5.11158588,10.624131 C4.9627339,10.4999432 4.9627339,10.2515676 5.11201117,10.1278519 L5.11201117,10.1278519 L6.72258953,8.7901177 C6.81913067,8.7098442 6.95735036,8.78634013 6.95735036,8.92091628 L6.95735036,8.92091628 L6.95735036,9.46724827 C6.95735036,9.63535042 7.07983427,9.77181537 7.23123799,9.77181537 L7.23123799,9.77181537 L9.35003952,9.77181537 C9.88633192,9.77181537 10.406038,9.48235858 10.6777991,8.96860819 C10.9159623,8.51954879 10.9682731,8.09362705 10.9057553,7.71303623 C10.8559962,7.41083012 11.0044229,7.11429037 11.2693794,7.02551733 Z M9.04264964,3.16326693 C9.04264964,3.02916297 9.18086933,2.95219485 9.27783576,3.03294054 L9.27783576,3.03294054 L10.8884141,4.37586895 C11.0372661,4.50005678 11.0372661,4.74843243 10.8879888,4.87214805 L10.8879888,4.87214805 L9.27741047,6.2098823 C9.18086933,6.2901558 9.04264964,6.21365987 9.04264964,6.07908372 L9.04264964,6.07908372 L9.04264964,5.53275173 C9.04264964,5.36464958 8.92016573,5.22818463 8.76876201,5.22818463 L8.76876201,5.22818463 L6.64996048,5.22818463 C6.11366808,5.22818463 5.59396205,5.51764142 5.32220087,6.03139181 C5.08403771,6.48045121 5.03172688,6.90637295 5.09424471,7.28696377 C5.1440038,7.58916988 4.99557711,7.88570963 4.7306206,7.97448267 C4.42526141,8.07647724 4.09821235,7.86257197 4.0416486,7.51361835 C3.95914208,7.00175675 3.99529185,6.44409203 4.18539708,5.87556679 C4.56092935,4.75221 5.56546753,4.04013685 6.64443169,4.04013685 L6.64443169,4.04013685 L8.76876201,4.04013685 C8.92016573,4.04013685 9.04264964,3.9041441 9.04264964,3.73604195 L9.04264964,3.73604195 Z" id="path-3"></path>
    </defs>
    <g id="Icon/Editor/Speak_Randomized" stroke="none" stroke-width="1" fill="none" fill-rule="evenodd">
        <g id="Icon/System/Comment" fill-rule="nonzero">
            <g id="Group-9">
                <rect id="Rectangle" x="0" y="0" width="16" height="16"></rect>
            </g>
        </g>
        <g id="Icon/System/Comment">
            <g id="Group-9">
                <rect id="Rectangle" fill-rule="nonzero" x="0" y="0" width="16" height="16"></rect>
                <g id="chatlines" transform="translate(7.713635, 8.000000) scale(-1, 1) translate(-7.713635, -8.000000) ">
                    <use fill="#FFFFFF" xlink:href="#path-2"></use>
                    <use fill="url(#linearGradient-1)" xlink:href="#path-2"></use>
                </g>
            </g>
        </g>
        <g id="repeat" fill="#FFFFFF">
            <use xlink:href="#path-3"></use>
            <use xlink:href="#path-3"></use>
        </g>
    </g>
</svg>
