<?xml version="1.0" encoding="UTF-8"?>
<svg viewBox="0 0 19 18" version="1.1" xmlns="http://www.w3.org/2000/svg" xmlns:xlink="http://www.w3.org/1999/xlink">
    <title>star (1)</title>
        <defs>
        <path d="M6.49988525,0 C6.05307094,0 5.6063558,0.223645094 5.37655139,0.671225258 L4.33851395,2.6927296 C4.15582093,3.04801024 3.80332858,3.29436781 3.395096,3.35119723 L1.07374433,3.67564695 C0.0464185317,3.81888032 -0.363797681,5.03230483 0.379669614,5.72894871 L2.05921538,7.30238964 C2.354579,7.57899823 2.48926797,7.97738421 2.41974149,8.36803829 L2.02301401,10.5897987 C1.88406021,11.3681108 2.52745301,12 3.25743157,12 C3.45004275,12 3.64880322,11.9559282 3.84072014,11.8589896 L5.91689421,10.8100611 C6.09938885,10.7178583 6.29963705,10.6717568 6.49988525,10.6717568 C6.70013343,10.6717568 6.90038163,10.7178583 7.0827771,10.8100611 L9.15905034,11.8589896 C9.35096727,11.9559282 9.54962856,12 9.74223974,12 C10.4721191,12 11.1155119,11.3680141 10.9766573,10.5897987 L10.5802274,8.36803829 C10.5104033,7.97738421 10.6451915,7.57899823 10.9405551,7.302293 L12.6202992,5.72885206 C13.3638657,5.03230483 12.9535503,3.81888032 11.925927,3.67564695 L9.6046745,3.35119723 C9.19664028,3.29427114 8.84385037,3.04801024 8.66145491,2.6927296 L7.6232191,0.671128616 C7.39361306,0.223645094 6.9466004,2.10963567e-15 6.49988525,0 Z" id="path-1"></path>
        <filter x="-42.3%" y="-37.5%" width="184.6%" height="191.7%" filterUnits="objectBoundingBox" id="filter-2">
            <feMorphology radius="0.5" operator="dilate" in="SourceAlpha" result="shadowSpreadOuter1"></feMorphology>
            <feOffset dx="0" dy="1" in="shadowSpreadOuter1" result="shadowOffsetOuter1"></feOffset>
            <feGaussianBlur stdDeviation="1.5" in="shadowOffsetOuter1" result="shadowBlurOuter1"></feGaussianBlur>
            <feComposite in="shadowBlurOuter1" in2="SourceAlpha" operator="out" result="shadowBlurOuter1"></feComposite>
            <feColorMatrix values="0 0 0 0 0.0745098039   0 0 0 0 0.129411765   0 0 0 0 0.266666667  0 0 0 0.0987884964 0" type="matrix" in="shadowBlurOuter1"></feColorMatrix>
        </filter>
    </defs>
    <g id="Misc" stroke="none" stroke-width="1" fill="none" fill-rule="evenodd">
        <g id="Artboard" transform="translate(-288.000000, -208.000000)">
            <g id="star-(1)" transform="translate(291.000000, 210.000000)">
                <g id="Path">
                    <use fill="currentColor" fill-opacity="1" filter="url(#filter-2)" xlink:href="#path-1"></use>
                    <use stroke="#FFFFFF" stroke-width="1" fill="#FED317" fill-rule="evenodd" xlink:href="#path-1"></use>
                </g>
            </g>
        </g>
    </g>
</svg>
