<svg viewBox="0 0 12 18" fill="none" xmlns="http://www.w3.org/2000/svg">
<g transform="translate(-2, -1) scale(1, 1)">
<path fill-rule="evenodd" clip-rule="evenodd" d="M6.36098 2.04937L7.22932 1.37768C7.88713 0.868843 8.79055 0.774933 9.56294 1.1351L11.2812 1.93635C12.0536 2.29652 12.5624 3.04894 12.5954 3.87993L12.639 4.97687L13.5784 5.41491C14.3292 5.76501 14.6626 6.63904 14.3231 7.3671L14.1695 7.69667C14.0846 7.87868 13.8636 7.95528 13.6759 7.86775L3.47994 3.1133C3.29224 3.02577 3.20888 2.80726 3.29376 2.62525L3.44744 2.29568C3.78693 1.56762 4.6708 1.26123 5.42162 1.61134L6.36098 2.04937ZM8.14008 2.65915L11.3783 4.16914L11.3637 3.80349C11.3527 3.5265 11.1831 3.27569 10.9257 3.15563L9.2074 2.35439C8.94993 2.23433 8.64879 2.26564 8.42952 2.43525L8.14008 2.65915ZM13.2041 8.45456C13.6437 8.45456 14 8.80429 14 9.23571C14 9.28342 13.9955 9.33103 13.9867 9.37794L12.5329 17.0833C12.3233 18.1941 11.3361 19 10.1851 19H5.815C4.66402 19 3.67686 18.1941 3.46728 17.0833L2.01345 9.37794C1.93341 8.95374 2.2189 8.54618 2.6511 8.46762C2.6989 8.45893 2.74741 8.45456 2.79602 8.45456H13.2041ZM6.5 11C6.08579 11 5.75 11.3256 5.75 11.7273V15.7273C5.75 16.1289 6.08579 16.4546 6.5 16.4546C6.91421 16.4546 7.25 16.1289 7.25 15.7273V11.7273C7.25 11.3256 6.91421 11 6.5 11ZM9.5 11C9.08579 11 8.75 11.3256 8.75 11.7273V15.7273C8.75 16.1289 9.08579 16.4546 9.5 16.4546C9.91421 16.4546 10.25 16.1289 10.25 15.7273V11.7273C10.25 11.3256 9.91421 11 9.5 11Z" fill="currentColor"/>
</g>
</svg>
