<?xml version="1.0" encoding="UTF-8"?>
<svg viewBox="0 0 16 16" version="1.1" xmlns="http://www.w3.org/2000/svg" xmlns:xlink="http://www.w3.org/1999/xlink">
    <!-- Generator: Sketch 59.1 (86144) - https://sketch.com -->
    <title>Icon/System/Upgrade</title>
    <desc>Created with Sketch.</desc>
    <defs>
        <path d="M8.59546109,11.1656808 C8.26659865,11.4781001 7.73340729,11.4781001 7.40454485,11.1656808 L5.44600771,9.30507089 L1.40857198,12.7919465 C1.06443938,13.0891519 0.531851514,13.0650586 0.219003692,12.7381327 C-0.0938441289,12.4112068 -0.0684828021,11.9052485 0.275649801,11.6080431 L4.90722703,7.60804534 C5.23983706,7.32079127 5.75129508,7.33235341 6.06914624,7.63431196 L8,9.4686255 L11.4223342,5.85753596 C11.6496334,5.59079368 11.6282673,5.20407051 11.3728235,4.96139889 L10.2991435,3.94140312 C10.1294989,3.7802408 10.136031,3.5127396 10.3137333,3.34392245 C10.3963533,3.26543344 10.5061479,3.21877558 10.6203719,3.21361457 L15.3319474,3.00073058 C15.7004633,2.98407986 15.9995604,3.25406482 16,3.60375887 C16,3.6140529 15.9997608,3.62435735 15.9992449,3.63466304 L15.7751564,8.11065895 C15.7634717,8.34405227 15.5550639,8.53302948 15.3096645,8.53275135 C15.1955697,8.53262205 15.0879368,8.49075586 15.0090631,8.41582585 L13.9353837,7.39583062 C13.6799398,7.153159 13.2728627,7.13286122 12.9920813,7.34879545 L8.59546109,11.1656808 Z" id="Path"></path>
    </defs>
    <g id="Icon/System/Upgrade" stroke="none" stroke-width="1" fill="none" fill-rule="evenodd">
        <g id="Group-13">
            <rect id="Rectangle" fill-rule="nonzero" x="0" y="0" width="16" height="16"></rect>
            <use fill="currentColor" xlink:href="#Path"></use>
        </g>
    </g>
</svg>