<?xml version="1.0" encoding="UTF-8"?>
<svg viewBox="0 0 16 16" version="1.1" xmlns="http://www.w3.org/2000/svg" xmlns:xlink="http://www.w3.org/1999/xlink">
            <defs>
        <linearGradient x1="50%" y1="0%" x2="50%" y2="100%" id="linearGradient-1">
            <stop stop-color="currentColor" stop-opacity="0.85" offset="0%"></stop>
            <stop stop-color="currentColor" offset="100%"></stop>
        </linearGradient>
        <path d="M8,16 C3.581722,16 0,12.418278 0,8 C0,3.581722 3.581722,0 8,0 C12.418278,0 16,3.581722 16,8 C16,12.418278 12.418278,16 8,16 Z M7.51170429,2.90909091 C7.46256824,2.90909091 7.41345344,2.91113382 7.36448712,2.91521435 C6.3888175,2.99652015 5.66379238,3.85336802 5.74509818,4.82903763 L5.81120842,5.62236049 C5.90607364,6.76074314 6.8577042,7.63636971 8.00003273,7.63636971 C9.14236126,7.63636971 10.0939918,6.76074314 10.188857,5.62236049 L10.2549673,4.82903763 C10.2590478,4.78007131 10.2610907,4.73095651 10.2610907,4.68182046 C10.2610907,3.70276896 9.46741266,2.90909091 8.48836116,2.90909091 L7.51170429,2.90909091 Z M12.7131984,10.7192932 C12.7647214,10.4877959 12.6728474,10.2479232 12.479861,10.1100758 C11.0057511,9.05714014 9.50941523,8.52273448 8.00003273,8.52273448 C6.49065022,8.52273448 4.99431437,9.05714014 3.52020441,10.1100758 C3.32721805,10.2479232 3.23534402,10.4877959 3.28686702,10.7192932 L3.60376411,12.1431758 C3.73177676,12.7183478 4.10691137,13.2078005 4.62904696,13.4809021 C5.98590627,14.1906037 7.10955729,14.5454545 8,14.5454545 C8.89047251,14.5454545 10.0141591,14.1905811 11.3710597,13.4808341 L11.3710553,13.4808256 C11.8931741,13.2077237 12.2682954,12.7182813 12.3963049,12.1431237 L12.7131984,10.7192932 Z" id="path-2"></path>
    </defs>
    <g id="Symbols" stroke="none" stroke-width="1" fill="none" fill-rule="evenodd">
        <g id="Icon/Editor/User_reply_empty-block">
            <g id="Group-18-Copy-4">
                <g id="Combined-Shape">
                    <use fill="currentColor" xlink:href="#path-2"></use>
                    <use fill="currentColor" xlink:href="#path-2"></use>
                </g>
            </g>
        </g>
    </g>
</svg>