<?xml version="1.0" encoding="UTF-8"?>
<svg  viewBox="0 0 16 16" version="1.1" xmlns="http://www.w3.org/2000/svg" xmlns:xlink="http://www.w3.org/1999/xlink">
            <defs>
        <linearGradient x1="50%" y1="0%" x2="50%" y2="100%" id="linearGradient-1">
            <stop stop-color="currentColor" stop-opacity="0.85" offset="0%"></stop>
            <stop stop-color="currentColor" offset="100%"></stop>
        </linearGradient>
        <path d="M13,0 C14.8196817,0 16,1.18031832 16,3 L16,13 C16,14.8196817 14.8196817,16 13,16 L3,16 C1.18031832,16 0,14.8196817 0,13 L0,3 C0,1.18031832 1.18031832,0 3,0 L13,0 Z M12.0500002,4.13999987 L3.95000005,4.13999987 C2.73687893,4.13999987 1.95000005,4.92687875 1.95000005,6.13999987 L1.95000005,12.0299997 C1.95000005,13.2431209 2.73687893,14.0299997 3.95000005,14.0299997 L12.0500002,14.0299997 C13.2631213,14.0299997 14.0500002,13.2431209 14.0500002,12.0299997 L14.0500002,6.13999987 C14.0500002,4.92687875 13.2631213,4.13999987 12.0500002,4.13999987 Z M4.80514663,10.5366552 C4.60031147,10.7326303 4.26755244,10.7326303 4.06271728,10.5366552 C3.85788212,10.3406802 3.85788212,10.0223145 4.06271728,9.82633948 L5.25248778,8.68728135 C5.36000662,8.58516407 5.36000662,8.41847264 5.25248778,8.3156045 L4.06271728,7.17729722 C3.85788212,6.98132216 3.85788212,6.66295654 4.06271728,6.46698147 C4.26755244,6.27100641 4.60031147,6.27100641 4.80514663,6.46698147 L6.7381313,8.3156045 C6.84486533,8.41847264 6.84486533,8.58516407 6.7381313,8.68728135 L4.80514663,10.5366552 M11.9272727,8.49727271 C11.9272727,8.89841417 11.7090909,9.22454544 11.4407273,9.22454544 L8.75927273,9.22454544 C8.49018182,9.22454544 8.27272727,8.89841417 8.27272727,8.49727271 C8.27272727,8.09504414 8.49018182,7.76999998 8.75927273,7.76999998 L11.4407273,7.76999998 C11.7090909,7.76999998 11.9272727,8.09504414 11.9272727,8.49727271" id="path-2"></path>
    </defs>
    <g id="Symbols" stroke="none" stroke-width="1" fill="none" fill-rule="evenodd">
        <g id="Icon/Editor/Code">
            <g id="Group">
                <g id="commandline">
                    <use fill="currentColor" xlink:href="#path-2"></use>
                    <use fill="url(#linearGradient-1)" xlink:href="#path-2"></use>
                </g>
            </g>
        </g>
    </g>
</svg>