<svg viewBox="0 0 16 16" version="1.1" xmlns="http://www.w3.org/2000/svg" xmlns:xlink="http://www.w3.org/1999/xlink">
    <g id="Icons" stroke="none" stroke-width="1" fill="none" fill-rule="evenodd">
            <rect id="Rectangle" fill-rule="nonzero" x="0" y="0" width="16" height="16"></rect>
        <path d="M13.39,12.2666667 L2.68,12.2666667 C2.07666667,12.2666667 1.78333333,11.4773333 2.22333333,11.0364444 L6.21,7.03644444 C6.46666667,6.78044444 6.86666667,6.78044444 7.12333333,7.03644444 L10.1466667,10.0693333 C10.4066667,10.3324444 10.82,10.3253333 11.0733333,10.0551111 L11.53,9.568 C11.79,9.29066667 12.21,9.29066667 12.47,9.568 L13.8633333,11.0542222 C14.2833333,11.5022222 13.9833333,12.2666667 13.39,12.2666667 Z M12.6666667,3.73333333 C13.4033333,3.73333333 14,4.36977778 14,5.15555556 C14,5.94133333 13.4033333,6.57777778 12.6666667,6.57777778 C11.93,6.57777778 11.3333333,5.94133333 11.3333333,5.15555556 C11.3333333,4.36977778 11.93,3.73333333 12.6666667,3.73333333 Z M14.3333333,1.6 L1.66666667,1.6 C0.746666667,1.6 0,2.39644444 0,3.37777778 L0,12.6222222 C0,13.6035556 0.746666667,14.4 1.66666667,14.4 L14.3333333,14.4 C15.2533333,14.4 16,13.6035556 16,12.6222222 L16,3.37777778 C16,2.39644444 15.2533333,1.6 14.3333333,1.6 L14.3333333,1.6 Z" fill="currentColor"></path>
    </g>
</svg> 
