<?xml version="1.0" encoding="UTF-8"?>
<svg viewBox="0 0 626 112" version="1.1" xmlns="http://www.w3.org/2000/svg" xmlns:xlink="http://www.w3.org/1999/xlink">
    <!-- Generator: Sketch 52.1 (67048) - http://www.bohemiancoding.com/sketch -->
    <title>wordmark</title>
    <desc>Created with Sketch.</desc>
    <g id="Page-1" stroke="none" stroke-width="1" fill="none" fill-rule="evenodd">
        <g id="wordmark" fill="#221B43" fill-rule="nonzero">
            <path d="M81.3307087,34.0869565 L51.2248662,112 L30.1058424,112 L0,34.0869565 L19.3216601,34.0869565 C20.9692516,34.0869565 22.3547056,34.4751404 23.4780637,35.2515199 C24.6014218,36.0278993 25.3627977,36.9920979 25.7622134,38.1441449 L36.5463958,73.0810448 C37.4950086,75.9361172 38.3312748,78.7160148 39.055216,81.4208209 C39.7791572,84.1256271 40.4157178,86.8303916 40.964915,89.5351977 C42.0633093,84.1255866 43.5860612,78.6409233 45.5332144,73.0810448 L56.7667377,38.1441449 C57.1661534,36.9920979 57.9150481,36.0278993 59.0134424,35.2515199 C60.1118367,34.4751404 61.4099193,34.0869565 62.9077305,34.0869565 L81.3307087,34.0869565 Z M115.98345,31.6521739 C121.836438,31.6521739 127.16853,32.5791585 131.979884,34.4331557 C136.791238,36.2871528 140.920509,38.9428386 144.367821,42.4002928 C147.815132,45.8577469 150.493577,50.0542316 152.403239,54.9898727 C154.312901,59.9255138 155.267717,65.4748949 155.267717,71.6381828 C155.267717,77.8515784 154.312901,83.4510674 152.403239,88.4368162 C150.493577,93.422565 147.815132,97.6566301 144.367821,101.139139 C140.920509,104.621647 136.791238,107.302386 131.979884,109.181437 C127.16853,111.060488 121.836438,112 115.98345,112 C110.08086,112 104.711568,111.060488 99.8754123,109.181437 C95.0392569,107.302386 90.872785,104.621647 87.3758728,101.139139 C83.8789607,97.6566301 81.1757144,93.422565 79.2660526,88.4368162 C77.3563908,83.4510674 76.4015748,77.8515784 76.4015748,71.6381828 C76.4015748,65.4748949 77.3563908,59.9255138 79.2660526,54.9898727 C81.1757144,50.0542316 83.8789607,45.8577469 87.3758728,42.4002928 C90.872785,38.9428386 95.0392569,36.2871528 99.8754123,34.4331557 C104.711568,32.5791585 110.08086,31.6521739 115.98345,31.6521739 Z M114.754931,94.9565217 C120.196565,94.9565217 124.201447,93.04483 126.769694,89.2213893 C129.337942,85.3979486 130.622047,79.5869126 130.622047,71.7881059 C130.622047,63.9892997 129.337942,58.1909235 126.769694,54.3928036 C124.201447,50.5946836 120.196565,48.6956522 114.754931,48.6956522 C109.160726,48.6956522 105.066848,50.5946836 102.473172,54.3928036 C99.8794959,58.1909235 98.5826772,63.9892997 98.5826772,71.7881059 C98.5826772,79.5869126 99.8794959,85.3979486 102.473172,89.2213893 C105.066848,93.04483 109.160726,94.9565217 114.754931,94.9565217 Z M184.84252,34.0869565 L184.84252,112 L162.670669,112 L162.670669,42.3699381 C162.568739,39.3291817 163.309073,37.1884956 164.891669,35.9478799 C166.474266,34.7072643 168.773609,34.0869565 171.789701,34.0869565 L184.84252,34.0869565 Z M256.853575,51.3445317 C256.142673,52.1963681 255.457171,52.8728165 254.797049,53.3738968 C254.136926,53.8749771 253.197534,54.1255135 251.978846,54.1255135 C250.810936,54.1255135 249.757295,53.8499234 248.817889,53.2987351 C247.878484,52.7475467 246.824843,52.1337326 245.656933,51.4572742 C244.489023,50.7808158 243.11802,50.1670015 241.543881,49.6158132 C239.969742,49.0646248 238.014792,48.7890349 235.678973,48.7890349 C232.784589,48.7890349 230.283776,49.3151612 228.176461,50.3674299 C226.069147,51.4196985 224.330003,52.9229169 222.958979,54.8771302 C221.587954,56.8313433 220.572396,59.223966 219.912273,62.0550698 C219.252151,64.8861735 218.922094,68.0805126 218.922094,71.6381828 C218.922094,79.1042795 220.381959,84.8415629 223.301733,88.8502054 C226.221507,92.8588479 230.245656,94.8631391 235.374303,94.8631391 C238.116351,94.8631391 240.287107,94.524915 241.886635,93.8484565 C243.486163,93.171998 244.844473,92.4203894 245.961603,91.5936064 C247.078734,90.7668234 248.106987,90.0026882 249.046392,89.3011754 C249.985798,88.5996626 251.166384,88.248912 252.588187,88.248912 C254.466998,88.248912 255.888779,88.9253601 256.853575,90.2782771 L263.708661,98.6212226 C261.271284,101.377164 258.707,103.619466 256.015731,105.348192 C253.324461,107.076919 250.569759,108.429816 247.751543,109.406922 C244.933326,110.384029 242.102458,111.060477 239.258852,111.436287 C236.415246,111.812098 233.64785,112 230.95658,112 C226.132606,112 221.52451,111.098069 217.132155,109.29418 C212.7398,107.490291 208.880677,104.872185 205.554675,101.439785 C202.228671,98.0073853 199.588221,93.7858468 197.633241,88.7750437 C195.678262,83.7642406 194.700787,78.0520103 194.700787,71.6381828 C194.700787,66.0260833 195.551317,60.7773457 197.252403,55.8918127 C198.953489,51.0062797 201.466995,46.7722146 204.792999,43.1894904 C208.119001,39.6067662 212.232012,36.7882316 217.132155,34.7338024 C222.032296,32.6793731 227.706729,31.6521739 234.15562,31.6521739 C240.350619,31.6521739 245.783855,32.6292658 250.455494,34.5834791 C255.127131,36.5376922 259.341698,39.3938072 263.09932,43.1519095 L256.853575,51.3445317 Z M315.464567,63.3043478 C315.464567,61.4658293 315.221944,59.6770273 314.73669,57.9378882 C314.251435,56.198749 313.459717,54.6459695 312.361511,53.2795031 C311.263304,51.9130367 309.820334,50.8074576 308.032557,49.9627329 C306.244779,49.1180081 304.073938,48.6956522 301.519971,48.6956522 C297.024986,48.6956522 293.500563,49.950298 290.946595,52.4596273 C288.392627,54.9689567 286.707034,58.5838273 285.889764,63.3043478 L315.464567,63.3043478 Z M284.68016,75.9975597 C285.436166,82.5116031 287.426952,87.2342144 290.652577,90.1655346 C293.878202,93.0968548 298.036172,94.5624924 303.126612,94.5624924 C305.848234,94.5624924 308.191816,94.2367949 310.157432,93.5853907 C312.123047,92.9339864 313.874435,92.2074309 315.411647,91.4057022 C316.948858,90.6039735 318.360048,89.877418 319.645259,89.2260137 C320.930468,88.5746095 322.278658,88.248912 323.68987,88.248912 C325.554684,88.248912 326.965874,88.9253601 327.923482,90.2782771 L334.727501,98.6212226 C332.308281,101.377164 329.700101,103.619466 326.902879,105.348192 C324.105657,107.076919 321.232877,108.429816 318.284455,109.406922 C315.336031,110.384029 312.387652,111.060477 309.43923,111.436287 C306.490807,111.812098 303.681027,112 301.009806,112 C295.516163,112 290.3628,111.110596 285.549563,109.331761 C280.736325,107.552926 276.527956,104.909766 272.924327,101.402204 C269.320699,97.8946417 266.473119,93.5353087 264.381503,88.3240737 C262.289886,83.1128387 261.244094,77.0498578 261.244094,70.1349494 C261.244094,64.9237141 262.138688,59.988147 263.927902,55.3281002 C265.717116,50.6680533 268.287498,46.5843101 271.639124,43.0767479 C274.99075,39.5691857 279.04792,36.7882316 283.810758,34.7338024 C288.573595,32.6793731 293.953756,31.6521739 299.951403,31.6521739 C305.142643,31.6521739 309.892809,32.4538904 314.202043,34.0573474 C318.511276,35.6608044 322.21565,37.9907928 325.315275,41.0473828 C328.414898,44.1039726 330.834081,47.8494918 332.572895,52.2840525 C334.311708,56.7186133 335.181102,61.7418681 335.181102,67.3539675 C335.181102,69.1077483 335.105502,70.5358062 334.954302,71.6381828 C334.8031,72.7405593 334.525902,73.617437 334.122699,74.2688413 C333.719496,74.9202455 333.1777,75.3712109 332.497295,75.6217513 C331.816889,75.8722918 330.947495,75.9975597 329.889087,75.9975597 L284.68016,75.9975597 Z M346.065542,109.565217 L346.065542,48.9327532 L340.996077,47.90259 C339.256546,47.5101449 337.852517,46.8969586 336.783948,46.0630128 C335.715378,45.2290669 335.181102,44.0026944 335.181102,42.3838584 L335.181102,33.4067218 L346.065542,33.4067218 L346.065542,30.7577306 C346.065542,26.8823352 346.711643,23.0928441 348.003867,19.3891436 C349.29609,15.685443 351.284095,12.3987646 353.967944,9.52900984 C356.651791,6.65925505 360.081101,4.35367469 364.255976,2.61219961 C368.43085,0.870724524 373.400864,0 379.166167,0 C384.036854,0 388.621692,0.147164703 392.920819,0.441498525 C397.219945,0.735832347 401.581132,0.882997051 406.004511,0.882997051 L418.976378,0.882997051 L418.976378,109.565217 L396.014683,109.565217 L396.014683,16.1882793 C393.479938,16.090168 391.032205,15.9797945 388.671414,15.8571554 C386.310621,15.7345163 384.384741,15.6731977 382.893715,15.6731977 C378.172131,15.6731977 374.581295,16.9608888 372.121102,19.5363097 C369.660907,22.1117307 368.430829,25.8521669 368.430829,30.7577306 L368.430829,33.4067218 L385.130244,33.4067218 L385.130244,49.0063363 L369.176339,49.0063363 L369.176339,109.565217 L346.065542,109.565217 Z M465.951954,31.6521739 C471.804942,31.6521739 477.137033,32.5791585 481.948388,34.4331557 C486.759742,36.2871528 490.889013,38.9428386 494.336324,42.4002928 C497.783634,45.8577469 500.462081,50.0542316 502.371743,54.9898727 C504.281403,59.9255138 505.23622,65.4748949 505.23622,71.6381828 C505.23622,77.8515784 504.281403,83.4510674 502.371743,88.4368162 C500.462081,93.422565 497.783634,97.6566301 494.336324,101.139139 C490.889013,104.621647 486.759742,107.302386 481.948388,109.181437 C477.137033,111.060488 471.804942,112 465.951954,112 C460.049363,112 454.680072,111.060488 449.843916,109.181437 C445.007761,107.302386 440.841289,104.621647 437.344377,101.139139 C433.847463,97.6566301 431.144217,93.422565 429.234557,88.4368162 C427.324895,83.4510674 426.370079,77.8515784 426.370079,71.6381828 C426.370079,65.4748949 427.324895,59.9255138 429.234557,54.9898727 C431.144217,50.0542316 433.847463,45.8577469 437.344377,42.4002928 C440.841289,38.9428386 445.007761,36.2871528 449.843916,34.4331557 C454.680072,32.5791585 460.049363,31.6521739 465.951954,31.6521739 Z M467.188001,94.9565217 C472.629636,94.9565217 476.634516,93.04483 479.202765,89.2213893 C481.771013,85.3979486 483.055118,79.5869126 483.055118,71.7881059 C483.055118,63.9892997 481.771013,58.1909235 479.202765,54.3928036 C476.634516,50.5946836 472.629636,48.6956522 467.188001,48.6956522 C461.593797,48.6956522 457.499919,50.5946836 454.906243,54.3928036 C452.312567,58.1909235 451.015748,63.9892997 451.015748,71.7881059 C451.015748,79.5869126 452.312567,85.3979486 454.906243,89.2213893 C457.499919,93.04483 461.593797,94.9565217 467.188001,94.9565217 Z M626,34.1620173 L602.08491,112 L583.368752,112 C582.378474,112 581.53675,111.699761 580.843556,111.099271 C580.150361,110.498782 579.605716,109.497982 579.209606,108.096842 L568.217577,69.2904415 C567.672924,67.5390155 567.19017,65.8126359 566.769302,64.1112507 C566.348433,62.4098656 565.964708,60.6834858 565.61811,58.93206 C565.271513,60.6834858 564.887786,62.4348855 564.466918,64.1863115 C564.046049,65.9377373 563.563297,67.689137 563.018644,69.440563 L551.878074,108.096842 C551.135365,110.698961 549.501431,112 546.976223,112 L529.151311,112 L505.23622,34.1620173 L523.655296,34.1620173 C525.289255,34.1620173 526.663245,34.5498272 527.777307,35.3254587 C528.89137,36.1010901 529.646445,37.0643599 530.042556,38.215297 L537.766685,73.118539 C538.410365,75.7706981 538.979766,78.3352474 539.474906,80.8122644 C539.970044,83.2892814 540.415662,85.77877 540.811774,88.2808076 C541.455455,85.77877 542.13626,83.2892814 542.854212,80.8122644 C543.572163,78.3352474 544.351995,75.7706981 545.193732,73.118539 L554.848893,38.1402362 C555.245003,36.9892991 555.987701,36.0260294 557.077007,35.2503979 C558.166312,34.4747665 559.453653,34.0869565 560.939071,34.0869565 L571.188395,34.0869565 C572.822354,34.0869565 574.196343,34.4747665 575.310406,35.2503979 C576.424469,36.0260294 577.179544,36.9892991 577.575655,38.1402362 L586.785193,73.118539 C587.527901,75.7706981 588.25822,78.3477572 588.976172,80.8497948 C589.694123,83.3518312 590.350172,85.8788513 590.94434,88.430929 C591.34045,85.9288914 591.810826,83.4268919 592.355478,80.9248555 C592.900131,78.4228179 593.519045,75.8207393 594.21224,73.118539 L602.381991,38.215297 C602.778102,37.0643599 603.5208,36.1010901 604.610105,35.3254587 C605.699411,34.5498272 606.986752,34.1620173 608.47217,34.1620173 L626,34.1620173 Z" id="voiceflow"></path>
        </g>
    </g>
</svg>