<svg fill="currentColor" viewBox="0 0 14 14" xmlns="http://www.w3.org/2000/svg">

<path d="M7 0C7.31707 0 7.58035 0.244783 7.60341 0.56101L7.96858 5.56911C7.98663 5.81658 8.18342 6.01337 8.43089 6.03142L13.439 6.39659C13.7552 6.41965 14 6.68293 14 7C14 7.31707 13.7552 7.58035 13.439 7.60341L8.43089 7.96858C8.18342 7.98663 7.98663 8.18342 7.96858 8.43089L7.60341 13.439C7.58035 13.7552 7.31707 14 7 14C6.68293 14 6.41965 13.7552 6.39659 13.439L6.03142 8.43089C6.01337 8.18342 5.81658 7.98663 5.56911 7.96858L0.56101 7.60341C0.244784 7.58035 0 7.31707 0 7C0 6.68293 0.244784 6.41965 0.56101 6.39659L5.56911 6.03142C5.81658 6.01337 6.01337 5.81658 6.03142 5.56911L6.39659 0.56101C6.41965 0.244783 6.68293 0 7 0Z"/>

</svg>
