<svg viewBox="0 0 16 16" fill="none" xmlns="http://www.w3.org/2000/svg">
  <path fill-rule="evenodd" clip-rule="evenodd" d="M1.45455 2H14.5455C15.3488 2 16 2.67157 16 3.5V9.5C16 11.9853 14.0463 14 11.6364 14H4.36364C1.95367 14 0 11.9853 0 9.5V3.5C0 2.67157 0.651222 2 1.45455 2ZM5.24153 9.34467L3.93761 8L5.24153 6.65533C5.52555 6.36244 5.52555 5.88756 5.24153 5.59467C4.95751 5.30178 4.49703 5.30178 4.21301 5.59467L2.39483 7.46967C2.11081 7.76256 2.11081 8.23744 2.39483 8.53033L4.21301 10.4053C4.49703 10.6982 4.95751 10.6982 5.24153 10.4053C5.52555 10.1124 5.52555 9.63756 5.24153 9.34467ZM10.7585 6.65533L12.0624 8L10.7585 9.34467C10.4745 9.63756 10.4745 10.1124 10.7585 10.4053C11.0425 10.6982 11.503 10.6982 11.787 10.4053L13.6052 8.53033C13.8892 8.23744 13.8892 7.76256 13.6052 7.46967L11.787 5.59467C11.503 5.30178 11.0425 5.30178 10.7585 5.59467C10.4745 5.88756 10.4745 6.36244 10.7585 6.65533ZM8.05202 5.84646L6.59747 9.59646C6.4483 9.98104 6.62969 10.4175 7.00262 10.5714C7.37556 10.7252 7.79881 10.5381 7.94798 10.1535L9.40253 6.40354C9.5517 6.01896 9.37031 5.58248 8.99737 5.42864C8.62444 5.27481 8.20119 5.46187 8.05202 5.84646Z" fill="currentColor"/>
</svg>
