<?xml version="1.0" encoding="UTF-8"?>
<svg width="18px" height="18px" viewBox="0 0 24 24" version="1.1" xmlns="http://www.w3.org/2000/svg" xmlns:xlink="http://www.w3.org/1999/xlink">
    <title>Group 18</title>
    <defs>
        <linearGradient x1="50%" y1="0%" x2="50%" y2="100%" id="linearGradient-1">
            <stop stop-color="#6E849A" stop-opacity="0.85" offset="0%"></stop>
            <stop stop-color="#6E849A" offset="100%"></stop>
        </linearGradient>
        <path d="M21,3 C21.5522847,3 22,3.44771525 22,4 L22,18 C22,18.5522847 21.5522847,19 21,19 L3,19 C2.44771525,19 2,18.5522847 2,18 L2,4 C2,3.44771525 2.44771525,3 3,3 L21,3 Z M20,4 L4,4 C3.44771525,4 3,4.44771525 3,5 L3,5 L3,13 C3,13.5522847 3.44771525,14 4,14 L4,14 L20,14 C20.5522847,14 21,13.5522847 21,13 L21,13 L21,5 C21,4.44771525 20.5522847,4 20,4 L20,4 Z M19,5 C19.5522847,5 20,5.44771525 20,6 L20,12 C20,12.5522847 19.5522847,13 19,13 L5,13 C4.44771525,13 4,12.5522847 4,12 L4,6 C4,5.44771525 4.44771525,5 5,5 L19,5 Z" id="path-2"></path>
    </defs>
    <g id="Icons" stroke="none" stroke-width="1" fill="none" fill-rule="evenodd">
        <g id="Group-18">
            <rect id="Rectangle-6" fill-rule="nonzero" x="0" y="0" width="24" height="24"></rect>
            <g id="Combined-Shape-Copy-2">
                <use fill="#FFFFFF" xlink:href="#path-2"></use>
                <use fill="url(#linearGradient-1)" xlink:href="#path-2"></use>
            </g>
        </g>
    </g>
</svg>