<?xml version="1.0" encoding="UTF-8"?>
<svg width="16px" height="16px" viewBox="0 0 16 16" version="1.1" xmlns="http://www.w3.org/2000/svg" xmlns:xlink="http://www.w3.org/1999/xlink">
    <title>Icon/System/Export</title>
    <defs>
        <linearGradient x1="50%" y1="0%" x2="50%" y2="100%" id="linearGradient-1">
            <stop stop-color="#6E849A" stop-opacity="0.85" offset="0%"></stop>
            <stop stop-color="#6E849A" offset="100%"></stop>
        </linearGradient>
        <path d="M5.5,-2.27373675e-13 C5.96508189,-2.27373675e-13 6.34210526,0.0770231054 6.34210526,0.542105 C6.34210526,1.02657827 6,1 5.50979225,1.212259 L3.59740145,1.761533 C2.981193,1.8563343 1.926316,2.98654468 1.926316,3.61000289 L1.926316,12.2105263 C1.926316,12.9081492 3.09185084,14.073684 3.78947368,14.073684 L12.3899971,14.073684 C13.0134553,14.073684 14.1436657,13.018807 14.238467,12.4025985 L14.787741,10.4902077 C15,10 14.9734217,9.65789474 15.457895,9.65789474 C15.9229769,9.65789474 16,10.0349181 16,10.5 L16,13.4736842 C16,14.8689299 14.8689299,16 13.4736842,16 L2.52631579,16 C1.13107011,16 0,14.8689299 0,13.4736842 L0,2.52631579 C0,1.13107011 1.13107011,-2.27373675e-13 2.52631579,-2.27373675e-13 L5.5,-2.27373675e-13 Z M14.8454805,0.394896296 C15.2918855,0.388996405 15.6313165,0.746760636 15.6036207,1.19398507 L15.6036207,1.19398507 L15.2495232,6.91187141 C15.2409388,7.05049162 15.1794576,7.18450344 15.0778163,7.28614477 C14.8592022,7.50475882 14.5176012,7.51760116 14.314829,7.31482896 L14.314829,7.31482896 L13.2091854,6.20918537 C12.8026493,5.80264928 12.1404044,5.7826493 11.6736236,6.162811 L11.6736236,6.162811 L8.65023932,8.66568066 C8.26758385,8.9773279 7.71962099,8.95644713 7.3804684,8.61729454 C7.04131581,8.27814195 7.02043504,7.73017909 7.33208228,7.34752362 L7.33208228,7.34752362 L9.837189,4.32637644 C10.2173507,3.85959562 10.1973507,3.19735072 9.79081463,2.79081463 L9.79081463,2.79081463 L8.68517173,1.68517173 C8.59089582,1.59089582 8.53933111,1.46113392 8.54115982,1.32276769 C8.54509308,1.02516434 8.78997965,0.768941266 9.08812927,0.750477444 L9.08812927,0.750477444 L14.8060156,0.396379961 C14.8191807,0.395564675 14.8323395,0.395069973 14.8454805,0.394896296 Z" id="path-2"></path>
    </defs>
    <g id="Icon/System/Export" stroke="none" stroke-width="1" fill="none" fill-rule="evenodd">
        <g id="Group-4">
            <rect id="Rectangle" x="0" y="0" width="16" height="16"></rect>
            <g id="Combined-Shape">
                <use fill="#FFFFFF" xlink:href="#path-2"></use>
                <use fill="url(#linearGradient-1)" xlink:href="#path-2"></use>
            </g>
        </g>
    </g>
</svg>