<svg xmlns="http://www.w3.org/2000/svg" xmlns:xlink="http://www.w3.org/1999/xlink" width="16" height="16" viewBox="0 0 16 16">
    <defs>
    </defs>
    <g fill="none" fill-rule="evenodd">
        <g>
            <g>
                <g>
                    <g>
                        <g>
                            <path d="M0 0H16V16H0z" transform="translate(-230 -25) translate(-1 -1) translate(1) translate(32 21) translate(198 5)"/>
                            <g transform="translate(-230 -25) translate(-1 -1) translate(1) translate(32 21) translate(198 5)">
                              <path id="2ewncu63la" d="M6.542 7.023l.411 3.84c.057.527.508.926 1.047.926.539 0 .99-.399 1.047-.925l.411-3.84c.069-.643.61-1.13 1.256-1.13h1.756c.322 0 .583-.268.583-.6 0-.153-.058-.301-.161-.413L8.633.279C8.3-.08 7.747-.095 7.397.25l-.03.03-4.259 4.602c-.222.24-.213.62.02.848.109.106.253.166.402.166h1.756c.646 0 1.187.486 1.256 1.128zm-4.654 3.9l.479 1.913c.094.375.43.638.817.638h9.632c.387 0 .723-.263.817-.638l.479-1.914c.12-.48.551-.817 1.046-.817.465 0 .842.377.842.842v2.948C16 15.057 15.057 16 13.895 16H2.105C.943 16 0 15.057 0 13.895v-2.948c0-.465.377-.842.842-.842.495 0 .926.337 1.046.817z" fill="currentColor">
                              </path>
                            </g>
                        </g>
                    </g>
                </g>
            </g>
        </g>
    </g>
</svg>