<?xml version="1.0" encoding="UTF-8"?>
<svg viewBox="0 0 16 16" version="1.1" xmlns="http://www.w3.org/2000/svg" xmlns:xlink="http://www.w3.org/1999/xlink">
    <!-- Generator: Sketch 52.2 (67145) - http://www.bohemiancoding.com/sketch -->
    <title>Group</title>
    <desc>Created with Sketch.</desc>
    <defs>
        <linearGradient x1="50%" y1="0%" x2="50%" y2="100%" id="linearGradient-1">
            <stop stop-color="#6E849A" stop-opacity="0.85" offset="0%"></stop>
            <stop stop-color="#6E849A" offset="100%"></stop>
        </linearGradient>
        <path d="M8,16 C3.581722,16 0,12.418278 0,8 C0,3.581722 3.581722,0 8,0 C12.418278,0 16,3.581722 16,8 C16,12.418278 12.418278,16 8,16 L8,16 L8,16 L8,16 L8,16 Z M12.219841,8.5602109 C10.8132274,8.7200703 9.40661368,8.8 8,8.8 C6.59338632,8.8 5.18677264,8.7200703 3.78015896,8.5602109 L3.78015795,8.56021975 C3.49523453,8.52783866 3.28,8.28675755 3.28,8 L3.28,8 C3.28,7.71324245 3.49523453,7.47216134 3.78015795,7.43978025 C5.18677264,7.2799297 6.59338632,7.2 8,7.2 C9.40661368,7.2 10.8132274,7.2799297 12.219841,7.4397891 L12.219842,7.43978025 C12.5047655,7.47216134 12.72,7.71324245 12.72,8 L12.72,8 C12.72,8.28675755 12.5047655,8.52783866 12.219842,8.56021975 Z" id="path-2"></path>
    </defs>
    <g id="Symbols" stroke="none" stroke-width="1" fill="none" fill-rule="evenodd">
        <g id="Icon/System/Clear">
            <g id="Group">
                <rect id="Rectangle" x="0" y="0" width="16" height="16"></rect>
                <g id="Minus-Circle-Filled-Icon">
                    <use fill="#FFFFFF" xlink:href="#path-2"></use>
                    <use fill="url(#linearGradient-1)" xlink:href="#path-2"></use>
                </g>
            </g>
        </g>
    </g>
</svg>