<svg xmlns="http://www.w3.org/2000/svg" xmlns:xlink="http://www.w3.org/1999/xlink" width="16" height="16" viewBox="0 0 16 16">
    <defs>
        <path id="9tqrleu73a" d="M2.75 15.273V3.236c0-.28-.111-.55-.31-.753-.586-.568-.586-1.489 0-2.057C2.731.142 3.115 0 3.5 0s.768.142 1.06.426c.586.568.586 1.489 0 2.057-.199.203-.31.473-.31.753v12.037c0 .402-.336.727-.75.727s-.75-.325-.75-.727zm3.375-12h7.5c.207 0 .375.163.375.363 0 .237-.075.468-.215.662l-2.109 2.921c-.18.25-.18.584 0 .834l2.109 2.922c.14.194.215.425.215.661 0 .201-.168.364-.375.364h-7.5c-.414 0-.75-.326-.75-.727V4c0-.402.336-.727.75-.727z"/>
        <path id="z7gkr05zbc" d="M2.75 15.273V3.236c0-.28-.111-.55-.31-.753-.586-.568-.586-1.489 0-2.057C2.731.142 3.115 0 3.5 0s.768.142 1.06.426c.586.568.586 1.489 0 2.057-.199.203-.31.473-.31.753v12.037c0 .402-.336.727-.75.727s-.75-.325-.75-.727zm3.375-12h7.5c.207 0 .375.163.375.363 0 .237-.075.468-.215.662l-2.109 2.921c-.18.25-.18.584 0 .834l2.109 2.922c.14.194.215.425.215.661 0 .201-.168.364-.375.364h-7.5c-.414 0-.75-.326-.75-.727V4c0-.402.336-.727.75-.727z"/>
        <linearGradient id="wvbanli70b" x1="50%" x2="50%" y1="0%" y2="100%">
            <stop offset="0%" stop-color="#279745" stop-opacity=".85"/>
            <stop offset="100%" stop-color="#279745"/>
        </linearGradient>
    </defs>
    <g fill="none" fill-rule="evenodd">
        <path d="M0 0H16V16H0z"/>
        <use fill="currentColor" xlink:href="#9tqrleu73a"/>
        <use fill="currentColor" xlink:href="#9tqrleu73a"/>
        <g>
            <path d="M0 0H16V16H0z"/>
            <use fill="currentColor" xlink:href="#z7gkr05zbc"/>
            <use fill="currentColor" xlink:href="#z7gkr05zbc"/>
        </g>
    </g>
</svg>
