<?xml version="1.0" encoding="UTF-8"?>
<svg viewBox="0 0 16 16" version="1.1" xmlns="http://www.w3.org/2000/svg" xmlns:xlink="http://www.w3.org/1999/xlink">
    <defs>
        <linearGradient x1="50%" y1="0%" x2="50%" y2="100%" id="linearGradient-1">
            <stop stop-color="currentColor" stop-opacity="0.85" offset="0%"></stop>
            <stop stop-color="currentColor" offset="100%"></stop>
        </linearGradient>
        <path d="M3.81914586,12.1725369 L3.82762942,12.1810287 C4.05745686,12.4110779 4.05745686,12.7839429 3.82762942,13.0139921 L2.50804974,14.3348451 C2.3761689,14.4660813 2.3761689,14.6799189 2.50804974,14.8111551 L3.12040875,15.424105 C3.33249783,15.6363987 3.18210739,16 2.88209775,16 L0.517497349,16 C0.232141136,16 0,15.7676349 0,15.4820033 L0,13.1151211 C0,12.814822 0.363250747,12.6642864 0.575339825,12.8765801 L1.19078377,13.4933899 C1.32266461,13.6246261 1.53552492,13.6246261 1.66740576,13.4933899 L2.98698544,12.1725369 C3.21681288,11.9424877 3.58931842,11.9424877 3.81914586,12.1725369 Z M12.1808541,12.1725369 C12.4106816,11.9424877 12.7831871,11.9424877 13.0130146,12.1725369 L13.0130146,12.1725369 L14.3325942,13.4933899 C14.4644751,13.6246261 14.6773354,13.6246261 14.8092162,13.4933899 L14.8092162,13.4933899 L15.4246602,12.8765801 C15.6367493,12.6642864 16,12.814822 16,13.1151211 L16,13.1151211 L16,15.4820033 C16,15.7676349 15.7678589,16 15.4825027,16 L15.4825027,16 L13.1179022,16 C12.8178926,16 12.6675022,15.6363987 12.8795912,15.424105 L12.8795912,15.424105 L13.4919503,14.8111551 C13.6238311,14.6799189 13.6238311,14.4660813 13.4919503,14.3348451 L13.4919503,14.3348451 L12.1723706,13.0139921 C11.9425431,12.7839429 11.9425431,12.4110779 12.1723706,12.1810287 L12.1723706,12.1810287 Z M10.2241317,4.8 C10.7631399,4.8 11.2,5.36321988 11.2,6.05813382 L11.2,9.94186618 C11.2,10.6367801 10.7631399,11.2 10.2241317,11.2 L5.7758683,11.2 C5.23686007,11.2 4.8,10.6367801 4.8,9.94186618 L4.8,6.05813382 C4.8,5.36321988 5.23686007,4.8 5.7758683,4.8 L10.2241317,4.8 Z M2.88209775,0 C3.18210739,0 3.33249783,0.363601274 3.12040875,0.575895011 L3.12040875,0.575895011 L2.50804974,1.18884493 C2.3761689,1.32008106 2.3761689,1.53391875 2.50804974,1.66515488 L2.50804974,1.66515488 L3.82762942,2.98600791 C4.05745686,3.21605713 4.05745686,3.58892213 3.82762942,3.81897134 L3.82762942,3.81897134 L3.81914586,3.82746309 C3.58931842,4.0575123 3.21681288,4.0575123 2.98698544,3.82746309 L2.98698544,3.82746309 L1.66740576,2.50661006 C1.53552492,2.37537393 1.32266461,2.37537393 1.19078377,2.50661006 L1.19078377,2.50661006 L0.575339825,3.12341986 C0.363250747,3.3357136 0,3.18517804 0,2.8848789 L0,2.8848789 L0,0.517996719 C0,0.232365145 0.232141136,0 0.517497349,0 L0.517497349,0 Z M15.4825027,0 C15.7678589,0 16,0.232365145 16,0.517996719 L16,2.8848789 C16,3.18517804 15.6367493,3.3357136 15.4246602,3.12341986 L14.8092162,2.50661006 C14.6773354,2.37537393 14.4644751,2.37537393 14.3325942,2.50661006 L13.0130146,3.82746309 C12.7831871,4.0575123 12.4106816,4.0575123 12.1808541,3.82746309 L12.1723706,3.81897134 C11.9425431,3.58892213 11.9425431,3.21605713 12.1723706,2.98600791 L13.4919503,1.66515488 C13.6238311,1.53391875 13.6238311,1.32008106 13.4919503,1.18884493 L12.8795912,0.575895011 C12.6675022,0.363601274 12.8178926,0 13.1179022,0 L15.4825027,0 Z" id="path-2"></path>
    </defs>
    <g id="Icon/System/Fullscreen" stroke="none" stroke-width="1" fill="none" fill-rule="evenodd">
        <g id="Group-4">
            <rect id="Rectangle" x="0" y="0" width="16" height="16"></rect>
            <g id="exitfullscreen">
                <use fill="currentColor" xlink:href="#path-2"></use>
                <use fill="currentColor" xlink:href="#path-2"></use>
            </g>
        </g>
    </g>
</svg>
