<svg xmlns="http://www.w3.org/2000/svg" xmlns:xlink="http://www.w3.org/1999/xlink" width="16" height="17" viewBox="0 0 16 17">
        <path fill="currentColor" d="M4.536 2.182l.504-.976C5.42.466 6.2 0 7.052 0h1.896c.852 0 1.631.467 2.012 1.206l.504.976H12.5c.828 0 1.5.651 1.5 1.454V4c0 .2-.168.364-.375.364H2.375C2.168 4.364 2 4.2 2 4v-.364c0-.803.672-1.454 1.5-1.454h1.036zm1.678 0h3.572l-.167-.325c-.127-.247-.387-.402-.671-.402H7.052c-.284 0-.544.155-.67.402l-.168.325zm6.99 3.273c.44 0 .796.35.796.78 0 .048-.004.096-.013.143l-1.454 7.705C12.323 15.194 11.336 16 10.185 16h-4.37c-1.151 0-2.138-.806-2.348-1.917L2.013 6.378c-.08-.424.206-.832.638-.91.048-.01.096-.013.145-.013h10.408zM6.5 8c-.414 0-.75.326-.75.727v4c0 .402.336.728.75.728s.75-.326.75-.728v-4C7.25 8.326 6.914 8 6.5 8zm3 0c-.414 0-.75.326-.75.727v4c0 .402.336.728.75.728s.75-.326.75-.728v-4c0-.401-.336-.727-.75-.727z"/>
</svg>
