<?xml version="1.0" encoding="UTF-8"?>
<svg viewBox="0 0 16 16" version="1.1" xmlns="http://www.w3.org/2000/svg" xmlns:xlink="http://www.w3.org/1999/xlink">
            <defs>
        <linearGradient x1="50%" y1="0%" x2="50%" y2="100%" id="linearGradient-1">
            <stop stop-color="currentColor" stop-opacity="0.85" offset="0%"></stop>
            <stop stop-color="currentColor" offset="100%"></stop>
        </linearGradient>
        <path d="M2,4 C0.8954305,4 0,3.1045695 0,2 C0,0.8954305 0.8954305,0 2,0 C3.1045695,0 4,0.8954305 4,2 C4,3.1045695 3.1045695,4 2,4 Z M14,16 C12.8954305,16 12,15.1045695 12,14 C12,12.8954305 12.8954305,12 14,12 C15.1045695,12 16,12.8954305 16,14 C16,15.1045695 15.1045695,16 14,16 Z M8,16 C6.8954305,16 6,15.1045695 6,14 C6,12.8954305 6.8954305,12 8,12 C9.1045695,12 10,12.8954305 10,14 C10,15.1045695 9.1045695,16 8,16 Z M2,16 C0.8954305,16 0,15.1045695 0,14 C0,12.8954305 0.8954305,12 2,12 C3.1045695,12 4,12.8954305 4,14 C4,15.1045695 3.1045695,16 2,16 Z M14,10 C12.8954305,10 12,9.1045695 12,8 C12,6.8954305 12.8954305,6 14,6 C15.1045695,6 16,6.8954305 16,8 C16,9.1045695 15.1045695,10 14,10 Z M8,10 C6.8954305,10 6,9.1045695 6,8 C6,6.8954305 6.8954305,6 8,6 C9.1045695,6 10,6.8954305 10,8 C10,9.1045695 9.1045695,10 8,10 Z M2,10 C0.8954305,10 0,9.1045695 0,8 C0,6.8954305 0.8954305,6 2,6 C3.1045695,6 4,6.8954305 4,8 C4,9.1045695 3.1045695,10 2,10 Z M8,4 C6.8954305,4 6,3.1045695 6,2 C6,0.8954305 6.8954305,0 8,0 C9.1045695,0 10,0.8954305 10,2 C10,3.1045695 9.1045695,4 8,4 Z M14,4 C12.8954305,4 12,3.1045695 12,2 C12,0.8954305 12.8954305,0 14,0 C15.1045695,0 16,0.8954305 16,2 C16,3.1045695 15.1045695,4 14,4 Z" id="path-2"></path>
    </defs>
    <g id="Symbols" stroke="none" stroke-width="1" fill="none" fill-rule="evenodd" opacity="0.396414621">
        <g id="Icon/System/Grid">
            <g id="Group-14">
                <rect id="Rectangle-2" x="0" y="0" width="16" height="16"></rect>
                <g id="grid">
                    <use fill="currentColor" xlink:href="#path-2"></use>
                    <use fill="url(#linearGradient-1)" xlink:href="#path-2"></use>
                </g>
            </g>
        </g>
    </g>
</svg>