<?xml version="1.0" encoding="UTF-8"?>
<svg viewBox="0 0 16 16" version="1.1" xmlns="http://www.w3.org/2000/svg" xmlns:xlink="http://www.w3.org/1999/xlink">
    <!-- Generator: Sketch 63 (92445) - https://sketch.com -->
    <title>Icon/Editor/Purchase</title>
    <desc>Created with Sketch.</desc>
    <defs>

        <path d="M14.3874318,0.531778564 C14.8904604,0.531778564 15.2982456,0.939563807 15.2982456,1.4425924 C15.2982456,1.94562099 14.8904604,2.35340623 14.3874318,2.35340623 L13.516264,2.35340623 L12.3208511,7.46077856 L11.9886591,9.45953183 C11.9878532,9.46436677 11.9870297,9.46919871 11.9861883,9.47402756 L11.983611,9.48850473 C11.7860196,10.5752574 10.744853,11.2960651 9.65810034,11.0984737 L9.65810034,11.0984737 L2.85965158,9.86239208 C2.11043048,9.72617006 1.50357587,9.17629908 1.29437457,8.44409452 L1.29437457,8.44409452 L0.54282251,5.81366232 C0.491770243,5.63497939 0.465870405,5.45005312 0.465870405,5.26422007 C0.465870405,4.15965057 1.36130091,3.26422007 2.4658704,3.26422007 L2.4658704,3.26422007 L10.6602902,3.26422007 C10.7704519,3.26422007 10.8804253,3.27332174 10.9890882,3.29143222 C11.1325638,3.31534482 11.2699094,3.35397742 11.3998368,3.40552655 L11.9065195,1.23562852 C12.0027052,0.823404173 12.3702103,0.531778564 12.7935076,0.531778564 L14.3874318,0.531778564 Z" id="path-2"></path>

        <path d="M3.33333333,12.2105263 C3.97282094,12.2105263 4.49122807,12.7289334 4.49122807,13.3684211 C4.49122807,14.0079087 3.97282094,14.5263158 3.33333333,14.5263158 C2.69384573,14.5263158 2.1754386,14.0079087 2.1754386,13.3684211 C2.1754386,12.7289334 2.69384573,12.2105263 3.33333333,12.2105263 Z M10.2807018,12.2105263 C10.9201894,12.2105263 11.4385965,12.7289334 11.4385965,13.3684211 C11.4385965,14.0079087 10.9201894,14.5263158 10.2807018,14.5263158 C9.64121415,14.5263158 9.12280702,14.0079087 9.12280702,13.3684211 C9.12280702,12.7289334 9.64121415,12.2105263 10.2807018,12.2105263 Z" id="path-4"></path>
    </defs>
    <g id="Icon/Editor/Purchase" stroke="none" stroke-width="1" fill="none" fill-rule="evenodd">
        <g id="Icon/System/Cart">
            <g id="Group-14">
                <rect id="Rectangle-6" fill-rule="nonzero" x="0" y="0" width="16" height="16"></rect>
                <g id="Cart#1-Copy">
                    <g id="Combined-Shape">
                        <use fill="#FFFFFF" xlink:href="#path-2"></use>
                        <use fill="currentColor" xlink:href="#path-2"></use>
                    </g>
                    <g id="Combined-Shape">
                        <use fill="#FFFFFF" xlink:href="#path-4"></use>
                        <use fill="currentColor" xlink:href="#path-4"></use>
                    </g>
                </g>
            </g>
        </g>
    </g>
</svg>