<svg xmlns="http://www.w3.org/2000/svg" xmlns:xlink="http://www.w3.org/1999/xlink" viewBox="0 0 16 17">
    <defs>
        <linearGradient id="w2qklw9rnb" x1="50%" x2="50%" y1="0%" y2="100%">
            <stop offset="0%" stop-color="#279745" stop-opacity=".85"/>
            <stop offset="100%" stop-color="#279745"/>
        </linearGradient>
        <path id="yfewz4hlfa" d="M8 16c4.418 0 8-3.582 8-8s-3.582-8-8-8-8 3.582-8 8 3.582 8 8 8zM6.908 8.565l4.18-3.436c.228-.188.557-.168.762.044.2.207.2.541 0 .748l-4.598 4.76c-.408.422-1.074.426-1.486.007-.026-.026-.05-.054-.074-.083L4.129 8.647c-.185-.231-.17-.569.036-.781.207-.214.537-.24.772-.058l1.005.773c.288.222.686.215.966-.016z"/>
    </defs>
    <g fill="none" fill-rule="evenodd">
        <g>
            <g>
                <g>
                    <g>
                        <g>
                            <path d="M0 0H16V16H0z" transform="translate(-1392 -275) translate(1098) translate(0 211.5) translate(16.105 51) translate(277.895 13)"/>
                            <g transform="translate(-1392 -275) translate(1098) translate(0 211.5) translate(16.105 51) translate(277.895 13)">
                                <use fill="#FFF" xlink:href="#yfewz4hlfa"/>
                                <use fill="url(#w2qklw9rnb)" xlink:href="#yfewz4hlfa"/>
                            </g>
                        </g>
                    </g>
                </g>
            </g>
        </g>
    </g>
</svg>
