<svg viewBox="0 0 16 16" version="1.1" xmlns="http://www.w3.org/2000/svg" xmlns:xlink="http://www.w3.org/1999/xlink">
<path d="M15 13a1 1 0 011 1v1a1 1 0 01-1 1h-1a1 1 0 01-1-1v-1a1 1 0 011-1h1zM2 13a1 1 0 011 1v1a1 1 0 01-1 1H1a1 1 0 01-1-1v-1a1 1 0 011-1h1zm9.5 1a.5.5 0 110 1h-7a.5.5 0 110-1h7zM1.5 4a.5.5 0 01.5.5v7a.5.5 0 11-1 0v-7a.5.5 0 01.5-.5zm13 0a.5.5 0 01.5.5v7a.5.5 0 11-1 0v-7a.5.5 0 01.5-.5zM2 0a1 1 0 011 1v1a1 1 0 01-1 1H1a1 1 0 01-1-1V1a1 1 0 011-1h1zm13 0a1 1 0 011 1v1a1 1 0 01-1 1h-1a1 1 0 01-1-1V1a1 1 0 011-1h1zm-3.5 1a.5.5 0 110 1h-7a.5.5 0 010-1h7zm-1.639 9.984l-.503-1.398h-2.73l-.493 1.402a.869.869 0 01-.82.58.427.427 0 01-.4-.577l2.234-5.996a.914.914 0 011.713 0l2.233 5.992a.43.43 0 01-.404.581.882.882 0 01-.83-.584zm-.81-2.404l-.67-1.944c-.048-.13-.116-.335-.202-.615-.086-.28-.146-.485-.178-.615-.088.4-.217.838-.386 1.313l-.644 1.86h2.08z" fill="currentColor" />
</svg> 
