<?xml version="1.0" encoding="UTF-8"?>
<svg viewBox="0 0 12 18" version="1.1" xmlns="http://www.w3.org/2000/svg" xmlns:xlink="http://www.w3.org/1999/xlink">
    <g transform="translate(-2, 2)">
      <path d="M4.53647451,2.18181818 L5.0395898,1.20607943 C5.42072184,0.466914275 6.19981385,3.22973971e-16 7.05205098,3.22973971e-16 L8.94794902,0 C9.80018615,0 10.5792782,0.466914275 10.9604102,1.20607943 L11.4635255,2.18181818 L12.5,2.18181818 C13.3284271,2.18181818 14,2.83304036 14,3.63636364 L14,4 C14,4.20083082 13.8321068,4.36363636 13.625,4.36363636 L2.375,4.36363636 C2.16789322,4.36363636 2,4.20083082 2,4 L2,3.63636364 C2,2.83304036 2.67157288,2.18181818 3.5,2.18181818 L4.53647451,2.18181818 Z M6.21352549,2.18181818 L9.78647451,2.18181818 L9.61876941,1.85657193 C9.4917254,1.61018355 9.23202806,1.45454545 8.94794902,1.45454545 L7.05205098,1.45454545 C6.76797194,1.45454545 6.5082746,1.61018355 6.38123059,1.85657193 L6.21352549,2.18181818 Z M13.2041215,5.45454545 C13.643673,5.45454545 14,5.80427589 14,6.23569024 C14,6.28340226 13.9955462,6.33101394 13.9866945,6.37792831 L12.5328634,14.0832799 C12.3232825,15.1940655 11.3361233,16 10.1851442,16 L5.81499671,16 C4.66401765,16 3.67685849,15.1940655 3.46727756,14.0832799 L2.01344644,6.37792831 C1.93340882,5.95372634 2.2188954,5.54616055 2.65109856,5.46760463 C2.69889782,5.45891678 2.74740754,5.45454545 2.79601949,5.45454545 L13.2041215,5.45454545 Z M6.5,8 C6.08578644,8 5.75,8.32561109 5.75,8.72727273 L5.75,12.7272727 C5.75,13.1289344 6.08578644,13.4545455 6.5,13.4545455 C6.91421356,13.4545455 7.25,13.1289344 7.25,12.7272727 L7.25,8.72727273 C7.25,8.32561109 6.91421356,8 6.5,8 Z M9.5,8 C9.08578644,8 8.75,8.32561109 8.75,8.72727273 L8.75,12.7272727 C8.75,13.1289344 9.08578644,13.4545455 9.5,13.4545455 C9.91421356,13.4545455 10.25,13.1289344 10.25,12.7272727 L10.25,8.72727273 C10.25,8.32561109 9.91421356,8 9.5,8 Z" fill="currentColor"></path>
    </g>
</svg>
