<svg viewBox="1.5 0 13 16" version="1.1" xmlns="http://www.w3.org/2000/svg" xmlns:xlink="http://www.w3.org/1999/xlink">
	<path d="M13.5,15 C13.7761424,15 14,15.2238576 14,15.5 C14,15.7761424 13.7761424,16 13.5,16 L2.5,16 C2.22385763,16 2,15.7761424 2,15.5 C2,15.2238576 2.22385763,15 2.5,15 L13.5,15 Z M3.85,0 C4.26421356,-7.6089797e-17 4.6,0.335786438 4.6,0.75 L4.6,0.75 L4.6,8.4 C4.6,10.4255877 6.1,11.6 7.6,11.6 L7.6,11.6 L8.4,11.6 C9.9,11.6 11.5,10.2397196 11.5,8.4 L11.5,8.4 L11.5,0.75 C11.5,0.335786438 11.8357864,-3.49325055e-17 12.25,0 L12.25,0 L13.35,0 C13.7642136,3.49325055e-17 14.1,0.335786438 14.1,0.75 L14.1,0.75 L14.1,8.4 C14.1,11.5 11.6,14 8.5,14 L8.5,14 L7.6,14 C4.5,14 2,11.5 2,8.4 L2,8.4 L2,0.75 C2,0.335786438 2.33578644,7.6089797e-17 2.75,0 L2.75,0 Z" fill="currentColor">
	</path>
</svg>
