<?xml version="1.0" encoding="UTF-8"?>
<svg width="20px" height="20px" viewBox="0 0 20 20" version="1.1" xmlns="http://www.w3.org/2000/svg" xmlns:xlink="http://www.w3.org/1999/xlink">
    <title>Combined Shape</title>
    <defs>
        <linearGradient x1="50%" y1="1.22154986%" x2="50%" y2="100%" id="linearGradient-1">
            <stop stop-color="#8F8F91" stop-opacity="0.85" offset="0%"></stop>
            <stop stop-color="#8F8F91" offset="100%"></stop>
        </linearGradient>
        <path d="M7.86308893,0 C7.79181516,0 7.7205722,0.00300964369 7.64954462,0.00902113403 C6.23429739,0.128802002 5.18261988,1.39112253 5.30055715,2.82849294 L5.39645265,3.99722751 C5.53405839,5.67430909 6.91443602,6.96429466 8.57142857,6.96429466 C10.2284211,6.96429466 11.6087987,5.67430909 11.7464045,3.99722751 L11.8423,2.82849294 C11.848219,2.75635506 11.8511823,2.68399843 11.8511823,2.6116105 C11.8511823,1.16925785 10.699921,0 9.27976821,0 L7.86308893,0 Z M15.4080612,11.5061016 C15.4827973,11.1650564 15.3495304,10.8116726 15.0695961,10.6085939 C12.9313415,9.05739396 10.7608474,8.27009991 8.57142857,8.27009991 C6.38200976,8.27009991 4.21151565,9.05739396 2.07326105,10.6085939 C1.79332673,10.8116726 1.66005983,11.1650564 1.73479597,11.5061016 L2.19150561,13.5902155 C2.37945278,14.4478796 2.93529958,15.1793807 3.71125989,15.5902305 C5.66619447,16.6253149 7.28623487,17.1428571 8.5713811,17.1428571 C9.85656731,17.1428571 11.4766544,16.6252843 13.4316424,15.5901385 C14.2075892,15.1792891 14.7634227,14.4477955 14.9513674,13.5901432 L15.4080612,11.5061016 L15.4080612,11.5061016 Z" id="path-2"></path>
    </defs>
    <g id="Page-1" stroke="none" stroke-width="1" fill="none" fill-rule="evenodd">
        <g id="Reports/Actions/Default" transform="translate(-183.000000, -55.000000)">
            <g id="Faces" transform="translate(128.000000, 40.000000)">
                <g id="Tester" transform="translate(38.000000, 0.000000)">
                    <g id="Combined-Shape" transform="translate(15.428571, 15.428571)">
                        <use fill="#FFFFFF" xlink:href="#path-2"></use>
                        <use fill="url(#linearGradient-1)" xlink:href="#path-2"></use>
                    </g>
                </g>
            </g>
        </g>
    </g>
</svg>