<?xml version="1.0" encoding="UTF-8"?>
<svg width="58px" height="75px" viewBox="0 0 116 149" version="1.1" xmlns="http://www.w3.org/2000/svg" xmlns:xlink="http://www.w3.org/1999/xlink">
    <!-- Generator: Sketch 52.1 (67048) - http://www.bohemiancoding.com/sketch -->
    <title>Image_File</title>
    <desc>Created with Sketch.</desc>
    <g id="Page-1" stroke="none" stroke-width="1" fill="none" fill-rule="evenodd">
        <g id="detailed" transform="translate(-445.000000, -5451.000000)">
            <g id="Image_File" transform="translate(446.000000, 5453.000000)">
                <path d="M112.1,35.9 L113.3,138.3 C113.3,141.8 110.5,144.6 107,144.6 L7.4,144.6 C3.9,144.6 1.1,141.8 1.1,138.3 L1.1,6.6 C1.1,3.1 3.9,0.3 7.4,0.3 L79.6,0.3 L112.1,35.9 Z" id="Path" fill="#FFFFFF"></path>
                <path d="M112.2,36.5 L113.3,138.6 C113.3,141.9 110.6,144.5 107.4,144.5 L12.9,144.5 C9.6,144.5 7,141.8 7,138.6 L7,11.6 C7,8.3 9.7,5.7 12.9,5.7 L84.9,5.7 L112.2,36.5 Z" id="Path" fill="#DDECFE"></path>
                <rect id="Rectangle" fill="#FFFFFF" transform="translate(33.878505, 90.605925) rotate(-45.000000) translate(-33.878505, -90.605925) " x="28.6785549" y="85.4559744" width="10.3999003" height="10.2999012"></rect>
                <rect id="Rectangle" fill="#FFFFFF" transform="translate(73.631690, 73.202560) rotate(-45.000000) translate(-73.631690, -73.202560) " x="66.9817538" y="66.9526199" width="13.2998725" height="12.4998801"></rect>
                <path d="M79.7,0.5 L79.7,28.7 C79.7,32.6 83.2,35.9 87,35.9 L112.1,35.9" id="Path" fill="#FFFFFF"></path>
                <path d="M83.2,3.3 L83.2,29 C83.2,32.5 86.3,35.6 89.9,35.6 L112.7,35.6" id="Path" fill="#96C5FF"></path>
                <path d="M83.2,8.5 L83.2,34.2 C83.2,37.7 86.3,40.8 89.9,40.8 L112.7,40.8 L112.7,35.6" id="Path" fill="#96C5FF"></path>
                <path d="M79.7,22.5 L79.7,28.7 C79.7,32.6 83.2,35.9 87,35.9 L112.1,35.9" id="Path" stroke="#1676EE" stroke-width="3" stroke-linecap="round" stroke-linejoin="round"></path>
                <path d="M79.7,0.5 L79.7,15.7" id="Path" stroke="#1676EE" stroke-width="3" stroke-linecap="round" stroke-linejoin="round"></path>
                <path d="M1.2,34.1 L1.2,32.6" id="Path" stroke="#1676EE" stroke-width="3" stroke-linecap="round" stroke-linejoin="round"></path>
                <path d="M1.2,25.4 L1.2,6.7 C1.2,3.2 4,0.4 7.5,0.4 L79.7,0.4 L112.2,35.9 L113.4,138.3 C113.4,141.8 110.6,144.6 107.1,144.6 L7.5,144.6 C4,144.6 1.2,141.8 1.2,138.3 L1.2,49.6" id="Path" stroke="#1676EE" stroke-width="3" stroke-linecap="round" stroke-linejoin="round"></path>
                <polyline id="Path" stroke="#91C2FF" stroke-width="3" stroke-linecap="round" stroke-linejoin="round" points="28.3 92.6 33.1 97.4 39.8 90.6"></polyline>
                <polyline id="Path" stroke="#91C2FF" stroke-width="3" stroke-linecap="round" stroke-linejoin="round" points="68.6 77.6 73.9 82.9 82.1 74.7"></polyline>
                <polyline id="Path" stroke="#1676EE" stroke-width="3" stroke-linecap="round" stroke-linejoin="round" points="31.2 84.2 33.1 82.3 55.7 104.9"></polyline>
                <path d="M15.7,99.6 L25.8,89.6" id="Path" stroke="#1676EE" stroke-width="3" stroke-linecap="round" stroke-linejoin="round"></path>
                <polyline id="Path" stroke="#1676EE" stroke-width="3" stroke-linecap="round" stroke-linejoin="round" points="72.2 65.8 73.9 64.1 105.6 95.9"></polyline>
                <path d="M69.2,68.8 L69.3,68.7" id="Path" stroke="#1676EE" stroke-width="3" stroke-linecap="round" stroke-linejoin="round"></path>
                <path d="M48.7,89.3 L64.3,73.7" id="Path" stroke="#1676EE" stroke-width="3" stroke-linecap="round" stroke-linejoin="round"></path>
                <g id="Group" transform="translate(25.000000, 45.000000)">
                    <circle id="Oval" fill="#FFFFFF" cx="10" cy="10.1" r="9.2"></circle>
                    <circle id="Oval" fill="#96C5FF" cx="11.6" cy="11.6" r="7.7"></circle>
                    <path d="M3.7,3.5 C3.8,3.4 4,3.3 4.1,3.1" id="Path" stroke="#1676EE" stroke-width="3" stroke-linecap="round" stroke-linejoin="round"></path>
                    <path d="M10,0.9 C15.1,0.9 19.2,5 19.2,10.1 C19.2,15.2 15.1,19.3 10,19.3 C4.9,19.3 0.8,15.2 0.8,10.1" id="Path" stroke="#1676EE" stroke-width="3" stroke-linecap="round" stroke-linejoin="round"></path>
                </g>
            </g>
        </g>
    </g>
</svg>
